G04 #@! TF.FileFunction,Legend,Bot*
%FSLAX46Y46*%
G04 Gerber Fmt 4.6, Leading zero omitted, Abs format (unit mm)*
G04 Created by KiCad (PCBNEW 4.0.5-e0-6337~49~ubuntu16.04.1) date Mon Jan 23 08:36:28 2017*
%MOMM*%
%LPD*%
G01*
G04 APERTURE LIST*
%ADD10C,0.100000*%
%ADD11C,0.300000*%
%ADD12C,0.200000*%
%ADD13C,0.150000*%
%ADD14C,0.160000*%
G04 APERTURE END LIST*
D10*
D11*
X153459714Y-112930714D02*
X153531143Y-113002143D01*
X153745429Y-113073571D01*
X153888286Y-113073571D01*
X154102571Y-113002143D01*
X154245429Y-112859286D01*
X154316857Y-112716429D01*
X154388286Y-112430714D01*
X154388286Y-112216429D01*
X154316857Y-111930714D01*
X154245429Y-111787857D01*
X154102571Y-111645000D01*
X153888286Y-111573571D01*
X153745429Y-111573571D01*
X153531143Y-111645000D01*
X153459714Y-111716429D01*
X111803714Y-112803714D02*
X111875143Y-112875143D01*
X112089429Y-112946571D01*
X112232286Y-112946571D01*
X112446571Y-112875143D01*
X112589429Y-112732286D01*
X112660857Y-112589429D01*
X112732286Y-112303714D01*
X112732286Y-112089429D01*
X112660857Y-111803714D01*
X112589429Y-111660857D01*
X112446571Y-111518000D01*
X112232286Y-111446571D01*
X112089429Y-111446571D01*
X111875143Y-111518000D01*
X111803714Y-111589429D01*
X113609286Y-118153571D02*
X113609286Y-116653571D01*
X112752143Y-118153571D01*
X112752143Y-116653571D01*
X111752143Y-116653571D02*
X111466429Y-116653571D01*
X111323571Y-116725000D01*
X111180714Y-116867857D01*
X111109286Y-117153571D01*
X111109286Y-117653571D01*
X111180714Y-117939286D01*
X111323571Y-118082143D01*
X111466429Y-118153571D01*
X111752143Y-118153571D01*
X111895000Y-118082143D01*
X112037857Y-117939286D01*
X112109286Y-117653571D01*
X112109286Y-117153571D01*
X112037857Y-116867857D01*
X111895000Y-116725000D01*
X111752143Y-116653571D01*
X154376286Y-107866571D02*
X154376286Y-106366571D01*
X153519143Y-107866571D01*
X153519143Y-106366571D01*
X152519143Y-106366571D02*
X152233429Y-106366571D01*
X152090571Y-106438000D01*
X151947714Y-106580857D01*
X151876286Y-106866571D01*
X151876286Y-107366571D01*
X151947714Y-107652286D01*
X152090571Y-107795143D01*
X152233429Y-107866571D01*
X152519143Y-107866571D01*
X152662000Y-107795143D01*
X152804857Y-107652286D01*
X152876286Y-107366571D01*
X152876286Y-106866571D01*
X152804857Y-106580857D01*
X152662000Y-106438000D01*
X152519143Y-106366571D01*
X154213571Y-118026571D02*
X154213571Y-116526571D01*
X153356428Y-118026571D01*
X153356428Y-116526571D01*
X151784999Y-117883714D02*
X151856428Y-117955143D01*
X152070714Y-118026571D01*
X152213571Y-118026571D01*
X152427856Y-117955143D01*
X152570714Y-117812286D01*
X152642142Y-117669429D01*
X152713571Y-117383714D01*
X152713571Y-117169429D01*
X152642142Y-116883714D01*
X152570714Y-116740857D01*
X152427856Y-116598000D01*
X152213571Y-116526571D01*
X152070714Y-116526571D01*
X151856428Y-116598000D01*
X151784999Y-116669429D01*
X114208571Y-107739571D02*
X114208571Y-106239571D01*
X113351428Y-107739571D01*
X113351428Y-106239571D01*
X111779999Y-107596714D02*
X111851428Y-107668143D01*
X112065714Y-107739571D01*
X112208571Y-107739571D01*
X112422856Y-107668143D01*
X112565714Y-107525286D01*
X112637142Y-107382429D01*
X112708571Y-107096714D01*
X112708571Y-106882429D01*
X112637142Y-106596714D01*
X112565714Y-106453857D01*
X112422856Y-106311000D01*
X112208571Y-106239571D01*
X112065714Y-106239571D01*
X111851428Y-106311000D01*
X111779999Y-106382429D01*
D12*
X113284000Y-113284000D02*
X109728000Y-113284000D01*
X113411000Y-113284000D02*
X113284000Y-113284000D01*
X116586000Y-110109000D02*
X113411000Y-113284000D01*
X116713000Y-118364000D02*
X116713000Y-115951000D01*
X109347000Y-118364000D02*
X116713000Y-118364000D01*
X116586000Y-108204000D02*
X116586000Y-109982000D01*
X110109000Y-108204000D02*
X116586000Y-108204000D01*
X148336000Y-108204000D02*
X155448000Y-108204000D01*
X148336000Y-110109000D02*
X148336000Y-108204000D01*
X148336000Y-118364000D02*
X148336000Y-116205000D01*
X151003000Y-113411000D02*
X148082000Y-116332000D01*
X155194000Y-118364000D02*
X148209000Y-118364000D01*
X155448000Y-113411000D02*
X151003000Y-113411000D01*
D13*
X124870000Y-102219000D02*
X148570000Y-102219000D01*
X148570000Y-102219000D02*
X148570000Y-86219000D01*
X148570000Y-86219000D02*
X124870000Y-86219000D01*
X124870000Y-86219000D02*
X124870000Y-102219000D01*
D14*
X129133524Y-102558905D02*
X129133524Y-103206524D01*
X129095429Y-103282714D01*
X129057333Y-103320810D01*
X128981143Y-103358905D01*
X128828762Y-103358905D01*
X128752571Y-103320810D01*
X128714476Y-103282714D01*
X128676381Y-103206524D01*
X128676381Y-102558905D01*
X128333524Y-102635095D02*
X128295429Y-102597000D01*
X128219238Y-102558905D01*
X128028762Y-102558905D01*
X127952572Y-102597000D01*
X127914476Y-102635095D01*
X127876381Y-102711286D01*
X127876381Y-102787476D01*
X127914476Y-102901762D01*
X128371619Y-103358905D01*
X127876381Y-103358905D01*
M02*
