G04 #@! TF.FileFunction,Soldermask,Bot*
%FSLAX46Y46*%
G04 Gerber Fmt 4.6, Leading zero omitted, Abs format (unit mm)*
G04 Created by KiCad (PCBNEW 4.0.5-e0-6337~49~ubuntu16.04.1) date Mon Jan 23 08:36:28 2017*
%MOMM*%
%LPD*%
G01*
G04 APERTURE LIST*
%ADD10C,0.100000*%
%ADD11C,3.400000*%
%ADD12R,3.400000X3.400000*%
%ADD13R,2.100000X2.100000*%
%ADD14O,2.100000X2.100000*%
%ADD15C,1.924000*%
%ADD16R,3.400000X1.600000*%
%ADD17C,2.400000*%
G04 APERTURE END LIST*
D10*
D11*
X110490000Y-76454000D03*
D12*
X110490000Y-71374000D03*
D13*
X151765000Y-85344000D03*
D14*
X154559000Y-71628000D03*
X157099000Y-71628000D03*
X154559000Y-74168000D03*
X157099000Y-74168000D03*
X154559000Y-76708000D03*
D13*
X157099000Y-76708000D03*
D12*
X156845000Y-118364000D03*
D11*
X156845000Y-113284000D03*
X156845000Y-108204000D03*
X109220000Y-118364000D03*
X109220000Y-113284000D03*
D12*
X109220000Y-108204000D03*
D11*
X156845000Y-90424000D03*
X156845000Y-95504000D03*
D12*
X156845000Y-100584000D03*
D15*
X136775000Y-107284000D03*
X136775000Y-119284000D03*
X148975000Y-119284000D03*
X148975000Y-107284000D03*
X134775000Y-113284000D03*
X131290000Y-113284000D03*
X117090000Y-119284000D03*
X117090000Y-107284000D03*
X129290000Y-107284000D03*
X129290000Y-119284000D03*
D16*
X146570000Y-101219000D03*
X146570000Y-99219000D03*
X146570000Y-97219000D03*
X146570000Y-95219000D03*
X146570000Y-93219000D03*
X146570000Y-91219000D03*
X146570000Y-89219000D03*
X146570000Y-87219000D03*
X126870000Y-87219000D03*
X126870000Y-89219000D03*
X126870000Y-91219000D03*
X126870000Y-93219000D03*
X126870000Y-95219000D03*
X126870000Y-97219000D03*
X126870000Y-99219000D03*
X126870000Y-101219000D03*
D17*
X118031001Y-71381001D03*
X118031001Y-76461001D03*
X147495001Y-66301001D03*
X147495001Y-81541001D03*
M02*
