G04 #@! TF.FileFunction,Soldermask,Top*
%FSLAX46Y46*%
G04 Gerber Fmt 4.6, Leading zero omitted, Abs format (unit mm)*
G04 Created by KiCad (PCBNEW 4.0.5-e0-6337~49~ubuntu16.04.1) date Mon Jan 23 08:36:28 2017*
%MOMM*%
%LPD*%
G01*
G04 APERTURE LIST*
%ADD10C,0.100000*%
%ADD11R,2.000000X2.400000*%
%ADD12R,2.000000X0.950000*%
%ADD13R,0.950000X2.000000*%
%ADD14C,3.400000*%
%ADD15R,3.400000X3.400000*%
%ADD16R,2.100000X2.100000*%
%ADD17O,2.100000X2.100000*%
%ADD18R,1.300000X1.200000*%
%ADD19R,2.400000X2.100000*%
%ADD20C,1.924000*%
%ADD21R,1.900000X2.400000*%
%ADD22R,4.200000X2.400000*%
%ADD23C,2.400000*%
%ADD24R,1.300000X1.600000*%
%ADD25R,1.600000X1.300000*%
G04 APERTURE END LIST*
D10*
D11*
X109855000Y-91408000D03*
X109855000Y-87408000D03*
X121920000Y-91408000D03*
X121920000Y-87408000D03*
D12*
X132275000Y-95129000D03*
X132275000Y-94329000D03*
X132275000Y-93529000D03*
X132275000Y-92729000D03*
X132275000Y-91929000D03*
X132275000Y-91129000D03*
X132275000Y-90329000D03*
X132275000Y-89529000D03*
D13*
X133725000Y-88079000D03*
X134525000Y-88079000D03*
X135325000Y-88079000D03*
X136125000Y-88079000D03*
X136925000Y-88079000D03*
X137725000Y-88079000D03*
X138525000Y-88079000D03*
X139325000Y-88079000D03*
D12*
X140775000Y-89529000D03*
X140775000Y-90329000D03*
X140775000Y-91129000D03*
X140775000Y-91929000D03*
X140775000Y-92729000D03*
X140775000Y-93529000D03*
X140775000Y-94329000D03*
X140775000Y-95129000D03*
D13*
X139325000Y-96579000D03*
X138525000Y-96579000D03*
X137725000Y-96579000D03*
X136925000Y-96579000D03*
X136125000Y-96579000D03*
X135325000Y-96579000D03*
X134525000Y-96579000D03*
X133725000Y-96579000D03*
D14*
X110490000Y-76454000D03*
D15*
X110490000Y-71374000D03*
D16*
X151765000Y-85344000D03*
D17*
X154559000Y-71628000D03*
X157099000Y-71628000D03*
X154559000Y-74168000D03*
X157099000Y-74168000D03*
X154559000Y-76708000D03*
D16*
X157099000Y-76708000D03*
D15*
X156845000Y-118364000D03*
D14*
X156845000Y-113284000D03*
X156845000Y-108204000D03*
X109220000Y-118364000D03*
X109220000Y-113284000D03*
D15*
X109220000Y-108204000D03*
D14*
X156845000Y-90424000D03*
X156845000Y-95504000D03*
D15*
X156845000Y-100584000D03*
D18*
X139144500Y-99507000D03*
X139144500Y-101407000D03*
X141144500Y-100457000D03*
X116570000Y-101473000D03*
X114570000Y-102423000D03*
X114570000Y-100523000D03*
D19*
X134969000Y-99504500D03*
X130969000Y-99504500D03*
X118840000Y-97663000D03*
X114840000Y-97663000D03*
D20*
X136775000Y-107284000D03*
X136775000Y-119284000D03*
X148975000Y-119284000D03*
X148975000Y-107284000D03*
X134775000Y-113284000D03*
X131290000Y-113284000D03*
X117090000Y-119284000D03*
X117090000Y-107284000D03*
X129290000Y-107284000D03*
X129290000Y-119284000D03*
D21*
X118505000Y-86893000D03*
X113905000Y-86893000D03*
X116205000Y-86893000D03*
D22*
X116205000Y-93193000D03*
D23*
X118031001Y-71381001D03*
X118031001Y-76461001D03*
X147495001Y-66301001D03*
X147495001Y-81541001D03*
D24*
X132208000Y-102108000D03*
X135508000Y-102108000D03*
D25*
X111125000Y-102488000D03*
X111125000Y-99188000D03*
M02*
