G04 #@! TF.FileFunction,Legend,Top*
%FSLAX46Y46*%
G04 Gerber Fmt 4.6, Leading zero omitted, Abs format (unit mm)*
G04 Created by KiCad (PCBNEW 4.0.5-e0-6337~49~ubuntu16.04.1) date Mon Jan 23 08:36:28 2017*
%MOMM*%
%LPD*%
G01*
G04 APERTURE LIST*
%ADD10C,0.100000*%
%ADD11C,0.300000*%
%ADD12C,0.120000*%
%ADD13C,0.150000*%
G04 APERTURE END LIST*
D10*
D11*
X109255857Y-80382000D02*
X109970143Y-80382000D01*
X109113000Y-80810571D02*
X109613000Y-79310571D01*
X110113000Y-80810571D01*
X111470143Y-80667714D02*
X111398714Y-80739143D01*
X111184428Y-80810571D01*
X111041571Y-80810571D01*
X110827286Y-80739143D01*
X110684428Y-80596286D01*
X110613000Y-80453429D01*
X110541571Y-80167714D01*
X110541571Y-79953429D01*
X110613000Y-79667714D01*
X110684428Y-79524857D01*
X110827286Y-79382000D01*
X111041571Y-79310571D01*
X111184428Y-79310571D01*
X111398714Y-79382000D01*
X111470143Y-79453429D01*
X109577286Y-83360571D02*
X109577286Y-81860571D01*
X110291572Y-83360571D02*
X110291572Y-81860571D01*
X111148715Y-83360571D01*
X111148715Y-81860571D01*
D12*
X108830000Y-88408000D02*
X108830000Y-90408000D01*
X110880000Y-90408000D02*
X110880000Y-88408000D01*
X120895000Y-88408000D02*
X120895000Y-90408000D01*
X122945000Y-90408000D02*
X122945000Y-88408000D01*
D13*
X133125000Y-95954000D02*
X133125000Y-97379000D01*
X132900000Y-88704000D02*
X132900000Y-89029000D01*
X140150000Y-88704000D02*
X140150000Y-89029000D01*
X140150000Y-95954000D02*
X140150000Y-95629000D01*
X132900000Y-95954000D02*
X132900000Y-95629000D01*
X140150000Y-95954000D02*
X139825000Y-95954000D01*
X140150000Y-88704000D02*
X139825000Y-88704000D01*
X132900000Y-88704000D02*
X133225000Y-88704000D01*
X132900000Y-95954000D02*
X133125000Y-95954000D01*
D12*
X106680000Y-68834000D02*
X106680000Y-78994000D01*
X114300000Y-68834000D02*
X106680000Y-68834000D01*
X114300000Y-78994000D02*
X114300000Y-68834000D01*
X106680000Y-78994000D02*
X114300000Y-78994000D01*
X107950000Y-78994000D02*
X107950000Y-68834000D01*
X150375000Y-83954000D02*
X151765000Y-83954000D01*
X150375000Y-85344000D02*
X150375000Y-83954000D01*
X153155000Y-86614000D02*
X150375000Y-86614000D01*
X153155000Y-86734000D02*
X153155000Y-86614000D01*
X150375000Y-86734000D02*
X153155000Y-86734000D01*
X150375000Y-86614000D02*
X150375000Y-86734000D01*
X158489000Y-78098000D02*
X157099000Y-78098000D01*
X158489000Y-76708000D02*
X158489000Y-78098000D01*
X155829000Y-75438000D02*
X158489000Y-75438000D01*
X155829000Y-78098000D02*
X155829000Y-75438000D01*
X153169000Y-78098000D02*
X155829000Y-78098000D01*
X153169000Y-70238000D02*
X153169000Y-78098000D01*
X158489000Y-70238000D02*
X153169000Y-70238000D01*
X158489000Y-75438000D02*
X158489000Y-70238000D01*
X160655000Y-120904000D02*
X153035000Y-120904000D01*
X160655000Y-105664000D02*
X153035000Y-105664000D01*
X159385000Y-120904000D02*
X159385000Y-105664000D01*
X153035000Y-120904000D02*
X153035000Y-105664000D01*
X160655000Y-120904000D02*
X160655000Y-105664000D01*
X105410000Y-105664000D02*
X105410000Y-120904000D01*
X113030000Y-105664000D02*
X113030000Y-120904000D01*
X106680000Y-105664000D02*
X106680000Y-120904000D01*
X105410000Y-120904000D02*
X113030000Y-120904000D01*
X105410000Y-105664000D02*
X113030000Y-105664000D01*
X160655000Y-103124000D02*
X160655000Y-87884000D01*
X153035000Y-103124000D02*
X153035000Y-87884000D01*
X159385000Y-103124000D02*
X159385000Y-87884000D01*
X160655000Y-87884000D02*
X153035000Y-87884000D01*
X160655000Y-103124000D02*
X153035000Y-103124000D01*
X140904500Y-102037000D02*
X140904500Y-101107000D01*
X140904500Y-98877000D02*
X140904500Y-99807000D01*
X140904500Y-98877000D02*
X138744500Y-98877000D01*
X140904500Y-102037000D02*
X139444500Y-102037000D01*
X116330000Y-103053000D02*
X114870000Y-103053000D01*
X116330000Y-99893000D02*
X114170000Y-99893000D01*
X116330000Y-99893000D02*
X116330000Y-100823000D01*
X116330000Y-103053000D02*
X116330000Y-102123000D01*
D13*
X131969000Y-98429500D02*
X133969000Y-98429500D01*
X133969000Y-100579500D02*
X131969000Y-100579500D01*
X115840000Y-96588000D02*
X117840000Y-96588000D01*
X117840000Y-98738000D02*
X115840000Y-98738000D01*
X133375000Y-105534000D02*
X152375000Y-105534000D01*
X152375000Y-105534000D02*
X152375000Y-121034000D01*
X152375000Y-121034000D02*
X133375000Y-121034000D01*
X133375000Y-121034000D02*
X133375000Y-105534000D01*
X132690000Y-105534000D02*
X132690000Y-121034000D01*
X113690000Y-105534000D02*
X132690000Y-105534000D01*
X113690000Y-121034000D02*
X113690000Y-105534000D01*
X132690000Y-121034000D02*
X113690000Y-121034000D01*
D12*
X119615000Y-85943000D02*
X119615000Y-91953000D01*
X112795000Y-88193000D02*
X112795000Y-91953000D01*
X119615000Y-91953000D02*
X118355000Y-91953000D01*
X112795000Y-91953000D02*
X114055000Y-91953000D01*
D13*
X115731001Y-84021001D02*
X149731001Y-84021001D01*
X149731001Y-63821001D02*
X115731001Y-63821001D01*
X149731001Y-63821001D02*
X149731001Y-84021001D01*
X115731001Y-84021001D02*
X115731001Y-63821001D01*
D12*
X131608000Y-101108000D02*
X131608000Y-103108000D01*
X131608000Y-103108000D02*
X135508000Y-103108000D01*
X131608000Y-101108000D02*
X135508000Y-101108000D01*
X112125000Y-98588000D02*
X112125000Y-102488000D01*
X110125000Y-98588000D02*
X110125000Y-102488000D01*
X112125000Y-98588000D02*
X110125000Y-98588000D01*
D13*
X110212143Y-89701666D02*
X110259762Y-89749285D01*
X110307381Y-89892142D01*
X110307381Y-89987380D01*
X110259762Y-90130238D01*
X110164524Y-90225476D01*
X110069286Y-90273095D01*
X109878810Y-90320714D01*
X109735952Y-90320714D01*
X109545476Y-90273095D01*
X109450238Y-90225476D01*
X109355000Y-90130238D01*
X109307381Y-89987380D01*
X109307381Y-89892142D01*
X109355000Y-89749285D01*
X109402619Y-89701666D01*
X110307381Y-88749285D02*
X110307381Y-89320714D01*
X110307381Y-89035000D02*
X109307381Y-89035000D01*
X109450238Y-89130238D01*
X109545476Y-89225476D01*
X109593095Y-89320714D01*
X122277143Y-89574666D02*
X122324762Y-89622285D01*
X122372381Y-89765142D01*
X122372381Y-89860380D01*
X122324762Y-90003238D01*
X122229524Y-90098476D01*
X122134286Y-90146095D01*
X121943810Y-90193714D01*
X121800952Y-90193714D01*
X121610476Y-90146095D01*
X121515238Y-90098476D01*
X121420000Y-90003238D01*
X121372381Y-89860380D01*
X121372381Y-89765142D01*
X121420000Y-89622285D01*
X121467619Y-89574666D01*
X121467619Y-89193714D02*
X121420000Y-89146095D01*
X121372381Y-89050857D01*
X121372381Y-88812761D01*
X121420000Y-88717523D01*
X121467619Y-88669904D01*
X121562857Y-88622285D01*
X121658095Y-88622285D01*
X121800952Y-88669904D01*
X122372381Y-89241333D01*
X122372381Y-88622285D01*
X130927381Y-93305190D02*
X129927381Y-93305190D01*
X130832143Y-92257571D02*
X130879762Y-92305190D01*
X130927381Y-92448047D01*
X130927381Y-92543285D01*
X130879762Y-92686143D01*
X130784524Y-92781381D01*
X130689286Y-92829000D01*
X130498810Y-92876619D01*
X130355952Y-92876619D01*
X130165476Y-92829000D01*
X130070238Y-92781381D01*
X129975000Y-92686143D01*
X129927381Y-92543285D01*
X129927381Y-92448047D01*
X129975000Y-92305190D01*
X130022619Y-92257571D01*
X130927381Y-91305190D02*
X130927381Y-91876619D01*
X130927381Y-91590905D02*
X129927381Y-91590905D01*
X130070238Y-91686143D01*
X130165476Y-91781381D01*
X130213095Y-91876619D01*
X116022381Y-74652095D02*
X115022381Y-74652095D01*
X115022381Y-74271142D01*
X115070000Y-74175904D01*
X115117619Y-74128285D01*
X115212857Y-74080666D01*
X115355714Y-74080666D01*
X115450952Y-74128285D01*
X115498571Y-74175904D01*
X115546190Y-74271142D01*
X115546190Y-74652095D01*
X116022381Y-73128285D02*
X116022381Y-73699714D01*
X116022381Y-73414000D02*
X115022381Y-73414000D01*
X115165238Y-73509238D01*
X115260476Y-73604476D01*
X115308095Y-73699714D01*
X150622143Y-83120667D02*
X151098334Y-83120667D01*
X150526905Y-83406381D02*
X150860238Y-82406381D01*
X151193572Y-83406381D01*
X151526905Y-83406381D02*
X151526905Y-82406381D01*
X152098334Y-83406381D01*
X152098334Y-82406381D01*
X152431667Y-82406381D02*
X153003096Y-82406381D01*
X152717381Y-83406381D02*
X152717381Y-82406381D01*
X154352810Y-79550381D02*
X154352810Y-78550381D01*
X155400429Y-79455143D02*
X155352810Y-79502762D01*
X155209953Y-79550381D01*
X155114715Y-79550381D01*
X154971857Y-79502762D01*
X154876619Y-79407524D01*
X154829000Y-79312286D01*
X154781381Y-79121810D01*
X154781381Y-78978952D01*
X154829000Y-78788476D01*
X154876619Y-78693238D01*
X154971857Y-78598000D01*
X155114715Y-78550381D01*
X155209953Y-78550381D01*
X155352810Y-78598000D01*
X155400429Y-78645619D01*
X155781381Y-79502762D02*
X155924238Y-79550381D01*
X156162334Y-79550381D01*
X156257572Y-79502762D01*
X156305191Y-79455143D01*
X156352810Y-79359905D01*
X156352810Y-79264667D01*
X156305191Y-79169429D01*
X156257572Y-79121810D01*
X156162334Y-79074190D01*
X155971857Y-79026571D01*
X155876619Y-78978952D01*
X155829000Y-78931333D01*
X155781381Y-78836095D01*
X155781381Y-78740857D01*
X155829000Y-78645619D01*
X155876619Y-78598000D01*
X155971857Y-78550381D01*
X156209953Y-78550381D01*
X156352810Y-78598000D01*
X156781381Y-79550381D02*
X156781381Y-78550381D01*
X157162334Y-78550381D01*
X157257572Y-78598000D01*
X157305191Y-78645619D01*
X157352810Y-78740857D01*
X157352810Y-78883714D01*
X157305191Y-78978952D01*
X157257572Y-79026571D01*
X157162334Y-79074190D01*
X156781381Y-79074190D01*
X152647381Y-114052095D02*
X151647381Y-114052095D01*
X151647381Y-113671142D01*
X151695000Y-113575904D01*
X151742619Y-113528285D01*
X151837857Y-113480666D01*
X151980714Y-113480666D01*
X152075952Y-113528285D01*
X152123571Y-113575904D01*
X152171190Y-113671142D01*
X152171190Y-114052095D01*
X151980714Y-112623523D02*
X152647381Y-112623523D01*
X151599762Y-112861619D02*
X152314048Y-113099714D01*
X152314048Y-112480666D01*
X114322381Y-113992095D02*
X113322381Y-113992095D01*
X113322381Y-113611142D01*
X113370000Y-113515904D01*
X113417619Y-113468285D01*
X113512857Y-113420666D01*
X113655714Y-113420666D01*
X113750952Y-113468285D01*
X113798571Y-113515904D01*
X113846190Y-113611142D01*
X113846190Y-113992095D01*
X113322381Y-112515904D02*
X113322381Y-112992095D01*
X113798571Y-113039714D01*
X113750952Y-112992095D01*
X113703333Y-112896857D01*
X113703333Y-112658761D01*
X113750952Y-112563523D01*
X113798571Y-112515904D01*
X113893810Y-112468285D01*
X114131905Y-112468285D01*
X114227143Y-112515904D01*
X114274762Y-112563523D01*
X114322381Y-112658761D01*
X114322381Y-112896857D01*
X114274762Y-112992095D01*
X114227143Y-113039714D01*
X152647381Y-101653048D02*
X151647381Y-101653048D01*
X152647381Y-101176858D02*
X151647381Y-101176858D01*
X152647381Y-100605429D01*
X151647381Y-100605429D01*
X152647381Y-99605429D02*
X152647381Y-100176858D01*
X152647381Y-99891144D02*
X151647381Y-99891144D01*
X151790238Y-99986382D01*
X151885476Y-100081620D01*
X151933095Y-100176858D01*
X152647381Y-96891143D02*
X151647381Y-96891143D01*
X152647381Y-96414953D02*
X151647381Y-96414953D01*
X152647381Y-95843524D01*
X151647381Y-95843524D01*
X151742619Y-95414953D02*
X151695000Y-95367334D01*
X151647381Y-95272096D01*
X151647381Y-95034000D01*
X151695000Y-94938762D01*
X151742619Y-94891143D01*
X151837857Y-94843524D01*
X151933095Y-94843524D01*
X152075952Y-94891143D01*
X152647381Y-95462572D01*
X152647381Y-94843524D01*
X152552143Y-91557809D02*
X152599762Y-91605428D01*
X152647381Y-91748285D01*
X152647381Y-91843523D01*
X152599762Y-91986381D01*
X152504524Y-92081619D01*
X152409286Y-92129238D01*
X152218810Y-92176857D01*
X152075952Y-92176857D01*
X151885476Y-92129238D01*
X151790238Y-92081619D01*
X151695000Y-91986381D01*
X151647381Y-91843523D01*
X151647381Y-91748285D01*
X151695000Y-91605428D01*
X151742619Y-91557809D01*
X151647381Y-90938762D02*
X151647381Y-90748285D01*
X151695000Y-90653047D01*
X151790238Y-90557809D01*
X151980714Y-90510190D01*
X152314048Y-90510190D01*
X152504524Y-90557809D01*
X152599762Y-90653047D01*
X152647381Y-90748285D01*
X152647381Y-90938762D01*
X152599762Y-91034000D01*
X152504524Y-91129238D01*
X152314048Y-91176857D01*
X151980714Y-91176857D01*
X151790238Y-91129238D01*
X151695000Y-91034000D01*
X151647381Y-90938762D01*
X152647381Y-90081619D02*
X151647381Y-90081619D01*
X152361667Y-89748285D01*
X151647381Y-89414952D01*
X152647381Y-89414952D01*
X141890762Y-99734619D02*
X141795524Y-99687000D01*
X141700286Y-99591762D01*
X141557429Y-99448905D01*
X141462190Y-99401286D01*
X141366952Y-99401286D01*
X141414571Y-99639381D02*
X141319333Y-99591762D01*
X141224095Y-99496524D01*
X141176476Y-99306048D01*
X141176476Y-98972714D01*
X141224095Y-98782238D01*
X141319333Y-98687000D01*
X141414571Y-98639381D01*
X141605048Y-98639381D01*
X141700286Y-98687000D01*
X141795524Y-98782238D01*
X141843143Y-98972714D01*
X141843143Y-99306048D01*
X141795524Y-99496524D01*
X141700286Y-99591762D01*
X141605048Y-99639381D01*
X141414571Y-99639381D01*
X142795524Y-99639381D02*
X142224095Y-99639381D01*
X142509809Y-99639381D02*
X142509809Y-98639381D01*
X142414571Y-98782238D01*
X142319333Y-98877476D01*
X142224095Y-98925095D01*
X117252762Y-100623619D02*
X117157524Y-100576000D01*
X117062286Y-100480762D01*
X116919429Y-100337905D01*
X116824190Y-100290286D01*
X116728952Y-100290286D01*
X116776571Y-100528381D02*
X116681333Y-100480762D01*
X116586095Y-100385524D01*
X116538476Y-100195048D01*
X116538476Y-99861714D01*
X116586095Y-99671238D01*
X116681333Y-99576000D01*
X116776571Y-99528381D01*
X116967048Y-99528381D01*
X117062286Y-99576000D01*
X117157524Y-99671238D01*
X117205143Y-99861714D01*
X117205143Y-100195048D01*
X117157524Y-100385524D01*
X117062286Y-100480762D01*
X116967048Y-100528381D01*
X116776571Y-100528381D01*
X117586095Y-99623619D02*
X117633714Y-99576000D01*
X117728952Y-99528381D01*
X117967048Y-99528381D01*
X118062286Y-99576000D01*
X118109905Y-99623619D01*
X118157524Y-99718857D01*
X118157524Y-99814095D01*
X118109905Y-99956952D01*
X117538476Y-100528381D01*
X118157524Y-100528381D01*
X131683286Y-99020381D02*
X132302334Y-99020381D01*
X131969000Y-99401333D01*
X132111858Y-99401333D01*
X132207096Y-99448952D01*
X132254715Y-99496571D01*
X132302334Y-99591810D01*
X132302334Y-99829905D01*
X132254715Y-99925143D01*
X132207096Y-99972762D01*
X132111858Y-100020381D01*
X131826143Y-100020381D01*
X131730905Y-99972762D01*
X131683286Y-99925143D01*
X132778524Y-100020381D02*
X132969000Y-100020381D01*
X133064239Y-99972762D01*
X133111858Y-99925143D01*
X133207096Y-99782286D01*
X133254715Y-99591810D01*
X133254715Y-99210857D01*
X133207096Y-99115619D01*
X133159477Y-99068000D01*
X133064239Y-99020381D01*
X132873762Y-99020381D01*
X132778524Y-99068000D01*
X132730905Y-99115619D01*
X132683286Y-99210857D01*
X132683286Y-99448952D01*
X132730905Y-99544190D01*
X132778524Y-99591810D01*
X132873762Y-99639429D01*
X133064239Y-99639429D01*
X133159477Y-99591810D01*
X133207096Y-99544190D01*
X133254715Y-99448952D01*
X133873762Y-99020381D02*
X133969001Y-99020381D01*
X134064239Y-99068000D01*
X134111858Y-99115619D01*
X134159477Y-99210857D01*
X134207096Y-99401333D01*
X134207096Y-99639429D01*
X134159477Y-99829905D01*
X134111858Y-99925143D01*
X134064239Y-99972762D01*
X133969001Y-100020381D01*
X133873762Y-100020381D01*
X133778524Y-99972762D01*
X133730905Y-99925143D01*
X133683286Y-99829905D01*
X133635667Y-99639429D01*
X133635667Y-99401333D01*
X133683286Y-99210857D01*
X133730905Y-99115619D01*
X133778524Y-99068000D01*
X133873762Y-99020381D01*
X115554286Y-97242381D02*
X116173334Y-97242381D01*
X115840000Y-97623333D01*
X115982858Y-97623333D01*
X116078096Y-97670952D01*
X116125715Y-97718571D01*
X116173334Y-97813810D01*
X116173334Y-98051905D01*
X116125715Y-98147143D01*
X116078096Y-98194762D01*
X115982858Y-98242381D01*
X115697143Y-98242381D01*
X115601905Y-98194762D01*
X115554286Y-98147143D01*
X116649524Y-98242381D02*
X116840000Y-98242381D01*
X116935239Y-98194762D01*
X116982858Y-98147143D01*
X117078096Y-98004286D01*
X117125715Y-97813810D01*
X117125715Y-97432857D01*
X117078096Y-97337619D01*
X117030477Y-97290000D01*
X116935239Y-97242381D01*
X116744762Y-97242381D01*
X116649524Y-97290000D01*
X116601905Y-97337619D01*
X116554286Y-97432857D01*
X116554286Y-97670952D01*
X116601905Y-97766190D01*
X116649524Y-97813810D01*
X116744762Y-97861429D01*
X116935239Y-97861429D01*
X117030477Y-97813810D01*
X117078096Y-97766190D01*
X117125715Y-97670952D01*
X117744762Y-97242381D02*
X117840001Y-97242381D01*
X117935239Y-97290000D01*
X117982858Y-97337619D01*
X118030477Y-97432857D01*
X118078096Y-97623333D01*
X118078096Y-97861429D01*
X118030477Y-98051905D01*
X117982858Y-98147143D01*
X117935239Y-98194762D01*
X117840001Y-98242381D01*
X117744762Y-98242381D01*
X117649524Y-98194762D01*
X117601905Y-98147143D01*
X117554286Y-98051905D01*
X117506667Y-97861429D01*
X117506667Y-97623333D01*
X117554286Y-97432857D01*
X117601905Y-97337619D01*
X117649524Y-97290000D01*
X117744762Y-97242381D01*
X141875000Y-118816381D02*
X141541666Y-118340190D01*
X141303571Y-118816381D02*
X141303571Y-117816381D01*
X141684524Y-117816381D01*
X141779762Y-117864000D01*
X141827381Y-117911619D01*
X141875000Y-118006857D01*
X141875000Y-118149714D01*
X141827381Y-118244952D01*
X141779762Y-118292571D01*
X141684524Y-118340190D01*
X141303571Y-118340190D01*
X142779762Y-118816381D02*
X142303571Y-118816381D01*
X142303571Y-117816381D01*
X143303571Y-118340190D02*
X143303571Y-118816381D01*
X142970238Y-117816381D02*
X143303571Y-118340190D01*
X143636905Y-117816381D01*
X144494048Y-118816381D02*
X143922619Y-118816381D01*
X144208333Y-118816381D02*
X144208333Y-117816381D01*
X144113095Y-117959238D01*
X144017857Y-118054476D01*
X143922619Y-118102095D01*
X122190000Y-118816381D02*
X121856666Y-118340190D01*
X121618571Y-118816381D02*
X121618571Y-117816381D01*
X121999524Y-117816381D01*
X122094762Y-117864000D01*
X122142381Y-117911619D01*
X122190000Y-118006857D01*
X122190000Y-118149714D01*
X122142381Y-118244952D01*
X122094762Y-118292571D01*
X121999524Y-118340190D01*
X121618571Y-118340190D01*
X123094762Y-118816381D02*
X122618571Y-118816381D01*
X122618571Y-117816381D01*
X123618571Y-118340190D02*
X123618571Y-118816381D01*
X123285238Y-117816381D02*
X123618571Y-118340190D01*
X123951905Y-117816381D01*
X124237619Y-117911619D02*
X124285238Y-117864000D01*
X124380476Y-117816381D01*
X124618572Y-117816381D01*
X124713810Y-117864000D01*
X124761429Y-117911619D01*
X124809048Y-118006857D01*
X124809048Y-118102095D01*
X124761429Y-118244952D01*
X124190000Y-118816381D01*
X124809048Y-118816381D01*
X115784381Y-90804905D02*
X116593905Y-90804905D01*
X116689143Y-90757286D01*
X116736762Y-90709667D01*
X116784381Y-90614429D01*
X116784381Y-90423952D01*
X116736762Y-90328714D01*
X116689143Y-90281095D01*
X116593905Y-90233476D01*
X115784381Y-90233476D01*
X116784381Y-89233476D02*
X116784381Y-89804905D01*
X116784381Y-89519191D02*
X115784381Y-89519191D01*
X115927238Y-89614429D01*
X116022476Y-89709667D01*
X116070095Y-89804905D01*
X133969096Y-82373382D02*
X133969096Y-83182906D01*
X134016715Y-83278144D01*
X134064334Y-83325763D01*
X134159572Y-83373382D01*
X134350049Y-83373382D01*
X134445287Y-83325763D01*
X134492906Y-83278144D01*
X134540525Y-83182906D01*
X134540525Y-82373382D01*
X134921477Y-82373382D02*
X135540525Y-82373382D01*
X135207191Y-82754334D01*
X135350049Y-82754334D01*
X135445287Y-82801953D01*
X135492906Y-82849572D01*
X135540525Y-82944811D01*
X135540525Y-83182906D01*
X135492906Y-83278144D01*
X135445287Y-83325763D01*
X135350049Y-83373382D01*
X135064334Y-83373382D01*
X134969096Y-83325763D01*
X134921477Y-83278144D01*
X133119905Y-102560381D02*
X133119905Y-101560381D01*
X133358000Y-101560381D01*
X133500858Y-101608000D01*
X133596096Y-101703238D01*
X133643715Y-101798476D01*
X133691334Y-101988952D01*
X133691334Y-102131810D01*
X133643715Y-102322286D01*
X133596096Y-102417524D01*
X133500858Y-102512762D01*
X133358000Y-102560381D01*
X133119905Y-102560381D01*
X134643715Y-102560381D02*
X134072286Y-102560381D01*
X134358000Y-102560381D02*
X134358000Y-101560381D01*
X134262762Y-101703238D01*
X134167524Y-101798476D01*
X134072286Y-101846095D01*
X109926381Y-101576095D02*
X108926381Y-101576095D01*
X108926381Y-101338000D01*
X108974000Y-101195142D01*
X109069238Y-101099904D01*
X109164476Y-101052285D01*
X109354952Y-101004666D01*
X109497810Y-101004666D01*
X109688286Y-101052285D01*
X109783524Y-101099904D01*
X109878762Y-101195142D01*
X109926381Y-101338000D01*
X109926381Y-101576095D01*
X109021619Y-100623714D02*
X108974000Y-100576095D01*
X108926381Y-100480857D01*
X108926381Y-100242761D01*
X108974000Y-100147523D01*
X109021619Y-100099904D01*
X109116857Y-100052285D01*
X109212095Y-100052285D01*
X109354952Y-100099904D01*
X109926381Y-100671333D01*
X109926381Y-100052285D01*
M02*
