M48
;DRILL file {KiCad 4.0.5-e0-6337~49~ubuntu16.04.1} date Mon Jan 23 08:36:39 2017
;FORMAT={-:-/ absolute / metric / decimal}
FMAT,2
METRIC,TZ
T1C0.400
T2C0.762
T3C1.000
T4C1.520
%
G90
G05
M71
T1
X109.855Y-93.98
X114.173Y-84.836
X123.825Y-85.344
X124.079Y-87.376
X127.508Y-85.598
X130.175Y-92.329
X131.953Y-96.647
X136.144Y-93.472
X138.684Y-90.043
X138.811Y-91.948
X144.018Y-102.997
X147.574Y-79.502
X153.035Y-94.107
T2
X117.09Y-107.284
X117.09Y-119.284
X118.031Y-71.381
X118.031Y-76.461
X129.29Y-107.284
X129.29Y-119.284
X131.29Y-113.284
X134.775Y-113.284
X136.775Y-107.284
X136.775Y-119.284
X147.495Y-66.301
X147.495Y-81.541
X148.975Y-107.284
X148.975Y-119.284
T3
X151.765Y-85.344
X154.559Y-71.628
X154.559Y-74.168
X154.559Y-76.708
X157.099Y-71.628
X157.099Y-74.168
X157.099Y-76.708
T4
X109.22Y-108.204
X109.22Y-113.284
X109.22Y-118.364
X110.49Y-71.374
X110.49Y-76.454
X156.845Y-90.424
X156.845Y-95.504
X156.845Y-100.584
X156.845Y-108.204
X156.845Y-113.284
X156.845Y-118.364
T0
M30
