M48
;DRILL file {KiCad 4.0.5-e0-6337~49~ubuntu16.04.1} date Tue Jan 17 08:40:48 2017
;FORMAT={-:-/ absolute / metric / decimal}
FMAT,2
METRIC,TZ
T1C0.400
T2C0.800
T3C1.000
T4C1.524
%
G90
G05
M71
T1
X147.066Y-109.093
X148.463Y-88.392
X151.384Y-103.759
X152.4Y-90.805
X153.5Y-88.5
X154.432Y-104.013
X154.94Y-107.315
X155.575Y-93.98
X156.989Y-93.522
X158.513Y-98.221
X159.131Y-94.615
X162.052Y-100.203
X181.246Y-99.11
X182.008Y-97.078
X198.12Y-99.06
T2
X131.445Y-62.23
X131.445Y-69.85
X131.445Y-121.92
X131.445Y-129.54
X133.985Y-62.23
X133.985Y-69.85
X133.985Y-121.92
X133.985Y-129.54
X136.525Y-62.23
X136.525Y-69.85
X136.525Y-121.92
X136.525Y-129.54
X138.995Y-85.14
X139.63Y-99.11
X140.335Y-62.23
X140.335Y-69.85
X140.335Y-121.92
X140.335Y-129.54
X141.495Y-85.14
X142.13Y-99.11
X142.875Y-62.23
X142.875Y-69.85
X142.875Y-121.92
X142.875Y-129.54
X145.415Y-62.23
X145.415Y-69.85
X145.415Y-121.92
X145.415Y-129.54
X149.225Y-62.23
X149.225Y-69.85
X149.225Y-121.92
X149.225Y-129.54
X151.765Y-62.23
X151.765Y-69.85
X151.765Y-121.92
X151.765Y-129.54
X154.305Y-62.23
X154.305Y-69.85
X154.305Y-121.92
X154.305Y-129.54
X158.115Y-62.23
X158.115Y-69.85
X158.115Y-121.92
X158.115Y-129.54
X160.655Y-62.23
X160.655Y-69.85
X160.655Y-121.92
X160.655Y-129.54
X163.195Y-62.23
X163.195Y-69.85
X163.195Y-121.92
X163.195Y-129.54
X167.005Y-62.23
X167.005Y-69.85
X167.005Y-121.92
X167.005Y-129.54
X169.545Y-62.23
X169.545Y-69.85
X169.545Y-121.92
X169.545Y-129.54
X172.085Y-62.23
X172.085Y-69.85
X172.085Y-121.92
X172.085Y-129.54
X175.895Y-62.23
X175.895Y-69.85
X175.895Y-121.92
X175.895Y-129.54
X178.435Y-62.23
X178.435Y-69.85
X178.435Y-121.92
X178.435Y-129.54
X180.975Y-62.23
X180.975Y-69.85
X180.975Y-121.92
X180.975Y-129.54
X184.785Y-62.23
X184.785Y-69.85
X184.785Y-121.92
X184.785Y-129.54
X187.325Y-62.23
X187.325Y-69.85
X187.325Y-121.92
X187.325Y-129.54
X189.865Y-62.23
X189.865Y-69.85
X189.865Y-121.92
X189.865Y-129.54
X193.675Y-62.23
X193.675Y-69.85
X193.675Y-121.92
X193.675Y-129.54
X196.215Y-62.23
X196.215Y-69.85
X196.215Y-121.92
X196.215Y-129.54
X198.755Y-62.23
X198.755Y-69.85
X198.755Y-121.92
X198.755Y-129.54
T3
X170.07Y-94.665
X170.07Y-97.205
X170.07Y-99.745
X172.61Y-94.665
X172.61Y-97.205
X172.61Y-99.745
X180.865Y-88.95
T4
X131.97Y-50.85
X132.08Y-140.97
X133.875Y-90.22
X133.875Y-95.3
X137.05Y-50.85
X137.16Y-140.97
X145.415Y-50.8
X146.685Y-140.97
X150.495Y-50.8
X151.765Y-140.97
X180.34Y-50.8
X180.34Y-140.97
X185.42Y-50.8
X185.42Y-140.97
T0
M30
