G04 #@! TF.FileFunction,Legend,Top*
%FSLAX46Y46*%
G04 Gerber Fmt 4.6, Leading zero omitted, Abs format (unit mm)*
G04 Created by KiCad (PCBNEW 4.0.5-e0-6337~49~ubuntu16.04.1) date Tue Jan 17 08:40:45 2017*
%MOMM*%
%LPD*%
G01*
G04 APERTURE LIST*
%ADD10C,0.100000*%
%ADD11C,0.150000*%
%ADD12C,0.120000*%
%ADD13C,0.160000*%
G04 APERTURE END LIST*
D10*
D11*
X153745000Y-92310000D02*
X153745000Y-92535000D01*
X160995000Y-92310000D02*
X160995000Y-92635000D01*
X160995000Y-99560000D02*
X160995000Y-99235000D01*
X153745000Y-99560000D02*
X153745000Y-99235000D01*
X153745000Y-92310000D02*
X154070000Y-92310000D01*
X153745000Y-99560000D02*
X154070000Y-99560000D01*
X160995000Y-99560000D02*
X160670000Y-99560000D01*
X160995000Y-92310000D02*
X160670000Y-92310000D01*
X153745000Y-92535000D02*
X152320000Y-92535000D01*
X131335000Y-97840000D02*
X131335000Y-87680000D01*
X130065000Y-97840000D02*
X137685000Y-97840000D01*
X137685000Y-97840000D02*
X137685000Y-87680000D01*
X137685000Y-87680000D02*
X130065000Y-87680000D01*
X130065000Y-87680000D02*
X130065000Y-97840000D01*
D12*
X179475000Y-90220000D02*
X179475000Y-90340000D01*
X179475000Y-90340000D02*
X182255000Y-90340000D01*
X182255000Y-90340000D02*
X182255000Y-90220000D01*
X182255000Y-90220000D02*
X179475000Y-90220000D01*
X179475000Y-88950000D02*
X179475000Y-87560000D01*
X179475000Y-87560000D02*
X180865000Y-87560000D01*
X174000000Y-98475000D02*
X174000000Y-93275000D01*
X174000000Y-93275000D02*
X168680000Y-93275000D01*
X168680000Y-93275000D02*
X168680000Y-101135000D01*
X168680000Y-101135000D02*
X171340000Y-101135000D01*
X171340000Y-101135000D02*
X171340000Y-98475000D01*
X171340000Y-98475000D02*
X174000000Y-98475000D01*
X174000000Y-99745000D02*
X174000000Y-101135000D01*
X174000000Y-101135000D02*
X172610000Y-101135000D01*
X146580000Y-96170000D02*
X146580000Y-94910000D01*
X146580000Y-89350000D02*
X146580000Y-90610000D01*
X142820000Y-96170000D02*
X146580000Y-96170000D01*
X140570000Y-89350000D02*
X146580000Y-89350000D01*
D11*
X207125000Y-86015000D02*
X207125000Y-102015000D01*
X183425000Y-86015000D02*
X207125000Y-86015000D01*
X183425000Y-102015000D02*
X183425000Y-86015000D01*
X207125000Y-102015000D02*
X183425000Y-102015000D01*
X158513000Y-84378000D02*
X157751000Y-84378000D01*
X157751000Y-84378000D02*
X157751000Y-82854000D01*
X157751000Y-82854000D02*
X158513000Y-82854000D01*
X147337000Y-85902000D02*
X147337000Y-81330000D01*
X147337000Y-81330000D02*
X158513000Y-81330000D01*
X158513000Y-81330000D02*
X158513000Y-85902000D01*
X158513000Y-85902000D02*
X147337000Y-85902000D01*
X140805000Y-101609000D02*
X140805000Y-96611000D01*
X140665000Y-101601000D02*
X140665000Y-96619000D01*
X140525000Y-101585000D02*
X140525000Y-99205000D01*
X140525000Y-99015000D02*
X140525000Y-96635000D01*
X140385000Y-101561000D02*
X140385000Y-99600000D01*
X140385000Y-98620000D02*
X140385000Y-96659000D01*
X140245000Y-101528000D02*
X140245000Y-99767000D01*
X140245000Y-98453000D02*
X140245000Y-96692000D01*
X140105000Y-101487000D02*
X140105000Y-99874000D01*
X140105000Y-98346000D02*
X140105000Y-96733000D01*
X139965000Y-101437000D02*
X139965000Y-99945000D01*
X139965000Y-98275000D02*
X139965000Y-96783000D01*
X139825000Y-101376000D02*
X139825000Y-99989000D01*
X139825000Y-98231000D02*
X139825000Y-96844000D01*
X139685000Y-101306000D02*
X139685000Y-100008000D01*
X139685000Y-98212000D02*
X139685000Y-96914000D01*
X139545000Y-101224000D02*
X139545000Y-100006000D01*
X139545000Y-98214000D02*
X139545000Y-96996000D01*
X139405000Y-101129000D02*
X139405000Y-99981000D01*
X139405000Y-98239000D02*
X139405000Y-97091000D01*
X139265000Y-101018000D02*
X139265000Y-99933000D01*
X139265000Y-98287000D02*
X139265000Y-97202000D01*
X139125000Y-100890000D02*
X139125000Y-99855000D01*
X139125000Y-98365000D02*
X139125000Y-97330000D01*
X138985000Y-100741000D02*
X138985000Y-99738000D01*
X138985000Y-98482000D02*
X138985000Y-97479000D01*
X138845000Y-100562000D02*
X138845000Y-99550000D01*
X138845000Y-98670000D02*
X138845000Y-97658000D01*
X138705000Y-100343000D02*
X138705000Y-97877000D01*
X138565000Y-100054000D02*
X138565000Y-98166000D01*
X138425000Y-99582000D02*
X138425000Y-98638000D01*
X140530000Y-99110000D02*
G75*
G03X140530000Y-99110000I-900000J0D01*
G01*
X143417500Y-99110000D02*
G75*
G03X143417500Y-99110000I-2537500J0D01*
G01*
X140170000Y-87639000D02*
X140170000Y-82641000D01*
X140030000Y-87631000D02*
X140030000Y-82649000D01*
X139890000Y-87615000D02*
X139890000Y-85235000D01*
X139890000Y-85045000D02*
X139890000Y-82665000D01*
X139750000Y-87591000D02*
X139750000Y-85630000D01*
X139750000Y-84650000D02*
X139750000Y-82689000D01*
X139610000Y-87558000D02*
X139610000Y-85797000D01*
X139610000Y-84483000D02*
X139610000Y-82722000D01*
X139470000Y-87517000D02*
X139470000Y-85904000D01*
X139470000Y-84376000D02*
X139470000Y-82763000D01*
X139330000Y-87467000D02*
X139330000Y-85975000D01*
X139330000Y-84305000D02*
X139330000Y-82813000D01*
X139190000Y-87406000D02*
X139190000Y-86019000D01*
X139190000Y-84261000D02*
X139190000Y-82874000D01*
X139050000Y-87336000D02*
X139050000Y-86038000D01*
X139050000Y-84242000D02*
X139050000Y-82944000D01*
X138910000Y-87254000D02*
X138910000Y-86036000D01*
X138910000Y-84244000D02*
X138910000Y-83026000D01*
X138770000Y-87159000D02*
X138770000Y-86011000D01*
X138770000Y-84269000D02*
X138770000Y-83121000D01*
X138630000Y-87048000D02*
X138630000Y-85963000D01*
X138630000Y-84317000D02*
X138630000Y-83232000D01*
X138490000Y-86920000D02*
X138490000Y-85885000D01*
X138490000Y-84395000D02*
X138490000Y-83360000D01*
X138350000Y-86771000D02*
X138350000Y-85768000D01*
X138350000Y-84512000D02*
X138350000Y-83509000D01*
X138210000Y-86592000D02*
X138210000Y-85580000D01*
X138210000Y-84700000D02*
X138210000Y-83688000D01*
X138070000Y-86373000D02*
X138070000Y-83907000D01*
X137930000Y-86084000D02*
X137930000Y-84196000D01*
X137790000Y-85612000D02*
X137790000Y-84668000D01*
X139895000Y-85140000D02*
G75*
G03X139895000Y-85140000I-900000J0D01*
G01*
X142782500Y-85140000D02*
G75*
G03X142782500Y-85140000I-2537500J0D01*
G01*
D12*
X130445000Y-60035000D02*
X132445000Y-60035000D01*
X132445000Y-60035000D02*
X132445000Y-56135000D01*
X130445000Y-60035000D02*
X130445000Y-56135000D01*
X141335000Y-55535000D02*
X139335000Y-55535000D01*
X139335000Y-55535000D02*
X139335000Y-59435000D01*
X141335000Y-55535000D02*
X141335000Y-59435000D01*
X148225000Y-60035000D02*
X150225000Y-60035000D01*
X150225000Y-60035000D02*
X150225000Y-56135000D01*
X148225000Y-60035000D02*
X148225000Y-56135000D01*
X159115000Y-55535000D02*
X157115000Y-55535000D01*
X157115000Y-55535000D02*
X157115000Y-59435000D01*
X159115000Y-55535000D02*
X159115000Y-59435000D01*
X166005000Y-60035000D02*
X168005000Y-60035000D01*
X168005000Y-60035000D02*
X168005000Y-56135000D01*
X166005000Y-60035000D02*
X166005000Y-56135000D01*
X176895000Y-55535000D02*
X174895000Y-55535000D01*
X174895000Y-55535000D02*
X174895000Y-59435000D01*
X176895000Y-55535000D02*
X176895000Y-59435000D01*
X183785000Y-60035000D02*
X185785000Y-60035000D01*
X185785000Y-60035000D02*
X185785000Y-56135000D01*
X183785000Y-60035000D02*
X183785000Y-56135000D01*
X194675000Y-55535000D02*
X192675000Y-55535000D01*
X192675000Y-55535000D02*
X192675000Y-59435000D01*
X194675000Y-55535000D02*
X194675000Y-59435000D01*
X199755000Y-131735000D02*
X197755000Y-131735000D01*
X197755000Y-131735000D02*
X197755000Y-135635000D01*
X199755000Y-131735000D02*
X199755000Y-135635000D01*
X188865000Y-136235000D02*
X190865000Y-136235000D01*
X190865000Y-136235000D02*
X190865000Y-132335000D01*
X188865000Y-136235000D02*
X188865000Y-132335000D01*
X181975000Y-131735000D02*
X179975000Y-131735000D01*
X179975000Y-131735000D02*
X179975000Y-135635000D01*
X181975000Y-131735000D02*
X181975000Y-135635000D01*
X171085000Y-136235000D02*
X173085000Y-136235000D01*
X173085000Y-136235000D02*
X173085000Y-132335000D01*
X171085000Y-136235000D02*
X171085000Y-132335000D01*
X164195000Y-131735000D02*
X162195000Y-131735000D01*
X162195000Y-131735000D02*
X162195000Y-135635000D01*
X164195000Y-131735000D02*
X164195000Y-135635000D01*
X153305000Y-136235000D02*
X155305000Y-136235000D01*
X155305000Y-136235000D02*
X155305000Y-132335000D01*
X153305000Y-136235000D02*
X153305000Y-132335000D01*
X146415000Y-131735000D02*
X144415000Y-131735000D01*
X144415000Y-131735000D02*
X144415000Y-135635000D01*
X146415000Y-131735000D02*
X146415000Y-135635000D01*
X135500000Y-136250000D02*
X137500000Y-136250000D01*
X137500000Y-136250000D02*
X137500000Y-132350000D01*
X135500000Y-136250000D02*
X135500000Y-132350000D01*
D11*
X129430000Y-48310000D02*
X139590000Y-48310000D01*
X129430000Y-47040000D02*
X129430000Y-54660000D01*
X129430000Y-54660000D02*
X139590000Y-54660000D01*
X139590000Y-54660000D02*
X139590000Y-47040000D01*
X139590000Y-47040000D02*
X129430000Y-47040000D01*
X142875000Y-48260000D02*
X153035000Y-48260000D01*
X142875000Y-46990000D02*
X142875000Y-54610000D01*
X142875000Y-54610000D02*
X153035000Y-54610000D01*
X153035000Y-54610000D02*
X153035000Y-46990000D01*
X153035000Y-46990000D02*
X142875000Y-46990000D01*
X177800000Y-48260000D02*
X187960000Y-48260000D01*
X177800000Y-46990000D02*
X177800000Y-54610000D01*
X177800000Y-54610000D02*
X187960000Y-54610000D01*
X187960000Y-54610000D02*
X187960000Y-46990000D01*
X187960000Y-46990000D02*
X177800000Y-46990000D01*
X187960000Y-143510000D02*
X177800000Y-143510000D01*
X187960000Y-144780000D02*
X187960000Y-137160000D01*
X187960000Y-137160000D02*
X177800000Y-137160000D01*
X177800000Y-137160000D02*
X177800000Y-144780000D01*
X177800000Y-144780000D02*
X187960000Y-144780000D01*
X154305000Y-143510000D02*
X144145000Y-143510000D01*
X154305000Y-144780000D02*
X154305000Y-137160000D01*
X154305000Y-137160000D02*
X144145000Y-137160000D01*
X144145000Y-137160000D02*
X144145000Y-144780000D01*
X144145000Y-144780000D02*
X154305000Y-144780000D01*
X134350000Y-74735000D02*
X132350000Y-74735000D01*
X132350000Y-72585000D02*
X134350000Y-72585000D01*
X143240000Y-74735000D02*
X141240000Y-74735000D01*
X141240000Y-72585000D02*
X143240000Y-72585000D01*
X152130000Y-74735000D02*
X150130000Y-74735000D01*
X150130000Y-72585000D02*
X152130000Y-72585000D01*
X161655000Y-74735000D02*
X159655000Y-74735000D01*
X159655000Y-72585000D02*
X161655000Y-72585000D01*
X170545000Y-74735000D02*
X168545000Y-74735000D01*
X168545000Y-72585000D02*
X170545000Y-72585000D01*
X179435000Y-74735000D02*
X177435000Y-74735000D01*
X177435000Y-72585000D02*
X179435000Y-72585000D01*
X188325000Y-74735000D02*
X186325000Y-74735000D01*
X186325000Y-72585000D02*
X188325000Y-72585000D01*
X197215000Y-74735000D02*
X195215000Y-74735000D01*
X195215000Y-72585000D02*
X197215000Y-72585000D01*
X195215000Y-117035000D02*
X197215000Y-117035000D01*
X197215000Y-119185000D02*
X195215000Y-119185000D01*
X186325000Y-117035000D02*
X188325000Y-117035000D01*
X188325000Y-119185000D02*
X186325000Y-119185000D01*
X177435000Y-117035000D02*
X179435000Y-117035000D01*
X179435000Y-119185000D02*
X177435000Y-119185000D01*
X168545000Y-117035000D02*
X170545000Y-117035000D01*
X170545000Y-119185000D02*
X168545000Y-119185000D01*
X160290000Y-117035000D02*
X162290000Y-117035000D01*
X162290000Y-119185000D02*
X160290000Y-119185000D01*
X151400000Y-117035000D02*
X153400000Y-117035000D01*
X153400000Y-119185000D02*
X151400000Y-119185000D01*
X142510000Y-117035000D02*
X144510000Y-117035000D01*
X144510000Y-119185000D02*
X142510000Y-119185000D01*
X132985000Y-117035000D02*
X134985000Y-117035000D01*
X134985000Y-119185000D02*
X132985000Y-119185000D01*
X148142000Y-107698000D02*
X148904000Y-107698000D01*
X148904000Y-107698000D02*
X148904000Y-109222000D01*
X148904000Y-109222000D02*
X148142000Y-109222000D01*
X159318000Y-106174000D02*
X159318000Y-110746000D01*
X159318000Y-110746000D02*
X148142000Y-110746000D01*
X148142000Y-110746000D02*
X148142000Y-106174000D01*
X148142000Y-106174000D02*
X159318000Y-106174000D01*
D12*
X130055000Y-65040000D02*
G75*
G02X130055000Y-67040000I0J-1000000D01*
G01*
X130055000Y-67040000D02*
X130055000Y-68410000D01*
X130055000Y-68410000D02*
X137915000Y-68410000D01*
X137915000Y-68410000D02*
X137915000Y-63670000D01*
X137915000Y-63670000D02*
X130055000Y-63670000D01*
X130055000Y-63670000D02*
X130055000Y-65040000D01*
X138945000Y-65040000D02*
G75*
G02X138945000Y-67040000I0J-1000000D01*
G01*
X138945000Y-67040000D02*
X138945000Y-68410000D01*
X138945000Y-68410000D02*
X146805000Y-68410000D01*
X146805000Y-68410000D02*
X146805000Y-63670000D01*
X146805000Y-63670000D02*
X138945000Y-63670000D01*
X138945000Y-63670000D02*
X138945000Y-65040000D01*
X147835000Y-65040000D02*
G75*
G02X147835000Y-67040000I0J-1000000D01*
G01*
X147835000Y-67040000D02*
X147835000Y-68410000D01*
X147835000Y-68410000D02*
X155695000Y-68410000D01*
X155695000Y-68410000D02*
X155695000Y-63670000D01*
X155695000Y-63670000D02*
X147835000Y-63670000D01*
X147835000Y-63670000D02*
X147835000Y-65040000D01*
X156725000Y-65040000D02*
G75*
G02X156725000Y-67040000I0J-1000000D01*
G01*
X156725000Y-67040000D02*
X156725000Y-68410000D01*
X156725000Y-68410000D02*
X164585000Y-68410000D01*
X164585000Y-68410000D02*
X164585000Y-63670000D01*
X164585000Y-63670000D02*
X156725000Y-63670000D01*
X156725000Y-63670000D02*
X156725000Y-65040000D01*
X165615000Y-65040000D02*
G75*
G02X165615000Y-67040000I0J-1000000D01*
G01*
X165615000Y-67040000D02*
X165615000Y-68410000D01*
X165615000Y-68410000D02*
X173475000Y-68410000D01*
X173475000Y-68410000D02*
X173475000Y-63670000D01*
X173475000Y-63670000D02*
X165615000Y-63670000D01*
X165615000Y-63670000D02*
X165615000Y-65040000D01*
X174505000Y-65040000D02*
G75*
G02X174505000Y-67040000I0J-1000000D01*
G01*
X174505000Y-67040000D02*
X174505000Y-68410000D01*
X174505000Y-68410000D02*
X182365000Y-68410000D01*
X182365000Y-68410000D02*
X182365000Y-63670000D01*
X182365000Y-63670000D02*
X174505000Y-63670000D01*
X174505000Y-63670000D02*
X174505000Y-65040000D01*
X183395000Y-65040000D02*
G75*
G02X183395000Y-67040000I0J-1000000D01*
G01*
X183395000Y-67040000D02*
X183395000Y-68410000D01*
X183395000Y-68410000D02*
X191255000Y-68410000D01*
X191255000Y-68410000D02*
X191255000Y-63670000D01*
X191255000Y-63670000D02*
X183395000Y-63670000D01*
X183395000Y-63670000D02*
X183395000Y-65040000D01*
X192285000Y-65040000D02*
G75*
G02X192285000Y-67040000I0J-1000000D01*
G01*
X192285000Y-67040000D02*
X192285000Y-68410000D01*
X192285000Y-68410000D02*
X200145000Y-68410000D01*
X200145000Y-68410000D02*
X200145000Y-63670000D01*
X200145000Y-63670000D02*
X192285000Y-63670000D01*
X192285000Y-63670000D02*
X192285000Y-65040000D01*
X200145000Y-126730000D02*
G75*
G02X200145000Y-124730000I0J1000000D01*
G01*
X200145000Y-124730000D02*
X200145000Y-123360000D01*
X200145000Y-123360000D02*
X192285000Y-123360000D01*
X192285000Y-123360000D02*
X192285000Y-128100000D01*
X192285000Y-128100000D02*
X200145000Y-128100000D01*
X200145000Y-128100000D02*
X200145000Y-126730000D01*
X191255000Y-126730000D02*
G75*
G02X191255000Y-124730000I0J1000000D01*
G01*
X191255000Y-124730000D02*
X191255000Y-123360000D01*
X191255000Y-123360000D02*
X183395000Y-123360000D01*
X183395000Y-123360000D02*
X183395000Y-128100000D01*
X183395000Y-128100000D02*
X191255000Y-128100000D01*
X191255000Y-128100000D02*
X191255000Y-126730000D01*
X182365000Y-126730000D02*
G75*
G02X182365000Y-124730000I0J1000000D01*
G01*
X182365000Y-124730000D02*
X182365000Y-123360000D01*
X182365000Y-123360000D02*
X174505000Y-123360000D01*
X174505000Y-123360000D02*
X174505000Y-128100000D01*
X174505000Y-128100000D02*
X182365000Y-128100000D01*
X182365000Y-128100000D02*
X182365000Y-126730000D01*
X173475000Y-126730000D02*
G75*
G02X173475000Y-124730000I0J1000000D01*
G01*
X173475000Y-124730000D02*
X173475000Y-123360000D01*
X173475000Y-123360000D02*
X165615000Y-123360000D01*
X165615000Y-123360000D02*
X165615000Y-128100000D01*
X165615000Y-128100000D02*
X173475000Y-128100000D01*
X173475000Y-128100000D02*
X173475000Y-126730000D01*
X164585000Y-126730000D02*
G75*
G02X164585000Y-124730000I0J1000000D01*
G01*
X164585000Y-124730000D02*
X164585000Y-123360000D01*
X164585000Y-123360000D02*
X156725000Y-123360000D01*
X156725000Y-123360000D02*
X156725000Y-128100000D01*
X156725000Y-128100000D02*
X164585000Y-128100000D01*
X164585000Y-128100000D02*
X164585000Y-126730000D01*
X155695000Y-126730000D02*
G75*
G02X155695000Y-124730000I0J1000000D01*
G01*
X155695000Y-124730000D02*
X155695000Y-123360000D01*
X155695000Y-123360000D02*
X147835000Y-123360000D01*
X147835000Y-123360000D02*
X147835000Y-128100000D01*
X147835000Y-128100000D02*
X155695000Y-128100000D01*
X155695000Y-128100000D02*
X155695000Y-126730000D01*
X146805000Y-126730000D02*
G75*
G02X146805000Y-124730000I0J1000000D01*
G01*
X146805000Y-124730000D02*
X146805000Y-123360000D01*
X146805000Y-123360000D02*
X138945000Y-123360000D01*
X138945000Y-123360000D02*
X138945000Y-128100000D01*
X138945000Y-128100000D02*
X146805000Y-128100000D01*
X146805000Y-128100000D02*
X146805000Y-126730000D01*
X137915000Y-126730000D02*
G75*
G02X137915000Y-124730000I0J1000000D01*
G01*
X137915000Y-124730000D02*
X137915000Y-123360000D01*
X137915000Y-123360000D02*
X130055000Y-123360000D01*
X130055000Y-123360000D02*
X130055000Y-128100000D01*
X130055000Y-128100000D02*
X137915000Y-128100000D01*
X137915000Y-128100000D02*
X137915000Y-126730000D01*
D11*
X139700000Y-143510000D02*
X129540000Y-143510000D01*
X139700000Y-144780000D02*
X139700000Y-137160000D01*
X139700000Y-137160000D02*
X129540000Y-137160000D01*
X129540000Y-137160000D02*
X129540000Y-144780000D01*
X129540000Y-144780000D02*
X139700000Y-144780000D01*
X156261905Y-95452381D02*
X156880953Y-95452381D01*
X156547619Y-95833333D01*
X156690477Y-95833333D01*
X156785715Y-95880952D01*
X156833334Y-95928571D01*
X156880953Y-96023810D01*
X156880953Y-96261905D01*
X156833334Y-96357143D01*
X156785715Y-96404762D01*
X156690477Y-96452381D01*
X156404762Y-96452381D01*
X156309524Y-96404762D01*
X156261905Y-96357143D01*
X157261905Y-95547619D02*
X157309524Y-95500000D01*
X157404762Y-95452381D01*
X157642858Y-95452381D01*
X157738096Y-95500000D01*
X157785715Y-95547619D01*
X157833334Y-95642857D01*
X157833334Y-95738095D01*
X157785715Y-95880952D01*
X157214286Y-96452381D01*
X157833334Y-96452381D01*
X158404762Y-95880952D02*
X158309524Y-95833333D01*
X158261905Y-95785714D01*
X158214286Y-95690476D01*
X158214286Y-95642857D01*
X158261905Y-95547619D01*
X158309524Y-95500000D01*
X158404762Y-95452381D01*
X158595239Y-95452381D01*
X158690477Y-95500000D01*
X158738096Y-95547619D01*
X158785715Y-95642857D01*
X158785715Y-95690476D01*
X158738096Y-95785714D01*
X158690477Y-95833333D01*
X158595239Y-95880952D01*
X158404762Y-95880952D01*
X158309524Y-95928571D01*
X158261905Y-95976190D01*
X158214286Y-96071429D01*
X158214286Y-96261905D01*
X158261905Y-96357143D01*
X158309524Y-96404762D01*
X158404762Y-96452381D01*
X158595239Y-96452381D01*
X158690477Y-96404762D01*
X158738096Y-96357143D01*
X158785715Y-96261905D01*
X158785715Y-96071429D01*
X158738096Y-95976190D01*
X158690477Y-95928571D01*
X158595239Y-95880952D01*
X159214286Y-95785714D02*
X159214286Y-96785714D01*
X159214286Y-95833333D02*
X159309524Y-95785714D01*
X159500001Y-95785714D01*
X159595239Y-95833333D01*
X159642858Y-95880952D01*
X159690477Y-95976190D01*
X159690477Y-96261905D01*
X159642858Y-96357143D01*
X159595239Y-96404762D01*
X159500001Y-96452381D01*
X159309524Y-96452381D01*
X159214286Y-96404762D01*
X138407381Y-94617143D02*
X138407381Y-95093334D01*
X138883571Y-95140953D01*
X138835952Y-95093334D01*
X138788333Y-94998096D01*
X138788333Y-94760000D01*
X138835952Y-94664762D01*
X138883571Y-94617143D01*
X138978810Y-94569524D01*
X139216905Y-94569524D01*
X139312143Y-94617143D01*
X139359762Y-94664762D01*
X139407381Y-94760000D01*
X139407381Y-94998096D01*
X139359762Y-95093334D01*
X139312143Y-95140953D01*
X138407381Y-94283810D02*
X139407381Y-93950477D01*
X138407381Y-93617143D01*
X138407381Y-91569524D02*
X138407381Y-91474285D01*
X138455000Y-91379047D01*
X138502619Y-91331428D01*
X138597857Y-91283809D01*
X138788333Y-91236190D01*
X139026429Y-91236190D01*
X139216905Y-91283809D01*
X139312143Y-91331428D01*
X139359762Y-91379047D01*
X139407381Y-91474285D01*
X139407381Y-91569524D01*
X139359762Y-91664762D01*
X139312143Y-91712381D01*
X139216905Y-91760000D01*
X139026429Y-91807619D01*
X138788333Y-91807619D01*
X138597857Y-91760000D01*
X138502619Y-91712381D01*
X138455000Y-91664762D01*
X138407381Y-91569524D01*
X138407381Y-90950476D02*
X139407381Y-90617143D01*
X138407381Y-90283809D01*
X180126905Y-87012381D02*
X180126905Y-86012381D01*
X180507858Y-86012381D01*
X180603096Y-86060000D01*
X180650715Y-86107619D01*
X180698334Y-86202857D01*
X180698334Y-86345714D01*
X180650715Y-86440952D01*
X180603096Y-86488571D01*
X180507858Y-86536190D01*
X180126905Y-86536190D01*
X181079286Y-86107619D02*
X181126905Y-86060000D01*
X181222143Y-86012381D01*
X181460239Y-86012381D01*
X181555477Y-86060000D01*
X181603096Y-86107619D01*
X181650715Y-86202857D01*
X181650715Y-86298095D01*
X181603096Y-86440952D01*
X181031667Y-87012381D01*
X181650715Y-87012381D01*
X169863810Y-102587381D02*
X169863810Y-101587381D01*
X170911429Y-102492143D02*
X170863810Y-102539762D01*
X170720953Y-102587381D01*
X170625715Y-102587381D01*
X170482857Y-102539762D01*
X170387619Y-102444524D01*
X170340000Y-102349286D01*
X170292381Y-102158810D01*
X170292381Y-102015952D01*
X170340000Y-101825476D01*
X170387619Y-101730238D01*
X170482857Y-101635000D01*
X170625715Y-101587381D01*
X170720953Y-101587381D01*
X170863810Y-101635000D01*
X170911429Y-101682619D01*
X171292381Y-102539762D02*
X171435238Y-102587381D01*
X171673334Y-102587381D01*
X171768572Y-102539762D01*
X171816191Y-102492143D01*
X171863810Y-102396905D01*
X171863810Y-102301667D01*
X171816191Y-102206429D01*
X171768572Y-102158810D01*
X171673334Y-102111190D01*
X171482857Y-102063571D01*
X171387619Y-102015952D01*
X171340000Y-101968333D01*
X171292381Y-101873095D01*
X171292381Y-101777857D01*
X171340000Y-101682619D01*
X171387619Y-101635000D01*
X171482857Y-101587381D01*
X171720953Y-101587381D01*
X171863810Y-101635000D01*
X172292381Y-102587381D02*
X172292381Y-101587381D01*
X172673334Y-101587381D01*
X172768572Y-101635000D01*
X172816191Y-101682619D01*
X172863810Y-101777857D01*
X172863810Y-101920714D01*
X172816191Y-102015952D01*
X172768572Y-102063571D01*
X172673334Y-102111190D01*
X172292381Y-102111190D01*
X143527143Y-88712381D02*
X142955714Y-88712381D01*
X143241428Y-88712381D02*
X143241428Y-87712381D01*
X143146190Y-87855238D01*
X143050952Y-87950476D01*
X142955714Y-87998095D01*
X144479524Y-88712381D02*
X143908095Y-88712381D01*
X144193809Y-88712381D02*
X144193809Y-87712381D01*
X144098571Y-87855238D01*
X144003333Y-87950476D01*
X143908095Y-87998095D01*
X145431905Y-88712381D02*
X144860476Y-88712381D01*
X145146190Y-88712381D02*
X145146190Y-87712381D01*
X145050952Y-87855238D01*
X144955714Y-87950476D01*
X144860476Y-87998095D01*
X145765238Y-87712381D02*
X146431905Y-87712381D01*
X146003333Y-88712381D01*
D13*
X201280524Y-103154905D02*
X201013857Y-102773952D01*
X200823381Y-103154905D02*
X200823381Y-102354905D01*
X201128143Y-102354905D01*
X201204334Y-102393000D01*
X201242429Y-102431095D01*
X201280524Y-102507286D01*
X201280524Y-102621571D01*
X201242429Y-102697762D01*
X201204334Y-102735857D01*
X201128143Y-102773952D01*
X200823381Y-102773952D01*
X201890048Y-102735857D02*
X201623381Y-102735857D01*
X201623381Y-103154905D02*
X201623381Y-102354905D01*
X202004334Y-102354905D01*
X202309095Y-103154905D02*
X202309095Y-102354905D01*
X202575762Y-102926333D01*
X202842429Y-102354905D01*
X202842429Y-103154905D01*
X203566238Y-102354905D02*
X203413857Y-102354905D01*
X203337667Y-102393000D01*
X203299572Y-102431095D01*
X203223381Y-102545381D01*
X203185286Y-102697762D01*
X203185286Y-103002524D01*
X203223381Y-103078714D01*
X203261476Y-103116810D01*
X203337667Y-103154905D01*
X203490048Y-103154905D01*
X203566238Y-103116810D01*
X203604334Y-103078714D01*
X203642429Y-103002524D01*
X203642429Y-102812048D01*
X203604334Y-102735857D01*
X203566238Y-102697762D01*
X203490048Y-102659667D01*
X203337667Y-102659667D01*
X203261476Y-102697762D01*
X203223381Y-102735857D01*
X203185286Y-102812048D01*
X204023381Y-103154905D02*
X204175762Y-103154905D01*
X204251953Y-103116810D01*
X204290048Y-103078714D01*
X204366239Y-102964429D01*
X204404334Y-102812048D01*
X204404334Y-102507286D01*
X204366239Y-102431095D01*
X204328143Y-102393000D01*
X204251953Y-102354905D01*
X204099572Y-102354905D01*
X204023381Y-102393000D01*
X203985286Y-102431095D01*
X203947191Y-102507286D01*
X203947191Y-102697762D01*
X203985286Y-102773952D01*
X204023381Y-102812048D01*
X204099572Y-102850143D01*
X204251953Y-102850143D01*
X204328143Y-102812048D01*
X204366239Y-102773952D01*
X204404334Y-102697762D01*
X204747191Y-103154905D02*
X204747191Y-102354905D01*
X204747191Y-102735857D02*
X205204334Y-102735857D01*
X205204334Y-103154905D02*
X205204334Y-102354905D01*
X205509096Y-102354905D02*
X205699572Y-103154905D01*
X205851953Y-102583476D01*
X206004334Y-103154905D01*
X206194810Y-102354905D01*
D11*
X149536095Y-84338381D02*
X150202762Y-84338381D01*
X149774190Y-85338381D01*
X151012286Y-84671714D02*
X151012286Y-85338381D01*
X150774190Y-84290762D02*
X150536095Y-85005048D01*
X151155143Y-85005048D01*
X151536095Y-85338381D02*
X151536095Y-84338381D01*
X151536095Y-84814571D02*
X152107524Y-84814571D01*
X152107524Y-85338381D02*
X152107524Y-84338381D01*
X153155143Y-85243143D02*
X153107524Y-85290762D01*
X152964667Y-85338381D01*
X152869429Y-85338381D01*
X152726571Y-85290762D01*
X152631333Y-85195524D01*
X152583714Y-85100286D01*
X152536095Y-84909810D01*
X152536095Y-84766952D01*
X152583714Y-84576476D01*
X152631333Y-84481238D01*
X152726571Y-84386000D01*
X152869429Y-84338381D01*
X152964667Y-84338381D01*
X153107524Y-84386000D01*
X153155143Y-84433619D01*
X154059905Y-84338381D02*
X153583714Y-84338381D01*
X153536095Y-84814571D01*
X153583714Y-84766952D01*
X153678952Y-84719333D01*
X153917048Y-84719333D01*
X154012286Y-84766952D01*
X154059905Y-84814571D01*
X154107524Y-84909810D01*
X154107524Y-85147905D01*
X154059905Y-85243143D01*
X154012286Y-85290762D01*
X153917048Y-85338381D01*
X153678952Y-85338381D01*
X153583714Y-85290762D01*
X153536095Y-85243143D01*
X154583714Y-85338381D02*
X154774190Y-85338381D01*
X154869429Y-85290762D01*
X154917048Y-85243143D01*
X155012286Y-85100286D01*
X155059905Y-84909810D01*
X155059905Y-84528857D01*
X155012286Y-84433619D01*
X154964667Y-84386000D01*
X154869429Y-84338381D01*
X154678952Y-84338381D01*
X154583714Y-84386000D01*
X154536095Y-84433619D01*
X154488476Y-84528857D01*
X154488476Y-84766952D01*
X154536095Y-84862190D01*
X154583714Y-84909810D01*
X154678952Y-84957429D01*
X154869429Y-84957429D01*
X154964667Y-84909810D01*
X155012286Y-84862190D01*
X155059905Y-84766952D01*
X155964667Y-84338381D02*
X155488476Y-84338381D01*
X155440857Y-84814571D01*
X155488476Y-84766952D01*
X155583714Y-84719333D01*
X155821810Y-84719333D01*
X155917048Y-84766952D01*
X155964667Y-84814571D01*
X156012286Y-84909810D01*
X156012286Y-85147905D01*
X155964667Y-85243143D01*
X155917048Y-85290762D01*
X155821810Y-85338381D01*
X155583714Y-85338381D01*
X155488476Y-85290762D01*
X155440857Y-85243143D01*
X140930334Y-102719143D02*
X140882715Y-102766762D01*
X140739858Y-102814381D01*
X140644620Y-102814381D01*
X140501762Y-102766762D01*
X140406524Y-102671524D01*
X140358905Y-102576286D01*
X140311286Y-102385810D01*
X140311286Y-102242952D01*
X140358905Y-102052476D01*
X140406524Y-101957238D01*
X140501762Y-101862000D01*
X140644620Y-101814381D01*
X140739858Y-101814381D01*
X140882715Y-101862000D01*
X140930334Y-101909619D01*
X141882715Y-102814381D02*
X141311286Y-102814381D01*
X141597000Y-102814381D02*
X141597000Y-101814381D01*
X141501762Y-101957238D01*
X141406524Y-102052476D01*
X141311286Y-102100095D01*
X139787334Y-81891143D02*
X139739715Y-81938762D01*
X139596858Y-81986381D01*
X139501620Y-81986381D01*
X139358762Y-81938762D01*
X139263524Y-81843524D01*
X139215905Y-81748286D01*
X139168286Y-81557810D01*
X139168286Y-81414952D01*
X139215905Y-81224476D01*
X139263524Y-81129238D01*
X139358762Y-81034000D01*
X139501620Y-80986381D01*
X139596858Y-80986381D01*
X139739715Y-81034000D01*
X139787334Y-81081619D01*
X140168286Y-81081619D02*
X140215905Y-81034000D01*
X140311143Y-80986381D01*
X140549239Y-80986381D01*
X140644477Y-81034000D01*
X140692096Y-81081619D01*
X140739715Y-81176857D01*
X140739715Y-81272095D01*
X140692096Y-81414952D01*
X140120667Y-81986381D01*
X140739715Y-81986381D01*
X133802381Y-58523095D02*
X132802381Y-58523095D01*
X132802381Y-58285000D01*
X132850000Y-58142142D01*
X132945238Y-58046904D01*
X133040476Y-57999285D01*
X133230952Y-57951666D01*
X133373810Y-57951666D01*
X133564286Y-57999285D01*
X133659524Y-58046904D01*
X133754762Y-58142142D01*
X133802381Y-58285000D01*
X133802381Y-58523095D01*
X133802381Y-56999285D02*
X133802381Y-57570714D01*
X133802381Y-57285000D02*
X132802381Y-57285000D01*
X132945238Y-57380238D01*
X133040476Y-57475476D01*
X133088095Y-57570714D01*
X142787381Y-58523095D02*
X141787381Y-58523095D01*
X141787381Y-58285000D01*
X141835000Y-58142142D01*
X141930238Y-58046904D01*
X142025476Y-57999285D01*
X142215952Y-57951666D01*
X142358810Y-57951666D01*
X142549286Y-57999285D01*
X142644524Y-58046904D01*
X142739762Y-58142142D01*
X142787381Y-58285000D01*
X142787381Y-58523095D01*
X141882619Y-57570714D02*
X141835000Y-57523095D01*
X141787381Y-57427857D01*
X141787381Y-57189761D01*
X141835000Y-57094523D01*
X141882619Y-57046904D01*
X141977857Y-56999285D01*
X142073095Y-56999285D01*
X142215952Y-57046904D01*
X142787381Y-57618333D01*
X142787381Y-56999285D01*
X151582381Y-58523095D02*
X150582381Y-58523095D01*
X150582381Y-58285000D01*
X150630000Y-58142142D01*
X150725238Y-58046904D01*
X150820476Y-57999285D01*
X151010952Y-57951666D01*
X151153810Y-57951666D01*
X151344286Y-57999285D01*
X151439524Y-58046904D01*
X151534762Y-58142142D01*
X151582381Y-58285000D01*
X151582381Y-58523095D01*
X150582381Y-57618333D02*
X150582381Y-56999285D01*
X150963333Y-57332619D01*
X150963333Y-57189761D01*
X151010952Y-57094523D01*
X151058571Y-57046904D01*
X151153810Y-56999285D01*
X151391905Y-56999285D01*
X151487143Y-57046904D01*
X151534762Y-57094523D01*
X151582381Y-57189761D01*
X151582381Y-57475476D01*
X151534762Y-57570714D01*
X151487143Y-57618333D01*
X160567381Y-58523095D02*
X159567381Y-58523095D01*
X159567381Y-58285000D01*
X159615000Y-58142142D01*
X159710238Y-58046904D01*
X159805476Y-57999285D01*
X159995952Y-57951666D01*
X160138810Y-57951666D01*
X160329286Y-57999285D01*
X160424524Y-58046904D01*
X160519762Y-58142142D01*
X160567381Y-58285000D01*
X160567381Y-58523095D01*
X159900714Y-57094523D02*
X160567381Y-57094523D01*
X159519762Y-57332619D02*
X160234048Y-57570714D01*
X160234048Y-56951666D01*
X169362381Y-58650095D02*
X168362381Y-58650095D01*
X168362381Y-58412000D01*
X168410000Y-58269142D01*
X168505238Y-58173904D01*
X168600476Y-58126285D01*
X168790952Y-58078666D01*
X168933810Y-58078666D01*
X169124286Y-58126285D01*
X169219524Y-58173904D01*
X169314762Y-58269142D01*
X169362381Y-58412000D01*
X169362381Y-58650095D01*
X168362381Y-57173904D02*
X168362381Y-57650095D01*
X168838571Y-57697714D01*
X168790952Y-57650095D01*
X168743333Y-57554857D01*
X168743333Y-57316761D01*
X168790952Y-57221523D01*
X168838571Y-57173904D01*
X168933810Y-57126285D01*
X169171905Y-57126285D01*
X169267143Y-57173904D01*
X169314762Y-57221523D01*
X169362381Y-57316761D01*
X169362381Y-57554857D01*
X169314762Y-57650095D01*
X169267143Y-57697714D01*
X178347381Y-58523095D02*
X177347381Y-58523095D01*
X177347381Y-58285000D01*
X177395000Y-58142142D01*
X177490238Y-58046904D01*
X177585476Y-57999285D01*
X177775952Y-57951666D01*
X177918810Y-57951666D01*
X178109286Y-57999285D01*
X178204524Y-58046904D01*
X178299762Y-58142142D01*
X178347381Y-58285000D01*
X178347381Y-58523095D01*
X177347381Y-57094523D02*
X177347381Y-57285000D01*
X177395000Y-57380238D01*
X177442619Y-57427857D01*
X177585476Y-57523095D01*
X177775952Y-57570714D01*
X178156905Y-57570714D01*
X178252143Y-57523095D01*
X178299762Y-57475476D01*
X178347381Y-57380238D01*
X178347381Y-57189761D01*
X178299762Y-57094523D01*
X178252143Y-57046904D01*
X178156905Y-56999285D01*
X177918810Y-56999285D01*
X177823571Y-57046904D01*
X177775952Y-57094523D01*
X177728333Y-57189761D01*
X177728333Y-57380238D01*
X177775952Y-57475476D01*
X177823571Y-57523095D01*
X177918810Y-57570714D01*
X187142381Y-58523095D02*
X186142381Y-58523095D01*
X186142381Y-58285000D01*
X186190000Y-58142142D01*
X186285238Y-58046904D01*
X186380476Y-57999285D01*
X186570952Y-57951666D01*
X186713810Y-57951666D01*
X186904286Y-57999285D01*
X186999524Y-58046904D01*
X187094762Y-58142142D01*
X187142381Y-58285000D01*
X187142381Y-58523095D01*
X186142381Y-57618333D02*
X186142381Y-56951666D01*
X187142381Y-57380238D01*
X196127381Y-58523095D02*
X195127381Y-58523095D01*
X195127381Y-58285000D01*
X195175000Y-58142142D01*
X195270238Y-58046904D01*
X195365476Y-57999285D01*
X195555952Y-57951666D01*
X195698810Y-57951666D01*
X195889286Y-57999285D01*
X195984524Y-58046904D01*
X196079762Y-58142142D01*
X196127381Y-58285000D01*
X196127381Y-58523095D01*
X195555952Y-57380238D02*
X195508333Y-57475476D01*
X195460714Y-57523095D01*
X195365476Y-57570714D01*
X195317857Y-57570714D01*
X195222619Y-57523095D01*
X195175000Y-57475476D01*
X195127381Y-57380238D01*
X195127381Y-57189761D01*
X195175000Y-57094523D01*
X195222619Y-57046904D01*
X195317857Y-56999285D01*
X195365476Y-56999285D01*
X195460714Y-57046904D01*
X195508333Y-57094523D01*
X195555952Y-57189761D01*
X195555952Y-57380238D01*
X195603571Y-57475476D01*
X195651190Y-57523095D01*
X195746429Y-57570714D01*
X195936905Y-57570714D01*
X196032143Y-57523095D01*
X196079762Y-57475476D01*
X196127381Y-57380238D01*
X196127381Y-57189761D01*
X196079762Y-57094523D01*
X196032143Y-57046904D01*
X195936905Y-56999285D01*
X195746429Y-56999285D01*
X195651190Y-57046904D01*
X195603571Y-57094523D01*
X195555952Y-57189761D01*
X197429381Y-134596095D02*
X196429381Y-134596095D01*
X196429381Y-134358000D01*
X196477000Y-134215142D01*
X196572238Y-134119904D01*
X196667476Y-134072285D01*
X196857952Y-134024666D01*
X197000810Y-134024666D01*
X197191286Y-134072285D01*
X197286524Y-134119904D01*
X197381762Y-134215142D01*
X197429381Y-134358000D01*
X197429381Y-134596095D01*
X197429381Y-133548476D02*
X197429381Y-133358000D01*
X197381762Y-133262761D01*
X197334143Y-133215142D01*
X197191286Y-133119904D01*
X197000810Y-133072285D01*
X196619857Y-133072285D01*
X196524619Y-133119904D01*
X196477000Y-133167523D01*
X196429381Y-133262761D01*
X196429381Y-133453238D01*
X196477000Y-133548476D01*
X196524619Y-133596095D01*
X196619857Y-133643714D01*
X196857952Y-133643714D01*
X196953190Y-133596095D01*
X197000810Y-133548476D01*
X197048429Y-133453238D01*
X197048429Y-133262761D01*
X197000810Y-133167523D01*
X196953190Y-133119904D01*
X196857952Y-133072285D01*
X188317381Y-135199286D02*
X187317381Y-135199286D01*
X187317381Y-134961191D01*
X187365000Y-134818333D01*
X187460238Y-134723095D01*
X187555476Y-134675476D01*
X187745952Y-134627857D01*
X187888810Y-134627857D01*
X188079286Y-134675476D01*
X188174524Y-134723095D01*
X188269762Y-134818333D01*
X188317381Y-134961191D01*
X188317381Y-135199286D01*
X188317381Y-133675476D02*
X188317381Y-134246905D01*
X188317381Y-133961191D02*
X187317381Y-133961191D01*
X187460238Y-134056429D01*
X187555476Y-134151667D01*
X187603095Y-134246905D01*
X187317381Y-133056429D02*
X187317381Y-132961190D01*
X187365000Y-132865952D01*
X187412619Y-132818333D01*
X187507857Y-132770714D01*
X187698333Y-132723095D01*
X187936429Y-132723095D01*
X188126905Y-132770714D01*
X188222143Y-132818333D01*
X188269762Y-132865952D01*
X188317381Y-132961190D01*
X188317381Y-133056429D01*
X188269762Y-133151667D01*
X188222143Y-133199286D01*
X188126905Y-133246905D01*
X187936429Y-133294524D01*
X187698333Y-133294524D01*
X187507857Y-133246905D01*
X187412619Y-133199286D01*
X187365000Y-133151667D01*
X187317381Y-133056429D01*
X179776381Y-135199286D02*
X178776381Y-135199286D01*
X178776381Y-134961191D01*
X178824000Y-134818333D01*
X178919238Y-134723095D01*
X179014476Y-134675476D01*
X179204952Y-134627857D01*
X179347810Y-134627857D01*
X179538286Y-134675476D01*
X179633524Y-134723095D01*
X179728762Y-134818333D01*
X179776381Y-134961191D01*
X179776381Y-135199286D01*
X179776381Y-133675476D02*
X179776381Y-134246905D01*
X179776381Y-133961191D02*
X178776381Y-133961191D01*
X178919238Y-134056429D01*
X179014476Y-134151667D01*
X179062095Y-134246905D01*
X179776381Y-132723095D02*
X179776381Y-133294524D01*
X179776381Y-133008810D02*
X178776381Y-133008810D01*
X178919238Y-133104048D01*
X179014476Y-133199286D01*
X179062095Y-133294524D01*
X170537381Y-135199286D02*
X169537381Y-135199286D01*
X169537381Y-134961191D01*
X169585000Y-134818333D01*
X169680238Y-134723095D01*
X169775476Y-134675476D01*
X169965952Y-134627857D01*
X170108810Y-134627857D01*
X170299286Y-134675476D01*
X170394524Y-134723095D01*
X170489762Y-134818333D01*
X170537381Y-134961191D01*
X170537381Y-135199286D01*
X170537381Y-133675476D02*
X170537381Y-134246905D01*
X170537381Y-133961191D02*
X169537381Y-133961191D01*
X169680238Y-134056429D01*
X169775476Y-134151667D01*
X169823095Y-134246905D01*
X169632619Y-133294524D02*
X169585000Y-133246905D01*
X169537381Y-133151667D01*
X169537381Y-132913571D01*
X169585000Y-132818333D01*
X169632619Y-132770714D01*
X169727857Y-132723095D01*
X169823095Y-132723095D01*
X169965952Y-132770714D01*
X170537381Y-133342143D01*
X170537381Y-132723095D01*
X161996381Y-135326286D02*
X160996381Y-135326286D01*
X160996381Y-135088191D01*
X161044000Y-134945333D01*
X161139238Y-134850095D01*
X161234476Y-134802476D01*
X161424952Y-134754857D01*
X161567810Y-134754857D01*
X161758286Y-134802476D01*
X161853524Y-134850095D01*
X161948762Y-134945333D01*
X161996381Y-135088191D01*
X161996381Y-135326286D01*
X161996381Y-133802476D02*
X161996381Y-134373905D01*
X161996381Y-134088191D02*
X160996381Y-134088191D01*
X161139238Y-134183429D01*
X161234476Y-134278667D01*
X161282095Y-134373905D01*
X160996381Y-133469143D02*
X160996381Y-132850095D01*
X161377333Y-133183429D01*
X161377333Y-133040571D01*
X161424952Y-132945333D01*
X161472571Y-132897714D01*
X161567810Y-132850095D01*
X161805905Y-132850095D01*
X161901143Y-132897714D01*
X161948762Y-132945333D01*
X161996381Y-133040571D01*
X161996381Y-133326286D01*
X161948762Y-133421524D01*
X161901143Y-133469143D01*
X152757381Y-135199286D02*
X151757381Y-135199286D01*
X151757381Y-134961191D01*
X151805000Y-134818333D01*
X151900238Y-134723095D01*
X151995476Y-134675476D01*
X152185952Y-134627857D01*
X152328810Y-134627857D01*
X152519286Y-134675476D01*
X152614524Y-134723095D01*
X152709762Y-134818333D01*
X152757381Y-134961191D01*
X152757381Y-135199286D01*
X152757381Y-133675476D02*
X152757381Y-134246905D01*
X152757381Y-133961191D02*
X151757381Y-133961191D01*
X151900238Y-134056429D01*
X151995476Y-134151667D01*
X152043095Y-134246905D01*
X152090714Y-132818333D02*
X152757381Y-132818333D01*
X151709762Y-133056429D02*
X152424048Y-133294524D01*
X152424048Y-132675476D01*
X143962381Y-135326286D02*
X142962381Y-135326286D01*
X142962381Y-135088191D01*
X143010000Y-134945333D01*
X143105238Y-134850095D01*
X143200476Y-134802476D01*
X143390952Y-134754857D01*
X143533810Y-134754857D01*
X143724286Y-134802476D01*
X143819524Y-134850095D01*
X143914762Y-134945333D01*
X143962381Y-135088191D01*
X143962381Y-135326286D01*
X143962381Y-133802476D02*
X143962381Y-134373905D01*
X143962381Y-134088191D02*
X142962381Y-134088191D01*
X143105238Y-134183429D01*
X143200476Y-134278667D01*
X143248095Y-134373905D01*
X142962381Y-132897714D02*
X142962381Y-133373905D01*
X143438571Y-133421524D01*
X143390952Y-133373905D01*
X143343333Y-133278667D01*
X143343333Y-133040571D01*
X143390952Y-132945333D01*
X143438571Y-132897714D01*
X143533810Y-132850095D01*
X143771905Y-132850095D01*
X143867143Y-132897714D01*
X143914762Y-132945333D01*
X143962381Y-133040571D01*
X143962381Y-133278667D01*
X143914762Y-133373905D01*
X143867143Y-133421524D01*
X134952381Y-135214286D02*
X133952381Y-135214286D01*
X133952381Y-134976191D01*
X134000000Y-134833333D01*
X134095238Y-134738095D01*
X134190476Y-134690476D01*
X134380952Y-134642857D01*
X134523810Y-134642857D01*
X134714286Y-134690476D01*
X134809524Y-134738095D01*
X134904762Y-134833333D01*
X134952381Y-134976191D01*
X134952381Y-135214286D01*
X134952381Y-133690476D02*
X134952381Y-134261905D01*
X134952381Y-133976191D02*
X133952381Y-133976191D01*
X134095238Y-134071429D01*
X134190476Y-134166667D01*
X134238095Y-134261905D01*
X133952381Y-132833333D02*
X133952381Y-133023810D01*
X134000000Y-133119048D01*
X134047619Y-133166667D01*
X134190476Y-133261905D01*
X134380952Y-133309524D01*
X134761905Y-133309524D01*
X134857143Y-133261905D01*
X134904762Y-133214286D01*
X134952381Y-133119048D01*
X134952381Y-132928571D01*
X134904762Y-132833333D01*
X134857143Y-132785714D01*
X134761905Y-132738095D01*
X134523810Y-132738095D01*
X134428571Y-132785714D01*
X134380952Y-132833333D01*
X134333333Y-132928571D01*
X134333333Y-133119048D01*
X134380952Y-133214286D01*
X134428571Y-133261905D01*
X134523810Y-133309524D01*
X133072429Y-55951381D02*
X133072429Y-54951381D01*
X133453382Y-54951381D01*
X133548620Y-54999000D01*
X133596239Y-55046619D01*
X133643858Y-55141857D01*
X133643858Y-55284714D01*
X133596239Y-55379952D01*
X133548620Y-55427571D01*
X133453382Y-55475190D01*
X133072429Y-55475190D01*
X134072429Y-55951381D02*
X134072429Y-54951381D01*
X134072429Y-55427571D02*
X134643858Y-55427571D01*
X134643858Y-55951381D02*
X134643858Y-54951381D01*
X134881953Y-56046619D02*
X135643858Y-56046619D01*
X135881953Y-55951381D02*
X135881953Y-54951381D01*
X136358143Y-55951381D02*
X136358143Y-54951381D01*
X136929572Y-55951381D01*
X136929572Y-54951381D01*
X145748477Y-55824381D02*
X145177048Y-55824381D01*
X145462762Y-55824381D02*
X145462762Y-54824381D01*
X145367524Y-54967238D01*
X145272286Y-55062476D01*
X145177048Y-55110095D01*
X146177048Y-55443429D02*
X146938953Y-55443429D01*
X147367524Y-54919619D02*
X147415143Y-54872000D01*
X147510381Y-54824381D01*
X147748477Y-54824381D01*
X147843715Y-54872000D01*
X147891334Y-54919619D01*
X147938953Y-55014857D01*
X147938953Y-55110095D01*
X147891334Y-55252952D01*
X147319905Y-55824381D01*
X147938953Y-55824381D01*
X180435429Y-54951381D02*
X181054477Y-54951381D01*
X180721143Y-55332333D01*
X180864001Y-55332333D01*
X180959239Y-55379952D01*
X181006858Y-55427571D01*
X181054477Y-55522810D01*
X181054477Y-55760905D01*
X181006858Y-55856143D01*
X180959239Y-55903762D01*
X180864001Y-55951381D01*
X180578286Y-55951381D01*
X180483048Y-55903762D01*
X180435429Y-55856143D01*
X181483048Y-55570429D02*
X182244953Y-55570429D01*
X183149715Y-55284714D02*
X183149715Y-55951381D01*
X182911619Y-54903762D02*
X182673524Y-55618048D01*
X183292572Y-55618048D01*
X184816858Y-135850381D02*
X184340667Y-135850381D01*
X184293048Y-136326571D01*
X184340667Y-136278952D01*
X184435905Y-136231333D01*
X184674001Y-136231333D01*
X184769239Y-136278952D01*
X184816858Y-136326571D01*
X184864477Y-136421810D01*
X184864477Y-136659905D01*
X184816858Y-136755143D01*
X184769239Y-136802762D01*
X184674001Y-136850381D01*
X184435905Y-136850381D01*
X184340667Y-136802762D01*
X184293048Y-136755143D01*
X185293048Y-136469429D02*
X186054953Y-136469429D01*
X186959715Y-135850381D02*
X186769238Y-135850381D01*
X186674000Y-135898000D01*
X186626381Y-135945619D01*
X186531143Y-136088476D01*
X186483524Y-136278952D01*
X186483524Y-136659905D01*
X186531143Y-136755143D01*
X186578762Y-136802762D01*
X186674000Y-136850381D01*
X186864477Y-136850381D01*
X186959715Y-136802762D01*
X187007334Y-136755143D01*
X187054953Y-136659905D01*
X187054953Y-136421810D01*
X187007334Y-136326571D01*
X186959715Y-136278952D01*
X186864477Y-136231333D01*
X186674000Y-136231333D01*
X186578762Y-136278952D01*
X186531143Y-136326571D01*
X186483524Y-136421810D01*
X148304429Y-135977381D02*
X148971096Y-135977381D01*
X148542524Y-136977381D01*
X149352048Y-136596429D02*
X150113953Y-136596429D01*
X150733000Y-136405952D02*
X150637762Y-136358333D01*
X150590143Y-136310714D01*
X150542524Y-136215476D01*
X150542524Y-136167857D01*
X150590143Y-136072619D01*
X150637762Y-136025000D01*
X150733000Y-135977381D01*
X150923477Y-135977381D01*
X151018715Y-136025000D01*
X151066334Y-136072619D01*
X151113953Y-136167857D01*
X151113953Y-136215476D01*
X151066334Y-136310714D01*
X151018715Y-136358333D01*
X150923477Y-136405952D01*
X150733000Y-136405952D01*
X150637762Y-136453571D01*
X150590143Y-136501190D01*
X150542524Y-136596429D01*
X150542524Y-136786905D01*
X150590143Y-136882143D01*
X150637762Y-136929762D01*
X150733000Y-136977381D01*
X150923477Y-136977381D01*
X151018715Y-136929762D01*
X151066334Y-136882143D01*
X151113953Y-136786905D01*
X151113953Y-136596429D01*
X151066334Y-136501190D01*
X151018715Y-136453571D01*
X150923477Y-136405952D01*
X133310334Y-76144381D02*
X132977000Y-75668190D01*
X132738905Y-76144381D02*
X132738905Y-75144381D01*
X133119858Y-75144381D01*
X133215096Y-75192000D01*
X133262715Y-75239619D01*
X133310334Y-75334857D01*
X133310334Y-75477714D01*
X133262715Y-75572952D01*
X133215096Y-75620571D01*
X133119858Y-75668190D01*
X132738905Y-75668190D01*
X134262715Y-76144381D02*
X133691286Y-76144381D01*
X133977000Y-76144381D02*
X133977000Y-75144381D01*
X133881762Y-75287238D01*
X133786524Y-75382476D01*
X133691286Y-75430095D01*
X142200334Y-76017381D02*
X141867000Y-75541190D01*
X141628905Y-76017381D02*
X141628905Y-75017381D01*
X142009858Y-75017381D01*
X142105096Y-75065000D01*
X142152715Y-75112619D01*
X142200334Y-75207857D01*
X142200334Y-75350714D01*
X142152715Y-75445952D01*
X142105096Y-75493571D01*
X142009858Y-75541190D01*
X141628905Y-75541190D01*
X142581286Y-75112619D02*
X142628905Y-75065000D01*
X142724143Y-75017381D01*
X142962239Y-75017381D01*
X143057477Y-75065000D01*
X143105096Y-75112619D01*
X143152715Y-75207857D01*
X143152715Y-75303095D01*
X143105096Y-75445952D01*
X142533667Y-76017381D01*
X143152715Y-76017381D01*
X150836334Y-76144381D02*
X150503000Y-75668190D01*
X150264905Y-76144381D02*
X150264905Y-75144381D01*
X150645858Y-75144381D01*
X150741096Y-75192000D01*
X150788715Y-75239619D01*
X150836334Y-75334857D01*
X150836334Y-75477714D01*
X150788715Y-75572952D01*
X150741096Y-75620571D01*
X150645858Y-75668190D01*
X150264905Y-75668190D01*
X151169667Y-75144381D02*
X151788715Y-75144381D01*
X151455381Y-75525333D01*
X151598239Y-75525333D01*
X151693477Y-75572952D01*
X151741096Y-75620571D01*
X151788715Y-75715810D01*
X151788715Y-75953905D01*
X151741096Y-76049143D01*
X151693477Y-76096762D01*
X151598239Y-76144381D01*
X151312524Y-76144381D01*
X151217286Y-76096762D01*
X151169667Y-76049143D01*
X160361334Y-76144381D02*
X160028000Y-75668190D01*
X159789905Y-76144381D02*
X159789905Y-75144381D01*
X160170858Y-75144381D01*
X160266096Y-75192000D01*
X160313715Y-75239619D01*
X160361334Y-75334857D01*
X160361334Y-75477714D01*
X160313715Y-75572952D01*
X160266096Y-75620571D01*
X160170858Y-75668190D01*
X159789905Y-75668190D01*
X161218477Y-75477714D02*
X161218477Y-76144381D01*
X160980381Y-75096762D02*
X160742286Y-75811048D01*
X161361334Y-75811048D01*
X169378334Y-76144381D02*
X169045000Y-75668190D01*
X168806905Y-76144381D02*
X168806905Y-75144381D01*
X169187858Y-75144381D01*
X169283096Y-75192000D01*
X169330715Y-75239619D01*
X169378334Y-75334857D01*
X169378334Y-75477714D01*
X169330715Y-75572952D01*
X169283096Y-75620571D01*
X169187858Y-75668190D01*
X168806905Y-75668190D01*
X170283096Y-75144381D02*
X169806905Y-75144381D01*
X169759286Y-75620571D01*
X169806905Y-75572952D01*
X169902143Y-75525333D01*
X170140239Y-75525333D01*
X170235477Y-75572952D01*
X170283096Y-75620571D01*
X170330715Y-75715810D01*
X170330715Y-75953905D01*
X170283096Y-76049143D01*
X170235477Y-76096762D01*
X170140239Y-76144381D01*
X169902143Y-76144381D01*
X169806905Y-76096762D01*
X169759286Y-76049143D01*
X178268334Y-76017381D02*
X177935000Y-75541190D01*
X177696905Y-76017381D02*
X177696905Y-75017381D01*
X178077858Y-75017381D01*
X178173096Y-75065000D01*
X178220715Y-75112619D01*
X178268334Y-75207857D01*
X178268334Y-75350714D01*
X178220715Y-75445952D01*
X178173096Y-75493571D01*
X178077858Y-75541190D01*
X177696905Y-75541190D01*
X179125477Y-75017381D02*
X178935000Y-75017381D01*
X178839762Y-75065000D01*
X178792143Y-75112619D01*
X178696905Y-75255476D01*
X178649286Y-75445952D01*
X178649286Y-75826905D01*
X178696905Y-75922143D01*
X178744524Y-75969762D01*
X178839762Y-76017381D01*
X179030239Y-76017381D01*
X179125477Y-75969762D01*
X179173096Y-75922143D01*
X179220715Y-75826905D01*
X179220715Y-75588810D01*
X179173096Y-75493571D01*
X179125477Y-75445952D01*
X179030239Y-75398333D01*
X178839762Y-75398333D01*
X178744524Y-75445952D01*
X178696905Y-75493571D01*
X178649286Y-75588810D01*
X187285334Y-76017381D02*
X186952000Y-75541190D01*
X186713905Y-76017381D02*
X186713905Y-75017381D01*
X187094858Y-75017381D01*
X187190096Y-75065000D01*
X187237715Y-75112619D01*
X187285334Y-75207857D01*
X187285334Y-75350714D01*
X187237715Y-75445952D01*
X187190096Y-75493571D01*
X187094858Y-75541190D01*
X186713905Y-75541190D01*
X187618667Y-75017381D02*
X188285334Y-75017381D01*
X187856762Y-76017381D01*
X196175334Y-76017381D02*
X195842000Y-75541190D01*
X195603905Y-76017381D02*
X195603905Y-75017381D01*
X195984858Y-75017381D01*
X196080096Y-75065000D01*
X196127715Y-75112619D01*
X196175334Y-75207857D01*
X196175334Y-75350714D01*
X196127715Y-75445952D01*
X196080096Y-75493571D01*
X195984858Y-75541190D01*
X195603905Y-75541190D01*
X196746762Y-75445952D02*
X196651524Y-75398333D01*
X196603905Y-75350714D01*
X196556286Y-75255476D01*
X196556286Y-75207857D01*
X196603905Y-75112619D01*
X196651524Y-75065000D01*
X196746762Y-75017381D01*
X196937239Y-75017381D01*
X197032477Y-75065000D01*
X197080096Y-75112619D01*
X197127715Y-75207857D01*
X197127715Y-75255476D01*
X197080096Y-75350714D01*
X197032477Y-75398333D01*
X196937239Y-75445952D01*
X196746762Y-75445952D01*
X196651524Y-75493571D01*
X196603905Y-75541190D01*
X196556286Y-75636429D01*
X196556286Y-75826905D01*
X196603905Y-75922143D01*
X196651524Y-75969762D01*
X196746762Y-76017381D01*
X196937239Y-76017381D01*
X197032477Y-75969762D01*
X197080096Y-75922143D01*
X197127715Y-75826905D01*
X197127715Y-75636429D01*
X197080096Y-75541190D01*
X197032477Y-75493571D01*
X196937239Y-75445952D01*
X196048334Y-120340381D02*
X195715000Y-119864190D01*
X195476905Y-120340381D02*
X195476905Y-119340381D01*
X195857858Y-119340381D01*
X195953096Y-119388000D01*
X196000715Y-119435619D01*
X196048334Y-119530857D01*
X196048334Y-119673714D01*
X196000715Y-119768952D01*
X195953096Y-119816571D01*
X195857858Y-119864190D01*
X195476905Y-119864190D01*
X196524524Y-120340381D02*
X196715000Y-120340381D01*
X196810239Y-120292762D01*
X196857858Y-120245143D01*
X196953096Y-120102286D01*
X197000715Y-119911810D01*
X197000715Y-119530857D01*
X196953096Y-119435619D01*
X196905477Y-119388000D01*
X196810239Y-119340381D01*
X196619762Y-119340381D01*
X196524524Y-119388000D01*
X196476905Y-119435619D01*
X196429286Y-119530857D01*
X196429286Y-119768952D01*
X196476905Y-119864190D01*
X196524524Y-119911810D01*
X196619762Y-119959429D01*
X196810239Y-119959429D01*
X196905477Y-119911810D01*
X196953096Y-119864190D01*
X197000715Y-119768952D01*
X186682143Y-120213381D02*
X186348809Y-119737190D01*
X186110714Y-120213381D02*
X186110714Y-119213381D01*
X186491667Y-119213381D01*
X186586905Y-119261000D01*
X186634524Y-119308619D01*
X186682143Y-119403857D01*
X186682143Y-119546714D01*
X186634524Y-119641952D01*
X186586905Y-119689571D01*
X186491667Y-119737190D01*
X186110714Y-119737190D01*
X187634524Y-120213381D02*
X187063095Y-120213381D01*
X187348809Y-120213381D02*
X187348809Y-119213381D01*
X187253571Y-119356238D01*
X187158333Y-119451476D01*
X187063095Y-119499095D01*
X188253571Y-119213381D02*
X188348810Y-119213381D01*
X188444048Y-119261000D01*
X188491667Y-119308619D01*
X188539286Y-119403857D01*
X188586905Y-119594333D01*
X188586905Y-119832429D01*
X188539286Y-120022905D01*
X188491667Y-120118143D01*
X188444048Y-120165762D01*
X188348810Y-120213381D01*
X188253571Y-120213381D01*
X188158333Y-120165762D01*
X188110714Y-120118143D01*
X188063095Y-120022905D01*
X188015476Y-119832429D01*
X188015476Y-119594333D01*
X188063095Y-119403857D01*
X188110714Y-119308619D01*
X188158333Y-119261000D01*
X188253571Y-119213381D01*
X177792143Y-120340381D02*
X177458809Y-119864190D01*
X177220714Y-120340381D02*
X177220714Y-119340381D01*
X177601667Y-119340381D01*
X177696905Y-119388000D01*
X177744524Y-119435619D01*
X177792143Y-119530857D01*
X177792143Y-119673714D01*
X177744524Y-119768952D01*
X177696905Y-119816571D01*
X177601667Y-119864190D01*
X177220714Y-119864190D01*
X178744524Y-120340381D02*
X178173095Y-120340381D01*
X178458809Y-120340381D02*
X178458809Y-119340381D01*
X178363571Y-119483238D01*
X178268333Y-119578476D01*
X178173095Y-119626095D01*
X179696905Y-120340381D02*
X179125476Y-120340381D01*
X179411190Y-120340381D02*
X179411190Y-119340381D01*
X179315952Y-119483238D01*
X179220714Y-119578476D01*
X179125476Y-119626095D01*
X168902143Y-120213381D02*
X168568809Y-119737190D01*
X168330714Y-120213381D02*
X168330714Y-119213381D01*
X168711667Y-119213381D01*
X168806905Y-119261000D01*
X168854524Y-119308619D01*
X168902143Y-119403857D01*
X168902143Y-119546714D01*
X168854524Y-119641952D01*
X168806905Y-119689571D01*
X168711667Y-119737190D01*
X168330714Y-119737190D01*
X169854524Y-120213381D02*
X169283095Y-120213381D01*
X169568809Y-120213381D02*
X169568809Y-119213381D01*
X169473571Y-119356238D01*
X169378333Y-119451476D01*
X169283095Y-119499095D01*
X170235476Y-119308619D02*
X170283095Y-119261000D01*
X170378333Y-119213381D01*
X170616429Y-119213381D01*
X170711667Y-119261000D01*
X170759286Y-119308619D01*
X170806905Y-119403857D01*
X170806905Y-119499095D01*
X170759286Y-119641952D01*
X170187857Y-120213381D01*
X170806905Y-120213381D01*
X160647143Y-120213381D02*
X160313809Y-119737190D01*
X160075714Y-120213381D02*
X160075714Y-119213381D01*
X160456667Y-119213381D01*
X160551905Y-119261000D01*
X160599524Y-119308619D01*
X160647143Y-119403857D01*
X160647143Y-119546714D01*
X160599524Y-119641952D01*
X160551905Y-119689571D01*
X160456667Y-119737190D01*
X160075714Y-119737190D01*
X161599524Y-120213381D02*
X161028095Y-120213381D01*
X161313809Y-120213381D02*
X161313809Y-119213381D01*
X161218571Y-119356238D01*
X161123333Y-119451476D01*
X161028095Y-119499095D01*
X161932857Y-119213381D02*
X162551905Y-119213381D01*
X162218571Y-119594333D01*
X162361429Y-119594333D01*
X162456667Y-119641952D01*
X162504286Y-119689571D01*
X162551905Y-119784810D01*
X162551905Y-120022905D01*
X162504286Y-120118143D01*
X162456667Y-120165762D01*
X162361429Y-120213381D01*
X162075714Y-120213381D01*
X161980476Y-120165762D01*
X161932857Y-120118143D01*
X151757143Y-120213381D02*
X151423809Y-119737190D01*
X151185714Y-120213381D02*
X151185714Y-119213381D01*
X151566667Y-119213381D01*
X151661905Y-119261000D01*
X151709524Y-119308619D01*
X151757143Y-119403857D01*
X151757143Y-119546714D01*
X151709524Y-119641952D01*
X151661905Y-119689571D01*
X151566667Y-119737190D01*
X151185714Y-119737190D01*
X152709524Y-120213381D02*
X152138095Y-120213381D01*
X152423809Y-120213381D02*
X152423809Y-119213381D01*
X152328571Y-119356238D01*
X152233333Y-119451476D01*
X152138095Y-119499095D01*
X153566667Y-119546714D02*
X153566667Y-120213381D01*
X153328571Y-119165762D02*
X153090476Y-119880048D01*
X153709524Y-119880048D01*
X142994143Y-120340381D02*
X142660809Y-119864190D01*
X142422714Y-120340381D02*
X142422714Y-119340381D01*
X142803667Y-119340381D01*
X142898905Y-119388000D01*
X142946524Y-119435619D01*
X142994143Y-119530857D01*
X142994143Y-119673714D01*
X142946524Y-119768952D01*
X142898905Y-119816571D01*
X142803667Y-119864190D01*
X142422714Y-119864190D01*
X143946524Y-120340381D02*
X143375095Y-120340381D01*
X143660809Y-120340381D02*
X143660809Y-119340381D01*
X143565571Y-119483238D01*
X143470333Y-119578476D01*
X143375095Y-119626095D01*
X144851286Y-119340381D02*
X144375095Y-119340381D01*
X144327476Y-119816571D01*
X144375095Y-119768952D01*
X144470333Y-119721333D01*
X144708429Y-119721333D01*
X144803667Y-119768952D01*
X144851286Y-119816571D01*
X144898905Y-119911810D01*
X144898905Y-120149905D01*
X144851286Y-120245143D01*
X144803667Y-120292762D01*
X144708429Y-120340381D01*
X144470333Y-120340381D01*
X144375095Y-120292762D01*
X144327476Y-120245143D01*
X133469143Y-120213381D02*
X133135809Y-119737190D01*
X132897714Y-120213381D02*
X132897714Y-119213381D01*
X133278667Y-119213381D01*
X133373905Y-119261000D01*
X133421524Y-119308619D01*
X133469143Y-119403857D01*
X133469143Y-119546714D01*
X133421524Y-119641952D01*
X133373905Y-119689571D01*
X133278667Y-119737190D01*
X132897714Y-119737190D01*
X134421524Y-120213381D02*
X133850095Y-120213381D01*
X134135809Y-120213381D02*
X134135809Y-119213381D01*
X134040571Y-119356238D01*
X133945333Y-119451476D01*
X133850095Y-119499095D01*
X135278667Y-119213381D02*
X135088190Y-119213381D01*
X134992952Y-119261000D01*
X134945333Y-119308619D01*
X134850095Y-119451476D01*
X134802476Y-119641952D01*
X134802476Y-120022905D01*
X134850095Y-120118143D01*
X134897714Y-120165762D01*
X134992952Y-120213381D01*
X135183429Y-120213381D01*
X135278667Y-120165762D01*
X135326286Y-120118143D01*
X135373905Y-120022905D01*
X135373905Y-119784810D01*
X135326286Y-119689571D01*
X135278667Y-119641952D01*
X135183429Y-119594333D01*
X134992952Y-119594333D01*
X134897714Y-119641952D01*
X134850095Y-119689571D01*
X134802476Y-119784810D01*
X150738095Y-108452381D02*
X151404762Y-108452381D01*
X150976190Y-109452381D01*
X152214286Y-108785714D02*
X152214286Y-109452381D01*
X151976190Y-108404762D02*
X151738095Y-109119048D01*
X152357143Y-109119048D01*
X152738095Y-109452381D02*
X152738095Y-108452381D01*
X152738095Y-108928571D02*
X153309524Y-108928571D01*
X153309524Y-109452381D02*
X153309524Y-108452381D01*
X154357143Y-109357143D02*
X154309524Y-109404762D01*
X154166667Y-109452381D01*
X154071429Y-109452381D01*
X153928571Y-109404762D01*
X153833333Y-109309524D01*
X153785714Y-109214286D01*
X153738095Y-109023810D01*
X153738095Y-108880952D01*
X153785714Y-108690476D01*
X153833333Y-108595238D01*
X153928571Y-108500000D01*
X154071429Y-108452381D01*
X154166667Y-108452381D01*
X154309524Y-108500000D01*
X154357143Y-108547619D01*
X155261905Y-108452381D02*
X154785714Y-108452381D01*
X154738095Y-108928571D01*
X154785714Y-108880952D01*
X154880952Y-108833333D01*
X155119048Y-108833333D01*
X155214286Y-108880952D01*
X155261905Y-108928571D01*
X155309524Y-109023810D01*
X155309524Y-109261905D01*
X155261905Y-109357143D01*
X155214286Y-109404762D01*
X155119048Y-109452381D01*
X154880952Y-109452381D01*
X154785714Y-109404762D01*
X154738095Y-109357143D01*
X155785714Y-109452381D02*
X155976190Y-109452381D01*
X156071429Y-109404762D01*
X156119048Y-109357143D01*
X156214286Y-109214286D01*
X156261905Y-109023810D01*
X156261905Y-108642857D01*
X156214286Y-108547619D01*
X156166667Y-108500000D01*
X156071429Y-108452381D01*
X155880952Y-108452381D01*
X155785714Y-108500000D01*
X155738095Y-108547619D01*
X155690476Y-108642857D01*
X155690476Y-108880952D01*
X155738095Y-108976190D01*
X155785714Y-109023810D01*
X155880952Y-109071429D01*
X156071429Y-109071429D01*
X156166667Y-109023810D01*
X156214286Y-108976190D01*
X156261905Y-108880952D01*
X157166667Y-108452381D02*
X156690476Y-108452381D01*
X156642857Y-108928571D01*
X156690476Y-108880952D01*
X156785714Y-108833333D01*
X157023810Y-108833333D01*
X157119048Y-108880952D01*
X157166667Y-108928571D01*
X157214286Y-109023810D01*
X157214286Y-109261905D01*
X157166667Y-109357143D01*
X157119048Y-109404762D01*
X157023810Y-109452381D01*
X156785714Y-109452381D01*
X156690476Y-109404762D01*
X156642857Y-109357143D01*
X131278381Y-66801905D02*
X132087905Y-66801905D01*
X132183143Y-66754286D01*
X132230762Y-66706667D01*
X132278381Y-66611429D01*
X132278381Y-66420952D01*
X132230762Y-66325714D01*
X132183143Y-66278095D01*
X132087905Y-66230476D01*
X131278381Y-66230476D01*
X131278381Y-65278095D02*
X131278381Y-65754286D01*
X131754571Y-65801905D01*
X131706952Y-65754286D01*
X131659333Y-65659048D01*
X131659333Y-65420952D01*
X131706952Y-65325714D01*
X131754571Y-65278095D01*
X131849810Y-65230476D01*
X132087905Y-65230476D01*
X132183143Y-65278095D01*
X132230762Y-65325714D01*
X132278381Y-65420952D01*
X132278381Y-65659048D01*
X132230762Y-65754286D01*
X132183143Y-65801905D01*
X140168381Y-66801905D02*
X140977905Y-66801905D01*
X141073143Y-66754286D01*
X141120762Y-66706667D01*
X141168381Y-66611429D01*
X141168381Y-66420952D01*
X141120762Y-66325714D01*
X141073143Y-66278095D01*
X140977905Y-66230476D01*
X140168381Y-66230476D01*
X140168381Y-65325714D02*
X140168381Y-65516191D01*
X140216000Y-65611429D01*
X140263619Y-65659048D01*
X140406476Y-65754286D01*
X140596952Y-65801905D01*
X140977905Y-65801905D01*
X141073143Y-65754286D01*
X141120762Y-65706667D01*
X141168381Y-65611429D01*
X141168381Y-65420952D01*
X141120762Y-65325714D01*
X141073143Y-65278095D01*
X140977905Y-65230476D01*
X140739810Y-65230476D01*
X140644571Y-65278095D01*
X140596952Y-65325714D01*
X140549333Y-65420952D01*
X140549333Y-65611429D01*
X140596952Y-65706667D01*
X140644571Y-65754286D01*
X140739810Y-65801905D01*
X149058381Y-66801905D02*
X149867905Y-66801905D01*
X149963143Y-66754286D01*
X150010762Y-66706667D01*
X150058381Y-66611429D01*
X150058381Y-66420952D01*
X150010762Y-66325714D01*
X149963143Y-66278095D01*
X149867905Y-66230476D01*
X149058381Y-66230476D01*
X149058381Y-65849524D02*
X149058381Y-65182857D01*
X150058381Y-65611429D01*
X157948381Y-66801905D02*
X158757905Y-66801905D01*
X158853143Y-66754286D01*
X158900762Y-66706667D01*
X158948381Y-66611429D01*
X158948381Y-66420952D01*
X158900762Y-66325714D01*
X158853143Y-66278095D01*
X158757905Y-66230476D01*
X157948381Y-66230476D01*
X158376952Y-65611429D02*
X158329333Y-65706667D01*
X158281714Y-65754286D01*
X158186476Y-65801905D01*
X158138857Y-65801905D01*
X158043619Y-65754286D01*
X157996000Y-65706667D01*
X157948381Y-65611429D01*
X157948381Y-65420952D01*
X157996000Y-65325714D01*
X158043619Y-65278095D01*
X158138857Y-65230476D01*
X158186476Y-65230476D01*
X158281714Y-65278095D01*
X158329333Y-65325714D01*
X158376952Y-65420952D01*
X158376952Y-65611429D01*
X158424571Y-65706667D01*
X158472190Y-65754286D01*
X158567429Y-65801905D01*
X158757905Y-65801905D01*
X158853143Y-65754286D01*
X158900762Y-65706667D01*
X158948381Y-65611429D01*
X158948381Y-65420952D01*
X158900762Y-65325714D01*
X158853143Y-65278095D01*
X158757905Y-65230476D01*
X158567429Y-65230476D01*
X158472190Y-65278095D01*
X158424571Y-65325714D01*
X158376952Y-65420952D01*
X166838381Y-66801905D02*
X167647905Y-66801905D01*
X167743143Y-66754286D01*
X167790762Y-66706667D01*
X167838381Y-66611429D01*
X167838381Y-66420952D01*
X167790762Y-66325714D01*
X167743143Y-66278095D01*
X167647905Y-66230476D01*
X166838381Y-66230476D01*
X167838381Y-65706667D02*
X167838381Y-65516191D01*
X167790762Y-65420952D01*
X167743143Y-65373333D01*
X167600286Y-65278095D01*
X167409810Y-65230476D01*
X167028857Y-65230476D01*
X166933619Y-65278095D01*
X166886000Y-65325714D01*
X166838381Y-65420952D01*
X166838381Y-65611429D01*
X166886000Y-65706667D01*
X166933619Y-65754286D01*
X167028857Y-65801905D01*
X167266952Y-65801905D01*
X167362190Y-65754286D01*
X167409810Y-65706667D01*
X167457429Y-65611429D01*
X167457429Y-65420952D01*
X167409810Y-65325714D01*
X167362190Y-65278095D01*
X167266952Y-65230476D01*
X175728381Y-67405095D02*
X176537905Y-67405095D01*
X176633143Y-67357476D01*
X176680762Y-67309857D01*
X176728381Y-67214619D01*
X176728381Y-67024142D01*
X176680762Y-66928904D01*
X176633143Y-66881285D01*
X176537905Y-66833666D01*
X175728381Y-66833666D01*
X176728381Y-65833666D02*
X176728381Y-66405095D01*
X176728381Y-66119381D02*
X175728381Y-66119381D01*
X175871238Y-66214619D01*
X175966476Y-66309857D01*
X176014095Y-66405095D01*
X175728381Y-65214619D02*
X175728381Y-65119380D01*
X175776000Y-65024142D01*
X175823619Y-64976523D01*
X175918857Y-64928904D01*
X176109333Y-64881285D01*
X176347429Y-64881285D01*
X176537905Y-64928904D01*
X176633143Y-64976523D01*
X176680762Y-65024142D01*
X176728381Y-65119380D01*
X176728381Y-65214619D01*
X176680762Y-65309857D01*
X176633143Y-65357476D01*
X176537905Y-65405095D01*
X176347429Y-65452714D01*
X176109333Y-65452714D01*
X175918857Y-65405095D01*
X175823619Y-65357476D01*
X175776000Y-65309857D01*
X175728381Y-65214619D01*
X184618381Y-67405095D02*
X185427905Y-67405095D01*
X185523143Y-67357476D01*
X185570762Y-67309857D01*
X185618381Y-67214619D01*
X185618381Y-67024142D01*
X185570762Y-66928904D01*
X185523143Y-66881285D01*
X185427905Y-66833666D01*
X184618381Y-66833666D01*
X185618381Y-65833666D02*
X185618381Y-66405095D01*
X185618381Y-66119381D02*
X184618381Y-66119381D01*
X184761238Y-66214619D01*
X184856476Y-66309857D01*
X184904095Y-66405095D01*
X185618381Y-64881285D02*
X185618381Y-65452714D01*
X185618381Y-65167000D02*
X184618381Y-65167000D01*
X184761238Y-65262238D01*
X184856476Y-65357476D01*
X184904095Y-65452714D01*
X193381381Y-67405095D02*
X194190905Y-67405095D01*
X194286143Y-67357476D01*
X194333762Y-67309857D01*
X194381381Y-67214619D01*
X194381381Y-67024142D01*
X194333762Y-66928904D01*
X194286143Y-66881285D01*
X194190905Y-66833666D01*
X193381381Y-66833666D01*
X194381381Y-65833666D02*
X194381381Y-66405095D01*
X194381381Y-66119381D02*
X193381381Y-66119381D01*
X193524238Y-66214619D01*
X193619476Y-66309857D01*
X193667095Y-66405095D01*
X193476619Y-65452714D02*
X193429000Y-65405095D01*
X193381381Y-65309857D01*
X193381381Y-65071761D01*
X193429000Y-64976523D01*
X193476619Y-64928904D01*
X193571857Y-64881285D01*
X193667095Y-64881285D01*
X193809952Y-64928904D01*
X194381381Y-65500333D01*
X194381381Y-64881285D01*
X197191381Y-126968095D02*
X198000905Y-126968095D01*
X198096143Y-126920476D01*
X198143762Y-126872857D01*
X198191381Y-126777619D01*
X198191381Y-126587142D01*
X198143762Y-126491904D01*
X198096143Y-126444285D01*
X198000905Y-126396666D01*
X197191381Y-126396666D01*
X198191381Y-125396666D02*
X198191381Y-125968095D01*
X198191381Y-125682381D02*
X197191381Y-125682381D01*
X197334238Y-125777619D01*
X197429476Y-125872857D01*
X197477095Y-125968095D01*
X197191381Y-125063333D02*
X197191381Y-124444285D01*
X197572333Y-124777619D01*
X197572333Y-124634761D01*
X197619952Y-124539523D01*
X197667571Y-124491904D01*
X197762810Y-124444285D01*
X198000905Y-124444285D01*
X198096143Y-124491904D01*
X198143762Y-124539523D01*
X198191381Y-124634761D01*
X198191381Y-124920476D01*
X198143762Y-125015714D01*
X198096143Y-125063333D01*
X188936381Y-126841095D02*
X189745905Y-126841095D01*
X189841143Y-126793476D01*
X189888762Y-126745857D01*
X189936381Y-126650619D01*
X189936381Y-126460142D01*
X189888762Y-126364904D01*
X189841143Y-126317285D01*
X189745905Y-126269666D01*
X188936381Y-126269666D01*
X189936381Y-125269666D02*
X189936381Y-125841095D01*
X189936381Y-125555381D02*
X188936381Y-125555381D01*
X189079238Y-125650619D01*
X189174476Y-125745857D01*
X189222095Y-125841095D01*
X189269714Y-124412523D02*
X189936381Y-124412523D01*
X188888762Y-124650619D02*
X189603048Y-124888714D01*
X189603048Y-124269666D01*
X180300381Y-126968095D02*
X181109905Y-126968095D01*
X181205143Y-126920476D01*
X181252762Y-126872857D01*
X181300381Y-126777619D01*
X181300381Y-126587142D01*
X181252762Y-126491904D01*
X181205143Y-126444285D01*
X181109905Y-126396666D01*
X180300381Y-126396666D01*
X181300381Y-125396666D02*
X181300381Y-125968095D01*
X181300381Y-125682381D02*
X180300381Y-125682381D01*
X180443238Y-125777619D01*
X180538476Y-125872857D01*
X180586095Y-125968095D01*
X180300381Y-124491904D02*
X180300381Y-124968095D01*
X180776571Y-125015714D01*
X180728952Y-124968095D01*
X180681333Y-124872857D01*
X180681333Y-124634761D01*
X180728952Y-124539523D01*
X180776571Y-124491904D01*
X180871810Y-124444285D01*
X181109905Y-124444285D01*
X181205143Y-124491904D01*
X181252762Y-124539523D01*
X181300381Y-124634761D01*
X181300381Y-124872857D01*
X181252762Y-124968095D01*
X181205143Y-125015714D01*
X170902381Y-126968095D02*
X171711905Y-126968095D01*
X171807143Y-126920476D01*
X171854762Y-126872857D01*
X171902381Y-126777619D01*
X171902381Y-126587142D01*
X171854762Y-126491904D01*
X171807143Y-126444285D01*
X171711905Y-126396666D01*
X170902381Y-126396666D01*
X171902381Y-125396666D02*
X171902381Y-125968095D01*
X171902381Y-125682381D02*
X170902381Y-125682381D01*
X171045238Y-125777619D01*
X171140476Y-125872857D01*
X171188095Y-125968095D01*
X170902381Y-124539523D02*
X170902381Y-124730000D01*
X170950000Y-124825238D01*
X170997619Y-124872857D01*
X171140476Y-124968095D01*
X171330952Y-125015714D01*
X171711905Y-125015714D01*
X171807143Y-124968095D01*
X171854762Y-124920476D01*
X171902381Y-124825238D01*
X171902381Y-124634761D01*
X171854762Y-124539523D01*
X171807143Y-124491904D01*
X171711905Y-124444285D01*
X171473810Y-124444285D01*
X171378571Y-124491904D01*
X171330952Y-124539523D01*
X171283333Y-124634761D01*
X171283333Y-124825238D01*
X171330952Y-124920476D01*
X171378571Y-124968095D01*
X171473810Y-125015714D01*
X162393381Y-126968095D02*
X163202905Y-126968095D01*
X163298143Y-126920476D01*
X163345762Y-126872857D01*
X163393381Y-126777619D01*
X163393381Y-126587142D01*
X163345762Y-126491904D01*
X163298143Y-126444285D01*
X163202905Y-126396666D01*
X162393381Y-126396666D01*
X163393381Y-125396666D02*
X163393381Y-125968095D01*
X163393381Y-125682381D02*
X162393381Y-125682381D01*
X162536238Y-125777619D01*
X162631476Y-125872857D01*
X162679095Y-125968095D01*
X162393381Y-125063333D02*
X162393381Y-124396666D01*
X163393381Y-124825238D01*
X153503381Y-126968095D02*
X154312905Y-126968095D01*
X154408143Y-126920476D01*
X154455762Y-126872857D01*
X154503381Y-126777619D01*
X154503381Y-126587142D01*
X154455762Y-126491904D01*
X154408143Y-126444285D01*
X154312905Y-126396666D01*
X153503381Y-126396666D01*
X154503381Y-125396666D02*
X154503381Y-125968095D01*
X154503381Y-125682381D02*
X153503381Y-125682381D01*
X153646238Y-125777619D01*
X153741476Y-125872857D01*
X153789095Y-125968095D01*
X153931952Y-124825238D02*
X153884333Y-124920476D01*
X153836714Y-124968095D01*
X153741476Y-125015714D01*
X153693857Y-125015714D01*
X153598619Y-124968095D01*
X153551000Y-124920476D01*
X153503381Y-124825238D01*
X153503381Y-124634761D01*
X153551000Y-124539523D01*
X153598619Y-124491904D01*
X153693857Y-124444285D01*
X153741476Y-124444285D01*
X153836714Y-124491904D01*
X153884333Y-124539523D01*
X153931952Y-124634761D01*
X153931952Y-124825238D01*
X153979571Y-124920476D01*
X154027190Y-124968095D01*
X154122429Y-125015714D01*
X154312905Y-125015714D01*
X154408143Y-124968095D01*
X154455762Y-124920476D01*
X154503381Y-124825238D01*
X154503381Y-124634761D01*
X154455762Y-124539523D01*
X154408143Y-124491904D01*
X154312905Y-124444285D01*
X154122429Y-124444285D01*
X154027190Y-124491904D01*
X153979571Y-124539523D01*
X153931952Y-124634761D01*
X144613381Y-126968095D02*
X145422905Y-126968095D01*
X145518143Y-126920476D01*
X145565762Y-126872857D01*
X145613381Y-126777619D01*
X145613381Y-126587142D01*
X145565762Y-126491904D01*
X145518143Y-126444285D01*
X145422905Y-126396666D01*
X144613381Y-126396666D01*
X145613381Y-125396666D02*
X145613381Y-125968095D01*
X145613381Y-125682381D02*
X144613381Y-125682381D01*
X144756238Y-125777619D01*
X144851476Y-125872857D01*
X144899095Y-125968095D01*
X145613381Y-124920476D02*
X145613381Y-124730000D01*
X145565762Y-124634761D01*
X145518143Y-124587142D01*
X145375286Y-124491904D01*
X145184810Y-124444285D01*
X144803857Y-124444285D01*
X144708619Y-124491904D01*
X144661000Y-124539523D01*
X144613381Y-124634761D01*
X144613381Y-124825238D01*
X144661000Y-124920476D01*
X144708619Y-124968095D01*
X144803857Y-125015714D01*
X145041952Y-125015714D01*
X145137190Y-124968095D01*
X145184810Y-124920476D01*
X145232429Y-124825238D01*
X145232429Y-124634761D01*
X145184810Y-124539523D01*
X145137190Y-124491904D01*
X145041952Y-124444285D01*
X135723381Y-126968095D02*
X136532905Y-126968095D01*
X136628143Y-126920476D01*
X136675762Y-126872857D01*
X136723381Y-126777619D01*
X136723381Y-126587142D01*
X136675762Y-126491904D01*
X136628143Y-126444285D01*
X136532905Y-126396666D01*
X135723381Y-126396666D01*
X135818619Y-125968095D02*
X135771000Y-125920476D01*
X135723381Y-125825238D01*
X135723381Y-125587142D01*
X135771000Y-125491904D01*
X135818619Y-125444285D01*
X135913857Y-125396666D01*
X136009095Y-125396666D01*
X136151952Y-125444285D01*
X136723381Y-126015714D01*
X136723381Y-125396666D01*
X135723381Y-124777619D02*
X135723381Y-124682380D01*
X135771000Y-124587142D01*
X135818619Y-124539523D01*
X135913857Y-124491904D01*
X136104333Y-124444285D01*
X136342429Y-124444285D01*
X136532905Y-124491904D01*
X136628143Y-124539523D01*
X136675762Y-124587142D01*
X136723381Y-124682380D01*
X136723381Y-124777619D01*
X136675762Y-124872857D01*
X136628143Y-124920476D01*
X136532905Y-124968095D01*
X136342429Y-125015714D01*
X136104333Y-125015714D01*
X135913857Y-124968095D01*
X135818619Y-124920476D01*
X135771000Y-124872857D01*
X135723381Y-124777619D01*
X130294334Y-136977381D02*
X130294334Y-135977381D01*
X130675287Y-135977381D01*
X130770525Y-136025000D01*
X130818144Y-136072619D01*
X130865763Y-136167857D01*
X130865763Y-136310714D01*
X130818144Y-136405952D01*
X130770525Y-136453571D01*
X130675287Y-136501190D01*
X130294334Y-136501190D01*
X131294334Y-136977381D02*
X131294334Y-135977381D01*
X131294334Y-136453571D02*
X131865763Y-136453571D01*
X131865763Y-136977381D02*
X131865763Y-135977381D01*
X132341953Y-136596429D02*
X133103858Y-136596429D01*
X133580048Y-136977381D02*
X133580048Y-135977381D01*
X134056238Y-136977381D02*
X134056238Y-135977381D01*
X134627667Y-136977381D01*
X134627667Y-135977381D01*
M02*
