G04 #@! TF.FileFunction,Copper,L1,Top,Signal*
%FSLAX46Y46*%
G04 Gerber Fmt 4.6, Leading zero omitted, Abs format (unit mm)*
G04 Created by KiCad (PCBNEW 4.0.5-e0-6337~49~ubuntu16.04.1) date Tue Jan 17 08:40:45 2017*
%MOMM*%
%LPD*%
G01*
G04 APERTURE LIST*
%ADD10C,0.100000*%
%ADD11R,1.600000X0.550000*%
%ADD12R,0.550000X1.600000*%
%ADD13R,2.540000X2.540000*%
%ADD14C,2.540000*%
%ADD15R,1.700000X1.700000*%
%ADD16O,1.700000X1.700000*%
%ADD17R,2.000000X3.800000*%
%ADD18R,2.000000X1.500000*%
%ADD19R,3.000000X1.200000*%
%ADD20R,0.508000X1.143000*%
%ADD21R,1.300000X1.300000*%
%ADD22C,1.300000*%
%ADD23R,1.200000X0.900000*%
%ADD24R,2.000000X1.700000*%
%ADD25R,1.600000X2.400000*%
%ADD26O,1.600000X2.400000*%
%ADD27C,0.600000*%
%ADD28C,0.250000*%
%ADD29C,0.500000*%
%ADD30C,0.254000*%
G04 APERTURE END LIST*
D10*
D11*
X153120000Y-93135000D03*
X153120000Y-93935000D03*
X153120000Y-94735000D03*
X153120000Y-95535000D03*
X153120000Y-96335000D03*
X153120000Y-97135000D03*
X153120000Y-97935000D03*
X153120000Y-98735000D03*
D12*
X154570000Y-100185000D03*
X155370000Y-100185000D03*
X156170000Y-100185000D03*
X156970000Y-100185000D03*
X157770000Y-100185000D03*
X158570000Y-100185000D03*
X159370000Y-100185000D03*
X160170000Y-100185000D03*
D11*
X161620000Y-98735000D03*
X161620000Y-97935000D03*
X161620000Y-97135000D03*
X161620000Y-96335000D03*
X161620000Y-95535000D03*
X161620000Y-94735000D03*
X161620000Y-93935000D03*
X161620000Y-93135000D03*
D12*
X160170000Y-91685000D03*
X159370000Y-91685000D03*
X158570000Y-91685000D03*
X157770000Y-91685000D03*
X156970000Y-91685000D03*
X156170000Y-91685000D03*
X155370000Y-91685000D03*
X154570000Y-91685000D03*
D13*
X133875000Y-90220000D03*
D14*
X133875000Y-95300000D03*
D15*
X180865000Y-88950000D03*
X172610000Y-99745000D03*
D16*
X170070000Y-99745000D03*
X172610000Y-97205000D03*
X170070000Y-97205000D03*
X172610000Y-94665000D03*
X170070000Y-94665000D03*
D17*
X147820000Y-92760000D03*
D18*
X141520000Y-92760000D03*
X141520000Y-95060000D03*
X141520000Y-90460000D03*
D19*
X205125000Y-101015000D03*
X205125000Y-99015000D03*
X205125000Y-97015000D03*
X205125000Y-95015000D03*
X205125000Y-93015000D03*
X205125000Y-91015000D03*
X205125000Y-89015000D03*
X205125000Y-87015000D03*
X185425000Y-87015000D03*
X185425000Y-89015000D03*
X185425000Y-91015000D03*
X185425000Y-93015000D03*
X185425000Y-95015000D03*
X185425000Y-97015000D03*
X185425000Y-99015000D03*
X185425000Y-101015000D03*
D20*
X157370000Y-86791000D03*
X154830000Y-86791000D03*
X153560000Y-86791000D03*
X152290000Y-86791000D03*
X151020000Y-86791000D03*
X149750000Y-86791000D03*
X148480000Y-86791000D03*
X148480000Y-80441000D03*
X149750000Y-80441000D03*
X151020000Y-80441000D03*
X152290000Y-80441000D03*
X153560000Y-80441000D03*
X154830000Y-80441000D03*
X156100000Y-80441000D03*
X157370000Y-80441000D03*
X156100000Y-86791000D03*
D21*
X142130000Y-99110000D03*
D22*
X139630000Y-99110000D03*
D21*
X141495000Y-85140000D03*
D22*
X138995000Y-85140000D03*
D23*
X131445000Y-59435000D03*
X131445000Y-56135000D03*
X140335000Y-56135000D03*
X140335000Y-59435000D03*
X149225000Y-59435000D03*
X149225000Y-56135000D03*
X158115000Y-56135000D03*
X158115000Y-59435000D03*
X167005000Y-59435000D03*
X167005000Y-56135000D03*
X175895000Y-56135000D03*
X175895000Y-59435000D03*
X184785000Y-59435000D03*
X184785000Y-56135000D03*
X193675000Y-56135000D03*
X193675000Y-59435000D03*
X198755000Y-132335000D03*
X198755000Y-135635000D03*
X189865000Y-135635000D03*
X189865000Y-132335000D03*
X180975000Y-132335000D03*
X180975000Y-135635000D03*
X172085000Y-135635000D03*
X172085000Y-132335000D03*
X163195000Y-132335000D03*
X163195000Y-135635000D03*
X154305000Y-135635000D03*
X154305000Y-132335000D03*
X145415000Y-132335000D03*
X145415000Y-135635000D03*
X136500000Y-135650000D03*
X136500000Y-132350000D03*
D13*
X137050000Y-50850000D03*
D14*
X131970000Y-50850000D03*
D13*
X150495000Y-50800000D03*
D14*
X145415000Y-50800000D03*
D13*
X185420000Y-50800000D03*
D14*
X180340000Y-50800000D03*
D13*
X180340000Y-140970000D03*
D14*
X185420000Y-140970000D03*
D13*
X146685000Y-140970000D03*
D14*
X151765000Y-140970000D03*
D24*
X131350000Y-73660000D03*
X135350000Y-73660000D03*
X140240000Y-73660000D03*
X144240000Y-73660000D03*
X149130000Y-73660000D03*
X153130000Y-73660000D03*
X158655000Y-73660000D03*
X162655000Y-73660000D03*
X167545000Y-73660000D03*
X171545000Y-73660000D03*
X176435000Y-73660000D03*
X180435000Y-73660000D03*
X185325000Y-73660000D03*
X189325000Y-73660000D03*
X194215000Y-73660000D03*
X198215000Y-73660000D03*
X198215000Y-118110000D03*
X194215000Y-118110000D03*
X189325000Y-118110000D03*
X185325000Y-118110000D03*
X180435000Y-118110000D03*
X176435000Y-118110000D03*
X171545000Y-118110000D03*
X167545000Y-118110000D03*
X163290000Y-118110000D03*
X159290000Y-118110000D03*
X154400000Y-118110000D03*
X150400000Y-118110000D03*
X145510000Y-118110000D03*
X141510000Y-118110000D03*
X135985000Y-118110000D03*
X131985000Y-118110000D03*
D20*
X149285000Y-105285000D03*
X151825000Y-105285000D03*
X153095000Y-105285000D03*
X154365000Y-105285000D03*
X155635000Y-105285000D03*
X156905000Y-105285000D03*
X158175000Y-105285000D03*
X158175000Y-111635000D03*
X156905000Y-111635000D03*
X155635000Y-111635000D03*
X154365000Y-111635000D03*
X153095000Y-111635000D03*
X151825000Y-111635000D03*
X150555000Y-111635000D03*
X149285000Y-111635000D03*
X150555000Y-105285000D03*
D25*
X131445000Y-69850000D03*
D26*
X136525000Y-62230000D03*
X133985000Y-69850000D03*
X133985000Y-62230000D03*
X136525000Y-69850000D03*
X131445000Y-62230000D03*
D25*
X140335000Y-69850000D03*
D26*
X145415000Y-62230000D03*
X142875000Y-69850000D03*
X142875000Y-62230000D03*
X145415000Y-69850000D03*
X140335000Y-62230000D03*
D25*
X149225000Y-69850000D03*
D26*
X154305000Y-62230000D03*
X151765000Y-69850000D03*
X151765000Y-62230000D03*
X154305000Y-69850000D03*
X149225000Y-62230000D03*
D25*
X158115000Y-69850000D03*
D26*
X163195000Y-62230000D03*
X160655000Y-69850000D03*
X160655000Y-62230000D03*
X163195000Y-69850000D03*
X158115000Y-62230000D03*
D25*
X167005000Y-69850000D03*
D26*
X172085000Y-62230000D03*
X169545000Y-69850000D03*
X169545000Y-62230000D03*
X172085000Y-69850000D03*
X167005000Y-62230000D03*
D25*
X175895000Y-69850000D03*
D26*
X180975000Y-62230000D03*
X178435000Y-69850000D03*
X178435000Y-62230000D03*
X180975000Y-69850000D03*
X175895000Y-62230000D03*
D25*
X184785000Y-69850000D03*
D26*
X189865000Y-62230000D03*
X187325000Y-69850000D03*
X187325000Y-62230000D03*
X189865000Y-69850000D03*
X184785000Y-62230000D03*
D25*
X193675000Y-69850000D03*
D26*
X198755000Y-62230000D03*
X196215000Y-69850000D03*
X196215000Y-62230000D03*
X198755000Y-69850000D03*
X193675000Y-62230000D03*
D25*
X198755000Y-121920000D03*
D26*
X193675000Y-129540000D03*
X196215000Y-121920000D03*
X196215000Y-129540000D03*
X193675000Y-121920000D03*
X198755000Y-129540000D03*
D25*
X189865000Y-121920000D03*
D26*
X184785000Y-129540000D03*
X187325000Y-121920000D03*
X187325000Y-129540000D03*
X184785000Y-121920000D03*
X189865000Y-129540000D03*
D25*
X180975000Y-121920000D03*
D26*
X175895000Y-129540000D03*
X178435000Y-121920000D03*
X178435000Y-129540000D03*
X175895000Y-121920000D03*
X180975000Y-129540000D03*
D25*
X172085000Y-121920000D03*
D26*
X167005000Y-129540000D03*
X169545000Y-121920000D03*
X169545000Y-129540000D03*
X167005000Y-121920000D03*
X172085000Y-129540000D03*
D25*
X163195000Y-121920000D03*
D26*
X158115000Y-129540000D03*
X160655000Y-121920000D03*
X160655000Y-129540000D03*
X158115000Y-121920000D03*
X163195000Y-129540000D03*
D25*
X154305000Y-121920000D03*
D26*
X149225000Y-129540000D03*
X151765000Y-121920000D03*
X151765000Y-129540000D03*
X149225000Y-121920000D03*
X154305000Y-129540000D03*
D25*
X145415000Y-121920000D03*
D26*
X140335000Y-129540000D03*
X142875000Y-121920000D03*
X142875000Y-129540000D03*
X140335000Y-121920000D03*
X145415000Y-129540000D03*
D25*
X136525000Y-121920000D03*
D26*
X131445000Y-129540000D03*
X133985000Y-121920000D03*
X133985000Y-129540000D03*
X131445000Y-121920000D03*
X136525000Y-129540000D03*
D13*
X132080000Y-140970000D03*
D14*
X137160000Y-140970000D03*
D27*
X153500000Y-88500000D03*
X147066000Y-109093000D03*
X158513000Y-98221000D03*
X181246000Y-99110000D03*
X182008000Y-97078000D03*
X162052000Y-100203000D03*
X152400000Y-90805000D03*
X154940000Y-107315000D03*
X159131000Y-94615000D03*
X154432000Y-104013000D03*
X156989000Y-93522000D03*
X198120000Y-99060000D03*
X155575000Y-93980000D03*
X148463000Y-88392000D03*
X151384000Y-103759000D03*
D28*
X153560000Y-86791000D02*
X153560000Y-88440000D01*
X153560000Y-88440000D02*
X153500000Y-88500000D01*
X148844000Y-109855000D02*
X147828000Y-109855000D01*
X147828000Y-109855000D02*
X147066000Y-109093000D01*
X158175000Y-111635000D02*
X158175000Y-110550000D01*
X157480000Y-109855000D02*
X148844000Y-109855000D01*
X158175000Y-110550000D02*
X157480000Y-109855000D01*
X161620000Y-95535000D02*
X164120000Y-95535000D01*
X164990000Y-94665000D02*
X170070000Y-94665000D01*
X164120000Y-95535000D02*
X164990000Y-94665000D01*
X153120000Y-96335000D02*
X156335000Y-96335000D01*
X156335000Y-96335000D02*
X157135000Y-95535000D01*
X161620000Y-95535000D02*
X157135000Y-95535000D01*
X157135000Y-95535000D02*
X156970000Y-95535000D01*
X156170000Y-94735000D02*
X153120000Y-94735000D01*
X156970000Y-95535000D02*
X156170000Y-94735000D01*
X170070000Y-99745000D02*
X170070000Y-102235000D01*
X170070000Y-102235000D02*
X170053000Y-102235000D01*
X205125000Y-87015000D02*
X203474000Y-87015000D01*
X159131000Y-102235000D02*
X158623000Y-101727000D01*
X188254000Y-102235000D02*
X170053000Y-102235000D01*
X170053000Y-102235000D02*
X159131000Y-102235000D01*
X203474000Y-87015000D02*
X188254000Y-102235000D01*
X158496000Y-101600000D02*
X151732000Y-101600000D01*
X142892000Y-92760000D02*
X151401000Y-101269000D01*
X151732000Y-101600000D02*
X151401000Y-101269000D01*
X158623000Y-101727000D02*
X158496000Y-101600000D01*
D29*
X141495000Y-85140000D02*
X142163000Y-85140000D01*
X143079000Y-92760000D02*
X141520000Y-92760000D01*
X143510000Y-92329000D02*
X143079000Y-92760000D01*
X143510000Y-86487000D02*
X143510000Y-92329000D01*
X142163000Y-85140000D02*
X143510000Y-86487000D01*
D28*
X153120000Y-97135000D02*
X151966000Y-97135000D01*
X151966000Y-97135000D02*
X150385000Y-95554000D01*
X141520000Y-92760000D02*
X142892000Y-92760000D01*
X142892000Y-92760000D02*
X145686000Y-95554000D01*
X145686000Y-95554000D02*
X150385000Y-95554000D01*
X150385000Y-95554000D02*
X153101000Y-95554000D01*
X153101000Y-95554000D02*
X153120000Y-95535000D01*
X158570000Y-100185000D02*
X158570000Y-98278000D01*
X158570000Y-98278000D02*
X158513000Y-98221000D01*
X181341000Y-99015000D02*
X185425000Y-99015000D01*
X181246000Y-99110000D02*
X181341000Y-99015000D01*
X159370000Y-100185000D02*
X159370000Y-101237000D01*
X164449700Y-101650000D02*
X164789400Y-101310300D01*
X159783000Y-101650000D02*
X164449700Y-101650000D01*
X159370000Y-101237000D02*
X159783000Y-101650000D01*
X185425000Y-97015000D02*
X182071000Y-97015000D01*
X182071000Y-97015000D02*
X182008000Y-97078000D01*
X168894700Y-97205000D02*
X164789400Y-101310300D01*
X170070000Y-97205000D02*
X168894700Y-97205000D01*
X160170000Y-100185000D02*
X162034000Y-100185000D01*
X162034000Y-100185000D02*
X162052000Y-100203000D01*
X172610000Y-99745000D02*
X175023000Y-99745000D01*
X179753000Y-95015000D02*
X185425000Y-95015000D01*
X175023000Y-99745000D02*
X179753000Y-95015000D01*
X161620000Y-98735000D02*
X164917000Y-98735000D01*
X164917000Y-98735000D02*
X167637600Y-96014400D01*
X177975300Y-93015000D02*
X173785300Y-97205000D01*
X185425000Y-93015000D02*
X177975300Y-93015000D01*
X172610000Y-97205000D02*
X173197700Y-97205000D01*
X173197700Y-97205000D02*
X173785300Y-97205000D01*
X172007100Y-96014400D02*
X167637600Y-96014400D01*
X173197700Y-97205000D02*
X172007100Y-96014400D01*
X151020000Y-87503000D02*
X151020000Y-88917000D01*
X151020000Y-88917000D02*
X152400000Y-90297000D01*
X152400000Y-90297000D02*
X159766000Y-90297000D01*
X160170000Y-91685000D02*
X160170000Y-90701000D01*
X159766000Y-90297000D02*
X160170000Y-90701000D01*
X155635000Y-105285000D02*
X155635000Y-106620000D01*
X152400000Y-90805000D02*
X152400000Y-90297000D01*
X155635000Y-106620000D02*
X154940000Y-107315000D01*
X151020000Y-87503000D02*
X151020000Y-86791000D01*
X160357000Y-93135000D02*
X161620000Y-93135000D01*
X159766000Y-93726000D02*
X160357000Y-93135000D01*
X159766000Y-93980000D02*
X159766000Y-93726000D01*
X159131000Y-94615000D02*
X159766000Y-93980000D01*
X154365000Y-105285000D02*
X154365000Y-104080000D01*
X154365000Y-104080000D02*
X154432000Y-104013000D01*
X152290000Y-86791000D02*
X152290000Y-89171000D01*
X161620000Y-91262000D02*
X161620000Y-93135000D01*
X160020000Y-89662000D02*
X161620000Y-91262000D01*
X152290000Y-89171000D02*
X152781000Y-89662000D01*
X152781000Y-89662000D02*
X160020000Y-89662000D01*
X154830000Y-86791000D02*
X154830000Y-88409000D01*
X155321000Y-88900000D02*
X160528000Y-88900000D01*
X154830000Y-88409000D02*
X155321000Y-88900000D01*
X160528000Y-88900000D02*
X163068000Y-91440000D01*
X161620000Y-93935000D02*
X162605000Y-93935000D01*
X162605000Y-93935000D02*
X163068000Y-93472000D01*
X163068000Y-93472000D02*
X163068000Y-91440000D01*
X156970000Y-93503000D02*
X156970000Y-91685000D01*
X156989000Y-93522000D02*
X156970000Y-93503000D01*
X156989000Y-91666000D02*
X156970000Y-91685000D01*
X154570000Y-91685000D02*
X154570000Y-92975000D01*
X198165000Y-99015000D02*
X205125000Y-99015000D01*
X198120000Y-99060000D02*
X198165000Y-99015000D01*
X154570000Y-92975000D02*
X155575000Y-93980000D01*
D29*
X156905000Y-105285000D02*
X156905000Y-104200000D01*
X156905000Y-104200000D02*
X155321000Y-102616000D01*
X146351000Y-103331000D02*
X146859000Y-103331000D01*
X146859000Y-103331000D02*
X147574000Y-102616000D01*
X147574000Y-102616000D02*
X155321000Y-102616000D01*
X157370000Y-86791000D02*
X157370000Y-85234000D01*
X156972000Y-84836000D02*
X149750000Y-84836000D01*
X157370000Y-85234000D02*
X156972000Y-84836000D01*
X149285000Y-105285000D02*
X148305000Y-105285000D01*
X148305000Y-105285000D02*
X146351000Y-103331000D01*
X146351000Y-103331000D02*
X142130000Y-99110000D01*
X133875000Y-95300000D02*
X132257000Y-95300000D01*
X132257000Y-95300000D02*
X131318000Y-94361000D01*
X131318000Y-94361000D02*
X131318000Y-88011000D01*
X131318000Y-88011000D02*
X136398000Y-82931000D01*
X136398000Y-82931000D02*
X148082000Y-82931000D01*
X148082000Y-82931000D02*
X149750000Y-84599000D01*
X149750000Y-84599000D02*
X149750000Y-84836000D01*
X149750000Y-84836000D02*
X149750000Y-86791000D01*
X141520000Y-95060000D02*
X141520000Y-95810100D01*
X142130000Y-99110000D02*
X142130000Y-97709700D01*
X142130000Y-97709700D02*
X141520000Y-97099700D01*
X141520000Y-97099700D02*
X141520000Y-95810100D01*
X134385100Y-95810100D02*
X133875000Y-95300000D01*
X141520000Y-95810100D02*
X134385100Y-95810100D01*
X180865000Y-88950000D02*
X185360000Y-88950000D01*
X185360000Y-88950000D02*
X185425000Y-89015000D01*
X131445000Y-59435000D02*
X131445000Y-62230000D01*
X136500000Y-135650000D02*
X198740000Y-135650000D01*
X198740000Y-135650000D02*
X198755000Y-135635000D01*
X136500000Y-135650000D02*
X136500000Y-140310000D01*
X136500000Y-140310000D02*
X137160000Y-140970000D01*
X132080000Y-140970000D02*
X137160000Y-140970000D01*
X131445000Y-56135000D02*
X193675000Y-56135000D01*
X137050000Y-50850000D02*
X131970000Y-50850000D01*
X131970000Y-50850000D02*
X131445000Y-51375000D01*
X131445000Y-51375000D02*
X131445000Y-56135000D01*
D28*
X131445000Y-56135000D02*
X131445000Y-51375000D01*
X131445000Y-51375000D02*
X131970000Y-50850000D01*
X158115000Y-56135000D02*
X167005000Y-56135000D01*
X167005000Y-56135000D02*
X175895000Y-56135000D01*
X175895000Y-56135000D02*
X184785000Y-56135000D01*
X184785000Y-56135000D02*
X193675000Y-56135000D01*
X131445000Y-56135000D02*
X140335000Y-56135000D01*
X140335000Y-56135000D02*
X149225000Y-56135000D01*
X149225000Y-56135000D02*
X158115000Y-56135000D01*
X136500000Y-135650000D02*
X137160000Y-135650000D01*
X137160000Y-135650000D02*
X145400000Y-135650000D01*
X145400000Y-135650000D02*
X145415000Y-135635000D01*
X189865000Y-135635000D02*
X198755000Y-135635000D01*
X180975000Y-135635000D02*
X189865000Y-135635000D01*
X172085000Y-135635000D02*
X180975000Y-135635000D01*
X163195000Y-135635000D02*
X172085000Y-135635000D01*
X154305000Y-135635000D02*
X163195000Y-135635000D01*
X145415000Y-135635000D02*
X154305000Y-135635000D01*
D29*
X140335000Y-59435000D02*
X140335000Y-62230000D01*
X149225000Y-59435000D02*
X149225000Y-62230000D01*
X158115000Y-59435000D02*
X158115000Y-62230000D01*
X167005000Y-59435000D02*
X167005000Y-62230000D01*
X175895000Y-59435000D02*
X175895000Y-62230000D01*
X184785000Y-59435000D02*
X184785000Y-62230000D01*
X193675000Y-59435000D02*
X193675000Y-62230000D01*
X198755000Y-132335000D02*
X198755000Y-129540000D01*
X189865000Y-129540000D02*
X189865000Y-132335000D01*
X180975000Y-129540000D02*
X180975000Y-132335000D01*
X172085000Y-129540000D02*
X172085000Y-132335000D01*
X163195000Y-129540000D02*
X163195000Y-132335000D01*
X154305000Y-129540000D02*
X154305000Y-132335000D01*
X145415000Y-129540000D02*
X145415000Y-132335000D01*
X136525000Y-129540000D02*
X136525000Y-132325000D01*
X136525000Y-132325000D02*
X136500000Y-132350000D01*
D28*
X136500000Y-132350000D02*
X136500000Y-129565000D01*
X136500000Y-129565000D02*
X136525000Y-129540000D01*
X131445000Y-69850000D02*
X131445000Y-73565000D01*
X131445000Y-73565000D02*
X131350000Y-73660000D01*
X135350000Y-73660000D02*
X135350000Y-74390000D01*
X135350000Y-74390000D02*
X138430000Y-77470000D01*
X149750000Y-80441000D02*
X149750000Y-79265000D01*
X147955000Y-77470000D02*
X138430000Y-77470000D01*
X149750000Y-79265000D02*
X147955000Y-77470000D01*
X140335000Y-69850000D02*
X140335000Y-73565000D01*
X140335000Y-73565000D02*
X140240000Y-73660000D01*
X144240000Y-73660000D02*
X144780000Y-73660000D01*
X144780000Y-73660000D02*
X147320000Y-76200000D01*
X151020000Y-80441000D02*
X151020000Y-78630000D01*
X148590000Y-76200000D02*
X147320000Y-76200000D01*
X151020000Y-78630000D02*
X148590000Y-76200000D01*
X149225000Y-69850000D02*
X149225000Y-73565000D01*
X149225000Y-73565000D02*
X149130000Y-73660000D01*
X158115000Y-69850000D02*
X158115000Y-73120000D01*
X158115000Y-73120000D02*
X158655000Y-73660000D01*
X167005000Y-69850000D02*
X167005000Y-73120000D01*
X167005000Y-73120000D02*
X167545000Y-73660000D01*
X175895000Y-69850000D02*
X175895000Y-73120000D01*
X175895000Y-73120000D02*
X176435000Y-73660000D01*
X184785000Y-69850000D02*
X184785000Y-73120000D01*
X184785000Y-73120000D02*
X185325000Y-73660000D01*
X193675000Y-69850000D02*
X193675000Y-73120000D01*
X193675000Y-73120000D02*
X194215000Y-73660000D01*
X198755000Y-121920000D02*
X198755000Y-118650000D01*
X198755000Y-118650000D02*
X198215000Y-118110000D01*
X189865000Y-121920000D02*
X189865000Y-118650000D01*
X189865000Y-118650000D02*
X189325000Y-118110000D01*
X180975000Y-121920000D02*
X180975000Y-118650000D01*
X180975000Y-118650000D02*
X180435000Y-118110000D01*
X172085000Y-121920000D02*
X172085000Y-118650000D01*
X172085000Y-118650000D02*
X171545000Y-118110000D01*
X163195000Y-121920000D02*
X163195000Y-118205000D01*
X163195000Y-118205000D02*
X163290000Y-118110000D01*
X154305000Y-121920000D02*
X154305000Y-118205000D01*
X154305000Y-118205000D02*
X154400000Y-118110000D01*
X145415000Y-121920000D02*
X145415000Y-118205000D01*
X145415000Y-118205000D02*
X145510000Y-118110000D01*
X136525000Y-121920000D02*
X136525000Y-118650000D01*
X136525000Y-118650000D02*
X135985000Y-118110000D01*
X148480000Y-86791000D02*
X148480000Y-88375000D01*
X148480000Y-88375000D02*
X148463000Y-88392000D01*
X151825000Y-105285000D02*
X151825000Y-104200000D01*
X151825000Y-104200000D02*
X151384000Y-103759000D01*
X151765000Y-105225000D02*
X151825000Y-105285000D01*
X153130000Y-73660000D02*
X153130000Y-76105000D01*
X152290000Y-76945000D02*
X152290000Y-80441000D01*
X153130000Y-76105000D02*
X152290000Y-76945000D01*
X153560000Y-80441000D02*
X153560000Y-77580000D01*
X153560000Y-77580000D02*
X154940000Y-76200000D01*
X153670000Y-80331000D02*
X153560000Y-80441000D01*
X160020000Y-76200000D02*
X154940000Y-76200000D01*
X162560000Y-73660000D02*
X160020000Y-76200000D01*
X162655000Y-73660000D02*
X162560000Y-73660000D01*
X171545000Y-73660000D02*
X171545000Y-74200000D01*
X171545000Y-74200000D02*
X168275000Y-77470000D01*
X154830000Y-80441000D02*
X154830000Y-78215000D01*
X155575000Y-77470000D02*
X168275000Y-77470000D01*
X154830000Y-78215000D02*
X155575000Y-77470000D01*
X180435000Y-73660000D02*
X180340000Y-73660000D01*
X180340000Y-73660000D02*
X175260000Y-78740000D01*
X156100000Y-80441000D02*
X156100000Y-79485000D01*
X156845000Y-78740000D02*
X175260000Y-78740000D01*
X156100000Y-79485000D02*
X156845000Y-78740000D01*
X189325000Y-73660000D02*
X189325000Y-74200000D01*
X189325000Y-74200000D02*
X183084000Y-80441000D01*
X183084000Y-80441000D02*
X157370000Y-80441000D01*
X198215000Y-73660000D02*
X197739000Y-73660000D01*
X197739000Y-73660000D02*
X187579000Y-83820000D01*
X156100000Y-86791000D02*
X156100000Y-88028000D01*
X167767000Y-88392000D02*
X172339000Y-83820000D01*
X156464000Y-88392000D02*
X167767000Y-88392000D01*
X156100000Y-88028000D02*
X156464000Y-88392000D01*
X172339000Y-83820000D02*
X187579000Y-83820000D01*
X194215000Y-118110000D02*
X194183000Y-118110000D01*
X194183000Y-118110000D02*
X189103000Y-113030000D01*
X156905000Y-111635000D02*
X156905000Y-112455000D01*
X157480000Y-113030000D02*
X189103000Y-113030000D01*
X156905000Y-112455000D02*
X157480000Y-113030000D01*
X185325000Y-118110000D02*
X185293000Y-118110000D01*
X185293000Y-118110000D02*
X180848000Y-113665000D01*
X180848000Y-113665000D02*
X156210000Y-113665000D01*
X155635000Y-111635000D02*
X155635000Y-113090000D01*
X155635000Y-113090000D02*
X156210000Y-113665000D01*
X176435000Y-118110000D02*
X175387000Y-118110000D01*
X175387000Y-118110000D02*
X171577000Y-114300000D01*
X154365000Y-113030000D02*
X154365000Y-113090000D01*
X154365000Y-111635000D02*
X154365000Y-113030000D01*
X154365000Y-113090000D02*
X155575000Y-114300000D01*
X155575000Y-114300000D02*
X171577000Y-114300000D01*
X167545000Y-118110000D02*
X167386000Y-118110000D01*
X167386000Y-118110000D02*
X164211000Y-114935000D01*
X164211000Y-114935000D02*
X154305000Y-114935000D01*
X153095000Y-111635000D02*
X153095000Y-113725000D01*
X153095000Y-113725000D02*
X154305000Y-114935000D01*
X157385000Y-116205000D02*
X159290000Y-118110000D01*
X153670000Y-116205000D02*
X157385000Y-116205000D01*
X151825000Y-111635000D02*
X151825000Y-114360000D01*
X151825000Y-114360000D02*
X153670000Y-116205000D01*
X150555000Y-111635000D02*
X150555000Y-117955000D01*
X150555000Y-117955000D02*
X150400000Y-118110000D01*
X141510000Y-118110000D02*
X141859000Y-118110000D01*
X141859000Y-118110000D02*
X148334000Y-111635000D01*
X149285000Y-111635000D02*
X148334000Y-111635000D01*
X131985000Y-118110000D02*
X132080000Y-118110000D01*
X132080000Y-118110000D02*
X136144000Y-114046000D01*
X143510000Y-106680000D02*
X147955000Y-106680000D01*
X136144000Y-114046000D02*
X143510000Y-106680000D01*
X149479000Y-106680000D02*
X147955000Y-106680000D01*
X150555000Y-105985000D02*
X150555000Y-105285000D01*
X149860000Y-106680000D02*
X150555000Y-105985000D01*
X149479000Y-106680000D02*
X149860000Y-106680000D01*
D30*
G36*
X138887560Y-71050000D02*
X138931838Y-71285317D01*
X139070910Y-71501441D01*
X139283110Y-71646431D01*
X139535000Y-71697440D01*
X139575000Y-71697440D01*
X139575000Y-72162560D01*
X139240000Y-72162560D01*
X139004683Y-72206838D01*
X138788559Y-72345910D01*
X138643569Y-72558110D01*
X138592560Y-72810000D01*
X138592560Y-74510000D01*
X138636838Y-74745317D01*
X138775910Y-74961441D01*
X138988110Y-75106431D01*
X139240000Y-75157440D01*
X141240000Y-75157440D01*
X141475317Y-75113162D01*
X141691441Y-74974090D01*
X141836431Y-74761890D01*
X141887440Y-74510000D01*
X141887440Y-72810000D01*
X141843162Y-72574683D01*
X141704090Y-72358559D01*
X141491890Y-72213569D01*
X141240000Y-72162560D01*
X141095000Y-72162560D01*
X141095000Y-71697440D01*
X141135000Y-71697440D01*
X141370317Y-71653162D01*
X141586441Y-71514090D01*
X141731431Y-71301890D01*
X141766906Y-71126709D01*
X141950104Y-71354500D01*
X142443181Y-71624367D01*
X142525961Y-71641904D01*
X142748000Y-71519915D01*
X142748000Y-69977000D01*
X142728000Y-69977000D01*
X142728000Y-69723000D01*
X142748000Y-69723000D01*
X142748000Y-69703000D01*
X143002000Y-69703000D01*
X143002000Y-69723000D01*
X143022000Y-69723000D01*
X143022000Y-69977000D01*
X143002000Y-69977000D01*
X143002000Y-71519915D01*
X143224039Y-71641904D01*
X143306819Y-71624367D01*
X143799896Y-71354500D01*
X144147493Y-70922293D01*
X144400302Y-71300648D01*
X144865849Y-71611717D01*
X145415000Y-71720950D01*
X145964151Y-71611717D01*
X146429698Y-71300648D01*
X146740767Y-70835101D01*
X146850000Y-70285950D01*
X146850000Y-69414050D01*
X146792902Y-69127000D01*
X147777560Y-69127000D01*
X147777560Y-71050000D01*
X147821838Y-71285317D01*
X147960910Y-71501441D01*
X148173110Y-71646431D01*
X148425000Y-71697440D01*
X148465000Y-71697440D01*
X148465000Y-72162560D01*
X148130000Y-72162560D01*
X147894683Y-72206838D01*
X147678559Y-72345910D01*
X147533569Y-72558110D01*
X147482560Y-72810000D01*
X147482560Y-74510000D01*
X147526838Y-74745317D01*
X147665910Y-74961441D01*
X147878110Y-75106431D01*
X148130000Y-75157440D01*
X150130000Y-75157440D01*
X150365317Y-75113162D01*
X150581441Y-74974090D01*
X150726431Y-74761890D01*
X150777440Y-74510000D01*
X150777440Y-72810000D01*
X150733162Y-72574683D01*
X150594090Y-72358559D01*
X150381890Y-72213569D01*
X150130000Y-72162560D01*
X149985000Y-72162560D01*
X149985000Y-71697440D01*
X150025000Y-71697440D01*
X150260317Y-71653162D01*
X150476441Y-71514090D01*
X150621431Y-71301890D01*
X150656906Y-71126709D01*
X150840104Y-71354500D01*
X151333181Y-71624367D01*
X151415961Y-71641904D01*
X151638000Y-71519915D01*
X151638000Y-69977000D01*
X151618000Y-69977000D01*
X151618000Y-69723000D01*
X151638000Y-69723000D01*
X151638000Y-69703000D01*
X151892000Y-69703000D01*
X151892000Y-69723000D01*
X151912000Y-69723000D01*
X151912000Y-69977000D01*
X151892000Y-69977000D01*
X151892000Y-71519915D01*
X152114039Y-71641904D01*
X152196819Y-71624367D01*
X152689896Y-71354500D01*
X153037493Y-70922293D01*
X153290302Y-71300648D01*
X153755849Y-71611717D01*
X154305000Y-71720950D01*
X154854151Y-71611717D01*
X155319698Y-71300648D01*
X155630767Y-70835101D01*
X155740000Y-70285950D01*
X155740000Y-69414050D01*
X155682902Y-69127000D01*
X156667560Y-69127000D01*
X156667560Y-71050000D01*
X156711838Y-71285317D01*
X156850910Y-71501441D01*
X157063110Y-71646431D01*
X157315000Y-71697440D01*
X157355000Y-71697440D01*
X157355000Y-72248460D01*
X157203559Y-72345910D01*
X157058569Y-72558110D01*
X157007560Y-72810000D01*
X157007560Y-74510000D01*
X157051838Y-74745317D01*
X157190910Y-74961441D01*
X157403110Y-75106431D01*
X157655000Y-75157440D01*
X159655000Y-75157440D01*
X159890317Y-75113162D01*
X160106441Y-74974090D01*
X160251431Y-74761890D01*
X160302440Y-74510000D01*
X160302440Y-72810000D01*
X160258162Y-72574683D01*
X160119090Y-72358559D01*
X159906890Y-72213569D01*
X159655000Y-72162560D01*
X158875000Y-72162560D01*
X158875000Y-71697440D01*
X158915000Y-71697440D01*
X159150317Y-71653162D01*
X159366441Y-71514090D01*
X159511431Y-71301890D01*
X159546906Y-71126709D01*
X159730104Y-71354500D01*
X160223181Y-71624367D01*
X160305961Y-71641904D01*
X160528000Y-71519915D01*
X160528000Y-69977000D01*
X160508000Y-69977000D01*
X160508000Y-69723000D01*
X160528000Y-69723000D01*
X160528000Y-69703000D01*
X160782000Y-69703000D01*
X160782000Y-69723000D01*
X160802000Y-69723000D01*
X160802000Y-69977000D01*
X160782000Y-69977000D01*
X160782000Y-71519915D01*
X161004039Y-71641904D01*
X161086819Y-71624367D01*
X161579896Y-71354500D01*
X161927493Y-70922293D01*
X162180302Y-71300648D01*
X162645849Y-71611717D01*
X163195000Y-71720950D01*
X163744151Y-71611717D01*
X164209698Y-71300648D01*
X164520767Y-70835101D01*
X164630000Y-70285950D01*
X164630000Y-69414050D01*
X164572902Y-69127000D01*
X165557560Y-69127000D01*
X165557560Y-71050000D01*
X165601838Y-71285317D01*
X165740910Y-71501441D01*
X165953110Y-71646431D01*
X166205000Y-71697440D01*
X166245000Y-71697440D01*
X166245000Y-72248460D01*
X166093559Y-72345910D01*
X165948569Y-72558110D01*
X165897560Y-72810000D01*
X165897560Y-74510000D01*
X165941838Y-74745317D01*
X166080910Y-74961441D01*
X166293110Y-75106431D01*
X166545000Y-75157440D01*
X168545000Y-75157440D01*
X168780317Y-75113162D01*
X168996441Y-74974090D01*
X169141431Y-74761890D01*
X169192440Y-74510000D01*
X169192440Y-72810000D01*
X169148162Y-72574683D01*
X169009090Y-72358559D01*
X168796890Y-72213569D01*
X168545000Y-72162560D01*
X167765000Y-72162560D01*
X167765000Y-71697440D01*
X167805000Y-71697440D01*
X168040317Y-71653162D01*
X168256441Y-71514090D01*
X168401431Y-71301890D01*
X168436906Y-71126709D01*
X168620104Y-71354500D01*
X169113181Y-71624367D01*
X169195961Y-71641904D01*
X169418000Y-71519915D01*
X169418000Y-69977000D01*
X169398000Y-69977000D01*
X169398000Y-69723000D01*
X169418000Y-69723000D01*
X169418000Y-69703000D01*
X169672000Y-69703000D01*
X169672000Y-69723000D01*
X169692000Y-69723000D01*
X169692000Y-69977000D01*
X169672000Y-69977000D01*
X169672000Y-71519915D01*
X169894039Y-71641904D01*
X169976819Y-71624367D01*
X170469896Y-71354500D01*
X170817493Y-70922293D01*
X171070302Y-71300648D01*
X171535849Y-71611717D01*
X172085000Y-71720950D01*
X172634151Y-71611717D01*
X173099698Y-71300648D01*
X173410767Y-70835101D01*
X173520000Y-70285950D01*
X173520000Y-69414050D01*
X173462902Y-69127000D01*
X174447560Y-69127000D01*
X174447560Y-71050000D01*
X174491838Y-71285317D01*
X174630910Y-71501441D01*
X174843110Y-71646431D01*
X175095000Y-71697440D01*
X175135000Y-71697440D01*
X175135000Y-72248460D01*
X174983559Y-72345910D01*
X174838569Y-72558110D01*
X174787560Y-72810000D01*
X174787560Y-74510000D01*
X174831838Y-74745317D01*
X174970910Y-74961441D01*
X175183110Y-75106431D01*
X175435000Y-75157440D01*
X177435000Y-75157440D01*
X177670317Y-75113162D01*
X177886441Y-74974090D01*
X178031431Y-74761890D01*
X178082440Y-74510000D01*
X178082440Y-72810000D01*
X178038162Y-72574683D01*
X177899090Y-72358559D01*
X177686890Y-72213569D01*
X177435000Y-72162560D01*
X176655000Y-72162560D01*
X176655000Y-71697440D01*
X176695000Y-71697440D01*
X176930317Y-71653162D01*
X177146441Y-71514090D01*
X177291431Y-71301890D01*
X177326906Y-71126709D01*
X177510104Y-71354500D01*
X178003181Y-71624367D01*
X178085961Y-71641904D01*
X178308000Y-71519915D01*
X178308000Y-69977000D01*
X178288000Y-69977000D01*
X178288000Y-69723000D01*
X178308000Y-69723000D01*
X178308000Y-69703000D01*
X178562000Y-69703000D01*
X178562000Y-69723000D01*
X178582000Y-69723000D01*
X178582000Y-69977000D01*
X178562000Y-69977000D01*
X178562000Y-71519915D01*
X178784039Y-71641904D01*
X178866819Y-71624367D01*
X179359896Y-71354500D01*
X179707493Y-70922293D01*
X179960302Y-71300648D01*
X180425849Y-71611717D01*
X180975000Y-71720950D01*
X181524151Y-71611717D01*
X181989698Y-71300648D01*
X182300767Y-70835101D01*
X182410000Y-70285950D01*
X182410000Y-69414050D01*
X182352902Y-69127000D01*
X183337560Y-69127000D01*
X183337560Y-71050000D01*
X183381838Y-71285317D01*
X183520910Y-71501441D01*
X183733110Y-71646431D01*
X183985000Y-71697440D01*
X184025000Y-71697440D01*
X184025000Y-72248460D01*
X183873559Y-72345910D01*
X183728569Y-72558110D01*
X183677560Y-72810000D01*
X183677560Y-74510000D01*
X183721838Y-74745317D01*
X183860910Y-74961441D01*
X184073110Y-75106431D01*
X184325000Y-75157440D01*
X186325000Y-75157440D01*
X186560317Y-75113162D01*
X186776441Y-74974090D01*
X186921431Y-74761890D01*
X186972440Y-74510000D01*
X186972440Y-72810000D01*
X186928162Y-72574683D01*
X186789090Y-72358559D01*
X186576890Y-72213569D01*
X186325000Y-72162560D01*
X185545000Y-72162560D01*
X185545000Y-71697440D01*
X185585000Y-71697440D01*
X185820317Y-71653162D01*
X186036441Y-71514090D01*
X186181431Y-71301890D01*
X186216906Y-71126709D01*
X186400104Y-71354500D01*
X186893181Y-71624367D01*
X186975961Y-71641904D01*
X187198000Y-71519915D01*
X187198000Y-69977000D01*
X187178000Y-69977000D01*
X187178000Y-69723000D01*
X187198000Y-69723000D01*
X187198000Y-69703000D01*
X187452000Y-69703000D01*
X187452000Y-69723000D01*
X187472000Y-69723000D01*
X187472000Y-69977000D01*
X187452000Y-69977000D01*
X187452000Y-71519915D01*
X187674039Y-71641904D01*
X187756819Y-71624367D01*
X188249896Y-71354500D01*
X188597493Y-70922293D01*
X188850302Y-71300648D01*
X189315849Y-71611717D01*
X189865000Y-71720950D01*
X190414151Y-71611717D01*
X190879698Y-71300648D01*
X191190767Y-70835101D01*
X191300000Y-70285950D01*
X191300000Y-69414050D01*
X191242902Y-69127000D01*
X192227560Y-69127000D01*
X192227560Y-71050000D01*
X192271838Y-71285317D01*
X192410910Y-71501441D01*
X192623110Y-71646431D01*
X192875000Y-71697440D01*
X192915000Y-71697440D01*
X192915000Y-72248460D01*
X192763559Y-72345910D01*
X192618569Y-72558110D01*
X192567560Y-72810000D01*
X192567560Y-74510000D01*
X192611838Y-74745317D01*
X192750910Y-74961441D01*
X192963110Y-75106431D01*
X193215000Y-75157440D01*
X195166758Y-75157440D01*
X187264198Y-83060000D01*
X172339000Y-83060000D01*
X172096414Y-83108254D01*
X172048160Y-83117852D01*
X171801599Y-83282599D01*
X167452198Y-87632000D01*
X158208399Y-87632000D01*
X158220431Y-87614390D01*
X158271440Y-87362500D01*
X158271440Y-86219500D01*
X158255000Y-86132129D01*
X158255000Y-85234005D01*
X158255001Y-85234000D01*
X158187633Y-84895326D01*
X158187633Y-84895325D01*
X157995790Y-84608210D01*
X157995787Y-84608208D01*
X157597790Y-84210210D01*
X157449071Y-84110840D01*
X157310675Y-84018367D01*
X157254484Y-84007190D01*
X156972000Y-83950999D01*
X156971995Y-83951000D01*
X150353579Y-83951000D01*
X148707790Y-82305210D01*
X148420675Y-82113367D01*
X148364484Y-82102190D01*
X148082000Y-82045999D01*
X148081995Y-82046000D01*
X136398005Y-82046000D01*
X136398000Y-82045999D01*
X136115516Y-82102190D01*
X136059325Y-82113367D01*
X135772210Y-82305210D01*
X135772208Y-82305213D01*
X130692210Y-87385210D01*
X130500367Y-87672325D01*
X130500367Y-87672326D01*
X130432999Y-88011000D01*
X130433000Y-88011005D01*
X130433000Y-94360995D01*
X130432999Y-94361000D01*
X130483039Y-94612560D01*
X130500367Y-94699675D01*
X130649410Y-94922735D01*
X130692210Y-94986790D01*
X131631208Y-95925787D01*
X131631210Y-95925790D01*
X131763825Y-96014400D01*
X131918326Y-96117634D01*
X132172519Y-96168196D01*
X132259078Y-96377686D01*
X132794495Y-96914039D01*
X133494410Y-97204668D01*
X134252265Y-97205330D01*
X134952686Y-96915922D01*
X135173894Y-96695100D01*
X140635000Y-96695100D01*
X140635000Y-97099695D01*
X140634999Y-97099700D01*
X140676004Y-97305839D01*
X140702367Y-97438375D01*
X140870946Y-97690673D01*
X140894210Y-97725490D01*
X141111354Y-97942633D01*
X141028559Y-97995910D01*
X140883569Y-98208110D01*
X140832560Y-98460000D01*
X140832560Y-98622385D01*
X140759611Y-98446271D01*
X140529016Y-98390590D01*
X139809605Y-99110000D01*
X140529016Y-99829410D01*
X140759611Y-99773729D01*
X140832560Y-99564098D01*
X140832560Y-99760000D01*
X140876838Y-99995317D01*
X141015910Y-100211441D01*
X141228110Y-100356431D01*
X141480000Y-100407440D01*
X142175860Y-100407440D01*
X145725208Y-103956787D01*
X145725210Y-103956790D01*
X147679208Y-105910787D01*
X147679210Y-105910790D01*
X147692994Y-105920000D01*
X143510000Y-105920000D01*
X143219161Y-105977852D01*
X142972599Y-106142599D01*
X132502638Y-116612560D01*
X130985000Y-116612560D01*
X130749683Y-116656838D01*
X130533559Y-116795910D01*
X130388569Y-117008110D01*
X130337560Y-117260000D01*
X130337560Y-118960000D01*
X130381838Y-119195317D01*
X130520910Y-119411441D01*
X130733110Y-119556431D01*
X130985000Y-119607440D01*
X132985000Y-119607440D01*
X133220317Y-119563162D01*
X133436441Y-119424090D01*
X133581431Y-119211890D01*
X133632440Y-118960000D01*
X133632440Y-117632362D01*
X143824802Y-107440000D01*
X149860000Y-107440000D01*
X150150839Y-107382148D01*
X150397401Y-107217401D01*
X151092401Y-106522401D01*
X151195331Y-106368356D01*
X151319110Y-106452931D01*
X151571000Y-106503940D01*
X152079000Y-106503940D01*
X152314317Y-106459662D01*
X152455371Y-106368896D01*
X152481302Y-106394827D01*
X152714691Y-106491500D01*
X152809250Y-106491500D01*
X152968000Y-106332750D01*
X152968000Y-105412000D01*
X152948000Y-105412000D01*
X152948000Y-105158000D01*
X152968000Y-105158000D01*
X152968000Y-104237250D01*
X152809250Y-104078500D01*
X152714691Y-104078500D01*
X152572544Y-104137379D01*
X152560832Y-104078500D01*
X152527148Y-103909160D01*
X152362401Y-103662599D01*
X152319122Y-103619320D01*
X152319162Y-103573833D01*
X152289068Y-103501000D01*
X153632198Y-103501000D01*
X153497162Y-103826201D01*
X153496934Y-104087458D01*
X153475309Y-104078500D01*
X153380750Y-104078500D01*
X153222000Y-104237250D01*
X153222000Y-105158000D01*
X153242000Y-105158000D01*
X153242000Y-105412000D01*
X153222000Y-105412000D01*
X153222000Y-106332750D01*
X153380750Y-106491500D01*
X153475309Y-106491500D01*
X153708698Y-106394827D01*
X153735235Y-106368291D01*
X153859110Y-106452931D01*
X154111000Y-106503940D01*
X154454482Y-106503940D01*
X154411057Y-106521883D01*
X154147808Y-106784673D01*
X154005162Y-107128201D01*
X154004838Y-107500167D01*
X154146883Y-107843943D01*
X154409673Y-108107192D01*
X154753201Y-108249838D01*
X155125167Y-108250162D01*
X155468943Y-108108117D01*
X155732192Y-107845327D01*
X155874838Y-107501799D01*
X155874879Y-107454923D01*
X156172401Y-107157401D01*
X156337148Y-106910840D01*
X156363651Y-106777599D01*
X156395000Y-106620000D01*
X156395000Y-106450123D01*
X156399110Y-106452931D01*
X156651000Y-106503940D01*
X157159000Y-106503940D01*
X157394317Y-106459662D01*
X157540907Y-106365334D01*
X157669110Y-106452931D01*
X157921000Y-106503940D01*
X158429000Y-106503940D01*
X158664317Y-106459662D01*
X158880441Y-106320590D01*
X159025431Y-106108390D01*
X159076440Y-105856500D01*
X159076440Y-104713500D01*
X159032162Y-104478183D01*
X158893090Y-104262059D01*
X158680890Y-104117069D01*
X158429000Y-104066060D01*
X157921000Y-104066060D01*
X157769046Y-104094652D01*
X157722633Y-103861325D01*
X157594577Y-103669675D01*
X157530790Y-103574210D01*
X157530787Y-103574208D01*
X156316580Y-102360000D01*
X158181198Y-102360000D01*
X158593599Y-102772401D01*
X158840161Y-102937148D01*
X159131000Y-102995000D01*
X188254000Y-102995000D01*
X188544839Y-102937148D01*
X188791401Y-102772401D01*
X202977560Y-88586242D01*
X202977560Y-89615000D01*
X203021838Y-89850317D01*
X203128759Y-90016477D01*
X203028569Y-90163110D01*
X202977560Y-90415000D01*
X202977560Y-91615000D01*
X203021838Y-91850317D01*
X203128759Y-92016477D01*
X203028569Y-92163110D01*
X202977560Y-92415000D01*
X202977560Y-93615000D01*
X203021838Y-93850317D01*
X203128759Y-94016477D01*
X203028569Y-94163110D01*
X202977560Y-94415000D01*
X202977560Y-95615000D01*
X203021838Y-95850317D01*
X203128759Y-96016477D01*
X203028569Y-96163110D01*
X202977560Y-96415000D01*
X202977560Y-97615000D01*
X203021838Y-97850317D01*
X203128759Y-98016477D01*
X203028569Y-98163110D01*
X203009961Y-98255000D01*
X198619482Y-98255000D01*
X198306799Y-98125162D01*
X197934833Y-98124838D01*
X197591057Y-98266883D01*
X197327808Y-98529673D01*
X197185162Y-98873201D01*
X197184838Y-99245167D01*
X197326883Y-99588943D01*
X197589673Y-99852192D01*
X197933201Y-99994838D01*
X198305167Y-99995162D01*
X198648943Y-99853117D01*
X198727196Y-99775000D01*
X203007666Y-99775000D01*
X203021838Y-99850317D01*
X203128759Y-100016477D01*
X203028569Y-100163110D01*
X202977560Y-100415000D01*
X202977560Y-101615000D01*
X203021838Y-101850317D01*
X203160910Y-102066441D01*
X203373110Y-102211431D01*
X203625000Y-102262440D01*
X206625000Y-102262440D01*
X206860317Y-102218162D01*
X207076441Y-102079090D01*
X207221431Y-101866890D01*
X207272440Y-101615000D01*
X207272440Y-100415000D01*
X207228162Y-100179683D01*
X207121241Y-100013523D01*
X207221431Y-99866890D01*
X207272440Y-99615000D01*
X207272440Y-98415000D01*
X207228162Y-98179683D01*
X207121241Y-98013523D01*
X207221431Y-97866890D01*
X207272440Y-97615000D01*
X207272440Y-96415000D01*
X207228162Y-96179683D01*
X207121241Y-96013523D01*
X207221431Y-95866890D01*
X207272440Y-95615000D01*
X207272440Y-94415000D01*
X207228162Y-94179683D01*
X207121241Y-94013523D01*
X207221431Y-93866890D01*
X207272440Y-93615000D01*
X207272440Y-92415000D01*
X207228162Y-92179683D01*
X207121241Y-92013523D01*
X207221431Y-91866890D01*
X207272440Y-91615000D01*
X207272440Y-90415000D01*
X207228162Y-90179683D01*
X207121241Y-90013523D01*
X207221431Y-89866890D01*
X207272440Y-89615000D01*
X207272440Y-88415000D01*
X207228162Y-88179683D01*
X207121241Y-88013523D01*
X207221431Y-87866890D01*
X207272440Y-87615000D01*
X207272440Y-86415000D01*
X207228162Y-86179683D01*
X207089090Y-85963559D01*
X206876890Y-85818569D01*
X206625000Y-85767560D01*
X203625000Y-85767560D01*
X203389683Y-85811838D01*
X203173559Y-85950910D01*
X203028569Y-86163110D01*
X202977560Y-86415000D01*
X202977560Y-86450230D01*
X202936599Y-86477599D01*
X187939198Y-101475000D01*
X187572440Y-101475000D01*
X187572440Y-100415000D01*
X187528162Y-100179683D01*
X187421241Y-100013523D01*
X187521431Y-99866890D01*
X187572440Y-99615000D01*
X187572440Y-98415000D01*
X187528162Y-98179683D01*
X187421241Y-98013523D01*
X187521431Y-97866890D01*
X187572440Y-97615000D01*
X187572440Y-96415000D01*
X187528162Y-96179683D01*
X187421241Y-96013523D01*
X187521431Y-95866890D01*
X187572440Y-95615000D01*
X187572440Y-94415000D01*
X187528162Y-94179683D01*
X187421241Y-94013523D01*
X187521431Y-93866890D01*
X187572440Y-93615000D01*
X187572440Y-92415000D01*
X187528162Y-92179683D01*
X187422518Y-92015508D01*
X187463327Y-91974699D01*
X187560000Y-91741310D01*
X187560000Y-91300750D01*
X187401250Y-91142000D01*
X185552000Y-91142000D01*
X185552000Y-91162000D01*
X185298000Y-91162000D01*
X185298000Y-91142000D01*
X183448750Y-91142000D01*
X183290000Y-91300750D01*
X183290000Y-91741310D01*
X183386673Y-91974699D01*
X183428634Y-92016660D01*
X183328569Y-92163110D01*
X183309961Y-92255000D01*
X177975300Y-92255000D01*
X177684461Y-92312852D01*
X177437899Y-92477599D01*
X173717748Y-96197750D01*
X173689147Y-96154946D01*
X173359974Y-95935000D01*
X173689147Y-95715054D01*
X174011054Y-95233285D01*
X174124093Y-94665000D01*
X174011054Y-94096715D01*
X173689147Y-93614946D01*
X173207378Y-93293039D01*
X172639093Y-93180000D01*
X172580907Y-93180000D01*
X172012622Y-93293039D01*
X171530853Y-93614946D01*
X171341655Y-93898101D01*
X171341645Y-93898076D01*
X170951358Y-93469817D01*
X170426892Y-93223514D01*
X170197000Y-93344181D01*
X170197000Y-94538000D01*
X170217000Y-94538000D01*
X170217000Y-94792000D01*
X170197000Y-94792000D01*
X170197000Y-94812000D01*
X169943000Y-94812000D01*
X169943000Y-94792000D01*
X168749845Y-94792000D01*
X168628524Y-95021890D01*
X168724827Y-95254400D01*
X167637600Y-95254400D01*
X167395014Y-95302654D01*
X167346760Y-95312252D01*
X167100199Y-95476999D01*
X164602198Y-97975000D01*
X163067440Y-97975000D01*
X163067440Y-97660000D01*
X163043056Y-97530411D01*
X163067440Y-97410000D01*
X163067440Y-96860000D01*
X163043056Y-96730411D01*
X163067440Y-96610000D01*
X163067440Y-96060000D01*
X163047550Y-95954295D01*
X163055000Y-95936310D01*
X163055000Y-95820750D01*
X162958599Y-95724349D01*
X162884090Y-95608559D01*
X162776603Y-95535116D01*
X162871441Y-95474090D01*
X162960495Y-95343755D01*
X163055000Y-95249250D01*
X163055000Y-95133690D01*
X163046532Y-95113247D01*
X163067440Y-95010000D01*
X163067440Y-94522488D01*
X163142401Y-94472401D01*
X163306692Y-94308110D01*
X168628524Y-94308110D01*
X168749845Y-94538000D01*
X169943000Y-94538000D01*
X169943000Y-93344181D01*
X169713108Y-93223514D01*
X169188642Y-93469817D01*
X168798355Y-93898076D01*
X168628524Y-94308110D01*
X163306692Y-94308110D01*
X163605401Y-94009401D01*
X163770148Y-93762839D01*
X163828000Y-93472000D01*
X163828000Y-91440000D01*
X163770148Y-91149161D01*
X163770148Y-91149160D01*
X163605401Y-90902599D01*
X161854802Y-89152000D01*
X167767000Y-89152000D01*
X168057839Y-89094148D01*
X168304401Y-88929401D01*
X169133802Y-88100000D01*
X179367560Y-88100000D01*
X179367560Y-89800000D01*
X179411838Y-90035317D01*
X179550910Y-90251441D01*
X179763110Y-90396431D01*
X180015000Y-90447440D01*
X181715000Y-90447440D01*
X181950317Y-90403162D01*
X182166441Y-90264090D01*
X182311431Y-90051890D01*
X182355352Y-89835000D01*
X183318956Y-89835000D01*
X183321838Y-89850317D01*
X183427482Y-90014492D01*
X183386673Y-90055301D01*
X183290000Y-90288690D01*
X183290000Y-90729250D01*
X183448750Y-90888000D01*
X185298000Y-90888000D01*
X185298000Y-90868000D01*
X185552000Y-90868000D01*
X185552000Y-90888000D01*
X187401250Y-90888000D01*
X187560000Y-90729250D01*
X187560000Y-90288690D01*
X187463327Y-90055301D01*
X187421366Y-90013340D01*
X187521431Y-89866890D01*
X187572440Y-89615000D01*
X187572440Y-88415000D01*
X187528162Y-88179683D01*
X187422518Y-88015508D01*
X187463327Y-87974699D01*
X187560000Y-87741310D01*
X187560000Y-87300750D01*
X187401250Y-87142000D01*
X185552000Y-87142000D01*
X185552000Y-87162000D01*
X185298000Y-87162000D01*
X185298000Y-87142000D01*
X183448750Y-87142000D01*
X183290000Y-87300750D01*
X183290000Y-87741310D01*
X183386673Y-87974699D01*
X183428634Y-88016660D01*
X183395605Y-88065000D01*
X182355854Y-88065000D01*
X182318162Y-87864683D01*
X182179090Y-87648559D01*
X181966890Y-87503569D01*
X181715000Y-87452560D01*
X180015000Y-87452560D01*
X179779683Y-87496838D01*
X179563559Y-87635910D01*
X179418569Y-87848110D01*
X179367560Y-88100000D01*
X169133802Y-88100000D01*
X170945112Y-86288690D01*
X183290000Y-86288690D01*
X183290000Y-86729250D01*
X183448750Y-86888000D01*
X185298000Y-86888000D01*
X185298000Y-85938750D01*
X185552000Y-85938750D01*
X185552000Y-86888000D01*
X187401250Y-86888000D01*
X187560000Y-86729250D01*
X187560000Y-86288690D01*
X187463327Y-86055301D01*
X187284698Y-85876673D01*
X187051309Y-85780000D01*
X185710750Y-85780000D01*
X185552000Y-85938750D01*
X185298000Y-85938750D01*
X185139250Y-85780000D01*
X183798691Y-85780000D01*
X183565302Y-85876673D01*
X183386673Y-86055301D01*
X183290000Y-86288690D01*
X170945112Y-86288690D01*
X172653802Y-84580000D01*
X187579000Y-84580000D01*
X187869839Y-84522148D01*
X188116401Y-84357401D01*
X197316362Y-75157440D01*
X199215000Y-75157440D01*
X199450317Y-75113162D01*
X199666441Y-74974090D01*
X199811431Y-74761890D01*
X199862440Y-74510000D01*
X199862440Y-72810000D01*
X199818162Y-72574683D01*
X199679090Y-72358559D01*
X199466890Y-72213569D01*
X199215000Y-72162560D01*
X197215000Y-72162560D01*
X196979683Y-72206838D01*
X196763559Y-72345910D01*
X196618569Y-72558110D01*
X196567560Y-72810000D01*
X196567560Y-73756638D01*
X195862440Y-74461758D01*
X195862440Y-72810000D01*
X195818162Y-72574683D01*
X195679090Y-72358559D01*
X195466890Y-72213569D01*
X195215000Y-72162560D01*
X194435000Y-72162560D01*
X194435000Y-71697440D01*
X194475000Y-71697440D01*
X194710317Y-71653162D01*
X194926441Y-71514090D01*
X195071431Y-71301890D01*
X195106906Y-71126709D01*
X195290104Y-71354500D01*
X195783181Y-71624367D01*
X195865961Y-71641904D01*
X196088000Y-71519915D01*
X196088000Y-69977000D01*
X196068000Y-69977000D01*
X196068000Y-69723000D01*
X196088000Y-69723000D01*
X196088000Y-69703000D01*
X196342000Y-69703000D01*
X196342000Y-69723000D01*
X196362000Y-69723000D01*
X196362000Y-69977000D01*
X196342000Y-69977000D01*
X196342000Y-71519915D01*
X196564039Y-71641904D01*
X196646819Y-71624367D01*
X197139896Y-71354500D01*
X197487493Y-70922293D01*
X197740302Y-71300648D01*
X198205849Y-71611717D01*
X198755000Y-71720950D01*
X199304151Y-71611717D01*
X199769698Y-71300648D01*
X200080767Y-70835101D01*
X200190000Y-70285950D01*
X200190000Y-69414050D01*
X200132902Y-69127000D01*
X207290000Y-69127000D01*
X207290000Y-122373000D01*
X200202440Y-122373000D01*
X200202440Y-120720000D01*
X200158162Y-120484683D01*
X200019090Y-120268559D01*
X199806890Y-120123569D01*
X199555000Y-120072560D01*
X199515000Y-120072560D01*
X199515000Y-119521540D01*
X199666441Y-119424090D01*
X199811431Y-119211890D01*
X199862440Y-118960000D01*
X199862440Y-117260000D01*
X199818162Y-117024683D01*
X199679090Y-116808559D01*
X199466890Y-116663569D01*
X199215000Y-116612560D01*
X197215000Y-116612560D01*
X196979683Y-116656838D01*
X196763559Y-116795910D01*
X196618569Y-117008110D01*
X196567560Y-117260000D01*
X196567560Y-118960000D01*
X196611838Y-119195317D01*
X196750910Y-119411441D01*
X196963110Y-119556431D01*
X197215000Y-119607440D01*
X197995000Y-119607440D01*
X197995000Y-120072560D01*
X197955000Y-120072560D01*
X197719683Y-120116838D01*
X197503559Y-120255910D01*
X197358569Y-120468110D01*
X197323094Y-120643291D01*
X197139896Y-120415500D01*
X196646819Y-120145633D01*
X196564039Y-120128096D01*
X196342000Y-120250085D01*
X196342000Y-121793000D01*
X196362000Y-121793000D01*
X196362000Y-122047000D01*
X196342000Y-122047000D01*
X196342000Y-122067000D01*
X196088000Y-122067000D01*
X196088000Y-122047000D01*
X196068000Y-122047000D01*
X196068000Y-121793000D01*
X196088000Y-121793000D01*
X196088000Y-120250085D01*
X195865961Y-120128096D01*
X195783181Y-120145633D01*
X195290104Y-120415500D01*
X194942507Y-120847707D01*
X194689698Y-120469352D01*
X194224151Y-120158283D01*
X193675000Y-120049050D01*
X193125849Y-120158283D01*
X192660302Y-120469352D01*
X192349233Y-120934899D01*
X192240000Y-121484050D01*
X192240000Y-122355950D01*
X192243391Y-122373000D01*
X191312440Y-122373000D01*
X191312440Y-120720000D01*
X191268162Y-120484683D01*
X191129090Y-120268559D01*
X190916890Y-120123569D01*
X190665000Y-120072560D01*
X190625000Y-120072560D01*
X190625000Y-119521540D01*
X190776441Y-119424090D01*
X190921431Y-119211890D01*
X190972440Y-118960000D01*
X190972440Y-117260000D01*
X190928162Y-117024683D01*
X190789090Y-116808559D01*
X190576890Y-116663569D01*
X190325000Y-116612560D01*
X188325000Y-116612560D01*
X188089683Y-116656838D01*
X187873559Y-116795910D01*
X187728569Y-117008110D01*
X187677560Y-117260000D01*
X187677560Y-118960000D01*
X187721838Y-119195317D01*
X187860910Y-119411441D01*
X188073110Y-119556431D01*
X188325000Y-119607440D01*
X189105000Y-119607440D01*
X189105000Y-120072560D01*
X189065000Y-120072560D01*
X188829683Y-120116838D01*
X188613559Y-120255910D01*
X188468569Y-120468110D01*
X188433094Y-120643291D01*
X188249896Y-120415500D01*
X187756819Y-120145633D01*
X187674039Y-120128096D01*
X187452000Y-120250085D01*
X187452000Y-121793000D01*
X187472000Y-121793000D01*
X187472000Y-122047000D01*
X187452000Y-122047000D01*
X187452000Y-122067000D01*
X187198000Y-122067000D01*
X187198000Y-122047000D01*
X187178000Y-122047000D01*
X187178000Y-121793000D01*
X187198000Y-121793000D01*
X187198000Y-120250085D01*
X186975961Y-120128096D01*
X186893181Y-120145633D01*
X186400104Y-120415500D01*
X186052507Y-120847707D01*
X185799698Y-120469352D01*
X185334151Y-120158283D01*
X184785000Y-120049050D01*
X184235849Y-120158283D01*
X183770302Y-120469352D01*
X183459233Y-120934899D01*
X183350000Y-121484050D01*
X183350000Y-122355950D01*
X183353391Y-122373000D01*
X182422440Y-122373000D01*
X182422440Y-120720000D01*
X182378162Y-120484683D01*
X182239090Y-120268559D01*
X182026890Y-120123569D01*
X181775000Y-120072560D01*
X181735000Y-120072560D01*
X181735000Y-119521540D01*
X181886441Y-119424090D01*
X182031431Y-119211890D01*
X182082440Y-118960000D01*
X182082440Y-117260000D01*
X182038162Y-117024683D01*
X181899090Y-116808559D01*
X181686890Y-116663569D01*
X181435000Y-116612560D01*
X179435000Y-116612560D01*
X179199683Y-116656838D01*
X178983559Y-116795910D01*
X178838569Y-117008110D01*
X178787560Y-117260000D01*
X178787560Y-118960000D01*
X178831838Y-119195317D01*
X178970910Y-119411441D01*
X179183110Y-119556431D01*
X179435000Y-119607440D01*
X180215000Y-119607440D01*
X180215000Y-120072560D01*
X180175000Y-120072560D01*
X179939683Y-120116838D01*
X179723559Y-120255910D01*
X179578569Y-120468110D01*
X179543094Y-120643291D01*
X179359896Y-120415500D01*
X178866819Y-120145633D01*
X178784039Y-120128096D01*
X178562000Y-120250085D01*
X178562000Y-121793000D01*
X178582000Y-121793000D01*
X178582000Y-122047000D01*
X178562000Y-122047000D01*
X178562000Y-122067000D01*
X178308000Y-122067000D01*
X178308000Y-122047000D01*
X178288000Y-122047000D01*
X178288000Y-121793000D01*
X178308000Y-121793000D01*
X178308000Y-120250085D01*
X178085961Y-120128096D01*
X178003181Y-120145633D01*
X177510104Y-120415500D01*
X177162507Y-120847707D01*
X176909698Y-120469352D01*
X176444151Y-120158283D01*
X175895000Y-120049050D01*
X175345849Y-120158283D01*
X174880302Y-120469352D01*
X174569233Y-120934899D01*
X174460000Y-121484050D01*
X174460000Y-122355950D01*
X174463391Y-122373000D01*
X173532440Y-122373000D01*
X173532440Y-120720000D01*
X173488162Y-120484683D01*
X173349090Y-120268559D01*
X173136890Y-120123569D01*
X172885000Y-120072560D01*
X172845000Y-120072560D01*
X172845000Y-119521540D01*
X172996441Y-119424090D01*
X173141431Y-119211890D01*
X173192440Y-118960000D01*
X173192440Y-117260000D01*
X173148162Y-117024683D01*
X173009090Y-116808559D01*
X172796890Y-116663569D01*
X172545000Y-116612560D01*
X170545000Y-116612560D01*
X170309683Y-116656838D01*
X170093559Y-116795910D01*
X169948569Y-117008110D01*
X169897560Y-117260000D01*
X169897560Y-118960000D01*
X169941838Y-119195317D01*
X170080910Y-119411441D01*
X170293110Y-119556431D01*
X170545000Y-119607440D01*
X171325000Y-119607440D01*
X171325000Y-120072560D01*
X171285000Y-120072560D01*
X171049683Y-120116838D01*
X170833559Y-120255910D01*
X170688569Y-120468110D01*
X170653094Y-120643291D01*
X170469896Y-120415500D01*
X169976819Y-120145633D01*
X169894039Y-120128096D01*
X169672000Y-120250085D01*
X169672000Y-121793000D01*
X169692000Y-121793000D01*
X169692000Y-122047000D01*
X169672000Y-122047000D01*
X169672000Y-122067000D01*
X169418000Y-122067000D01*
X169418000Y-122047000D01*
X169398000Y-122047000D01*
X169398000Y-121793000D01*
X169418000Y-121793000D01*
X169418000Y-120250085D01*
X169195961Y-120128096D01*
X169113181Y-120145633D01*
X168620104Y-120415500D01*
X168272507Y-120847707D01*
X168019698Y-120469352D01*
X167554151Y-120158283D01*
X167005000Y-120049050D01*
X166455849Y-120158283D01*
X165990302Y-120469352D01*
X165679233Y-120934899D01*
X165570000Y-121484050D01*
X165570000Y-122355950D01*
X165573391Y-122373000D01*
X164642440Y-122373000D01*
X164642440Y-120720000D01*
X164598162Y-120484683D01*
X164459090Y-120268559D01*
X164246890Y-120123569D01*
X163995000Y-120072560D01*
X163955000Y-120072560D01*
X163955000Y-119607440D01*
X164290000Y-119607440D01*
X164525317Y-119563162D01*
X164741441Y-119424090D01*
X164886431Y-119211890D01*
X164937440Y-118960000D01*
X164937440Y-117260000D01*
X164893162Y-117024683D01*
X164754090Y-116808559D01*
X164541890Y-116663569D01*
X164290000Y-116612560D01*
X162290000Y-116612560D01*
X162054683Y-116656838D01*
X161838559Y-116795910D01*
X161693569Y-117008110D01*
X161642560Y-117260000D01*
X161642560Y-118960000D01*
X161686838Y-119195317D01*
X161825910Y-119411441D01*
X162038110Y-119556431D01*
X162290000Y-119607440D01*
X162435000Y-119607440D01*
X162435000Y-120072560D01*
X162395000Y-120072560D01*
X162159683Y-120116838D01*
X161943559Y-120255910D01*
X161798569Y-120468110D01*
X161763094Y-120643291D01*
X161579896Y-120415500D01*
X161086819Y-120145633D01*
X161004039Y-120128096D01*
X160782000Y-120250085D01*
X160782000Y-121793000D01*
X160802000Y-121793000D01*
X160802000Y-122047000D01*
X160782000Y-122047000D01*
X160782000Y-122067000D01*
X160528000Y-122067000D01*
X160528000Y-122047000D01*
X160508000Y-122047000D01*
X160508000Y-121793000D01*
X160528000Y-121793000D01*
X160528000Y-120250085D01*
X160305961Y-120128096D01*
X160223181Y-120145633D01*
X159730104Y-120415500D01*
X159382507Y-120847707D01*
X159129698Y-120469352D01*
X158664151Y-120158283D01*
X158115000Y-120049050D01*
X157565849Y-120158283D01*
X157100302Y-120469352D01*
X156789233Y-120934899D01*
X156680000Y-121484050D01*
X156680000Y-122355950D01*
X156683391Y-122373000D01*
X155752440Y-122373000D01*
X155752440Y-120720000D01*
X155708162Y-120484683D01*
X155569090Y-120268559D01*
X155356890Y-120123569D01*
X155105000Y-120072560D01*
X155065000Y-120072560D01*
X155065000Y-119607440D01*
X155400000Y-119607440D01*
X155635317Y-119563162D01*
X155851441Y-119424090D01*
X155996431Y-119211890D01*
X156047440Y-118960000D01*
X156047440Y-117260000D01*
X156003162Y-117024683D01*
X155964757Y-116965000D01*
X157070198Y-116965000D01*
X157642560Y-117537362D01*
X157642560Y-118960000D01*
X157686838Y-119195317D01*
X157825910Y-119411441D01*
X158038110Y-119556431D01*
X158290000Y-119607440D01*
X160290000Y-119607440D01*
X160525317Y-119563162D01*
X160741441Y-119424090D01*
X160886431Y-119211890D01*
X160937440Y-118960000D01*
X160937440Y-117260000D01*
X160893162Y-117024683D01*
X160754090Y-116808559D01*
X160541890Y-116663569D01*
X160290000Y-116612560D01*
X158867362Y-116612560D01*
X157949802Y-115695000D01*
X163896198Y-115695000D01*
X165897560Y-117696362D01*
X165897560Y-118960000D01*
X165941838Y-119195317D01*
X166080910Y-119411441D01*
X166293110Y-119556431D01*
X166545000Y-119607440D01*
X168545000Y-119607440D01*
X168780317Y-119563162D01*
X168996441Y-119424090D01*
X169141431Y-119211890D01*
X169192440Y-118960000D01*
X169192440Y-117260000D01*
X169148162Y-117024683D01*
X169009090Y-116808559D01*
X168796890Y-116663569D01*
X168545000Y-116612560D01*
X166963362Y-116612560D01*
X165410802Y-115060000D01*
X171262198Y-115060000D01*
X174787560Y-118585362D01*
X174787560Y-118960000D01*
X174831838Y-119195317D01*
X174970910Y-119411441D01*
X175183110Y-119556431D01*
X175435000Y-119607440D01*
X177435000Y-119607440D01*
X177670317Y-119563162D01*
X177886441Y-119424090D01*
X178031431Y-119211890D01*
X178082440Y-118960000D01*
X178082440Y-117260000D01*
X178038162Y-117024683D01*
X177899090Y-116808559D01*
X177686890Y-116663569D01*
X177435000Y-116612560D01*
X175435000Y-116612560D01*
X175199683Y-116656838D01*
X175083440Y-116731638D01*
X172776802Y-114425000D01*
X180533198Y-114425000D01*
X183677560Y-117569362D01*
X183677560Y-118960000D01*
X183721838Y-119195317D01*
X183860910Y-119411441D01*
X184073110Y-119556431D01*
X184325000Y-119607440D01*
X186325000Y-119607440D01*
X186560317Y-119563162D01*
X186776441Y-119424090D01*
X186921431Y-119211890D01*
X186972440Y-118960000D01*
X186972440Y-117260000D01*
X186928162Y-117024683D01*
X186789090Y-116808559D01*
X186576890Y-116663569D01*
X186325000Y-116612560D01*
X184870362Y-116612560D01*
X182047802Y-113790000D01*
X188788198Y-113790000D01*
X192567560Y-117569362D01*
X192567560Y-118960000D01*
X192611838Y-119195317D01*
X192750910Y-119411441D01*
X192963110Y-119556431D01*
X193215000Y-119607440D01*
X195215000Y-119607440D01*
X195450317Y-119563162D01*
X195666441Y-119424090D01*
X195811431Y-119211890D01*
X195862440Y-118960000D01*
X195862440Y-117260000D01*
X195818162Y-117024683D01*
X195679090Y-116808559D01*
X195466890Y-116663569D01*
X195215000Y-116612560D01*
X193760362Y-116612560D01*
X189640401Y-112492599D01*
X189393839Y-112327852D01*
X189103000Y-112270000D01*
X159064000Y-112270000D01*
X159064000Y-111920750D01*
X158905250Y-111762000D01*
X158302000Y-111762000D01*
X158302000Y-111782000D01*
X158048000Y-111782000D01*
X158048000Y-111762000D01*
X158028000Y-111762000D01*
X158028000Y-111508000D01*
X158048000Y-111508000D01*
X158048000Y-110587250D01*
X158302000Y-110587250D01*
X158302000Y-111508000D01*
X158905250Y-111508000D01*
X159064000Y-111349250D01*
X159064000Y-110937190D01*
X158967327Y-110703801D01*
X158788698Y-110525173D01*
X158555309Y-110428500D01*
X158460750Y-110428500D01*
X158302000Y-110587250D01*
X158048000Y-110587250D01*
X157889250Y-110428500D01*
X157794691Y-110428500D01*
X157561302Y-110525173D01*
X157534765Y-110551709D01*
X157410890Y-110467069D01*
X157159000Y-110416060D01*
X156651000Y-110416060D01*
X156415683Y-110460338D01*
X156269093Y-110554666D01*
X156140890Y-110467069D01*
X155889000Y-110416060D01*
X155381000Y-110416060D01*
X155145683Y-110460338D01*
X154999093Y-110554666D01*
X154870890Y-110467069D01*
X154619000Y-110416060D01*
X154111000Y-110416060D01*
X153875683Y-110460338D01*
X153729093Y-110554666D01*
X153600890Y-110467069D01*
X153349000Y-110416060D01*
X152841000Y-110416060D01*
X152605683Y-110460338D01*
X152459093Y-110554666D01*
X152330890Y-110467069D01*
X152079000Y-110416060D01*
X151571000Y-110416060D01*
X151335683Y-110460338D01*
X151189093Y-110554666D01*
X151060890Y-110467069D01*
X150809000Y-110416060D01*
X150301000Y-110416060D01*
X150065683Y-110460338D01*
X149919093Y-110554666D01*
X149790890Y-110467069D01*
X149539000Y-110416060D01*
X149031000Y-110416060D01*
X148795683Y-110460338D01*
X148579559Y-110599410D01*
X148434569Y-110811610D01*
X148421732Y-110875000D01*
X148334000Y-110875000D01*
X148043161Y-110932852D01*
X147796599Y-111097599D01*
X142281638Y-116612560D01*
X140510000Y-116612560D01*
X140274683Y-116656838D01*
X140058559Y-116795910D01*
X139913569Y-117008110D01*
X139862560Y-117260000D01*
X139862560Y-118960000D01*
X139906838Y-119195317D01*
X140045910Y-119411441D01*
X140258110Y-119556431D01*
X140510000Y-119607440D01*
X142510000Y-119607440D01*
X142745317Y-119563162D01*
X142961441Y-119424090D01*
X143106431Y-119211890D01*
X143157440Y-118960000D01*
X143157440Y-117886362D01*
X143882559Y-117161243D01*
X143862560Y-117260000D01*
X143862560Y-118960000D01*
X143906838Y-119195317D01*
X144045910Y-119411441D01*
X144258110Y-119556431D01*
X144510000Y-119607440D01*
X144655000Y-119607440D01*
X144655000Y-120072560D01*
X144615000Y-120072560D01*
X144379683Y-120116838D01*
X144163559Y-120255910D01*
X144018569Y-120468110D01*
X143983094Y-120643291D01*
X143799896Y-120415500D01*
X143306819Y-120145633D01*
X143224039Y-120128096D01*
X143002000Y-120250085D01*
X143002000Y-121793000D01*
X143022000Y-121793000D01*
X143022000Y-122047000D01*
X143002000Y-122047000D01*
X143002000Y-122067000D01*
X142748000Y-122067000D01*
X142748000Y-122047000D01*
X142728000Y-122047000D01*
X142728000Y-121793000D01*
X142748000Y-121793000D01*
X142748000Y-120250085D01*
X142525961Y-120128096D01*
X142443181Y-120145633D01*
X141950104Y-120415500D01*
X141602507Y-120847707D01*
X141349698Y-120469352D01*
X140884151Y-120158283D01*
X140335000Y-120049050D01*
X139785849Y-120158283D01*
X139320302Y-120469352D01*
X139009233Y-120934899D01*
X138900000Y-121484050D01*
X138900000Y-122355950D01*
X138903391Y-122373000D01*
X137972440Y-122373000D01*
X137972440Y-120720000D01*
X137928162Y-120484683D01*
X137789090Y-120268559D01*
X137576890Y-120123569D01*
X137325000Y-120072560D01*
X137285000Y-120072560D01*
X137285000Y-119521540D01*
X137436441Y-119424090D01*
X137581431Y-119211890D01*
X137632440Y-118960000D01*
X137632440Y-117260000D01*
X137588162Y-117024683D01*
X137449090Y-116808559D01*
X137236890Y-116663569D01*
X136985000Y-116612560D01*
X134985000Y-116612560D01*
X134749683Y-116656838D01*
X134533559Y-116795910D01*
X134388569Y-117008110D01*
X134337560Y-117260000D01*
X134337560Y-118960000D01*
X134381838Y-119195317D01*
X134520910Y-119411441D01*
X134733110Y-119556431D01*
X134985000Y-119607440D01*
X135765000Y-119607440D01*
X135765000Y-120072560D01*
X135725000Y-120072560D01*
X135489683Y-120116838D01*
X135273559Y-120255910D01*
X135128569Y-120468110D01*
X135093094Y-120643291D01*
X134909896Y-120415500D01*
X134416819Y-120145633D01*
X134334039Y-120128096D01*
X134112000Y-120250085D01*
X134112000Y-121793000D01*
X134132000Y-121793000D01*
X134132000Y-122047000D01*
X134112000Y-122047000D01*
X134112000Y-122067000D01*
X133858000Y-122067000D01*
X133858000Y-122047000D01*
X133838000Y-122047000D01*
X133838000Y-121793000D01*
X133858000Y-121793000D01*
X133858000Y-120250085D01*
X133635961Y-120128096D01*
X133553181Y-120145633D01*
X133060104Y-120415500D01*
X132712507Y-120847707D01*
X132459698Y-120469352D01*
X131994151Y-120158283D01*
X131445000Y-120049050D01*
X130895849Y-120158283D01*
X130430302Y-120469352D01*
X130119233Y-120934899D01*
X130010000Y-121484050D01*
X130010000Y-122355950D01*
X130013391Y-122373000D01*
X129710000Y-122373000D01*
X129710000Y-100009016D01*
X138910590Y-100009016D01*
X138966271Y-100239611D01*
X139449078Y-100407622D01*
X139959428Y-100378083D01*
X140293729Y-100239611D01*
X140349410Y-100009016D01*
X139630000Y-99289605D01*
X138910590Y-100009016D01*
X129710000Y-100009016D01*
X129710000Y-98929078D01*
X138332378Y-98929078D01*
X138361917Y-99439428D01*
X138500389Y-99773729D01*
X138730984Y-99829410D01*
X139450395Y-99110000D01*
X138730984Y-98390590D01*
X138500389Y-98446271D01*
X138332378Y-98929078D01*
X129710000Y-98929078D01*
X129710000Y-98210984D01*
X138910590Y-98210984D01*
X139630000Y-98930395D01*
X140349410Y-98210984D01*
X140293729Y-97980389D01*
X139810922Y-97812378D01*
X139300572Y-97841917D01*
X138966271Y-97980389D01*
X138910590Y-98210984D01*
X129710000Y-98210984D01*
X129710000Y-80726750D01*
X147591000Y-80726750D01*
X147591000Y-81138810D01*
X147687673Y-81372199D01*
X147866302Y-81550827D01*
X148099691Y-81647500D01*
X148194250Y-81647500D01*
X148353000Y-81488750D01*
X148353000Y-80568000D01*
X147749750Y-80568000D01*
X147591000Y-80726750D01*
X129710000Y-80726750D01*
X129710000Y-79743190D01*
X147591000Y-79743190D01*
X147591000Y-80155250D01*
X147749750Y-80314000D01*
X148353000Y-80314000D01*
X148353000Y-79393250D01*
X148194250Y-79234500D01*
X148099691Y-79234500D01*
X147866302Y-79331173D01*
X147687673Y-79509801D01*
X147591000Y-79743190D01*
X129710000Y-79743190D01*
X129710000Y-74549540D01*
X129746838Y-74745317D01*
X129885910Y-74961441D01*
X130098110Y-75106431D01*
X130350000Y-75157440D01*
X132350000Y-75157440D01*
X132585317Y-75113162D01*
X132801441Y-74974090D01*
X132946431Y-74761890D01*
X132997440Y-74510000D01*
X132997440Y-72810000D01*
X133702560Y-72810000D01*
X133702560Y-74510000D01*
X133746838Y-74745317D01*
X133885910Y-74961441D01*
X134098110Y-75106431D01*
X134350000Y-75157440D01*
X135042638Y-75157440D01*
X137892599Y-78007401D01*
X138139161Y-78172148D01*
X138430000Y-78230000D01*
X147640198Y-78230000D01*
X148705224Y-79295026D01*
X148607000Y-79393250D01*
X148607000Y-80314000D01*
X148627000Y-80314000D01*
X148627000Y-80568000D01*
X148607000Y-80568000D01*
X148607000Y-81488750D01*
X148765750Y-81647500D01*
X148860309Y-81647500D01*
X149093698Y-81550827D01*
X149120235Y-81524291D01*
X149244110Y-81608931D01*
X149496000Y-81659940D01*
X150004000Y-81659940D01*
X150239317Y-81615662D01*
X150385907Y-81521334D01*
X150514110Y-81608931D01*
X150766000Y-81659940D01*
X151274000Y-81659940D01*
X151509317Y-81615662D01*
X151655907Y-81521334D01*
X151784110Y-81608931D01*
X152036000Y-81659940D01*
X152544000Y-81659940D01*
X152779317Y-81615662D01*
X152925907Y-81521334D01*
X153054110Y-81608931D01*
X153306000Y-81659940D01*
X153814000Y-81659940D01*
X154049317Y-81615662D01*
X154195907Y-81521334D01*
X154324110Y-81608931D01*
X154576000Y-81659940D01*
X155084000Y-81659940D01*
X155319317Y-81615662D01*
X155465907Y-81521334D01*
X155594110Y-81608931D01*
X155846000Y-81659940D01*
X156354000Y-81659940D01*
X156589317Y-81615662D01*
X156735907Y-81521334D01*
X156864110Y-81608931D01*
X157116000Y-81659940D01*
X157624000Y-81659940D01*
X157859317Y-81615662D01*
X158075441Y-81476590D01*
X158220431Y-81264390D01*
X158233268Y-81201000D01*
X183084000Y-81201000D01*
X183374839Y-81143148D01*
X183621401Y-80978401D01*
X189442362Y-75157440D01*
X190325000Y-75157440D01*
X190560317Y-75113162D01*
X190776441Y-74974090D01*
X190921431Y-74761890D01*
X190972440Y-74510000D01*
X190972440Y-72810000D01*
X190928162Y-72574683D01*
X190789090Y-72358559D01*
X190576890Y-72213569D01*
X190325000Y-72162560D01*
X188325000Y-72162560D01*
X188089683Y-72206838D01*
X187873559Y-72345910D01*
X187728569Y-72558110D01*
X187677560Y-72810000D01*
X187677560Y-74510000D01*
X187719153Y-74731045D01*
X182769198Y-79681000D01*
X158235971Y-79681000D01*
X158227162Y-79634183D01*
X158140818Y-79500000D01*
X175260000Y-79500000D01*
X175550839Y-79442148D01*
X175797401Y-79277401D01*
X179917362Y-75157440D01*
X181435000Y-75157440D01*
X181670317Y-75113162D01*
X181886441Y-74974090D01*
X182031431Y-74761890D01*
X182082440Y-74510000D01*
X182082440Y-72810000D01*
X182038162Y-72574683D01*
X181899090Y-72358559D01*
X181686890Y-72213569D01*
X181435000Y-72162560D01*
X179435000Y-72162560D01*
X179199683Y-72206838D01*
X178983559Y-72345910D01*
X178838569Y-72558110D01*
X178787560Y-72810000D01*
X178787560Y-74137638D01*
X174945198Y-77980000D01*
X168839802Y-77980000D01*
X171662362Y-75157440D01*
X172545000Y-75157440D01*
X172780317Y-75113162D01*
X172996441Y-74974090D01*
X173141431Y-74761890D01*
X173192440Y-74510000D01*
X173192440Y-72810000D01*
X173148162Y-72574683D01*
X173009090Y-72358559D01*
X172796890Y-72213569D01*
X172545000Y-72162560D01*
X170545000Y-72162560D01*
X170309683Y-72206838D01*
X170093559Y-72345910D01*
X169948569Y-72558110D01*
X169897560Y-72810000D01*
X169897560Y-74510000D01*
X169939153Y-74731045D01*
X167960198Y-76710000D01*
X160584802Y-76710000D01*
X162137362Y-75157440D01*
X163655000Y-75157440D01*
X163890317Y-75113162D01*
X164106441Y-74974090D01*
X164251431Y-74761890D01*
X164302440Y-74510000D01*
X164302440Y-72810000D01*
X164258162Y-72574683D01*
X164119090Y-72358559D01*
X163906890Y-72213569D01*
X163655000Y-72162560D01*
X161655000Y-72162560D01*
X161419683Y-72206838D01*
X161203559Y-72345910D01*
X161058569Y-72558110D01*
X161007560Y-72810000D01*
X161007560Y-74137638D01*
X159705198Y-75440000D01*
X154940000Y-75440000D01*
X154649161Y-75497852D01*
X154402599Y-75662599D01*
X153872570Y-76192628D01*
X153890000Y-76105000D01*
X153890000Y-75157440D01*
X154130000Y-75157440D01*
X154365317Y-75113162D01*
X154581441Y-74974090D01*
X154726431Y-74761890D01*
X154777440Y-74510000D01*
X154777440Y-72810000D01*
X154733162Y-72574683D01*
X154594090Y-72358559D01*
X154381890Y-72213569D01*
X154130000Y-72162560D01*
X152130000Y-72162560D01*
X151894683Y-72206838D01*
X151678559Y-72345910D01*
X151533569Y-72558110D01*
X151482560Y-72810000D01*
X151482560Y-74510000D01*
X151526838Y-74745317D01*
X151665910Y-74961441D01*
X151878110Y-75106431D01*
X152130000Y-75157440D01*
X152370000Y-75157440D01*
X152370000Y-75790198D01*
X151752599Y-76407599D01*
X151587852Y-76654161D01*
X151530000Y-76945000D01*
X151530000Y-78065198D01*
X149127401Y-75662599D01*
X148880839Y-75497852D01*
X148590000Y-75440000D01*
X147634802Y-75440000D01*
X145887440Y-73692638D01*
X145887440Y-72810000D01*
X145843162Y-72574683D01*
X145704090Y-72358559D01*
X145491890Y-72213569D01*
X145240000Y-72162560D01*
X143240000Y-72162560D01*
X143004683Y-72206838D01*
X142788559Y-72345910D01*
X142643569Y-72558110D01*
X142592560Y-72810000D01*
X142592560Y-74510000D01*
X142636838Y-74745317D01*
X142775910Y-74961441D01*
X142988110Y-75106431D01*
X143240000Y-75157440D01*
X145202638Y-75157440D01*
X146755198Y-76710000D01*
X138744802Y-76710000D01*
X136885649Y-74850847D01*
X136946431Y-74761890D01*
X136997440Y-74510000D01*
X136997440Y-72810000D01*
X136953162Y-72574683D01*
X136814090Y-72358559D01*
X136601890Y-72213569D01*
X136350000Y-72162560D01*
X134350000Y-72162560D01*
X134114683Y-72206838D01*
X133898559Y-72345910D01*
X133753569Y-72558110D01*
X133702560Y-72810000D01*
X132997440Y-72810000D01*
X132953162Y-72574683D01*
X132814090Y-72358559D01*
X132601890Y-72213569D01*
X132350000Y-72162560D01*
X132205000Y-72162560D01*
X132205000Y-71697440D01*
X132245000Y-71697440D01*
X132480317Y-71653162D01*
X132696441Y-71514090D01*
X132841431Y-71301890D01*
X132876906Y-71126709D01*
X133060104Y-71354500D01*
X133553181Y-71624367D01*
X133635961Y-71641904D01*
X133858000Y-71519915D01*
X133858000Y-69977000D01*
X133838000Y-69977000D01*
X133838000Y-69723000D01*
X133858000Y-69723000D01*
X133858000Y-69703000D01*
X134112000Y-69703000D01*
X134112000Y-69723000D01*
X134132000Y-69723000D01*
X134132000Y-69977000D01*
X134112000Y-69977000D01*
X134112000Y-71519915D01*
X134334039Y-71641904D01*
X134416819Y-71624367D01*
X134909896Y-71354500D01*
X135257493Y-70922293D01*
X135510302Y-71300648D01*
X135975849Y-71611717D01*
X136525000Y-71720950D01*
X137074151Y-71611717D01*
X137539698Y-71300648D01*
X137850767Y-70835101D01*
X137960000Y-70285950D01*
X137960000Y-69414050D01*
X137902902Y-69127000D01*
X138887560Y-69127000D01*
X138887560Y-71050000D01*
X138887560Y-71050000D01*
G37*
X138887560Y-71050000D02*
X138931838Y-71285317D01*
X139070910Y-71501441D01*
X139283110Y-71646431D01*
X139535000Y-71697440D01*
X139575000Y-71697440D01*
X139575000Y-72162560D01*
X139240000Y-72162560D01*
X139004683Y-72206838D01*
X138788559Y-72345910D01*
X138643569Y-72558110D01*
X138592560Y-72810000D01*
X138592560Y-74510000D01*
X138636838Y-74745317D01*
X138775910Y-74961441D01*
X138988110Y-75106431D01*
X139240000Y-75157440D01*
X141240000Y-75157440D01*
X141475317Y-75113162D01*
X141691441Y-74974090D01*
X141836431Y-74761890D01*
X141887440Y-74510000D01*
X141887440Y-72810000D01*
X141843162Y-72574683D01*
X141704090Y-72358559D01*
X141491890Y-72213569D01*
X141240000Y-72162560D01*
X141095000Y-72162560D01*
X141095000Y-71697440D01*
X141135000Y-71697440D01*
X141370317Y-71653162D01*
X141586441Y-71514090D01*
X141731431Y-71301890D01*
X141766906Y-71126709D01*
X141950104Y-71354500D01*
X142443181Y-71624367D01*
X142525961Y-71641904D01*
X142748000Y-71519915D01*
X142748000Y-69977000D01*
X142728000Y-69977000D01*
X142728000Y-69723000D01*
X142748000Y-69723000D01*
X142748000Y-69703000D01*
X143002000Y-69703000D01*
X143002000Y-69723000D01*
X143022000Y-69723000D01*
X143022000Y-69977000D01*
X143002000Y-69977000D01*
X143002000Y-71519915D01*
X143224039Y-71641904D01*
X143306819Y-71624367D01*
X143799896Y-71354500D01*
X144147493Y-70922293D01*
X144400302Y-71300648D01*
X144865849Y-71611717D01*
X145415000Y-71720950D01*
X145964151Y-71611717D01*
X146429698Y-71300648D01*
X146740767Y-70835101D01*
X146850000Y-70285950D01*
X146850000Y-69414050D01*
X146792902Y-69127000D01*
X147777560Y-69127000D01*
X147777560Y-71050000D01*
X147821838Y-71285317D01*
X147960910Y-71501441D01*
X148173110Y-71646431D01*
X148425000Y-71697440D01*
X148465000Y-71697440D01*
X148465000Y-72162560D01*
X148130000Y-72162560D01*
X147894683Y-72206838D01*
X147678559Y-72345910D01*
X147533569Y-72558110D01*
X147482560Y-72810000D01*
X147482560Y-74510000D01*
X147526838Y-74745317D01*
X147665910Y-74961441D01*
X147878110Y-75106431D01*
X148130000Y-75157440D01*
X150130000Y-75157440D01*
X150365317Y-75113162D01*
X150581441Y-74974090D01*
X150726431Y-74761890D01*
X150777440Y-74510000D01*
X150777440Y-72810000D01*
X150733162Y-72574683D01*
X150594090Y-72358559D01*
X150381890Y-72213569D01*
X150130000Y-72162560D01*
X149985000Y-72162560D01*
X149985000Y-71697440D01*
X150025000Y-71697440D01*
X150260317Y-71653162D01*
X150476441Y-71514090D01*
X150621431Y-71301890D01*
X150656906Y-71126709D01*
X150840104Y-71354500D01*
X151333181Y-71624367D01*
X151415961Y-71641904D01*
X151638000Y-71519915D01*
X151638000Y-69977000D01*
X151618000Y-69977000D01*
X151618000Y-69723000D01*
X151638000Y-69723000D01*
X151638000Y-69703000D01*
X151892000Y-69703000D01*
X151892000Y-69723000D01*
X151912000Y-69723000D01*
X151912000Y-69977000D01*
X151892000Y-69977000D01*
X151892000Y-71519915D01*
X152114039Y-71641904D01*
X152196819Y-71624367D01*
X152689896Y-71354500D01*
X153037493Y-70922293D01*
X153290302Y-71300648D01*
X153755849Y-71611717D01*
X154305000Y-71720950D01*
X154854151Y-71611717D01*
X155319698Y-71300648D01*
X155630767Y-70835101D01*
X155740000Y-70285950D01*
X155740000Y-69414050D01*
X155682902Y-69127000D01*
X156667560Y-69127000D01*
X156667560Y-71050000D01*
X156711838Y-71285317D01*
X156850910Y-71501441D01*
X157063110Y-71646431D01*
X157315000Y-71697440D01*
X157355000Y-71697440D01*
X157355000Y-72248460D01*
X157203559Y-72345910D01*
X157058569Y-72558110D01*
X157007560Y-72810000D01*
X157007560Y-74510000D01*
X157051838Y-74745317D01*
X157190910Y-74961441D01*
X157403110Y-75106431D01*
X157655000Y-75157440D01*
X159655000Y-75157440D01*
X159890317Y-75113162D01*
X160106441Y-74974090D01*
X160251431Y-74761890D01*
X160302440Y-74510000D01*
X160302440Y-72810000D01*
X160258162Y-72574683D01*
X160119090Y-72358559D01*
X159906890Y-72213569D01*
X159655000Y-72162560D01*
X158875000Y-72162560D01*
X158875000Y-71697440D01*
X158915000Y-71697440D01*
X159150317Y-71653162D01*
X159366441Y-71514090D01*
X159511431Y-71301890D01*
X159546906Y-71126709D01*
X159730104Y-71354500D01*
X160223181Y-71624367D01*
X160305961Y-71641904D01*
X160528000Y-71519915D01*
X160528000Y-69977000D01*
X160508000Y-69977000D01*
X160508000Y-69723000D01*
X160528000Y-69723000D01*
X160528000Y-69703000D01*
X160782000Y-69703000D01*
X160782000Y-69723000D01*
X160802000Y-69723000D01*
X160802000Y-69977000D01*
X160782000Y-69977000D01*
X160782000Y-71519915D01*
X161004039Y-71641904D01*
X161086819Y-71624367D01*
X161579896Y-71354500D01*
X161927493Y-70922293D01*
X162180302Y-71300648D01*
X162645849Y-71611717D01*
X163195000Y-71720950D01*
X163744151Y-71611717D01*
X164209698Y-71300648D01*
X164520767Y-70835101D01*
X164630000Y-70285950D01*
X164630000Y-69414050D01*
X164572902Y-69127000D01*
X165557560Y-69127000D01*
X165557560Y-71050000D01*
X165601838Y-71285317D01*
X165740910Y-71501441D01*
X165953110Y-71646431D01*
X166205000Y-71697440D01*
X166245000Y-71697440D01*
X166245000Y-72248460D01*
X166093559Y-72345910D01*
X165948569Y-72558110D01*
X165897560Y-72810000D01*
X165897560Y-74510000D01*
X165941838Y-74745317D01*
X166080910Y-74961441D01*
X166293110Y-75106431D01*
X166545000Y-75157440D01*
X168545000Y-75157440D01*
X168780317Y-75113162D01*
X168996441Y-74974090D01*
X169141431Y-74761890D01*
X169192440Y-74510000D01*
X169192440Y-72810000D01*
X169148162Y-72574683D01*
X169009090Y-72358559D01*
X168796890Y-72213569D01*
X168545000Y-72162560D01*
X167765000Y-72162560D01*
X167765000Y-71697440D01*
X167805000Y-71697440D01*
X168040317Y-71653162D01*
X168256441Y-71514090D01*
X168401431Y-71301890D01*
X168436906Y-71126709D01*
X168620104Y-71354500D01*
X169113181Y-71624367D01*
X169195961Y-71641904D01*
X169418000Y-71519915D01*
X169418000Y-69977000D01*
X169398000Y-69977000D01*
X169398000Y-69723000D01*
X169418000Y-69723000D01*
X169418000Y-69703000D01*
X169672000Y-69703000D01*
X169672000Y-69723000D01*
X169692000Y-69723000D01*
X169692000Y-69977000D01*
X169672000Y-69977000D01*
X169672000Y-71519915D01*
X169894039Y-71641904D01*
X169976819Y-71624367D01*
X170469896Y-71354500D01*
X170817493Y-70922293D01*
X171070302Y-71300648D01*
X171535849Y-71611717D01*
X172085000Y-71720950D01*
X172634151Y-71611717D01*
X173099698Y-71300648D01*
X173410767Y-70835101D01*
X173520000Y-70285950D01*
X173520000Y-69414050D01*
X173462902Y-69127000D01*
X174447560Y-69127000D01*
X174447560Y-71050000D01*
X174491838Y-71285317D01*
X174630910Y-71501441D01*
X174843110Y-71646431D01*
X175095000Y-71697440D01*
X175135000Y-71697440D01*
X175135000Y-72248460D01*
X174983559Y-72345910D01*
X174838569Y-72558110D01*
X174787560Y-72810000D01*
X174787560Y-74510000D01*
X174831838Y-74745317D01*
X174970910Y-74961441D01*
X175183110Y-75106431D01*
X175435000Y-75157440D01*
X177435000Y-75157440D01*
X177670317Y-75113162D01*
X177886441Y-74974090D01*
X178031431Y-74761890D01*
X178082440Y-74510000D01*
X178082440Y-72810000D01*
X178038162Y-72574683D01*
X177899090Y-72358559D01*
X177686890Y-72213569D01*
X177435000Y-72162560D01*
X176655000Y-72162560D01*
X176655000Y-71697440D01*
X176695000Y-71697440D01*
X176930317Y-71653162D01*
X177146441Y-71514090D01*
X177291431Y-71301890D01*
X177326906Y-71126709D01*
X177510104Y-71354500D01*
X178003181Y-71624367D01*
X178085961Y-71641904D01*
X178308000Y-71519915D01*
X178308000Y-69977000D01*
X178288000Y-69977000D01*
X178288000Y-69723000D01*
X178308000Y-69723000D01*
X178308000Y-69703000D01*
X178562000Y-69703000D01*
X178562000Y-69723000D01*
X178582000Y-69723000D01*
X178582000Y-69977000D01*
X178562000Y-69977000D01*
X178562000Y-71519915D01*
X178784039Y-71641904D01*
X178866819Y-71624367D01*
X179359896Y-71354500D01*
X179707493Y-70922293D01*
X179960302Y-71300648D01*
X180425849Y-71611717D01*
X180975000Y-71720950D01*
X181524151Y-71611717D01*
X181989698Y-71300648D01*
X182300767Y-70835101D01*
X182410000Y-70285950D01*
X182410000Y-69414050D01*
X182352902Y-69127000D01*
X183337560Y-69127000D01*
X183337560Y-71050000D01*
X183381838Y-71285317D01*
X183520910Y-71501441D01*
X183733110Y-71646431D01*
X183985000Y-71697440D01*
X184025000Y-71697440D01*
X184025000Y-72248460D01*
X183873559Y-72345910D01*
X183728569Y-72558110D01*
X183677560Y-72810000D01*
X183677560Y-74510000D01*
X183721838Y-74745317D01*
X183860910Y-74961441D01*
X184073110Y-75106431D01*
X184325000Y-75157440D01*
X186325000Y-75157440D01*
X186560317Y-75113162D01*
X186776441Y-74974090D01*
X186921431Y-74761890D01*
X186972440Y-74510000D01*
X186972440Y-72810000D01*
X186928162Y-72574683D01*
X186789090Y-72358559D01*
X186576890Y-72213569D01*
X186325000Y-72162560D01*
X185545000Y-72162560D01*
X185545000Y-71697440D01*
X185585000Y-71697440D01*
X185820317Y-71653162D01*
X186036441Y-71514090D01*
X186181431Y-71301890D01*
X186216906Y-71126709D01*
X186400104Y-71354500D01*
X186893181Y-71624367D01*
X186975961Y-71641904D01*
X187198000Y-71519915D01*
X187198000Y-69977000D01*
X187178000Y-69977000D01*
X187178000Y-69723000D01*
X187198000Y-69723000D01*
X187198000Y-69703000D01*
X187452000Y-69703000D01*
X187452000Y-69723000D01*
X187472000Y-69723000D01*
X187472000Y-69977000D01*
X187452000Y-69977000D01*
X187452000Y-71519915D01*
X187674039Y-71641904D01*
X187756819Y-71624367D01*
X188249896Y-71354500D01*
X188597493Y-70922293D01*
X188850302Y-71300648D01*
X189315849Y-71611717D01*
X189865000Y-71720950D01*
X190414151Y-71611717D01*
X190879698Y-71300648D01*
X191190767Y-70835101D01*
X191300000Y-70285950D01*
X191300000Y-69414050D01*
X191242902Y-69127000D01*
X192227560Y-69127000D01*
X192227560Y-71050000D01*
X192271838Y-71285317D01*
X192410910Y-71501441D01*
X192623110Y-71646431D01*
X192875000Y-71697440D01*
X192915000Y-71697440D01*
X192915000Y-72248460D01*
X192763559Y-72345910D01*
X192618569Y-72558110D01*
X192567560Y-72810000D01*
X192567560Y-74510000D01*
X192611838Y-74745317D01*
X192750910Y-74961441D01*
X192963110Y-75106431D01*
X193215000Y-75157440D01*
X195166758Y-75157440D01*
X187264198Y-83060000D01*
X172339000Y-83060000D01*
X172096414Y-83108254D01*
X172048160Y-83117852D01*
X171801599Y-83282599D01*
X167452198Y-87632000D01*
X158208399Y-87632000D01*
X158220431Y-87614390D01*
X158271440Y-87362500D01*
X158271440Y-86219500D01*
X158255000Y-86132129D01*
X158255000Y-85234005D01*
X158255001Y-85234000D01*
X158187633Y-84895326D01*
X158187633Y-84895325D01*
X157995790Y-84608210D01*
X157995787Y-84608208D01*
X157597790Y-84210210D01*
X157449071Y-84110840D01*
X157310675Y-84018367D01*
X157254484Y-84007190D01*
X156972000Y-83950999D01*
X156971995Y-83951000D01*
X150353579Y-83951000D01*
X148707790Y-82305210D01*
X148420675Y-82113367D01*
X148364484Y-82102190D01*
X148082000Y-82045999D01*
X148081995Y-82046000D01*
X136398005Y-82046000D01*
X136398000Y-82045999D01*
X136115516Y-82102190D01*
X136059325Y-82113367D01*
X135772210Y-82305210D01*
X135772208Y-82305213D01*
X130692210Y-87385210D01*
X130500367Y-87672325D01*
X130500367Y-87672326D01*
X130432999Y-88011000D01*
X130433000Y-88011005D01*
X130433000Y-94360995D01*
X130432999Y-94361000D01*
X130483039Y-94612560D01*
X130500367Y-94699675D01*
X130649410Y-94922735D01*
X130692210Y-94986790D01*
X131631208Y-95925787D01*
X131631210Y-95925790D01*
X131763825Y-96014400D01*
X131918326Y-96117634D01*
X132172519Y-96168196D01*
X132259078Y-96377686D01*
X132794495Y-96914039D01*
X133494410Y-97204668D01*
X134252265Y-97205330D01*
X134952686Y-96915922D01*
X135173894Y-96695100D01*
X140635000Y-96695100D01*
X140635000Y-97099695D01*
X140634999Y-97099700D01*
X140676004Y-97305839D01*
X140702367Y-97438375D01*
X140870946Y-97690673D01*
X140894210Y-97725490D01*
X141111354Y-97942633D01*
X141028559Y-97995910D01*
X140883569Y-98208110D01*
X140832560Y-98460000D01*
X140832560Y-98622385D01*
X140759611Y-98446271D01*
X140529016Y-98390590D01*
X139809605Y-99110000D01*
X140529016Y-99829410D01*
X140759611Y-99773729D01*
X140832560Y-99564098D01*
X140832560Y-99760000D01*
X140876838Y-99995317D01*
X141015910Y-100211441D01*
X141228110Y-100356431D01*
X141480000Y-100407440D01*
X142175860Y-100407440D01*
X145725208Y-103956787D01*
X145725210Y-103956790D01*
X147679208Y-105910787D01*
X147679210Y-105910790D01*
X147692994Y-105920000D01*
X143510000Y-105920000D01*
X143219161Y-105977852D01*
X142972599Y-106142599D01*
X132502638Y-116612560D01*
X130985000Y-116612560D01*
X130749683Y-116656838D01*
X130533559Y-116795910D01*
X130388569Y-117008110D01*
X130337560Y-117260000D01*
X130337560Y-118960000D01*
X130381838Y-119195317D01*
X130520910Y-119411441D01*
X130733110Y-119556431D01*
X130985000Y-119607440D01*
X132985000Y-119607440D01*
X133220317Y-119563162D01*
X133436441Y-119424090D01*
X133581431Y-119211890D01*
X133632440Y-118960000D01*
X133632440Y-117632362D01*
X143824802Y-107440000D01*
X149860000Y-107440000D01*
X150150839Y-107382148D01*
X150397401Y-107217401D01*
X151092401Y-106522401D01*
X151195331Y-106368356D01*
X151319110Y-106452931D01*
X151571000Y-106503940D01*
X152079000Y-106503940D01*
X152314317Y-106459662D01*
X152455371Y-106368896D01*
X152481302Y-106394827D01*
X152714691Y-106491500D01*
X152809250Y-106491500D01*
X152968000Y-106332750D01*
X152968000Y-105412000D01*
X152948000Y-105412000D01*
X152948000Y-105158000D01*
X152968000Y-105158000D01*
X152968000Y-104237250D01*
X152809250Y-104078500D01*
X152714691Y-104078500D01*
X152572544Y-104137379D01*
X152560832Y-104078500D01*
X152527148Y-103909160D01*
X152362401Y-103662599D01*
X152319122Y-103619320D01*
X152319162Y-103573833D01*
X152289068Y-103501000D01*
X153632198Y-103501000D01*
X153497162Y-103826201D01*
X153496934Y-104087458D01*
X153475309Y-104078500D01*
X153380750Y-104078500D01*
X153222000Y-104237250D01*
X153222000Y-105158000D01*
X153242000Y-105158000D01*
X153242000Y-105412000D01*
X153222000Y-105412000D01*
X153222000Y-106332750D01*
X153380750Y-106491500D01*
X153475309Y-106491500D01*
X153708698Y-106394827D01*
X153735235Y-106368291D01*
X153859110Y-106452931D01*
X154111000Y-106503940D01*
X154454482Y-106503940D01*
X154411057Y-106521883D01*
X154147808Y-106784673D01*
X154005162Y-107128201D01*
X154004838Y-107500167D01*
X154146883Y-107843943D01*
X154409673Y-108107192D01*
X154753201Y-108249838D01*
X155125167Y-108250162D01*
X155468943Y-108108117D01*
X155732192Y-107845327D01*
X155874838Y-107501799D01*
X155874879Y-107454923D01*
X156172401Y-107157401D01*
X156337148Y-106910840D01*
X156363651Y-106777599D01*
X156395000Y-106620000D01*
X156395000Y-106450123D01*
X156399110Y-106452931D01*
X156651000Y-106503940D01*
X157159000Y-106503940D01*
X157394317Y-106459662D01*
X157540907Y-106365334D01*
X157669110Y-106452931D01*
X157921000Y-106503940D01*
X158429000Y-106503940D01*
X158664317Y-106459662D01*
X158880441Y-106320590D01*
X159025431Y-106108390D01*
X159076440Y-105856500D01*
X159076440Y-104713500D01*
X159032162Y-104478183D01*
X158893090Y-104262059D01*
X158680890Y-104117069D01*
X158429000Y-104066060D01*
X157921000Y-104066060D01*
X157769046Y-104094652D01*
X157722633Y-103861325D01*
X157594577Y-103669675D01*
X157530790Y-103574210D01*
X157530787Y-103574208D01*
X156316580Y-102360000D01*
X158181198Y-102360000D01*
X158593599Y-102772401D01*
X158840161Y-102937148D01*
X159131000Y-102995000D01*
X188254000Y-102995000D01*
X188544839Y-102937148D01*
X188791401Y-102772401D01*
X202977560Y-88586242D01*
X202977560Y-89615000D01*
X203021838Y-89850317D01*
X203128759Y-90016477D01*
X203028569Y-90163110D01*
X202977560Y-90415000D01*
X202977560Y-91615000D01*
X203021838Y-91850317D01*
X203128759Y-92016477D01*
X203028569Y-92163110D01*
X202977560Y-92415000D01*
X202977560Y-93615000D01*
X203021838Y-93850317D01*
X203128759Y-94016477D01*
X203028569Y-94163110D01*
X202977560Y-94415000D01*
X202977560Y-95615000D01*
X203021838Y-95850317D01*
X203128759Y-96016477D01*
X203028569Y-96163110D01*
X202977560Y-96415000D01*
X202977560Y-97615000D01*
X203021838Y-97850317D01*
X203128759Y-98016477D01*
X203028569Y-98163110D01*
X203009961Y-98255000D01*
X198619482Y-98255000D01*
X198306799Y-98125162D01*
X197934833Y-98124838D01*
X197591057Y-98266883D01*
X197327808Y-98529673D01*
X197185162Y-98873201D01*
X197184838Y-99245167D01*
X197326883Y-99588943D01*
X197589673Y-99852192D01*
X197933201Y-99994838D01*
X198305167Y-99995162D01*
X198648943Y-99853117D01*
X198727196Y-99775000D01*
X203007666Y-99775000D01*
X203021838Y-99850317D01*
X203128759Y-100016477D01*
X203028569Y-100163110D01*
X202977560Y-100415000D01*
X202977560Y-101615000D01*
X203021838Y-101850317D01*
X203160910Y-102066441D01*
X203373110Y-102211431D01*
X203625000Y-102262440D01*
X206625000Y-102262440D01*
X206860317Y-102218162D01*
X207076441Y-102079090D01*
X207221431Y-101866890D01*
X207272440Y-101615000D01*
X207272440Y-100415000D01*
X207228162Y-100179683D01*
X207121241Y-100013523D01*
X207221431Y-99866890D01*
X207272440Y-99615000D01*
X207272440Y-98415000D01*
X207228162Y-98179683D01*
X207121241Y-98013523D01*
X207221431Y-97866890D01*
X207272440Y-97615000D01*
X207272440Y-96415000D01*
X207228162Y-96179683D01*
X207121241Y-96013523D01*
X207221431Y-95866890D01*
X207272440Y-95615000D01*
X207272440Y-94415000D01*
X207228162Y-94179683D01*
X207121241Y-94013523D01*
X207221431Y-93866890D01*
X207272440Y-93615000D01*
X207272440Y-92415000D01*
X207228162Y-92179683D01*
X207121241Y-92013523D01*
X207221431Y-91866890D01*
X207272440Y-91615000D01*
X207272440Y-90415000D01*
X207228162Y-90179683D01*
X207121241Y-90013523D01*
X207221431Y-89866890D01*
X207272440Y-89615000D01*
X207272440Y-88415000D01*
X207228162Y-88179683D01*
X207121241Y-88013523D01*
X207221431Y-87866890D01*
X207272440Y-87615000D01*
X207272440Y-86415000D01*
X207228162Y-86179683D01*
X207089090Y-85963559D01*
X206876890Y-85818569D01*
X206625000Y-85767560D01*
X203625000Y-85767560D01*
X203389683Y-85811838D01*
X203173559Y-85950910D01*
X203028569Y-86163110D01*
X202977560Y-86415000D01*
X202977560Y-86450230D01*
X202936599Y-86477599D01*
X187939198Y-101475000D01*
X187572440Y-101475000D01*
X187572440Y-100415000D01*
X187528162Y-100179683D01*
X187421241Y-100013523D01*
X187521431Y-99866890D01*
X187572440Y-99615000D01*
X187572440Y-98415000D01*
X187528162Y-98179683D01*
X187421241Y-98013523D01*
X187521431Y-97866890D01*
X187572440Y-97615000D01*
X187572440Y-96415000D01*
X187528162Y-96179683D01*
X187421241Y-96013523D01*
X187521431Y-95866890D01*
X187572440Y-95615000D01*
X187572440Y-94415000D01*
X187528162Y-94179683D01*
X187421241Y-94013523D01*
X187521431Y-93866890D01*
X187572440Y-93615000D01*
X187572440Y-92415000D01*
X187528162Y-92179683D01*
X187422518Y-92015508D01*
X187463327Y-91974699D01*
X187560000Y-91741310D01*
X187560000Y-91300750D01*
X187401250Y-91142000D01*
X185552000Y-91142000D01*
X185552000Y-91162000D01*
X185298000Y-91162000D01*
X185298000Y-91142000D01*
X183448750Y-91142000D01*
X183290000Y-91300750D01*
X183290000Y-91741310D01*
X183386673Y-91974699D01*
X183428634Y-92016660D01*
X183328569Y-92163110D01*
X183309961Y-92255000D01*
X177975300Y-92255000D01*
X177684461Y-92312852D01*
X177437899Y-92477599D01*
X173717748Y-96197750D01*
X173689147Y-96154946D01*
X173359974Y-95935000D01*
X173689147Y-95715054D01*
X174011054Y-95233285D01*
X174124093Y-94665000D01*
X174011054Y-94096715D01*
X173689147Y-93614946D01*
X173207378Y-93293039D01*
X172639093Y-93180000D01*
X172580907Y-93180000D01*
X172012622Y-93293039D01*
X171530853Y-93614946D01*
X171341655Y-93898101D01*
X171341645Y-93898076D01*
X170951358Y-93469817D01*
X170426892Y-93223514D01*
X170197000Y-93344181D01*
X170197000Y-94538000D01*
X170217000Y-94538000D01*
X170217000Y-94792000D01*
X170197000Y-94792000D01*
X170197000Y-94812000D01*
X169943000Y-94812000D01*
X169943000Y-94792000D01*
X168749845Y-94792000D01*
X168628524Y-95021890D01*
X168724827Y-95254400D01*
X167637600Y-95254400D01*
X167395014Y-95302654D01*
X167346760Y-95312252D01*
X167100199Y-95476999D01*
X164602198Y-97975000D01*
X163067440Y-97975000D01*
X163067440Y-97660000D01*
X163043056Y-97530411D01*
X163067440Y-97410000D01*
X163067440Y-96860000D01*
X163043056Y-96730411D01*
X163067440Y-96610000D01*
X163067440Y-96060000D01*
X163047550Y-95954295D01*
X163055000Y-95936310D01*
X163055000Y-95820750D01*
X162958599Y-95724349D01*
X162884090Y-95608559D01*
X162776603Y-95535116D01*
X162871441Y-95474090D01*
X162960495Y-95343755D01*
X163055000Y-95249250D01*
X163055000Y-95133690D01*
X163046532Y-95113247D01*
X163067440Y-95010000D01*
X163067440Y-94522488D01*
X163142401Y-94472401D01*
X163306692Y-94308110D01*
X168628524Y-94308110D01*
X168749845Y-94538000D01*
X169943000Y-94538000D01*
X169943000Y-93344181D01*
X169713108Y-93223514D01*
X169188642Y-93469817D01*
X168798355Y-93898076D01*
X168628524Y-94308110D01*
X163306692Y-94308110D01*
X163605401Y-94009401D01*
X163770148Y-93762839D01*
X163828000Y-93472000D01*
X163828000Y-91440000D01*
X163770148Y-91149161D01*
X163770148Y-91149160D01*
X163605401Y-90902599D01*
X161854802Y-89152000D01*
X167767000Y-89152000D01*
X168057839Y-89094148D01*
X168304401Y-88929401D01*
X169133802Y-88100000D01*
X179367560Y-88100000D01*
X179367560Y-89800000D01*
X179411838Y-90035317D01*
X179550910Y-90251441D01*
X179763110Y-90396431D01*
X180015000Y-90447440D01*
X181715000Y-90447440D01*
X181950317Y-90403162D01*
X182166441Y-90264090D01*
X182311431Y-90051890D01*
X182355352Y-89835000D01*
X183318956Y-89835000D01*
X183321838Y-89850317D01*
X183427482Y-90014492D01*
X183386673Y-90055301D01*
X183290000Y-90288690D01*
X183290000Y-90729250D01*
X183448750Y-90888000D01*
X185298000Y-90888000D01*
X185298000Y-90868000D01*
X185552000Y-90868000D01*
X185552000Y-90888000D01*
X187401250Y-90888000D01*
X187560000Y-90729250D01*
X187560000Y-90288690D01*
X187463327Y-90055301D01*
X187421366Y-90013340D01*
X187521431Y-89866890D01*
X187572440Y-89615000D01*
X187572440Y-88415000D01*
X187528162Y-88179683D01*
X187422518Y-88015508D01*
X187463327Y-87974699D01*
X187560000Y-87741310D01*
X187560000Y-87300750D01*
X187401250Y-87142000D01*
X185552000Y-87142000D01*
X185552000Y-87162000D01*
X185298000Y-87162000D01*
X185298000Y-87142000D01*
X183448750Y-87142000D01*
X183290000Y-87300750D01*
X183290000Y-87741310D01*
X183386673Y-87974699D01*
X183428634Y-88016660D01*
X183395605Y-88065000D01*
X182355854Y-88065000D01*
X182318162Y-87864683D01*
X182179090Y-87648559D01*
X181966890Y-87503569D01*
X181715000Y-87452560D01*
X180015000Y-87452560D01*
X179779683Y-87496838D01*
X179563559Y-87635910D01*
X179418569Y-87848110D01*
X179367560Y-88100000D01*
X169133802Y-88100000D01*
X170945112Y-86288690D01*
X183290000Y-86288690D01*
X183290000Y-86729250D01*
X183448750Y-86888000D01*
X185298000Y-86888000D01*
X185298000Y-85938750D01*
X185552000Y-85938750D01*
X185552000Y-86888000D01*
X187401250Y-86888000D01*
X187560000Y-86729250D01*
X187560000Y-86288690D01*
X187463327Y-86055301D01*
X187284698Y-85876673D01*
X187051309Y-85780000D01*
X185710750Y-85780000D01*
X185552000Y-85938750D01*
X185298000Y-85938750D01*
X185139250Y-85780000D01*
X183798691Y-85780000D01*
X183565302Y-85876673D01*
X183386673Y-86055301D01*
X183290000Y-86288690D01*
X170945112Y-86288690D01*
X172653802Y-84580000D01*
X187579000Y-84580000D01*
X187869839Y-84522148D01*
X188116401Y-84357401D01*
X197316362Y-75157440D01*
X199215000Y-75157440D01*
X199450317Y-75113162D01*
X199666441Y-74974090D01*
X199811431Y-74761890D01*
X199862440Y-74510000D01*
X199862440Y-72810000D01*
X199818162Y-72574683D01*
X199679090Y-72358559D01*
X199466890Y-72213569D01*
X199215000Y-72162560D01*
X197215000Y-72162560D01*
X196979683Y-72206838D01*
X196763559Y-72345910D01*
X196618569Y-72558110D01*
X196567560Y-72810000D01*
X196567560Y-73756638D01*
X195862440Y-74461758D01*
X195862440Y-72810000D01*
X195818162Y-72574683D01*
X195679090Y-72358559D01*
X195466890Y-72213569D01*
X195215000Y-72162560D01*
X194435000Y-72162560D01*
X194435000Y-71697440D01*
X194475000Y-71697440D01*
X194710317Y-71653162D01*
X194926441Y-71514090D01*
X195071431Y-71301890D01*
X195106906Y-71126709D01*
X195290104Y-71354500D01*
X195783181Y-71624367D01*
X195865961Y-71641904D01*
X196088000Y-71519915D01*
X196088000Y-69977000D01*
X196068000Y-69977000D01*
X196068000Y-69723000D01*
X196088000Y-69723000D01*
X196088000Y-69703000D01*
X196342000Y-69703000D01*
X196342000Y-69723000D01*
X196362000Y-69723000D01*
X196362000Y-69977000D01*
X196342000Y-69977000D01*
X196342000Y-71519915D01*
X196564039Y-71641904D01*
X196646819Y-71624367D01*
X197139896Y-71354500D01*
X197487493Y-70922293D01*
X197740302Y-71300648D01*
X198205849Y-71611717D01*
X198755000Y-71720950D01*
X199304151Y-71611717D01*
X199769698Y-71300648D01*
X200080767Y-70835101D01*
X200190000Y-70285950D01*
X200190000Y-69414050D01*
X200132902Y-69127000D01*
X207290000Y-69127000D01*
X207290000Y-122373000D01*
X200202440Y-122373000D01*
X200202440Y-120720000D01*
X200158162Y-120484683D01*
X200019090Y-120268559D01*
X199806890Y-120123569D01*
X199555000Y-120072560D01*
X199515000Y-120072560D01*
X199515000Y-119521540D01*
X199666441Y-119424090D01*
X199811431Y-119211890D01*
X199862440Y-118960000D01*
X199862440Y-117260000D01*
X199818162Y-117024683D01*
X199679090Y-116808559D01*
X199466890Y-116663569D01*
X199215000Y-116612560D01*
X197215000Y-116612560D01*
X196979683Y-116656838D01*
X196763559Y-116795910D01*
X196618569Y-117008110D01*
X196567560Y-117260000D01*
X196567560Y-118960000D01*
X196611838Y-119195317D01*
X196750910Y-119411441D01*
X196963110Y-119556431D01*
X197215000Y-119607440D01*
X197995000Y-119607440D01*
X197995000Y-120072560D01*
X197955000Y-120072560D01*
X197719683Y-120116838D01*
X197503559Y-120255910D01*
X197358569Y-120468110D01*
X197323094Y-120643291D01*
X197139896Y-120415500D01*
X196646819Y-120145633D01*
X196564039Y-120128096D01*
X196342000Y-120250085D01*
X196342000Y-121793000D01*
X196362000Y-121793000D01*
X196362000Y-122047000D01*
X196342000Y-122047000D01*
X196342000Y-122067000D01*
X196088000Y-122067000D01*
X196088000Y-122047000D01*
X196068000Y-122047000D01*
X196068000Y-121793000D01*
X196088000Y-121793000D01*
X196088000Y-120250085D01*
X195865961Y-120128096D01*
X195783181Y-120145633D01*
X195290104Y-120415500D01*
X194942507Y-120847707D01*
X194689698Y-120469352D01*
X194224151Y-120158283D01*
X193675000Y-120049050D01*
X193125849Y-120158283D01*
X192660302Y-120469352D01*
X192349233Y-120934899D01*
X192240000Y-121484050D01*
X192240000Y-122355950D01*
X192243391Y-122373000D01*
X191312440Y-122373000D01*
X191312440Y-120720000D01*
X191268162Y-120484683D01*
X191129090Y-120268559D01*
X190916890Y-120123569D01*
X190665000Y-120072560D01*
X190625000Y-120072560D01*
X190625000Y-119521540D01*
X190776441Y-119424090D01*
X190921431Y-119211890D01*
X190972440Y-118960000D01*
X190972440Y-117260000D01*
X190928162Y-117024683D01*
X190789090Y-116808559D01*
X190576890Y-116663569D01*
X190325000Y-116612560D01*
X188325000Y-116612560D01*
X188089683Y-116656838D01*
X187873559Y-116795910D01*
X187728569Y-117008110D01*
X187677560Y-117260000D01*
X187677560Y-118960000D01*
X187721838Y-119195317D01*
X187860910Y-119411441D01*
X188073110Y-119556431D01*
X188325000Y-119607440D01*
X189105000Y-119607440D01*
X189105000Y-120072560D01*
X189065000Y-120072560D01*
X188829683Y-120116838D01*
X188613559Y-120255910D01*
X188468569Y-120468110D01*
X188433094Y-120643291D01*
X188249896Y-120415500D01*
X187756819Y-120145633D01*
X187674039Y-120128096D01*
X187452000Y-120250085D01*
X187452000Y-121793000D01*
X187472000Y-121793000D01*
X187472000Y-122047000D01*
X187452000Y-122047000D01*
X187452000Y-122067000D01*
X187198000Y-122067000D01*
X187198000Y-122047000D01*
X187178000Y-122047000D01*
X187178000Y-121793000D01*
X187198000Y-121793000D01*
X187198000Y-120250085D01*
X186975961Y-120128096D01*
X186893181Y-120145633D01*
X186400104Y-120415500D01*
X186052507Y-120847707D01*
X185799698Y-120469352D01*
X185334151Y-120158283D01*
X184785000Y-120049050D01*
X184235849Y-120158283D01*
X183770302Y-120469352D01*
X183459233Y-120934899D01*
X183350000Y-121484050D01*
X183350000Y-122355950D01*
X183353391Y-122373000D01*
X182422440Y-122373000D01*
X182422440Y-120720000D01*
X182378162Y-120484683D01*
X182239090Y-120268559D01*
X182026890Y-120123569D01*
X181775000Y-120072560D01*
X181735000Y-120072560D01*
X181735000Y-119521540D01*
X181886441Y-119424090D01*
X182031431Y-119211890D01*
X182082440Y-118960000D01*
X182082440Y-117260000D01*
X182038162Y-117024683D01*
X181899090Y-116808559D01*
X181686890Y-116663569D01*
X181435000Y-116612560D01*
X179435000Y-116612560D01*
X179199683Y-116656838D01*
X178983559Y-116795910D01*
X178838569Y-117008110D01*
X178787560Y-117260000D01*
X178787560Y-118960000D01*
X178831838Y-119195317D01*
X178970910Y-119411441D01*
X179183110Y-119556431D01*
X179435000Y-119607440D01*
X180215000Y-119607440D01*
X180215000Y-120072560D01*
X180175000Y-120072560D01*
X179939683Y-120116838D01*
X179723559Y-120255910D01*
X179578569Y-120468110D01*
X179543094Y-120643291D01*
X179359896Y-120415500D01*
X178866819Y-120145633D01*
X178784039Y-120128096D01*
X178562000Y-120250085D01*
X178562000Y-121793000D01*
X178582000Y-121793000D01*
X178582000Y-122047000D01*
X178562000Y-122047000D01*
X178562000Y-122067000D01*
X178308000Y-122067000D01*
X178308000Y-122047000D01*
X178288000Y-122047000D01*
X178288000Y-121793000D01*
X178308000Y-121793000D01*
X178308000Y-120250085D01*
X178085961Y-120128096D01*
X178003181Y-120145633D01*
X177510104Y-120415500D01*
X177162507Y-120847707D01*
X176909698Y-120469352D01*
X176444151Y-120158283D01*
X175895000Y-120049050D01*
X175345849Y-120158283D01*
X174880302Y-120469352D01*
X174569233Y-120934899D01*
X174460000Y-121484050D01*
X174460000Y-122355950D01*
X174463391Y-122373000D01*
X173532440Y-122373000D01*
X173532440Y-120720000D01*
X173488162Y-120484683D01*
X173349090Y-120268559D01*
X173136890Y-120123569D01*
X172885000Y-120072560D01*
X172845000Y-120072560D01*
X172845000Y-119521540D01*
X172996441Y-119424090D01*
X173141431Y-119211890D01*
X173192440Y-118960000D01*
X173192440Y-117260000D01*
X173148162Y-117024683D01*
X173009090Y-116808559D01*
X172796890Y-116663569D01*
X172545000Y-116612560D01*
X170545000Y-116612560D01*
X170309683Y-116656838D01*
X170093559Y-116795910D01*
X169948569Y-117008110D01*
X169897560Y-117260000D01*
X169897560Y-118960000D01*
X169941838Y-119195317D01*
X170080910Y-119411441D01*
X170293110Y-119556431D01*
X170545000Y-119607440D01*
X171325000Y-119607440D01*
X171325000Y-120072560D01*
X171285000Y-120072560D01*
X171049683Y-120116838D01*
X170833559Y-120255910D01*
X170688569Y-120468110D01*
X170653094Y-120643291D01*
X170469896Y-120415500D01*
X169976819Y-120145633D01*
X169894039Y-120128096D01*
X169672000Y-120250085D01*
X169672000Y-121793000D01*
X169692000Y-121793000D01*
X169692000Y-122047000D01*
X169672000Y-122047000D01*
X169672000Y-122067000D01*
X169418000Y-122067000D01*
X169418000Y-122047000D01*
X169398000Y-122047000D01*
X169398000Y-121793000D01*
X169418000Y-121793000D01*
X169418000Y-120250085D01*
X169195961Y-120128096D01*
X169113181Y-120145633D01*
X168620104Y-120415500D01*
X168272507Y-120847707D01*
X168019698Y-120469352D01*
X167554151Y-120158283D01*
X167005000Y-120049050D01*
X166455849Y-120158283D01*
X165990302Y-120469352D01*
X165679233Y-120934899D01*
X165570000Y-121484050D01*
X165570000Y-122355950D01*
X165573391Y-122373000D01*
X164642440Y-122373000D01*
X164642440Y-120720000D01*
X164598162Y-120484683D01*
X164459090Y-120268559D01*
X164246890Y-120123569D01*
X163995000Y-120072560D01*
X163955000Y-120072560D01*
X163955000Y-119607440D01*
X164290000Y-119607440D01*
X164525317Y-119563162D01*
X164741441Y-119424090D01*
X164886431Y-119211890D01*
X164937440Y-118960000D01*
X164937440Y-117260000D01*
X164893162Y-117024683D01*
X164754090Y-116808559D01*
X164541890Y-116663569D01*
X164290000Y-116612560D01*
X162290000Y-116612560D01*
X162054683Y-116656838D01*
X161838559Y-116795910D01*
X161693569Y-117008110D01*
X161642560Y-117260000D01*
X161642560Y-118960000D01*
X161686838Y-119195317D01*
X161825910Y-119411441D01*
X162038110Y-119556431D01*
X162290000Y-119607440D01*
X162435000Y-119607440D01*
X162435000Y-120072560D01*
X162395000Y-120072560D01*
X162159683Y-120116838D01*
X161943559Y-120255910D01*
X161798569Y-120468110D01*
X161763094Y-120643291D01*
X161579896Y-120415500D01*
X161086819Y-120145633D01*
X161004039Y-120128096D01*
X160782000Y-120250085D01*
X160782000Y-121793000D01*
X160802000Y-121793000D01*
X160802000Y-122047000D01*
X160782000Y-122047000D01*
X160782000Y-122067000D01*
X160528000Y-122067000D01*
X160528000Y-122047000D01*
X160508000Y-122047000D01*
X160508000Y-121793000D01*
X160528000Y-121793000D01*
X160528000Y-120250085D01*
X160305961Y-120128096D01*
X160223181Y-120145633D01*
X159730104Y-120415500D01*
X159382507Y-120847707D01*
X159129698Y-120469352D01*
X158664151Y-120158283D01*
X158115000Y-120049050D01*
X157565849Y-120158283D01*
X157100302Y-120469352D01*
X156789233Y-120934899D01*
X156680000Y-121484050D01*
X156680000Y-122355950D01*
X156683391Y-122373000D01*
X155752440Y-122373000D01*
X155752440Y-120720000D01*
X155708162Y-120484683D01*
X155569090Y-120268559D01*
X155356890Y-120123569D01*
X155105000Y-120072560D01*
X155065000Y-120072560D01*
X155065000Y-119607440D01*
X155400000Y-119607440D01*
X155635317Y-119563162D01*
X155851441Y-119424090D01*
X155996431Y-119211890D01*
X156047440Y-118960000D01*
X156047440Y-117260000D01*
X156003162Y-117024683D01*
X155964757Y-116965000D01*
X157070198Y-116965000D01*
X157642560Y-117537362D01*
X157642560Y-118960000D01*
X157686838Y-119195317D01*
X157825910Y-119411441D01*
X158038110Y-119556431D01*
X158290000Y-119607440D01*
X160290000Y-119607440D01*
X160525317Y-119563162D01*
X160741441Y-119424090D01*
X160886431Y-119211890D01*
X160937440Y-118960000D01*
X160937440Y-117260000D01*
X160893162Y-117024683D01*
X160754090Y-116808559D01*
X160541890Y-116663569D01*
X160290000Y-116612560D01*
X158867362Y-116612560D01*
X157949802Y-115695000D01*
X163896198Y-115695000D01*
X165897560Y-117696362D01*
X165897560Y-118960000D01*
X165941838Y-119195317D01*
X166080910Y-119411441D01*
X166293110Y-119556431D01*
X166545000Y-119607440D01*
X168545000Y-119607440D01*
X168780317Y-119563162D01*
X168996441Y-119424090D01*
X169141431Y-119211890D01*
X169192440Y-118960000D01*
X169192440Y-117260000D01*
X169148162Y-117024683D01*
X169009090Y-116808559D01*
X168796890Y-116663569D01*
X168545000Y-116612560D01*
X166963362Y-116612560D01*
X165410802Y-115060000D01*
X171262198Y-115060000D01*
X174787560Y-118585362D01*
X174787560Y-118960000D01*
X174831838Y-119195317D01*
X174970910Y-119411441D01*
X175183110Y-119556431D01*
X175435000Y-119607440D01*
X177435000Y-119607440D01*
X177670317Y-119563162D01*
X177886441Y-119424090D01*
X178031431Y-119211890D01*
X178082440Y-118960000D01*
X178082440Y-117260000D01*
X178038162Y-117024683D01*
X177899090Y-116808559D01*
X177686890Y-116663569D01*
X177435000Y-116612560D01*
X175435000Y-116612560D01*
X175199683Y-116656838D01*
X175083440Y-116731638D01*
X172776802Y-114425000D01*
X180533198Y-114425000D01*
X183677560Y-117569362D01*
X183677560Y-118960000D01*
X183721838Y-119195317D01*
X183860910Y-119411441D01*
X184073110Y-119556431D01*
X184325000Y-119607440D01*
X186325000Y-119607440D01*
X186560317Y-119563162D01*
X186776441Y-119424090D01*
X186921431Y-119211890D01*
X186972440Y-118960000D01*
X186972440Y-117260000D01*
X186928162Y-117024683D01*
X186789090Y-116808559D01*
X186576890Y-116663569D01*
X186325000Y-116612560D01*
X184870362Y-116612560D01*
X182047802Y-113790000D01*
X188788198Y-113790000D01*
X192567560Y-117569362D01*
X192567560Y-118960000D01*
X192611838Y-119195317D01*
X192750910Y-119411441D01*
X192963110Y-119556431D01*
X193215000Y-119607440D01*
X195215000Y-119607440D01*
X195450317Y-119563162D01*
X195666441Y-119424090D01*
X195811431Y-119211890D01*
X195862440Y-118960000D01*
X195862440Y-117260000D01*
X195818162Y-117024683D01*
X195679090Y-116808559D01*
X195466890Y-116663569D01*
X195215000Y-116612560D01*
X193760362Y-116612560D01*
X189640401Y-112492599D01*
X189393839Y-112327852D01*
X189103000Y-112270000D01*
X159064000Y-112270000D01*
X159064000Y-111920750D01*
X158905250Y-111762000D01*
X158302000Y-111762000D01*
X158302000Y-111782000D01*
X158048000Y-111782000D01*
X158048000Y-111762000D01*
X158028000Y-111762000D01*
X158028000Y-111508000D01*
X158048000Y-111508000D01*
X158048000Y-110587250D01*
X158302000Y-110587250D01*
X158302000Y-111508000D01*
X158905250Y-111508000D01*
X159064000Y-111349250D01*
X159064000Y-110937190D01*
X158967327Y-110703801D01*
X158788698Y-110525173D01*
X158555309Y-110428500D01*
X158460750Y-110428500D01*
X158302000Y-110587250D01*
X158048000Y-110587250D01*
X157889250Y-110428500D01*
X157794691Y-110428500D01*
X157561302Y-110525173D01*
X157534765Y-110551709D01*
X157410890Y-110467069D01*
X157159000Y-110416060D01*
X156651000Y-110416060D01*
X156415683Y-110460338D01*
X156269093Y-110554666D01*
X156140890Y-110467069D01*
X155889000Y-110416060D01*
X155381000Y-110416060D01*
X155145683Y-110460338D01*
X154999093Y-110554666D01*
X154870890Y-110467069D01*
X154619000Y-110416060D01*
X154111000Y-110416060D01*
X153875683Y-110460338D01*
X153729093Y-110554666D01*
X153600890Y-110467069D01*
X153349000Y-110416060D01*
X152841000Y-110416060D01*
X152605683Y-110460338D01*
X152459093Y-110554666D01*
X152330890Y-110467069D01*
X152079000Y-110416060D01*
X151571000Y-110416060D01*
X151335683Y-110460338D01*
X151189093Y-110554666D01*
X151060890Y-110467069D01*
X150809000Y-110416060D01*
X150301000Y-110416060D01*
X150065683Y-110460338D01*
X149919093Y-110554666D01*
X149790890Y-110467069D01*
X149539000Y-110416060D01*
X149031000Y-110416060D01*
X148795683Y-110460338D01*
X148579559Y-110599410D01*
X148434569Y-110811610D01*
X148421732Y-110875000D01*
X148334000Y-110875000D01*
X148043161Y-110932852D01*
X147796599Y-111097599D01*
X142281638Y-116612560D01*
X140510000Y-116612560D01*
X140274683Y-116656838D01*
X140058559Y-116795910D01*
X139913569Y-117008110D01*
X139862560Y-117260000D01*
X139862560Y-118960000D01*
X139906838Y-119195317D01*
X140045910Y-119411441D01*
X140258110Y-119556431D01*
X140510000Y-119607440D01*
X142510000Y-119607440D01*
X142745317Y-119563162D01*
X142961441Y-119424090D01*
X143106431Y-119211890D01*
X143157440Y-118960000D01*
X143157440Y-117886362D01*
X143882559Y-117161243D01*
X143862560Y-117260000D01*
X143862560Y-118960000D01*
X143906838Y-119195317D01*
X144045910Y-119411441D01*
X144258110Y-119556431D01*
X144510000Y-119607440D01*
X144655000Y-119607440D01*
X144655000Y-120072560D01*
X144615000Y-120072560D01*
X144379683Y-120116838D01*
X144163559Y-120255910D01*
X144018569Y-120468110D01*
X143983094Y-120643291D01*
X143799896Y-120415500D01*
X143306819Y-120145633D01*
X143224039Y-120128096D01*
X143002000Y-120250085D01*
X143002000Y-121793000D01*
X143022000Y-121793000D01*
X143022000Y-122047000D01*
X143002000Y-122047000D01*
X143002000Y-122067000D01*
X142748000Y-122067000D01*
X142748000Y-122047000D01*
X142728000Y-122047000D01*
X142728000Y-121793000D01*
X142748000Y-121793000D01*
X142748000Y-120250085D01*
X142525961Y-120128096D01*
X142443181Y-120145633D01*
X141950104Y-120415500D01*
X141602507Y-120847707D01*
X141349698Y-120469352D01*
X140884151Y-120158283D01*
X140335000Y-120049050D01*
X139785849Y-120158283D01*
X139320302Y-120469352D01*
X139009233Y-120934899D01*
X138900000Y-121484050D01*
X138900000Y-122355950D01*
X138903391Y-122373000D01*
X137972440Y-122373000D01*
X137972440Y-120720000D01*
X137928162Y-120484683D01*
X137789090Y-120268559D01*
X137576890Y-120123569D01*
X137325000Y-120072560D01*
X137285000Y-120072560D01*
X137285000Y-119521540D01*
X137436441Y-119424090D01*
X137581431Y-119211890D01*
X137632440Y-118960000D01*
X137632440Y-117260000D01*
X137588162Y-117024683D01*
X137449090Y-116808559D01*
X137236890Y-116663569D01*
X136985000Y-116612560D01*
X134985000Y-116612560D01*
X134749683Y-116656838D01*
X134533559Y-116795910D01*
X134388569Y-117008110D01*
X134337560Y-117260000D01*
X134337560Y-118960000D01*
X134381838Y-119195317D01*
X134520910Y-119411441D01*
X134733110Y-119556431D01*
X134985000Y-119607440D01*
X135765000Y-119607440D01*
X135765000Y-120072560D01*
X135725000Y-120072560D01*
X135489683Y-120116838D01*
X135273559Y-120255910D01*
X135128569Y-120468110D01*
X135093094Y-120643291D01*
X134909896Y-120415500D01*
X134416819Y-120145633D01*
X134334039Y-120128096D01*
X134112000Y-120250085D01*
X134112000Y-121793000D01*
X134132000Y-121793000D01*
X134132000Y-122047000D01*
X134112000Y-122047000D01*
X134112000Y-122067000D01*
X133858000Y-122067000D01*
X133858000Y-122047000D01*
X133838000Y-122047000D01*
X133838000Y-121793000D01*
X133858000Y-121793000D01*
X133858000Y-120250085D01*
X133635961Y-120128096D01*
X133553181Y-120145633D01*
X133060104Y-120415500D01*
X132712507Y-120847707D01*
X132459698Y-120469352D01*
X131994151Y-120158283D01*
X131445000Y-120049050D01*
X130895849Y-120158283D01*
X130430302Y-120469352D01*
X130119233Y-120934899D01*
X130010000Y-121484050D01*
X130010000Y-122355950D01*
X130013391Y-122373000D01*
X129710000Y-122373000D01*
X129710000Y-100009016D01*
X138910590Y-100009016D01*
X138966271Y-100239611D01*
X139449078Y-100407622D01*
X139959428Y-100378083D01*
X140293729Y-100239611D01*
X140349410Y-100009016D01*
X139630000Y-99289605D01*
X138910590Y-100009016D01*
X129710000Y-100009016D01*
X129710000Y-98929078D01*
X138332378Y-98929078D01*
X138361917Y-99439428D01*
X138500389Y-99773729D01*
X138730984Y-99829410D01*
X139450395Y-99110000D01*
X138730984Y-98390590D01*
X138500389Y-98446271D01*
X138332378Y-98929078D01*
X129710000Y-98929078D01*
X129710000Y-98210984D01*
X138910590Y-98210984D01*
X139630000Y-98930395D01*
X140349410Y-98210984D01*
X140293729Y-97980389D01*
X139810922Y-97812378D01*
X139300572Y-97841917D01*
X138966271Y-97980389D01*
X138910590Y-98210984D01*
X129710000Y-98210984D01*
X129710000Y-80726750D01*
X147591000Y-80726750D01*
X147591000Y-81138810D01*
X147687673Y-81372199D01*
X147866302Y-81550827D01*
X148099691Y-81647500D01*
X148194250Y-81647500D01*
X148353000Y-81488750D01*
X148353000Y-80568000D01*
X147749750Y-80568000D01*
X147591000Y-80726750D01*
X129710000Y-80726750D01*
X129710000Y-79743190D01*
X147591000Y-79743190D01*
X147591000Y-80155250D01*
X147749750Y-80314000D01*
X148353000Y-80314000D01*
X148353000Y-79393250D01*
X148194250Y-79234500D01*
X148099691Y-79234500D01*
X147866302Y-79331173D01*
X147687673Y-79509801D01*
X147591000Y-79743190D01*
X129710000Y-79743190D01*
X129710000Y-74549540D01*
X129746838Y-74745317D01*
X129885910Y-74961441D01*
X130098110Y-75106431D01*
X130350000Y-75157440D01*
X132350000Y-75157440D01*
X132585317Y-75113162D01*
X132801441Y-74974090D01*
X132946431Y-74761890D01*
X132997440Y-74510000D01*
X132997440Y-72810000D01*
X133702560Y-72810000D01*
X133702560Y-74510000D01*
X133746838Y-74745317D01*
X133885910Y-74961441D01*
X134098110Y-75106431D01*
X134350000Y-75157440D01*
X135042638Y-75157440D01*
X137892599Y-78007401D01*
X138139161Y-78172148D01*
X138430000Y-78230000D01*
X147640198Y-78230000D01*
X148705224Y-79295026D01*
X148607000Y-79393250D01*
X148607000Y-80314000D01*
X148627000Y-80314000D01*
X148627000Y-80568000D01*
X148607000Y-80568000D01*
X148607000Y-81488750D01*
X148765750Y-81647500D01*
X148860309Y-81647500D01*
X149093698Y-81550827D01*
X149120235Y-81524291D01*
X149244110Y-81608931D01*
X149496000Y-81659940D01*
X150004000Y-81659940D01*
X150239317Y-81615662D01*
X150385907Y-81521334D01*
X150514110Y-81608931D01*
X150766000Y-81659940D01*
X151274000Y-81659940D01*
X151509317Y-81615662D01*
X151655907Y-81521334D01*
X151784110Y-81608931D01*
X152036000Y-81659940D01*
X152544000Y-81659940D01*
X152779317Y-81615662D01*
X152925907Y-81521334D01*
X153054110Y-81608931D01*
X153306000Y-81659940D01*
X153814000Y-81659940D01*
X154049317Y-81615662D01*
X154195907Y-81521334D01*
X154324110Y-81608931D01*
X154576000Y-81659940D01*
X155084000Y-81659940D01*
X155319317Y-81615662D01*
X155465907Y-81521334D01*
X155594110Y-81608931D01*
X155846000Y-81659940D01*
X156354000Y-81659940D01*
X156589317Y-81615662D01*
X156735907Y-81521334D01*
X156864110Y-81608931D01*
X157116000Y-81659940D01*
X157624000Y-81659940D01*
X157859317Y-81615662D01*
X158075441Y-81476590D01*
X158220431Y-81264390D01*
X158233268Y-81201000D01*
X183084000Y-81201000D01*
X183374839Y-81143148D01*
X183621401Y-80978401D01*
X189442362Y-75157440D01*
X190325000Y-75157440D01*
X190560317Y-75113162D01*
X190776441Y-74974090D01*
X190921431Y-74761890D01*
X190972440Y-74510000D01*
X190972440Y-72810000D01*
X190928162Y-72574683D01*
X190789090Y-72358559D01*
X190576890Y-72213569D01*
X190325000Y-72162560D01*
X188325000Y-72162560D01*
X188089683Y-72206838D01*
X187873559Y-72345910D01*
X187728569Y-72558110D01*
X187677560Y-72810000D01*
X187677560Y-74510000D01*
X187719153Y-74731045D01*
X182769198Y-79681000D01*
X158235971Y-79681000D01*
X158227162Y-79634183D01*
X158140818Y-79500000D01*
X175260000Y-79500000D01*
X175550839Y-79442148D01*
X175797401Y-79277401D01*
X179917362Y-75157440D01*
X181435000Y-75157440D01*
X181670317Y-75113162D01*
X181886441Y-74974090D01*
X182031431Y-74761890D01*
X182082440Y-74510000D01*
X182082440Y-72810000D01*
X182038162Y-72574683D01*
X181899090Y-72358559D01*
X181686890Y-72213569D01*
X181435000Y-72162560D01*
X179435000Y-72162560D01*
X179199683Y-72206838D01*
X178983559Y-72345910D01*
X178838569Y-72558110D01*
X178787560Y-72810000D01*
X178787560Y-74137638D01*
X174945198Y-77980000D01*
X168839802Y-77980000D01*
X171662362Y-75157440D01*
X172545000Y-75157440D01*
X172780317Y-75113162D01*
X172996441Y-74974090D01*
X173141431Y-74761890D01*
X173192440Y-74510000D01*
X173192440Y-72810000D01*
X173148162Y-72574683D01*
X173009090Y-72358559D01*
X172796890Y-72213569D01*
X172545000Y-72162560D01*
X170545000Y-72162560D01*
X170309683Y-72206838D01*
X170093559Y-72345910D01*
X169948569Y-72558110D01*
X169897560Y-72810000D01*
X169897560Y-74510000D01*
X169939153Y-74731045D01*
X167960198Y-76710000D01*
X160584802Y-76710000D01*
X162137362Y-75157440D01*
X163655000Y-75157440D01*
X163890317Y-75113162D01*
X164106441Y-74974090D01*
X164251431Y-74761890D01*
X164302440Y-74510000D01*
X164302440Y-72810000D01*
X164258162Y-72574683D01*
X164119090Y-72358559D01*
X163906890Y-72213569D01*
X163655000Y-72162560D01*
X161655000Y-72162560D01*
X161419683Y-72206838D01*
X161203559Y-72345910D01*
X161058569Y-72558110D01*
X161007560Y-72810000D01*
X161007560Y-74137638D01*
X159705198Y-75440000D01*
X154940000Y-75440000D01*
X154649161Y-75497852D01*
X154402599Y-75662599D01*
X153872570Y-76192628D01*
X153890000Y-76105000D01*
X153890000Y-75157440D01*
X154130000Y-75157440D01*
X154365317Y-75113162D01*
X154581441Y-74974090D01*
X154726431Y-74761890D01*
X154777440Y-74510000D01*
X154777440Y-72810000D01*
X154733162Y-72574683D01*
X154594090Y-72358559D01*
X154381890Y-72213569D01*
X154130000Y-72162560D01*
X152130000Y-72162560D01*
X151894683Y-72206838D01*
X151678559Y-72345910D01*
X151533569Y-72558110D01*
X151482560Y-72810000D01*
X151482560Y-74510000D01*
X151526838Y-74745317D01*
X151665910Y-74961441D01*
X151878110Y-75106431D01*
X152130000Y-75157440D01*
X152370000Y-75157440D01*
X152370000Y-75790198D01*
X151752599Y-76407599D01*
X151587852Y-76654161D01*
X151530000Y-76945000D01*
X151530000Y-78065198D01*
X149127401Y-75662599D01*
X148880839Y-75497852D01*
X148590000Y-75440000D01*
X147634802Y-75440000D01*
X145887440Y-73692638D01*
X145887440Y-72810000D01*
X145843162Y-72574683D01*
X145704090Y-72358559D01*
X145491890Y-72213569D01*
X145240000Y-72162560D01*
X143240000Y-72162560D01*
X143004683Y-72206838D01*
X142788559Y-72345910D01*
X142643569Y-72558110D01*
X142592560Y-72810000D01*
X142592560Y-74510000D01*
X142636838Y-74745317D01*
X142775910Y-74961441D01*
X142988110Y-75106431D01*
X143240000Y-75157440D01*
X145202638Y-75157440D01*
X146755198Y-76710000D01*
X138744802Y-76710000D01*
X136885649Y-74850847D01*
X136946431Y-74761890D01*
X136997440Y-74510000D01*
X136997440Y-72810000D01*
X136953162Y-72574683D01*
X136814090Y-72358559D01*
X136601890Y-72213569D01*
X136350000Y-72162560D01*
X134350000Y-72162560D01*
X134114683Y-72206838D01*
X133898559Y-72345910D01*
X133753569Y-72558110D01*
X133702560Y-72810000D01*
X132997440Y-72810000D01*
X132953162Y-72574683D01*
X132814090Y-72358559D01*
X132601890Y-72213569D01*
X132350000Y-72162560D01*
X132205000Y-72162560D01*
X132205000Y-71697440D01*
X132245000Y-71697440D01*
X132480317Y-71653162D01*
X132696441Y-71514090D01*
X132841431Y-71301890D01*
X132876906Y-71126709D01*
X133060104Y-71354500D01*
X133553181Y-71624367D01*
X133635961Y-71641904D01*
X133858000Y-71519915D01*
X133858000Y-69977000D01*
X133838000Y-69977000D01*
X133838000Y-69723000D01*
X133858000Y-69723000D01*
X133858000Y-69703000D01*
X134112000Y-69703000D01*
X134112000Y-69723000D01*
X134132000Y-69723000D01*
X134132000Y-69977000D01*
X134112000Y-69977000D01*
X134112000Y-71519915D01*
X134334039Y-71641904D01*
X134416819Y-71624367D01*
X134909896Y-71354500D01*
X135257493Y-70922293D01*
X135510302Y-71300648D01*
X135975849Y-71611717D01*
X136525000Y-71720950D01*
X137074151Y-71611717D01*
X137539698Y-71300648D01*
X137850767Y-70835101D01*
X137960000Y-70285950D01*
X137960000Y-69414050D01*
X137902902Y-69127000D01*
X138887560Y-69127000D01*
X138887560Y-71050000D01*
G36*
X148566910Y-112657941D02*
X148779110Y-112802931D01*
X149031000Y-112853940D01*
X149539000Y-112853940D01*
X149774317Y-112809662D01*
X149795000Y-112796353D01*
X149795000Y-116612560D01*
X149400000Y-116612560D01*
X149164683Y-116656838D01*
X148948559Y-116795910D01*
X148803569Y-117008110D01*
X148752560Y-117260000D01*
X148752560Y-118960000D01*
X148796838Y-119195317D01*
X148935910Y-119411441D01*
X149148110Y-119556431D01*
X149400000Y-119607440D01*
X151400000Y-119607440D01*
X151635317Y-119563162D01*
X151851441Y-119424090D01*
X151996431Y-119211890D01*
X152047440Y-118960000D01*
X152047440Y-117260000D01*
X152003162Y-117024683D01*
X151864090Y-116808559D01*
X151651890Y-116663569D01*
X151400000Y-116612560D01*
X151315000Y-116612560D01*
X151315000Y-114924802D01*
X153093099Y-116702901D01*
X152948559Y-116795910D01*
X152803569Y-117008110D01*
X152752560Y-117260000D01*
X152752560Y-118960000D01*
X152796838Y-119195317D01*
X152935910Y-119411441D01*
X153148110Y-119556431D01*
X153400000Y-119607440D01*
X153545000Y-119607440D01*
X153545000Y-120072560D01*
X153505000Y-120072560D01*
X153269683Y-120116838D01*
X153053559Y-120255910D01*
X152908569Y-120468110D01*
X152873094Y-120643291D01*
X152689896Y-120415500D01*
X152196819Y-120145633D01*
X152114039Y-120128096D01*
X151892000Y-120250085D01*
X151892000Y-121793000D01*
X151912000Y-121793000D01*
X151912000Y-122047000D01*
X151892000Y-122047000D01*
X151892000Y-122067000D01*
X151638000Y-122067000D01*
X151638000Y-122047000D01*
X151618000Y-122047000D01*
X151618000Y-121793000D01*
X151638000Y-121793000D01*
X151638000Y-120250085D01*
X151415961Y-120128096D01*
X151333181Y-120145633D01*
X150840104Y-120415500D01*
X150492507Y-120847707D01*
X150239698Y-120469352D01*
X149774151Y-120158283D01*
X149225000Y-120049050D01*
X148675849Y-120158283D01*
X148210302Y-120469352D01*
X147899233Y-120934899D01*
X147790000Y-121484050D01*
X147790000Y-122355950D01*
X147793391Y-122373000D01*
X146862440Y-122373000D01*
X146862440Y-120720000D01*
X146818162Y-120484683D01*
X146679090Y-120268559D01*
X146466890Y-120123569D01*
X146215000Y-120072560D01*
X146175000Y-120072560D01*
X146175000Y-119607440D01*
X146510000Y-119607440D01*
X146745317Y-119563162D01*
X146961441Y-119424090D01*
X147106431Y-119211890D01*
X147157440Y-118960000D01*
X147157440Y-117260000D01*
X147113162Y-117024683D01*
X146974090Y-116808559D01*
X146761890Y-116663569D01*
X146510000Y-116612560D01*
X144510000Y-116612560D01*
X144412988Y-116630814D01*
X148496023Y-112547779D01*
X148566910Y-112657941D01*
X148566910Y-112657941D01*
G37*
X148566910Y-112657941D02*
X148779110Y-112802931D01*
X149031000Y-112853940D01*
X149539000Y-112853940D01*
X149774317Y-112809662D01*
X149795000Y-112796353D01*
X149795000Y-116612560D01*
X149400000Y-116612560D01*
X149164683Y-116656838D01*
X148948559Y-116795910D01*
X148803569Y-117008110D01*
X148752560Y-117260000D01*
X148752560Y-118960000D01*
X148796838Y-119195317D01*
X148935910Y-119411441D01*
X149148110Y-119556431D01*
X149400000Y-119607440D01*
X151400000Y-119607440D01*
X151635317Y-119563162D01*
X151851441Y-119424090D01*
X151996431Y-119211890D01*
X152047440Y-118960000D01*
X152047440Y-117260000D01*
X152003162Y-117024683D01*
X151864090Y-116808559D01*
X151651890Y-116663569D01*
X151400000Y-116612560D01*
X151315000Y-116612560D01*
X151315000Y-114924802D01*
X153093099Y-116702901D01*
X152948559Y-116795910D01*
X152803569Y-117008110D01*
X152752560Y-117260000D01*
X152752560Y-118960000D01*
X152796838Y-119195317D01*
X152935910Y-119411441D01*
X153148110Y-119556431D01*
X153400000Y-119607440D01*
X153545000Y-119607440D01*
X153545000Y-120072560D01*
X153505000Y-120072560D01*
X153269683Y-120116838D01*
X153053559Y-120255910D01*
X152908569Y-120468110D01*
X152873094Y-120643291D01*
X152689896Y-120415500D01*
X152196819Y-120145633D01*
X152114039Y-120128096D01*
X151892000Y-120250085D01*
X151892000Y-121793000D01*
X151912000Y-121793000D01*
X151912000Y-122047000D01*
X151892000Y-122047000D01*
X151892000Y-122067000D01*
X151638000Y-122067000D01*
X151638000Y-122047000D01*
X151618000Y-122047000D01*
X151618000Y-121793000D01*
X151638000Y-121793000D01*
X151638000Y-120250085D01*
X151415961Y-120128096D01*
X151333181Y-120145633D01*
X150840104Y-120415500D01*
X150492507Y-120847707D01*
X150239698Y-120469352D01*
X149774151Y-120158283D01*
X149225000Y-120049050D01*
X148675849Y-120158283D01*
X148210302Y-120469352D01*
X147899233Y-120934899D01*
X147790000Y-121484050D01*
X147790000Y-122355950D01*
X147793391Y-122373000D01*
X146862440Y-122373000D01*
X146862440Y-120720000D01*
X146818162Y-120484683D01*
X146679090Y-120268559D01*
X146466890Y-120123569D01*
X146215000Y-120072560D01*
X146175000Y-120072560D01*
X146175000Y-119607440D01*
X146510000Y-119607440D01*
X146745317Y-119563162D01*
X146961441Y-119424090D01*
X147106431Y-119211890D01*
X147157440Y-118960000D01*
X147157440Y-117260000D01*
X147113162Y-117024683D01*
X146974090Y-116808559D01*
X146761890Y-116663569D01*
X146510000Y-116612560D01*
X144510000Y-116612560D01*
X144412988Y-116630814D01*
X148496023Y-112547779D01*
X148566910Y-112657941D01*
G36*
X159095000Y-93132440D02*
X159284758Y-93132440D01*
X159228599Y-93188599D01*
X159063852Y-93435161D01*
X159021097Y-93650101D01*
X158991320Y-93679878D01*
X158945833Y-93679838D01*
X158602057Y-93821883D01*
X158338808Y-94084673D01*
X158196162Y-94428201D01*
X158195838Y-94800167D01*
X158337883Y-95143943D01*
X158600673Y-95407192D01*
X158944201Y-95549838D01*
X159316167Y-95550162D01*
X159659943Y-95408117D01*
X159923192Y-95145327D01*
X160065838Y-94801799D01*
X160065879Y-94754923D01*
X160172560Y-94648242D01*
X160172560Y-95010000D01*
X160192450Y-95115705D01*
X160185000Y-95133690D01*
X160185000Y-95249250D01*
X160281401Y-95345651D01*
X160355910Y-95461441D01*
X160463397Y-95534884D01*
X160368559Y-95595910D01*
X160279505Y-95726245D01*
X160185000Y-95820750D01*
X160185000Y-95936310D01*
X160193468Y-95956753D01*
X160172560Y-96060000D01*
X160172560Y-96610000D01*
X160196944Y-96739589D01*
X160172560Y-96860000D01*
X160172560Y-97410000D01*
X160196944Y-97539589D01*
X160172560Y-97660000D01*
X160172560Y-98210000D01*
X160196944Y-98339589D01*
X160172560Y-98460000D01*
X160172560Y-98737560D01*
X159895000Y-98737560D01*
X159765411Y-98761944D01*
X159645000Y-98737560D01*
X159330000Y-98737560D01*
X159330000Y-98691583D01*
X159447838Y-98407799D01*
X159448162Y-98035833D01*
X159306117Y-97692057D01*
X159043327Y-97428808D01*
X158699799Y-97286162D01*
X158327833Y-97285838D01*
X157984057Y-97427883D01*
X157720808Y-97690673D01*
X157578162Y-98034201D01*
X157577838Y-98406167D01*
X157714766Y-98737560D01*
X157495000Y-98737560D01*
X157365411Y-98761944D01*
X157245000Y-98737560D01*
X156695000Y-98737560D01*
X156565411Y-98761944D01*
X156445000Y-98737560D01*
X155895000Y-98737560D01*
X155765411Y-98761944D01*
X155645000Y-98737560D01*
X155095000Y-98737560D01*
X154965411Y-98761944D01*
X154845000Y-98737560D01*
X154567440Y-98737560D01*
X154567440Y-98460000D01*
X154543056Y-98330411D01*
X154567440Y-98210000D01*
X154567440Y-97660000D01*
X154543056Y-97530411D01*
X154567440Y-97410000D01*
X154567440Y-96860000D01*
X154547550Y-96754295D01*
X154555000Y-96736310D01*
X154555000Y-96620750D01*
X154458599Y-96524349D01*
X154384090Y-96408559D01*
X154276603Y-96335116D01*
X154371441Y-96274090D01*
X154460495Y-96143755D01*
X154555000Y-96049250D01*
X154555000Y-95933690D01*
X154546532Y-95913247D01*
X154567440Y-95810000D01*
X154567440Y-95260000D01*
X154547550Y-95154295D01*
X154555000Y-95136310D01*
X154555000Y-95020750D01*
X154458599Y-94924349D01*
X154384090Y-94808559D01*
X154276603Y-94735116D01*
X154371441Y-94674090D01*
X154460495Y-94543755D01*
X154555000Y-94449250D01*
X154555000Y-94333690D01*
X154546532Y-94313247D01*
X154567440Y-94210000D01*
X154567440Y-94047242D01*
X154639878Y-94119680D01*
X154639838Y-94165167D01*
X154781883Y-94508943D01*
X155044673Y-94772192D01*
X155388201Y-94914838D01*
X155760167Y-94915162D01*
X156103943Y-94773117D01*
X156367192Y-94510327D01*
X156451584Y-94307090D01*
X156458673Y-94314192D01*
X156802201Y-94456838D01*
X157174167Y-94457162D01*
X157517943Y-94315117D01*
X157781192Y-94052327D01*
X157923838Y-93708799D01*
X157924162Y-93336833D01*
X157839709Y-93132440D01*
X158045000Y-93132440D01*
X158174589Y-93108056D01*
X158295000Y-93132440D01*
X158845000Y-93132440D01*
X158974589Y-93108056D01*
X159095000Y-93132440D01*
X159095000Y-93132440D01*
G37*
X159095000Y-93132440D02*
X159284758Y-93132440D01*
X159228599Y-93188599D01*
X159063852Y-93435161D01*
X159021097Y-93650101D01*
X158991320Y-93679878D01*
X158945833Y-93679838D01*
X158602057Y-93821883D01*
X158338808Y-94084673D01*
X158196162Y-94428201D01*
X158195838Y-94800167D01*
X158337883Y-95143943D01*
X158600673Y-95407192D01*
X158944201Y-95549838D01*
X159316167Y-95550162D01*
X159659943Y-95408117D01*
X159923192Y-95145327D01*
X160065838Y-94801799D01*
X160065879Y-94754923D01*
X160172560Y-94648242D01*
X160172560Y-95010000D01*
X160192450Y-95115705D01*
X160185000Y-95133690D01*
X160185000Y-95249250D01*
X160281401Y-95345651D01*
X160355910Y-95461441D01*
X160463397Y-95534884D01*
X160368559Y-95595910D01*
X160279505Y-95726245D01*
X160185000Y-95820750D01*
X160185000Y-95936310D01*
X160193468Y-95956753D01*
X160172560Y-96060000D01*
X160172560Y-96610000D01*
X160196944Y-96739589D01*
X160172560Y-96860000D01*
X160172560Y-97410000D01*
X160196944Y-97539589D01*
X160172560Y-97660000D01*
X160172560Y-98210000D01*
X160196944Y-98339589D01*
X160172560Y-98460000D01*
X160172560Y-98737560D01*
X159895000Y-98737560D01*
X159765411Y-98761944D01*
X159645000Y-98737560D01*
X159330000Y-98737560D01*
X159330000Y-98691583D01*
X159447838Y-98407799D01*
X159448162Y-98035833D01*
X159306117Y-97692057D01*
X159043327Y-97428808D01*
X158699799Y-97286162D01*
X158327833Y-97285838D01*
X157984057Y-97427883D01*
X157720808Y-97690673D01*
X157578162Y-98034201D01*
X157577838Y-98406167D01*
X157714766Y-98737560D01*
X157495000Y-98737560D01*
X157365411Y-98761944D01*
X157245000Y-98737560D01*
X156695000Y-98737560D01*
X156565411Y-98761944D01*
X156445000Y-98737560D01*
X155895000Y-98737560D01*
X155765411Y-98761944D01*
X155645000Y-98737560D01*
X155095000Y-98737560D01*
X154965411Y-98761944D01*
X154845000Y-98737560D01*
X154567440Y-98737560D01*
X154567440Y-98460000D01*
X154543056Y-98330411D01*
X154567440Y-98210000D01*
X154567440Y-97660000D01*
X154543056Y-97530411D01*
X154567440Y-97410000D01*
X154567440Y-96860000D01*
X154547550Y-96754295D01*
X154555000Y-96736310D01*
X154555000Y-96620750D01*
X154458599Y-96524349D01*
X154384090Y-96408559D01*
X154276603Y-96335116D01*
X154371441Y-96274090D01*
X154460495Y-96143755D01*
X154555000Y-96049250D01*
X154555000Y-95933690D01*
X154546532Y-95913247D01*
X154567440Y-95810000D01*
X154567440Y-95260000D01*
X154547550Y-95154295D01*
X154555000Y-95136310D01*
X154555000Y-95020750D01*
X154458599Y-94924349D01*
X154384090Y-94808559D01*
X154276603Y-94735116D01*
X154371441Y-94674090D01*
X154460495Y-94543755D01*
X154555000Y-94449250D01*
X154555000Y-94333690D01*
X154546532Y-94313247D01*
X154567440Y-94210000D01*
X154567440Y-94047242D01*
X154639878Y-94119680D01*
X154639838Y-94165167D01*
X154781883Y-94508943D01*
X155044673Y-94772192D01*
X155388201Y-94914838D01*
X155760167Y-94915162D01*
X156103943Y-94773117D01*
X156367192Y-94510327D01*
X156451584Y-94307090D01*
X156458673Y-94314192D01*
X156802201Y-94456838D01*
X157174167Y-94457162D01*
X157517943Y-94315117D01*
X157781192Y-94052327D01*
X157923838Y-93708799D01*
X157924162Y-93336833D01*
X157839709Y-93132440D01*
X158045000Y-93132440D01*
X158174589Y-93108056D01*
X158295000Y-93132440D01*
X158845000Y-93132440D01*
X158974589Y-93108056D01*
X159095000Y-93132440D01*
G36*
X148865000Y-84965579D02*
X148865000Y-85598588D01*
X148734000Y-85572060D01*
X148226000Y-85572060D01*
X147990683Y-85616338D01*
X147774559Y-85755410D01*
X147629569Y-85967610D01*
X147578560Y-86219500D01*
X147578560Y-87362500D01*
X147622838Y-87597817D01*
X147720000Y-87748811D01*
X147720000Y-87812567D01*
X147670808Y-87861673D01*
X147528162Y-88205201D01*
X147527838Y-88577167D01*
X147669883Y-88920943D01*
X147932673Y-89184192D01*
X148276201Y-89326838D01*
X148648167Y-89327162D01*
X148991943Y-89185117D01*
X149255192Y-88922327D01*
X149397838Y-88578799D01*
X149398162Y-88206833D01*
X149300445Y-87970339D01*
X149496000Y-88009940D01*
X150004000Y-88009940D01*
X150239317Y-87965662D01*
X150260000Y-87952353D01*
X150260000Y-88917000D01*
X150317852Y-89207839D01*
X150482599Y-89454401D01*
X151518338Y-90490140D01*
X151465162Y-90618201D01*
X151464838Y-90990167D01*
X151606883Y-91333943D01*
X151869673Y-91597192D01*
X152213201Y-91739838D01*
X152585167Y-91740162D01*
X152928943Y-91598117D01*
X153192192Y-91335327D01*
X153307764Y-91057000D01*
X153647560Y-91057000D01*
X153647560Y-92212560D01*
X152320000Y-92212560D01*
X152084683Y-92256838D01*
X151868559Y-92395910D01*
X151723569Y-92608110D01*
X151672560Y-92860000D01*
X151672560Y-93410000D01*
X151696944Y-93539589D01*
X151672560Y-93660000D01*
X151672560Y-94210000D01*
X151692450Y-94315705D01*
X151685000Y-94333690D01*
X151685000Y-94449250D01*
X151781401Y-94545651D01*
X151855910Y-94661441D01*
X151963397Y-94734884D01*
X151871527Y-94794000D01*
X149440304Y-94794000D01*
X149467440Y-94660000D01*
X149467440Y-90860000D01*
X149423162Y-90624683D01*
X149284090Y-90408559D01*
X149071890Y-90263569D01*
X148820000Y-90212560D01*
X146820000Y-90212560D01*
X146584683Y-90256838D01*
X146368559Y-90395910D01*
X146223569Y-90608110D01*
X146172560Y-90860000D01*
X146172560Y-94660000D01*
X146197774Y-94794000D01*
X146000802Y-94794000D01*
X144146125Y-92939323D01*
X144327633Y-92667675D01*
X144365442Y-92477599D01*
X144395001Y-92329000D01*
X144395000Y-92328995D01*
X144395000Y-86487005D01*
X144395001Y-86487000D01*
X144338810Y-86204516D01*
X144327633Y-86148325D01*
X144135790Y-85861210D01*
X144135787Y-85861208D01*
X142792440Y-84517860D01*
X142792440Y-84490000D01*
X142748162Y-84254683D01*
X142609090Y-84038559D01*
X142396890Y-83893569D01*
X142145000Y-83842560D01*
X140845000Y-83842560D01*
X140609683Y-83886838D01*
X140393559Y-84025910D01*
X140248569Y-84238110D01*
X140197560Y-84490000D01*
X140197560Y-84652385D01*
X140124611Y-84476271D01*
X139894016Y-84420590D01*
X139174605Y-85140000D01*
X139894016Y-85859410D01*
X140124611Y-85803729D01*
X140197560Y-85594098D01*
X140197560Y-85790000D01*
X140241838Y-86025317D01*
X140380910Y-86241441D01*
X140593110Y-86386431D01*
X140845000Y-86437440D01*
X142145000Y-86437440D01*
X142198747Y-86427327D01*
X142625000Y-86853579D01*
X142625000Y-89075000D01*
X141805750Y-89075000D01*
X141647000Y-89233750D01*
X141647000Y-90333000D01*
X141667000Y-90333000D01*
X141667000Y-90587000D01*
X141647000Y-90587000D01*
X141647000Y-90607000D01*
X141393000Y-90607000D01*
X141393000Y-90587000D01*
X140043750Y-90587000D01*
X139885000Y-90745750D01*
X139885000Y-91336310D01*
X139981673Y-91569699D01*
X140023634Y-91611660D01*
X139923569Y-91758110D01*
X139872560Y-92010000D01*
X139872560Y-93510000D01*
X139916838Y-93745317D01*
X140023759Y-93911477D01*
X139923569Y-94058110D01*
X139872560Y-94310000D01*
X139872560Y-94925100D01*
X135780328Y-94925100D01*
X135780330Y-94922735D01*
X135490922Y-94222314D01*
X134955505Y-93685961D01*
X134255590Y-93395332D01*
X133497735Y-93394670D01*
X132797314Y-93684078D01*
X132344591Y-94136011D01*
X132203000Y-93994420D01*
X132203000Y-91986026D01*
X132245301Y-92028327D01*
X132478690Y-92125000D01*
X133589250Y-92125000D01*
X133748000Y-91966250D01*
X133748000Y-90347000D01*
X134002000Y-90347000D01*
X134002000Y-91966250D01*
X134160750Y-92125000D01*
X135271310Y-92125000D01*
X135504699Y-92028327D01*
X135683327Y-91849698D01*
X135780000Y-91616309D01*
X135780000Y-90505750D01*
X135621250Y-90347000D01*
X134002000Y-90347000D01*
X133748000Y-90347000D01*
X133728000Y-90347000D01*
X133728000Y-90093000D01*
X133748000Y-90093000D01*
X133748000Y-88473750D01*
X134002000Y-88473750D01*
X134002000Y-90093000D01*
X135621250Y-90093000D01*
X135780000Y-89934250D01*
X135780000Y-89583690D01*
X139885000Y-89583690D01*
X139885000Y-90174250D01*
X140043750Y-90333000D01*
X141393000Y-90333000D01*
X141393000Y-89233750D01*
X141234250Y-89075000D01*
X140393691Y-89075000D01*
X140160302Y-89171673D01*
X139981673Y-89350301D01*
X139885000Y-89583690D01*
X135780000Y-89583690D01*
X135780000Y-88823691D01*
X135683327Y-88590302D01*
X135504699Y-88411673D01*
X135271310Y-88315000D01*
X134160750Y-88315000D01*
X134002000Y-88473750D01*
X133748000Y-88473750D01*
X133589250Y-88315000D01*
X132478690Y-88315000D01*
X132245301Y-88411673D01*
X132203000Y-88453974D01*
X132203000Y-88377580D01*
X134541563Y-86039016D01*
X138275590Y-86039016D01*
X138331271Y-86269611D01*
X138814078Y-86437622D01*
X139324428Y-86408083D01*
X139658729Y-86269611D01*
X139714410Y-86039016D01*
X138995000Y-85319605D01*
X138275590Y-86039016D01*
X134541563Y-86039016D01*
X135621501Y-84959078D01*
X137697378Y-84959078D01*
X137726917Y-85469428D01*
X137865389Y-85803729D01*
X138095984Y-85859410D01*
X138815395Y-85140000D01*
X138095984Y-84420590D01*
X137865389Y-84476271D01*
X137697378Y-84959078D01*
X135621501Y-84959078D01*
X136339595Y-84240984D01*
X138275590Y-84240984D01*
X138995000Y-84960395D01*
X139714410Y-84240984D01*
X139658729Y-84010389D01*
X139175922Y-83842378D01*
X138665572Y-83871917D01*
X138331271Y-84010389D01*
X138275590Y-84240984D01*
X136339595Y-84240984D01*
X136764579Y-83816000D01*
X147715420Y-83816000D01*
X148865000Y-84965579D01*
X148865000Y-84965579D01*
G37*
X148865000Y-84965579D02*
X148865000Y-85598588D01*
X148734000Y-85572060D01*
X148226000Y-85572060D01*
X147990683Y-85616338D01*
X147774559Y-85755410D01*
X147629569Y-85967610D01*
X147578560Y-86219500D01*
X147578560Y-87362500D01*
X147622838Y-87597817D01*
X147720000Y-87748811D01*
X147720000Y-87812567D01*
X147670808Y-87861673D01*
X147528162Y-88205201D01*
X147527838Y-88577167D01*
X147669883Y-88920943D01*
X147932673Y-89184192D01*
X148276201Y-89326838D01*
X148648167Y-89327162D01*
X148991943Y-89185117D01*
X149255192Y-88922327D01*
X149397838Y-88578799D01*
X149398162Y-88206833D01*
X149300445Y-87970339D01*
X149496000Y-88009940D01*
X150004000Y-88009940D01*
X150239317Y-87965662D01*
X150260000Y-87952353D01*
X150260000Y-88917000D01*
X150317852Y-89207839D01*
X150482599Y-89454401D01*
X151518338Y-90490140D01*
X151465162Y-90618201D01*
X151464838Y-90990167D01*
X151606883Y-91333943D01*
X151869673Y-91597192D01*
X152213201Y-91739838D01*
X152585167Y-91740162D01*
X152928943Y-91598117D01*
X153192192Y-91335327D01*
X153307764Y-91057000D01*
X153647560Y-91057000D01*
X153647560Y-92212560D01*
X152320000Y-92212560D01*
X152084683Y-92256838D01*
X151868559Y-92395910D01*
X151723569Y-92608110D01*
X151672560Y-92860000D01*
X151672560Y-93410000D01*
X151696944Y-93539589D01*
X151672560Y-93660000D01*
X151672560Y-94210000D01*
X151692450Y-94315705D01*
X151685000Y-94333690D01*
X151685000Y-94449250D01*
X151781401Y-94545651D01*
X151855910Y-94661441D01*
X151963397Y-94734884D01*
X151871527Y-94794000D01*
X149440304Y-94794000D01*
X149467440Y-94660000D01*
X149467440Y-90860000D01*
X149423162Y-90624683D01*
X149284090Y-90408559D01*
X149071890Y-90263569D01*
X148820000Y-90212560D01*
X146820000Y-90212560D01*
X146584683Y-90256838D01*
X146368559Y-90395910D01*
X146223569Y-90608110D01*
X146172560Y-90860000D01*
X146172560Y-94660000D01*
X146197774Y-94794000D01*
X146000802Y-94794000D01*
X144146125Y-92939323D01*
X144327633Y-92667675D01*
X144365442Y-92477599D01*
X144395001Y-92329000D01*
X144395000Y-92328995D01*
X144395000Y-86487005D01*
X144395001Y-86487000D01*
X144338810Y-86204516D01*
X144327633Y-86148325D01*
X144135790Y-85861210D01*
X144135787Y-85861208D01*
X142792440Y-84517860D01*
X142792440Y-84490000D01*
X142748162Y-84254683D01*
X142609090Y-84038559D01*
X142396890Y-83893569D01*
X142145000Y-83842560D01*
X140845000Y-83842560D01*
X140609683Y-83886838D01*
X140393559Y-84025910D01*
X140248569Y-84238110D01*
X140197560Y-84490000D01*
X140197560Y-84652385D01*
X140124611Y-84476271D01*
X139894016Y-84420590D01*
X139174605Y-85140000D01*
X139894016Y-85859410D01*
X140124611Y-85803729D01*
X140197560Y-85594098D01*
X140197560Y-85790000D01*
X140241838Y-86025317D01*
X140380910Y-86241441D01*
X140593110Y-86386431D01*
X140845000Y-86437440D01*
X142145000Y-86437440D01*
X142198747Y-86427327D01*
X142625000Y-86853579D01*
X142625000Y-89075000D01*
X141805750Y-89075000D01*
X141647000Y-89233750D01*
X141647000Y-90333000D01*
X141667000Y-90333000D01*
X141667000Y-90587000D01*
X141647000Y-90587000D01*
X141647000Y-90607000D01*
X141393000Y-90607000D01*
X141393000Y-90587000D01*
X140043750Y-90587000D01*
X139885000Y-90745750D01*
X139885000Y-91336310D01*
X139981673Y-91569699D01*
X140023634Y-91611660D01*
X139923569Y-91758110D01*
X139872560Y-92010000D01*
X139872560Y-93510000D01*
X139916838Y-93745317D01*
X140023759Y-93911477D01*
X139923569Y-94058110D01*
X139872560Y-94310000D01*
X139872560Y-94925100D01*
X135780328Y-94925100D01*
X135780330Y-94922735D01*
X135490922Y-94222314D01*
X134955505Y-93685961D01*
X134255590Y-93395332D01*
X133497735Y-93394670D01*
X132797314Y-93684078D01*
X132344591Y-94136011D01*
X132203000Y-93994420D01*
X132203000Y-91986026D01*
X132245301Y-92028327D01*
X132478690Y-92125000D01*
X133589250Y-92125000D01*
X133748000Y-91966250D01*
X133748000Y-90347000D01*
X134002000Y-90347000D01*
X134002000Y-91966250D01*
X134160750Y-92125000D01*
X135271310Y-92125000D01*
X135504699Y-92028327D01*
X135683327Y-91849698D01*
X135780000Y-91616309D01*
X135780000Y-90505750D01*
X135621250Y-90347000D01*
X134002000Y-90347000D01*
X133748000Y-90347000D01*
X133728000Y-90347000D01*
X133728000Y-90093000D01*
X133748000Y-90093000D01*
X133748000Y-88473750D01*
X134002000Y-88473750D01*
X134002000Y-90093000D01*
X135621250Y-90093000D01*
X135780000Y-89934250D01*
X135780000Y-89583690D01*
X139885000Y-89583690D01*
X139885000Y-90174250D01*
X140043750Y-90333000D01*
X141393000Y-90333000D01*
X141393000Y-89233750D01*
X141234250Y-89075000D01*
X140393691Y-89075000D01*
X140160302Y-89171673D01*
X139981673Y-89350301D01*
X139885000Y-89583690D01*
X135780000Y-89583690D01*
X135780000Y-88823691D01*
X135683327Y-88590302D01*
X135504699Y-88411673D01*
X135271310Y-88315000D01*
X134160750Y-88315000D01*
X134002000Y-88473750D01*
X133748000Y-88473750D01*
X133589250Y-88315000D01*
X132478690Y-88315000D01*
X132245301Y-88411673D01*
X132203000Y-88453974D01*
X132203000Y-88377580D01*
X134541563Y-86039016D01*
X138275590Y-86039016D01*
X138331271Y-86269611D01*
X138814078Y-86437622D01*
X139324428Y-86408083D01*
X139658729Y-86269611D01*
X139714410Y-86039016D01*
X138995000Y-85319605D01*
X138275590Y-86039016D01*
X134541563Y-86039016D01*
X135621501Y-84959078D01*
X137697378Y-84959078D01*
X137726917Y-85469428D01*
X137865389Y-85803729D01*
X138095984Y-85859410D01*
X138815395Y-85140000D01*
X138095984Y-84420590D01*
X137865389Y-84476271D01*
X137697378Y-84959078D01*
X135621501Y-84959078D01*
X136339595Y-84240984D01*
X138275590Y-84240984D01*
X138995000Y-84960395D01*
X139714410Y-84240984D01*
X139658729Y-84010389D01*
X139175922Y-83842378D01*
X138665572Y-83871917D01*
X138331271Y-84010389D01*
X138275590Y-84240984D01*
X136339595Y-84240984D01*
X136764579Y-83816000D01*
X147715420Y-83816000D01*
X148865000Y-84965579D01*
G36*
X153687000Y-86664000D02*
X153707000Y-86664000D01*
X153707000Y-86918000D01*
X153687000Y-86918000D01*
X153687000Y-87838750D01*
X153845750Y-87997500D01*
X153940309Y-87997500D01*
X154070000Y-87943780D01*
X154070000Y-88409000D01*
X154127852Y-88699839D01*
X154262931Y-88902000D01*
X153095802Y-88902000D01*
X153050000Y-88856198D01*
X153050000Y-87943780D01*
X153179691Y-87997500D01*
X153274250Y-87997500D01*
X153433000Y-87838750D01*
X153433000Y-86918000D01*
X153413000Y-86918000D01*
X153413000Y-86664000D01*
X153433000Y-86664000D01*
X153433000Y-86644000D01*
X153687000Y-86644000D01*
X153687000Y-86664000D01*
X153687000Y-86664000D01*
G37*
X153687000Y-86664000D02*
X153707000Y-86664000D01*
X153707000Y-86918000D01*
X153687000Y-86918000D01*
X153687000Y-87838750D01*
X153845750Y-87997500D01*
X153940309Y-87997500D01*
X154070000Y-87943780D01*
X154070000Y-88409000D01*
X154127852Y-88699839D01*
X154262931Y-88902000D01*
X153095802Y-88902000D01*
X153050000Y-88856198D01*
X153050000Y-87943780D01*
X153179691Y-87997500D01*
X153274250Y-87997500D01*
X153433000Y-87838750D01*
X153433000Y-86918000D01*
X153413000Y-86918000D01*
X153413000Y-86664000D01*
X153433000Y-86664000D01*
X153433000Y-86644000D01*
X153687000Y-86644000D01*
X153687000Y-86664000D01*
M02*
