G04 #@! TF.FileFunction,Copper,L2,Bot,Signal*
%FSLAX46Y46*%
G04 Gerber Fmt 4.6, Leading zero omitted, Abs format (unit mm)*
G04 Created by KiCad (PCBNEW 4.0.5-e0-6337~49~ubuntu16.04.1) date Tue Jan 17 08:40:45 2017*
%MOMM*%
%LPD*%
G01*
G04 APERTURE LIST*
%ADD10C,0.100000*%
%ADD11R,2.540000X2.540000*%
%ADD12C,2.540000*%
%ADD13R,1.700000X1.700000*%
%ADD14O,1.700000X1.700000*%
%ADD15R,1.300000X1.300000*%
%ADD16C,1.300000*%
%ADD17R,1.600000X2.400000*%
%ADD18O,1.600000X2.400000*%
%ADD19C,0.600000*%
%ADD20C,0.250000*%
%ADD21C,0.500000*%
%ADD22C,0.254000*%
G04 APERTURE END LIST*
D10*
D11*
X133875000Y-90220000D03*
D12*
X133875000Y-95300000D03*
D13*
X180865000Y-88950000D03*
X172610000Y-99745000D03*
D14*
X170070000Y-99745000D03*
X172610000Y-97205000D03*
X170070000Y-97205000D03*
X172610000Y-94665000D03*
X170070000Y-94665000D03*
D15*
X142130000Y-99110000D03*
D16*
X139630000Y-99110000D03*
D15*
X141495000Y-85140000D03*
D16*
X138995000Y-85140000D03*
D11*
X137050000Y-50850000D03*
D12*
X131970000Y-50850000D03*
D11*
X150495000Y-50800000D03*
D12*
X145415000Y-50800000D03*
D11*
X185420000Y-50800000D03*
D12*
X180340000Y-50800000D03*
D11*
X180340000Y-140970000D03*
D12*
X185420000Y-140970000D03*
D11*
X146685000Y-140970000D03*
D12*
X151765000Y-140970000D03*
D17*
X131445000Y-69850000D03*
D18*
X136525000Y-62230000D03*
X133985000Y-69850000D03*
X133985000Y-62230000D03*
X136525000Y-69850000D03*
X131445000Y-62230000D03*
D17*
X140335000Y-69850000D03*
D18*
X145415000Y-62230000D03*
X142875000Y-69850000D03*
X142875000Y-62230000D03*
X145415000Y-69850000D03*
X140335000Y-62230000D03*
D17*
X149225000Y-69850000D03*
D18*
X154305000Y-62230000D03*
X151765000Y-69850000D03*
X151765000Y-62230000D03*
X154305000Y-69850000D03*
X149225000Y-62230000D03*
D17*
X158115000Y-69850000D03*
D18*
X163195000Y-62230000D03*
X160655000Y-69850000D03*
X160655000Y-62230000D03*
X163195000Y-69850000D03*
X158115000Y-62230000D03*
D17*
X167005000Y-69850000D03*
D18*
X172085000Y-62230000D03*
X169545000Y-69850000D03*
X169545000Y-62230000D03*
X172085000Y-69850000D03*
X167005000Y-62230000D03*
D17*
X175895000Y-69850000D03*
D18*
X180975000Y-62230000D03*
X178435000Y-69850000D03*
X178435000Y-62230000D03*
X180975000Y-69850000D03*
X175895000Y-62230000D03*
D17*
X184785000Y-69850000D03*
D18*
X189865000Y-62230000D03*
X187325000Y-69850000D03*
X187325000Y-62230000D03*
X189865000Y-69850000D03*
X184785000Y-62230000D03*
D17*
X193675000Y-69850000D03*
D18*
X198755000Y-62230000D03*
X196215000Y-69850000D03*
X196215000Y-62230000D03*
X198755000Y-69850000D03*
X193675000Y-62230000D03*
D17*
X198755000Y-121920000D03*
D18*
X193675000Y-129540000D03*
X196215000Y-121920000D03*
X196215000Y-129540000D03*
X193675000Y-121920000D03*
X198755000Y-129540000D03*
D17*
X189865000Y-121920000D03*
D18*
X184785000Y-129540000D03*
X187325000Y-121920000D03*
X187325000Y-129540000D03*
X184785000Y-121920000D03*
X189865000Y-129540000D03*
D17*
X180975000Y-121920000D03*
D18*
X175895000Y-129540000D03*
X178435000Y-121920000D03*
X178435000Y-129540000D03*
X175895000Y-121920000D03*
X180975000Y-129540000D03*
D17*
X172085000Y-121920000D03*
D18*
X167005000Y-129540000D03*
X169545000Y-121920000D03*
X169545000Y-129540000D03*
X167005000Y-121920000D03*
X172085000Y-129540000D03*
D17*
X163195000Y-121920000D03*
D18*
X158115000Y-129540000D03*
X160655000Y-121920000D03*
X160655000Y-129540000D03*
X158115000Y-121920000D03*
X163195000Y-129540000D03*
D17*
X154305000Y-121920000D03*
D18*
X149225000Y-129540000D03*
X151765000Y-121920000D03*
X151765000Y-129540000D03*
X149225000Y-121920000D03*
X154305000Y-129540000D03*
D17*
X145415000Y-121920000D03*
D18*
X140335000Y-129540000D03*
X142875000Y-121920000D03*
X142875000Y-129540000D03*
X140335000Y-121920000D03*
X145415000Y-129540000D03*
D17*
X136525000Y-121920000D03*
D18*
X131445000Y-129540000D03*
X133985000Y-121920000D03*
X133985000Y-129540000D03*
X131445000Y-121920000D03*
X136525000Y-129540000D03*
D11*
X132080000Y-140970000D03*
D12*
X137160000Y-140970000D03*
D19*
X153500000Y-88500000D03*
X147066000Y-109093000D03*
X158513000Y-98221000D03*
X181246000Y-99110000D03*
X182008000Y-97078000D03*
X162052000Y-100203000D03*
X152400000Y-90805000D03*
X154940000Y-107315000D03*
X159131000Y-94615000D03*
X154432000Y-104013000D03*
X156989000Y-93522000D03*
X198120000Y-99060000D03*
X155575000Y-93980000D03*
X148463000Y-88392000D03*
X151384000Y-103759000D03*
D20*
X140500000Y-83000000D02*
X138995000Y-84505000D01*
X148000000Y-83000000D02*
X140500000Y-83000000D01*
X153500000Y-88500000D02*
X148000000Y-83000000D01*
X138995000Y-84505000D02*
X138995000Y-85140000D01*
X139630000Y-101657000D02*
X139630000Y-99110000D01*
X147066000Y-109093000D02*
X139630000Y-101657000D01*
X177309000Y-103047000D02*
X181246000Y-99110000D01*
X163339000Y-103047000D02*
X167911000Y-103047000D01*
X158513000Y-98221000D02*
X163339000Y-103047000D01*
X167911000Y-103047000D02*
X177309000Y-103047000D01*
X180865000Y-95935000D02*
X177690000Y-95935000D01*
X182008000Y-97078000D02*
X180865000Y-95935000D01*
X170070000Y-97205000D02*
X170197000Y-97205000D01*
X170197000Y-97205000D02*
X171467000Y-95935000D01*
X171467000Y-95935000D02*
X177690000Y-95935000D01*
X163753000Y-101904000D02*
X166641000Y-101904000D01*
X162052000Y-100203000D02*
X163753000Y-101904000D01*
X166641000Y-101904000D02*
X171848000Y-101904000D01*
X171848000Y-101904000D02*
X172610000Y-101142000D01*
X172610000Y-101142000D02*
X172610000Y-99745000D01*
X152400000Y-104775000D02*
X152400000Y-90805000D01*
X154940000Y-107315000D02*
X152400000Y-104775000D01*
X154432000Y-104013000D02*
X154432000Y-99314000D01*
X154432000Y-99314000D02*
X159131000Y-94615000D01*
X172610000Y-94665000D02*
X172610000Y-93395000D01*
X172610000Y-93395000D02*
X171467000Y-92252000D01*
X159783000Y-93522000D02*
X156989000Y-93522000D01*
X161053000Y-92252000D02*
X159783000Y-93522000D01*
X171467000Y-92252000D02*
X161053000Y-92252000D01*
X189865000Y-90805000D02*
X198120000Y-99060000D01*
X157480000Y-90805000D02*
X189865000Y-90805000D01*
X155575000Y-92710000D02*
X157480000Y-90805000D01*
X155575000Y-93980000D02*
X155575000Y-92710000D01*
D21*
X136525000Y-62230000D02*
X136525000Y-57785000D01*
X137795000Y-56515000D02*
X145415000Y-56515000D01*
X136525000Y-57785000D02*
X137795000Y-56515000D01*
X145415000Y-50800000D02*
X145415000Y-55880000D01*
X145415000Y-55880000D02*
X145415000Y-56515000D01*
X145415000Y-56515000D02*
X145415000Y-62230000D01*
X154305000Y-56515000D02*
X154305000Y-55880000D01*
X154305000Y-55880000D02*
X150495000Y-52070000D01*
X150495000Y-52070000D02*
X150495000Y-50800000D01*
X163195000Y-62230000D02*
X163195000Y-58420000D01*
X163195000Y-58420000D02*
X161290000Y-56515000D01*
X161290000Y-56515000D02*
X154305000Y-56515000D01*
X154305000Y-56515000D02*
X154305000Y-62230000D01*
D20*
X154305000Y-56515000D02*
X161290000Y-56515000D01*
X161290000Y-56515000D02*
X163195000Y-58420000D01*
X150495000Y-50800000D02*
X150495000Y-52070000D01*
X150495000Y-52070000D02*
X154305000Y-55880000D01*
X154305000Y-56515000D02*
X154305000Y-62230000D01*
D21*
X180975000Y-62230000D02*
X180975000Y-57150000D01*
X180975000Y-57150000D02*
X180340000Y-56515000D01*
X172085000Y-62230000D02*
X172085000Y-57785000D01*
X172085000Y-57785000D02*
X173355000Y-56515000D01*
X173355000Y-56515000D02*
X180340000Y-56515000D01*
X180340000Y-50800000D02*
X180340000Y-56515000D01*
X198755000Y-62230000D02*
X198755000Y-57150000D01*
X198120000Y-56515000D02*
X189865000Y-56515000D01*
X198755000Y-57150000D02*
X198120000Y-56515000D01*
X189865000Y-57785000D02*
X189865000Y-56515000D01*
X189865000Y-56515000D02*
X189865000Y-55880000D01*
X187960000Y-50800000D02*
X185420000Y-50800000D01*
X189865000Y-55880000D02*
X189865000Y-52705000D01*
X189865000Y-52705000D02*
X187960000Y-50800000D01*
X198755000Y-59690000D02*
X198755000Y-62230000D01*
X189865000Y-57785000D02*
X189865000Y-62230000D01*
D20*
X198755000Y-59690000D02*
X198755000Y-62230000D01*
X189865000Y-57785000D02*
X189865000Y-62230000D01*
D21*
X185420000Y-135255000D02*
X193040000Y-135255000D01*
X193040000Y-135255000D02*
X193675000Y-134620000D01*
X184785000Y-129540000D02*
X184785000Y-134620000D01*
X185420000Y-135255000D02*
X185420000Y-137160000D01*
X184785000Y-134620000D02*
X185420000Y-135255000D01*
X193675000Y-129540000D02*
X193675000Y-134620000D01*
X185420000Y-137160000D02*
X185420000Y-140970000D01*
X175895000Y-135255000D02*
X175895000Y-136525000D01*
X175895000Y-136525000D02*
X180340000Y-140970000D01*
X167005000Y-129540000D02*
X167005000Y-133985000D01*
X175895000Y-135255000D02*
X175895000Y-133985000D01*
X168275000Y-135255000D02*
X175895000Y-135255000D01*
X167005000Y-133985000D02*
X168275000Y-135255000D01*
X175895000Y-129540000D02*
X175895000Y-133985000D01*
X151765000Y-140970000D02*
X151765000Y-135255000D01*
X149225000Y-133350000D02*
X149225000Y-134620000D01*
X158115000Y-133985000D02*
X158115000Y-133350000D01*
X156845000Y-135255000D02*
X158115000Y-133985000D01*
X149860000Y-135255000D02*
X151765000Y-135255000D01*
X151765000Y-135255000D02*
X156845000Y-135255000D01*
X149225000Y-134620000D02*
X149860000Y-135255000D01*
X149225000Y-131445000D02*
X149225000Y-133350000D01*
X158115000Y-129540000D02*
X158115000Y-133350000D01*
X149225000Y-129540000D02*
X149225000Y-131445000D01*
X133350000Y-135255000D02*
X140335000Y-135255000D01*
X140335000Y-129540000D02*
X140335000Y-135255000D01*
X140335000Y-135255000D02*
X146050000Y-140970000D01*
X146050000Y-140970000D02*
X146685000Y-140970000D01*
X131445000Y-129540000D02*
X131445000Y-133350000D01*
X131445000Y-133350000D02*
X133350000Y-135255000D01*
D20*
X131445000Y-133350000D02*
X133350000Y-135255000D01*
X150495000Y-90424000D02*
X150495000Y-91821000D01*
X148463000Y-88392000D02*
X150495000Y-90424000D01*
X150495000Y-102870000D02*
X150495000Y-102235000D01*
X151384000Y-103759000D02*
X150495000Y-102870000D01*
X150495000Y-91821000D02*
X150495000Y-102235000D01*
D22*
G36*
X129997560Y-71050000D02*
X130041838Y-71285317D01*
X130180910Y-71501441D01*
X130393110Y-71646431D01*
X130645000Y-71697440D01*
X132245000Y-71697440D01*
X132480317Y-71653162D01*
X132696441Y-71514090D01*
X132841431Y-71301890D01*
X132876906Y-71126709D01*
X133060104Y-71354500D01*
X133553181Y-71624367D01*
X133635961Y-71641904D01*
X133858000Y-71519915D01*
X133858000Y-69977000D01*
X133838000Y-69977000D01*
X133838000Y-69723000D01*
X133858000Y-69723000D01*
X133858000Y-69703000D01*
X134112000Y-69703000D01*
X134112000Y-69723000D01*
X134132000Y-69723000D01*
X134132000Y-69977000D01*
X134112000Y-69977000D01*
X134112000Y-71519915D01*
X134334039Y-71641904D01*
X134416819Y-71624367D01*
X134909896Y-71354500D01*
X135257493Y-70922293D01*
X135510302Y-71300648D01*
X135975849Y-71611717D01*
X136525000Y-71720950D01*
X137074151Y-71611717D01*
X137539698Y-71300648D01*
X137850767Y-70835101D01*
X137960000Y-70285950D01*
X137960000Y-69414050D01*
X137902902Y-69127000D01*
X138887560Y-69127000D01*
X138887560Y-71050000D01*
X138931838Y-71285317D01*
X139070910Y-71501441D01*
X139283110Y-71646431D01*
X139535000Y-71697440D01*
X141135000Y-71697440D01*
X141370317Y-71653162D01*
X141586441Y-71514090D01*
X141731431Y-71301890D01*
X141766906Y-71126709D01*
X141950104Y-71354500D01*
X142443181Y-71624367D01*
X142525961Y-71641904D01*
X142748000Y-71519915D01*
X142748000Y-69977000D01*
X142728000Y-69977000D01*
X142728000Y-69723000D01*
X142748000Y-69723000D01*
X142748000Y-69703000D01*
X143002000Y-69703000D01*
X143002000Y-69723000D01*
X143022000Y-69723000D01*
X143022000Y-69977000D01*
X143002000Y-69977000D01*
X143002000Y-71519915D01*
X143224039Y-71641904D01*
X143306819Y-71624367D01*
X143799896Y-71354500D01*
X144147493Y-70922293D01*
X144400302Y-71300648D01*
X144865849Y-71611717D01*
X145415000Y-71720950D01*
X145964151Y-71611717D01*
X146429698Y-71300648D01*
X146740767Y-70835101D01*
X146850000Y-70285950D01*
X146850000Y-69414050D01*
X146792902Y-69127000D01*
X147777560Y-69127000D01*
X147777560Y-71050000D01*
X147821838Y-71285317D01*
X147960910Y-71501441D01*
X148173110Y-71646431D01*
X148425000Y-71697440D01*
X150025000Y-71697440D01*
X150260317Y-71653162D01*
X150476441Y-71514090D01*
X150621431Y-71301890D01*
X150656906Y-71126709D01*
X150840104Y-71354500D01*
X151333181Y-71624367D01*
X151415961Y-71641904D01*
X151638000Y-71519915D01*
X151638000Y-69977000D01*
X151618000Y-69977000D01*
X151618000Y-69723000D01*
X151638000Y-69723000D01*
X151638000Y-69703000D01*
X151892000Y-69703000D01*
X151892000Y-69723000D01*
X151912000Y-69723000D01*
X151912000Y-69977000D01*
X151892000Y-69977000D01*
X151892000Y-71519915D01*
X152114039Y-71641904D01*
X152196819Y-71624367D01*
X152689896Y-71354500D01*
X153037493Y-70922293D01*
X153290302Y-71300648D01*
X153755849Y-71611717D01*
X154305000Y-71720950D01*
X154854151Y-71611717D01*
X155319698Y-71300648D01*
X155630767Y-70835101D01*
X155740000Y-70285950D01*
X155740000Y-69414050D01*
X155682902Y-69127000D01*
X156667560Y-69127000D01*
X156667560Y-71050000D01*
X156711838Y-71285317D01*
X156850910Y-71501441D01*
X157063110Y-71646431D01*
X157315000Y-71697440D01*
X158915000Y-71697440D01*
X159150317Y-71653162D01*
X159366441Y-71514090D01*
X159511431Y-71301890D01*
X159546906Y-71126709D01*
X159730104Y-71354500D01*
X160223181Y-71624367D01*
X160305961Y-71641904D01*
X160528000Y-71519915D01*
X160528000Y-69977000D01*
X160508000Y-69977000D01*
X160508000Y-69723000D01*
X160528000Y-69723000D01*
X160528000Y-69703000D01*
X160782000Y-69703000D01*
X160782000Y-69723000D01*
X160802000Y-69723000D01*
X160802000Y-69977000D01*
X160782000Y-69977000D01*
X160782000Y-71519915D01*
X161004039Y-71641904D01*
X161086819Y-71624367D01*
X161579896Y-71354500D01*
X161927493Y-70922293D01*
X162180302Y-71300648D01*
X162645849Y-71611717D01*
X163195000Y-71720950D01*
X163744151Y-71611717D01*
X164209698Y-71300648D01*
X164520767Y-70835101D01*
X164630000Y-70285950D01*
X164630000Y-69414050D01*
X164572902Y-69127000D01*
X165557560Y-69127000D01*
X165557560Y-71050000D01*
X165601838Y-71285317D01*
X165740910Y-71501441D01*
X165953110Y-71646431D01*
X166205000Y-71697440D01*
X167805000Y-71697440D01*
X168040317Y-71653162D01*
X168256441Y-71514090D01*
X168401431Y-71301890D01*
X168436906Y-71126709D01*
X168620104Y-71354500D01*
X169113181Y-71624367D01*
X169195961Y-71641904D01*
X169418000Y-71519915D01*
X169418000Y-69977000D01*
X169398000Y-69977000D01*
X169398000Y-69723000D01*
X169418000Y-69723000D01*
X169418000Y-69703000D01*
X169672000Y-69703000D01*
X169672000Y-69723000D01*
X169692000Y-69723000D01*
X169692000Y-69977000D01*
X169672000Y-69977000D01*
X169672000Y-71519915D01*
X169894039Y-71641904D01*
X169976819Y-71624367D01*
X170469896Y-71354500D01*
X170817493Y-70922293D01*
X171070302Y-71300648D01*
X171535849Y-71611717D01*
X172085000Y-71720950D01*
X172634151Y-71611717D01*
X173099698Y-71300648D01*
X173410767Y-70835101D01*
X173520000Y-70285950D01*
X173520000Y-69414050D01*
X173462902Y-69127000D01*
X174447560Y-69127000D01*
X174447560Y-71050000D01*
X174491838Y-71285317D01*
X174630910Y-71501441D01*
X174843110Y-71646431D01*
X175095000Y-71697440D01*
X176695000Y-71697440D01*
X176930317Y-71653162D01*
X177146441Y-71514090D01*
X177291431Y-71301890D01*
X177326906Y-71126709D01*
X177510104Y-71354500D01*
X178003181Y-71624367D01*
X178085961Y-71641904D01*
X178308000Y-71519915D01*
X178308000Y-69977000D01*
X178288000Y-69977000D01*
X178288000Y-69723000D01*
X178308000Y-69723000D01*
X178308000Y-69703000D01*
X178562000Y-69703000D01*
X178562000Y-69723000D01*
X178582000Y-69723000D01*
X178582000Y-69977000D01*
X178562000Y-69977000D01*
X178562000Y-71519915D01*
X178784039Y-71641904D01*
X178866819Y-71624367D01*
X179359896Y-71354500D01*
X179707493Y-70922293D01*
X179960302Y-71300648D01*
X180425849Y-71611717D01*
X180975000Y-71720950D01*
X181524151Y-71611717D01*
X181989698Y-71300648D01*
X182300767Y-70835101D01*
X182410000Y-70285950D01*
X182410000Y-69414050D01*
X182352902Y-69127000D01*
X183337560Y-69127000D01*
X183337560Y-71050000D01*
X183381838Y-71285317D01*
X183520910Y-71501441D01*
X183733110Y-71646431D01*
X183985000Y-71697440D01*
X185585000Y-71697440D01*
X185820317Y-71653162D01*
X186036441Y-71514090D01*
X186181431Y-71301890D01*
X186216906Y-71126709D01*
X186400104Y-71354500D01*
X186893181Y-71624367D01*
X186975961Y-71641904D01*
X187198000Y-71519915D01*
X187198000Y-69977000D01*
X187178000Y-69977000D01*
X187178000Y-69723000D01*
X187198000Y-69723000D01*
X187198000Y-69703000D01*
X187452000Y-69703000D01*
X187452000Y-69723000D01*
X187472000Y-69723000D01*
X187472000Y-69977000D01*
X187452000Y-69977000D01*
X187452000Y-71519915D01*
X187674039Y-71641904D01*
X187756819Y-71624367D01*
X188249896Y-71354500D01*
X188597493Y-70922293D01*
X188850302Y-71300648D01*
X189315849Y-71611717D01*
X189865000Y-71720950D01*
X190414151Y-71611717D01*
X190879698Y-71300648D01*
X191190767Y-70835101D01*
X191300000Y-70285950D01*
X191300000Y-69414050D01*
X191242902Y-69127000D01*
X192227560Y-69127000D01*
X192227560Y-71050000D01*
X192271838Y-71285317D01*
X192410910Y-71501441D01*
X192623110Y-71646431D01*
X192875000Y-71697440D01*
X194475000Y-71697440D01*
X194710317Y-71653162D01*
X194926441Y-71514090D01*
X195071431Y-71301890D01*
X195106906Y-71126709D01*
X195290104Y-71354500D01*
X195783181Y-71624367D01*
X195865961Y-71641904D01*
X196088000Y-71519915D01*
X196088000Y-69977000D01*
X196068000Y-69977000D01*
X196068000Y-69723000D01*
X196088000Y-69723000D01*
X196088000Y-69703000D01*
X196342000Y-69703000D01*
X196342000Y-69723000D01*
X196362000Y-69723000D01*
X196362000Y-69977000D01*
X196342000Y-69977000D01*
X196342000Y-71519915D01*
X196564039Y-71641904D01*
X196646819Y-71624367D01*
X197139896Y-71354500D01*
X197487493Y-70922293D01*
X197740302Y-71300648D01*
X198205849Y-71611717D01*
X198755000Y-71720950D01*
X199304151Y-71611717D01*
X199769698Y-71300648D01*
X200080767Y-70835101D01*
X200190000Y-70285950D01*
X200190000Y-69414050D01*
X200132902Y-69127000D01*
X207290000Y-69127000D01*
X207290000Y-122373000D01*
X200202440Y-122373000D01*
X200202440Y-120720000D01*
X200158162Y-120484683D01*
X200019090Y-120268559D01*
X199806890Y-120123569D01*
X199555000Y-120072560D01*
X197955000Y-120072560D01*
X197719683Y-120116838D01*
X197503559Y-120255910D01*
X197358569Y-120468110D01*
X197323094Y-120643291D01*
X197139896Y-120415500D01*
X196646819Y-120145633D01*
X196564039Y-120128096D01*
X196342000Y-120250085D01*
X196342000Y-121793000D01*
X196362000Y-121793000D01*
X196362000Y-122047000D01*
X196342000Y-122047000D01*
X196342000Y-122067000D01*
X196088000Y-122067000D01*
X196088000Y-122047000D01*
X196068000Y-122047000D01*
X196068000Y-121793000D01*
X196088000Y-121793000D01*
X196088000Y-120250085D01*
X195865961Y-120128096D01*
X195783181Y-120145633D01*
X195290104Y-120415500D01*
X194942507Y-120847707D01*
X194689698Y-120469352D01*
X194224151Y-120158283D01*
X193675000Y-120049050D01*
X193125849Y-120158283D01*
X192660302Y-120469352D01*
X192349233Y-120934899D01*
X192240000Y-121484050D01*
X192240000Y-122355950D01*
X192243391Y-122373000D01*
X191312440Y-122373000D01*
X191312440Y-120720000D01*
X191268162Y-120484683D01*
X191129090Y-120268559D01*
X190916890Y-120123569D01*
X190665000Y-120072560D01*
X189065000Y-120072560D01*
X188829683Y-120116838D01*
X188613559Y-120255910D01*
X188468569Y-120468110D01*
X188433094Y-120643291D01*
X188249896Y-120415500D01*
X187756819Y-120145633D01*
X187674039Y-120128096D01*
X187452000Y-120250085D01*
X187452000Y-121793000D01*
X187472000Y-121793000D01*
X187472000Y-122047000D01*
X187452000Y-122047000D01*
X187452000Y-122067000D01*
X187198000Y-122067000D01*
X187198000Y-122047000D01*
X187178000Y-122047000D01*
X187178000Y-121793000D01*
X187198000Y-121793000D01*
X187198000Y-120250085D01*
X186975961Y-120128096D01*
X186893181Y-120145633D01*
X186400104Y-120415500D01*
X186052507Y-120847707D01*
X185799698Y-120469352D01*
X185334151Y-120158283D01*
X184785000Y-120049050D01*
X184235849Y-120158283D01*
X183770302Y-120469352D01*
X183459233Y-120934899D01*
X183350000Y-121484050D01*
X183350000Y-122355950D01*
X183353391Y-122373000D01*
X182422440Y-122373000D01*
X182422440Y-120720000D01*
X182378162Y-120484683D01*
X182239090Y-120268559D01*
X182026890Y-120123569D01*
X181775000Y-120072560D01*
X180175000Y-120072560D01*
X179939683Y-120116838D01*
X179723559Y-120255910D01*
X179578569Y-120468110D01*
X179543094Y-120643291D01*
X179359896Y-120415500D01*
X178866819Y-120145633D01*
X178784039Y-120128096D01*
X178562000Y-120250085D01*
X178562000Y-121793000D01*
X178582000Y-121793000D01*
X178582000Y-122047000D01*
X178562000Y-122047000D01*
X178562000Y-122067000D01*
X178308000Y-122067000D01*
X178308000Y-122047000D01*
X178288000Y-122047000D01*
X178288000Y-121793000D01*
X178308000Y-121793000D01*
X178308000Y-120250085D01*
X178085961Y-120128096D01*
X178003181Y-120145633D01*
X177510104Y-120415500D01*
X177162507Y-120847707D01*
X176909698Y-120469352D01*
X176444151Y-120158283D01*
X175895000Y-120049050D01*
X175345849Y-120158283D01*
X174880302Y-120469352D01*
X174569233Y-120934899D01*
X174460000Y-121484050D01*
X174460000Y-122355950D01*
X174463391Y-122373000D01*
X173532440Y-122373000D01*
X173532440Y-120720000D01*
X173488162Y-120484683D01*
X173349090Y-120268559D01*
X173136890Y-120123569D01*
X172885000Y-120072560D01*
X171285000Y-120072560D01*
X171049683Y-120116838D01*
X170833559Y-120255910D01*
X170688569Y-120468110D01*
X170653094Y-120643291D01*
X170469896Y-120415500D01*
X169976819Y-120145633D01*
X169894039Y-120128096D01*
X169672000Y-120250085D01*
X169672000Y-121793000D01*
X169692000Y-121793000D01*
X169692000Y-122047000D01*
X169672000Y-122047000D01*
X169672000Y-122067000D01*
X169418000Y-122067000D01*
X169418000Y-122047000D01*
X169398000Y-122047000D01*
X169398000Y-121793000D01*
X169418000Y-121793000D01*
X169418000Y-120250085D01*
X169195961Y-120128096D01*
X169113181Y-120145633D01*
X168620104Y-120415500D01*
X168272507Y-120847707D01*
X168019698Y-120469352D01*
X167554151Y-120158283D01*
X167005000Y-120049050D01*
X166455849Y-120158283D01*
X165990302Y-120469352D01*
X165679233Y-120934899D01*
X165570000Y-121484050D01*
X165570000Y-122355950D01*
X165573391Y-122373000D01*
X164642440Y-122373000D01*
X164642440Y-120720000D01*
X164598162Y-120484683D01*
X164459090Y-120268559D01*
X164246890Y-120123569D01*
X163995000Y-120072560D01*
X162395000Y-120072560D01*
X162159683Y-120116838D01*
X161943559Y-120255910D01*
X161798569Y-120468110D01*
X161763094Y-120643291D01*
X161579896Y-120415500D01*
X161086819Y-120145633D01*
X161004039Y-120128096D01*
X160782000Y-120250085D01*
X160782000Y-121793000D01*
X160802000Y-121793000D01*
X160802000Y-122047000D01*
X160782000Y-122047000D01*
X160782000Y-122067000D01*
X160528000Y-122067000D01*
X160528000Y-122047000D01*
X160508000Y-122047000D01*
X160508000Y-121793000D01*
X160528000Y-121793000D01*
X160528000Y-120250085D01*
X160305961Y-120128096D01*
X160223181Y-120145633D01*
X159730104Y-120415500D01*
X159382507Y-120847707D01*
X159129698Y-120469352D01*
X158664151Y-120158283D01*
X158115000Y-120049050D01*
X157565849Y-120158283D01*
X157100302Y-120469352D01*
X156789233Y-120934899D01*
X156680000Y-121484050D01*
X156680000Y-122355950D01*
X156683391Y-122373000D01*
X155752440Y-122373000D01*
X155752440Y-120720000D01*
X155708162Y-120484683D01*
X155569090Y-120268559D01*
X155356890Y-120123569D01*
X155105000Y-120072560D01*
X153505000Y-120072560D01*
X153269683Y-120116838D01*
X153053559Y-120255910D01*
X152908569Y-120468110D01*
X152873094Y-120643291D01*
X152689896Y-120415500D01*
X152196819Y-120145633D01*
X152114039Y-120128096D01*
X151892000Y-120250085D01*
X151892000Y-121793000D01*
X151912000Y-121793000D01*
X151912000Y-122047000D01*
X151892000Y-122047000D01*
X151892000Y-122067000D01*
X151638000Y-122067000D01*
X151638000Y-122047000D01*
X151618000Y-122047000D01*
X151618000Y-121793000D01*
X151638000Y-121793000D01*
X151638000Y-120250085D01*
X151415961Y-120128096D01*
X151333181Y-120145633D01*
X150840104Y-120415500D01*
X150492507Y-120847707D01*
X150239698Y-120469352D01*
X149774151Y-120158283D01*
X149225000Y-120049050D01*
X148675849Y-120158283D01*
X148210302Y-120469352D01*
X147899233Y-120934899D01*
X147790000Y-121484050D01*
X147790000Y-122355950D01*
X147793391Y-122373000D01*
X146862440Y-122373000D01*
X146862440Y-120720000D01*
X146818162Y-120484683D01*
X146679090Y-120268559D01*
X146466890Y-120123569D01*
X146215000Y-120072560D01*
X144615000Y-120072560D01*
X144379683Y-120116838D01*
X144163559Y-120255910D01*
X144018569Y-120468110D01*
X143983094Y-120643291D01*
X143799896Y-120415500D01*
X143306819Y-120145633D01*
X143224039Y-120128096D01*
X143002000Y-120250085D01*
X143002000Y-121793000D01*
X143022000Y-121793000D01*
X143022000Y-122047000D01*
X143002000Y-122047000D01*
X143002000Y-122067000D01*
X142748000Y-122067000D01*
X142748000Y-122047000D01*
X142728000Y-122047000D01*
X142728000Y-121793000D01*
X142748000Y-121793000D01*
X142748000Y-120250085D01*
X142525961Y-120128096D01*
X142443181Y-120145633D01*
X141950104Y-120415500D01*
X141602507Y-120847707D01*
X141349698Y-120469352D01*
X140884151Y-120158283D01*
X140335000Y-120049050D01*
X139785849Y-120158283D01*
X139320302Y-120469352D01*
X139009233Y-120934899D01*
X138900000Y-121484050D01*
X138900000Y-122355950D01*
X138903391Y-122373000D01*
X137972440Y-122373000D01*
X137972440Y-120720000D01*
X137928162Y-120484683D01*
X137789090Y-120268559D01*
X137576890Y-120123569D01*
X137325000Y-120072560D01*
X135725000Y-120072560D01*
X135489683Y-120116838D01*
X135273559Y-120255910D01*
X135128569Y-120468110D01*
X135093094Y-120643291D01*
X134909896Y-120415500D01*
X134416819Y-120145633D01*
X134334039Y-120128096D01*
X134112000Y-120250085D01*
X134112000Y-121793000D01*
X134132000Y-121793000D01*
X134132000Y-122047000D01*
X134112000Y-122047000D01*
X134112000Y-122067000D01*
X133858000Y-122067000D01*
X133858000Y-122047000D01*
X133838000Y-122047000D01*
X133838000Y-121793000D01*
X133858000Y-121793000D01*
X133858000Y-120250085D01*
X133635961Y-120128096D01*
X133553181Y-120145633D01*
X133060104Y-120415500D01*
X132712507Y-120847707D01*
X132459698Y-120469352D01*
X131994151Y-120158283D01*
X131445000Y-120049050D01*
X130895849Y-120158283D01*
X130430302Y-120469352D01*
X130119233Y-120934899D01*
X130010000Y-121484050D01*
X130010000Y-122355950D01*
X130013391Y-122373000D01*
X129710000Y-122373000D01*
X129710000Y-100009016D01*
X138910590Y-100009016D01*
X138966271Y-100239611D01*
X139449078Y-100407622D01*
X139959428Y-100378083D01*
X140293729Y-100239611D01*
X140349410Y-100009016D01*
X139630000Y-99289605D01*
X138910590Y-100009016D01*
X129710000Y-100009016D01*
X129710000Y-98929078D01*
X138332378Y-98929078D01*
X138361917Y-99439428D01*
X138500389Y-99773729D01*
X138730984Y-99829410D01*
X139450395Y-99110000D01*
X139809605Y-99110000D01*
X140529016Y-99829410D01*
X140759611Y-99773729D01*
X140832560Y-99564098D01*
X140832560Y-99760000D01*
X140876838Y-99995317D01*
X141015910Y-100211441D01*
X141228110Y-100356431D01*
X141480000Y-100407440D01*
X142780000Y-100407440D01*
X143015317Y-100363162D01*
X143231441Y-100224090D01*
X143376431Y-100011890D01*
X143427440Y-99760000D01*
X143427440Y-98460000D01*
X143383162Y-98224683D01*
X143244090Y-98008559D01*
X143031890Y-97863569D01*
X142780000Y-97812560D01*
X141480000Y-97812560D01*
X141244683Y-97856838D01*
X141028559Y-97995910D01*
X140883569Y-98208110D01*
X140832560Y-98460000D01*
X140832560Y-98622385D01*
X140759611Y-98446271D01*
X140529016Y-98390590D01*
X139809605Y-99110000D01*
X139450395Y-99110000D01*
X138730984Y-98390590D01*
X138500389Y-98446271D01*
X138332378Y-98929078D01*
X129710000Y-98929078D01*
X129710000Y-98210984D01*
X138910590Y-98210984D01*
X139630000Y-98930395D01*
X140349410Y-98210984D01*
X140293729Y-97980389D01*
X139810922Y-97812378D01*
X139300572Y-97841917D01*
X138966271Y-97980389D01*
X138910590Y-98210984D01*
X129710000Y-98210984D01*
X129710000Y-95677265D01*
X131969670Y-95677265D01*
X132259078Y-96377686D01*
X132794495Y-96914039D01*
X133494410Y-97204668D01*
X134252265Y-97205330D01*
X134952686Y-96915922D01*
X135489039Y-96380505D01*
X135779668Y-95680590D01*
X135780330Y-94922735D01*
X135490922Y-94222314D01*
X134955505Y-93685961D01*
X134255590Y-93395332D01*
X133497735Y-93394670D01*
X132797314Y-93684078D01*
X132260961Y-94219495D01*
X131970332Y-94919410D01*
X131969670Y-95677265D01*
X129710000Y-95677265D01*
X129710000Y-90505750D01*
X131970000Y-90505750D01*
X131970000Y-91616309D01*
X132066673Y-91849698D01*
X132245301Y-92028327D01*
X132478690Y-92125000D01*
X133589250Y-92125000D01*
X133748000Y-91966250D01*
X133748000Y-90347000D01*
X134002000Y-90347000D01*
X134002000Y-91966250D01*
X134160750Y-92125000D01*
X135271310Y-92125000D01*
X135504699Y-92028327D01*
X135683327Y-91849698D01*
X135780000Y-91616309D01*
X135780000Y-90505750D01*
X135621250Y-90347000D01*
X134002000Y-90347000D01*
X133748000Y-90347000D01*
X132128750Y-90347000D01*
X131970000Y-90505750D01*
X129710000Y-90505750D01*
X129710000Y-88823691D01*
X131970000Y-88823691D01*
X131970000Y-89934250D01*
X132128750Y-90093000D01*
X133748000Y-90093000D01*
X133748000Y-88473750D01*
X134002000Y-88473750D01*
X134002000Y-90093000D01*
X135621250Y-90093000D01*
X135780000Y-89934250D01*
X135780000Y-88823691D01*
X135683327Y-88590302D01*
X135670193Y-88577167D01*
X147527838Y-88577167D01*
X147669883Y-88920943D01*
X147932673Y-89184192D01*
X148276201Y-89326838D01*
X148323077Y-89326879D01*
X149735000Y-90738802D01*
X149735000Y-102870000D01*
X149792852Y-103160839D01*
X149957599Y-103407401D01*
X150448878Y-103898680D01*
X150448838Y-103944167D01*
X150590883Y-104287943D01*
X150853673Y-104551192D01*
X151197201Y-104693838D01*
X151569167Y-104694162D01*
X151640000Y-104664894D01*
X151640000Y-104775000D01*
X151697852Y-105065839D01*
X151862599Y-105312401D01*
X154004878Y-107454680D01*
X154004838Y-107500167D01*
X154146883Y-107843943D01*
X154409673Y-108107192D01*
X154753201Y-108249838D01*
X155125167Y-108250162D01*
X155468943Y-108108117D01*
X155732192Y-107845327D01*
X155874838Y-107501799D01*
X155875162Y-107129833D01*
X155733117Y-106786057D01*
X155470327Y-106522808D01*
X155126799Y-106380162D01*
X155079923Y-106380121D01*
X153160000Y-104460198D01*
X153160000Y-104198167D01*
X153496838Y-104198167D01*
X153638883Y-104541943D01*
X153901673Y-104805192D01*
X154245201Y-104947838D01*
X154617167Y-104948162D01*
X154960943Y-104806117D01*
X155224192Y-104543327D01*
X155366838Y-104199799D01*
X155367162Y-103827833D01*
X155225117Y-103484057D01*
X155192000Y-103450882D01*
X155192000Y-99628802D01*
X159270680Y-95550122D01*
X159316167Y-95550162D01*
X159659943Y-95408117D01*
X159923192Y-95145327D01*
X160065838Y-94801799D01*
X160066162Y-94429833D01*
X160015867Y-94308110D01*
X168628524Y-94308110D01*
X168749845Y-94538000D01*
X169943000Y-94538000D01*
X169943000Y-93344181D01*
X169713108Y-93223514D01*
X169188642Y-93469817D01*
X168798355Y-93898076D01*
X168628524Y-94308110D01*
X160015867Y-94308110D01*
X159988212Y-94241180D01*
X160073839Y-94224148D01*
X160320401Y-94059401D01*
X161367802Y-93012000D01*
X171152198Y-93012000D01*
X171665306Y-93525108D01*
X171530853Y-93614946D01*
X171341655Y-93898101D01*
X171341645Y-93898076D01*
X170951358Y-93469817D01*
X170426892Y-93223514D01*
X170197000Y-93344181D01*
X170197000Y-94538000D01*
X170217000Y-94538000D01*
X170217000Y-94792000D01*
X170197000Y-94792000D01*
X170197000Y-94812000D01*
X169943000Y-94812000D01*
X169943000Y-94792000D01*
X168749845Y-94792000D01*
X168628524Y-95021890D01*
X168798355Y-95431924D01*
X169188642Y-95860183D01*
X169331553Y-95927298D01*
X168990853Y-96154946D01*
X168668946Y-96636715D01*
X168555907Y-97205000D01*
X168668946Y-97773285D01*
X168990853Y-98255054D01*
X169320026Y-98475000D01*
X168990853Y-98694946D01*
X168668946Y-99176715D01*
X168555907Y-99745000D01*
X168668946Y-100313285D01*
X168990853Y-100795054D01*
X169472622Y-101116961D01*
X169608556Y-101144000D01*
X164067802Y-101144000D01*
X162987122Y-100063320D01*
X162987162Y-100017833D01*
X162845117Y-99674057D01*
X162582327Y-99410808D01*
X162238799Y-99268162D01*
X161866833Y-99267838D01*
X161523057Y-99409883D01*
X161259808Y-99672673D01*
X161195161Y-99828359D01*
X159448122Y-98081320D01*
X159448162Y-98035833D01*
X159306117Y-97692057D01*
X159043327Y-97428808D01*
X158699799Y-97286162D01*
X158327833Y-97285838D01*
X157984057Y-97427883D01*
X157720808Y-97690673D01*
X157578162Y-98034201D01*
X157577838Y-98406167D01*
X157719883Y-98749943D01*
X157982673Y-99013192D01*
X158326201Y-99155838D01*
X158373077Y-99155879D01*
X162801599Y-103584401D01*
X163048161Y-103749148D01*
X163339000Y-103807000D01*
X177309000Y-103807000D01*
X177599839Y-103749148D01*
X177846401Y-103584401D01*
X181385680Y-100045122D01*
X181431167Y-100045162D01*
X181774943Y-99903117D01*
X182038192Y-99640327D01*
X182180838Y-99296799D01*
X182181162Y-98924833D01*
X182039117Y-98581057D01*
X181776327Y-98317808D01*
X181432799Y-98175162D01*
X181060833Y-98174838D01*
X180717057Y-98316883D01*
X180453808Y-98579673D01*
X180311162Y-98923201D01*
X180311121Y-98970077D01*
X176994198Y-102287000D01*
X172539802Y-102287000D01*
X173147401Y-101679401D01*
X173312148Y-101432839D01*
X173350021Y-101242440D01*
X173460000Y-101242440D01*
X173695317Y-101198162D01*
X173911441Y-101059090D01*
X174056431Y-100846890D01*
X174107440Y-100595000D01*
X174107440Y-98895000D01*
X174063162Y-98659683D01*
X173924090Y-98443559D01*
X173711890Y-98298569D01*
X173644459Y-98284914D01*
X173689147Y-98255054D01*
X174011054Y-97773285D01*
X174124093Y-97205000D01*
X174022648Y-96695000D01*
X180550198Y-96695000D01*
X181072878Y-97217680D01*
X181072838Y-97263167D01*
X181214883Y-97606943D01*
X181477673Y-97870192D01*
X181821201Y-98012838D01*
X182193167Y-98013162D01*
X182536943Y-97871117D01*
X182800192Y-97608327D01*
X182942838Y-97264799D01*
X182943162Y-96892833D01*
X182801117Y-96549057D01*
X182538327Y-96285808D01*
X182194799Y-96143162D01*
X182147923Y-96143121D01*
X181402401Y-95397599D01*
X181155839Y-95232852D01*
X180865000Y-95175000D01*
X174022648Y-95175000D01*
X174124093Y-94665000D01*
X174011054Y-94096715D01*
X173689147Y-93614946D01*
X173370000Y-93401699D01*
X173370000Y-93395000D01*
X173312148Y-93104161D01*
X173147401Y-92857599D01*
X172004401Y-91714599D01*
X171780510Y-91565000D01*
X189550198Y-91565000D01*
X197184878Y-99199680D01*
X197184838Y-99245167D01*
X197326883Y-99588943D01*
X197589673Y-99852192D01*
X197933201Y-99994838D01*
X198305167Y-99995162D01*
X198648943Y-99853117D01*
X198912192Y-99590327D01*
X199054838Y-99246799D01*
X199055162Y-98874833D01*
X198913117Y-98531057D01*
X198650327Y-98267808D01*
X198306799Y-98125162D01*
X198259923Y-98125121D01*
X190402401Y-90267599D01*
X190155839Y-90102852D01*
X189865000Y-90045000D01*
X182312826Y-90045000D01*
X182362440Y-89800000D01*
X182362440Y-88100000D01*
X182318162Y-87864683D01*
X182179090Y-87648559D01*
X181966890Y-87503569D01*
X181715000Y-87452560D01*
X180015000Y-87452560D01*
X179779683Y-87496838D01*
X179563559Y-87635910D01*
X179418569Y-87848110D01*
X179367560Y-88100000D01*
X179367560Y-89800000D01*
X179411838Y-90035317D01*
X179418069Y-90045000D01*
X157480000Y-90045000D01*
X157189161Y-90102852D01*
X156942599Y-90267599D01*
X155037599Y-92172599D01*
X154872852Y-92419161D01*
X154815000Y-92710000D01*
X154815000Y-93417537D01*
X154782808Y-93449673D01*
X154640162Y-93793201D01*
X154639838Y-94165167D01*
X154781883Y-94508943D01*
X155044673Y-94772192D01*
X155388201Y-94914838D01*
X155760167Y-94915162D01*
X156103943Y-94773117D01*
X156367192Y-94510327D01*
X156451584Y-94307090D01*
X156458673Y-94314192D01*
X156802201Y-94456838D01*
X157174167Y-94457162D01*
X157517943Y-94315117D01*
X157551118Y-94282000D01*
X158256870Y-94282000D01*
X158196162Y-94428201D01*
X158196121Y-94475077D01*
X153894599Y-98776599D01*
X153729852Y-99023161D01*
X153672000Y-99314000D01*
X153672000Y-103450537D01*
X153639808Y-103482673D01*
X153497162Y-103826201D01*
X153496838Y-104198167D01*
X153160000Y-104198167D01*
X153160000Y-91367463D01*
X153192192Y-91335327D01*
X153334838Y-90991799D01*
X153335162Y-90619833D01*
X153193117Y-90276057D01*
X152930327Y-90012808D01*
X152586799Y-89870162D01*
X152214833Y-89869838D01*
X151871057Y-90011883D01*
X151607808Y-90274673D01*
X151465162Y-90618201D01*
X151464838Y-90990167D01*
X151606883Y-91333943D01*
X151640000Y-91367118D01*
X151640000Y-102852897D01*
X151570799Y-102824162D01*
X151523923Y-102824121D01*
X151255000Y-102555198D01*
X151255000Y-90424000D01*
X151197148Y-90133161D01*
X151032401Y-89886599D01*
X149398122Y-88252320D01*
X149398162Y-88206833D01*
X149256117Y-87863057D01*
X148993327Y-87599808D01*
X148649799Y-87457162D01*
X148277833Y-87456838D01*
X147934057Y-87598883D01*
X147670808Y-87861673D01*
X147528162Y-88205201D01*
X147527838Y-88577167D01*
X135670193Y-88577167D01*
X135504699Y-88411673D01*
X135271310Y-88315000D01*
X134160750Y-88315000D01*
X134002000Y-88473750D01*
X133748000Y-88473750D01*
X133589250Y-88315000D01*
X132478690Y-88315000D01*
X132245301Y-88411673D01*
X132066673Y-88590302D01*
X131970000Y-88823691D01*
X129710000Y-88823691D01*
X129710000Y-86039016D01*
X138275590Y-86039016D01*
X138331271Y-86269611D01*
X138814078Y-86437622D01*
X139324428Y-86408083D01*
X139658729Y-86269611D01*
X139714410Y-86039016D01*
X138995000Y-85319605D01*
X138275590Y-86039016D01*
X129710000Y-86039016D01*
X129710000Y-84959078D01*
X137697378Y-84959078D01*
X137726917Y-85469428D01*
X137865389Y-85803729D01*
X138095984Y-85859410D01*
X138815395Y-85140000D01*
X139174605Y-85140000D01*
X139894016Y-85859410D01*
X140124611Y-85803729D01*
X140197560Y-85594098D01*
X140197560Y-85790000D01*
X140241838Y-86025317D01*
X140380910Y-86241441D01*
X140593110Y-86386431D01*
X140845000Y-86437440D01*
X142145000Y-86437440D01*
X142380317Y-86393162D01*
X142596441Y-86254090D01*
X142741431Y-86041890D01*
X142792440Y-85790000D01*
X142792440Y-84490000D01*
X142748162Y-84254683D01*
X142609090Y-84038559D01*
X142396890Y-83893569D01*
X142145000Y-83842560D01*
X140845000Y-83842560D01*
X140609683Y-83886838D01*
X140393559Y-84025910D01*
X140248569Y-84238110D01*
X140197560Y-84490000D01*
X140197560Y-84652385D01*
X140124611Y-84476271D01*
X139894016Y-84420590D01*
X139174605Y-85140000D01*
X138815395Y-85140000D01*
X138095984Y-84420590D01*
X137865389Y-84476271D01*
X137697378Y-84959078D01*
X129710000Y-84959078D01*
X129710000Y-84240984D01*
X138275590Y-84240984D01*
X138995000Y-84960395D01*
X139714410Y-84240984D01*
X139658729Y-84010389D01*
X139175922Y-83842378D01*
X138665572Y-83871917D01*
X138331271Y-84010389D01*
X138275590Y-84240984D01*
X129710000Y-84240984D01*
X129710000Y-69127000D01*
X129997560Y-69127000D01*
X129997560Y-71050000D01*
X129997560Y-71050000D01*
G37*
X129997560Y-71050000D02*
X130041838Y-71285317D01*
X130180910Y-71501441D01*
X130393110Y-71646431D01*
X130645000Y-71697440D01*
X132245000Y-71697440D01*
X132480317Y-71653162D01*
X132696441Y-71514090D01*
X132841431Y-71301890D01*
X132876906Y-71126709D01*
X133060104Y-71354500D01*
X133553181Y-71624367D01*
X133635961Y-71641904D01*
X133858000Y-71519915D01*
X133858000Y-69977000D01*
X133838000Y-69977000D01*
X133838000Y-69723000D01*
X133858000Y-69723000D01*
X133858000Y-69703000D01*
X134112000Y-69703000D01*
X134112000Y-69723000D01*
X134132000Y-69723000D01*
X134132000Y-69977000D01*
X134112000Y-69977000D01*
X134112000Y-71519915D01*
X134334039Y-71641904D01*
X134416819Y-71624367D01*
X134909896Y-71354500D01*
X135257493Y-70922293D01*
X135510302Y-71300648D01*
X135975849Y-71611717D01*
X136525000Y-71720950D01*
X137074151Y-71611717D01*
X137539698Y-71300648D01*
X137850767Y-70835101D01*
X137960000Y-70285950D01*
X137960000Y-69414050D01*
X137902902Y-69127000D01*
X138887560Y-69127000D01*
X138887560Y-71050000D01*
X138931838Y-71285317D01*
X139070910Y-71501441D01*
X139283110Y-71646431D01*
X139535000Y-71697440D01*
X141135000Y-71697440D01*
X141370317Y-71653162D01*
X141586441Y-71514090D01*
X141731431Y-71301890D01*
X141766906Y-71126709D01*
X141950104Y-71354500D01*
X142443181Y-71624367D01*
X142525961Y-71641904D01*
X142748000Y-71519915D01*
X142748000Y-69977000D01*
X142728000Y-69977000D01*
X142728000Y-69723000D01*
X142748000Y-69723000D01*
X142748000Y-69703000D01*
X143002000Y-69703000D01*
X143002000Y-69723000D01*
X143022000Y-69723000D01*
X143022000Y-69977000D01*
X143002000Y-69977000D01*
X143002000Y-71519915D01*
X143224039Y-71641904D01*
X143306819Y-71624367D01*
X143799896Y-71354500D01*
X144147493Y-70922293D01*
X144400302Y-71300648D01*
X144865849Y-71611717D01*
X145415000Y-71720950D01*
X145964151Y-71611717D01*
X146429698Y-71300648D01*
X146740767Y-70835101D01*
X146850000Y-70285950D01*
X146850000Y-69414050D01*
X146792902Y-69127000D01*
X147777560Y-69127000D01*
X147777560Y-71050000D01*
X147821838Y-71285317D01*
X147960910Y-71501441D01*
X148173110Y-71646431D01*
X148425000Y-71697440D01*
X150025000Y-71697440D01*
X150260317Y-71653162D01*
X150476441Y-71514090D01*
X150621431Y-71301890D01*
X150656906Y-71126709D01*
X150840104Y-71354500D01*
X151333181Y-71624367D01*
X151415961Y-71641904D01*
X151638000Y-71519915D01*
X151638000Y-69977000D01*
X151618000Y-69977000D01*
X151618000Y-69723000D01*
X151638000Y-69723000D01*
X151638000Y-69703000D01*
X151892000Y-69703000D01*
X151892000Y-69723000D01*
X151912000Y-69723000D01*
X151912000Y-69977000D01*
X151892000Y-69977000D01*
X151892000Y-71519915D01*
X152114039Y-71641904D01*
X152196819Y-71624367D01*
X152689896Y-71354500D01*
X153037493Y-70922293D01*
X153290302Y-71300648D01*
X153755849Y-71611717D01*
X154305000Y-71720950D01*
X154854151Y-71611717D01*
X155319698Y-71300648D01*
X155630767Y-70835101D01*
X155740000Y-70285950D01*
X155740000Y-69414050D01*
X155682902Y-69127000D01*
X156667560Y-69127000D01*
X156667560Y-71050000D01*
X156711838Y-71285317D01*
X156850910Y-71501441D01*
X157063110Y-71646431D01*
X157315000Y-71697440D01*
X158915000Y-71697440D01*
X159150317Y-71653162D01*
X159366441Y-71514090D01*
X159511431Y-71301890D01*
X159546906Y-71126709D01*
X159730104Y-71354500D01*
X160223181Y-71624367D01*
X160305961Y-71641904D01*
X160528000Y-71519915D01*
X160528000Y-69977000D01*
X160508000Y-69977000D01*
X160508000Y-69723000D01*
X160528000Y-69723000D01*
X160528000Y-69703000D01*
X160782000Y-69703000D01*
X160782000Y-69723000D01*
X160802000Y-69723000D01*
X160802000Y-69977000D01*
X160782000Y-69977000D01*
X160782000Y-71519915D01*
X161004039Y-71641904D01*
X161086819Y-71624367D01*
X161579896Y-71354500D01*
X161927493Y-70922293D01*
X162180302Y-71300648D01*
X162645849Y-71611717D01*
X163195000Y-71720950D01*
X163744151Y-71611717D01*
X164209698Y-71300648D01*
X164520767Y-70835101D01*
X164630000Y-70285950D01*
X164630000Y-69414050D01*
X164572902Y-69127000D01*
X165557560Y-69127000D01*
X165557560Y-71050000D01*
X165601838Y-71285317D01*
X165740910Y-71501441D01*
X165953110Y-71646431D01*
X166205000Y-71697440D01*
X167805000Y-71697440D01*
X168040317Y-71653162D01*
X168256441Y-71514090D01*
X168401431Y-71301890D01*
X168436906Y-71126709D01*
X168620104Y-71354500D01*
X169113181Y-71624367D01*
X169195961Y-71641904D01*
X169418000Y-71519915D01*
X169418000Y-69977000D01*
X169398000Y-69977000D01*
X169398000Y-69723000D01*
X169418000Y-69723000D01*
X169418000Y-69703000D01*
X169672000Y-69703000D01*
X169672000Y-69723000D01*
X169692000Y-69723000D01*
X169692000Y-69977000D01*
X169672000Y-69977000D01*
X169672000Y-71519915D01*
X169894039Y-71641904D01*
X169976819Y-71624367D01*
X170469896Y-71354500D01*
X170817493Y-70922293D01*
X171070302Y-71300648D01*
X171535849Y-71611717D01*
X172085000Y-71720950D01*
X172634151Y-71611717D01*
X173099698Y-71300648D01*
X173410767Y-70835101D01*
X173520000Y-70285950D01*
X173520000Y-69414050D01*
X173462902Y-69127000D01*
X174447560Y-69127000D01*
X174447560Y-71050000D01*
X174491838Y-71285317D01*
X174630910Y-71501441D01*
X174843110Y-71646431D01*
X175095000Y-71697440D01*
X176695000Y-71697440D01*
X176930317Y-71653162D01*
X177146441Y-71514090D01*
X177291431Y-71301890D01*
X177326906Y-71126709D01*
X177510104Y-71354500D01*
X178003181Y-71624367D01*
X178085961Y-71641904D01*
X178308000Y-71519915D01*
X178308000Y-69977000D01*
X178288000Y-69977000D01*
X178288000Y-69723000D01*
X178308000Y-69723000D01*
X178308000Y-69703000D01*
X178562000Y-69703000D01*
X178562000Y-69723000D01*
X178582000Y-69723000D01*
X178582000Y-69977000D01*
X178562000Y-69977000D01*
X178562000Y-71519915D01*
X178784039Y-71641904D01*
X178866819Y-71624367D01*
X179359896Y-71354500D01*
X179707493Y-70922293D01*
X179960302Y-71300648D01*
X180425849Y-71611717D01*
X180975000Y-71720950D01*
X181524151Y-71611717D01*
X181989698Y-71300648D01*
X182300767Y-70835101D01*
X182410000Y-70285950D01*
X182410000Y-69414050D01*
X182352902Y-69127000D01*
X183337560Y-69127000D01*
X183337560Y-71050000D01*
X183381838Y-71285317D01*
X183520910Y-71501441D01*
X183733110Y-71646431D01*
X183985000Y-71697440D01*
X185585000Y-71697440D01*
X185820317Y-71653162D01*
X186036441Y-71514090D01*
X186181431Y-71301890D01*
X186216906Y-71126709D01*
X186400104Y-71354500D01*
X186893181Y-71624367D01*
X186975961Y-71641904D01*
X187198000Y-71519915D01*
X187198000Y-69977000D01*
X187178000Y-69977000D01*
X187178000Y-69723000D01*
X187198000Y-69723000D01*
X187198000Y-69703000D01*
X187452000Y-69703000D01*
X187452000Y-69723000D01*
X187472000Y-69723000D01*
X187472000Y-69977000D01*
X187452000Y-69977000D01*
X187452000Y-71519915D01*
X187674039Y-71641904D01*
X187756819Y-71624367D01*
X188249896Y-71354500D01*
X188597493Y-70922293D01*
X188850302Y-71300648D01*
X189315849Y-71611717D01*
X189865000Y-71720950D01*
X190414151Y-71611717D01*
X190879698Y-71300648D01*
X191190767Y-70835101D01*
X191300000Y-70285950D01*
X191300000Y-69414050D01*
X191242902Y-69127000D01*
X192227560Y-69127000D01*
X192227560Y-71050000D01*
X192271838Y-71285317D01*
X192410910Y-71501441D01*
X192623110Y-71646431D01*
X192875000Y-71697440D01*
X194475000Y-71697440D01*
X194710317Y-71653162D01*
X194926441Y-71514090D01*
X195071431Y-71301890D01*
X195106906Y-71126709D01*
X195290104Y-71354500D01*
X195783181Y-71624367D01*
X195865961Y-71641904D01*
X196088000Y-71519915D01*
X196088000Y-69977000D01*
X196068000Y-69977000D01*
X196068000Y-69723000D01*
X196088000Y-69723000D01*
X196088000Y-69703000D01*
X196342000Y-69703000D01*
X196342000Y-69723000D01*
X196362000Y-69723000D01*
X196362000Y-69977000D01*
X196342000Y-69977000D01*
X196342000Y-71519915D01*
X196564039Y-71641904D01*
X196646819Y-71624367D01*
X197139896Y-71354500D01*
X197487493Y-70922293D01*
X197740302Y-71300648D01*
X198205849Y-71611717D01*
X198755000Y-71720950D01*
X199304151Y-71611717D01*
X199769698Y-71300648D01*
X200080767Y-70835101D01*
X200190000Y-70285950D01*
X200190000Y-69414050D01*
X200132902Y-69127000D01*
X207290000Y-69127000D01*
X207290000Y-122373000D01*
X200202440Y-122373000D01*
X200202440Y-120720000D01*
X200158162Y-120484683D01*
X200019090Y-120268559D01*
X199806890Y-120123569D01*
X199555000Y-120072560D01*
X197955000Y-120072560D01*
X197719683Y-120116838D01*
X197503559Y-120255910D01*
X197358569Y-120468110D01*
X197323094Y-120643291D01*
X197139896Y-120415500D01*
X196646819Y-120145633D01*
X196564039Y-120128096D01*
X196342000Y-120250085D01*
X196342000Y-121793000D01*
X196362000Y-121793000D01*
X196362000Y-122047000D01*
X196342000Y-122047000D01*
X196342000Y-122067000D01*
X196088000Y-122067000D01*
X196088000Y-122047000D01*
X196068000Y-122047000D01*
X196068000Y-121793000D01*
X196088000Y-121793000D01*
X196088000Y-120250085D01*
X195865961Y-120128096D01*
X195783181Y-120145633D01*
X195290104Y-120415500D01*
X194942507Y-120847707D01*
X194689698Y-120469352D01*
X194224151Y-120158283D01*
X193675000Y-120049050D01*
X193125849Y-120158283D01*
X192660302Y-120469352D01*
X192349233Y-120934899D01*
X192240000Y-121484050D01*
X192240000Y-122355950D01*
X192243391Y-122373000D01*
X191312440Y-122373000D01*
X191312440Y-120720000D01*
X191268162Y-120484683D01*
X191129090Y-120268559D01*
X190916890Y-120123569D01*
X190665000Y-120072560D01*
X189065000Y-120072560D01*
X188829683Y-120116838D01*
X188613559Y-120255910D01*
X188468569Y-120468110D01*
X188433094Y-120643291D01*
X188249896Y-120415500D01*
X187756819Y-120145633D01*
X187674039Y-120128096D01*
X187452000Y-120250085D01*
X187452000Y-121793000D01*
X187472000Y-121793000D01*
X187472000Y-122047000D01*
X187452000Y-122047000D01*
X187452000Y-122067000D01*
X187198000Y-122067000D01*
X187198000Y-122047000D01*
X187178000Y-122047000D01*
X187178000Y-121793000D01*
X187198000Y-121793000D01*
X187198000Y-120250085D01*
X186975961Y-120128096D01*
X186893181Y-120145633D01*
X186400104Y-120415500D01*
X186052507Y-120847707D01*
X185799698Y-120469352D01*
X185334151Y-120158283D01*
X184785000Y-120049050D01*
X184235849Y-120158283D01*
X183770302Y-120469352D01*
X183459233Y-120934899D01*
X183350000Y-121484050D01*
X183350000Y-122355950D01*
X183353391Y-122373000D01*
X182422440Y-122373000D01*
X182422440Y-120720000D01*
X182378162Y-120484683D01*
X182239090Y-120268559D01*
X182026890Y-120123569D01*
X181775000Y-120072560D01*
X180175000Y-120072560D01*
X179939683Y-120116838D01*
X179723559Y-120255910D01*
X179578569Y-120468110D01*
X179543094Y-120643291D01*
X179359896Y-120415500D01*
X178866819Y-120145633D01*
X178784039Y-120128096D01*
X178562000Y-120250085D01*
X178562000Y-121793000D01*
X178582000Y-121793000D01*
X178582000Y-122047000D01*
X178562000Y-122047000D01*
X178562000Y-122067000D01*
X178308000Y-122067000D01*
X178308000Y-122047000D01*
X178288000Y-122047000D01*
X178288000Y-121793000D01*
X178308000Y-121793000D01*
X178308000Y-120250085D01*
X178085961Y-120128096D01*
X178003181Y-120145633D01*
X177510104Y-120415500D01*
X177162507Y-120847707D01*
X176909698Y-120469352D01*
X176444151Y-120158283D01*
X175895000Y-120049050D01*
X175345849Y-120158283D01*
X174880302Y-120469352D01*
X174569233Y-120934899D01*
X174460000Y-121484050D01*
X174460000Y-122355950D01*
X174463391Y-122373000D01*
X173532440Y-122373000D01*
X173532440Y-120720000D01*
X173488162Y-120484683D01*
X173349090Y-120268559D01*
X173136890Y-120123569D01*
X172885000Y-120072560D01*
X171285000Y-120072560D01*
X171049683Y-120116838D01*
X170833559Y-120255910D01*
X170688569Y-120468110D01*
X170653094Y-120643291D01*
X170469896Y-120415500D01*
X169976819Y-120145633D01*
X169894039Y-120128096D01*
X169672000Y-120250085D01*
X169672000Y-121793000D01*
X169692000Y-121793000D01*
X169692000Y-122047000D01*
X169672000Y-122047000D01*
X169672000Y-122067000D01*
X169418000Y-122067000D01*
X169418000Y-122047000D01*
X169398000Y-122047000D01*
X169398000Y-121793000D01*
X169418000Y-121793000D01*
X169418000Y-120250085D01*
X169195961Y-120128096D01*
X169113181Y-120145633D01*
X168620104Y-120415500D01*
X168272507Y-120847707D01*
X168019698Y-120469352D01*
X167554151Y-120158283D01*
X167005000Y-120049050D01*
X166455849Y-120158283D01*
X165990302Y-120469352D01*
X165679233Y-120934899D01*
X165570000Y-121484050D01*
X165570000Y-122355950D01*
X165573391Y-122373000D01*
X164642440Y-122373000D01*
X164642440Y-120720000D01*
X164598162Y-120484683D01*
X164459090Y-120268559D01*
X164246890Y-120123569D01*
X163995000Y-120072560D01*
X162395000Y-120072560D01*
X162159683Y-120116838D01*
X161943559Y-120255910D01*
X161798569Y-120468110D01*
X161763094Y-120643291D01*
X161579896Y-120415500D01*
X161086819Y-120145633D01*
X161004039Y-120128096D01*
X160782000Y-120250085D01*
X160782000Y-121793000D01*
X160802000Y-121793000D01*
X160802000Y-122047000D01*
X160782000Y-122047000D01*
X160782000Y-122067000D01*
X160528000Y-122067000D01*
X160528000Y-122047000D01*
X160508000Y-122047000D01*
X160508000Y-121793000D01*
X160528000Y-121793000D01*
X160528000Y-120250085D01*
X160305961Y-120128096D01*
X160223181Y-120145633D01*
X159730104Y-120415500D01*
X159382507Y-120847707D01*
X159129698Y-120469352D01*
X158664151Y-120158283D01*
X158115000Y-120049050D01*
X157565849Y-120158283D01*
X157100302Y-120469352D01*
X156789233Y-120934899D01*
X156680000Y-121484050D01*
X156680000Y-122355950D01*
X156683391Y-122373000D01*
X155752440Y-122373000D01*
X155752440Y-120720000D01*
X155708162Y-120484683D01*
X155569090Y-120268559D01*
X155356890Y-120123569D01*
X155105000Y-120072560D01*
X153505000Y-120072560D01*
X153269683Y-120116838D01*
X153053559Y-120255910D01*
X152908569Y-120468110D01*
X152873094Y-120643291D01*
X152689896Y-120415500D01*
X152196819Y-120145633D01*
X152114039Y-120128096D01*
X151892000Y-120250085D01*
X151892000Y-121793000D01*
X151912000Y-121793000D01*
X151912000Y-122047000D01*
X151892000Y-122047000D01*
X151892000Y-122067000D01*
X151638000Y-122067000D01*
X151638000Y-122047000D01*
X151618000Y-122047000D01*
X151618000Y-121793000D01*
X151638000Y-121793000D01*
X151638000Y-120250085D01*
X151415961Y-120128096D01*
X151333181Y-120145633D01*
X150840104Y-120415500D01*
X150492507Y-120847707D01*
X150239698Y-120469352D01*
X149774151Y-120158283D01*
X149225000Y-120049050D01*
X148675849Y-120158283D01*
X148210302Y-120469352D01*
X147899233Y-120934899D01*
X147790000Y-121484050D01*
X147790000Y-122355950D01*
X147793391Y-122373000D01*
X146862440Y-122373000D01*
X146862440Y-120720000D01*
X146818162Y-120484683D01*
X146679090Y-120268559D01*
X146466890Y-120123569D01*
X146215000Y-120072560D01*
X144615000Y-120072560D01*
X144379683Y-120116838D01*
X144163559Y-120255910D01*
X144018569Y-120468110D01*
X143983094Y-120643291D01*
X143799896Y-120415500D01*
X143306819Y-120145633D01*
X143224039Y-120128096D01*
X143002000Y-120250085D01*
X143002000Y-121793000D01*
X143022000Y-121793000D01*
X143022000Y-122047000D01*
X143002000Y-122047000D01*
X143002000Y-122067000D01*
X142748000Y-122067000D01*
X142748000Y-122047000D01*
X142728000Y-122047000D01*
X142728000Y-121793000D01*
X142748000Y-121793000D01*
X142748000Y-120250085D01*
X142525961Y-120128096D01*
X142443181Y-120145633D01*
X141950104Y-120415500D01*
X141602507Y-120847707D01*
X141349698Y-120469352D01*
X140884151Y-120158283D01*
X140335000Y-120049050D01*
X139785849Y-120158283D01*
X139320302Y-120469352D01*
X139009233Y-120934899D01*
X138900000Y-121484050D01*
X138900000Y-122355950D01*
X138903391Y-122373000D01*
X137972440Y-122373000D01*
X137972440Y-120720000D01*
X137928162Y-120484683D01*
X137789090Y-120268559D01*
X137576890Y-120123569D01*
X137325000Y-120072560D01*
X135725000Y-120072560D01*
X135489683Y-120116838D01*
X135273559Y-120255910D01*
X135128569Y-120468110D01*
X135093094Y-120643291D01*
X134909896Y-120415500D01*
X134416819Y-120145633D01*
X134334039Y-120128096D01*
X134112000Y-120250085D01*
X134112000Y-121793000D01*
X134132000Y-121793000D01*
X134132000Y-122047000D01*
X134112000Y-122047000D01*
X134112000Y-122067000D01*
X133858000Y-122067000D01*
X133858000Y-122047000D01*
X133838000Y-122047000D01*
X133838000Y-121793000D01*
X133858000Y-121793000D01*
X133858000Y-120250085D01*
X133635961Y-120128096D01*
X133553181Y-120145633D01*
X133060104Y-120415500D01*
X132712507Y-120847707D01*
X132459698Y-120469352D01*
X131994151Y-120158283D01*
X131445000Y-120049050D01*
X130895849Y-120158283D01*
X130430302Y-120469352D01*
X130119233Y-120934899D01*
X130010000Y-121484050D01*
X130010000Y-122355950D01*
X130013391Y-122373000D01*
X129710000Y-122373000D01*
X129710000Y-100009016D01*
X138910590Y-100009016D01*
X138966271Y-100239611D01*
X139449078Y-100407622D01*
X139959428Y-100378083D01*
X140293729Y-100239611D01*
X140349410Y-100009016D01*
X139630000Y-99289605D01*
X138910590Y-100009016D01*
X129710000Y-100009016D01*
X129710000Y-98929078D01*
X138332378Y-98929078D01*
X138361917Y-99439428D01*
X138500389Y-99773729D01*
X138730984Y-99829410D01*
X139450395Y-99110000D01*
X139809605Y-99110000D01*
X140529016Y-99829410D01*
X140759611Y-99773729D01*
X140832560Y-99564098D01*
X140832560Y-99760000D01*
X140876838Y-99995317D01*
X141015910Y-100211441D01*
X141228110Y-100356431D01*
X141480000Y-100407440D01*
X142780000Y-100407440D01*
X143015317Y-100363162D01*
X143231441Y-100224090D01*
X143376431Y-100011890D01*
X143427440Y-99760000D01*
X143427440Y-98460000D01*
X143383162Y-98224683D01*
X143244090Y-98008559D01*
X143031890Y-97863569D01*
X142780000Y-97812560D01*
X141480000Y-97812560D01*
X141244683Y-97856838D01*
X141028559Y-97995910D01*
X140883569Y-98208110D01*
X140832560Y-98460000D01*
X140832560Y-98622385D01*
X140759611Y-98446271D01*
X140529016Y-98390590D01*
X139809605Y-99110000D01*
X139450395Y-99110000D01*
X138730984Y-98390590D01*
X138500389Y-98446271D01*
X138332378Y-98929078D01*
X129710000Y-98929078D01*
X129710000Y-98210984D01*
X138910590Y-98210984D01*
X139630000Y-98930395D01*
X140349410Y-98210984D01*
X140293729Y-97980389D01*
X139810922Y-97812378D01*
X139300572Y-97841917D01*
X138966271Y-97980389D01*
X138910590Y-98210984D01*
X129710000Y-98210984D01*
X129710000Y-95677265D01*
X131969670Y-95677265D01*
X132259078Y-96377686D01*
X132794495Y-96914039D01*
X133494410Y-97204668D01*
X134252265Y-97205330D01*
X134952686Y-96915922D01*
X135489039Y-96380505D01*
X135779668Y-95680590D01*
X135780330Y-94922735D01*
X135490922Y-94222314D01*
X134955505Y-93685961D01*
X134255590Y-93395332D01*
X133497735Y-93394670D01*
X132797314Y-93684078D01*
X132260961Y-94219495D01*
X131970332Y-94919410D01*
X131969670Y-95677265D01*
X129710000Y-95677265D01*
X129710000Y-90505750D01*
X131970000Y-90505750D01*
X131970000Y-91616309D01*
X132066673Y-91849698D01*
X132245301Y-92028327D01*
X132478690Y-92125000D01*
X133589250Y-92125000D01*
X133748000Y-91966250D01*
X133748000Y-90347000D01*
X134002000Y-90347000D01*
X134002000Y-91966250D01*
X134160750Y-92125000D01*
X135271310Y-92125000D01*
X135504699Y-92028327D01*
X135683327Y-91849698D01*
X135780000Y-91616309D01*
X135780000Y-90505750D01*
X135621250Y-90347000D01*
X134002000Y-90347000D01*
X133748000Y-90347000D01*
X132128750Y-90347000D01*
X131970000Y-90505750D01*
X129710000Y-90505750D01*
X129710000Y-88823691D01*
X131970000Y-88823691D01*
X131970000Y-89934250D01*
X132128750Y-90093000D01*
X133748000Y-90093000D01*
X133748000Y-88473750D01*
X134002000Y-88473750D01*
X134002000Y-90093000D01*
X135621250Y-90093000D01*
X135780000Y-89934250D01*
X135780000Y-88823691D01*
X135683327Y-88590302D01*
X135670193Y-88577167D01*
X147527838Y-88577167D01*
X147669883Y-88920943D01*
X147932673Y-89184192D01*
X148276201Y-89326838D01*
X148323077Y-89326879D01*
X149735000Y-90738802D01*
X149735000Y-102870000D01*
X149792852Y-103160839D01*
X149957599Y-103407401D01*
X150448878Y-103898680D01*
X150448838Y-103944167D01*
X150590883Y-104287943D01*
X150853673Y-104551192D01*
X151197201Y-104693838D01*
X151569167Y-104694162D01*
X151640000Y-104664894D01*
X151640000Y-104775000D01*
X151697852Y-105065839D01*
X151862599Y-105312401D01*
X154004878Y-107454680D01*
X154004838Y-107500167D01*
X154146883Y-107843943D01*
X154409673Y-108107192D01*
X154753201Y-108249838D01*
X155125167Y-108250162D01*
X155468943Y-108108117D01*
X155732192Y-107845327D01*
X155874838Y-107501799D01*
X155875162Y-107129833D01*
X155733117Y-106786057D01*
X155470327Y-106522808D01*
X155126799Y-106380162D01*
X155079923Y-106380121D01*
X153160000Y-104460198D01*
X153160000Y-104198167D01*
X153496838Y-104198167D01*
X153638883Y-104541943D01*
X153901673Y-104805192D01*
X154245201Y-104947838D01*
X154617167Y-104948162D01*
X154960943Y-104806117D01*
X155224192Y-104543327D01*
X155366838Y-104199799D01*
X155367162Y-103827833D01*
X155225117Y-103484057D01*
X155192000Y-103450882D01*
X155192000Y-99628802D01*
X159270680Y-95550122D01*
X159316167Y-95550162D01*
X159659943Y-95408117D01*
X159923192Y-95145327D01*
X160065838Y-94801799D01*
X160066162Y-94429833D01*
X160015867Y-94308110D01*
X168628524Y-94308110D01*
X168749845Y-94538000D01*
X169943000Y-94538000D01*
X169943000Y-93344181D01*
X169713108Y-93223514D01*
X169188642Y-93469817D01*
X168798355Y-93898076D01*
X168628524Y-94308110D01*
X160015867Y-94308110D01*
X159988212Y-94241180D01*
X160073839Y-94224148D01*
X160320401Y-94059401D01*
X161367802Y-93012000D01*
X171152198Y-93012000D01*
X171665306Y-93525108D01*
X171530853Y-93614946D01*
X171341655Y-93898101D01*
X171341645Y-93898076D01*
X170951358Y-93469817D01*
X170426892Y-93223514D01*
X170197000Y-93344181D01*
X170197000Y-94538000D01*
X170217000Y-94538000D01*
X170217000Y-94792000D01*
X170197000Y-94792000D01*
X170197000Y-94812000D01*
X169943000Y-94812000D01*
X169943000Y-94792000D01*
X168749845Y-94792000D01*
X168628524Y-95021890D01*
X168798355Y-95431924D01*
X169188642Y-95860183D01*
X169331553Y-95927298D01*
X168990853Y-96154946D01*
X168668946Y-96636715D01*
X168555907Y-97205000D01*
X168668946Y-97773285D01*
X168990853Y-98255054D01*
X169320026Y-98475000D01*
X168990853Y-98694946D01*
X168668946Y-99176715D01*
X168555907Y-99745000D01*
X168668946Y-100313285D01*
X168990853Y-100795054D01*
X169472622Y-101116961D01*
X169608556Y-101144000D01*
X164067802Y-101144000D01*
X162987122Y-100063320D01*
X162987162Y-100017833D01*
X162845117Y-99674057D01*
X162582327Y-99410808D01*
X162238799Y-99268162D01*
X161866833Y-99267838D01*
X161523057Y-99409883D01*
X161259808Y-99672673D01*
X161195161Y-99828359D01*
X159448122Y-98081320D01*
X159448162Y-98035833D01*
X159306117Y-97692057D01*
X159043327Y-97428808D01*
X158699799Y-97286162D01*
X158327833Y-97285838D01*
X157984057Y-97427883D01*
X157720808Y-97690673D01*
X157578162Y-98034201D01*
X157577838Y-98406167D01*
X157719883Y-98749943D01*
X157982673Y-99013192D01*
X158326201Y-99155838D01*
X158373077Y-99155879D01*
X162801599Y-103584401D01*
X163048161Y-103749148D01*
X163339000Y-103807000D01*
X177309000Y-103807000D01*
X177599839Y-103749148D01*
X177846401Y-103584401D01*
X181385680Y-100045122D01*
X181431167Y-100045162D01*
X181774943Y-99903117D01*
X182038192Y-99640327D01*
X182180838Y-99296799D01*
X182181162Y-98924833D01*
X182039117Y-98581057D01*
X181776327Y-98317808D01*
X181432799Y-98175162D01*
X181060833Y-98174838D01*
X180717057Y-98316883D01*
X180453808Y-98579673D01*
X180311162Y-98923201D01*
X180311121Y-98970077D01*
X176994198Y-102287000D01*
X172539802Y-102287000D01*
X173147401Y-101679401D01*
X173312148Y-101432839D01*
X173350021Y-101242440D01*
X173460000Y-101242440D01*
X173695317Y-101198162D01*
X173911441Y-101059090D01*
X174056431Y-100846890D01*
X174107440Y-100595000D01*
X174107440Y-98895000D01*
X174063162Y-98659683D01*
X173924090Y-98443559D01*
X173711890Y-98298569D01*
X173644459Y-98284914D01*
X173689147Y-98255054D01*
X174011054Y-97773285D01*
X174124093Y-97205000D01*
X174022648Y-96695000D01*
X180550198Y-96695000D01*
X181072878Y-97217680D01*
X181072838Y-97263167D01*
X181214883Y-97606943D01*
X181477673Y-97870192D01*
X181821201Y-98012838D01*
X182193167Y-98013162D01*
X182536943Y-97871117D01*
X182800192Y-97608327D01*
X182942838Y-97264799D01*
X182943162Y-96892833D01*
X182801117Y-96549057D01*
X182538327Y-96285808D01*
X182194799Y-96143162D01*
X182147923Y-96143121D01*
X181402401Y-95397599D01*
X181155839Y-95232852D01*
X180865000Y-95175000D01*
X174022648Y-95175000D01*
X174124093Y-94665000D01*
X174011054Y-94096715D01*
X173689147Y-93614946D01*
X173370000Y-93401699D01*
X173370000Y-93395000D01*
X173312148Y-93104161D01*
X173147401Y-92857599D01*
X172004401Y-91714599D01*
X171780510Y-91565000D01*
X189550198Y-91565000D01*
X197184878Y-99199680D01*
X197184838Y-99245167D01*
X197326883Y-99588943D01*
X197589673Y-99852192D01*
X197933201Y-99994838D01*
X198305167Y-99995162D01*
X198648943Y-99853117D01*
X198912192Y-99590327D01*
X199054838Y-99246799D01*
X199055162Y-98874833D01*
X198913117Y-98531057D01*
X198650327Y-98267808D01*
X198306799Y-98125162D01*
X198259923Y-98125121D01*
X190402401Y-90267599D01*
X190155839Y-90102852D01*
X189865000Y-90045000D01*
X182312826Y-90045000D01*
X182362440Y-89800000D01*
X182362440Y-88100000D01*
X182318162Y-87864683D01*
X182179090Y-87648559D01*
X181966890Y-87503569D01*
X181715000Y-87452560D01*
X180015000Y-87452560D01*
X179779683Y-87496838D01*
X179563559Y-87635910D01*
X179418569Y-87848110D01*
X179367560Y-88100000D01*
X179367560Y-89800000D01*
X179411838Y-90035317D01*
X179418069Y-90045000D01*
X157480000Y-90045000D01*
X157189161Y-90102852D01*
X156942599Y-90267599D01*
X155037599Y-92172599D01*
X154872852Y-92419161D01*
X154815000Y-92710000D01*
X154815000Y-93417537D01*
X154782808Y-93449673D01*
X154640162Y-93793201D01*
X154639838Y-94165167D01*
X154781883Y-94508943D01*
X155044673Y-94772192D01*
X155388201Y-94914838D01*
X155760167Y-94915162D01*
X156103943Y-94773117D01*
X156367192Y-94510327D01*
X156451584Y-94307090D01*
X156458673Y-94314192D01*
X156802201Y-94456838D01*
X157174167Y-94457162D01*
X157517943Y-94315117D01*
X157551118Y-94282000D01*
X158256870Y-94282000D01*
X158196162Y-94428201D01*
X158196121Y-94475077D01*
X153894599Y-98776599D01*
X153729852Y-99023161D01*
X153672000Y-99314000D01*
X153672000Y-103450537D01*
X153639808Y-103482673D01*
X153497162Y-103826201D01*
X153496838Y-104198167D01*
X153160000Y-104198167D01*
X153160000Y-91367463D01*
X153192192Y-91335327D01*
X153334838Y-90991799D01*
X153335162Y-90619833D01*
X153193117Y-90276057D01*
X152930327Y-90012808D01*
X152586799Y-89870162D01*
X152214833Y-89869838D01*
X151871057Y-90011883D01*
X151607808Y-90274673D01*
X151465162Y-90618201D01*
X151464838Y-90990167D01*
X151606883Y-91333943D01*
X151640000Y-91367118D01*
X151640000Y-102852897D01*
X151570799Y-102824162D01*
X151523923Y-102824121D01*
X151255000Y-102555198D01*
X151255000Y-90424000D01*
X151197148Y-90133161D01*
X151032401Y-89886599D01*
X149398122Y-88252320D01*
X149398162Y-88206833D01*
X149256117Y-87863057D01*
X148993327Y-87599808D01*
X148649799Y-87457162D01*
X148277833Y-87456838D01*
X147934057Y-87598883D01*
X147670808Y-87861673D01*
X147528162Y-88205201D01*
X147527838Y-88577167D01*
X135670193Y-88577167D01*
X135504699Y-88411673D01*
X135271310Y-88315000D01*
X134160750Y-88315000D01*
X134002000Y-88473750D01*
X133748000Y-88473750D01*
X133589250Y-88315000D01*
X132478690Y-88315000D01*
X132245301Y-88411673D01*
X132066673Y-88590302D01*
X131970000Y-88823691D01*
X129710000Y-88823691D01*
X129710000Y-86039016D01*
X138275590Y-86039016D01*
X138331271Y-86269611D01*
X138814078Y-86437622D01*
X139324428Y-86408083D01*
X139658729Y-86269611D01*
X139714410Y-86039016D01*
X138995000Y-85319605D01*
X138275590Y-86039016D01*
X129710000Y-86039016D01*
X129710000Y-84959078D01*
X137697378Y-84959078D01*
X137726917Y-85469428D01*
X137865389Y-85803729D01*
X138095984Y-85859410D01*
X138815395Y-85140000D01*
X139174605Y-85140000D01*
X139894016Y-85859410D01*
X140124611Y-85803729D01*
X140197560Y-85594098D01*
X140197560Y-85790000D01*
X140241838Y-86025317D01*
X140380910Y-86241441D01*
X140593110Y-86386431D01*
X140845000Y-86437440D01*
X142145000Y-86437440D01*
X142380317Y-86393162D01*
X142596441Y-86254090D01*
X142741431Y-86041890D01*
X142792440Y-85790000D01*
X142792440Y-84490000D01*
X142748162Y-84254683D01*
X142609090Y-84038559D01*
X142396890Y-83893569D01*
X142145000Y-83842560D01*
X140845000Y-83842560D01*
X140609683Y-83886838D01*
X140393559Y-84025910D01*
X140248569Y-84238110D01*
X140197560Y-84490000D01*
X140197560Y-84652385D01*
X140124611Y-84476271D01*
X139894016Y-84420590D01*
X139174605Y-85140000D01*
X138815395Y-85140000D01*
X138095984Y-84420590D01*
X137865389Y-84476271D01*
X137697378Y-84959078D01*
X129710000Y-84959078D01*
X129710000Y-84240984D01*
X138275590Y-84240984D01*
X138995000Y-84960395D01*
X139714410Y-84240984D01*
X139658729Y-84010389D01*
X139175922Y-83842378D01*
X138665572Y-83871917D01*
X138331271Y-84010389D01*
X138275590Y-84240984D01*
X129710000Y-84240984D01*
X129710000Y-69127000D01*
X129997560Y-69127000D01*
X129997560Y-71050000D01*
M02*
