G04 #@! TF.FileFunction,Soldermask,Bot*
%FSLAX46Y46*%
G04 Gerber Fmt 4.6, Leading zero omitted, Abs format (unit mm)*
G04 Created by KiCad (PCBNEW 4.0.5-e0-6337~49~ubuntu16.04.1) date Wed Jan 18 11:42:35 2017*
%MOMM*%
%LPD*%
G01*
G04 APERTURE LIST*
%ADD10C,0.100000*%
%ADD11R,1.700000X1.700000*%
%ADD12C,1.700000*%
%ADD13R,2.400000X2.400000*%
%ADD14C,2.400000*%
%ADD15R,2.100000X2.100000*%
%ADD16R,1.974800X2.686000*%
%ADD17O,1.974800X2.686000*%
%ADD18O,2.100000X2.100000*%
%ADD19R,1.000000X2.350000*%
G04 APERTURE END LIST*
D10*
D11*
X162433000Y-115951000D03*
D12*
X162433000Y-118451000D03*
D11*
X166243000Y-120523000D03*
D12*
X166243000Y-123023000D03*
D13*
X134366000Y-125349000D03*
D14*
X134366000Y-122809000D03*
D13*
X139573000Y-125349000D03*
D14*
X139573000Y-122809000D03*
D13*
X144780000Y-125349000D03*
D14*
X144780000Y-122809000D03*
D15*
X186817000Y-102108000D03*
D16*
X129451100Y-112623600D03*
D17*
X131991100Y-112623600D03*
X134531100Y-112623600D03*
X137071100Y-112623600D03*
X139611100Y-112623600D03*
X142151100Y-112623600D03*
X144691100Y-112623600D03*
X147231100Y-112623600D03*
X149771100Y-112623600D03*
X152311100Y-112623600D03*
X154851100Y-112623600D03*
X157391100Y-112623600D03*
X159931100Y-112623600D03*
X162471100Y-112623600D03*
X165011100Y-112623600D03*
X165011100Y-97383600D03*
X162471100Y-97383600D03*
X159931100Y-97383600D03*
X157391100Y-97383600D03*
X154851100Y-97383600D03*
X152311100Y-97383600D03*
X149771100Y-97383600D03*
X147231100Y-97383600D03*
X144691100Y-97383600D03*
X142151100Y-97383600D03*
X139611100Y-97383600D03*
X137071100Y-97383600D03*
X134531100Y-97383600D03*
X131991100Y-97383600D03*
X129451100Y-97383600D03*
D15*
X150368000Y-124968000D03*
D18*
X152908000Y-124968000D03*
D15*
X159816800Y-125018800D03*
D18*
X157276800Y-125018800D03*
D19*
X182499000Y-113285000D03*
X181229000Y-113285000D03*
X179959000Y-113285000D03*
X178689000Y-113285000D03*
X177419000Y-113285000D03*
X176149000Y-113285000D03*
X174879000Y-113285000D03*
X173609000Y-113285000D03*
X172339000Y-113285000D03*
X171069000Y-113285000D03*
X171069000Y-103885000D03*
X172339000Y-103885000D03*
X173609000Y-103885000D03*
X174879000Y-103885000D03*
X176149000Y-103885000D03*
X177419000Y-103885000D03*
X178689000Y-103885000D03*
X179959000Y-103885000D03*
X181229000Y-103885000D03*
X182499000Y-103885000D03*
M02*
