G04 #@! TF.FileFunction,Legend,Top*
%FSLAX46Y46*%
G04 Gerber Fmt 4.6, Leading zero omitted, Abs format (unit mm)*
G04 Created by KiCad (PCBNEW 4.0.5-e0-6337~49~ubuntu16.04.1) date Wed Jan 18 11:42:35 2017*
%MOMM*%
%LPD*%
G01*
G04 APERTURE LIST*
%ADD10C,0.100000*%
%ADD11C,0.150000*%
%ADD12C,0.120000*%
%ADD13C,0.381000*%
%ADD14C,0.160000*%
%ADD15C,0.304800*%
G04 APERTURE END LIST*
D10*
D11*
X185180000Y-120113000D02*
X169180000Y-120113000D01*
X185180000Y-96413000D02*
X185180000Y-120113000D01*
X169180000Y-96413000D02*
X185180000Y-96413000D01*
X169180000Y-120113000D02*
X169180000Y-96413000D01*
X164932000Y-117276000D02*
X159934000Y-117276000D01*
X164924000Y-117416000D02*
X159942000Y-117416000D01*
X164908000Y-117556000D02*
X162528000Y-117556000D01*
X162338000Y-117556000D02*
X159958000Y-117556000D01*
X164884000Y-117696000D02*
X162923000Y-117696000D01*
X161943000Y-117696000D02*
X159982000Y-117696000D01*
X164851000Y-117836000D02*
X163090000Y-117836000D01*
X161776000Y-117836000D02*
X160015000Y-117836000D01*
X164810000Y-117976000D02*
X163197000Y-117976000D01*
X161669000Y-117976000D02*
X160056000Y-117976000D01*
X164760000Y-118116000D02*
X163268000Y-118116000D01*
X161598000Y-118116000D02*
X160106000Y-118116000D01*
X164699000Y-118256000D02*
X163312000Y-118256000D01*
X161554000Y-118256000D02*
X160167000Y-118256000D01*
X164629000Y-118396000D02*
X163331000Y-118396000D01*
X161535000Y-118396000D02*
X160237000Y-118396000D01*
X164547000Y-118536000D02*
X163329000Y-118536000D01*
X161537000Y-118536000D02*
X160319000Y-118536000D01*
X164452000Y-118676000D02*
X163304000Y-118676000D01*
X161562000Y-118676000D02*
X160414000Y-118676000D01*
X164341000Y-118816000D02*
X163256000Y-118816000D01*
X161610000Y-118816000D02*
X160525000Y-118816000D01*
X164213000Y-118956000D02*
X163178000Y-118956000D01*
X161688000Y-118956000D02*
X160653000Y-118956000D01*
X164064000Y-119096000D02*
X163061000Y-119096000D01*
X161805000Y-119096000D02*
X160802000Y-119096000D01*
X163885000Y-119236000D02*
X162873000Y-119236000D01*
X161993000Y-119236000D02*
X160981000Y-119236000D01*
X163666000Y-119376000D02*
X161200000Y-119376000D01*
X163377000Y-119516000D02*
X161489000Y-119516000D01*
X162905000Y-119656000D02*
X161961000Y-119656000D01*
X163333000Y-118451000D02*
G75*
G03X163333000Y-118451000I-900000J0D01*
G01*
X164970500Y-117201000D02*
G75*
G03X164970500Y-117201000I-2537500J0D01*
G01*
X168742000Y-121848000D02*
X163744000Y-121848000D01*
X168734000Y-121988000D02*
X163752000Y-121988000D01*
X168718000Y-122128000D02*
X166338000Y-122128000D01*
X166148000Y-122128000D02*
X163768000Y-122128000D01*
X168694000Y-122268000D02*
X166733000Y-122268000D01*
X165753000Y-122268000D02*
X163792000Y-122268000D01*
X168661000Y-122408000D02*
X166900000Y-122408000D01*
X165586000Y-122408000D02*
X163825000Y-122408000D01*
X168620000Y-122548000D02*
X167007000Y-122548000D01*
X165479000Y-122548000D02*
X163866000Y-122548000D01*
X168570000Y-122688000D02*
X167078000Y-122688000D01*
X165408000Y-122688000D02*
X163916000Y-122688000D01*
X168509000Y-122828000D02*
X167122000Y-122828000D01*
X165364000Y-122828000D02*
X163977000Y-122828000D01*
X168439000Y-122968000D02*
X167141000Y-122968000D01*
X165345000Y-122968000D02*
X164047000Y-122968000D01*
X168357000Y-123108000D02*
X167139000Y-123108000D01*
X165347000Y-123108000D02*
X164129000Y-123108000D01*
X168262000Y-123248000D02*
X167114000Y-123248000D01*
X165372000Y-123248000D02*
X164224000Y-123248000D01*
X168151000Y-123388000D02*
X167066000Y-123388000D01*
X165420000Y-123388000D02*
X164335000Y-123388000D01*
X168023000Y-123528000D02*
X166988000Y-123528000D01*
X165498000Y-123528000D02*
X164463000Y-123528000D01*
X167874000Y-123668000D02*
X166871000Y-123668000D01*
X165615000Y-123668000D02*
X164612000Y-123668000D01*
X167695000Y-123808000D02*
X166683000Y-123808000D01*
X165803000Y-123808000D02*
X164791000Y-123808000D01*
X167476000Y-123948000D02*
X165010000Y-123948000D01*
X167187000Y-124088000D02*
X165299000Y-124088000D01*
X166715000Y-124228000D02*
X165771000Y-124228000D01*
X167143000Y-123023000D02*
G75*
G03X167143000Y-123023000I-900000J0D01*
G01*
X168780500Y-121773000D02*
G75*
G03X168780500Y-121773000I-2537500J0D01*
G01*
X135680000Y-125548000D02*
X135480000Y-125548000D01*
X133086000Y-125548000D02*
X133266000Y-125548000D01*
X133396357Y-122320256D02*
G75*
G03X133080000Y-125548000I1003643J-1727744D01*
G01*
X133266932Y-122995994D02*
G75*
G03X133266000Y-125099000I1133068J-1052006D01*
G01*
X135706726Y-125535220D02*
G75*
G03X135360000Y-122298000I-1306726J1497220D01*
G01*
X135479253Y-125061889D02*
G75*
G03X135460000Y-123014000I-1079253J1013889D01*
G01*
X140887000Y-125548000D02*
X140687000Y-125548000D01*
X138293000Y-125548000D02*
X138473000Y-125548000D01*
X138603357Y-122320256D02*
G75*
G03X138287000Y-125548000I1003643J-1727744D01*
G01*
X138473932Y-122995994D02*
G75*
G03X138473000Y-125099000I1133068J-1052006D01*
G01*
X140913726Y-125535220D02*
G75*
G03X140567000Y-122298000I-1306726J1497220D01*
G01*
X140686253Y-125061889D02*
G75*
G03X140667000Y-123014000I-1079253J1013889D01*
G01*
X146094000Y-125548000D02*
X145894000Y-125548000D01*
X143500000Y-125548000D02*
X143680000Y-125548000D01*
X143810357Y-122320256D02*
G75*
G03X143494000Y-125548000I1003643J-1727744D01*
G01*
X143680932Y-122995994D02*
G75*
G03X143680000Y-125099000I1133068J-1052006D01*
G01*
X146120726Y-125535220D02*
G75*
G03X145774000Y-122298000I-1306726J1497220D01*
G01*
X145893253Y-125061889D02*
G75*
G03X145874000Y-123014000I-1079253J1013889D01*
G01*
D12*
X185427000Y-103378000D02*
X185427000Y-103498000D01*
X185427000Y-103498000D02*
X188207000Y-103498000D01*
X188207000Y-103498000D02*
X188207000Y-103378000D01*
X188207000Y-103378000D02*
X185427000Y-103378000D01*
X185427000Y-102108000D02*
X185427000Y-100718000D01*
X185427000Y-100718000D02*
X186817000Y-100718000D01*
D11*
X135568000Y-116856000D02*
X135568000Y-118856000D01*
X133418000Y-118856000D02*
X133418000Y-116856000D01*
X140648000Y-116856000D02*
X140648000Y-118856000D01*
X138498000Y-118856000D02*
X138498000Y-116856000D01*
X145855000Y-116856000D02*
X145855000Y-118856000D01*
X143705000Y-118856000D02*
X143705000Y-116856000D01*
D12*
X152268000Y-114827000D02*
X152268000Y-116087000D01*
X152268000Y-121647000D02*
X152268000Y-120387000D01*
X156028000Y-114827000D02*
X152268000Y-114827000D01*
X158278000Y-121647000D02*
X152268000Y-121647000D01*
D13*
X125641100Y-98653600D02*
X168821100Y-98653600D01*
X168821100Y-98653600D02*
X168821100Y-111353600D01*
X168821100Y-111353600D02*
X125641100Y-111353600D01*
X125641100Y-111353600D02*
X125641100Y-98653600D01*
X125641100Y-106273600D02*
X126911100Y-106273600D01*
X126911100Y-106273600D02*
X126911100Y-103733600D01*
X126911100Y-103733600D02*
X125641100Y-103733600D01*
D12*
X151638000Y-126358000D02*
X154298000Y-126358000D01*
X154298000Y-126358000D02*
X154298000Y-123578000D01*
X154298000Y-123578000D02*
X151638000Y-123578000D01*
X151638000Y-123578000D02*
X151638000Y-126358000D01*
X150368000Y-126358000D02*
X148978000Y-126358000D01*
X148978000Y-126358000D02*
X148978000Y-124968000D01*
X158546800Y-123628800D02*
X155886800Y-123628800D01*
X155886800Y-123628800D02*
X155886800Y-126408800D01*
X155886800Y-126408800D02*
X158546800Y-126408800D01*
X158546800Y-126408800D02*
X158546800Y-123628800D01*
X159816800Y-123628800D02*
X161206800Y-123628800D01*
X161206800Y-123628800D02*
X161206800Y-125018800D01*
D14*
X167963905Y-117068524D02*
X168611524Y-117068524D01*
X168687714Y-117030429D01*
X168725810Y-116992333D01*
X168763905Y-116916143D01*
X168763905Y-116763762D01*
X168725810Y-116687571D01*
X168687714Y-116649476D01*
X168611524Y-116611381D01*
X167963905Y-116611381D01*
X167963905Y-116306619D02*
X167963905Y-115811381D01*
X168268667Y-116078048D01*
X168268667Y-115963762D01*
X168306762Y-115887572D01*
X168344857Y-115849476D01*
X168421048Y-115811381D01*
X168611524Y-115811381D01*
X168687714Y-115849476D01*
X168725810Y-115887572D01*
X168763905Y-115963762D01*
X168763905Y-116192334D01*
X168725810Y-116268524D01*
X168687714Y-116306619D01*
D11*
X166590143Y-117367666D02*
X166637762Y-117415285D01*
X166685381Y-117558142D01*
X166685381Y-117653380D01*
X166637762Y-117796238D01*
X166542524Y-117891476D01*
X166447286Y-117939095D01*
X166256810Y-117986714D01*
X166113952Y-117986714D01*
X165923476Y-117939095D01*
X165828238Y-117891476D01*
X165733000Y-117796238D01*
X165685381Y-117653380D01*
X165685381Y-117558142D01*
X165733000Y-117415285D01*
X165780619Y-117367666D01*
X166685381Y-116415285D02*
X166685381Y-116986714D01*
X166685381Y-116701000D02*
X165685381Y-116701000D01*
X165828238Y-116796238D01*
X165923476Y-116891476D01*
X165971095Y-116986714D01*
X170400143Y-121939666D02*
X170447762Y-121987285D01*
X170495381Y-122130142D01*
X170495381Y-122225380D01*
X170447762Y-122368238D01*
X170352524Y-122463476D01*
X170257286Y-122511095D01*
X170066810Y-122558714D01*
X169923952Y-122558714D01*
X169733476Y-122511095D01*
X169638238Y-122463476D01*
X169543000Y-122368238D01*
X169495381Y-122225380D01*
X169495381Y-122130142D01*
X169543000Y-121987285D01*
X169590619Y-121939666D01*
X169590619Y-121558714D02*
X169543000Y-121511095D01*
X169495381Y-121415857D01*
X169495381Y-121177761D01*
X169543000Y-121082523D01*
X169590619Y-121034904D01*
X169685857Y-120987285D01*
X169781095Y-120987285D01*
X169923952Y-121034904D01*
X170495381Y-121606333D01*
X170495381Y-120987285D01*
X133627905Y-127579381D02*
X133627905Y-126579381D01*
X133866000Y-126579381D01*
X134008858Y-126627000D01*
X134104096Y-126722238D01*
X134151715Y-126817476D01*
X134199334Y-127007952D01*
X134199334Y-127150810D01*
X134151715Y-127341286D01*
X134104096Y-127436524D01*
X134008858Y-127531762D01*
X133866000Y-127579381D01*
X133627905Y-127579381D01*
X135151715Y-127579381D02*
X134580286Y-127579381D01*
X134866000Y-127579381D02*
X134866000Y-126579381D01*
X134770762Y-126722238D01*
X134675524Y-126817476D01*
X134580286Y-126865095D01*
X136558381Y-127300905D02*
X135558381Y-127300905D01*
X136558381Y-126729476D02*
X135986952Y-127158048D01*
X135558381Y-126729476D02*
X136129810Y-127300905D01*
X138834905Y-127706381D02*
X138834905Y-126706381D01*
X139073000Y-126706381D01*
X139215858Y-126754000D01*
X139311096Y-126849238D01*
X139358715Y-126944476D01*
X139406334Y-127134952D01*
X139406334Y-127277810D01*
X139358715Y-127468286D01*
X139311096Y-127563524D01*
X139215858Y-127658762D01*
X139073000Y-127706381D01*
X138834905Y-127706381D01*
X139787286Y-126801619D02*
X139834905Y-126754000D01*
X139930143Y-126706381D01*
X140168239Y-126706381D01*
X140263477Y-126754000D01*
X140311096Y-126801619D01*
X140358715Y-126896857D01*
X140358715Y-126992095D01*
X140311096Y-127134952D01*
X139739667Y-127706381D01*
X140358715Y-127706381D01*
X141765381Y-127300905D02*
X140765381Y-127300905D01*
X141765381Y-126729476D02*
X141193952Y-127158048D01*
X140765381Y-126729476D02*
X141336810Y-127300905D01*
X144041905Y-127706381D02*
X144041905Y-126706381D01*
X144280000Y-126706381D01*
X144422858Y-126754000D01*
X144518096Y-126849238D01*
X144565715Y-126944476D01*
X144613334Y-127134952D01*
X144613334Y-127277810D01*
X144565715Y-127468286D01*
X144518096Y-127563524D01*
X144422858Y-127658762D01*
X144280000Y-127706381D01*
X144041905Y-127706381D01*
X144946667Y-126706381D02*
X145565715Y-126706381D01*
X145232381Y-127087333D01*
X145375239Y-127087333D01*
X145470477Y-127134952D01*
X145518096Y-127182571D01*
X145565715Y-127277810D01*
X145565715Y-127515905D01*
X145518096Y-127611143D01*
X145470477Y-127658762D01*
X145375239Y-127706381D01*
X145089524Y-127706381D01*
X144994286Y-127658762D01*
X144946667Y-127611143D01*
X146972381Y-127300905D02*
X145972381Y-127300905D01*
X146972381Y-126729476D02*
X146400952Y-127158048D01*
X145972381Y-126729476D02*
X146543810Y-127300905D01*
X186078905Y-100170381D02*
X186078905Y-99170381D01*
X186459858Y-99170381D01*
X186555096Y-99218000D01*
X186602715Y-99265619D01*
X186650334Y-99360857D01*
X186650334Y-99503714D01*
X186602715Y-99598952D01*
X186555096Y-99646571D01*
X186459858Y-99694190D01*
X186078905Y-99694190D01*
X187602715Y-100170381D02*
X187031286Y-100170381D01*
X187317000Y-100170381D02*
X187317000Y-99170381D01*
X187221762Y-99313238D01*
X187126524Y-99408476D01*
X187031286Y-99456095D01*
X132645381Y-118022666D02*
X132169190Y-118356000D01*
X132645381Y-118594095D02*
X131645381Y-118594095D01*
X131645381Y-118213142D01*
X131693000Y-118117904D01*
X131740619Y-118070285D01*
X131835857Y-118022666D01*
X131978714Y-118022666D01*
X132073952Y-118070285D01*
X132121571Y-118117904D01*
X132169190Y-118213142D01*
X132169190Y-118594095D01*
X132645381Y-117070285D02*
X132645381Y-117641714D01*
X132645381Y-117356000D02*
X131645381Y-117356000D01*
X131788238Y-117451238D01*
X131883476Y-117546476D01*
X131931095Y-117641714D01*
X137725381Y-118022666D02*
X137249190Y-118356000D01*
X137725381Y-118594095D02*
X136725381Y-118594095D01*
X136725381Y-118213142D01*
X136773000Y-118117904D01*
X136820619Y-118070285D01*
X136915857Y-118022666D01*
X137058714Y-118022666D01*
X137153952Y-118070285D01*
X137201571Y-118117904D01*
X137249190Y-118213142D01*
X137249190Y-118594095D01*
X136820619Y-117641714D02*
X136773000Y-117594095D01*
X136725381Y-117498857D01*
X136725381Y-117260761D01*
X136773000Y-117165523D01*
X136820619Y-117117904D01*
X136915857Y-117070285D01*
X137011095Y-117070285D01*
X137153952Y-117117904D01*
X137725381Y-117689333D01*
X137725381Y-117070285D01*
X142932381Y-118022666D02*
X142456190Y-118356000D01*
X142932381Y-118594095D02*
X141932381Y-118594095D01*
X141932381Y-118213142D01*
X141980000Y-118117904D01*
X142027619Y-118070285D01*
X142122857Y-118022666D01*
X142265714Y-118022666D01*
X142360952Y-118070285D01*
X142408571Y-118117904D01*
X142456190Y-118213142D01*
X142456190Y-118594095D01*
X141932381Y-117689333D02*
X141932381Y-117070285D01*
X142313333Y-117403619D01*
X142313333Y-117260761D01*
X142360952Y-117165523D01*
X142408571Y-117117904D01*
X142503810Y-117070285D01*
X142741905Y-117070285D01*
X142837143Y-117117904D01*
X142884762Y-117165523D01*
X142932381Y-117260761D01*
X142932381Y-117546476D01*
X142884762Y-117641714D01*
X142837143Y-117689333D01*
X153416095Y-122189381D02*
X153416095Y-122998905D01*
X153463714Y-123094143D01*
X153511333Y-123141762D01*
X153606571Y-123189381D01*
X153797048Y-123189381D01*
X153892286Y-123141762D01*
X153939905Y-123094143D01*
X153987524Y-122998905D01*
X153987524Y-122189381D01*
X154987524Y-123189381D02*
X154416095Y-123189381D01*
X154701809Y-123189381D02*
X154701809Y-122189381D01*
X154606571Y-122332238D01*
X154511333Y-122427476D01*
X154416095Y-122475095D01*
D15*
X133176433Y-100219933D02*
X133176433Y-101659267D01*
X133261100Y-101828600D01*
X133345767Y-101913267D01*
X133515100Y-101997933D01*
X133853767Y-101997933D01*
X134023100Y-101913267D01*
X134107767Y-101828600D01*
X134192433Y-101659267D01*
X134192433Y-100219933D01*
X134954434Y-100389267D02*
X135039100Y-100304600D01*
X135208434Y-100219933D01*
X135631767Y-100219933D01*
X135801100Y-100304600D01*
X135885767Y-100389267D01*
X135970434Y-100558600D01*
X135970434Y-100727933D01*
X135885767Y-100981933D01*
X134869767Y-101997933D01*
X135970434Y-101997933D01*
X140542431Y-108982933D02*
X140542431Y-108051600D01*
X140457765Y-107882267D01*
X140288431Y-107797600D01*
X139949765Y-107797600D01*
X139780431Y-107882267D01*
X140542431Y-108898267D02*
X140373098Y-108982933D01*
X139949765Y-108982933D01*
X139780431Y-108898267D01*
X139695765Y-108728933D01*
X139695765Y-108559600D01*
X139780431Y-108390267D01*
X139949765Y-108305600D01*
X140373098Y-108305600D01*
X140542431Y-108220933D01*
X141389098Y-108982933D02*
X141389098Y-107797600D01*
X141389098Y-108136267D02*
X141473765Y-107966933D01*
X141558432Y-107882267D01*
X141727765Y-107797600D01*
X141897098Y-107797600D01*
X143251765Y-108982933D02*
X143251765Y-107204933D01*
X143251765Y-108898267D02*
X143082432Y-108982933D01*
X142743765Y-108982933D01*
X142574432Y-108898267D01*
X142489765Y-108813600D01*
X142405099Y-108644267D01*
X142405099Y-108136267D01*
X142489765Y-107966933D01*
X142574432Y-107882267D01*
X142743765Y-107797600D01*
X143082432Y-107797600D01*
X143251765Y-107882267D01*
X144860432Y-107797600D02*
X144860432Y-108982933D01*
X144098432Y-107797600D02*
X144098432Y-108728933D01*
X144183099Y-108898267D01*
X144352432Y-108982933D01*
X144606432Y-108982933D01*
X144775766Y-108898267D01*
X144860432Y-108813600D01*
X145707099Y-108982933D02*
X145707099Y-107797600D01*
X145707099Y-107204933D02*
X145622433Y-107289600D01*
X145707099Y-107374267D01*
X145791766Y-107289600D01*
X145707099Y-107204933D01*
X145707099Y-107374267D01*
X146553766Y-107797600D02*
X146553766Y-108982933D01*
X146553766Y-107966933D02*
X146638433Y-107882267D01*
X146807766Y-107797600D01*
X147061766Y-107797600D01*
X147231100Y-107882267D01*
X147315766Y-108051600D01*
X147315766Y-108982933D01*
X148416433Y-108982933D02*
X148247100Y-108898267D01*
X148162433Y-108813600D01*
X148077767Y-108644267D01*
X148077767Y-108136267D01*
X148162433Y-107966933D01*
X148247100Y-107882267D01*
X148416433Y-107797600D01*
X148670433Y-107797600D01*
X148839767Y-107882267D01*
X148924433Y-107966933D01*
X149009100Y-108136267D01*
X149009100Y-108644267D01*
X148924433Y-108813600D01*
X148839767Y-108898267D01*
X148670433Y-108982933D01*
X148416433Y-108982933D01*
X149347767Y-109152267D02*
X150702434Y-109152267D01*
X151125767Y-108982933D02*
X151125767Y-107797600D01*
X151125767Y-107966933D02*
X151210434Y-107882267D01*
X151379767Y-107797600D01*
X151633767Y-107797600D01*
X151803101Y-107882267D01*
X151887767Y-108051600D01*
X151887767Y-108982933D01*
X151887767Y-108051600D02*
X151972434Y-107882267D01*
X152141767Y-107797600D01*
X152395767Y-107797600D01*
X152565101Y-107882267D01*
X152649767Y-108051600D01*
X152649767Y-108982933D01*
X153496434Y-108982933D02*
X153496434Y-107797600D01*
X153496434Y-107204933D02*
X153411768Y-107289600D01*
X153496434Y-107374267D01*
X153581101Y-107289600D01*
X153496434Y-107204933D01*
X153496434Y-107374267D01*
X154343101Y-107797600D02*
X154343101Y-108982933D01*
X154343101Y-107966933D02*
X154427768Y-107882267D01*
X154597101Y-107797600D01*
X154851101Y-107797600D01*
X155020435Y-107882267D01*
X155105101Y-108051600D01*
X155105101Y-108982933D01*
X155951768Y-108982933D02*
X155951768Y-107797600D01*
X155951768Y-107204933D02*
X155867102Y-107289600D01*
X155951768Y-107374267D01*
X156036435Y-107289600D01*
X155951768Y-107204933D01*
X155951768Y-107374267D01*
D11*
X150899905Y-127706381D02*
X150899905Y-126706381D01*
X151280858Y-126706381D01*
X151376096Y-126754000D01*
X151423715Y-126801619D01*
X151471334Y-126896857D01*
X151471334Y-127039714D01*
X151423715Y-127134952D01*
X151376096Y-127182571D01*
X151280858Y-127230190D01*
X150899905Y-127230190D01*
X151852286Y-126801619D02*
X151899905Y-126754000D01*
X151995143Y-126706381D01*
X152233239Y-126706381D01*
X152328477Y-126754000D01*
X152376096Y-126801619D01*
X152423715Y-126896857D01*
X152423715Y-126992095D01*
X152376096Y-127134952D01*
X151804667Y-127706381D01*
X152423715Y-127706381D01*
X157884905Y-127706381D02*
X157884905Y-126706381D01*
X158265858Y-126706381D01*
X158361096Y-126754000D01*
X158408715Y-126801619D01*
X158456334Y-126896857D01*
X158456334Y-127039714D01*
X158408715Y-127134952D01*
X158361096Y-127182571D01*
X158265858Y-127230190D01*
X157884905Y-127230190D01*
X158789667Y-126706381D02*
X159408715Y-126706381D01*
X159075381Y-127087333D01*
X159218239Y-127087333D01*
X159313477Y-127134952D01*
X159361096Y-127182571D01*
X159408715Y-127277810D01*
X159408715Y-127515905D01*
X159361096Y-127611143D01*
X159313477Y-127658762D01*
X159218239Y-127706381D01*
X158932524Y-127706381D01*
X158837286Y-127658762D01*
X158789667Y-127611143D01*
M02*
