G04 #@! TF.FileFunction,Copper,L1,Top,Signal*
%FSLAX46Y46*%
G04 Gerber Fmt 4.6, Leading zero omitted, Abs format (unit mm)*
G04 Created by KiCad (PCBNEW 4.0.5-e0-6337~49~ubuntu16.04.1) date Wed Jan 18 11:42:35 2017*
%MOMM*%
%LPD*%
G01*
G04 APERTURE LIST*
%ADD10C,0.100000*%
%ADD11R,1.200000X3.000000*%
%ADD12R,1.300000X1.300000*%
%ADD13C,1.300000*%
%ADD14R,2.000000X2.000000*%
%ADD15C,2.000000*%
%ADD16R,1.700000X1.700000*%
%ADD17R,1.700000X2.000000*%
%ADD18R,2.000000X3.800000*%
%ADD19R,2.000000X1.500000*%
%ADD20R,1.574800X2.286000*%
%ADD21O,1.574800X2.286000*%
%ADD22O,1.700000X1.700000*%
%ADD23C,0.600000*%
%ADD24C,0.250000*%
%ADD25C,0.254000*%
G04 APERTURE END LIST*
D10*
D11*
X170180000Y-118113000D03*
X172180000Y-118113000D03*
X174180000Y-118113000D03*
X176180000Y-118113000D03*
X178180000Y-118113000D03*
X180180000Y-118113000D03*
X182180000Y-118113000D03*
X184180000Y-118113000D03*
X184180000Y-98413000D03*
X182180000Y-98413000D03*
X180180000Y-98413000D03*
X178180000Y-98413000D03*
X176180000Y-98413000D03*
X174180000Y-98413000D03*
X172180000Y-98413000D03*
X170180000Y-98413000D03*
D12*
X162433000Y-115951000D03*
D13*
X162433000Y-118451000D03*
D12*
X166243000Y-120523000D03*
D13*
X166243000Y-123023000D03*
D14*
X134366000Y-125349000D03*
D15*
X134366000Y-122809000D03*
D14*
X139573000Y-125349000D03*
D15*
X139573000Y-122809000D03*
D14*
X144780000Y-125349000D03*
D15*
X144780000Y-122809000D03*
D16*
X186817000Y-102108000D03*
D17*
X134493000Y-119856000D03*
X134493000Y-115856000D03*
X139573000Y-119856000D03*
X139573000Y-115856000D03*
X144780000Y-119856000D03*
X144780000Y-115856000D03*
D18*
X151028000Y-118237000D03*
D19*
X157328000Y-118237000D03*
X157328000Y-115937000D03*
X157328000Y-120537000D03*
D20*
X129451100Y-112623600D03*
D21*
X131991100Y-112623600D03*
X134531100Y-112623600D03*
X137071100Y-112623600D03*
X139611100Y-112623600D03*
X142151100Y-112623600D03*
X144691100Y-112623600D03*
X147231100Y-112623600D03*
X149771100Y-112623600D03*
X152311100Y-112623600D03*
X154851100Y-112623600D03*
X157391100Y-112623600D03*
X159931100Y-112623600D03*
X162471100Y-112623600D03*
X165011100Y-112623600D03*
X165011100Y-97383600D03*
X162471100Y-97383600D03*
X159931100Y-97383600D03*
X157391100Y-97383600D03*
X154851100Y-97383600D03*
X152311100Y-97383600D03*
X149771100Y-97383600D03*
X147231100Y-97383600D03*
X144691100Y-97383600D03*
X142151100Y-97383600D03*
X139611100Y-97383600D03*
X137071100Y-97383600D03*
X134531100Y-97383600D03*
X131991100Y-97383600D03*
X129451100Y-97383600D03*
D16*
X150368000Y-124968000D03*
D22*
X152908000Y-124968000D03*
D16*
X159816800Y-125018800D03*
D22*
X157276800Y-125018800D03*
D23*
X175387000Y-110998000D03*
X179451000Y-101600000D03*
X177419000Y-110744000D03*
X174244000Y-100711000D03*
X172720000Y-101092000D03*
D24*
X150368000Y-124968000D02*
X150368000Y-123698000D01*
X149733000Y-115697000D02*
X157088000Y-115697000D01*
X149098000Y-116332000D02*
X149733000Y-115697000D01*
X149098000Y-122428000D02*
X149098000Y-116332000D01*
X150368000Y-123698000D02*
X149098000Y-122428000D01*
X157088000Y-115697000D02*
X157328000Y-115937000D01*
X157328000Y-115937000D02*
X157328000Y-112686700D01*
X157328000Y-112686700D02*
X157391100Y-112623600D01*
X162433000Y-115951000D02*
X157342000Y-115951000D01*
X157342000Y-115951000D02*
X157328000Y-115937000D01*
X147002500Y-123126500D02*
X147320000Y-122809000D01*
X144780000Y-125349000D02*
X147002500Y-123126500D01*
X147320000Y-122809000D02*
X147320000Y-122936000D01*
X162471100Y-111036100D02*
X162471100Y-112623600D01*
X162052000Y-110617000D02*
X162471100Y-111036100D01*
X148971000Y-110617000D02*
X162052000Y-110617000D01*
X148463000Y-111125000D02*
X148971000Y-110617000D01*
X148463000Y-113919000D02*
X148463000Y-111125000D01*
X147320000Y-115062000D02*
X148463000Y-113919000D01*
X147320000Y-122936000D02*
X147320000Y-115062000D01*
X134493000Y-119856000D02*
X134493000Y-122682000D01*
X134493000Y-122682000D02*
X134366000Y-122809000D01*
X139573000Y-119856000D02*
X139573000Y-122809000D01*
X144780000Y-119856000D02*
X144780000Y-122809000D01*
X182000000Y-98700000D02*
X182000000Y-100974000D01*
X183134000Y-102108000D02*
X186817000Y-102108000D01*
X182000000Y-100974000D02*
X183134000Y-102108000D01*
X134493000Y-115856000D02*
X136112000Y-115856000D01*
X137071100Y-114896900D02*
X137071100Y-112623600D01*
X136112000Y-115856000D02*
X137071100Y-114896900D01*
X137000000Y-112694700D02*
X137071100Y-112623600D01*
X139611100Y-112623600D02*
X139611100Y-115817900D01*
X139611100Y-115817900D02*
X139573000Y-115856000D01*
X142151100Y-112623600D02*
X142151100Y-114719100D01*
X143288000Y-115856000D02*
X144780000Y-115856000D01*
X142151100Y-114719100D02*
X143288000Y-115856000D01*
X142151100Y-112623600D02*
X142151100Y-113322100D01*
X157276800Y-125018800D02*
X157276800Y-123698000D01*
X154432000Y-120853200D02*
X154432000Y-118237000D01*
X157276800Y-123698000D02*
X154432000Y-120853200D01*
X184000000Y-118400000D02*
X184000000Y-119784000D01*
X167132000Y-120523000D02*
X166243000Y-120523000D01*
X183261000Y-120523000D02*
X167132000Y-120523000D01*
X184000000Y-119784000D02*
X183261000Y-120523000D01*
X166243000Y-120523000D02*
X166243000Y-119126000D01*
X158877000Y-118237000D02*
X157328000Y-118237000D01*
X166243000Y-119126000D02*
X164211000Y-117094000D01*
X164211000Y-117094000D02*
X160020000Y-117094000D01*
X160020000Y-117094000D02*
X158877000Y-118237000D01*
X157328000Y-118237000D02*
X158242000Y-118237000D01*
X151028000Y-118237000D02*
X154432000Y-118237000D01*
X154432000Y-118237000D02*
X157328000Y-118237000D01*
X172180000Y-114205000D02*
X172180000Y-118113000D01*
X175387000Y-110998000D02*
X172180000Y-114205000D01*
X178180000Y-100329000D02*
X178180000Y-98413000D01*
X179451000Y-101600000D02*
X178180000Y-100329000D01*
X176180000Y-98413000D02*
X176180000Y-109505000D01*
X176180000Y-109505000D02*
X177419000Y-110744000D01*
X174180000Y-100647000D02*
X174180000Y-98413000D01*
X174244000Y-100711000D02*
X174180000Y-100647000D01*
X172180000Y-98413000D02*
X172180000Y-100552000D01*
X172180000Y-100552000D02*
X172720000Y-101092000D01*
D25*
G36*
X189290000Y-127290000D02*
X126710000Y-127290000D01*
X126710000Y-125634750D01*
X132731000Y-125634750D01*
X132731000Y-126475310D01*
X132827673Y-126708699D01*
X133006302Y-126887327D01*
X133239691Y-126984000D01*
X134080250Y-126984000D01*
X134239000Y-126825250D01*
X134239000Y-125476000D01*
X134493000Y-125476000D01*
X134493000Y-126825250D01*
X134651750Y-126984000D01*
X135492309Y-126984000D01*
X135725698Y-126887327D01*
X135904327Y-126708699D01*
X136001000Y-126475310D01*
X136001000Y-125634750D01*
X137938000Y-125634750D01*
X137938000Y-126475310D01*
X138034673Y-126708699D01*
X138213302Y-126887327D01*
X138446691Y-126984000D01*
X139287250Y-126984000D01*
X139446000Y-126825250D01*
X139446000Y-125476000D01*
X139700000Y-125476000D01*
X139700000Y-126825250D01*
X139858750Y-126984000D01*
X140699309Y-126984000D01*
X140932698Y-126887327D01*
X141111327Y-126708699D01*
X141208000Y-126475310D01*
X141208000Y-125634750D01*
X143145000Y-125634750D01*
X143145000Y-126475310D01*
X143241673Y-126708699D01*
X143420302Y-126887327D01*
X143653691Y-126984000D01*
X144494250Y-126984000D01*
X144653000Y-126825250D01*
X144653000Y-125476000D01*
X144907000Y-125476000D01*
X144907000Y-126825250D01*
X145065750Y-126984000D01*
X145906309Y-126984000D01*
X146139698Y-126887327D01*
X146318327Y-126708699D01*
X146415000Y-126475310D01*
X146415000Y-125634750D01*
X146256250Y-125476000D01*
X144907000Y-125476000D01*
X144653000Y-125476000D01*
X143303750Y-125476000D01*
X143145000Y-125634750D01*
X141208000Y-125634750D01*
X141049250Y-125476000D01*
X139700000Y-125476000D01*
X139446000Y-125476000D01*
X138096750Y-125476000D01*
X137938000Y-125634750D01*
X136001000Y-125634750D01*
X135842250Y-125476000D01*
X134493000Y-125476000D01*
X134239000Y-125476000D01*
X132889750Y-125476000D01*
X132731000Y-125634750D01*
X126710000Y-125634750D01*
X126710000Y-123132795D01*
X132730716Y-123132795D01*
X132979106Y-123733943D01*
X133041251Y-123796197D01*
X133006302Y-123810673D01*
X132827673Y-123989301D01*
X132731000Y-124222690D01*
X132731000Y-125063250D01*
X132889750Y-125222000D01*
X134239000Y-125222000D01*
X134239000Y-125202000D01*
X134493000Y-125202000D01*
X134493000Y-125222000D01*
X135842250Y-125222000D01*
X136001000Y-125063250D01*
X136001000Y-124222690D01*
X135904327Y-123989301D01*
X135725698Y-123810673D01*
X135691166Y-123796370D01*
X135751278Y-123736363D01*
X136000716Y-123135648D01*
X136000718Y-123132795D01*
X137937716Y-123132795D01*
X138186106Y-123733943D01*
X138248251Y-123796197D01*
X138213302Y-123810673D01*
X138034673Y-123989301D01*
X137938000Y-124222690D01*
X137938000Y-125063250D01*
X138096750Y-125222000D01*
X139446000Y-125222000D01*
X139446000Y-125202000D01*
X139700000Y-125202000D01*
X139700000Y-125222000D01*
X141049250Y-125222000D01*
X141208000Y-125063250D01*
X141208000Y-124222690D01*
X141111327Y-123989301D01*
X140932698Y-123810673D01*
X140898166Y-123796370D01*
X140958278Y-123736363D01*
X141207716Y-123135648D01*
X141207718Y-123132795D01*
X143144716Y-123132795D01*
X143393106Y-123733943D01*
X143455251Y-123796197D01*
X143420302Y-123810673D01*
X143241673Y-123989301D01*
X143145000Y-124222690D01*
X143145000Y-125063250D01*
X143303750Y-125222000D01*
X144653000Y-125222000D01*
X144653000Y-125202000D01*
X144907000Y-125202000D01*
X144907000Y-125222000D01*
X146256250Y-125222000D01*
X146415000Y-125063250D01*
X146415000Y-124222690D01*
X146318327Y-123989301D01*
X146139698Y-123810673D01*
X146105166Y-123796370D01*
X146165278Y-123736363D01*
X146414716Y-123135648D01*
X146415284Y-122485205D01*
X146166894Y-121884057D01*
X145762124Y-121478579D01*
X145865317Y-121459162D01*
X146081441Y-121320090D01*
X146226431Y-121107890D01*
X146277440Y-120856000D01*
X146277440Y-118856000D01*
X146233162Y-118620683D01*
X146094090Y-118404559D01*
X145881890Y-118259569D01*
X145630000Y-118208560D01*
X143930000Y-118208560D01*
X143694683Y-118252838D01*
X143478559Y-118391910D01*
X143333569Y-118604110D01*
X143282560Y-118856000D01*
X143282560Y-120856000D01*
X143326838Y-121091317D01*
X143465910Y-121307441D01*
X143678110Y-121452431D01*
X143799960Y-121477106D01*
X143394722Y-121881637D01*
X143145284Y-122482352D01*
X143144716Y-123132795D01*
X141207718Y-123132795D01*
X141208284Y-122485205D01*
X140959894Y-121884057D01*
X140555124Y-121478579D01*
X140658317Y-121459162D01*
X140874441Y-121320090D01*
X141019431Y-121107890D01*
X141070440Y-120856000D01*
X141070440Y-118856000D01*
X141026162Y-118620683D01*
X140887090Y-118404559D01*
X140674890Y-118259569D01*
X140423000Y-118208560D01*
X138723000Y-118208560D01*
X138487683Y-118252838D01*
X138271559Y-118391910D01*
X138126569Y-118604110D01*
X138075560Y-118856000D01*
X138075560Y-120856000D01*
X138119838Y-121091317D01*
X138258910Y-121307441D01*
X138471110Y-121452431D01*
X138592960Y-121477106D01*
X138187722Y-121881637D01*
X137938284Y-122482352D01*
X137937716Y-123132795D01*
X136000718Y-123132795D01*
X136001284Y-122485205D01*
X135752894Y-121884057D01*
X135368207Y-121498697D01*
X135578317Y-121459162D01*
X135794441Y-121320090D01*
X135939431Y-121107890D01*
X135990440Y-120856000D01*
X135990440Y-118856000D01*
X135946162Y-118620683D01*
X135807090Y-118404559D01*
X135594890Y-118259569D01*
X135343000Y-118208560D01*
X133643000Y-118208560D01*
X133407683Y-118252838D01*
X133191559Y-118391910D01*
X133046569Y-118604110D01*
X132995560Y-118856000D01*
X132995560Y-120856000D01*
X133039838Y-121091317D01*
X133178910Y-121307441D01*
X133391110Y-121452431D01*
X133407379Y-121455725D01*
X132980722Y-121881637D01*
X132731284Y-122482352D01*
X132730716Y-123132795D01*
X126710000Y-123132795D01*
X126710000Y-111480600D01*
X128016260Y-111480600D01*
X128016260Y-113766600D01*
X128060538Y-114001917D01*
X128199610Y-114218041D01*
X128411810Y-114363031D01*
X128663700Y-114414040D01*
X130238500Y-114414040D01*
X130473817Y-114369762D01*
X130689941Y-114230690D01*
X130834931Y-114018490D01*
X130869700Y-113846797D01*
X130985311Y-114019822D01*
X131446771Y-114328159D01*
X131991100Y-114436433D01*
X132535429Y-114328159D01*
X132996889Y-114019822D01*
X133261100Y-113624401D01*
X133525311Y-114019822D01*
X133807778Y-114208560D01*
X133643000Y-114208560D01*
X133407683Y-114252838D01*
X133191559Y-114391910D01*
X133046569Y-114604110D01*
X132995560Y-114856000D01*
X132995560Y-116856000D01*
X133039838Y-117091317D01*
X133178910Y-117307441D01*
X133391110Y-117452431D01*
X133643000Y-117503440D01*
X135343000Y-117503440D01*
X135578317Y-117459162D01*
X135794441Y-117320090D01*
X135939431Y-117107890D01*
X135990440Y-116856000D01*
X135990440Y-116616000D01*
X136112000Y-116616000D01*
X136402839Y-116558148D01*
X136649401Y-116393401D01*
X137608501Y-115434301D01*
X137773248Y-115187740D01*
X137831100Y-114896900D01*
X137831100Y-114184053D01*
X138076889Y-114019822D01*
X138341100Y-113624401D01*
X138605311Y-114019822D01*
X138851100Y-114184053D01*
X138851100Y-114208560D01*
X138723000Y-114208560D01*
X138487683Y-114252838D01*
X138271559Y-114391910D01*
X138126569Y-114604110D01*
X138075560Y-114856000D01*
X138075560Y-116856000D01*
X138119838Y-117091317D01*
X138258910Y-117307441D01*
X138471110Y-117452431D01*
X138723000Y-117503440D01*
X140423000Y-117503440D01*
X140658317Y-117459162D01*
X140874441Y-117320090D01*
X141019431Y-117107890D01*
X141070440Y-116856000D01*
X141070440Y-114856000D01*
X141026162Y-114620683D01*
X140887090Y-114404559D01*
X140674890Y-114259569D01*
X140423000Y-114208560D01*
X140371100Y-114208560D01*
X140371100Y-114184053D01*
X140616889Y-114019822D01*
X140881100Y-113624401D01*
X141145311Y-114019822D01*
X141391100Y-114184053D01*
X141391100Y-114719100D01*
X141448952Y-115009939D01*
X141613699Y-115256501D01*
X142750599Y-116393401D01*
X142997160Y-116558148D01*
X143282560Y-116614918D01*
X143282560Y-116856000D01*
X143326838Y-117091317D01*
X143465910Y-117307441D01*
X143678110Y-117452431D01*
X143930000Y-117503440D01*
X145630000Y-117503440D01*
X145865317Y-117459162D01*
X146081441Y-117320090D01*
X146226431Y-117107890D01*
X146277440Y-116856000D01*
X146277440Y-114856000D01*
X146233162Y-114620683D01*
X146094090Y-114404559D01*
X145881890Y-114259569D01*
X145630000Y-114208560D01*
X145414422Y-114208560D01*
X145696889Y-114019822D01*
X145961100Y-113624401D01*
X146225311Y-114019822D01*
X146686771Y-114328159D01*
X147231100Y-114436433D01*
X147775429Y-114328159D01*
X148236889Y-114019822D01*
X148501100Y-113624401D01*
X148765311Y-114019822D01*
X149226771Y-114328159D01*
X149771100Y-114436433D01*
X150315429Y-114328159D01*
X150776889Y-114019822D01*
X151041100Y-113624401D01*
X151305311Y-114019822D01*
X151766771Y-114328159D01*
X152311100Y-114436433D01*
X152855429Y-114328159D01*
X153316889Y-114019822D01*
X153581100Y-113624401D01*
X153845311Y-114019822D01*
X154306771Y-114328159D01*
X154851100Y-114436433D01*
X155395429Y-114328159D01*
X155856889Y-114019822D01*
X156121100Y-113624401D01*
X156385311Y-114019822D01*
X156568000Y-114141891D01*
X156568000Y-114539560D01*
X156328000Y-114539560D01*
X156092683Y-114583838D01*
X155876559Y-114722910D01*
X155731569Y-114935110D01*
X155731186Y-114937000D01*
X149733000Y-114937000D01*
X149442161Y-114994852D01*
X149195599Y-115159599D01*
X148560599Y-115794599D01*
X148395852Y-116041161D01*
X148338000Y-116332000D01*
X148338000Y-122428000D01*
X148395852Y-122718839D01*
X148560599Y-122965401D01*
X149177634Y-123582436D01*
X149066559Y-123653910D01*
X148921569Y-123866110D01*
X148870560Y-124118000D01*
X148870560Y-125818000D01*
X148914838Y-126053317D01*
X149053910Y-126269441D01*
X149266110Y-126414431D01*
X149518000Y-126465440D01*
X151218000Y-126465440D01*
X151453317Y-126421162D01*
X151669441Y-126282090D01*
X151814431Y-126069890D01*
X151836301Y-125961893D01*
X152141076Y-126239645D01*
X152551110Y-126409476D01*
X152781000Y-126288155D01*
X152781000Y-125095000D01*
X153035000Y-125095000D01*
X153035000Y-126288155D01*
X153264890Y-126409476D01*
X153674924Y-126239645D01*
X154103183Y-125849358D01*
X154349486Y-125324892D01*
X154228819Y-125095000D01*
X153035000Y-125095000D01*
X152781000Y-125095000D01*
X152761000Y-125095000D01*
X152761000Y-124841000D01*
X152781000Y-124841000D01*
X152781000Y-123647845D01*
X153035000Y-123647845D01*
X153035000Y-124841000D01*
X154228819Y-124841000D01*
X154349486Y-124611108D01*
X154103183Y-124086642D01*
X153674924Y-123696355D01*
X153264890Y-123526524D01*
X153035000Y-123647845D01*
X152781000Y-123647845D01*
X152551110Y-123526524D01*
X152141076Y-123696355D01*
X151838063Y-123972501D01*
X151821162Y-123882683D01*
X151682090Y-123666559D01*
X151469890Y-123521569D01*
X151218000Y-123470560D01*
X151082759Y-123470560D01*
X151070148Y-123407160D01*
X150905401Y-123160599D01*
X149858000Y-122113198D01*
X149858000Y-120750014D01*
X150028000Y-120784440D01*
X152028000Y-120784440D01*
X152263317Y-120740162D01*
X152479441Y-120601090D01*
X152624431Y-120388890D01*
X152675440Y-120137000D01*
X152675440Y-118997000D01*
X153672000Y-118997000D01*
X153672000Y-120853200D01*
X153729852Y-121144039D01*
X153894599Y-121390601D01*
X156356771Y-123852773D01*
X156226746Y-123939653D01*
X155904839Y-124421422D01*
X155791800Y-124989707D01*
X155791800Y-125047893D01*
X155904839Y-125616178D01*
X156226746Y-126097947D01*
X156708515Y-126419854D01*
X157276800Y-126532893D01*
X157845085Y-126419854D01*
X158326854Y-126097947D01*
X158356203Y-126054023D01*
X158428473Y-126228498D01*
X158607101Y-126407127D01*
X158840490Y-126503800D01*
X159531050Y-126503800D01*
X159689800Y-126345050D01*
X159689800Y-125145800D01*
X159943800Y-125145800D01*
X159943800Y-126345050D01*
X160102550Y-126503800D01*
X160793110Y-126503800D01*
X161026499Y-126407127D01*
X161205127Y-126228498D01*
X161301800Y-125995109D01*
X161301800Y-125304550D01*
X161143050Y-125145800D01*
X159943800Y-125145800D01*
X159689800Y-125145800D01*
X159669800Y-125145800D01*
X159669800Y-124891800D01*
X159689800Y-124891800D01*
X159689800Y-123692550D01*
X159943800Y-123692550D01*
X159943800Y-124891800D01*
X161143050Y-124891800D01*
X161301800Y-124733050D01*
X161301800Y-124042491D01*
X161251898Y-123922016D01*
X165523590Y-123922016D01*
X165579271Y-124152611D01*
X166062078Y-124320622D01*
X166572428Y-124291083D01*
X166906729Y-124152611D01*
X166962410Y-123922016D01*
X166243000Y-123202605D01*
X165523590Y-123922016D01*
X161251898Y-123922016D01*
X161205127Y-123809102D01*
X161026499Y-123630473D01*
X160793110Y-123533800D01*
X160102550Y-123533800D01*
X159943800Y-123692550D01*
X159689800Y-123692550D01*
X159531050Y-123533800D01*
X158840490Y-123533800D01*
X158607101Y-123630473D01*
X158428473Y-123809102D01*
X158356203Y-123983577D01*
X158326854Y-123939653D01*
X158036800Y-123745846D01*
X158036800Y-123698000D01*
X157978948Y-123407161D01*
X157814201Y-123160599D01*
X157495680Y-122842078D01*
X164945378Y-122842078D01*
X164974917Y-123352428D01*
X165113389Y-123686729D01*
X165343984Y-123742410D01*
X166063395Y-123023000D01*
X166422605Y-123023000D01*
X167142016Y-123742410D01*
X167372611Y-123686729D01*
X167540622Y-123203922D01*
X167511083Y-122693572D01*
X167372611Y-122359271D01*
X167142016Y-122303590D01*
X166422605Y-123023000D01*
X166063395Y-123023000D01*
X165343984Y-122303590D01*
X165113389Y-122359271D01*
X164945378Y-122842078D01*
X157495680Y-122842078D01*
X156575602Y-121922000D01*
X157042250Y-121922000D01*
X157201000Y-121763250D01*
X157201000Y-120664000D01*
X157455000Y-120664000D01*
X157455000Y-121763250D01*
X157613750Y-121922000D01*
X158454309Y-121922000D01*
X158687698Y-121825327D01*
X158866327Y-121646699D01*
X158963000Y-121413310D01*
X158963000Y-120822750D01*
X158804250Y-120664000D01*
X157455000Y-120664000D01*
X157201000Y-120664000D01*
X155851750Y-120664000D01*
X155693000Y-120822750D01*
X155693000Y-121039398D01*
X155192000Y-120538398D01*
X155192000Y-118997000D01*
X155682442Y-118997000D01*
X155724838Y-119222317D01*
X155830482Y-119386492D01*
X155789673Y-119427301D01*
X155693000Y-119660690D01*
X155693000Y-120251250D01*
X155851750Y-120410000D01*
X157201000Y-120410000D01*
X157201000Y-120390000D01*
X157455000Y-120390000D01*
X157455000Y-120410000D01*
X158804250Y-120410000D01*
X158963000Y-120251250D01*
X158963000Y-119660690D01*
X158866327Y-119427301D01*
X158824366Y-119385340D01*
X158848501Y-119350016D01*
X161713590Y-119350016D01*
X161769271Y-119580611D01*
X162252078Y-119748622D01*
X162762428Y-119719083D01*
X163096729Y-119580611D01*
X163152410Y-119350016D01*
X162433000Y-118630605D01*
X161713590Y-119350016D01*
X158848501Y-119350016D01*
X158924431Y-119238890D01*
X158975440Y-118987000D01*
X158975440Y-118977419D01*
X159167839Y-118939148D01*
X159414401Y-118774401D01*
X160334802Y-117854000D01*
X161280168Y-117854000D01*
X161135378Y-118270078D01*
X161164917Y-118780428D01*
X161303389Y-119114729D01*
X161533984Y-119170410D01*
X162253395Y-118451000D01*
X162239252Y-118436858D01*
X162418858Y-118257252D01*
X162433000Y-118271395D01*
X162447142Y-118257252D01*
X162626748Y-118436858D01*
X162612605Y-118451000D01*
X163332016Y-119170410D01*
X163562611Y-119114729D01*
X163730622Y-118631922D01*
X163701083Y-118121572D01*
X163590251Y-117854000D01*
X163896198Y-117854000D01*
X165329908Y-119287710D01*
X165141559Y-119408910D01*
X164996569Y-119621110D01*
X164945560Y-119873000D01*
X164945560Y-121173000D01*
X164989838Y-121408317D01*
X165128910Y-121624441D01*
X165341110Y-121769431D01*
X165593000Y-121820440D01*
X165755385Y-121820440D01*
X165579271Y-121893389D01*
X165523590Y-122123984D01*
X166243000Y-122843395D01*
X166962410Y-122123984D01*
X166906729Y-121893389D01*
X166697098Y-121820440D01*
X166893000Y-121820440D01*
X167128317Y-121776162D01*
X167344441Y-121637090D01*
X167489431Y-121424890D01*
X167518164Y-121283000D01*
X183261000Y-121283000D01*
X183551839Y-121225148D01*
X183798401Y-121060401D01*
X184537401Y-120321401D01*
X184578134Y-120260440D01*
X184780000Y-120260440D01*
X185015317Y-120216162D01*
X185231441Y-120077090D01*
X185376431Y-119864890D01*
X185427440Y-119613000D01*
X185427440Y-116613000D01*
X185383162Y-116377683D01*
X185244090Y-116161559D01*
X185031890Y-116016569D01*
X184780000Y-115965560D01*
X183580000Y-115965560D01*
X183344683Y-116009838D01*
X183178523Y-116116759D01*
X183031890Y-116016569D01*
X182780000Y-115965560D01*
X181580000Y-115965560D01*
X181344683Y-116009838D01*
X181178523Y-116116759D01*
X181031890Y-116016569D01*
X180780000Y-115965560D01*
X179580000Y-115965560D01*
X179344683Y-116009838D01*
X179178523Y-116116759D01*
X179031890Y-116016569D01*
X178780000Y-115965560D01*
X177580000Y-115965560D01*
X177344683Y-116009838D01*
X177178523Y-116116759D01*
X177031890Y-116016569D01*
X176780000Y-115965560D01*
X175580000Y-115965560D01*
X175344683Y-116009838D01*
X175178523Y-116116759D01*
X175031890Y-116016569D01*
X174780000Y-115965560D01*
X173580000Y-115965560D01*
X173344683Y-116009838D01*
X173178523Y-116116759D01*
X173031890Y-116016569D01*
X172940000Y-115997961D01*
X172940000Y-114519802D01*
X175526680Y-111933122D01*
X175572167Y-111933162D01*
X175915943Y-111791117D01*
X176179192Y-111528327D01*
X176321838Y-111184799D01*
X176322162Y-110812833D01*
X176258178Y-110657980D01*
X176483878Y-110883680D01*
X176483838Y-110929167D01*
X176625883Y-111272943D01*
X176888673Y-111536192D01*
X177232201Y-111678838D01*
X177604167Y-111679162D01*
X177947943Y-111537117D01*
X178211192Y-111274327D01*
X178353838Y-110930799D01*
X178354162Y-110558833D01*
X178212117Y-110215057D01*
X177949327Y-109951808D01*
X177605799Y-109809162D01*
X177558923Y-109809121D01*
X176940000Y-109190198D01*
X176940000Y-100530334D01*
X177015317Y-100516162D01*
X177181477Y-100409241D01*
X177328110Y-100509431D01*
X177461253Y-100536393D01*
X177477852Y-100619839D01*
X177642599Y-100866401D01*
X178515878Y-101739680D01*
X178515838Y-101785167D01*
X178657883Y-102128943D01*
X178920673Y-102392192D01*
X179264201Y-102534838D01*
X179636167Y-102535162D01*
X179979943Y-102393117D01*
X180243192Y-102130327D01*
X180385838Y-101786799D01*
X180386162Y-101414833D01*
X180244117Y-101071057D01*
X179981327Y-100807808D01*
X179637799Y-100665162D01*
X179590923Y-100665121D01*
X179473802Y-100548000D01*
X179894250Y-100548000D01*
X180053000Y-100389250D01*
X180053000Y-98540000D01*
X180033000Y-98540000D01*
X180033000Y-98286000D01*
X180053000Y-98286000D01*
X180053000Y-96436750D01*
X180307000Y-96436750D01*
X180307000Y-98286000D01*
X180327000Y-98286000D01*
X180327000Y-98540000D01*
X180307000Y-98540000D01*
X180307000Y-100389250D01*
X180465750Y-100548000D01*
X180906310Y-100548000D01*
X181139699Y-100451327D01*
X181181660Y-100409366D01*
X181240000Y-100449228D01*
X181240000Y-100974000D01*
X181297852Y-101264839D01*
X181462599Y-101511401D01*
X182596599Y-102645401D01*
X182843160Y-102810148D01*
X183134000Y-102868000D01*
X185319560Y-102868000D01*
X185319560Y-102958000D01*
X185363838Y-103193317D01*
X185502910Y-103409441D01*
X185715110Y-103554431D01*
X185967000Y-103605440D01*
X187667000Y-103605440D01*
X187902317Y-103561162D01*
X188118441Y-103422090D01*
X188263431Y-103209890D01*
X188314440Y-102958000D01*
X188314440Y-101258000D01*
X188270162Y-101022683D01*
X188131090Y-100806559D01*
X187918890Y-100661569D01*
X187667000Y-100610560D01*
X185967000Y-100610560D01*
X185731683Y-100654838D01*
X185515559Y-100793910D01*
X185370569Y-101006110D01*
X185319560Y-101258000D01*
X185319560Y-101348000D01*
X183448802Y-101348000D01*
X182760000Y-100659198D01*
X182760000Y-100560440D01*
X182780000Y-100560440D01*
X183015317Y-100516162D01*
X183179492Y-100410518D01*
X183220301Y-100451327D01*
X183453690Y-100548000D01*
X183894250Y-100548000D01*
X184053000Y-100389250D01*
X184053000Y-98540000D01*
X184307000Y-98540000D01*
X184307000Y-100389250D01*
X184465750Y-100548000D01*
X184906310Y-100548000D01*
X185139699Y-100451327D01*
X185318327Y-100272698D01*
X185415000Y-100039309D01*
X185415000Y-98698750D01*
X185256250Y-98540000D01*
X184307000Y-98540000D01*
X184053000Y-98540000D01*
X184033000Y-98540000D01*
X184033000Y-98286000D01*
X184053000Y-98286000D01*
X184053000Y-96436750D01*
X184307000Y-96436750D01*
X184307000Y-98286000D01*
X185256250Y-98286000D01*
X185415000Y-98127250D01*
X185415000Y-96786691D01*
X185318327Y-96553302D01*
X185139699Y-96374673D01*
X184906310Y-96278000D01*
X184465750Y-96278000D01*
X184307000Y-96436750D01*
X184053000Y-96436750D01*
X183894250Y-96278000D01*
X183453690Y-96278000D01*
X183220301Y-96374673D01*
X183178340Y-96416634D01*
X183031890Y-96316569D01*
X182780000Y-96265560D01*
X181580000Y-96265560D01*
X181344683Y-96309838D01*
X181180508Y-96415482D01*
X181139699Y-96374673D01*
X180906310Y-96278000D01*
X180465750Y-96278000D01*
X180307000Y-96436750D01*
X180053000Y-96436750D01*
X179894250Y-96278000D01*
X179453690Y-96278000D01*
X179220301Y-96374673D01*
X179178340Y-96416634D01*
X179031890Y-96316569D01*
X178780000Y-96265560D01*
X177580000Y-96265560D01*
X177344683Y-96309838D01*
X177178523Y-96416759D01*
X177031890Y-96316569D01*
X176780000Y-96265560D01*
X175580000Y-96265560D01*
X175344683Y-96309838D01*
X175178523Y-96416759D01*
X175031890Y-96316569D01*
X174780000Y-96265560D01*
X173580000Y-96265560D01*
X173344683Y-96309838D01*
X173178523Y-96416759D01*
X173031890Y-96316569D01*
X172780000Y-96265560D01*
X171580000Y-96265560D01*
X171344683Y-96309838D01*
X171178523Y-96416759D01*
X171031890Y-96316569D01*
X170780000Y-96265560D01*
X169580000Y-96265560D01*
X169344683Y-96309838D01*
X169128559Y-96448910D01*
X168983569Y-96661110D01*
X168932560Y-96913000D01*
X168932560Y-99913000D01*
X168976838Y-100148317D01*
X169115910Y-100364441D01*
X169328110Y-100509431D01*
X169580000Y-100560440D01*
X170780000Y-100560440D01*
X171015317Y-100516162D01*
X171181477Y-100409241D01*
X171328110Y-100509431D01*
X171420000Y-100528039D01*
X171420000Y-100552000D01*
X171477852Y-100842839D01*
X171642599Y-101089401D01*
X171784878Y-101231680D01*
X171784838Y-101277167D01*
X171926883Y-101620943D01*
X172189673Y-101884192D01*
X172533201Y-102026838D01*
X172905167Y-102027162D01*
X173248943Y-101885117D01*
X173512192Y-101622327D01*
X173606317Y-101395649D01*
X173713673Y-101503192D01*
X174057201Y-101645838D01*
X174429167Y-101646162D01*
X174772943Y-101504117D01*
X175036192Y-101241327D01*
X175178838Y-100897799D01*
X175179162Y-100525833D01*
X175141592Y-100434906D01*
X175181477Y-100409241D01*
X175328110Y-100509431D01*
X175420000Y-100528039D01*
X175420000Y-109505000D01*
X175477852Y-109795839D01*
X175642599Y-110042401D01*
X175726957Y-110126759D01*
X175573799Y-110063162D01*
X175201833Y-110062838D01*
X174858057Y-110204883D01*
X174594808Y-110467673D01*
X174452162Y-110811201D01*
X174452121Y-110858077D01*
X171642599Y-113667599D01*
X171477852Y-113914161D01*
X171420000Y-114205000D01*
X171420000Y-115995666D01*
X171344683Y-116009838D01*
X171178523Y-116116759D01*
X171031890Y-116016569D01*
X170780000Y-115965560D01*
X169580000Y-115965560D01*
X169344683Y-116009838D01*
X169128559Y-116148910D01*
X168983569Y-116361110D01*
X168932560Y-116613000D01*
X168932560Y-119613000D01*
X168960784Y-119763000D01*
X167519742Y-119763000D01*
X167496162Y-119637683D01*
X167357090Y-119421559D01*
X167144890Y-119276569D01*
X167003000Y-119247836D01*
X167003000Y-119126000D01*
X166945148Y-118835161D01*
X166780401Y-118588599D01*
X164748401Y-116556599D01*
X164501839Y-116391852D01*
X164211000Y-116334000D01*
X163730440Y-116334000D01*
X163730440Y-115301000D01*
X163686162Y-115065683D01*
X163547090Y-114849559D01*
X163334890Y-114704569D01*
X163083000Y-114653560D01*
X161783000Y-114653560D01*
X161547683Y-114697838D01*
X161331559Y-114836910D01*
X161186569Y-115049110D01*
X161157836Y-115191000D01*
X158975440Y-115191000D01*
X158975440Y-115187000D01*
X158931162Y-114951683D01*
X158792090Y-114735559D01*
X158579890Y-114590569D01*
X158328000Y-114539560D01*
X158088000Y-114539560D01*
X158088000Y-114226215D01*
X158396889Y-114019822D01*
X158661100Y-113624401D01*
X158925311Y-114019822D01*
X159386771Y-114328159D01*
X159931100Y-114436433D01*
X160475429Y-114328159D01*
X160936889Y-114019822D01*
X161200854Y-113624770D01*
X161205575Y-113640862D01*
X161555114Y-114074791D01*
X162044104Y-114341927D01*
X162124040Y-114358610D01*
X162344100Y-114236452D01*
X162344100Y-112750600D01*
X162324100Y-112750600D01*
X162324100Y-112496600D01*
X162344100Y-112496600D01*
X162344100Y-111010748D01*
X162598100Y-111010748D01*
X162598100Y-112496600D01*
X162618100Y-112496600D01*
X162618100Y-112750600D01*
X162598100Y-112750600D01*
X162598100Y-114236452D01*
X162818160Y-114358610D01*
X162898096Y-114341927D01*
X163387086Y-114074791D01*
X163736625Y-113640862D01*
X163741346Y-113624770D01*
X164005311Y-114019822D01*
X164466771Y-114328159D01*
X165011100Y-114436433D01*
X165555429Y-114328159D01*
X166016889Y-114019822D01*
X166325226Y-113558362D01*
X166433500Y-113014033D01*
X166433500Y-112233167D01*
X166325226Y-111688838D01*
X166016889Y-111227378D01*
X165555429Y-110919041D01*
X165011100Y-110810767D01*
X164466771Y-110919041D01*
X164005311Y-111227378D01*
X163741346Y-111622430D01*
X163736625Y-111606338D01*
X163387086Y-111172409D01*
X162898096Y-110905273D01*
X162818160Y-110888590D01*
X162598100Y-111010748D01*
X162344100Y-111010748D01*
X162124040Y-110888590D01*
X162044104Y-110905273D01*
X161555114Y-111172409D01*
X161205575Y-111606338D01*
X161200854Y-111622430D01*
X160936889Y-111227378D01*
X160475429Y-110919041D01*
X159931100Y-110810767D01*
X159386771Y-110919041D01*
X158925311Y-111227378D01*
X158661100Y-111622799D01*
X158396889Y-111227378D01*
X157935429Y-110919041D01*
X157391100Y-110810767D01*
X156846771Y-110919041D01*
X156385311Y-111227378D01*
X156121100Y-111622799D01*
X155856889Y-111227378D01*
X155395429Y-110919041D01*
X154851100Y-110810767D01*
X154306771Y-110919041D01*
X153845311Y-111227378D01*
X153581100Y-111622799D01*
X153316889Y-111227378D01*
X152855429Y-110919041D01*
X152311100Y-110810767D01*
X151766771Y-110919041D01*
X151305311Y-111227378D01*
X151041100Y-111622799D01*
X150776889Y-111227378D01*
X150315429Y-110919041D01*
X149771100Y-110810767D01*
X149226771Y-110919041D01*
X148765311Y-111227378D01*
X148501100Y-111622799D01*
X148236889Y-111227378D01*
X147775429Y-110919041D01*
X147231100Y-110810767D01*
X146686771Y-110919041D01*
X146225311Y-111227378D01*
X145961100Y-111622799D01*
X145696889Y-111227378D01*
X145235429Y-110919041D01*
X144691100Y-110810767D01*
X144146771Y-110919041D01*
X143685311Y-111227378D01*
X143421100Y-111622799D01*
X143156889Y-111227378D01*
X142695429Y-110919041D01*
X142151100Y-110810767D01*
X141606771Y-110919041D01*
X141145311Y-111227378D01*
X140881100Y-111622799D01*
X140616889Y-111227378D01*
X140155429Y-110919041D01*
X139611100Y-110810767D01*
X139066771Y-110919041D01*
X138605311Y-111227378D01*
X138341100Y-111622799D01*
X138076889Y-111227378D01*
X137615429Y-110919041D01*
X137071100Y-110810767D01*
X136526771Y-110919041D01*
X136065311Y-111227378D01*
X135801100Y-111622799D01*
X135536889Y-111227378D01*
X135075429Y-110919041D01*
X134531100Y-110810767D01*
X133986771Y-110919041D01*
X133525311Y-111227378D01*
X133261100Y-111622799D01*
X132996889Y-111227378D01*
X132535429Y-110919041D01*
X131991100Y-110810767D01*
X131446771Y-110919041D01*
X130985311Y-111227378D01*
X130870597Y-111399060D01*
X130841662Y-111245283D01*
X130702590Y-111029159D01*
X130490390Y-110884169D01*
X130238500Y-110833160D01*
X128663700Y-110833160D01*
X128428383Y-110877438D01*
X128212259Y-111016510D01*
X128067269Y-111228710D01*
X128016260Y-111480600D01*
X126710000Y-111480600D01*
X126710000Y-96993167D01*
X128028700Y-96993167D01*
X128028700Y-97774033D01*
X128136974Y-98318362D01*
X128445311Y-98779822D01*
X128906771Y-99088159D01*
X129451100Y-99196433D01*
X129995429Y-99088159D01*
X130456889Y-98779822D01*
X130721100Y-98384401D01*
X130985311Y-98779822D01*
X131446771Y-99088159D01*
X131991100Y-99196433D01*
X132535429Y-99088159D01*
X132996889Y-98779822D01*
X133261100Y-98384401D01*
X133525311Y-98779822D01*
X133986771Y-99088159D01*
X134531100Y-99196433D01*
X135075429Y-99088159D01*
X135536889Y-98779822D01*
X135801100Y-98384401D01*
X136065311Y-98779822D01*
X136526771Y-99088159D01*
X137071100Y-99196433D01*
X137615429Y-99088159D01*
X138076889Y-98779822D01*
X138341100Y-98384401D01*
X138605311Y-98779822D01*
X139066771Y-99088159D01*
X139611100Y-99196433D01*
X140155429Y-99088159D01*
X140616889Y-98779822D01*
X140881100Y-98384401D01*
X141145311Y-98779822D01*
X141606771Y-99088159D01*
X142151100Y-99196433D01*
X142695429Y-99088159D01*
X143156889Y-98779822D01*
X143421100Y-98384401D01*
X143685311Y-98779822D01*
X144146771Y-99088159D01*
X144691100Y-99196433D01*
X145235429Y-99088159D01*
X145696889Y-98779822D01*
X145961100Y-98384401D01*
X146225311Y-98779822D01*
X146686771Y-99088159D01*
X147231100Y-99196433D01*
X147775429Y-99088159D01*
X148236889Y-98779822D01*
X148501100Y-98384401D01*
X148765311Y-98779822D01*
X149226771Y-99088159D01*
X149771100Y-99196433D01*
X150315429Y-99088159D01*
X150776889Y-98779822D01*
X151041100Y-98384401D01*
X151305311Y-98779822D01*
X151766771Y-99088159D01*
X152311100Y-99196433D01*
X152855429Y-99088159D01*
X153316889Y-98779822D01*
X153581100Y-98384401D01*
X153845311Y-98779822D01*
X154306771Y-99088159D01*
X154851100Y-99196433D01*
X155395429Y-99088159D01*
X155856889Y-98779822D01*
X156120854Y-98384770D01*
X156125575Y-98400862D01*
X156475114Y-98834791D01*
X156964104Y-99101927D01*
X157044040Y-99118610D01*
X157264100Y-98996452D01*
X157264100Y-97510600D01*
X157244100Y-97510600D01*
X157244100Y-97256600D01*
X157264100Y-97256600D01*
X157264100Y-95770748D01*
X157518100Y-95770748D01*
X157518100Y-97256600D01*
X157538100Y-97256600D01*
X157538100Y-97510600D01*
X157518100Y-97510600D01*
X157518100Y-98996452D01*
X157738160Y-99118610D01*
X157818096Y-99101927D01*
X158307086Y-98834791D01*
X158656625Y-98400862D01*
X158661346Y-98384770D01*
X158925311Y-98779822D01*
X159386771Y-99088159D01*
X159931100Y-99196433D01*
X160475429Y-99088159D01*
X160936889Y-98779822D01*
X161201100Y-98384401D01*
X161465311Y-98779822D01*
X161926771Y-99088159D01*
X162471100Y-99196433D01*
X163015429Y-99088159D01*
X163476889Y-98779822D01*
X163741100Y-98384401D01*
X164005311Y-98779822D01*
X164466771Y-99088159D01*
X165011100Y-99196433D01*
X165555429Y-99088159D01*
X166016889Y-98779822D01*
X166325226Y-98318362D01*
X166433500Y-97774033D01*
X166433500Y-96993167D01*
X166325226Y-96448838D01*
X166016889Y-95987378D01*
X165555429Y-95679041D01*
X165011100Y-95570767D01*
X164466771Y-95679041D01*
X164005311Y-95987378D01*
X163741100Y-96382799D01*
X163476889Y-95987378D01*
X163015429Y-95679041D01*
X162471100Y-95570767D01*
X161926771Y-95679041D01*
X161465311Y-95987378D01*
X161201100Y-96382799D01*
X160936889Y-95987378D01*
X160475429Y-95679041D01*
X159931100Y-95570767D01*
X159386771Y-95679041D01*
X158925311Y-95987378D01*
X158661346Y-96382430D01*
X158656625Y-96366338D01*
X158307086Y-95932409D01*
X157818096Y-95665273D01*
X157738160Y-95648590D01*
X157518100Y-95770748D01*
X157264100Y-95770748D01*
X157044040Y-95648590D01*
X156964104Y-95665273D01*
X156475114Y-95932409D01*
X156125575Y-96366338D01*
X156120854Y-96382430D01*
X155856889Y-95987378D01*
X155395429Y-95679041D01*
X154851100Y-95570767D01*
X154306771Y-95679041D01*
X153845311Y-95987378D01*
X153581100Y-96382799D01*
X153316889Y-95987378D01*
X152855429Y-95679041D01*
X152311100Y-95570767D01*
X151766771Y-95679041D01*
X151305311Y-95987378D01*
X151041100Y-96382799D01*
X150776889Y-95987378D01*
X150315429Y-95679041D01*
X149771100Y-95570767D01*
X149226771Y-95679041D01*
X148765311Y-95987378D01*
X148501100Y-96382799D01*
X148236889Y-95987378D01*
X147775429Y-95679041D01*
X147231100Y-95570767D01*
X146686771Y-95679041D01*
X146225311Y-95987378D01*
X145961100Y-96382799D01*
X145696889Y-95987378D01*
X145235429Y-95679041D01*
X144691100Y-95570767D01*
X144146771Y-95679041D01*
X143685311Y-95987378D01*
X143421100Y-96382799D01*
X143156889Y-95987378D01*
X142695429Y-95679041D01*
X142151100Y-95570767D01*
X141606771Y-95679041D01*
X141145311Y-95987378D01*
X140881100Y-96382799D01*
X140616889Y-95987378D01*
X140155429Y-95679041D01*
X139611100Y-95570767D01*
X139066771Y-95679041D01*
X138605311Y-95987378D01*
X138341100Y-96382799D01*
X138076889Y-95987378D01*
X137615429Y-95679041D01*
X137071100Y-95570767D01*
X136526771Y-95679041D01*
X136065311Y-95987378D01*
X135801100Y-96382799D01*
X135536889Y-95987378D01*
X135075429Y-95679041D01*
X134531100Y-95570767D01*
X133986771Y-95679041D01*
X133525311Y-95987378D01*
X133261100Y-96382799D01*
X132996889Y-95987378D01*
X132535429Y-95679041D01*
X131991100Y-95570767D01*
X131446771Y-95679041D01*
X130985311Y-95987378D01*
X130721100Y-96382799D01*
X130456889Y-95987378D01*
X129995429Y-95679041D01*
X129451100Y-95570767D01*
X128906771Y-95679041D01*
X128445311Y-95987378D01*
X128136974Y-96448838D01*
X128028700Y-96993167D01*
X126710000Y-96993167D01*
X126710000Y-94710000D01*
X189290000Y-94710000D01*
X189290000Y-127290000D01*
X189290000Y-127290000D01*
G37*
X189290000Y-127290000D02*
X126710000Y-127290000D01*
X126710000Y-125634750D01*
X132731000Y-125634750D01*
X132731000Y-126475310D01*
X132827673Y-126708699D01*
X133006302Y-126887327D01*
X133239691Y-126984000D01*
X134080250Y-126984000D01*
X134239000Y-126825250D01*
X134239000Y-125476000D01*
X134493000Y-125476000D01*
X134493000Y-126825250D01*
X134651750Y-126984000D01*
X135492309Y-126984000D01*
X135725698Y-126887327D01*
X135904327Y-126708699D01*
X136001000Y-126475310D01*
X136001000Y-125634750D01*
X137938000Y-125634750D01*
X137938000Y-126475310D01*
X138034673Y-126708699D01*
X138213302Y-126887327D01*
X138446691Y-126984000D01*
X139287250Y-126984000D01*
X139446000Y-126825250D01*
X139446000Y-125476000D01*
X139700000Y-125476000D01*
X139700000Y-126825250D01*
X139858750Y-126984000D01*
X140699309Y-126984000D01*
X140932698Y-126887327D01*
X141111327Y-126708699D01*
X141208000Y-126475310D01*
X141208000Y-125634750D01*
X143145000Y-125634750D01*
X143145000Y-126475310D01*
X143241673Y-126708699D01*
X143420302Y-126887327D01*
X143653691Y-126984000D01*
X144494250Y-126984000D01*
X144653000Y-126825250D01*
X144653000Y-125476000D01*
X144907000Y-125476000D01*
X144907000Y-126825250D01*
X145065750Y-126984000D01*
X145906309Y-126984000D01*
X146139698Y-126887327D01*
X146318327Y-126708699D01*
X146415000Y-126475310D01*
X146415000Y-125634750D01*
X146256250Y-125476000D01*
X144907000Y-125476000D01*
X144653000Y-125476000D01*
X143303750Y-125476000D01*
X143145000Y-125634750D01*
X141208000Y-125634750D01*
X141049250Y-125476000D01*
X139700000Y-125476000D01*
X139446000Y-125476000D01*
X138096750Y-125476000D01*
X137938000Y-125634750D01*
X136001000Y-125634750D01*
X135842250Y-125476000D01*
X134493000Y-125476000D01*
X134239000Y-125476000D01*
X132889750Y-125476000D01*
X132731000Y-125634750D01*
X126710000Y-125634750D01*
X126710000Y-123132795D01*
X132730716Y-123132795D01*
X132979106Y-123733943D01*
X133041251Y-123796197D01*
X133006302Y-123810673D01*
X132827673Y-123989301D01*
X132731000Y-124222690D01*
X132731000Y-125063250D01*
X132889750Y-125222000D01*
X134239000Y-125222000D01*
X134239000Y-125202000D01*
X134493000Y-125202000D01*
X134493000Y-125222000D01*
X135842250Y-125222000D01*
X136001000Y-125063250D01*
X136001000Y-124222690D01*
X135904327Y-123989301D01*
X135725698Y-123810673D01*
X135691166Y-123796370D01*
X135751278Y-123736363D01*
X136000716Y-123135648D01*
X136000718Y-123132795D01*
X137937716Y-123132795D01*
X138186106Y-123733943D01*
X138248251Y-123796197D01*
X138213302Y-123810673D01*
X138034673Y-123989301D01*
X137938000Y-124222690D01*
X137938000Y-125063250D01*
X138096750Y-125222000D01*
X139446000Y-125222000D01*
X139446000Y-125202000D01*
X139700000Y-125202000D01*
X139700000Y-125222000D01*
X141049250Y-125222000D01*
X141208000Y-125063250D01*
X141208000Y-124222690D01*
X141111327Y-123989301D01*
X140932698Y-123810673D01*
X140898166Y-123796370D01*
X140958278Y-123736363D01*
X141207716Y-123135648D01*
X141207718Y-123132795D01*
X143144716Y-123132795D01*
X143393106Y-123733943D01*
X143455251Y-123796197D01*
X143420302Y-123810673D01*
X143241673Y-123989301D01*
X143145000Y-124222690D01*
X143145000Y-125063250D01*
X143303750Y-125222000D01*
X144653000Y-125222000D01*
X144653000Y-125202000D01*
X144907000Y-125202000D01*
X144907000Y-125222000D01*
X146256250Y-125222000D01*
X146415000Y-125063250D01*
X146415000Y-124222690D01*
X146318327Y-123989301D01*
X146139698Y-123810673D01*
X146105166Y-123796370D01*
X146165278Y-123736363D01*
X146414716Y-123135648D01*
X146415284Y-122485205D01*
X146166894Y-121884057D01*
X145762124Y-121478579D01*
X145865317Y-121459162D01*
X146081441Y-121320090D01*
X146226431Y-121107890D01*
X146277440Y-120856000D01*
X146277440Y-118856000D01*
X146233162Y-118620683D01*
X146094090Y-118404559D01*
X145881890Y-118259569D01*
X145630000Y-118208560D01*
X143930000Y-118208560D01*
X143694683Y-118252838D01*
X143478559Y-118391910D01*
X143333569Y-118604110D01*
X143282560Y-118856000D01*
X143282560Y-120856000D01*
X143326838Y-121091317D01*
X143465910Y-121307441D01*
X143678110Y-121452431D01*
X143799960Y-121477106D01*
X143394722Y-121881637D01*
X143145284Y-122482352D01*
X143144716Y-123132795D01*
X141207718Y-123132795D01*
X141208284Y-122485205D01*
X140959894Y-121884057D01*
X140555124Y-121478579D01*
X140658317Y-121459162D01*
X140874441Y-121320090D01*
X141019431Y-121107890D01*
X141070440Y-120856000D01*
X141070440Y-118856000D01*
X141026162Y-118620683D01*
X140887090Y-118404559D01*
X140674890Y-118259569D01*
X140423000Y-118208560D01*
X138723000Y-118208560D01*
X138487683Y-118252838D01*
X138271559Y-118391910D01*
X138126569Y-118604110D01*
X138075560Y-118856000D01*
X138075560Y-120856000D01*
X138119838Y-121091317D01*
X138258910Y-121307441D01*
X138471110Y-121452431D01*
X138592960Y-121477106D01*
X138187722Y-121881637D01*
X137938284Y-122482352D01*
X137937716Y-123132795D01*
X136000718Y-123132795D01*
X136001284Y-122485205D01*
X135752894Y-121884057D01*
X135368207Y-121498697D01*
X135578317Y-121459162D01*
X135794441Y-121320090D01*
X135939431Y-121107890D01*
X135990440Y-120856000D01*
X135990440Y-118856000D01*
X135946162Y-118620683D01*
X135807090Y-118404559D01*
X135594890Y-118259569D01*
X135343000Y-118208560D01*
X133643000Y-118208560D01*
X133407683Y-118252838D01*
X133191559Y-118391910D01*
X133046569Y-118604110D01*
X132995560Y-118856000D01*
X132995560Y-120856000D01*
X133039838Y-121091317D01*
X133178910Y-121307441D01*
X133391110Y-121452431D01*
X133407379Y-121455725D01*
X132980722Y-121881637D01*
X132731284Y-122482352D01*
X132730716Y-123132795D01*
X126710000Y-123132795D01*
X126710000Y-111480600D01*
X128016260Y-111480600D01*
X128016260Y-113766600D01*
X128060538Y-114001917D01*
X128199610Y-114218041D01*
X128411810Y-114363031D01*
X128663700Y-114414040D01*
X130238500Y-114414040D01*
X130473817Y-114369762D01*
X130689941Y-114230690D01*
X130834931Y-114018490D01*
X130869700Y-113846797D01*
X130985311Y-114019822D01*
X131446771Y-114328159D01*
X131991100Y-114436433D01*
X132535429Y-114328159D01*
X132996889Y-114019822D01*
X133261100Y-113624401D01*
X133525311Y-114019822D01*
X133807778Y-114208560D01*
X133643000Y-114208560D01*
X133407683Y-114252838D01*
X133191559Y-114391910D01*
X133046569Y-114604110D01*
X132995560Y-114856000D01*
X132995560Y-116856000D01*
X133039838Y-117091317D01*
X133178910Y-117307441D01*
X133391110Y-117452431D01*
X133643000Y-117503440D01*
X135343000Y-117503440D01*
X135578317Y-117459162D01*
X135794441Y-117320090D01*
X135939431Y-117107890D01*
X135990440Y-116856000D01*
X135990440Y-116616000D01*
X136112000Y-116616000D01*
X136402839Y-116558148D01*
X136649401Y-116393401D01*
X137608501Y-115434301D01*
X137773248Y-115187740D01*
X137831100Y-114896900D01*
X137831100Y-114184053D01*
X138076889Y-114019822D01*
X138341100Y-113624401D01*
X138605311Y-114019822D01*
X138851100Y-114184053D01*
X138851100Y-114208560D01*
X138723000Y-114208560D01*
X138487683Y-114252838D01*
X138271559Y-114391910D01*
X138126569Y-114604110D01*
X138075560Y-114856000D01*
X138075560Y-116856000D01*
X138119838Y-117091317D01*
X138258910Y-117307441D01*
X138471110Y-117452431D01*
X138723000Y-117503440D01*
X140423000Y-117503440D01*
X140658317Y-117459162D01*
X140874441Y-117320090D01*
X141019431Y-117107890D01*
X141070440Y-116856000D01*
X141070440Y-114856000D01*
X141026162Y-114620683D01*
X140887090Y-114404559D01*
X140674890Y-114259569D01*
X140423000Y-114208560D01*
X140371100Y-114208560D01*
X140371100Y-114184053D01*
X140616889Y-114019822D01*
X140881100Y-113624401D01*
X141145311Y-114019822D01*
X141391100Y-114184053D01*
X141391100Y-114719100D01*
X141448952Y-115009939D01*
X141613699Y-115256501D01*
X142750599Y-116393401D01*
X142997160Y-116558148D01*
X143282560Y-116614918D01*
X143282560Y-116856000D01*
X143326838Y-117091317D01*
X143465910Y-117307441D01*
X143678110Y-117452431D01*
X143930000Y-117503440D01*
X145630000Y-117503440D01*
X145865317Y-117459162D01*
X146081441Y-117320090D01*
X146226431Y-117107890D01*
X146277440Y-116856000D01*
X146277440Y-114856000D01*
X146233162Y-114620683D01*
X146094090Y-114404559D01*
X145881890Y-114259569D01*
X145630000Y-114208560D01*
X145414422Y-114208560D01*
X145696889Y-114019822D01*
X145961100Y-113624401D01*
X146225311Y-114019822D01*
X146686771Y-114328159D01*
X147231100Y-114436433D01*
X147775429Y-114328159D01*
X148236889Y-114019822D01*
X148501100Y-113624401D01*
X148765311Y-114019822D01*
X149226771Y-114328159D01*
X149771100Y-114436433D01*
X150315429Y-114328159D01*
X150776889Y-114019822D01*
X151041100Y-113624401D01*
X151305311Y-114019822D01*
X151766771Y-114328159D01*
X152311100Y-114436433D01*
X152855429Y-114328159D01*
X153316889Y-114019822D01*
X153581100Y-113624401D01*
X153845311Y-114019822D01*
X154306771Y-114328159D01*
X154851100Y-114436433D01*
X155395429Y-114328159D01*
X155856889Y-114019822D01*
X156121100Y-113624401D01*
X156385311Y-114019822D01*
X156568000Y-114141891D01*
X156568000Y-114539560D01*
X156328000Y-114539560D01*
X156092683Y-114583838D01*
X155876559Y-114722910D01*
X155731569Y-114935110D01*
X155731186Y-114937000D01*
X149733000Y-114937000D01*
X149442161Y-114994852D01*
X149195599Y-115159599D01*
X148560599Y-115794599D01*
X148395852Y-116041161D01*
X148338000Y-116332000D01*
X148338000Y-122428000D01*
X148395852Y-122718839D01*
X148560599Y-122965401D01*
X149177634Y-123582436D01*
X149066559Y-123653910D01*
X148921569Y-123866110D01*
X148870560Y-124118000D01*
X148870560Y-125818000D01*
X148914838Y-126053317D01*
X149053910Y-126269441D01*
X149266110Y-126414431D01*
X149518000Y-126465440D01*
X151218000Y-126465440D01*
X151453317Y-126421162D01*
X151669441Y-126282090D01*
X151814431Y-126069890D01*
X151836301Y-125961893D01*
X152141076Y-126239645D01*
X152551110Y-126409476D01*
X152781000Y-126288155D01*
X152781000Y-125095000D01*
X153035000Y-125095000D01*
X153035000Y-126288155D01*
X153264890Y-126409476D01*
X153674924Y-126239645D01*
X154103183Y-125849358D01*
X154349486Y-125324892D01*
X154228819Y-125095000D01*
X153035000Y-125095000D01*
X152781000Y-125095000D01*
X152761000Y-125095000D01*
X152761000Y-124841000D01*
X152781000Y-124841000D01*
X152781000Y-123647845D01*
X153035000Y-123647845D01*
X153035000Y-124841000D01*
X154228819Y-124841000D01*
X154349486Y-124611108D01*
X154103183Y-124086642D01*
X153674924Y-123696355D01*
X153264890Y-123526524D01*
X153035000Y-123647845D01*
X152781000Y-123647845D01*
X152551110Y-123526524D01*
X152141076Y-123696355D01*
X151838063Y-123972501D01*
X151821162Y-123882683D01*
X151682090Y-123666559D01*
X151469890Y-123521569D01*
X151218000Y-123470560D01*
X151082759Y-123470560D01*
X151070148Y-123407160D01*
X150905401Y-123160599D01*
X149858000Y-122113198D01*
X149858000Y-120750014D01*
X150028000Y-120784440D01*
X152028000Y-120784440D01*
X152263317Y-120740162D01*
X152479441Y-120601090D01*
X152624431Y-120388890D01*
X152675440Y-120137000D01*
X152675440Y-118997000D01*
X153672000Y-118997000D01*
X153672000Y-120853200D01*
X153729852Y-121144039D01*
X153894599Y-121390601D01*
X156356771Y-123852773D01*
X156226746Y-123939653D01*
X155904839Y-124421422D01*
X155791800Y-124989707D01*
X155791800Y-125047893D01*
X155904839Y-125616178D01*
X156226746Y-126097947D01*
X156708515Y-126419854D01*
X157276800Y-126532893D01*
X157845085Y-126419854D01*
X158326854Y-126097947D01*
X158356203Y-126054023D01*
X158428473Y-126228498D01*
X158607101Y-126407127D01*
X158840490Y-126503800D01*
X159531050Y-126503800D01*
X159689800Y-126345050D01*
X159689800Y-125145800D01*
X159943800Y-125145800D01*
X159943800Y-126345050D01*
X160102550Y-126503800D01*
X160793110Y-126503800D01*
X161026499Y-126407127D01*
X161205127Y-126228498D01*
X161301800Y-125995109D01*
X161301800Y-125304550D01*
X161143050Y-125145800D01*
X159943800Y-125145800D01*
X159689800Y-125145800D01*
X159669800Y-125145800D01*
X159669800Y-124891800D01*
X159689800Y-124891800D01*
X159689800Y-123692550D01*
X159943800Y-123692550D01*
X159943800Y-124891800D01*
X161143050Y-124891800D01*
X161301800Y-124733050D01*
X161301800Y-124042491D01*
X161251898Y-123922016D01*
X165523590Y-123922016D01*
X165579271Y-124152611D01*
X166062078Y-124320622D01*
X166572428Y-124291083D01*
X166906729Y-124152611D01*
X166962410Y-123922016D01*
X166243000Y-123202605D01*
X165523590Y-123922016D01*
X161251898Y-123922016D01*
X161205127Y-123809102D01*
X161026499Y-123630473D01*
X160793110Y-123533800D01*
X160102550Y-123533800D01*
X159943800Y-123692550D01*
X159689800Y-123692550D01*
X159531050Y-123533800D01*
X158840490Y-123533800D01*
X158607101Y-123630473D01*
X158428473Y-123809102D01*
X158356203Y-123983577D01*
X158326854Y-123939653D01*
X158036800Y-123745846D01*
X158036800Y-123698000D01*
X157978948Y-123407161D01*
X157814201Y-123160599D01*
X157495680Y-122842078D01*
X164945378Y-122842078D01*
X164974917Y-123352428D01*
X165113389Y-123686729D01*
X165343984Y-123742410D01*
X166063395Y-123023000D01*
X166422605Y-123023000D01*
X167142016Y-123742410D01*
X167372611Y-123686729D01*
X167540622Y-123203922D01*
X167511083Y-122693572D01*
X167372611Y-122359271D01*
X167142016Y-122303590D01*
X166422605Y-123023000D01*
X166063395Y-123023000D01*
X165343984Y-122303590D01*
X165113389Y-122359271D01*
X164945378Y-122842078D01*
X157495680Y-122842078D01*
X156575602Y-121922000D01*
X157042250Y-121922000D01*
X157201000Y-121763250D01*
X157201000Y-120664000D01*
X157455000Y-120664000D01*
X157455000Y-121763250D01*
X157613750Y-121922000D01*
X158454309Y-121922000D01*
X158687698Y-121825327D01*
X158866327Y-121646699D01*
X158963000Y-121413310D01*
X158963000Y-120822750D01*
X158804250Y-120664000D01*
X157455000Y-120664000D01*
X157201000Y-120664000D01*
X155851750Y-120664000D01*
X155693000Y-120822750D01*
X155693000Y-121039398D01*
X155192000Y-120538398D01*
X155192000Y-118997000D01*
X155682442Y-118997000D01*
X155724838Y-119222317D01*
X155830482Y-119386492D01*
X155789673Y-119427301D01*
X155693000Y-119660690D01*
X155693000Y-120251250D01*
X155851750Y-120410000D01*
X157201000Y-120410000D01*
X157201000Y-120390000D01*
X157455000Y-120390000D01*
X157455000Y-120410000D01*
X158804250Y-120410000D01*
X158963000Y-120251250D01*
X158963000Y-119660690D01*
X158866327Y-119427301D01*
X158824366Y-119385340D01*
X158848501Y-119350016D01*
X161713590Y-119350016D01*
X161769271Y-119580611D01*
X162252078Y-119748622D01*
X162762428Y-119719083D01*
X163096729Y-119580611D01*
X163152410Y-119350016D01*
X162433000Y-118630605D01*
X161713590Y-119350016D01*
X158848501Y-119350016D01*
X158924431Y-119238890D01*
X158975440Y-118987000D01*
X158975440Y-118977419D01*
X159167839Y-118939148D01*
X159414401Y-118774401D01*
X160334802Y-117854000D01*
X161280168Y-117854000D01*
X161135378Y-118270078D01*
X161164917Y-118780428D01*
X161303389Y-119114729D01*
X161533984Y-119170410D01*
X162253395Y-118451000D01*
X162239252Y-118436858D01*
X162418858Y-118257252D01*
X162433000Y-118271395D01*
X162447142Y-118257252D01*
X162626748Y-118436858D01*
X162612605Y-118451000D01*
X163332016Y-119170410D01*
X163562611Y-119114729D01*
X163730622Y-118631922D01*
X163701083Y-118121572D01*
X163590251Y-117854000D01*
X163896198Y-117854000D01*
X165329908Y-119287710D01*
X165141559Y-119408910D01*
X164996569Y-119621110D01*
X164945560Y-119873000D01*
X164945560Y-121173000D01*
X164989838Y-121408317D01*
X165128910Y-121624441D01*
X165341110Y-121769431D01*
X165593000Y-121820440D01*
X165755385Y-121820440D01*
X165579271Y-121893389D01*
X165523590Y-122123984D01*
X166243000Y-122843395D01*
X166962410Y-122123984D01*
X166906729Y-121893389D01*
X166697098Y-121820440D01*
X166893000Y-121820440D01*
X167128317Y-121776162D01*
X167344441Y-121637090D01*
X167489431Y-121424890D01*
X167518164Y-121283000D01*
X183261000Y-121283000D01*
X183551839Y-121225148D01*
X183798401Y-121060401D01*
X184537401Y-120321401D01*
X184578134Y-120260440D01*
X184780000Y-120260440D01*
X185015317Y-120216162D01*
X185231441Y-120077090D01*
X185376431Y-119864890D01*
X185427440Y-119613000D01*
X185427440Y-116613000D01*
X185383162Y-116377683D01*
X185244090Y-116161559D01*
X185031890Y-116016569D01*
X184780000Y-115965560D01*
X183580000Y-115965560D01*
X183344683Y-116009838D01*
X183178523Y-116116759D01*
X183031890Y-116016569D01*
X182780000Y-115965560D01*
X181580000Y-115965560D01*
X181344683Y-116009838D01*
X181178523Y-116116759D01*
X181031890Y-116016569D01*
X180780000Y-115965560D01*
X179580000Y-115965560D01*
X179344683Y-116009838D01*
X179178523Y-116116759D01*
X179031890Y-116016569D01*
X178780000Y-115965560D01*
X177580000Y-115965560D01*
X177344683Y-116009838D01*
X177178523Y-116116759D01*
X177031890Y-116016569D01*
X176780000Y-115965560D01*
X175580000Y-115965560D01*
X175344683Y-116009838D01*
X175178523Y-116116759D01*
X175031890Y-116016569D01*
X174780000Y-115965560D01*
X173580000Y-115965560D01*
X173344683Y-116009838D01*
X173178523Y-116116759D01*
X173031890Y-116016569D01*
X172940000Y-115997961D01*
X172940000Y-114519802D01*
X175526680Y-111933122D01*
X175572167Y-111933162D01*
X175915943Y-111791117D01*
X176179192Y-111528327D01*
X176321838Y-111184799D01*
X176322162Y-110812833D01*
X176258178Y-110657980D01*
X176483878Y-110883680D01*
X176483838Y-110929167D01*
X176625883Y-111272943D01*
X176888673Y-111536192D01*
X177232201Y-111678838D01*
X177604167Y-111679162D01*
X177947943Y-111537117D01*
X178211192Y-111274327D01*
X178353838Y-110930799D01*
X178354162Y-110558833D01*
X178212117Y-110215057D01*
X177949327Y-109951808D01*
X177605799Y-109809162D01*
X177558923Y-109809121D01*
X176940000Y-109190198D01*
X176940000Y-100530334D01*
X177015317Y-100516162D01*
X177181477Y-100409241D01*
X177328110Y-100509431D01*
X177461253Y-100536393D01*
X177477852Y-100619839D01*
X177642599Y-100866401D01*
X178515878Y-101739680D01*
X178515838Y-101785167D01*
X178657883Y-102128943D01*
X178920673Y-102392192D01*
X179264201Y-102534838D01*
X179636167Y-102535162D01*
X179979943Y-102393117D01*
X180243192Y-102130327D01*
X180385838Y-101786799D01*
X180386162Y-101414833D01*
X180244117Y-101071057D01*
X179981327Y-100807808D01*
X179637799Y-100665162D01*
X179590923Y-100665121D01*
X179473802Y-100548000D01*
X179894250Y-100548000D01*
X180053000Y-100389250D01*
X180053000Y-98540000D01*
X180033000Y-98540000D01*
X180033000Y-98286000D01*
X180053000Y-98286000D01*
X180053000Y-96436750D01*
X180307000Y-96436750D01*
X180307000Y-98286000D01*
X180327000Y-98286000D01*
X180327000Y-98540000D01*
X180307000Y-98540000D01*
X180307000Y-100389250D01*
X180465750Y-100548000D01*
X180906310Y-100548000D01*
X181139699Y-100451327D01*
X181181660Y-100409366D01*
X181240000Y-100449228D01*
X181240000Y-100974000D01*
X181297852Y-101264839D01*
X181462599Y-101511401D01*
X182596599Y-102645401D01*
X182843160Y-102810148D01*
X183134000Y-102868000D01*
X185319560Y-102868000D01*
X185319560Y-102958000D01*
X185363838Y-103193317D01*
X185502910Y-103409441D01*
X185715110Y-103554431D01*
X185967000Y-103605440D01*
X187667000Y-103605440D01*
X187902317Y-103561162D01*
X188118441Y-103422090D01*
X188263431Y-103209890D01*
X188314440Y-102958000D01*
X188314440Y-101258000D01*
X188270162Y-101022683D01*
X188131090Y-100806559D01*
X187918890Y-100661569D01*
X187667000Y-100610560D01*
X185967000Y-100610560D01*
X185731683Y-100654838D01*
X185515559Y-100793910D01*
X185370569Y-101006110D01*
X185319560Y-101258000D01*
X185319560Y-101348000D01*
X183448802Y-101348000D01*
X182760000Y-100659198D01*
X182760000Y-100560440D01*
X182780000Y-100560440D01*
X183015317Y-100516162D01*
X183179492Y-100410518D01*
X183220301Y-100451327D01*
X183453690Y-100548000D01*
X183894250Y-100548000D01*
X184053000Y-100389250D01*
X184053000Y-98540000D01*
X184307000Y-98540000D01*
X184307000Y-100389250D01*
X184465750Y-100548000D01*
X184906310Y-100548000D01*
X185139699Y-100451327D01*
X185318327Y-100272698D01*
X185415000Y-100039309D01*
X185415000Y-98698750D01*
X185256250Y-98540000D01*
X184307000Y-98540000D01*
X184053000Y-98540000D01*
X184033000Y-98540000D01*
X184033000Y-98286000D01*
X184053000Y-98286000D01*
X184053000Y-96436750D01*
X184307000Y-96436750D01*
X184307000Y-98286000D01*
X185256250Y-98286000D01*
X185415000Y-98127250D01*
X185415000Y-96786691D01*
X185318327Y-96553302D01*
X185139699Y-96374673D01*
X184906310Y-96278000D01*
X184465750Y-96278000D01*
X184307000Y-96436750D01*
X184053000Y-96436750D01*
X183894250Y-96278000D01*
X183453690Y-96278000D01*
X183220301Y-96374673D01*
X183178340Y-96416634D01*
X183031890Y-96316569D01*
X182780000Y-96265560D01*
X181580000Y-96265560D01*
X181344683Y-96309838D01*
X181180508Y-96415482D01*
X181139699Y-96374673D01*
X180906310Y-96278000D01*
X180465750Y-96278000D01*
X180307000Y-96436750D01*
X180053000Y-96436750D01*
X179894250Y-96278000D01*
X179453690Y-96278000D01*
X179220301Y-96374673D01*
X179178340Y-96416634D01*
X179031890Y-96316569D01*
X178780000Y-96265560D01*
X177580000Y-96265560D01*
X177344683Y-96309838D01*
X177178523Y-96416759D01*
X177031890Y-96316569D01*
X176780000Y-96265560D01*
X175580000Y-96265560D01*
X175344683Y-96309838D01*
X175178523Y-96416759D01*
X175031890Y-96316569D01*
X174780000Y-96265560D01*
X173580000Y-96265560D01*
X173344683Y-96309838D01*
X173178523Y-96416759D01*
X173031890Y-96316569D01*
X172780000Y-96265560D01*
X171580000Y-96265560D01*
X171344683Y-96309838D01*
X171178523Y-96416759D01*
X171031890Y-96316569D01*
X170780000Y-96265560D01*
X169580000Y-96265560D01*
X169344683Y-96309838D01*
X169128559Y-96448910D01*
X168983569Y-96661110D01*
X168932560Y-96913000D01*
X168932560Y-99913000D01*
X168976838Y-100148317D01*
X169115910Y-100364441D01*
X169328110Y-100509431D01*
X169580000Y-100560440D01*
X170780000Y-100560440D01*
X171015317Y-100516162D01*
X171181477Y-100409241D01*
X171328110Y-100509431D01*
X171420000Y-100528039D01*
X171420000Y-100552000D01*
X171477852Y-100842839D01*
X171642599Y-101089401D01*
X171784878Y-101231680D01*
X171784838Y-101277167D01*
X171926883Y-101620943D01*
X172189673Y-101884192D01*
X172533201Y-102026838D01*
X172905167Y-102027162D01*
X173248943Y-101885117D01*
X173512192Y-101622327D01*
X173606317Y-101395649D01*
X173713673Y-101503192D01*
X174057201Y-101645838D01*
X174429167Y-101646162D01*
X174772943Y-101504117D01*
X175036192Y-101241327D01*
X175178838Y-100897799D01*
X175179162Y-100525833D01*
X175141592Y-100434906D01*
X175181477Y-100409241D01*
X175328110Y-100509431D01*
X175420000Y-100528039D01*
X175420000Y-109505000D01*
X175477852Y-109795839D01*
X175642599Y-110042401D01*
X175726957Y-110126759D01*
X175573799Y-110063162D01*
X175201833Y-110062838D01*
X174858057Y-110204883D01*
X174594808Y-110467673D01*
X174452162Y-110811201D01*
X174452121Y-110858077D01*
X171642599Y-113667599D01*
X171477852Y-113914161D01*
X171420000Y-114205000D01*
X171420000Y-115995666D01*
X171344683Y-116009838D01*
X171178523Y-116116759D01*
X171031890Y-116016569D01*
X170780000Y-115965560D01*
X169580000Y-115965560D01*
X169344683Y-116009838D01*
X169128559Y-116148910D01*
X168983569Y-116361110D01*
X168932560Y-116613000D01*
X168932560Y-119613000D01*
X168960784Y-119763000D01*
X167519742Y-119763000D01*
X167496162Y-119637683D01*
X167357090Y-119421559D01*
X167144890Y-119276569D01*
X167003000Y-119247836D01*
X167003000Y-119126000D01*
X166945148Y-118835161D01*
X166780401Y-118588599D01*
X164748401Y-116556599D01*
X164501839Y-116391852D01*
X164211000Y-116334000D01*
X163730440Y-116334000D01*
X163730440Y-115301000D01*
X163686162Y-115065683D01*
X163547090Y-114849559D01*
X163334890Y-114704569D01*
X163083000Y-114653560D01*
X161783000Y-114653560D01*
X161547683Y-114697838D01*
X161331559Y-114836910D01*
X161186569Y-115049110D01*
X161157836Y-115191000D01*
X158975440Y-115191000D01*
X158975440Y-115187000D01*
X158931162Y-114951683D01*
X158792090Y-114735559D01*
X158579890Y-114590569D01*
X158328000Y-114539560D01*
X158088000Y-114539560D01*
X158088000Y-114226215D01*
X158396889Y-114019822D01*
X158661100Y-113624401D01*
X158925311Y-114019822D01*
X159386771Y-114328159D01*
X159931100Y-114436433D01*
X160475429Y-114328159D01*
X160936889Y-114019822D01*
X161200854Y-113624770D01*
X161205575Y-113640862D01*
X161555114Y-114074791D01*
X162044104Y-114341927D01*
X162124040Y-114358610D01*
X162344100Y-114236452D01*
X162344100Y-112750600D01*
X162324100Y-112750600D01*
X162324100Y-112496600D01*
X162344100Y-112496600D01*
X162344100Y-111010748D01*
X162598100Y-111010748D01*
X162598100Y-112496600D01*
X162618100Y-112496600D01*
X162618100Y-112750600D01*
X162598100Y-112750600D01*
X162598100Y-114236452D01*
X162818160Y-114358610D01*
X162898096Y-114341927D01*
X163387086Y-114074791D01*
X163736625Y-113640862D01*
X163741346Y-113624770D01*
X164005311Y-114019822D01*
X164466771Y-114328159D01*
X165011100Y-114436433D01*
X165555429Y-114328159D01*
X166016889Y-114019822D01*
X166325226Y-113558362D01*
X166433500Y-113014033D01*
X166433500Y-112233167D01*
X166325226Y-111688838D01*
X166016889Y-111227378D01*
X165555429Y-110919041D01*
X165011100Y-110810767D01*
X164466771Y-110919041D01*
X164005311Y-111227378D01*
X163741346Y-111622430D01*
X163736625Y-111606338D01*
X163387086Y-111172409D01*
X162898096Y-110905273D01*
X162818160Y-110888590D01*
X162598100Y-111010748D01*
X162344100Y-111010748D01*
X162124040Y-110888590D01*
X162044104Y-110905273D01*
X161555114Y-111172409D01*
X161205575Y-111606338D01*
X161200854Y-111622430D01*
X160936889Y-111227378D01*
X160475429Y-110919041D01*
X159931100Y-110810767D01*
X159386771Y-110919041D01*
X158925311Y-111227378D01*
X158661100Y-111622799D01*
X158396889Y-111227378D01*
X157935429Y-110919041D01*
X157391100Y-110810767D01*
X156846771Y-110919041D01*
X156385311Y-111227378D01*
X156121100Y-111622799D01*
X155856889Y-111227378D01*
X155395429Y-110919041D01*
X154851100Y-110810767D01*
X154306771Y-110919041D01*
X153845311Y-111227378D01*
X153581100Y-111622799D01*
X153316889Y-111227378D01*
X152855429Y-110919041D01*
X152311100Y-110810767D01*
X151766771Y-110919041D01*
X151305311Y-111227378D01*
X151041100Y-111622799D01*
X150776889Y-111227378D01*
X150315429Y-110919041D01*
X149771100Y-110810767D01*
X149226771Y-110919041D01*
X148765311Y-111227378D01*
X148501100Y-111622799D01*
X148236889Y-111227378D01*
X147775429Y-110919041D01*
X147231100Y-110810767D01*
X146686771Y-110919041D01*
X146225311Y-111227378D01*
X145961100Y-111622799D01*
X145696889Y-111227378D01*
X145235429Y-110919041D01*
X144691100Y-110810767D01*
X144146771Y-110919041D01*
X143685311Y-111227378D01*
X143421100Y-111622799D01*
X143156889Y-111227378D01*
X142695429Y-110919041D01*
X142151100Y-110810767D01*
X141606771Y-110919041D01*
X141145311Y-111227378D01*
X140881100Y-111622799D01*
X140616889Y-111227378D01*
X140155429Y-110919041D01*
X139611100Y-110810767D01*
X139066771Y-110919041D01*
X138605311Y-111227378D01*
X138341100Y-111622799D01*
X138076889Y-111227378D01*
X137615429Y-110919041D01*
X137071100Y-110810767D01*
X136526771Y-110919041D01*
X136065311Y-111227378D01*
X135801100Y-111622799D01*
X135536889Y-111227378D01*
X135075429Y-110919041D01*
X134531100Y-110810767D01*
X133986771Y-110919041D01*
X133525311Y-111227378D01*
X133261100Y-111622799D01*
X132996889Y-111227378D01*
X132535429Y-110919041D01*
X131991100Y-110810767D01*
X131446771Y-110919041D01*
X130985311Y-111227378D01*
X130870597Y-111399060D01*
X130841662Y-111245283D01*
X130702590Y-111029159D01*
X130490390Y-110884169D01*
X130238500Y-110833160D01*
X128663700Y-110833160D01*
X128428383Y-110877438D01*
X128212259Y-111016510D01*
X128067269Y-111228710D01*
X128016260Y-111480600D01*
X126710000Y-111480600D01*
X126710000Y-96993167D01*
X128028700Y-96993167D01*
X128028700Y-97774033D01*
X128136974Y-98318362D01*
X128445311Y-98779822D01*
X128906771Y-99088159D01*
X129451100Y-99196433D01*
X129995429Y-99088159D01*
X130456889Y-98779822D01*
X130721100Y-98384401D01*
X130985311Y-98779822D01*
X131446771Y-99088159D01*
X131991100Y-99196433D01*
X132535429Y-99088159D01*
X132996889Y-98779822D01*
X133261100Y-98384401D01*
X133525311Y-98779822D01*
X133986771Y-99088159D01*
X134531100Y-99196433D01*
X135075429Y-99088159D01*
X135536889Y-98779822D01*
X135801100Y-98384401D01*
X136065311Y-98779822D01*
X136526771Y-99088159D01*
X137071100Y-99196433D01*
X137615429Y-99088159D01*
X138076889Y-98779822D01*
X138341100Y-98384401D01*
X138605311Y-98779822D01*
X139066771Y-99088159D01*
X139611100Y-99196433D01*
X140155429Y-99088159D01*
X140616889Y-98779822D01*
X140881100Y-98384401D01*
X141145311Y-98779822D01*
X141606771Y-99088159D01*
X142151100Y-99196433D01*
X142695429Y-99088159D01*
X143156889Y-98779822D01*
X143421100Y-98384401D01*
X143685311Y-98779822D01*
X144146771Y-99088159D01*
X144691100Y-99196433D01*
X145235429Y-99088159D01*
X145696889Y-98779822D01*
X145961100Y-98384401D01*
X146225311Y-98779822D01*
X146686771Y-99088159D01*
X147231100Y-99196433D01*
X147775429Y-99088159D01*
X148236889Y-98779822D01*
X148501100Y-98384401D01*
X148765311Y-98779822D01*
X149226771Y-99088159D01*
X149771100Y-99196433D01*
X150315429Y-99088159D01*
X150776889Y-98779822D01*
X151041100Y-98384401D01*
X151305311Y-98779822D01*
X151766771Y-99088159D01*
X152311100Y-99196433D01*
X152855429Y-99088159D01*
X153316889Y-98779822D01*
X153581100Y-98384401D01*
X153845311Y-98779822D01*
X154306771Y-99088159D01*
X154851100Y-99196433D01*
X155395429Y-99088159D01*
X155856889Y-98779822D01*
X156120854Y-98384770D01*
X156125575Y-98400862D01*
X156475114Y-98834791D01*
X156964104Y-99101927D01*
X157044040Y-99118610D01*
X157264100Y-98996452D01*
X157264100Y-97510600D01*
X157244100Y-97510600D01*
X157244100Y-97256600D01*
X157264100Y-97256600D01*
X157264100Y-95770748D01*
X157518100Y-95770748D01*
X157518100Y-97256600D01*
X157538100Y-97256600D01*
X157538100Y-97510600D01*
X157518100Y-97510600D01*
X157518100Y-98996452D01*
X157738160Y-99118610D01*
X157818096Y-99101927D01*
X158307086Y-98834791D01*
X158656625Y-98400862D01*
X158661346Y-98384770D01*
X158925311Y-98779822D01*
X159386771Y-99088159D01*
X159931100Y-99196433D01*
X160475429Y-99088159D01*
X160936889Y-98779822D01*
X161201100Y-98384401D01*
X161465311Y-98779822D01*
X161926771Y-99088159D01*
X162471100Y-99196433D01*
X163015429Y-99088159D01*
X163476889Y-98779822D01*
X163741100Y-98384401D01*
X164005311Y-98779822D01*
X164466771Y-99088159D01*
X165011100Y-99196433D01*
X165555429Y-99088159D01*
X166016889Y-98779822D01*
X166325226Y-98318362D01*
X166433500Y-97774033D01*
X166433500Y-96993167D01*
X166325226Y-96448838D01*
X166016889Y-95987378D01*
X165555429Y-95679041D01*
X165011100Y-95570767D01*
X164466771Y-95679041D01*
X164005311Y-95987378D01*
X163741100Y-96382799D01*
X163476889Y-95987378D01*
X163015429Y-95679041D01*
X162471100Y-95570767D01*
X161926771Y-95679041D01*
X161465311Y-95987378D01*
X161201100Y-96382799D01*
X160936889Y-95987378D01*
X160475429Y-95679041D01*
X159931100Y-95570767D01*
X159386771Y-95679041D01*
X158925311Y-95987378D01*
X158661346Y-96382430D01*
X158656625Y-96366338D01*
X158307086Y-95932409D01*
X157818096Y-95665273D01*
X157738160Y-95648590D01*
X157518100Y-95770748D01*
X157264100Y-95770748D01*
X157044040Y-95648590D01*
X156964104Y-95665273D01*
X156475114Y-95932409D01*
X156125575Y-96366338D01*
X156120854Y-96382430D01*
X155856889Y-95987378D01*
X155395429Y-95679041D01*
X154851100Y-95570767D01*
X154306771Y-95679041D01*
X153845311Y-95987378D01*
X153581100Y-96382799D01*
X153316889Y-95987378D01*
X152855429Y-95679041D01*
X152311100Y-95570767D01*
X151766771Y-95679041D01*
X151305311Y-95987378D01*
X151041100Y-96382799D01*
X150776889Y-95987378D01*
X150315429Y-95679041D01*
X149771100Y-95570767D01*
X149226771Y-95679041D01*
X148765311Y-95987378D01*
X148501100Y-96382799D01*
X148236889Y-95987378D01*
X147775429Y-95679041D01*
X147231100Y-95570767D01*
X146686771Y-95679041D01*
X146225311Y-95987378D01*
X145961100Y-96382799D01*
X145696889Y-95987378D01*
X145235429Y-95679041D01*
X144691100Y-95570767D01*
X144146771Y-95679041D01*
X143685311Y-95987378D01*
X143421100Y-96382799D01*
X143156889Y-95987378D01*
X142695429Y-95679041D01*
X142151100Y-95570767D01*
X141606771Y-95679041D01*
X141145311Y-95987378D01*
X140881100Y-96382799D01*
X140616889Y-95987378D01*
X140155429Y-95679041D01*
X139611100Y-95570767D01*
X139066771Y-95679041D01*
X138605311Y-95987378D01*
X138341100Y-96382799D01*
X138076889Y-95987378D01*
X137615429Y-95679041D01*
X137071100Y-95570767D01*
X136526771Y-95679041D01*
X136065311Y-95987378D01*
X135801100Y-96382799D01*
X135536889Y-95987378D01*
X135075429Y-95679041D01*
X134531100Y-95570767D01*
X133986771Y-95679041D01*
X133525311Y-95987378D01*
X133261100Y-96382799D01*
X132996889Y-95987378D01*
X132535429Y-95679041D01*
X131991100Y-95570767D01*
X131446771Y-95679041D01*
X130985311Y-95987378D01*
X130721100Y-96382799D01*
X130456889Y-95987378D01*
X129995429Y-95679041D01*
X129451100Y-95570767D01*
X128906771Y-95679041D01*
X128445311Y-95987378D01*
X128136974Y-96448838D01*
X128028700Y-96993167D01*
X126710000Y-96993167D01*
X126710000Y-94710000D01*
X189290000Y-94710000D01*
X189290000Y-127290000D01*
M02*
