M48
;DRILL file {KiCad 4.0.5-e0-6337~49~ubuntu16.04.1} date Wed Jan 18 08:13:14 2017
;FORMAT={-:-/ absolute / metric / decimal}
FMAT,2
METRIC,TZ
T1C0.800
T2C0.813
T3C1.000
T4C1.001
%
G90
G05
M71
T1
X162.433Y-115.951
X162.433Y-118.451
X166.243Y-120.523
X166.243Y-123.023
T2
X129.451Y-97.384
X129.451Y-112.624
X131.991Y-97.384
X131.991Y-112.624
X134.531Y-97.384
X134.531Y-112.624
X137.071Y-97.384
X137.071Y-112.624
X139.611Y-97.384
X139.611Y-112.624
X142.151Y-97.384
X142.151Y-112.624
X144.691Y-97.384
X144.691Y-112.624
X147.231Y-97.384
X147.231Y-112.624
X149.771Y-97.384
X149.771Y-112.624
X152.311Y-97.384
X152.311Y-112.624
X154.851Y-97.384
X154.851Y-112.624
X157.391Y-97.384
X157.391Y-112.624
X159.931Y-97.384
X159.931Y-112.624
X162.471Y-97.384
X162.471Y-112.624
X165.011Y-97.384
X165.011Y-112.624
T3
X150.368Y-124.968
X152.908Y-124.968
X157.277Y-125.019
X159.817Y-125.019
X186.817Y-102.108
T4
X134.366Y-122.809
X134.366Y-125.349
X139.573Y-122.809
X139.573Y-125.349
X144.78Y-122.809
X144.78Y-125.349
T0
M30
