M48
;DRILL file {KiCad 4.0.5-e0-6337~49~ubuntu16.04.1} date Tue Jan 17 08:51:58 2017
;FORMAT={-:-/ absolute / metric / decimal}
FMAT,2
METRIC,TZ
T1C0.635
T2C1.000
T3C1.016
T4C1.524
%
G90
G05
M71
T1
X135.509Y-90.297
X137.033Y-62.865
X137.541Y-79.248
X141.478Y-52.705
X143.637Y-61.849
X143.764Y-52.959
X147.193Y-77.597
X149.86Y-52.197
X159.004Y-70.612
X160.147Y-58.928
X161.036Y-51.689
X161.925Y-53.848
X166.624Y-49.53
X169.545Y-50.292
X172.72Y-92.075
X174.117Y-93.345
X175.26Y-94.615
T2
X151.13Y-68.199
X153.67Y-68.199
X154.686Y-82.042
X156.21Y-68.199
X156.972Y-76.2
X158.75Y-68.199
X159.512Y-76.2
X161.29Y-68.199
X162.052Y-76.2
X163.83Y-68.199
X164.592Y-76.2
X166.37Y-68.199
X167.132Y-76.2
X168.91Y-68.199
X169.672Y-76.2
X171.45Y-68.199
X172.212Y-76.2
X174.752Y-76.2
X177.292Y-76.2
T3
X141.732Y-65.151
X141.732Y-67.691
X144.272Y-65.151
X144.272Y-67.691
X146.812Y-65.151
X146.812Y-67.691
X155.575Y-62.865
X155.575Y-65.405
X158.115Y-62.865
X158.115Y-65.405
X160.655Y-62.865
X160.655Y-65.405
X161.925Y-80.01
X161.925Y-82.55
X163.195Y-62.865
X163.195Y-65.405
X164.465Y-80.01
X164.465Y-82.55
X165.735Y-62.865
X165.735Y-65.405
X167.005Y-80.01
X167.005Y-82.55
X169.545Y-80.01
X169.545Y-82.55
X172.085Y-80.01
X172.085Y-82.55
T4
X180.Y-53.46
X180.Y-58.54
T0
M30
