G04 #@! TF.FileFunction,Soldermask,Top*
%FSLAX46Y46*%
G04 Gerber Fmt 4.6, Leading zero omitted, Abs format (unit mm)*
G04 Created by KiCad (PCBNEW 4.0.5-e0-6337~49~ubuntu16.04.1) date Tue Jan 17 08:51:43 2017*
%MOMM*%
%LPD*%
G01*
G04 APERTURE LIST*
%ADD10C,0.150000*%
%ADD11C,0.381000*%
%ADD12R,2.032000X2.032000*%
%ADD13C,2.032000*%
%ADD14R,2.235200X2.235200*%
%ADD15O,2.235200X2.235200*%
%ADD16R,3.048000X3.048000*%
%ADD17C,3.048000*%
%ADD18R,2.108000X1.058000*%
%ADD19R,1.058000X2.108000*%
%ADD20R,1.708000X3.508000*%
%ADD21R,4.308000X2.508000*%
%ADD22R,2.008000X2.508000*%
%ADD23R,2.208000X2.508000*%
%ADD24R,2.208000X2.208000*%
%ADD25R,1.651000X1.016000*%
%ADD26O,2.208000X2.208000*%
G04 APERTURE END LIST*
D10*
D11*
X134000000Y-48000000D02*
X134000000Y-98000000D01*
X184000000Y-48000000D02*
X134000000Y-48000000D01*
X184000000Y-98000000D02*
X184000000Y-48000000D01*
X134000000Y-98000000D02*
X184000000Y-98000000D01*
D12*
X155575000Y-65405000D03*
D13*
X155575000Y-62865000D03*
X158115000Y-65405000D03*
X158115000Y-62865000D03*
X160655000Y-65405000D03*
X160655000Y-62865000D03*
X163195000Y-65405000D03*
X163195000Y-62865000D03*
X165735000Y-65405000D03*
X165735000Y-62865000D03*
D12*
X172085000Y-80010000D03*
D13*
X172085000Y-82550000D03*
X169545000Y-80010000D03*
X169545000Y-82550000D03*
X167005000Y-80010000D03*
X167005000Y-82550000D03*
X164465000Y-80010000D03*
X164465000Y-82550000D03*
X161925000Y-80010000D03*
X161925000Y-82550000D03*
D14*
X141732000Y-67691000D03*
D15*
X141732000Y-65151000D03*
X144272000Y-67691000D03*
X144272000Y-65151000D03*
X146812000Y-67691000D03*
X146812000Y-65151000D03*
D16*
X180000000Y-58540000D03*
D17*
X180000000Y-53460000D03*
D18*
X137609000Y-52191000D03*
X137609000Y-52991000D03*
X137609000Y-53791000D03*
X137609000Y-54591000D03*
X137609000Y-55391000D03*
X137609000Y-56191000D03*
X137609000Y-56991000D03*
X137609000Y-57791000D03*
D19*
X139059000Y-59241000D03*
X139859000Y-59241000D03*
X140659000Y-59241000D03*
X141459000Y-59241000D03*
X142259000Y-59241000D03*
X143059000Y-59241000D03*
X143859000Y-59241000D03*
X144659000Y-59241000D03*
D18*
X146109000Y-57791000D03*
X146109000Y-56991000D03*
X146109000Y-56191000D03*
X146109000Y-55391000D03*
X146109000Y-54591000D03*
X146109000Y-53791000D03*
X146109000Y-52991000D03*
X146109000Y-52191000D03*
D19*
X144659000Y-50741000D03*
X143859000Y-50741000D03*
X143059000Y-50741000D03*
X142259000Y-50741000D03*
X141459000Y-50741000D03*
X140659000Y-50741000D03*
X139859000Y-50741000D03*
X139059000Y-50741000D03*
D20*
X137160000Y-94110000D03*
X139160000Y-94110000D03*
X141160000Y-94110000D03*
X143160000Y-94110000D03*
X145160000Y-94110000D03*
X147160000Y-94110000D03*
X149160000Y-94110000D03*
X151160000Y-94110000D03*
X151160000Y-74410000D03*
X149160000Y-74410000D03*
X147160000Y-74410000D03*
X145160000Y-74410000D03*
X143160000Y-74410000D03*
X141160000Y-74410000D03*
X139160000Y-74410000D03*
X137160000Y-74410000D03*
D21*
X177673000Y-64541000D03*
D22*
X177673000Y-70841000D03*
X179973000Y-70841000D03*
X175373000Y-70841000D03*
D23*
X181610000Y-78200000D03*
X181610000Y-74200000D03*
D24*
X154686000Y-82042000D03*
D25*
X157861000Y-58928000D03*
X157861000Y-56388000D03*
X157861000Y-55118000D03*
X157861000Y-53848000D03*
X157861000Y-52578000D03*
X157861000Y-51308000D03*
X157861000Y-50038000D03*
X164211000Y-50038000D03*
X164211000Y-51308000D03*
X164211000Y-52578000D03*
X164211000Y-53848000D03*
X164211000Y-55118000D03*
X164211000Y-56388000D03*
X164211000Y-57658000D03*
X164211000Y-58928000D03*
X157861000Y-57658000D03*
X170180000Y-85725000D03*
X170180000Y-88265000D03*
X170180000Y-89535000D03*
X170180000Y-90805000D03*
X170180000Y-92075000D03*
X170180000Y-93345000D03*
X170180000Y-94615000D03*
X163830000Y-94615000D03*
X163830000Y-93345000D03*
X163830000Y-92075000D03*
X163830000Y-90805000D03*
X163830000Y-89535000D03*
X163830000Y-88265000D03*
X163830000Y-86995000D03*
X163830000Y-85725000D03*
X170180000Y-86995000D03*
D24*
X177292000Y-76200000D03*
D26*
X174752000Y-76200000D03*
X172212000Y-76200000D03*
X169672000Y-76200000D03*
X167132000Y-76200000D03*
X164592000Y-76200000D03*
X162052000Y-76200000D03*
X159512000Y-76200000D03*
X156972000Y-76200000D03*
D24*
X151130000Y-68199000D03*
D26*
X153670000Y-68199000D03*
X156210000Y-68199000D03*
X158750000Y-68199000D03*
X161290000Y-68199000D03*
X163830000Y-68199000D03*
X166370000Y-68199000D03*
X168910000Y-68199000D03*
X171450000Y-68199000D03*
M02*
