G04 #@! TF.FileFunction,Copper,L2,Bot,Signal*
%FSLAX46Y46*%
G04 Gerber Fmt 4.6, Leading zero omitted, Abs format (unit mm)*
G04 Created by KiCad (PCBNEW 4.0.5-e0-6337~49~ubuntu16.04.1) date Tue Jan 17 08:51:43 2017*
%MOMM*%
%LPD*%
G01*
G04 APERTURE LIST*
%ADD10C,0.150000*%
%ADD11C,0.381000*%
%ADD12R,1.524000X1.524000*%
%ADD13C,1.524000*%
%ADD14R,1.727200X1.727200*%
%ADD15O,1.727200X1.727200*%
%ADD16R,2.540000X2.540000*%
%ADD17C,2.540000*%
%ADD18R,1.700000X1.700000*%
%ADD19O,1.700000X1.700000*%
%ADD20C,0.889000*%
%ADD21C,0.203200*%
%ADD22C,0.500000*%
%ADD23C,0.254000*%
G04 APERTURE END LIST*
D10*
D11*
X134000000Y-48000000D02*
X134000000Y-98000000D01*
X184000000Y-48000000D02*
X134000000Y-48000000D01*
X184000000Y-98000000D02*
X184000000Y-48000000D01*
X134000000Y-98000000D02*
X184000000Y-98000000D01*
D12*
X155575000Y-65405000D03*
D13*
X155575000Y-62865000D03*
X158115000Y-65405000D03*
X158115000Y-62865000D03*
X160655000Y-65405000D03*
X160655000Y-62865000D03*
X163195000Y-65405000D03*
X163195000Y-62865000D03*
X165735000Y-65405000D03*
X165735000Y-62865000D03*
D12*
X172085000Y-80010000D03*
D13*
X172085000Y-82550000D03*
X169545000Y-80010000D03*
X169545000Y-82550000D03*
X167005000Y-80010000D03*
X167005000Y-82550000D03*
X164465000Y-80010000D03*
X164465000Y-82550000D03*
X161925000Y-80010000D03*
X161925000Y-82550000D03*
D14*
X141732000Y-67691000D03*
D15*
X141732000Y-65151000D03*
X144272000Y-67691000D03*
X144272000Y-65151000D03*
X146812000Y-67691000D03*
X146812000Y-65151000D03*
D16*
X180000000Y-58540000D03*
D17*
X180000000Y-53460000D03*
D18*
X154686000Y-82042000D03*
X177292000Y-76200000D03*
D19*
X174752000Y-76200000D03*
X172212000Y-76200000D03*
X169672000Y-76200000D03*
X167132000Y-76200000D03*
X164592000Y-76200000D03*
X162052000Y-76200000D03*
X159512000Y-76200000D03*
X156972000Y-76200000D03*
D18*
X151130000Y-68199000D03*
D19*
X153670000Y-68199000D03*
X156210000Y-68199000D03*
X158750000Y-68199000D03*
X161290000Y-68199000D03*
X163830000Y-68199000D03*
X166370000Y-68199000D03*
X168910000Y-68199000D03*
X171450000Y-68199000D03*
D20*
X141478000Y-52705000D03*
X143637000Y-61849000D03*
X143764000Y-52959000D03*
X137541000Y-79248000D03*
X149860000Y-52197000D03*
X161925000Y-53848000D03*
X161036000Y-51689000D03*
X172720000Y-92075000D03*
X174117000Y-93345000D03*
X166624000Y-49530000D03*
X169545000Y-50292000D03*
X175260000Y-94615000D03*
X159004000Y-70612000D03*
X137033000Y-62865000D03*
X160147000Y-58928000D03*
X147193000Y-77597000D03*
X135509000Y-90297000D03*
D21*
X153670000Y-68199000D02*
X153670000Y-67310000D01*
X153670000Y-67310000D02*
X155575000Y-65405000D01*
X156210000Y-68199000D02*
X156210000Y-67691000D01*
X156210000Y-67691000D02*
X156845000Y-67056000D01*
X156845000Y-67056000D02*
X156845000Y-64135000D01*
X156845000Y-64135000D02*
X155575000Y-62865000D01*
X169545000Y-82550000D02*
X169164000Y-82550000D01*
X169164000Y-82550000D02*
X168402000Y-81788000D01*
X168402000Y-77470000D02*
X169672000Y-76200000D01*
X168402000Y-81788000D02*
X168402000Y-77470000D01*
X167132000Y-76200000D02*
X167132000Y-77470000D01*
X165735000Y-81280000D02*
X167005000Y-82550000D01*
X165735000Y-78867000D02*
X165735000Y-81280000D01*
X167132000Y-77470000D02*
X165735000Y-78867000D01*
X164465000Y-80010000D02*
X164465000Y-76327000D01*
X164465000Y-76327000D02*
X164592000Y-76200000D01*
X164465000Y-82550000D02*
X164338000Y-82550000D01*
X164338000Y-82550000D02*
X163195000Y-81407000D01*
X163195000Y-77343000D02*
X162052000Y-76200000D01*
X163195000Y-81407000D02*
X163195000Y-77343000D01*
X161925000Y-82550000D02*
X160655000Y-82550000D01*
X159512000Y-81407000D02*
X159512000Y-76200000D01*
X160655000Y-82550000D02*
X159512000Y-81407000D01*
X158750000Y-68199000D02*
X158750000Y-67310000D01*
X159385000Y-64135000D02*
X158115000Y-62865000D01*
X159385000Y-66675000D02*
X159385000Y-64135000D01*
X158750000Y-67310000D02*
X159385000Y-66675000D01*
X161290000Y-68199000D02*
X161290000Y-67564000D01*
X163195000Y-62865000D02*
X163195000Y-63500000D01*
X163195000Y-63500000D02*
X164465000Y-64770000D01*
X164465000Y-66294000D02*
X166370000Y-68199000D01*
X164465000Y-64770000D02*
X164465000Y-66294000D01*
X171450000Y-68199000D02*
X171450000Y-67691000D01*
X171450000Y-67691000D02*
X166624000Y-62865000D01*
X166624000Y-62865000D02*
X165735000Y-62865000D01*
X174752000Y-76200000D02*
X174752000Y-77343000D01*
X174752000Y-77343000D02*
X172085000Y-80010000D01*
X172212000Y-76200000D02*
X172212000Y-77089000D01*
X170815000Y-81280000D02*
X172085000Y-82550000D01*
X170815000Y-78486000D02*
X170815000Y-81280000D01*
X172212000Y-77089000D02*
X170815000Y-78486000D01*
X146812000Y-67691000D02*
X146939000Y-67691000D01*
X146939000Y-67691000D02*
X148590000Y-66040000D01*
X148590000Y-59817000D02*
X141478000Y-52705000D01*
X148590000Y-66040000D02*
X148590000Y-59817000D01*
X146812000Y-67691000D02*
X146812000Y-67310000D01*
X144272000Y-62484000D02*
X144272000Y-65151000D01*
X143637000Y-61849000D02*
X144272000Y-62484000D01*
X142240000Y-51435000D02*
X143764000Y-52959000D01*
X140335000Y-51435000D02*
X142240000Y-51435000D01*
X135763000Y-56007000D02*
X140335000Y-51435000D01*
X135763000Y-77470000D02*
X135763000Y-56007000D01*
X137541000Y-79248000D02*
X135763000Y-77470000D01*
X160274000Y-52197000D02*
X149860000Y-52197000D01*
X161925000Y-53848000D02*
X160274000Y-52197000D01*
X171704000Y-61468000D02*
X171704000Y-63246000D01*
X161925000Y-51689000D02*
X171704000Y-61468000D01*
X161036000Y-51689000D02*
X161925000Y-51689000D01*
X179133500Y-85661500D02*
X179133500Y-71945500D01*
X172720000Y-92075000D02*
X179133500Y-85661500D01*
X171704000Y-63246000D02*
X171704000Y-64516000D01*
X171704000Y-64516000D02*
X179133500Y-71945500D01*
X172339000Y-57658000D02*
X172339000Y-64135000D01*
X179959000Y-87503000D02*
X174117000Y-93345000D01*
X179959000Y-71755000D02*
X179959000Y-87503000D01*
X172339000Y-64135000D02*
X179959000Y-71755000D01*
X172339000Y-57785000D02*
X172212000Y-57912000D01*
X172339000Y-55245000D02*
X172339000Y-57658000D01*
X172339000Y-57658000D02*
X172339000Y-57785000D01*
X166624000Y-49530000D02*
X172339000Y-55245000D01*
X173609000Y-54356000D02*
X173609000Y-55626000D01*
X169545000Y-50292000D02*
X173609000Y-54356000D01*
X180911500Y-88963500D02*
X180911500Y-71818500D01*
X175260000Y-94615000D02*
X180911500Y-88963500D01*
X173609000Y-55626000D02*
X173609000Y-64516000D01*
X173609000Y-64516000D02*
X180911500Y-71818500D01*
X159004000Y-70612000D02*
X158369000Y-69977000D01*
X158115000Y-65405000D02*
X158115000Y-66675000D01*
X158115000Y-66675000D02*
X157480000Y-67310000D01*
X157480000Y-67310000D02*
X157480000Y-69088000D01*
X157480000Y-69088000D02*
X158369000Y-69977000D01*
X169545000Y-78359000D02*
X169545000Y-80010000D01*
X158369000Y-69977000D02*
X161163000Y-72771000D01*
X161163000Y-72771000D02*
X168910000Y-72771000D01*
X168910000Y-72771000D02*
X170942000Y-74803000D01*
X170942000Y-74803000D02*
X170942000Y-76962000D01*
X170942000Y-76962000D02*
X169545000Y-78359000D01*
D22*
X141732000Y-65151000D02*
X139319000Y-65151000D01*
X139319000Y-65151000D02*
X137033000Y-62865000D01*
X151130000Y-68199000D02*
X149860000Y-68199000D01*
X149860000Y-68199000D02*
X148209000Y-69850000D01*
X148209000Y-69850000D02*
X140335000Y-69850000D01*
X140335000Y-69850000D02*
X139319000Y-68834000D01*
X139319000Y-68834000D02*
X139319000Y-65151000D01*
D21*
X151130000Y-65024000D02*
X151130000Y-68199000D01*
X157226000Y-58928000D02*
X151130000Y-65024000D01*
X157861000Y-58928000D02*
X157226000Y-58928000D01*
X158877000Y-58928000D02*
X157861000Y-58928000D01*
X160147000Y-58928000D02*
X158877000Y-58928000D01*
D22*
X151130000Y-68199000D02*
X151130000Y-68326000D01*
X147193000Y-78613000D02*
X147193000Y-77597000D01*
X135509000Y-90297000D02*
X147193000Y-78613000D01*
D21*
X160655000Y-65405000D02*
X160655000Y-66040000D01*
X180000000Y-53680000D02*
X180000000Y-53460000D01*
D23*
G36*
X165709378Y-48917714D02*
X165544687Y-49314332D01*
X165544313Y-49743784D01*
X165708311Y-50140689D01*
X166011714Y-50444622D01*
X166408332Y-50609313D01*
X166661824Y-50609534D01*
X171602400Y-55550110D01*
X171602400Y-57523961D01*
X171531470Y-57630115D01*
X171475400Y-57912000D01*
X171531470Y-58193885D01*
X171602400Y-58300039D01*
X171602400Y-60324690D01*
X162445855Y-51168145D01*
X162206885Y-51008470D01*
X161925000Y-50952400D01*
X161825998Y-50952400D01*
X161648286Y-50774378D01*
X161251668Y-50609687D01*
X160822216Y-50609313D01*
X160425311Y-50773311D01*
X160121378Y-51076714D01*
X159962057Y-51460400D01*
X150649998Y-51460400D01*
X150472286Y-51282378D01*
X150075668Y-51117687D01*
X149646216Y-51117313D01*
X149249311Y-51281311D01*
X148945378Y-51584714D01*
X148780687Y-51981332D01*
X148780313Y-52410784D01*
X148944311Y-52807689D01*
X149247714Y-53111622D01*
X149644332Y-53276313D01*
X150073784Y-53276687D01*
X150470689Y-53112689D01*
X150650091Y-52933600D01*
X159968890Y-52933600D01*
X160845532Y-53810242D01*
X160845313Y-54061784D01*
X161009311Y-54458689D01*
X161312714Y-54762622D01*
X161709332Y-54927313D01*
X162138784Y-54927687D01*
X162535689Y-54763689D01*
X162839622Y-54460286D01*
X163004313Y-54063668D01*
X163004534Y-53810244D01*
X170967400Y-61773110D01*
X170967400Y-64516000D01*
X171023470Y-64797885D01*
X171183145Y-65036855D01*
X178396900Y-72250610D01*
X178396900Y-74755626D01*
X178393890Y-74753569D01*
X178142000Y-74702560D01*
X176442000Y-74702560D01*
X176206683Y-74746838D01*
X175990559Y-74885910D01*
X175845569Y-75098110D01*
X175831914Y-75165541D01*
X175802054Y-75120853D01*
X175320285Y-74798946D01*
X174752000Y-74685907D01*
X174183715Y-74798946D01*
X173701946Y-75120853D01*
X173482000Y-75450026D01*
X173262054Y-75120853D01*
X172780285Y-74798946D01*
X172212000Y-74685907D01*
X171676497Y-74792425D01*
X171622530Y-74521115D01*
X171462855Y-74282145D01*
X169430855Y-72250145D01*
X169191885Y-72090470D01*
X168910000Y-72034400D01*
X161468110Y-72034400D01*
X160083468Y-70649758D01*
X160083687Y-70398216D01*
X159919689Y-70001311D01*
X159616286Y-69697378D01*
X159342668Y-69583762D01*
X159800054Y-69278147D01*
X160020000Y-68948974D01*
X160239946Y-69278147D01*
X160721715Y-69600054D01*
X161290000Y-69713093D01*
X161858285Y-69600054D01*
X162340054Y-69278147D01*
X162560000Y-68948974D01*
X162779946Y-69278147D01*
X163261715Y-69600054D01*
X163830000Y-69713093D01*
X164398285Y-69600054D01*
X164880054Y-69278147D01*
X165100000Y-68948974D01*
X165319946Y-69278147D01*
X165801715Y-69600054D01*
X166370000Y-69713093D01*
X166938285Y-69600054D01*
X167420054Y-69278147D01*
X167640000Y-68948974D01*
X167859946Y-69278147D01*
X168341715Y-69600054D01*
X168910000Y-69713093D01*
X169478285Y-69600054D01*
X169960054Y-69278147D01*
X170180000Y-68948974D01*
X170399946Y-69278147D01*
X170881715Y-69600054D01*
X171450000Y-69713093D01*
X172018285Y-69600054D01*
X172500054Y-69278147D01*
X172821961Y-68796378D01*
X172935000Y-68228093D01*
X172935000Y-68169907D01*
X172821961Y-67601622D01*
X172500054Y-67119853D01*
X172018285Y-66797946D01*
X171494461Y-66693751D01*
X167144855Y-62344145D01*
X166988052Y-62239373D01*
X166920010Y-62074697D01*
X166527370Y-61681371D01*
X166014100Y-61468243D01*
X165458339Y-61467758D01*
X164944697Y-61679990D01*
X164551371Y-62072630D01*
X164465051Y-62280512D01*
X164380010Y-62074697D01*
X163987370Y-61681371D01*
X163474100Y-61468243D01*
X162918339Y-61467758D01*
X162404697Y-61679990D01*
X162011371Y-62072630D01*
X161925051Y-62280512D01*
X161840010Y-62074697D01*
X161447370Y-61681371D01*
X160934100Y-61468243D01*
X160378339Y-61467758D01*
X159864697Y-61679990D01*
X159471371Y-62072630D01*
X159385051Y-62280512D01*
X159300010Y-62074697D01*
X158907370Y-61681371D01*
X158394100Y-61468243D01*
X157838339Y-61467758D01*
X157324697Y-61679990D01*
X156931371Y-62072630D01*
X156845051Y-62280512D01*
X156760010Y-62074697D01*
X156367370Y-61681371D01*
X155854100Y-61468243D01*
X155727577Y-61468133D01*
X157531110Y-59664600D01*
X159357002Y-59664600D01*
X159534714Y-59842622D01*
X159931332Y-60007313D01*
X160360784Y-60007687D01*
X160757689Y-59843689D01*
X161061622Y-59540286D01*
X161226313Y-59143668D01*
X161226687Y-58714216D01*
X161062689Y-58317311D01*
X160759286Y-58013378D01*
X160362668Y-57848687D01*
X159933216Y-57848313D01*
X159536311Y-58012311D01*
X159356909Y-58191400D01*
X157226000Y-58191400D01*
X156944115Y-58247470D01*
X156723920Y-58394600D01*
X156705145Y-58407145D01*
X150609145Y-64503145D01*
X150449470Y-64742115D01*
X150393400Y-65024000D01*
X150393400Y-66701560D01*
X150280000Y-66701560D01*
X150044683Y-66745838D01*
X149828559Y-66884910D01*
X149683569Y-67097110D01*
X149632560Y-67349000D01*
X149632560Y-67359240D01*
X149521326Y-67381366D01*
X149521324Y-67381367D01*
X149521325Y-67381367D01*
X149234210Y-67573210D01*
X149234208Y-67573213D01*
X147842420Y-68965000D01*
X147594842Y-68965000D01*
X147871670Y-68780029D01*
X148196526Y-68293848D01*
X148310600Y-67720359D01*
X148310600Y-67661641D01*
X148260739Y-67410971D01*
X149110855Y-66560855D01*
X149205713Y-66418890D01*
X149270530Y-66321885D01*
X149326600Y-66040000D01*
X149326600Y-59817000D01*
X149270530Y-59535115D01*
X149110855Y-59296145D01*
X143853289Y-54038579D01*
X143977784Y-54038687D01*
X144374689Y-53874689D01*
X144678622Y-53571286D01*
X144843313Y-53174668D01*
X144843687Y-52745216D01*
X144679689Y-52348311D01*
X144376286Y-52044378D01*
X143979668Y-51879687D01*
X143726176Y-51879466D01*
X142760855Y-50914145D01*
X142521885Y-50754470D01*
X142240000Y-50698400D01*
X140335000Y-50698400D01*
X140053115Y-50754470D01*
X139814145Y-50914145D01*
X135242145Y-55486145D01*
X135082470Y-55725115D01*
X135026400Y-56007000D01*
X135026400Y-77470000D01*
X135082470Y-77751885D01*
X135242145Y-77990855D01*
X136461532Y-79210242D01*
X136461313Y-79461784D01*
X136625311Y-79858689D01*
X136928714Y-80162622D01*
X137325332Y-80327313D01*
X137754784Y-80327687D01*
X138151689Y-80163689D01*
X138455622Y-79860286D01*
X138620313Y-79463668D01*
X138620687Y-79034216D01*
X138456689Y-78637311D01*
X138153286Y-78333378D01*
X137756668Y-78168687D01*
X137503176Y-78168466D01*
X136499600Y-77164890D01*
X136499600Y-63812378D01*
X136817332Y-63944313D01*
X136860771Y-63944351D01*
X138434000Y-65517579D01*
X138434000Y-68833995D01*
X138433999Y-68834000D01*
X138468221Y-69006041D01*
X138501367Y-69172675D01*
X138584084Y-69296470D01*
X138693210Y-69459790D01*
X139709208Y-70475787D01*
X139709210Y-70475790D01*
X139996325Y-70667633D01*
X140052516Y-70678810D01*
X140335000Y-70735001D01*
X140335005Y-70735000D01*
X148208995Y-70735000D01*
X148209000Y-70735001D01*
X148491484Y-70678810D01*
X148547675Y-70667633D01*
X148834790Y-70475790D01*
X149813650Y-69496929D01*
X149815910Y-69500441D01*
X150028110Y-69645431D01*
X150280000Y-69696440D01*
X151980000Y-69696440D01*
X152215317Y-69652162D01*
X152431441Y-69513090D01*
X152576431Y-69300890D01*
X152590086Y-69233459D01*
X152619946Y-69278147D01*
X153101715Y-69600054D01*
X153670000Y-69713093D01*
X154238285Y-69600054D01*
X154720054Y-69278147D01*
X154940000Y-68948974D01*
X155159946Y-69278147D01*
X155641715Y-69600054D01*
X156210000Y-69713093D01*
X156778285Y-69600054D01*
X156899256Y-69519224D01*
X156959145Y-69608855D01*
X157924532Y-70574242D01*
X157924313Y-70825784D01*
X158088311Y-71222689D01*
X158391714Y-71526622D01*
X158788332Y-71691313D01*
X159041824Y-71691534D01*
X160642145Y-73291855D01*
X160881115Y-73451530D01*
X161163000Y-73507600D01*
X168604890Y-73507600D01*
X169810808Y-74713518D01*
X169672000Y-74685907D01*
X169103715Y-74798946D01*
X168621946Y-75120853D01*
X168402000Y-75450026D01*
X168182054Y-75120853D01*
X167700285Y-74798946D01*
X167132000Y-74685907D01*
X166563715Y-74798946D01*
X166081946Y-75120853D01*
X165862000Y-75450026D01*
X165642054Y-75120853D01*
X165160285Y-74798946D01*
X164592000Y-74685907D01*
X164023715Y-74798946D01*
X163541946Y-75120853D01*
X163322000Y-75450026D01*
X163102054Y-75120853D01*
X162620285Y-74798946D01*
X162052000Y-74685907D01*
X161483715Y-74798946D01*
X161001946Y-75120853D01*
X160782000Y-75450026D01*
X160562054Y-75120853D01*
X160080285Y-74798946D01*
X159512000Y-74685907D01*
X158943715Y-74798946D01*
X158461946Y-75120853D01*
X158242000Y-75450026D01*
X158022054Y-75120853D01*
X157540285Y-74798946D01*
X156972000Y-74685907D01*
X156403715Y-74798946D01*
X155921946Y-75120853D01*
X155600039Y-75602622D01*
X155487000Y-76170907D01*
X155487000Y-76229093D01*
X155600039Y-76797378D01*
X155921946Y-77279147D01*
X156403715Y-77601054D01*
X156972000Y-77714093D01*
X157540285Y-77601054D01*
X158022054Y-77279147D01*
X158242000Y-76949974D01*
X158461946Y-77279147D01*
X158775400Y-77488590D01*
X158775400Y-81407000D01*
X158831470Y-81688885D01*
X158991145Y-81927855D01*
X160134145Y-83070855D01*
X160373115Y-83230530D01*
X160655000Y-83286600D01*
X160717800Y-83286600D01*
X160739990Y-83340303D01*
X161132630Y-83733629D01*
X161645900Y-83946757D01*
X162201661Y-83947242D01*
X162715303Y-83735010D01*
X163108629Y-83342370D01*
X163194949Y-83134488D01*
X163279990Y-83340303D01*
X163672630Y-83733629D01*
X164185900Y-83946757D01*
X164741661Y-83947242D01*
X165255303Y-83735010D01*
X165648629Y-83342370D01*
X165734949Y-83134488D01*
X165819990Y-83340303D01*
X166212630Y-83733629D01*
X166725900Y-83946757D01*
X167281661Y-83947242D01*
X167795303Y-83735010D01*
X168188629Y-83342370D01*
X168274949Y-83134488D01*
X168359990Y-83340303D01*
X168752630Y-83733629D01*
X169265900Y-83946757D01*
X169821661Y-83947242D01*
X170335303Y-83735010D01*
X170728629Y-83342370D01*
X170814949Y-83134488D01*
X170899990Y-83340303D01*
X171292630Y-83733629D01*
X171805900Y-83946757D01*
X172361661Y-83947242D01*
X172875303Y-83735010D01*
X173268629Y-83342370D01*
X173481757Y-82829100D01*
X173482242Y-82273339D01*
X173270010Y-81759697D01*
X172917167Y-81406237D01*
X173082317Y-81375162D01*
X173298441Y-81236090D01*
X173443431Y-81023890D01*
X173494440Y-80772000D01*
X173494440Y-79642270D01*
X175272855Y-77863855D01*
X175347671Y-77751885D01*
X175432530Y-77624885D01*
X175441833Y-77578117D01*
X175455202Y-77510906D01*
X175802054Y-77279147D01*
X175829850Y-77237548D01*
X175838838Y-77285317D01*
X175977910Y-77501441D01*
X176190110Y-77646431D01*
X176442000Y-77697440D01*
X178142000Y-77697440D01*
X178377317Y-77653162D01*
X178396900Y-77640561D01*
X178396900Y-85356390D01*
X172757758Y-90995532D01*
X172506216Y-90995313D01*
X172109311Y-91159311D01*
X171805378Y-91462714D01*
X171640687Y-91859332D01*
X171640313Y-92288784D01*
X171804311Y-92685689D01*
X172107714Y-92989622D01*
X172504332Y-93154313D01*
X172933784Y-93154687D01*
X173046497Y-93108115D01*
X173037687Y-93129332D01*
X173037313Y-93558784D01*
X173201311Y-93955689D01*
X173504714Y-94259622D01*
X173901332Y-94424313D01*
X174180665Y-94424556D01*
X174180313Y-94828784D01*
X174344311Y-95225689D01*
X174647714Y-95529622D01*
X175044332Y-95694313D01*
X175473784Y-95694687D01*
X175870689Y-95530689D01*
X176174622Y-95227286D01*
X176339313Y-94830668D01*
X176339534Y-94577176D01*
X181432355Y-89484355D01*
X181592030Y-89245385D01*
X181648100Y-88963500D01*
X181648100Y-71818505D01*
X181648101Y-71818500D01*
X181592030Y-71536616D01*
X181592030Y-71536615D01*
X181432355Y-71297645D01*
X174345600Y-64210890D01*
X174345600Y-57270000D01*
X178082560Y-57270000D01*
X178082560Y-59810000D01*
X178126838Y-60045317D01*
X178265910Y-60261441D01*
X178478110Y-60406431D01*
X178730000Y-60457440D01*
X181270000Y-60457440D01*
X181505317Y-60413162D01*
X181721441Y-60274090D01*
X181866431Y-60061890D01*
X181917440Y-59810000D01*
X181917440Y-57270000D01*
X181873162Y-57034683D01*
X181734090Y-56818559D01*
X181521890Y-56673569D01*
X181270000Y-56622560D01*
X178730000Y-56622560D01*
X178494683Y-56666838D01*
X178278559Y-56805910D01*
X178133569Y-57018110D01*
X178082560Y-57270000D01*
X174345600Y-57270000D01*
X174345600Y-54807777D01*
X178831828Y-54807777D01*
X178963520Y-55102657D01*
X179671036Y-55374261D01*
X180428632Y-55354436D01*
X181036480Y-55102657D01*
X181168172Y-54807777D01*
X180000000Y-53639605D01*
X178831828Y-54807777D01*
X174345600Y-54807777D01*
X174345600Y-54356000D01*
X174289530Y-54074115D01*
X174129855Y-53835145D01*
X173425746Y-53131036D01*
X178085739Y-53131036D01*
X178105564Y-53888632D01*
X178357343Y-54496480D01*
X178652223Y-54628172D01*
X179820395Y-53460000D01*
X180179605Y-53460000D01*
X181347777Y-54628172D01*
X181642657Y-54496480D01*
X181914261Y-53788964D01*
X181894436Y-53031368D01*
X181642657Y-52423520D01*
X181347777Y-52291828D01*
X180179605Y-53460000D01*
X179820395Y-53460000D01*
X178652223Y-52291828D01*
X178357343Y-52423520D01*
X178085739Y-53131036D01*
X173425746Y-53131036D01*
X172406933Y-52112223D01*
X178831828Y-52112223D01*
X180000000Y-53280395D01*
X181168172Y-52112223D01*
X181036480Y-51817343D01*
X180328964Y-51545739D01*
X179571368Y-51565564D01*
X178963520Y-51817343D01*
X178831828Y-52112223D01*
X172406933Y-52112223D01*
X170624468Y-50329758D01*
X170624687Y-50078216D01*
X170460689Y-49681311D01*
X170157286Y-49377378D01*
X169760668Y-49212687D01*
X169331216Y-49212313D01*
X168934311Y-49376311D01*
X168630378Y-49679714D01*
X168465687Y-50076332D01*
X168465466Y-50329756D01*
X167703468Y-49567758D01*
X167703687Y-49316216D01*
X167539689Y-48919311D01*
X167446042Y-48825500D01*
X183174500Y-48825500D01*
X183174500Y-97174500D01*
X134825500Y-97174500D01*
X134825500Y-81192000D01*
X153188560Y-81192000D01*
X153188560Y-82892000D01*
X153232838Y-83127317D01*
X153371910Y-83343441D01*
X153584110Y-83488431D01*
X153836000Y-83539440D01*
X155536000Y-83539440D01*
X155771317Y-83495162D01*
X155987441Y-83356090D01*
X156132431Y-83143890D01*
X156183440Y-82892000D01*
X156183440Y-81192000D01*
X156139162Y-80956683D01*
X156000090Y-80740559D01*
X155787890Y-80595569D01*
X155536000Y-80544560D01*
X153836000Y-80544560D01*
X153600683Y-80588838D01*
X153384559Y-80727910D01*
X153239569Y-80940110D01*
X153188560Y-81192000D01*
X134825500Y-81192000D01*
X134825500Y-48825500D01*
X165801753Y-48825500D01*
X165709378Y-48917714D01*
X165709378Y-48917714D01*
G37*
X165709378Y-48917714D02*
X165544687Y-49314332D01*
X165544313Y-49743784D01*
X165708311Y-50140689D01*
X166011714Y-50444622D01*
X166408332Y-50609313D01*
X166661824Y-50609534D01*
X171602400Y-55550110D01*
X171602400Y-57523961D01*
X171531470Y-57630115D01*
X171475400Y-57912000D01*
X171531470Y-58193885D01*
X171602400Y-58300039D01*
X171602400Y-60324690D01*
X162445855Y-51168145D01*
X162206885Y-51008470D01*
X161925000Y-50952400D01*
X161825998Y-50952400D01*
X161648286Y-50774378D01*
X161251668Y-50609687D01*
X160822216Y-50609313D01*
X160425311Y-50773311D01*
X160121378Y-51076714D01*
X159962057Y-51460400D01*
X150649998Y-51460400D01*
X150472286Y-51282378D01*
X150075668Y-51117687D01*
X149646216Y-51117313D01*
X149249311Y-51281311D01*
X148945378Y-51584714D01*
X148780687Y-51981332D01*
X148780313Y-52410784D01*
X148944311Y-52807689D01*
X149247714Y-53111622D01*
X149644332Y-53276313D01*
X150073784Y-53276687D01*
X150470689Y-53112689D01*
X150650091Y-52933600D01*
X159968890Y-52933600D01*
X160845532Y-53810242D01*
X160845313Y-54061784D01*
X161009311Y-54458689D01*
X161312714Y-54762622D01*
X161709332Y-54927313D01*
X162138784Y-54927687D01*
X162535689Y-54763689D01*
X162839622Y-54460286D01*
X163004313Y-54063668D01*
X163004534Y-53810244D01*
X170967400Y-61773110D01*
X170967400Y-64516000D01*
X171023470Y-64797885D01*
X171183145Y-65036855D01*
X178396900Y-72250610D01*
X178396900Y-74755626D01*
X178393890Y-74753569D01*
X178142000Y-74702560D01*
X176442000Y-74702560D01*
X176206683Y-74746838D01*
X175990559Y-74885910D01*
X175845569Y-75098110D01*
X175831914Y-75165541D01*
X175802054Y-75120853D01*
X175320285Y-74798946D01*
X174752000Y-74685907D01*
X174183715Y-74798946D01*
X173701946Y-75120853D01*
X173482000Y-75450026D01*
X173262054Y-75120853D01*
X172780285Y-74798946D01*
X172212000Y-74685907D01*
X171676497Y-74792425D01*
X171622530Y-74521115D01*
X171462855Y-74282145D01*
X169430855Y-72250145D01*
X169191885Y-72090470D01*
X168910000Y-72034400D01*
X161468110Y-72034400D01*
X160083468Y-70649758D01*
X160083687Y-70398216D01*
X159919689Y-70001311D01*
X159616286Y-69697378D01*
X159342668Y-69583762D01*
X159800054Y-69278147D01*
X160020000Y-68948974D01*
X160239946Y-69278147D01*
X160721715Y-69600054D01*
X161290000Y-69713093D01*
X161858285Y-69600054D01*
X162340054Y-69278147D01*
X162560000Y-68948974D01*
X162779946Y-69278147D01*
X163261715Y-69600054D01*
X163830000Y-69713093D01*
X164398285Y-69600054D01*
X164880054Y-69278147D01*
X165100000Y-68948974D01*
X165319946Y-69278147D01*
X165801715Y-69600054D01*
X166370000Y-69713093D01*
X166938285Y-69600054D01*
X167420054Y-69278147D01*
X167640000Y-68948974D01*
X167859946Y-69278147D01*
X168341715Y-69600054D01*
X168910000Y-69713093D01*
X169478285Y-69600054D01*
X169960054Y-69278147D01*
X170180000Y-68948974D01*
X170399946Y-69278147D01*
X170881715Y-69600054D01*
X171450000Y-69713093D01*
X172018285Y-69600054D01*
X172500054Y-69278147D01*
X172821961Y-68796378D01*
X172935000Y-68228093D01*
X172935000Y-68169907D01*
X172821961Y-67601622D01*
X172500054Y-67119853D01*
X172018285Y-66797946D01*
X171494461Y-66693751D01*
X167144855Y-62344145D01*
X166988052Y-62239373D01*
X166920010Y-62074697D01*
X166527370Y-61681371D01*
X166014100Y-61468243D01*
X165458339Y-61467758D01*
X164944697Y-61679990D01*
X164551371Y-62072630D01*
X164465051Y-62280512D01*
X164380010Y-62074697D01*
X163987370Y-61681371D01*
X163474100Y-61468243D01*
X162918339Y-61467758D01*
X162404697Y-61679990D01*
X162011371Y-62072630D01*
X161925051Y-62280512D01*
X161840010Y-62074697D01*
X161447370Y-61681371D01*
X160934100Y-61468243D01*
X160378339Y-61467758D01*
X159864697Y-61679990D01*
X159471371Y-62072630D01*
X159385051Y-62280512D01*
X159300010Y-62074697D01*
X158907370Y-61681371D01*
X158394100Y-61468243D01*
X157838339Y-61467758D01*
X157324697Y-61679990D01*
X156931371Y-62072630D01*
X156845051Y-62280512D01*
X156760010Y-62074697D01*
X156367370Y-61681371D01*
X155854100Y-61468243D01*
X155727577Y-61468133D01*
X157531110Y-59664600D01*
X159357002Y-59664600D01*
X159534714Y-59842622D01*
X159931332Y-60007313D01*
X160360784Y-60007687D01*
X160757689Y-59843689D01*
X161061622Y-59540286D01*
X161226313Y-59143668D01*
X161226687Y-58714216D01*
X161062689Y-58317311D01*
X160759286Y-58013378D01*
X160362668Y-57848687D01*
X159933216Y-57848313D01*
X159536311Y-58012311D01*
X159356909Y-58191400D01*
X157226000Y-58191400D01*
X156944115Y-58247470D01*
X156723920Y-58394600D01*
X156705145Y-58407145D01*
X150609145Y-64503145D01*
X150449470Y-64742115D01*
X150393400Y-65024000D01*
X150393400Y-66701560D01*
X150280000Y-66701560D01*
X150044683Y-66745838D01*
X149828559Y-66884910D01*
X149683569Y-67097110D01*
X149632560Y-67349000D01*
X149632560Y-67359240D01*
X149521326Y-67381366D01*
X149521324Y-67381367D01*
X149521325Y-67381367D01*
X149234210Y-67573210D01*
X149234208Y-67573213D01*
X147842420Y-68965000D01*
X147594842Y-68965000D01*
X147871670Y-68780029D01*
X148196526Y-68293848D01*
X148310600Y-67720359D01*
X148310600Y-67661641D01*
X148260739Y-67410971D01*
X149110855Y-66560855D01*
X149205713Y-66418890D01*
X149270530Y-66321885D01*
X149326600Y-66040000D01*
X149326600Y-59817000D01*
X149270530Y-59535115D01*
X149110855Y-59296145D01*
X143853289Y-54038579D01*
X143977784Y-54038687D01*
X144374689Y-53874689D01*
X144678622Y-53571286D01*
X144843313Y-53174668D01*
X144843687Y-52745216D01*
X144679689Y-52348311D01*
X144376286Y-52044378D01*
X143979668Y-51879687D01*
X143726176Y-51879466D01*
X142760855Y-50914145D01*
X142521885Y-50754470D01*
X142240000Y-50698400D01*
X140335000Y-50698400D01*
X140053115Y-50754470D01*
X139814145Y-50914145D01*
X135242145Y-55486145D01*
X135082470Y-55725115D01*
X135026400Y-56007000D01*
X135026400Y-77470000D01*
X135082470Y-77751885D01*
X135242145Y-77990855D01*
X136461532Y-79210242D01*
X136461313Y-79461784D01*
X136625311Y-79858689D01*
X136928714Y-80162622D01*
X137325332Y-80327313D01*
X137754784Y-80327687D01*
X138151689Y-80163689D01*
X138455622Y-79860286D01*
X138620313Y-79463668D01*
X138620687Y-79034216D01*
X138456689Y-78637311D01*
X138153286Y-78333378D01*
X137756668Y-78168687D01*
X137503176Y-78168466D01*
X136499600Y-77164890D01*
X136499600Y-63812378D01*
X136817332Y-63944313D01*
X136860771Y-63944351D01*
X138434000Y-65517579D01*
X138434000Y-68833995D01*
X138433999Y-68834000D01*
X138468221Y-69006041D01*
X138501367Y-69172675D01*
X138584084Y-69296470D01*
X138693210Y-69459790D01*
X139709208Y-70475787D01*
X139709210Y-70475790D01*
X139996325Y-70667633D01*
X140052516Y-70678810D01*
X140335000Y-70735001D01*
X140335005Y-70735000D01*
X148208995Y-70735000D01*
X148209000Y-70735001D01*
X148491484Y-70678810D01*
X148547675Y-70667633D01*
X148834790Y-70475790D01*
X149813650Y-69496929D01*
X149815910Y-69500441D01*
X150028110Y-69645431D01*
X150280000Y-69696440D01*
X151980000Y-69696440D01*
X152215317Y-69652162D01*
X152431441Y-69513090D01*
X152576431Y-69300890D01*
X152590086Y-69233459D01*
X152619946Y-69278147D01*
X153101715Y-69600054D01*
X153670000Y-69713093D01*
X154238285Y-69600054D01*
X154720054Y-69278147D01*
X154940000Y-68948974D01*
X155159946Y-69278147D01*
X155641715Y-69600054D01*
X156210000Y-69713093D01*
X156778285Y-69600054D01*
X156899256Y-69519224D01*
X156959145Y-69608855D01*
X157924532Y-70574242D01*
X157924313Y-70825784D01*
X158088311Y-71222689D01*
X158391714Y-71526622D01*
X158788332Y-71691313D01*
X159041824Y-71691534D01*
X160642145Y-73291855D01*
X160881115Y-73451530D01*
X161163000Y-73507600D01*
X168604890Y-73507600D01*
X169810808Y-74713518D01*
X169672000Y-74685907D01*
X169103715Y-74798946D01*
X168621946Y-75120853D01*
X168402000Y-75450026D01*
X168182054Y-75120853D01*
X167700285Y-74798946D01*
X167132000Y-74685907D01*
X166563715Y-74798946D01*
X166081946Y-75120853D01*
X165862000Y-75450026D01*
X165642054Y-75120853D01*
X165160285Y-74798946D01*
X164592000Y-74685907D01*
X164023715Y-74798946D01*
X163541946Y-75120853D01*
X163322000Y-75450026D01*
X163102054Y-75120853D01*
X162620285Y-74798946D01*
X162052000Y-74685907D01*
X161483715Y-74798946D01*
X161001946Y-75120853D01*
X160782000Y-75450026D01*
X160562054Y-75120853D01*
X160080285Y-74798946D01*
X159512000Y-74685907D01*
X158943715Y-74798946D01*
X158461946Y-75120853D01*
X158242000Y-75450026D01*
X158022054Y-75120853D01*
X157540285Y-74798946D01*
X156972000Y-74685907D01*
X156403715Y-74798946D01*
X155921946Y-75120853D01*
X155600039Y-75602622D01*
X155487000Y-76170907D01*
X155487000Y-76229093D01*
X155600039Y-76797378D01*
X155921946Y-77279147D01*
X156403715Y-77601054D01*
X156972000Y-77714093D01*
X157540285Y-77601054D01*
X158022054Y-77279147D01*
X158242000Y-76949974D01*
X158461946Y-77279147D01*
X158775400Y-77488590D01*
X158775400Y-81407000D01*
X158831470Y-81688885D01*
X158991145Y-81927855D01*
X160134145Y-83070855D01*
X160373115Y-83230530D01*
X160655000Y-83286600D01*
X160717800Y-83286600D01*
X160739990Y-83340303D01*
X161132630Y-83733629D01*
X161645900Y-83946757D01*
X162201661Y-83947242D01*
X162715303Y-83735010D01*
X163108629Y-83342370D01*
X163194949Y-83134488D01*
X163279990Y-83340303D01*
X163672630Y-83733629D01*
X164185900Y-83946757D01*
X164741661Y-83947242D01*
X165255303Y-83735010D01*
X165648629Y-83342370D01*
X165734949Y-83134488D01*
X165819990Y-83340303D01*
X166212630Y-83733629D01*
X166725900Y-83946757D01*
X167281661Y-83947242D01*
X167795303Y-83735010D01*
X168188629Y-83342370D01*
X168274949Y-83134488D01*
X168359990Y-83340303D01*
X168752630Y-83733629D01*
X169265900Y-83946757D01*
X169821661Y-83947242D01*
X170335303Y-83735010D01*
X170728629Y-83342370D01*
X170814949Y-83134488D01*
X170899990Y-83340303D01*
X171292630Y-83733629D01*
X171805900Y-83946757D01*
X172361661Y-83947242D01*
X172875303Y-83735010D01*
X173268629Y-83342370D01*
X173481757Y-82829100D01*
X173482242Y-82273339D01*
X173270010Y-81759697D01*
X172917167Y-81406237D01*
X173082317Y-81375162D01*
X173298441Y-81236090D01*
X173443431Y-81023890D01*
X173494440Y-80772000D01*
X173494440Y-79642270D01*
X175272855Y-77863855D01*
X175347671Y-77751885D01*
X175432530Y-77624885D01*
X175441833Y-77578117D01*
X175455202Y-77510906D01*
X175802054Y-77279147D01*
X175829850Y-77237548D01*
X175838838Y-77285317D01*
X175977910Y-77501441D01*
X176190110Y-77646431D01*
X176442000Y-77697440D01*
X178142000Y-77697440D01*
X178377317Y-77653162D01*
X178396900Y-77640561D01*
X178396900Y-85356390D01*
X172757758Y-90995532D01*
X172506216Y-90995313D01*
X172109311Y-91159311D01*
X171805378Y-91462714D01*
X171640687Y-91859332D01*
X171640313Y-92288784D01*
X171804311Y-92685689D01*
X172107714Y-92989622D01*
X172504332Y-93154313D01*
X172933784Y-93154687D01*
X173046497Y-93108115D01*
X173037687Y-93129332D01*
X173037313Y-93558784D01*
X173201311Y-93955689D01*
X173504714Y-94259622D01*
X173901332Y-94424313D01*
X174180665Y-94424556D01*
X174180313Y-94828784D01*
X174344311Y-95225689D01*
X174647714Y-95529622D01*
X175044332Y-95694313D01*
X175473784Y-95694687D01*
X175870689Y-95530689D01*
X176174622Y-95227286D01*
X176339313Y-94830668D01*
X176339534Y-94577176D01*
X181432355Y-89484355D01*
X181592030Y-89245385D01*
X181648100Y-88963500D01*
X181648100Y-71818505D01*
X181648101Y-71818500D01*
X181592030Y-71536616D01*
X181592030Y-71536615D01*
X181432355Y-71297645D01*
X174345600Y-64210890D01*
X174345600Y-57270000D01*
X178082560Y-57270000D01*
X178082560Y-59810000D01*
X178126838Y-60045317D01*
X178265910Y-60261441D01*
X178478110Y-60406431D01*
X178730000Y-60457440D01*
X181270000Y-60457440D01*
X181505317Y-60413162D01*
X181721441Y-60274090D01*
X181866431Y-60061890D01*
X181917440Y-59810000D01*
X181917440Y-57270000D01*
X181873162Y-57034683D01*
X181734090Y-56818559D01*
X181521890Y-56673569D01*
X181270000Y-56622560D01*
X178730000Y-56622560D01*
X178494683Y-56666838D01*
X178278559Y-56805910D01*
X178133569Y-57018110D01*
X178082560Y-57270000D01*
X174345600Y-57270000D01*
X174345600Y-54807777D01*
X178831828Y-54807777D01*
X178963520Y-55102657D01*
X179671036Y-55374261D01*
X180428632Y-55354436D01*
X181036480Y-55102657D01*
X181168172Y-54807777D01*
X180000000Y-53639605D01*
X178831828Y-54807777D01*
X174345600Y-54807777D01*
X174345600Y-54356000D01*
X174289530Y-54074115D01*
X174129855Y-53835145D01*
X173425746Y-53131036D01*
X178085739Y-53131036D01*
X178105564Y-53888632D01*
X178357343Y-54496480D01*
X178652223Y-54628172D01*
X179820395Y-53460000D01*
X180179605Y-53460000D01*
X181347777Y-54628172D01*
X181642657Y-54496480D01*
X181914261Y-53788964D01*
X181894436Y-53031368D01*
X181642657Y-52423520D01*
X181347777Y-52291828D01*
X180179605Y-53460000D01*
X179820395Y-53460000D01*
X178652223Y-52291828D01*
X178357343Y-52423520D01*
X178085739Y-53131036D01*
X173425746Y-53131036D01*
X172406933Y-52112223D01*
X178831828Y-52112223D01*
X180000000Y-53280395D01*
X181168172Y-52112223D01*
X181036480Y-51817343D01*
X180328964Y-51545739D01*
X179571368Y-51565564D01*
X178963520Y-51817343D01*
X178831828Y-52112223D01*
X172406933Y-52112223D01*
X170624468Y-50329758D01*
X170624687Y-50078216D01*
X170460689Y-49681311D01*
X170157286Y-49377378D01*
X169760668Y-49212687D01*
X169331216Y-49212313D01*
X168934311Y-49376311D01*
X168630378Y-49679714D01*
X168465687Y-50076332D01*
X168465466Y-50329756D01*
X167703468Y-49567758D01*
X167703687Y-49316216D01*
X167539689Y-48919311D01*
X167446042Y-48825500D01*
X183174500Y-48825500D01*
X183174500Y-97174500D01*
X134825500Y-97174500D01*
X134825500Y-81192000D01*
X153188560Y-81192000D01*
X153188560Y-82892000D01*
X153232838Y-83127317D01*
X153371910Y-83343441D01*
X153584110Y-83488431D01*
X153836000Y-83539440D01*
X155536000Y-83539440D01*
X155771317Y-83495162D01*
X155987441Y-83356090D01*
X156132431Y-83143890D01*
X156183440Y-82892000D01*
X156183440Y-81192000D01*
X156139162Y-80956683D01*
X156000090Y-80740559D01*
X155787890Y-80595569D01*
X155536000Y-80544560D01*
X153836000Y-80544560D01*
X153600683Y-80588838D01*
X153384559Y-80727910D01*
X153239569Y-80940110D01*
X153188560Y-81192000D01*
X134825500Y-81192000D01*
X134825500Y-48825500D01*
X165801753Y-48825500D01*
X165709378Y-48917714D01*
G36*
X167198748Y-79995858D02*
X167184605Y-80010000D01*
X167198748Y-80024143D01*
X167019143Y-80203748D01*
X167005000Y-80189605D01*
X166990858Y-80203748D01*
X166811253Y-80024143D01*
X166825395Y-80010000D01*
X166811253Y-79995858D01*
X166990858Y-79816253D01*
X167005000Y-79830395D01*
X167019143Y-79816253D01*
X167198748Y-79995858D01*
X167198748Y-79995858D01*
G37*
X167198748Y-79995858D02*
X167184605Y-80010000D01*
X167198748Y-80024143D01*
X167019143Y-80203748D01*
X167005000Y-80189605D01*
X166990858Y-80203748D01*
X166811253Y-80024143D01*
X166825395Y-80010000D01*
X166811253Y-79995858D01*
X166990858Y-79816253D01*
X167005000Y-79830395D01*
X167019143Y-79816253D01*
X167198748Y-79995858D01*
G36*
X162009990Y-63655303D02*
X162402630Y-64048629D01*
X162610512Y-64134949D01*
X162404697Y-64219990D01*
X162011371Y-64612630D01*
X161931605Y-64804727D01*
X161877397Y-64673857D01*
X161635213Y-64604392D01*
X160834605Y-65405000D01*
X161635213Y-66205608D01*
X161877397Y-66136143D01*
X161927509Y-65995682D01*
X162009990Y-66195303D01*
X162402630Y-66588629D01*
X162915900Y-66801757D01*
X163255568Y-66802053D01*
X162779946Y-67119853D01*
X162560000Y-67449026D01*
X162340054Y-67119853D01*
X161858285Y-66797946D01*
X161290000Y-66684907D01*
X161207854Y-66701247D01*
X161386143Y-66627397D01*
X161455608Y-66385213D01*
X160655000Y-65584605D01*
X160640858Y-65598748D01*
X160461253Y-65419143D01*
X160475395Y-65405000D01*
X160461253Y-65390858D01*
X160640858Y-65211253D01*
X160655000Y-65225395D01*
X161455608Y-64424787D01*
X161386143Y-64182603D01*
X161245682Y-64132491D01*
X161445303Y-64050010D01*
X161838629Y-63657370D01*
X161924949Y-63449488D01*
X162009990Y-63655303D01*
X162009990Y-63655303D01*
G37*
X162009990Y-63655303D02*
X162402630Y-64048629D01*
X162610512Y-64134949D01*
X162404697Y-64219990D01*
X162011371Y-64612630D01*
X161931605Y-64804727D01*
X161877397Y-64673857D01*
X161635213Y-64604392D01*
X160834605Y-65405000D01*
X161635213Y-66205608D01*
X161877397Y-66136143D01*
X161927509Y-65995682D01*
X162009990Y-66195303D01*
X162402630Y-66588629D01*
X162915900Y-66801757D01*
X163255568Y-66802053D01*
X162779946Y-67119853D01*
X162560000Y-67449026D01*
X162340054Y-67119853D01*
X161858285Y-66797946D01*
X161290000Y-66684907D01*
X161207854Y-66701247D01*
X161386143Y-66627397D01*
X161455608Y-66385213D01*
X160655000Y-65584605D01*
X160640858Y-65598748D01*
X160461253Y-65419143D01*
X160475395Y-65405000D01*
X160461253Y-65390858D01*
X160640858Y-65211253D01*
X160655000Y-65225395D01*
X161455608Y-64424787D01*
X161386143Y-64182603D01*
X161245682Y-64132491D01*
X161445303Y-64050010D01*
X161838629Y-63657370D01*
X161924949Y-63449488D01*
X162009990Y-63655303D01*
G36*
X140398687Y-52489332D02*
X140398313Y-52918784D01*
X140562311Y-53315689D01*
X140865714Y-53619622D01*
X141262332Y-53784313D01*
X141515824Y-53784534D01*
X147853400Y-60122110D01*
X147853400Y-64111520D01*
X147586947Y-63868312D01*
X147171026Y-63696042D01*
X146939000Y-63817183D01*
X146939000Y-65024000D01*
X146959000Y-65024000D01*
X146959000Y-65278000D01*
X146939000Y-65278000D01*
X146939000Y-65298000D01*
X146685000Y-65298000D01*
X146685000Y-65278000D01*
X146665000Y-65278000D01*
X146665000Y-65024000D01*
X146685000Y-65024000D01*
X146685000Y-63817183D01*
X146452974Y-63696042D01*
X146037053Y-63868312D01*
X145605179Y-64262510D01*
X145547664Y-64385228D01*
X145331670Y-64061971D01*
X145008600Y-63846102D01*
X145008600Y-62484000D01*
X144952530Y-62202115D01*
X144792855Y-61963145D01*
X144716468Y-61886758D01*
X144716687Y-61635216D01*
X144552689Y-61238311D01*
X144249286Y-60934378D01*
X143852668Y-60769687D01*
X143423216Y-60769313D01*
X143026311Y-60933311D01*
X142722378Y-61236714D01*
X142557687Y-61633332D01*
X142557313Y-62062784D01*
X142721311Y-62459689D01*
X143024714Y-62763622D01*
X143421332Y-62928313D01*
X143535400Y-62928412D01*
X143535400Y-63846102D01*
X143212330Y-64061971D01*
X143002000Y-64376752D01*
X142791670Y-64061971D01*
X142305489Y-63737115D01*
X141732000Y-63623041D01*
X141158511Y-63737115D01*
X140672330Y-64061971D01*
X140536002Y-64266000D01*
X139685579Y-64266000D01*
X138112651Y-62693071D01*
X138112687Y-62651216D01*
X137948689Y-62254311D01*
X137645286Y-61950378D01*
X137248668Y-61785687D01*
X136819216Y-61785313D01*
X136499600Y-61917376D01*
X136499600Y-56312110D01*
X140452874Y-52358836D01*
X140398687Y-52489332D01*
X140398687Y-52489332D01*
G37*
X140398687Y-52489332D02*
X140398313Y-52918784D01*
X140562311Y-53315689D01*
X140865714Y-53619622D01*
X141262332Y-53784313D01*
X141515824Y-53784534D01*
X147853400Y-60122110D01*
X147853400Y-64111520D01*
X147586947Y-63868312D01*
X147171026Y-63696042D01*
X146939000Y-63817183D01*
X146939000Y-65024000D01*
X146959000Y-65024000D01*
X146959000Y-65278000D01*
X146939000Y-65278000D01*
X146939000Y-65298000D01*
X146685000Y-65298000D01*
X146685000Y-65278000D01*
X146665000Y-65278000D01*
X146665000Y-65024000D01*
X146685000Y-65024000D01*
X146685000Y-63817183D01*
X146452974Y-63696042D01*
X146037053Y-63868312D01*
X145605179Y-64262510D01*
X145547664Y-64385228D01*
X145331670Y-64061971D01*
X145008600Y-63846102D01*
X145008600Y-62484000D01*
X144952530Y-62202115D01*
X144792855Y-61963145D01*
X144716468Y-61886758D01*
X144716687Y-61635216D01*
X144552689Y-61238311D01*
X144249286Y-60934378D01*
X143852668Y-60769687D01*
X143423216Y-60769313D01*
X143026311Y-60933311D01*
X142722378Y-61236714D01*
X142557687Y-61633332D01*
X142557313Y-62062784D01*
X142721311Y-62459689D01*
X143024714Y-62763622D01*
X143421332Y-62928313D01*
X143535400Y-62928412D01*
X143535400Y-63846102D01*
X143212330Y-64061971D01*
X143002000Y-64376752D01*
X142791670Y-64061971D01*
X142305489Y-63737115D01*
X141732000Y-63623041D01*
X141158511Y-63737115D01*
X140672330Y-64061971D01*
X140536002Y-64266000D01*
X139685579Y-64266000D01*
X138112651Y-62693071D01*
X138112687Y-62651216D01*
X137948689Y-62254311D01*
X137645286Y-61950378D01*
X137248668Y-61785687D01*
X136819216Y-61785313D01*
X136499600Y-61917376D01*
X136499600Y-56312110D01*
X140452874Y-52358836D01*
X140398687Y-52489332D01*
M02*
