M48
;DRILL file {KiCad 4.0.5-e0-6337~49~ubuntu16.04.1} date Tue Jan 17 08:23:42 2017
;FORMAT={-:-/ absolute / metric / decimal}
FMAT,2
METRIC,TZ
T1C0.300
T2C0.400
T3C1.000
T4C1.016
%
G90
G05
M71
T1
X108.585Y-63.627
X108.585Y-66.167
X108.585Y-68.707
X111.125Y-63.627
X111.125Y-66.167
X111.125Y-68.707
T2
X92.71Y-60.071
X97.282Y-66.802
X103.886Y-62.103
X105.791Y-65.913
X114.554Y-64.135
T3
X84.455Y-79.629
X86.995Y-79.629
X99.822Y-75.184
X99.822Y-77.724
T4
X84.163Y-54.445
X86.703Y-54.445
X89.243Y-54.445
X100.19Y-54.432
X102.73Y-54.432
X105.27Y-54.432
X127.698Y-54.661
T0
M30
