G04 #@! TF.FileFunction,Legend,Bot*
%FSLAX46Y46*%
G04 Gerber Fmt 4.6, Leading zero omitted, Abs format (unit mm)*
G04 Created by KiCad (PCBNEW 4.0.5-e0-6337~49~ubuntu16.04.1) date Tue Jan 17 08:20:09 2017*
%MOMM*%
%LPD*%
G01*
G04 APERTURE LIST*
%ADD10C,0.100000*%
%ADD11C,0.150000*%
G04 APERTURE END LIST*
D10*
D11*
X121154000Y-64818000D02*
X113654000Y-64818000D01*
X121154000Y-70818000D02*
X113654000Y-70818000D01*
X114699361Y-67818000D02*
G75*
G03X114699361Y-67818000I-11045361J0D01*
G01*
X121154000Y-64818000D02*
X121154000Y-70818000D01*
X93654000Y-70818000D02*
X86654000Y-70818000D01*
X86654000Y-70818000D02*
X86654000Y-64818000D01*
X86654000Y-64818000D02*
X93654000Y-64818000D01*
X91255110Y-63410286D02*
X90636062Y-63410286D01*
X90969396Y-63791238D01*
X90826538Y-63791238D01*
X90731300Y-63838857D01*
X90683681Y-63886476D01*
X90636062Y-63981715D01*
X90636062Y-64219810D01*
X90683681Y-64315048D01*
X90731300Y-64362667D01*
X90826538Y-64410286D01*
X91112253Y-64410286D01*
X91207491Y-64362667D01*
X91255110Y-64315048D01*
X90350348Y-63410286D02*
X90017015Y-64410286D01*
X89683681Y-63410286D01*
X89445586Y-63410286D02*
X88826538Y-63410286D01*
X89159872Y-63791238D01*
X89017014Y-63791238D01*
X88921776Y-63838857D01*
X88874157Y-63886476D01*
X88826538Y-63981715D01*
X88826538Y-64219810D01*
X88874157Y-64315048D01*
X88921776Y-64362667D01*
X89017014Y-64410286D01*
X89302729Y-64410286D01*
X89397967Y-64362667D01*
X89445586Y-64315048D01*
X105249238Y-66175143D02*
X105296857Y-66222762D01*
X105439714Y-66270381D01*
X105534952Y-66270381D01*
X105677810Y-66222762D01*
X105773048Y-66127524D01*
X105820667Y-66032286D01*
X105868286Y-65841810D01*
X105868286Y-65698952D01*
X105820667Y-65508476D01*
X105773048Y-65413238D01*
X105677810Y-65318000D01*
X105534952Y-65270381D01*
X105439714Y-65270381D01*
X105296857Y-65318000D01*
X105249238Y-65365619D01*
X104249238Y-66270381D02*
X104582572Y-65794190D01*
X104820667Y-66270381D02*
X104820667Y-65270381D01*
X104439714Y-65270381D01*
X104344476Y-65318000D01*
X104296857Y-65365619D01*
X104249238Y-65460857D01*
X104249238Y-65603714D01*
X104296857Y-65698952D01*
X104344476Y-65746571D01*
X104439714Y-65794190D01*
X104820667Y-65794190D01*
X103868286Y-65365619D02*
X103820667Y-65318000D01*
X103725429Y-65270381D01*
X103487333Y-65270381D01*
X103392095Y-65318000D01*
X103344476Y-65365619D01*
X103296857Y-65460857D01*
X103296857Y-65556095D01*
X103344476Y-65698952D01*
X103915905Y-66270381D01*
X103296857Y-66270381D01*
X102677810Y-65270381D02*
X102582571Y-65270381D01*
X102487333Y-65318000D01*
X102439714Y-65365619D01*
X102392095Y-65460857D01*
X102344476Y-65651333D01*
X102344476Y-65889429D01*
X102392095Y-66079905D01*
X102439714Y-66175143D01*
X102487333Y-66222762D01*
X102582571Y-66270381D01*
X102677810Y-66270381D01*
X102773048Y-66222762D01*
X102820667Y-66175143D01*
X102868286Y-66079905D01*
X102915905Y-65889429D01*
X102915905Y-65651333D01*
X102868286Y-65460857D01*
X102820667Y-65365619D01*
X102773048Y-65318000D01*
X102677810Y-65270381D01*
X102011143Y-65270381D02*
X101392095Y-65270381D01*
X101725429Y-65651333D01*
X101582571Y-65651333D01*
X101487333Y-65698952D01*
X101439714Y-65746571D01*
X101392095Y-65841810D01*
X101392095Y-66079905D01*
X101439714Y-66175143D01*
X101487333Y-66222762D01*
X101582571Y-66270381D01*
X101868286Y-66270381D01*
X101963524Y-66222762D01*
X102011143Y-66175143D01*
X101011143Y-65365619D02*
X100963524Y-65318000D01*
X100868286Y-65270381D01*
X100630190Y-65270381D01*
X100534952Y-65318000D01*
X100487333Y-65365619D01*
X100439714Y-65460857D01*
X100439714Y-65556095D01*
X100487333Y-65698952D01*
X101058762Y-66270381D01*
X100439714Y-66270381D01*
M02*
