G04 #@! TF.GenerationSoftware,KiCad,Pcbnew,no-vcs-found-7560~57~ubuntu16.04.1*
G04 #@! TF.CreationDate,2017-02-05T10:32:15+01:00*
G04 #@! TF.ProjectId,MultiUse_Battery_RFM69HCW,4D756C74695573655F42617474657279,rev?*
G04 #@! TF.FileFunction,Copper,L1,Top,Signal*
G04 #@! TF.FilePolarity,Positive*
%FSLAX46Y46*%
G04 Gerber Fmt 4.6, Leading zero omitted, Abs format (unit mm)*
G04 Created by KiCad (PCBNEW no-vcs-found-7560~57~ubuntu16.04.1) date Sun Feb  5 10:32:15 2017*
%MOMM*%
%LPD*%
G01*
G04 APERTURE LIST*
%ADD10C,0.100000*%
%ADD11R,0.550000X1.600000*%
%ADD12R,1.600000X0.550000*%
%ADD13R,2.235200X2.235200*%
%ADD14R,1.727200X2.032000*%
%ADD15O,1.727200X2.032000*%
%ADD16R,1.727200X1.727200*%
%ADD17O,1.727200X1.727200*%
%ADD18R,2.000000X1.700000*%
%ADD19R,2.000000X3.800000*%
%ADD20R,2.000000X1.500000*%
%ADD21R,2.000000X1.600000*%
%ADD22R,1.000000X3.000000*%
%ADD23R,1.700000X2.000000*%
%ADD24O,1.700000X1.700000*%
%ADD25R,1.700000X1.700000*%
%ADD26C,0.600000*%
%ADD27C,0.250000*%
%ADD28C,0.254000*%
G04 APERTURE END LIST*
D10*
D11*
X96895000Y-70671000D03*
X97695000Y-70671000D03*
X98495000Y-70671000D03*
X99295000Y-70671000D03*
X100095000Y-70671000D03*
X100895000Y-70671000D03*
X101695000Y-70671000D03*
X102495000Y-70671000D03*
D12*
X103945000Y-69221000D03*
X103945000Y-68421000D03*
X103945000Y-67621000D03*
X103945000Y-66821000D03*
X103945000Y-66021000D03*
X103945000Y-65221000D03*
X103945000Y-64421000D03*
X103945000Y-63621000D03*
D11*
X102495000Y-62171000D03*
X101695000Y-62171000D03*
X100895000Y-62171000D03*
X100095000Y-62171000D03*
X99295000Y-62171000D03*
X98495000Y-62171000D03*
X97695000Y-62171000D03*
X96895000Y-62171000D03*
D12*
X95445000Y-63621000D03*
X95445000Y-64421000D03*
X95445000Y-65221000D03*
X95445000Y-66021000D03*
X95445000Y-66821000D03*
X95445000Y-67621000D03*
X95445000Y-68421000D03*
X95445000Y-69221000D03*
D13*
X115697000Y-74930000D03*
D14*
X84162900Y-54444900D03*
D15*
X86702900Y-54444900D03*
X89242900Y-54444900D03*
D14*
X100190300Y-54432200D03*
D15*
X102730300Y-54432200D03*
X105270300Y-54432200D03*
D16*
X108585000Y-63627000D03*
D17*
X111125000Y-63627000D03*
X108585000Y-66167000D03*
X111125000Y-66167000D03*
X108585000Y-68707000D03*
X111125000Y-68707000D03*
D18*
X84360000Y-58293000D03*
X88360000Y-58293000D03*
X98711000Y-58293000D03*
X102711000Y-58293000D03*
D19*
X90780000Y-63627000D03*
D20*
X84480000Y-63627000D03*
X84480000Y-65927000D03*
X84480000Y-61327000D03*
D21*
X92043000Y-73279000D03*
X88043000Y-73279000D03*
X101505000Y-73406000D03*
X105505000Y-73406000D03*
D18*
X83852000Y-75819000D03*
X87852000Y-75819000D03*
X90710000Y-75819000D03*
X94710000Y-75819000D03*
D22*
X129682000Y-70865000D03*
X127682000Y-70865000D03*
X125682000Y-70865000D03*
X123682000Y-70865000D03*
X121682000Y-70865000D03*
X119682000Y-70865000D03*
X117682000Y-70865000D03*
X115682000Y-70865000D03*
X115682000Y-54865000D03*
X117682000Y-54865000D03*
X119682000Y-54865000D03*
X121682000Y-54865000D03*
X123682000Y-54865000D03*
X125682000Y-54865000D03*
X127682000Y-54865000D03*
X129682000Y-54865000D03*
D23*
X83820000Y-72739000D03*
X83820000Y-68739000D03*
D24*
X100457000Y-76327000D03*
D25*
X97917000Y-76327000D03*
D26*
X127635000Y-57404000D03*
X103886000Y-62103000D03*
X97282000Y-66802000D03*
X125095000Y-74041000D03*
X97155000Y-69088000D03*
X105918000Y-65532000D03*
X115570000Y-63627000D03*
D27*
X99295000Y-62171000D02*
X99295000Y-61233000D01*
X99295000Y-61233000D02*
X100584000Y-59944000D01*
X105270300Y-58559700D02*
X105270300Y-54432200D01*
X103886000Y-59944000D02*
X105270300Y-58559700D01*
X100584000Y-59944000D02*
X103886000Y-59944000D01*
X98495000Y-70671000D02*
X98495000Y-64573000D01*
X99295000Y-63773000D02*
X99295000Y-62171000D01*
X98495000Y-64573000D02*
X99295000Y-63773000D01*
X99822000Y-72517000D02*
X99949000Y-72390000D01*
X98495000Y-70671000D02*
X98495000Y-72517000D01*
X98495000Y-72517000D02*
X98552000Y-72517000D01*
X100095000Y-70671000D02*
X100095000Y-72244000D01*
X99822000Y-72517000D02*
X98552000Y-72517000D01*
X100095000Y-72244000D02*
X99949000Y-72390000D01*
X99949000Y-72390000D02*
X99822000Y-72517000D01*
X123682000Y-70865000D02*
X123682000Y-72660000D01*
X100076000Y-77851000D02*
X116586000Y-77851000D01*
X99187000Y-76962000D02*
X100076000Y-77851000D01*
X99187000Y-75438000D02*
X99187000Y-76962000D01*
X101219000Y-73406000D02*
X99187000Y-75438000D01*
X123682000Y-72660000D02*
X118491000Y-77851000D01*
X118491000Y-77851000D02*
X116586000Y-77851000D01*
X101505000Y-73406000D02*
X101219000Y-73406000D01*
X100895000Y-70671000D02*
X100895000Y-72796000D01*
X100895000Y-72796000D02*
X101505000Y-73406000D01*
X82804000Y-63500000D02*
X82804000Y-67723000D01*
X82804000Y-67723000D02*
X83820000Y-68739000D01*
X83566000Y-58293000D02*
X82804000Y-59055000D01*
X82931000Y-63627000D02*
X82804000Y-63500000D01*
X84480000Y-63627000D02*
X82931000Y-63627000D01*
X82804000Y-59055000D02*
X82804000Y-63500000D01*
X84360000Y-58293000D02*
X83566000Y-58293000D01*
X90780000Y-63627000D02*
X84480000Y-63627000D01*
X100895000Y-69723000D02*
X100895000Y-69526000D01*
X100895000Y-69526000D02*
X100584000Y-69215000D01*
X98711000Y-58293000D02*
X98711000Y-55911500D01*
X98711000Y-55911500D02*
X100190300Y-54432200D01*
X100895000Y-70671000D02*
X100895000Y-69723000D01*
X111125000Y-63627000D02*
X111125000Y-62357000D01*
X101695000Y-60992000D02*
X101695000Y-62171000D01*
X102108000Y-60579000D02*
X101695000Y-60992000D01*
X109347000Y-60579000D02*
X102108000Y-60579000D01*
X111125000Y-62357000D02*
X109347000Y-60579000D01*
X99295000Y-69215000D02*
X100584000Y-69215000D01*
X84162900Y-58737500D02*
X84150200Y-58724800D01*
X99295000Y-70671000D02*
X99295000Y-69215000D01*
X99295000Y-69215000D02*
X99295000Y-66694000D01*
X99295000Y-66694000D02*
X101695000Y-64294000D01*
X101695000Y-64294000D02*
X101695000Y-62171000D01*
X84150200Y-58724800D02*
X84150200Y-54457600D01*
X84150200Y-54457600D02*
X84162900Y-54444900D01*
X115682000Y-70865000D02*
X115682000Y-74915000D01*
X115682000Y-74915000D02*
X115697000Y-74930000D01*
X86702900Y-56762900D02*
X88360000Y-58420000D01*
X93091000Y-58420000D02*
X88360000Y-58420000D01*
X86702900Y-54444900D02*
X86702900Y-56762900D01*
X96895000Y-62171000D02*
X96842000Y-62171000D01*
X96842000Y-62171000D02*
X93091000Y-58420000D01*
X97695000Y-62171000D02*
X97695000Y-61309000D01*
X98933000Y-60071000D02*
X99441000Y-60071000D01*
X97695000Y-61309000D02*
X98933000Y-60071000D01*
X102711000Y-58293000D02*
X101346000Y-58293000D01*
X101346000Y-58293000D02*
X99568000Y-60071000D01*
X99568000Y-60071000D02*
X99441000Y-60071000D01*
X102730300Y-54432200D02*
X102730300Y-58273700D01*
X102730300Y-58273700D02*
X102711000Y-58293000D01*
X102584000Y-54578500D02*
X102730300Y-54432200D01*
X97663000Y-62139000D02*
X97695000Y-62171000D01*
X127682000Y-57357000D02*
X127682000Y-54865000D01*
X127635000Y-57404000D02*
X127682000Y-57357000D01*
X108585000Y-63627000D02*
X109093000Y-63627000D01*
X103945000Y-63621000D02*
X108579000Y-63621000D01*
X108579000Y-63621000D02*
X108585000Y-63627000D01*
X108579000Y-63621000D02*
X108585000Y-63627000D01*
X108585000Y-66167000D02*
X108966000Y-66167000D01*
X108966000Y-66167000D02*
X110236000Y-64897000D01*
X123682000Y-57547000D02*
X123682000Y-54865000D01*
X116332000Y-64897000D02*
X123682000Y-57547000D01*
X110236000Y-64897000D02*
X116332000Y-64897000D01*
X103818000Y-62171000D02*
X102495000Y-62171000D01*
X103886000Y-62103000D02*
X103818000Y-62171000D01*
X108585000Y-66167000D02*
X108635800Y-66167000D01*
X103945000Y-64421000D02*
X105950000Y-64421000D01*
X106807000Y-65278000D02*
X106807000Y-66294000D01*
X105950000Y-64421000D02*
X106807000Y-65278000D01*
X111125000Y-66167000D02*
X109855000Y-67437000D01*
X109855000Y-67437000D02*
X107950000Y-67437000D01*
X107950000Y-67437000D02*
X106807000Y-66294000D01*
X111125000Y-66167000D02*
X117094000Y-66167000D01*
X125682000Y-57579000D02*
X125682000Y-54865000D01*
X117094000Y-66167000D02*
X125682000Y-57579000D01*
X111125000Y-66167000D02*
X110363000Y-66167000D01*
X97263000Y-66821000D02*
X95445000Y-66821000D01*
X97282000Y-66802000D02*
X97263000Y-66821000D01*
X97022000Y-69221000D02*
X95445000Y-69221000D01*
X97155000Y-69088000D02*
X97022000Y-69221000D01*
X125682000Y-70865000D02*
X125682000Y-73454000D01*
X125682000Y-73454000D02*
X125095000Y-74041000D01*
X95451000Y-69215000D02*
X95445000Y-69221000D01*
X95451000Y-69215000D02*
X95445000Y-69221000D01*
X103945000Y-65221000D02*
X105607000Y-65221000D01*
X105607000Y-65221000D02*
X105918000Y-65532000D01*
X121682000Y-54865000D02*
X121682000Y-57515000D01*
X121682000Y-57515000D02*
X115570000Y-63627000D01*
X97917000Y-76327000D02*
X97663000Y-76327000D01*
X97663000Y-76327000D02*
X95758000Y-78232000D01*
X83852000Y-77121000D02*
X83852000Y-75819000D01*
X84963000Y-78232000D02*
X83852000Y-77121000D01*
X95758000Y-78232000D02*
X84963000Y-78232000D01*
X83820000Y-72739000D02*
X83820000Y-72263000D01*
X83820000Y-72263000D02*
X85725000Y-70358000D01*
X85725000Y-67172000D02*
X84480000Y-65927000D01*
X85725000Y-70358000D02*
X85725000Y-67172000D01*
X83852000Y-75819000D02*
X83852000Y-72771000D01*
X83852000Y-72771000D02*
X83820000Y-72739000D01*
X97917000Y-76327000D02*
X97790000Y-76327000D01*
X88043000Y-73279000D02*
X88043000Y-72231000D01*
X88043000Y-72231000D02*
X94253000Y-66021000D01*
X94253000Y-66021000D02*
X95445000Y-66021000D01*
X88043000Y-73279000D02*
X88043000Y-75628000D01*
X88043000Y-75628000D02*
X88234000Y-75819000D01*
X88234000Y-75819000D02*
X90710000Y-75819000D01*
D28*
G36*
X85643230Y-55689315D02*
X85942900Y-55889548D01*
X85942900Y-56762900D01*
X86000752Y-57053739D01*
X86165499Y-57300301D01*
X86712560Y-57847362D01*
X86712560Y-59143000D01*
X86761843Y-59390765D01*
X86902191Y-59600809D01*
X87112235Y-59741157D01*
X87360000Y-59790440D01*
X89360000Y-59790440D01*
X89607765Y-59741157D01*
X89817809Y-59600809D01*
X89958157Y-59390765D01*
X90000080Y-59180000D01*
X92776198Y-59180000D01*
X95972560Y-62376362D01*
X95972560Y-62698560D01*
X94645000Y-62698560D01*
X94397235Y-62747843D01*
X94187191Y-62888191D01*
X94046843Y-63098235D01*
X93997560Y-63346000D01*
X93997560Y-63896000D01*
X94022424Y-64021000D01*
X93997560Y-64146000D01*
X93997560Y-64696000D01*
X94022424Y-64821000D01*
X93997560Y-64946000D01*
X93997560Y-65311810D01*
X93962160Y-65318852D01*
X93715599Y-65483599D01*
X87505599Y-71693599D01*
X87413417Y-71831560D01*
X87043000Y-71831560D01*
X86795235Y-71880843D01*
X86585191Y-72021191D01*
X86444843Y-72231235D01*
X86395560Y-72479000D01*
X86395560Y-74079000D01*
X86444843Y-74326765D01*
X86514403Y-74430868D01*
X86394191Y-74511191D01*
X86253843Y-74721235D01*
X86204560Y-74969000D01*
X86204560Y-76669000D01*
X86253843Y-76916765D01*
X86394191Y-77126809D01*
X86604235Y-77267157D01*
X86852000Y-77316440D01*
X88852000Y-77316440D01*
X89099765Y-77267157D01*
X89281000Y-77146059D01*
X89462235Y-77267157D01*
X89710000Y-77316440D01*
X91710000Y-77316440D01*
X91957765Y-77267157D01*
X92167809Y-77126809D01*
X92308157Y-76916765D01*
X92357440Y-76669000D01*
X92357440Y-76104750D01*
X93075000Y-76104750D01*
X93075000Y-76795310D01*
X93171673Y-77028699D01*
X93350302Y-77207327D01*
X93583691Y-77304000D01*
X94424250Y-77304000D01*
X94583000Y-77145250D01*
X94583000Y-75946000D01*
X93233750Y-75946000D01*
X93075000Y-76104750D01*
X92357440Y-76104750D01*
X92357440Y-74969000D01*
X92308157Y-74721235D01*
X92252119Y-74637369D01*
X92328750Y-74714000D01*
X93128305Y-74714000D01*
X93075000Y-74842690D01*
X93075000Y-75533250D01*
X93233750Y-75692000D01*
X94583000Y-75692000D01*
X94583000Y-74492750D01*
X94837000Y-74492750D01*
X94837000Y-75692000D01*
X96186250Y-75692000D01*
X96345000Y-75533250D01*
X96345000Y-74842690D01*
X96248327Y-74609301D01*
X96069698Y-74430673D01*
X95836309Y-74334000D01*
X94995750Y-74334000D01*
X94837000Y-74492750D01*
X94583000Y-74492750D01*
X94424250Y-74334000D01*
X93624695Y-74334000D01*
X93678000Y-74205310D01*
X93678000Y-73564750D01*
X93519250Y-73406000D01*
X92170000Y-73406000D01*
X92170000Y-73426000D01*
X91916000Y-73426000D01*
X91916000Y-73406000D01*
X90566750Y-73406000D01*
X90408000Y-73564750D01*
X90408000Y-74205310D01*
X90456152Y-74321560D01*
X89710000Y-74321560D01*
X89634616Y-74336555D01*
X89641157Y-74326765D01*
X89690440Y-74079000D01*
X89690440Y-72479000D01*
X89665316Y-72352690D01*
X90408000Y-72352690D01*
X90408000Y-72993250D01*
X90566750Y-73152000D01*
X91916000Y-73152000D01*
X91916000Y-72002750D01*
X92170000Y-72002750D01*
X92170000Y-73152000D01*
X93519250Y-73152000D01*
X93678000Y-72993250D01*
X93678000Y-72352690D01*
X93581327Y-72119301D01*
X93402698Y-71940673D01*
X93169309Y-71844000D01*
X92328750Y-71844000D01*
X92170000Y-72002750D01*
X91916000Y-72002750D01*
X91757250Y-71844000D01*
X90916691Y-71844000D01*
X90683302Y-71940673D01*
X90504673Y-72119301D01*
X90408000Y-72352690D01*
X89665316Y-72352690D01*
X89641157Y-72231235D01*
X89500809Y-72021191D01*
X89396985Y-71951817D01*
X93997560Y-67351242D01*
X93997560Y-67896000D01*
X94022424Y-68021000D01*
X93997560Y-68146000D01*
X93997560Y-68696000D01*
X94022424Y-68821000D01*
X93997560Y-68946000D01*
X93997560Y-69496000D01*
X94046843Y-69743765D01*
X94187191Y-69953809D01*
X94397235Y-70094157D01*
X94645000Y-70143440D01*
X95972560Y-70143440D01*
X95972560Y-71471000D01*
X96021843Y-71718765D01*
X96162191Y-71928809D01*
X96372235Y-72069157D01*
X96620000Y-72118440D01*
X97170000Y-72118440D01*
X97295000Y-72093576D01*
X97420000Y-72118440D01*
X97970000Y-72118440D01*
X98073852Y-72097783D01*
X98093690Y-72106000D01*
X98209250Y-72106000D01*
X98303138Y-72012112D01*
X98427809Y-71928809D01*
X98495000Y-71828251D01*
X98562191Y-71928809D01*
X98686862Y-72012112D01*
X98780750Y-72106000D01*
X98896310Y-72106000D01*
X98916148Y-72097783D01*
X99020000Y-72118440D01*
X99570000Y-72118440D01*
X99673852Y-72097783D01*
X99693690Y-72106000D01*
X99809250Y-72106000D01*
X99903138Y-72012112D01*
X100027809Y-71928809D01*
X100095000Y-71828251D01*
X100135000Y-71888115D01*
X100135000Y-72089518D01*
X100047191Y-72148191D01*
X99906843Y-72358235D01*
X99857560Y-72606000D01*
X99857560Y-73692638D01*
X98720638Y-74829560D01*
X97067000Y-74829560D01*
X96819235Y-74878843D01*
X96609191Y-75019191D01*
X96468843Y-75229235D01*
X96419560Y-75477000D01*
X96419560Y-76495638D01*
X96345000Y-76570198D01*
X96345000Y-76104750D01*
X96186250Y-75946000D01*
X94837000Y-75946000D01*
X94837000Y-77145250D01*
X94995750Y-77304000D01*
X95611198Y-77304000D01*
X95443198Y-77472000D01*
X85277802Y-77472000D01*
X85077406Y-77271604D01*
X85099765Y-77267157D01*
X85309809Y-77126809D01*
X85450157Y-76916765D01*
X85499440Y-76669000D01*
X85499440Y-74969000D01*
X85450157Y-74721235D01*
X85309809Y-74511191D01*
X85099765Y-74370843D01*
X84920666Y-74335218D01*
X85127809Y-74196809D01*
X85268157Y-73986765D01*
X85317440Y-73739000D01*
X85317440Y-71840362D01*
X86262401Y-70895401D01*
X86427148Y-70648839D01*
X86485000Y-70358000D01*
X86485000Y-67172000D01*
X86427148Y-66881161D01*
X86262401Y-66634599D01*
X86127440Y-66499638D01*
X86127440Y-65177000D01*
X86078157Y-64929235D01*
X85976436Y-64777000D01*
X86078157Y-64624765D01*
X86125451Y-64387000D01*
X89132560Y-64387000D01*
X89132560Y-65527000D01*
X89181843Y-65774765D01*
X89322191Y-65984809D01*
X89532235Y-66125157D01*
X89780000Y-66174440D01*
X91780000Y-66174440D01*
X92027765Y-66125157D01*
X92237809Y-65984809D01*
X92378157Y-65774765D01*
X92427440Y-65527000D01*
X92427440Y-61727000D01*
X92378157Y-61479235D01*
X92237809Y-61269191D01*
X92027765Y-61128843D01*
X91780000Y-61079560D01*
X89780000Y-61079560D01*
X89532235Y-61128843D01*
X89322191Y-61269191D01*
X89181843Y-61479235D01*
X89132560Y-61727000D01*
X89132560Y-62867000D01*
X86125451Y-62867000D01*
X86078157Y-62629235D01*
X85977073Y-62477953D01*
X86018327Y-62436699D01*
X86115000Y-62203310D01*
X86115000Y-61612750D01*
X85956250Y-61454000D01*
X84607000Y-61454000D01*
X84607000Y-61474000D01*
X84353000Y-61474000D01*
X84353000Y-61454000D01*
X84333000Y-61454000D01*
X84333000Y-61200000D01*
X84353000Y-61200000D01*
X84353000Y-60100750D01*
X84607000Y-60100750D01*
X84607000Y-61200000D01*
X85956250Y-61200000D01*
X86115000Y-61041250D01*
X86115000Y-60450690D01*
X86018327Y-60217301D01*
X85839698Y-60038673D01*
X85606309Y-59942000D01*
X84765750Y-59942000D01*
X84607000Y-60100750D01*
X84353000Y-60100750D01*
X84194250Y-59942000D01*
X83564000Y-59942000D01*
X83564000Y-59790440D01*
X85360000Y-59790440D01*
X85607765Y-59741157D01*
X85817809Y-59600809D01*
X85958157Y-59390765D01*
X86007440Y-59143000D01*
X86007440Y-57443000D01*
X85958157Y-57195235D01*
X85817809Y-56985191D01*
X85607765Y-56844843D01*
X85360000Y-56795560D01*
X84910200Y-56795560D01*
X84910200Y-56108340D01*
X85026500Y-56108340D01*
X85274265Y-56059057D01*
X85484309Y-55918709D01*
X85624657Y-55708665D01*
X85631884Y-55672334D01*
X85643230Y-55689315D01*
X85643230Y-55689315D01*
G37*
X85643230Y-55689315D02*
X85942900Y-55889548D01*
X85942900Y-56762900D01*
X86000752Y-57053739D01*
X86165499Y-57300301D01*
X86712560Y-57847362D01*
X86712560Y-59143000D01*
X86761843Y-59390765D01*
X86902191Y-59600809D01*
X87112235Y-59741157D01*
X87360000Y-59790440D01*
X89360000Y-59790440D01*
X89607765Y-59741157D01*
X89817809Y-59600809D01*
X89958157Y-59390765D01*
X90000080Y-59180000D01*
X92776198Y-59180000D01*
X95972560Y-62376362D01*
X95972560Y-62698560D01*
X94645000Y-62698560D01*
X94397235Y-62747843D01*
X94187191Y-62888191D01*
X94046843Y-63098235D01*
X93997560Y-63346000D01*
X93997560Y-63896000D01*
X94022424Y-64021000D01*
X93997560Y-64146000D01*
X93997560Y-64696000D01*
X94022424Y-64821000D01*
X93997560Y-64946000D01*
X93997560Y-65311810D01*
X93962160Y-65318852D01*
X93715599Y-65483599D01*
X87505599Y-71693599D01*
X87413417Y-71831560D01*
X87043000Y-71831560D01*
X86795235Y-71880843D01*
X86585191Y-72021191D01*
X86444843Y-72231235D01*
X86395560Y-72479000D01*
X86395560Y-74079000D01*
X86444843Y-74326765D01*
X86514403Y-74430868D01*
X86394191Y-74511191D01*
X86253843Y-74721235D01*
X86204560Y-74969000D01*
X86204560Y-76669000D01*
X86253843Y-76916765D01*
X86394191Y-77126809D01*
X86604235Y-77267157D01*
X86852000Y-77316440D01*
X88852000Y-77316440D01*
X89099765Y-77267157D01*
X89281000Y-77146059D01*
X89462235Y-77267157D01*
X89710000Y-77316440D01*
X91710000Y-77316440D01*
X91957765Y-77267157D01*
X92167809Y-77126809D01*
X92308157Y-76916765D01*
X92357440Y-76669000D01*
X92357440Y-76104750D01*
X93075000Y-76104750D01*
X93075000Y-76795310D01*
X93171673Y-77028699D01*
X93350302Y-77207327D01*
X93583691Y-77304000D01*
X94424250Y-77304000D01*
X94583000Y-77145250D01*
X94583000Y-75946000D01*
X93233750Y-75946000D01*
X93075000Y-76104750D01*
X92357440Y-76104750D01*
X92357440Y-74969000D01*
X92308157Y-74721235D01*
X92252119Y-74637369D01*
X92328750Y-74714000D01*
X93128305Y-74714000D01*
X93075000Y-74842690D01*
X93075000Y-75533250D01*
X93233750Y-75692000D01*
X94583000Y-75692000D01*
X94583000Y-74492750D01*
X94837000Y-74492750D01*
X94837000Y-75692000D01*
X96186250Y-75692000D01*
X96345000Y-75533250D01*
X96345000Y-74842690D01*
X96248327Y-74609301D01*
X96069698Y-74430673D01*
X95836309Y-74334000D01*
X94995750Y-74334000D01*
X94837000Y-74492750D01*
X94583000Y-74492750D01*
X94424250Y-74334000D01*
X93624695Y-74334000D01*
X93678000Y-74205310D01*
X93678000Y-73564750D01*
X93519250Y-73406000D01*
X92170000Y-73406000D01*
X92170000Y-73426000D01*
X91916000Y-73426000D01*
X91916000Y-73406000D01*
X90566750Y-73406000D01*
X90408000Y-73564750D01*
X90408000Y-74205310D01*
X90456152Y-74321560D01*
X89710000Y-74321560D01*
X89634616Y-74336555D01*
X89641157Y-74326765D01*
X89690440Y-74079000D01*
X89690440Y-72479000D01*
X89665316Y-72352690D01*
X90408000Y-72352690D01*
X90408000Y-72993250D01*
X90566750Y-73152000D01*
X91916000Y-73152000D01*
X91916000Y-72002750D01*
X92170000Y-72002750D01*
X92170000Y-73152000D01*
X93519250Y-73152000D01*
X93678000Y-72993250D01*
X93678000Y-72352690D01*
X93581327Y-72119301D01*
X93402698Y-71940673D01*
X93169309Y-71844000D01*
X92328750Y-71844000D01*
X92170000Y-72002750D01*
X91916000Y-72002750D01*
X91757250Y-71844000D01*
X90916691Y-71844000D01*
X90683302Y-71940673D01*
X90504673Y-72119301D01*
X90408000Y-72352690D01*
X89665316Y-72352690D01*
X89641157Y-72231235D01*
X89500809Y-72021191D01*
X89396985Y-71951817D01*
X93997560Y-67351242D01*
X93997560Y-67896000D01*
X94022424Y-68021000D01*
X93997560Y-68146000D01*
X93997560Y-68696000D01*
X94022424Y-68821000D01*
X93997560Y-68946000D01*
X93997560Y-69496000D01*
X94046843Y-69743765D01*
X94187191Y-69953809D01*
X94397235Y-70094157D01*
X94645000Y-70143440D01*
X95972560Y-70143440D01*
X95972560Y-71471000D01*
X96021843Y-71718765D01*
X96162191Y-71928809D01*
X96372235Y-72069157D01*
X96620000Y-72118440D01*
X97170000Y-72118440D01*
X97295000Y-72093576D01*
X97420000Y-72118440D01*
X97970000Y-72118440D01*
X98073852Y-72097783D01*
X98093690Y-72106000D01*
X98209250Y-72106000D01*
X98303138Y-72012112D01*
X98427809Y-71928809D01*
X98495000Y-71828251D01*
X98562191Y-71928809D01*
X98686862Y-72012112D01*
X98780750Y-72106000D01*
X98896310Y-72106000D01*
X98916148Y-72097783D01*
X99020000Y-72118440D01*
X99570000Y-72118440D01*
X99673852Y-72097783D01*
X99693690Y-72106000D01*
X99809250Y-72106000D01*
X99903138Y-72012112D01*
X100027809Y-71928809D01*
X100095000Y-71828251D01*
X100135000Y-71888115D01*
X100135000Y-72089518D01*
X100047191Y-72148191D01*
X99906843Y-72358235D01*
X99857560Y-72606000D01*
X99857560Y-73692638D01*
X98720638Y-74829560D01*
X97067000Y-74829560D01*
X96819235Y-74878843D01*
X96609191Y-75019191D01*
X96468843Y-75229235D01*
X96419560Y-75477000D01*
X96419560Y-76495638D01*
X96345000Y-76570198D01*
X96345000Y-76104750D01*
X96186250Y-75946000D01*
X94837000Y-75946000D01*
X94837000Y-77145250D01*
X94995750Y-77304000D01*
X95611198Y-77304000D01*
X95443198Y-77472000D01*
X85277802Y-77472000D01*
X85077406Y-77271604D01*
X85099765Y-77267157D01*
X85309809Y-77126809D01*
X85450157Y-76916765D01*
X85499440Y-76669000D01*
X85499440Y-74969000D01*
X85450157Y-74721235D01*
X85309809Y-74511191D01*
X85099765Y-74370843D01*
X84920666Y-74335218D01*
X85127809Y-74196809D01*
X85268157Y-73986765D01*
X85317440Y-73739000D01*
X85317440Y-71840362D01*
X86262401Y-70895401D01*
X86427148Y-70648839D01*
X86485000Y-70358000D01*
X86485000Y-67172000D01*
X86427148Y-66881161D01*
X86262401Y-66634599D01*
X86127440Y-66499638D01*
X86127440Y-65177000D01*
X86078157Y-64929235D01*
X85976436Y-64777000D01*
X86078157Y-64624765D01*
X86125451Y-64387000D01*
X89132560Y-64387000D01*
X89132560Y-65527000D01*
X89181843Y-65774765D01*
X89322191Y-65984809D01*
X89532235Y-66125157D01*
X89780000Y-66174440D01*
X91780000Y-66174440D01*
X92027765Y-66125157D01*
X92237809Y-65984809D01*
X92378157Y-65774765D01*
X92427440Y-65527000D01*
X92427440Y-61727000D01*
X92378157Y-61479235D01*
X92237809Y-61269191D01*
X92027765Y-61128843D01*
X91780000Y-61079560D01*
X89780000Y-61079560D01*
X89532235Y-61128843D01*
X89322191Y-61269191D01*
X89181843Y-61479235D01*
X89132560Y-61727000D01*
X89132560Y-62867000D01*
X86125451Y-62867000D01*
X86078157Y-62629235D01*
X85977073Y-62477953D01*
X86018327Y-62436699D01*
X86115000Y-62203310D01*
X86115000Y-61612750D01*
X85956250Y-61454000D01*
X84607000Y-61454000D01*
X84607000Y-61474000D01*
X84353000Y-61474000D01*
X84353000Y-61454000D01*
X84333000Y-61454000D01*
X84333000Y-61200000D01*
X84353000Y-61200000D01*
X84353000Y-60100750D01*
X84607000Y-60100750D01*
X84607000Y-61200000D01*
X85956250Y-61200000D01*
X86115000Y-61041250D01*
X86115000Y-60450690D01*
X86018327Y-60217301D01*
X85839698Y-60038673D01*
X85606309Y-59942000D01*
X84765750Y-59942000D01*
X84607000Y-60100750D01*
X84353000Y-60100750D01*
X84194250Y-59942000D01*
X83564000Y-59942000D01*
X83564000Y-59790440D01*
X85360000Y-59790440D01*
X85607765Y-59741157D01*
X85817809Y-59600809D01*
X85958157Y-59390765D01*
X86007440Y-59143000D01*
X86007440Y-57443000D01*
X85958157Y-57195235D01*
X85817809Y-56985191D01*
X85607765Y-56844843D01*
X85360000Y-56795560D01*
X84910200Y-56795560D01*
X84910200Y-56108340D01*
X85026500Y-56108340D01*
X85274265Y-56059057D01*
X85484309Y-55918709D01*
X85624657Y-55708665D01*
X85631884Y-55672334D01*
X85643230Y-55689315D01*
G36*
X129809000Y-54738000D02*
X129829000Y-54738000D01*
X129829000Y-54992000D01*
X129809000Y-54992000D01*
X129809000Y-56841250D01*
X129967750Y-57000000D01*
X130290000Y-57000000D01*
X130290000Y-68739042D01*
X130182000Y-68717560D01*
X129182000Y-68717560D01*
X128934235Y-68766843D01*
X128724191Y-68907191D01*
X128682000Y-68970334D01*
X128639809Y-68907191D01*
X128429765Y-68766843D01*
X128182000Y-68717560D01*
X127182000Y-68717560D01*
X126934235Y-68766843D01*
X126724191Y-68907191D01*
X126682000Y-68970334D01*
X126639809Y-68907191D01*
X126429765Y-68766843D01*
X126182000Y-68717560D01*
X125182000Y-68717560D01*
X124934235Y-68766843D01*
X124724191Y-68907191D01*
X124682000Y-68970334D01*
X124639809Y-68907191D01*
X124429765Y-68766843D01*
X124182000Y-68717560D01*
X123182000Y-68717560D01*
X122934235Y-68766843D01*
X122724191Y-68907191D01*
X122682000Y-68970334D01*
X122639809Y-68907191D01*
X122429765Y-68766843D01*
X122182000Y-68717560D01*
X121182000Y-68717560D01*
X120934235Y-68766843D01*
X120724191Y-68907191D01*
X120682000Y-68970334D01*
X120639809Y-68907191D01*
X120429765Y-68766843D01*
X120182000Y-68717560D01*
X119182000Y-68717560D01*
X118934235Y-68766843D01*
X118724191Y-68907191D01*
X118683345Y-68968320D01*
X118541699Y-68826673D01*
X118308310Y-68730000D01*
X117967750Y-68730000D01*
X117809000Y-68888750D01*
X117809000Y-70738000D01*
X117829000Y-70738000D01*
X117829000Y-70992000D01*
X117809000Y-70992000D01*
X117809000Y-72841250D01*
X117967750Y-73000000D01*
X118308310Y-73000000D01*
X118541699Y-72903327D01*
X118683345Y-72761680D01*
X118724191Y-72822809D01*
X118934235Y-72963157D01*
X119182000Y-73012440D01*
X120182000Y-73012440D01*
X120429765Y-72963157D01*
X120639809Y-72822809D01*
X120682000Y-72759666D01*
X120724191Y-72822809D01*
X120934235Y-72963157D01*
X121182000Y-73012440D01*
X122182000Y-73012440D01*
X122272824Y-72994374D01*
X118176198Y-77091000D01*
X101707297Y-77091000D01*
X101898486Y-76683892D01*
X101777819Y-76454000D01*
X100584000Y-76454000D01*
X100584000Y-76474000D01*
X100330000Y-76474000D01*
X100330000Y-76454000D01*
X100310000Y-76454000D01*
X100310000Y-76200000D01*
X100330000Y-76200000D01*
X100330000Y-76180000D01*
X100584000Y-76180000D01*
X100584000Y-76200000D01*
X101777819Y-76200000D01*
X101898486Y-75970108D01*
X101652183Y-75445642D01*
X101223924Y-75055355D01*
X100814164Y-74885638D01*
X100846362Y-74853440D01*
X102505000Y-74853440D01*
X102752765Y-74804157D01*
X102962809Y-74663809D01*
X103103157Y-74453765D01*
X103152440Y-74206000D01*
X103152440Y-73691750D01*
X103870000Y-73691750D01*
X103870000Y-74332310D01*
X103966673Y-74565699D01*
X104145302Y-74744327D01*
X104378691Y-74841000D01*
X105219250Y-74841000D01*
X105378000Y-74682250D01*
X105378000Y-73533000D01*
X105632000Y-73533000D01*
X105632000Y-74682250D01*
X105790750Y-74841000D01*
X106631309Y-74841000D01*
X106864698Y-74744327D01*
X107043327Y-74565699D01*
X107140000Y-74332310D01*
X107140000Y-73812400D01*
X113931960Y-73812400D01*
X113931960Y-76047600D01*
X113981243Y-76295365D01*
X114121591Y-76505409D01*
X114331635Y-76645757D01*
X114579400Y-76695040D01*
X116814600Y-76695040D01*
X117062365Y-76645757D01*
X117272409Y-76505409D01*
X117412757Y-76295365D01*
X117462040Y-76047600D01*
X117462040Y-73812400D01*
X117412757Y-73564635D01*
X117272409Y-73354591D01*
X117062365Y-73214243D01*
X116814600Y-73164960D01*
X116442000Y-73164960D01*
X116442000Y-72954982D01*
X116639809Y-72822809D01*
X116680655Y-72761680D01*
X116822301Y-72903327D01*
X117055690Y-73000000D01*
X117396250Y-73000000D01*
X117555000Y-72841250D01*
X117555000Y-70992000D01*
X117535000Y-70992000D01*
X117535000Y-70738000D01*
X117555000Y-70738000D01*
X117555000Y-68888750D01*
X117396250Y-68730000D01*
X117055690Y-68730000D01*
X116822301Y-68826673D01*
X116680655Y-68968320D01*
X116639809Y-68907191D01*
X116429765Y-68766843D01*
X116182000Y-68717560D01*
X115182000Y-68717560D01*
X114934235Y-68766843D01*
X114724191Y-68907191D01*
X114583843Y-69117235D01*
X114534560Y-69365000D01*
X114534560Y-72365000D01*
X114583843Y-72612765D01*
X114724191Y-72822809D01*
X114922000Y-72954982D01*
X114922000Y-73164960D01*
X114579400Y-73164960D01*
X114331635Y-73214243D01*
X114121591Y-73354591D01*
X113981243Y-73564635D01*
X113931960Y-73812400D01*
X107140000Y-73812400D01*
X107140000Y-73691750D01*
X106981250Y-73533000D01*
X105632000Y-73533000D01*
X105378000Y-73533000D01*
X104028750Y-73533000D01*
X103870000Y-73691750D01*
X103152440Y-73691750D01*
X103152440Y-72606000D01*
X103127316Y-72479690D01*
X103870000Y-72479690D01*
X103870000Y-73120250D01*
X104028750Y-73279000D01*
X105378000Y-73279000D01*
X105378000Y-72129750D01*
X105632000Y-72129750D01*
X105632000Y-73279000D01*
X106981250Y-73279000D01*
X107140000Y-73120250D01*
X107140000Y-72479690D01*
X107043327Y-72246301D01*
X106864698Y-72067673D01*
X106631309Y-71971000D01*
X105790750Y-71971000D01*
X105632000Y-72129750D01*
X105378000Y-72129750D01*
X105219250Y-71971000D01*
X104378691Y-71971000D01*
X104145302Y-72067673D01*
X103966673Y-72246301D01*
X103870000Y-72479690D01*
X103127316Y-72479690D01*
X103103157Y-72358235D01*
X102962809Y-72148191D01*
X102884268Y-72095711D01*
X103017765Y-72069157D01*
X103227809Y-71928809D01*
X103368157Y-71718765D01*
X103417440Y-71471000D01*
X103417440Y-70143440D01*
X104745000Y-70143440D01*
X104992765Y-70094157D01*
X105202809Y-69953809D01*
X105343157Y-69743765D01*
X105392440Y-69496000D01*
X105392440Y-68946000D01*
X105367576Y-68821000D01*
X105392440Y-68696000D01*
X105392440Y-68146000D01*
X105367576Y-68021000D01*
X105392440Y-67896000D01*
X105392440Y-67346000D01*
X105367576Y-67221000D01*
X105392440Y-67096000D01*
X105392440Y-66546000D01*
X105367576Y-66421000D01*
X105386972Y-66323490D01*
X105387673Y-66324192D01*
X105731201Y-66466838D01*
X106081441Y-66467143D01*
X106104852Y-66584839D01*
X106269599Y-66831401D01*
X107331571Y-67893373D01*
X107171115Y-68133511D01*
X107057041Y-68707000D01*
X107171115Y-69280489D01*
X107495971Y-69766670D01*
X107982152Y-70091526D01*
X108555641Y-70205600D01*
X108614359Y-70205600D01*
X109187848Y-70091526D01*
X109674029Y-69766670D01*
X109854992Y-69495839D01*
X110236510Y-69913821D01*
X110765973Y-70161968D01*
X110998000Y-70041469D01*
X110998000Y-68834000D01*
X111252000Y-68834000D01*
X111252000Y-70041469D01*
X111484027Y-70161968D01*
X112013490Y-69913821D01*
X112407688Y-69481947D01*
X112579958Y-69066026D01*
X112458817Y-68834000D01*
X111252000Y-68834000D01*
X110998000Y-68834000D01*
X110978000Y-68834000D01*
X110978000Y-68580000D01*
X110998000Y-68580000D01*
X110998000Y-68560000D01*
X111252000Y-68560000D01*
X111252000Y-68580000D01*
X112458817Y-68580000D01*
X112579958Y-68347974D01*
X112407688Y-67932053D01*
X112013490Y-67500179D01*
X111890772Y-67442664D01*
X112214029Y-67226670D01*
X112414262Y-66927000D01*
X117094000Y-66927000D01*
X117384839Y-66869148D01*
X117631401Y-66704401D01*
X126219401Y-58116401D01*
X126384148Y-57869839D01*
X126442000Y-57579000D01*
X126442000Y-56954982D01*
X126639809Y-56822809D01*
X126682000Y-56759666D01*
X126724191Y-56822809D01*
X126833579Y-56895900D01*
X126700162Y-57217201D01*
X126699838Y-57589167D01*
X126841883Y-57932943D01*
X127104673Y-58196192D01*
X127448201Y-58338838D01*
X127820167Y-58339162D01*
X128163943Y-58197117D01*
X128427192Y-57934327D01*
X128569838Y-57590799D01*
X128570162Y-57218833D01*
X128457000Y-56944959D01*
X128639809Y-56822809D01*
X128680655Y-56761680D01*
X128822301Y-56903327D01*
X129055690Y-57000000D01*
X129396250Y-57000000D01*
X129555000Y-56841250D01*
X129555000Y-54992000D01*
X129535000Y-54992000D01*
X129535000Y-54738000D01*
X129555000Y-54738000D01*
X129555000Y-54718000D01*
X129809000Y-54718000D01*
X129809000Y-54738000D01*
X129809000Y-54738000D01*
G37*
X129809000Y-54738000D02*
X129829000Y-54738000D01*
X129829000Y-54992000D01*
X129809000Y-54992000D01*
X129809000Y-56841250D01*
X129967750Y-57000000D01*
X130290000Y-57000000D01*
X130290000Y-68739042D01*
X130182000Y-68717560D01*
X129182000Y-68717560D01*
X128934235Y-68766843D01*
X128724191Y-68907191D01*
X128682000Y-68970334D01*
X128639809Y-68907191D01*
X128429765Y-68766843D01*
X128182000Y-68717560D01*
X127182000Y-68717560D01*
X126934235Y-68766843D01*
X126724191Y-68907191D01*
X126682000Y-68970334D01*
X126639809Y-68907191D01*
X126429765Y-68766843D01*
X126182000Y-68717560D01*
X125182000Y-68717560D01*
X124934235Y-68766843D01*
X124724191Y-68907191D01*
X124682000Y-68970334D01*
X124639809Y-68907191D01*
X124429765Y-68766843D01*
X124182000Y-68717560D01*
X123182000Y-68717560D01*
X122934235Y-68766843D01*
X122724191Y-68907191D01*
X122682000Y-68970334D01*
X122639809Y-68907191D01*
X122429765Y-68766843D01*
X122182000Y-68717560D01*
X121182000Y-68717560D01*
X120934235Y-68766843D01*
X120724191Y-68907191D01*
X120682000Y-68970334D01*
X120639809Y-68907191D01*
X120429765Y-68766843D01*
X120182000Y-68717560D01*
X119182000Y-68717560D01*
X118934235Y-68766843D01*
X118724191Y-68907191D01*
X118683345Y-68968320D01*
X118541699Y-68826673D01*
X118308310Y-68730000D01*
X117967750Y-68730000D01*
X117809000Y-68888750D01*
X117809000Y-70738000D01*
X117829000Y-70738000D01*
X117829000Y-70992000D01*
X117809000Y-70992000D01*
X117809000Y-72841250D01*
X117967750Y-73000000D01*
X118308310Y-73000000D01*
X118541699Y-72903327D01*
X118683345Y-72761680D01*
X118724191Y-72822809D01*
X118934235Y-72963157D01*
X119182000Y-73012440D01*
X120182000Y-73012440D01*
X120429765Y-72963157D01*
X120639809Y-72822809D01*
X120682000Y-72759666D01*
X120724191Y-72822809D01*
X120934235Y-72963157D01*
X121182000Y-73012440D01*
X122182000Y-73012440D01*
X122272824Y-72994374D01*
X118176198Y-77091000D01*
X101707297Y-77091000D01*
X101898486Y-76683892D01*
X101777819Y-76454000D01*
X100584000Y-76454000D01*
X100584000Y-76474000D01*
X100330000Y-76474000D01*
X100330000Y-76454000D01*
X100310000Y-76454000D01*
X100310000Y-76200000D01*
X100330000Y-76200000D01*
X100330000Y-76180000D01*
X100584000Y-76180000D01*
X100584000Y-76200000D01*
X101777819Y-76200000D01*
X101898486Y-75970108D01*
X101652183Y-75445642D01*
X101223924Y-75055355D01*
X100814164Y-74885638D01*
X100846362Y-74853440D01*
X102505000Y-74853440D01*
X102752765Y-74804157D01*
X102962809Y-74663809D01*
X103103157Y-74453765D01*
X103152440Y-74206000D01*
X103152440Y-73691750D01*
X103870000Y-73691750D01*
X103870000Y-74332310D01*
X103966673Y-74565699D01*
X104145302Y-74744327D01*
X104378691Y-74841000D01*
X105219250Y-74841000D01*
X105378000Y-74682250D01*
X105378000Y-73533000D01*
X105632000Y-73533000D01*
X105632000Y-74682250D01*
X105790750Y-74841000D01*
X106631309Y-74841000D01*
X106864698Y-74744327D01*
X107043327Y-74565699D01*
X107140000Y-74332310D01*
X107140000Y-73812400D01*
X113931960Y-73812400D01*
X113931960Y-76047600D01*
X113981243Y-76295365D01*
X114121591Y-76505409D01*
X114331635Y-76645757D01*
X114579400Y-76695040D01*
X116814600Y-76695040D01*
X117062365Y-76645757D01*
X117272409Y-76505409D01*
X117412757Y-76295365D01*
X117462040Y-76047600D01*
X117462040Y-73812400D01*
X117412757Y-73564635D01*
X117272409Y-73354591D01*
X117062365Y-73214243D01*
X116814600Y-73164960D01*
X116442000Y-73164960D01*
X116442000Y-72954982D01*
X116639809Y-72822809D01*
X116680655Y-72761680D01*
X116822301Y-72903327D01*
X117055690Y-73000000D01*
X117396250Y-73000000D01*
X117555000Y-72841250D01*
X117555000Y-70992000D01*
X117535000Y-70992000D01*
X117535000Y-70738000D01*
X117555000Y-70738000D01*
X117555000Y-68888750D01*
X117396250Y-68730000D01*
X117055690Y-68730000D01*
X116822301Y-68826673D01*
X116680655Y-68968320D01*
X116639809Y-68907191D01*
X116429765Y-68766843D01*
X116182000Y-68717560D01*
X115182000Y-68717560D01*
X114934235Y-68766843D01*
X114724191Y-68907191D01*
X114583843Y-69117235D01*
X114534560Y-69365000D01*
X114534560Y-72365000D01*
X114583843Y-72612765D01*
X114724191Y-72822809D01*
X114922000Y-72954982D01*
X114922000Y-73164960D01*
X114579400Y-73164960D01*
X114331635Y-73214243D01*
X114121591Y-73354591D01*
X113981243Y-73564635D01*
X113931960Y-73812400D01*
X107140000Y-73812400D01*
X107140000Y-73691750D01*
X106981250Y-73533000D01*
X105632000Y-73533000D01*
X105378000Y-73533000D01*
X104028750Y-73533000D01*
X103870000Y-73691750D01*
X103152440Y-73691750D01*
X103152440Y-72606000D01*
X103127316Y-72479690D01*
X103870000Y-72479690D01*
X103870000Y-73120250D01*
X104028750Y-73279000D01*
X105378000Y-73279000D01*
X105378000Y-72129750D01*
X105632000Y-72129750D01*
X105632000Y-73279000D01*
X106981250Y-73279000D01*
X107140000Y-73120250D01*
X107140000Y-72479690D01*
X107043327Y-72246301D01*
X106864698Y-72067673D01*
X106631309Y-71971000D01*
X105790750Y-71971000D01*
X105632000Y-72129750D01*
X105378000Y-72129750D01*
X105219250Y-71971000D01*
X104378691Y-71971000D01*
X104145302Y-72067673D01*
X103966673Y-72246301D01*
X103870000Y-72479690D01*
X103127316Y-72479690D01*
X103103157Y-72358235D01*
X102962809Y-72148191D01*
X102884268Y-72095711D01*
X103017765Y-72069157D01*
X103227809Y-71928809D01*
X103368157Y-71718765D01*
X103417440Y-71471000D01*
X103417440Y-70143440D01*
X104745000Y-70143440D01*
X104992765Y-70094157D01*
X105202809Y-69953809D01*
X105343157Y-69743765D01*
X105392440Y-69496000D01*
X105392440Y-68946000D01*
X105367576Y-68821000D01*
X105392440Y-68696000D01*
X105392440Y-68146000D01*
X105367576Y-68021000D01*
X105392440Y-67896000D01*
X105392440Y-67346000D01*
X105367576Y-67221000D01*
X105392440Y-67096000D01*
X105392440Y-66546000D01*
X105367576Y-66421000D01*
X105386972Y-66323490D01*
X105387673Y-66324192D01*
X105731201Y-66466838D01*
X106081441Y-66467143D01*
X106104852Y-66584839D01*
X106269599Y-66831401D01*
X107331571Y-67893373D01*
X107171115Y-68133511D01*
X107057041Y-68707000D01*
X107171115Y-69280489D01*
X107495971Y-69766670D01*
X107982152Y-70091526D01*
X108555641Y-70205600D01*
X108614359Y-70205600D01*
X109187848Y-70091526D01*
X109674029Y-69766670D01*
X109854992Y-69495839D01*
X110236510Y-69913821D01*
X110765973Y-70161968D01*
X110998000Y-70041469D01*
X110998000Y-68834000D01*
X111252000Y-68834000D01*
X111252000Y-70041469D01*
X111484027Y-70161968D01*
X112013490Y-69913821D01*
X112407688Y-69481947D01*
X112579958Y-69066026D01*
X112458817Y-68834000D01*
X111252000Y-68834000D01*
X110998000Y-68834000D01*
X110978000Y-68834000D01*
X110978000Y-68580000D01*
X110998000Y-68580000D01*
X110998000Y-68560000D01*
X111252000Y-68560000D01*
X111252000Y-68580000D01*
X112458817Y-68580000D01*
X112579958Y-68347974D01*
X112407688Y-67932053D01*
X112013490Y-67500179D01*
X111890772Y-67442664D01*
X112214029Y-67226670D01*
X112414262Y-66927000D01*
X117094000Y-66927000D01*
X117384839Y-66869148D01*
X117631401Y-66704401D01*
X126219401Y-58116401D01*
X126384148Y-57869839D01*
X126442000Y-57579000D01*
X126442000Y-56954982D01*
X126639809Y-56822809D01*
X126682000Y-56759666D01*
X126724191Y-56822809D01*
X126833579Y-56895900D01*
X126700162Y-57217201D01*
X126699838Y-57589167D01*
X126841883Y-57932943D01*
X127104673Y-58196192D01*
X127448201Y-58338838D01*
X127820167Y-58339162D01*
X128163943Y-58197117D01*
X128427192Y-57934327D01*
X128569838Y-57590799D01*
X128570162Y-57218833D01*
X128457000Y-56944959D01*
X128639809Y-56822809D01*
X128680655Y-56761680D01*
X128822301Y-56903327D01*
X129055690Y-57000000D01*
X129396250Y-57000000D01*
X129555000Y-56841250D01*
X129555000Y-54992000D01*
X129535000Y-54992000D01*
X129535000Y-54738000D01*
X129555000Y-54738000D01*
X129555000Y-54718000D01*
X129809000Y-54718000D01*
X129809000Y-54738000D01*
G36*
X99362191Y-63428809D02*
X99486862Y-63512112D01*
X99580750Y-63606000D01*
X99696310Y-63606000D01*
X99716148Y-63597783D01*
X99820000Y-63618440D01*
X100370000Y-63618440D01*
X100495000Y-63593576D01*
X100620000Y-63618440D01*
X100935000Y-63618440D01*
X100935000Y-63979198D01*
X98757599Y-66156599D01*
X98592852Y-66403161D01*
X98535000Y-66694000D01*
X98535000Y-69453885D01*
X98495000Y-69513749D01*
X98427809Y-69413191D01*
X98303138Y-69329888D01*
X98209250Y-69236000D01*
X98093690Y-69236000D01*
X98089870Y-69237582D01*
X98090162Y-68902833D01*
X97948117Y-68559057D01*
X97685327Y-68295808D01*
X97341799Y-68153162D01*
X96969833Y-68152838D01*
X96892440Y-68184816D01*
X96892440Y-68146000D01*
X96867576Y-68021000D01*
X96892440Y-67896000D01*
X96892440Y-67652644D01*
X97095201Y-67736838D01*
X97467167Y-67737162D01*
X97810943Y-67595117D01*
X98074192Y-67332327D01*
X98216838Y-66988799D01*
X98217162Y-66616833D01*
X98075117Y-66273057D01*
X97812327Y-66009808D01*
X97468799Y-65867162D01*
X97096833Y-65866838D01*
X96892440Y-65951291D01*
X96892440Y-65746000D01*
X96867576Y-65621000D01*
X96892440Y-65496000D01*
X96892440Y-64946000D01*
X96867576Y-64821000D01*
X96892440Y-64696000D01*
X96892440Y-64146000D01*
X96867576Y-64021000D01*
X96892440Y-63896000D01*
X96892440Y-63618440D01*
X97170000Y-63618440D01*
X97295000Y-63593576D01*
X97420000Y-63618440D01*
X97970000Y-63618440D01*
X98095000Y-63593576D01*
X98220000Y-63618440D01*
X98770000Y-63618440D01*
X98873852Y-63597783D01*
X98893690Y-63606000D01*
X99009250Y-63606000D01*
X99103138Y-63512112D01*
X99227809Y-63428809D01*
X99295000Y-63328251D01*
X99362191Y-63428809D01*
X99362191Y-63428809D01*
G37*
X99362191Y-63428809D02*
X99486862Y-63512112D01*
X99580750Y-63606000D01*
X99696310Y-63606000D01*
X99716148Y-63597783D01*
X99820000Y-63618440D01*
X100370000Y-63618440D01*
X100495000Y-63593576D01*
X100620000Y-63618440D01*
X100935000Y-63618440D01*
X100935000Y-63979198D01*
X98757599Y-66156599D01*
X98592852Y-66403161D01*
X98535000Y-66694000D01*
X98535000Y-69453885D01*
X98495000Y-69513749D01*
X98427809Y-69413191D01*
X98303138Y-69329888D01*
X98209250Y-69236000D01*
X98093690Y-69236000D01*
X98089870Y-69237582D01*
X98090162Y-68902833D01*
X97948117Y-68559057D01*
X97685327Y-68295808D01*
X97341799Y-68153162D01*
X96969833Y-68152838D01*
X96892440Y-68184816D01*
X96892440Y-68146000D01*
X96867576Y-68021000D01*
X96892440Y-67896000D01*
X96892440Y-67652644D01*
X97095201Y-67736838D01*
X97467167Y-67737162D01*
X97810943Y-67595117D01*
X98074192Y-67332327D01*
X98216838Y-66988799D01*
X98217162Y-66616833D01*
X98075117Y-66273057D01*
X97812327Y-66009808D01*
X97468799Y-65867162D01*
X97096833Y-65866838D01*
X96892440Y-65951291D01*
X96892440Y-65746000D01*
X96867576Y-65621000D01*
X96892440Y-65496000D01*
X96892440Y-64946000D01*
X96867576Y-64821000D01*
X96892440Y-64696000D01*
X96892440Y-64146000D01*
X96867576Y-64021000D01*
X96892440Y-63896000D01*
X96892440Y-63618440D01*
X97170000Y-63618440D01*
X97295000Y-63593576D01*
X97420000Y-63618440D01*
X97970000Y-63618440D01*
X98095000Y-63593576D01*
X98220000Y-63618440D01*
X98770000Y-63618440D01*
X98873852Y-63597783D01*
X98893690Y-63606000D01*
X99009250Y-63606000D01*
X99103138Y-63512112D01*
X99227809Y-63428809D01*
X99295000Y-63328251D01*
X99362191Y-63428809D01*
G36*
X114547000Y-53238691D02*
X114547000Y-54579250D01*
X114705750Y-54738000D01*
X115555000Y-54738000D01*
X115555000Y-54718000D01*
X115809000Y-54718000D01*
X115809000Y-54738000D01*
X115829000Y-54738000D01*
X115829000Y-54992000D01*
X115809000Y-54992000D01*
X115809000Y-56841250D01*
X115967750Y-57000000D01*
X116308310Y-57000000D01*
X116541699Y-56903327D01*
X116683345Y-56761680D01*
X116724191Y-56822809D01*
X116934235Y-56963157D01*
X117182000Y-57012440D01*
X118182000Y-57012440D01*
X118429765Y-56963157D01*
X118639809Y-56822809D01*
X118682000Y-56759666D01*
X118724191Y-56822809D01*
X118934235Y-56963157D01*
X119182000Y-57012440D01*
X120182000Y-57012440D01*
X120429765Y-56963157D01*
X120639809Y-56822809D01*
X120682000Y-56759666D01*
X120724191Y-56822809D01*
X120922000Y-56954982D01*
X120922000Y-57200198D01*
X115430320Y-62691878D01*
X115384833Y-62691838D01*
X115041057Y-62833883D01*
X114777808Y-63096673D01*
X114635162Y-63440201D01*
X114634838Y-63812167D01*
X114769056Y-64137000D01*
X112551514Y-64137000D01*
X112652959Y-63627000D01*
X112538885Y-63053511D01*
X112214029Y-62567330D01*
X111882816Y-62346020D01*
X111827148Y-62066161D01*
X111662401Y-61819599D01*
X109884401Y-60041599D01*
X109637839Y-59876852D01*
X109347000Y-59819000D01*
X102108000Y-59819000D01*
X101817160Y-59876852D01*
X101570599Y-60041599D01*
X101157599Y-60454599D01*
X100992852Y-60701161D01*
X100988397Y-60723560D01*
X100620000Y-60723560D01*
X100495000Y-60748424D01*
X100370000Y-60723560D01*
X99933053Y-60723560D01*
X100105401Y-60608401D01*
X101197035Y-59516767D01*
X101253191Y-59600809D01*
X101463235Y-59741157D01*
X101711000Y-59790440D01*
X103711000Y-59790440D01*
X103958765Y-59741157D01*
X104168809Y-59600809D01*
X104309157Y-59390765D01*
X104358440Y-59143000D01*
X104358440Y-57443000D01*
X104309157Y-57195235D01*
X104168809Y-56985191D01*
X103958765Y-56844843D01*
X103711000Y-56795560D01*
X103490300Y-56795560D01*
X103490300Y-55876848D01*
X103789970Y-55676615D01*
X103996761Y-55367131D01*
X104368264Y-55782932D01*
X104895509Y-56036909D01*
X104911274Y-56039558D01*
X105143300Y-55918417D01*
X105143300Y-54559200D01*
X105397300Y-54559200D01*
X105397300Y-55918417D01*
X105629326Y-56039558D01*
X105645091Y-56036909D01*
X106172336Y-55782932D01*
X106562254Y-55346520D01*
X106630733Y-55150750D01*
X114547000Y-55150750D01*
X114547000Y-56491309D01*
X114643673Y-56724698D01*
X114822301Y-56903327D01*
X115055690Y-57000000D01*
X115396250Y-57000000D01*
X115555000Y-56841250D01*
X115555000Y-54992000D01*
X114705750Y-54992000D01*
X114547000Y-55150750D01*
X106630733Y-55150750D01*
X106755484Y-54794113D01*
X106611224Y-54559200D01*
X105397300Y-54559200D01*
X105143300Y-54559200D01*
X105123300Y-54559200D01*
X105123300Y-54305200D01*
X105143300Y-54305200D01*
X105143300Y-54285200D01*
X105397300Y-54285200D01*
X105397300Y-54305200D01*
X106611224Y-54305200D01*
X106755484Y-54070287D01*
X106562254Y-53517880D01*
X106287175Y-53210000D01*
X114558884Y-53210000D01*
X114547000Y-53238691D01*
X114547000Y-53238691D01*
G37*
X114547000Y-53238691D02*
X114547000Y-54579250D01*
X114705750Y-54738000D01*
X115555000Y-54738000D01*
X115555000Y-54718000D01*
X115809000Y-54718000D01*
X115809000Y-54738000D01*
X115829000Y-54738000D01*
X115829000Y-54992000D01*
X115809000Y-54992000D01*
X115809000Y-56841250D01*
X115967750Y-57000000D01*
X116308310Y-57000000D01*
X116541699Y-56903327D01*
X116683345Y-56761680D01*
X116724191Y-56822809D01*
X116934235Y-56963157D01*
X117182000Y-57012440D01*
X118182000Y-57012440D01*
X118429765Y-56963157D01*
X118639809Y-56822809D01*
X118682000Y-56759666D01*
X118724191Y-56822809D01*
X118934235Y-56963157D01*
X119182000Y-57012440D01*
X120182000Y-57012440D01*
X120429765Y-56963157D01*
X120639809Y-56822809D01*
X120682000Y-56759666D01*
X120724191Y-56822809D01*
X120922000Y-56954982D01*
X120922000Y-57200198D01*
X115430320Y-62691878D01*
X115384833Y-62691838D01*
X115041057Y-62833883D01*
X114777808Y-63096673D01*
X114635162Y-63440201D01*
X114634838Y-63812167D01*
X114769056Y-64137000D01*
X112551514Y-64137000D01*
X112652959Y-63627000D01*
X112538885Y-63053511D01*
X112214029Y-62567330D01*
X111882816Y-62346020D01*
X111827148Y-62066161D01*
X111662401Y-61819599D01*
X109884401Y-60041599D01*
X109637839Y-59876852D01*
X109347000Y-59819000D01*
X102108000Y-59819000D01*
X101817160Y-59876852D01*
X101570599Y-60041599D01*
X101157599Y-60454599D01*
X100992852Y-60701161D01*
X100988397Y-60723560D01*
X100620000Y-60723560D01*
X100495000Y-60748424D01*
X100370000Y-60723560D01*
X99933053Y-60723560D01*
X100105401Y-60608401D01*
X101197035Y-59516767D01*
X101253191Y-59600809D01*
X101463235Y-59741157D01*
X101711000Y-59790440D01*
X103711000Y-59790440D01*
X103958765Y-59741157D01*
X104168809Y-59600809D01*
X104309157Y-59390765D01*
X104358440Y-59143000D01*
X104358440Y-57443000D01*
X104309157Y-57195235D01*
X104168809Y-56985191D01*
X103958765Y-56844843D01*
X103711000Y-56795560D01*
X103490300Y-56795560D01*
X103490300Y-55876848D01*
X103789970Y-55676615D01*
X103996761Y-55367131D01*
X104368264Y-55782932D01*
X104895509Y-56036909D01*
X104911274Y-56039558D01*
X105143300Y-55918417D01*
X105143300Y-54559200D01*
X105397300Y-54559200D01*
X105397300Y-55918417D01*
X105629326Y-56039558D01*
X105645091Y-56036909D01*
X106172336Y-55782932D01*
X106562254Y-55346520D01*
X106630733Y-55150750D01*
X114547000Y-55150750D01*
X114547000Y-56491309D01*
X114643673Y-56724698D01*
X114822301Y-56903327D01*
X115055690Y-57000000D01*
X115396250Y-57000000D01*
X115555000Y-56841250D01*
X115555000Y-54992000D01*
X114705750Y-54992000D01*
X114547000Y-55150750D01*
X106630733Y-55150750D01*
X106755484Y-54794113D01*
X106611224Y-54559200D01*
X105397300Y-54559200D01*
X105143300Y-54559200D01*
X105123300Y-54559200D01*
X105123300Y-54305200D01*
X105143300Y-54305200D01*
X105143300Y-54285200D01*
X105397300Y-54285200D01*
X105397300Y-54305200D01*
X106611224Y-54305200D01*
X106755484Y-54070287D01*
X106562254Y-53517880D01*
X106287175Y-53210000D01*
X114558884Y-53210000D01*
X114547000Y-53238691D01*
G36*
X98679260Y-53416200D02*
X98679260Y-54868438D01*
X98173599Y-55374099D01*
X98008852Y-55620661D01*
X97951000Y-55911500D01*
X97951000Y-56795560D01*
X97711000Y-56795560D01*
X97463235Y-56844843D01*
X97253191Y-56985191D01*
X97112843Y-57195235D01*
X97063560Y-57443000D01*
X97063560Y-59143000D01*
X97112843Y-59390765D01*
X97253191Y-59600809D01*
X97463235Y-59741157D01*
X97711000Y-59790440D01*
X98138758Y-59790440D01*
X97199725Y-60729473D01*
X97170000Y-60723560D01*
X96620000Y-60723560D01*
X96494354Y-60748552D01*
X93628401Y-57882599D01*
X93381839Y-57717852D01*
X93091000Y-57660000D01*
X90007440Y-57660000D01*
X90007440Y-57443000D01*
X89958157Y-57195235D01*
X89817809Y-56985191D01*
X89607765Y-56844843D01*
X89360000Y-56795560D01*
X87810362Y-56795560D01*
X87462900Y-56448098D01*
X87462900Y-55889548D01*
X87762570Y-55689315D01*
X87969361Y-55379831D01*
X88340864Y-55795632D01*
X88868109Y-56049609D01*
X88883874Y-56052258D01*
X89115900Y-55931117D01*
X89115900Y-54571900D01*
X89369900Y-54571900D01*
X89369900Y-55931117D01*
X89601926Y-56052258D01*
X89617691Y-56049609D01*
X90144936Y-55795632D01*
X90534854Y-55359220D01*
X90728084Y-54806813D01*
X90583824Y-54571900D01*
X89369900Y-54571900D01*
X89115900Y-54571900D01*
X89095900Y-54571900D01*
X89095900Y-54317900D01*
X89115900Y-54317900D01*
X89115900Y-54297900D01*
X89369900Y-54297900D01*
X89369900Y-54317900D01*
X90583824Y-54317900D01*
X90728084Y-54082987D01*
X90534854Y-53530580D01*
X90248428Y-53210000D01*
X98720275Y-53210000D01*
X98679260Y-53416200D01*
X98679260Y-53416200D01*
G37*
X98679260Y-53416200D02*
X98679260Y-54868438D01*
X98173599Y-55374099D01*
X98008852Y-55620661D01*
X97951000Y-55911500D01*
X97951000Y-56795560D01*
X97711000Y-56795560D01*
X97463235Y-56844843D01*
X97253191Y-56985191D01*
X97112843Y-57195235D01*
X97063560Y-57443000D01*
X97063560Y-59143000D01*
X97112843Y-59390765D01*
X97253191Y-59600809D01*
X97463235Y-59741157D01*
X97711000Y-59790440D01*
X98138758Y-59790440D01*
X97199725Y-60729473D01*
X97170000Y-60723560D01*
X96620000Y-60723560D01*
X96494354Y-60748552D01*
X93628401Y-57882599D01*
X93381839Y-57717852D01*
X93091000Y-57660000D01*
X90007440Y-57660000D01*
X90007440Y-57443000D01*
X89958157Y-57195235D01*
X89817809Y-56985191D01*
X89607765Y-56844843D01*
X89360000Y-56795560D01*
X87810362Y-56795560D01*
X87462900Y-56448098D01*
X87462900Y-55889548D01*
X87762570Y-55689315D01*
X87969361Y-55379831D01*
X88340864Y-55795632D01*
X88868109Y-56049609D01*
X88883874Y-56052258D01*
X89115900Y-55931117D01*
X89115900Y-54571900D01*
X89369900Y-54571900D01*
X89369900Y-55931117D01*
X89601926Y-56052258D01*
X89617691Y-56049609D01*
X90144936Y-55795632D01*
X90534854Y-55359220D01*
X90728084Y-54806813D01*
X90583824Y-54571900D01*
X89369900Y-54571900D01*
X89115900Y-54571900D01*
X89095900Y-54571900D01*
X89095900Y-54317900D01*
X89115900Y-54317900D01*
X89115900Y-54297900D01*
X89369900Y-54297900D01*
X89369900Y-54317900D01*
X90583824Y-54317900D01*
X90728084Y-54082987D01*
X90534854Y-53530580D01*
X90248428Y-53210000D01*
X98720275Y-53210000D01*
X98679260Y-53416200D01*
M02*
