G04 #@! TF.GenerationSoftware,KiCad,Pcbnew,no-vcs-found-7560~57~ubuntu16.04.1*
G04 #@! TF.CreationDate,2017-02-05T10:32:15+01:00*
G04 #@! TF.ProjectId,MultiUse_Battery_RFM69HCW,4D756C74695573655F42617474657279,rev?*
G04 #@! TF.FileFunction,Copper,L2,Bot,Signal*
G04 #@! TF.FilePolarity,Positive*
%FSLAX46Y46*%
G04 Gerber Fmt 4.6, Leading zero omitted, Abs format (unit mm)*
G04 Created by KiCad (PCBNEW no-vcs-found-7560~57~ubuntu16.04.1) date Sun Feb  5 10:32:15 2017*
%MOMM*%
%LPD*%
G01*
G04 APERTURE LIST*
%ADD10C,0.100000*%
%ADD11R,5.000000X4.200000*%
%ADD12R,2.235200X2.235200*%
%ADD13R,1.727200X2.032000*%
%ADD14O,1.727200X2.032000*%
%ADD15R,1.727200X1.727200*%
%ADD16O,1.727200X1.727200*%
%ADD17O,1.700000X1.700000*%
%ADD18R,1.700000X1.700000*%
%ADD19C,0.600000*%
%ADD20C,0.250000*%
%ADD21C,0.254000*%
G04 APERTURE END LIST*
D10*
D11*
X118454000Y-67818000D03*
X89154000Y-67818000D03*
D12*
X115697000Y-74930000D03*
D13*
X84162900Y-54444900D03*
D14*
X86702900Y-54444900D03*
X89242900Y-54444900D03*
D13*
X100190300Y-54432200D03*
D14*
X102730300Y-54432200D03*
X105270300Y-54432200D03*
D15*
X108585000Y-63627000D03*
D16*
X111125000Y-63627000D03*
X108585000Y-66167000D03*
X111125000Y-66167000D03*
X108585000Y-68707000D03*
X111125000Y-68707000D03*
D17*
X100457000Y-76327000D03*
D18*
X97917000Y-76327000D03*
D19*
X127635000Y-57404000D03*
X103886000Y-62103000D03*
X97282000Y-66802000D03*
X125095000Y-74041000D03*
X97155000Y-69088000D03*
X105918000Y-65532000D03*
X115570000Y-63627000D03*
D20*
X100190300Y-54432200D02*
X100190300Y-52959000D01*
X100190300Y-52959000D02*
X100203000Y-52959000D01*
X84162900Y-54444900D02*
X84162900Y-53759100D01*
X84162900Y-53759100D02*
X84963000Y-52959000D01*
X84963000Y-52959000D02*
X100203000Y-52959000D01*
X100203000Y-52959000D02*
X101473000Y-52959000D01*
X101473000Y-52959000D02*
X106680000Y-52959000D01*
X100190300Y-54432200D02*
X100190300Y-53479700D01*
X111125000Y-57404000D02*
X111125000Y-59690000D01*
X111125000Y-61671200D02*
X111125000Y-63627000D01*
X111125000Y-61087000D02*
X111125000Y-61671200D01*
X111125000Y-59690000D02*
X111125000Y-61087000D01*
X106680000Y-52959000D02*
X111125000Y-57404000D01*
X112141000Y-64897000D02*
X112268000Y-64897000D01*
X119761000Y-57404000D02*
X127635000Y-57404000D01*
X112268000Y-64897000D02*
X119761000Y-57404000D01*
X108585000Y-63627000D02*
X108966000Y-63627000D01*
X108966000Y-63627000D02*
X110236000Y-64897000D01*
X110236000Y-64897000D02*
X112141000Y-64897000D01*
X108585000Y-66167000D02*
X108204000Y-66167000D01*
X108204000Y-66167000D02*
X106934000Y-64897000D01*
X105410000Y-62103000D02*
X103886000Y-62103000D01*
X106934000Y-63627000D02*
X105410000Y-62103000D01*
X106934000Y-64897000D02*
X106934000Y-63627000D01*
X108585000Y-68707000D02*
X105918000Y-68707000D01*
X104013000Y-66802000D02*
X97282000Y-66802000D01*
X105918000Y-68707000D02*
X104013000Y-66802000D01*
X125095000Y-74041000D02*
X123571000Y-72517000D01*
X123571000Y-72517000D02*
X100584000Y-72517000D01*
X100584000Y-72517000D02*
X97155000Y-69088000D01*
X105918000Y-65532000D02*
X107823000Y-67437000D01*
X107823000Y-67437000D02*
X108204000Y-67437000D01*
X112014000Y-67437000D02*
X108204000Y-67437000D01*
X108204000Y-67437000D02*
X107823000Y-67437000D01*
X113157000Y-66294000D02*
X112014000Y-67437000D01*
X113157000Y-66040000D02*
X113157000Y-66294000D01*
X115570000Y-63627000D02*
X113157000Y-66040000D01*
X97663000Y-76327000D02*
X89154000Y-67818000D01*
D21*
G36*
X130290000Y-78290000D02*
X82710000Y-78290000D01*
X82710000Y-65718000D01*
X86006560Y-65718000D01*
X86006560Y-69918000D01*
X86055843Y-70165765D01*
X86196191Y-70375809D01*
X86406235Y-70516157D01*
X86654000Y-70565440D01*
X90826638Y-70565440D01*
X96419560Y-76158362D01*
X96419560Y-77177000D01*
X96468843Y-77424765D01*
X96609191Y-77634809D01*
X96819235Y-77775157D01*
X97067000Y-77824440D01*
X98767000Y-77824440D01*
X99014765Y-77775157D01*
X99224809Y-77634809D01*
X99365157Y-77424765D01*
X99385739Y-77321292D01*
X99690076Y-77598645D01*
X100100110Y-77768476D01*
X100330000Y-77647155D01*
X100330000Y-76454000D01*
X100584000Y-76454000D01*
X100584000Y-77647155D01*
X100813890Y-77768476D01*
X101223924Y-77598645D01*
X101652183Y-77208358D01*
X101898486Y-76683892D01*
X101777819Y-76454000D01*
X100584000Y-76454000D01*
X100330000Y-76454000D01*
X100310000Y-76454000D01*
X100310000Y-76200000D01*
X100330000Y-76200000D01*
X100330000Y-75006845D01*
X100584000Y-75006845D01*
X100584000Y-76200000D01*
X101777819Y-76200000D01*
X101898486Y-75970108D01*
X101652183Y-75445642D01*
X101223924Y-75055355D01*
X100813890Y-74885524D01*
X100584000Y-75006845D01*
X100330000Y-75006845D01*
X100100110Y-74885524D01*
X99690076Y-75055355D01*
X99385739Y-75332708D01*
X99365157Y-75229235D01*
X99224809Y-75019191D01*
X99014765Y-74878843D01*
X98767000Y-74829560D01*
X97240362Y-74829560D01*
X92301440Y-69890638D01*
X92301440Y-69273167D01*
X96219838Y-69273167D01*
X96361883Y-69616943D01*
X96624673Y-69880192D01*
X96968201Y-70022838D01*
X97015077Y-70022879D01*
X100046599Y-73054401D01*
X100293160Y-73219148D01*
X100584000Y-73277000D01*
X114237713Y-73277000D01*
X114121591Y-73354591D01*
X113981243Y-73564635D01*
X113931960Y-73812400D01*
X113931960Y-76047600D01*
X113981243Y-76295365D01*
X114121591Y-76505409D01*
X114331635Y-76645757D01*
X114579400Y-76695040D01*
X116814600Y-76695040D01*
X117062365Y-76645757D01*
X117272409Y-76505409D01*
X117412757Y-76295365D01*
X117462040Y-76047600D01*
X117462040Y-73812400D01*
X117412757Y-73564635D01*
X117272409Y-73354591D01*
X117156287Y-73277000D01*
X123256198Y-73277000D01*
X124159878Y-74180680D01*
X124159838Y-74226167D01*
X124301883Y-74569943D01*
X124564673Y-74833192D01*
X124908201Y-74975838D01*
X125280167Y-74976162D01*
X125623943Y-74834117D01*
X125887192Y-74571327D01*
X126029838Y-74227799D01*
X126030162Y-73855833D01*
X125888117Y-73512057D01*
X125625327Y-73248808D01*
X125281799Y-73106162D01*
X125234923Y-73106121D01*
X124108401Y-71979599D01*
X123861839Y-71814852D01*
X123571000Y-71757000D01*
X100898802Y-71757000D01*
X98090122Y-68948320D01*
X98090162Y-68902833D01*
X97948117Y-68559057D01*
X97685327Y-68295808D01*
X97341799Y-68153162D01*
X96969833Y-68152838D01*
X96626057Y-68294883D01*
X96362808Y-68557673D01*
X96220162Y-68901201D01*
X96219838Y-69273167D01*
X92301440Y-69273167D01*
X92301440Y-65718000D01*
X92252157Y-65470235D01*
X92111809Y-65260191D01*
X91901765Y-65119843D01*
X91654000Y-65070560D01*
X86654000Y-65070560D01*
X86406235Y-65119843D01*
X86196191Y-65260191D01*
X86055843Y-65470235D01*
X86006560Y-65718000D01*
X82710000Y-65718000D01*
X82710000Y-55721920D01*
X82841491Y-55918709D01*
X83051535Y-56059057D01*
X83299300Y-56108340D01*
X85026500Y-56108340D01*
X85274265Y-56059057D01*
X85484309Y-55918709D01*
X85624657Y-55708665D01*
X85631884Y-55672334D01*
X85643230Y-55689315D01*
X86129411Y-56014171D01*
X86702900Y-56128245D01*
X87276389Y-56014171D01*
X87762570Y-55689315D01*
X87969361Y-55379831D01*
X88340864Y-55795632D01*
X88868109Y-56049609D01*
X88883874Y-56052258D01*
X89115900Y-55931117D01*
X89115900Y-54571900D01*
X89369900Y-54571900D01*
X89369900Y-55931117D01*
X89601926Y-56052258D01*
X89617691Y-56049609D01*
X90144936Y-55795632D01*
X90534854Y-55359220D01*
X90728084Y-54806813D01*
X90583824Y-54571900D01*
X89369900Y-54571900D01*
X89115900Y-54571900D01*
X89095900Y-54571900D01*
X89095900Y-54317900D01*
X89115900Y-54317900D01*
X89115900Y-54297900D01*
X89369900Y-54297900D01*
X89369900Y-54317900D01*
X90583824Y-54317900D01*
X90728084Y-54082987D01*
X90600763Y-53719000D01*
X98679260Y-53719000D01*
X98679260Y-55448200D01*
X98728543Y-55695965D01*
X98868891Y-55906009D01*
X99078935Y-56046357D01*
X99326700Y-56095640D01*
X101053900Y-56095640D01*
X101301665Y-56046357D01*
X101511709Y-55906009D01*
X101652057Y-55695965D01*
X101659284Y-55659634D01*
X101670630Y-55676615D01*
X102156811Y-56001471D01*
X102730300Y-56115545D01*
X103303789Y-56001471D01*
X103789970Y-55676615D01*
X103996761Y-55367131D01*
X104368264Y-55782932D01*
X104895509Y-56036909D01*
X104911274Y-56039558D01*
X105143300Y-55918417D01*
X105143300Y-54559200D01*
X105397300Y-54559200D01*
X105397300Y-55918417D01*
X105629326Y-56039558D01*
X105645091Y-56036909D01*
X106172336Y-55782932D01*
X106562254Y-55346520D01*
X106755484Y-54794113D01*
X106611224Y-54559200D01*
X105397300Y-54559200D01*
X105143300Y-54559200D01*
X105123300Y-54559200D01*
X105123300Y-54305200D01*
X105143300Y-54305200D01*
X105143300Y-54285200D01*
X105397300Y-54285200D01*
X105397300Y-54305200D01*
X106611224Y-54305200D01*
X106740646Y-54094448D01*
X110365000Y-57718802D01*
X110365000Y-62347480D01*
X110054568Y-62554904D01*
X110046757Y-62515635D01*
X109906409Y-62305591D01*
X109696365Y-62165243D01*
X109448600Y-62115960D01*
X107721400Y-62115960D01*
X107473635Y-62165243D01*
X107263591Y-62305591D01*
X107123243Y-62515635D01*
X107085780Y-62703978D01*
X105947401Y-61565599D01*
X105700839Y-61400852D01*
X105410000Y-61343000D01*
X104448463Y-61343000D01*
X104416327Y-61310808D01*
X104072799Y-61168162D01*
X103700833Y-61167838D01*
X103357057Y-61309883D01*
X103093808Y-61572673D01*
X102951162Y-61916201D01*
X102950838Y-62288167D01*
X103092883Y-62631943D01*
X103355673Y-62895192D01*
X103699201Y-63037838D01*
X104071167Y-63038162D01*
X104414943Y-62896117D01*
X104448118Y-62863000D01*
X105095198Y-62863000D01*
X106174000Y-63941802D01*
X106174000Y-64625897D01*
X106104799Y-64597162D01*
X105732833Y-64596838D01*
X105389057Y-64738883D01*
X105125808Y-65001673D01*
X104983162Y-65345201D01*
X104982838Y-65717167D01*
X105124883Y-66060943D01*
X105387673Y-66324192D01*
X105731201Y-66466838D01*
X105778077Y-66466879D01*
X107258198Y-67947000D01*
X106232802Y-67947000D01*
X104550401Y-66264599D01*
X104303839Y-66099852D01*
X104013000Y-66042000D01*
X97844463Y-66042000D01*
X97812327Y-66009808D01*
X97468799Y-65867162D01*
X97096833Y-65866838D01*
X96753057Y-66008883D01*
X96489808Y-66271673D01*
X96347162Y-66615201D01*
X96346838Y-66987167D01*
X96488883Y-67330943D01*
X96751673Y-67594192D01*
X97095201Y-67736838D01*
X97467167Y-67737162D01*
X97810943Y-67595117D01*
X97844118Y-67562000D01*
X103698198Y-67562000D01*
X105380599Y-69244401D01*
X105627161Y-69409148D01*
X105918000Y-69467000D01*
X107295738Y-69467000D01*
X107495971Y-69766670D01*
X107982152Y-70091526D01*
X108555641Y-70205600D01*
X108614359Y-70205600D01*
X109187848Y-70091526D01*
X109674029Y-69766670D01*
X109854992Y-69495839D01*
X110236510Y-69913821D01*
X110765973Y-70161968D01*
X110998000Y-70041469D01*
X110998000Y-68834000D01*
X111252000Y-68834000D01*
X111252000Y-70041469D01*
X111484027Y-70161968D01*
X112013490Y-69913821D01*
X112407688Y-69481947D01*
X112579958Y-69066026D01*
X112458817Y-68834000D01*
X111252000Y-68834000D01*
X110998000Y-68834000D01*
X110978000Y-68834000D01*
X110978000Y-68580000D01*
X110998000Y-68580000D01*
X110998000Y-68560000D01*
X111252000Y-68560000D01*
X111252000Y-68580000D01*
X112458817Y-68580000D01*
X112579958Y-68347974D01*
X112478804Y-68103750D01*
X115319000Y-68103750D01*
X115319000Y-70044310D01*
X115415673Y-70277699D01*
X115594302Y-70456327D01*
X115827691Y-70553000D01*
X118168250Y-70553000D01*
X118327000Y-70394250D01*
X118327000Y-67945000D01*
X118581000Y-67945000D01*
X118581000Y-70394250D01*
X118739750Y-70553000D01*
X121080309Y-70553000D01*
X121313698Y-70456327D01*
X121492327Y-70277699D01*
X121589000Y-70044310D01*
X121589000Y-68103750D01*
X121430250Y-67945000D01*
X118581000Y-67945000D01*
X118327000Y-67945000D01*
X115477750Y-67945000D01*
X115319000Y-68103750D01*
X112478804Y-68103750D01*
X112452578Y-68040432D01*
X112551401Y-67974401D01*
X113694401Y-66831401D01*
X113859148Y-66584839D01*
X113901903Y-66369899D01*
X114680112Y-65591690D01*
X115319000Y-65591690D01*
X115319000Y-67532250D01*
X115477750Y-67691000D01*
X118327000Y-67691000D01*
X118327000Y-65241750D01*
X118581000Y-65241750D01*
X118581000Y-67691000D01*
X121430250Y-67691000D01*
X121589000Y-67532250D01*
X121589000Y-65591690D01*
X121492327Y-65358301D01*
X121313698Y-65179673D01*
X121080309Y-65083000D01*
X118739750Y-65083000D01*
X118581000Y-65241750D01*
X118327000Y-65241750D01*
X118168250Y-65083000D01*
X115827691Y-65083000D01*
X115594302Y-65179673D01*
X115415673Y-65358301D01*
X115319000Y-65591690D01*
X114680112Y-65591690D01*
X115709680Y-64562122D01*
X115755167Y-64562162D01*
X116098943Y-64420117D01*
X116362192Y-64157327D01*
X116504838Y-63813799D01*
X116505162Y-63441833D01*
X116363117Y-63098057D01*
X116100327Y-62834808D01*
X115756799Y-62692162D01*
X115547822Y-62691980D01*
X120075802Y-58164000D01*
X127072537Y-58164000D01*
X127104673Y-58196192D01*
X127448201Y-58338838D01*
X127820167Y-58339162D01*
X128163943Y-58197117D01*
X128427192Y-57934327D01*
X128569838Y-57590799D01*
X128570162Y-57218833D01*
X128428117Y-56875057D01*
X128165327Y-56611808D01*
X127821799Y-56469162D01*
X127449833Y-56468838D01*
X127106057Y-56610883D01*
X127072882Y-56644000D01*
X119761000Y-56644000D01*
X119470160Y-56701852D01*
X119223599Y-56866599D01*
X112621476Y-63468722D01*
X112538885Y-63053511D01*
X112214029Y-62567330D01*
X111885000Y-62347480D01*
X111885000Y-57404000D01*
X111827148Y-57113161D01*
X111827148Y-57113160D01*
X111662401Y-56866599D01*
X108005802Y-53210000D01*
X130290000Y-53210000D01*
X130290000Y-78290000D01*
X130290000Y-78290000D01*
G37*
X130290000Y-78290000D02*
X82710000Y-78290000D01*
X82710000Y-65718000D01*
X86006560Y-65718000D01*
X86006560Y-69918000D01*
X86055843Y-70165765D01*
X86196191Y-70375809D01*
X86406235Y-70516157D01*
X86654000Y-70565440D01*
X90826638Y-70565440D01*
X96419560Y-76158362D01*
X96419560Y-77177000D01*
X96468843Y-77424765D01*
X96609191Y-77634809D01*
X96819235Y-77775157D01*
X97067000Y-77824440D01*
X98767000Y-77824440D01*
X99014765Y-77775157D01*
X99224809Y-77634809D01*
X99365157Y-77424765D01*
X99385739Y-77321292D01*
X99690076Y-77598645D01*
X100100110Y-77768476D01*
X100330000Y-77647155D01*
X100330000Y-76454000D01*
X100584000Y-76454000D01*
X100584000Y-77647155D01*
X100813890Y-77768476D01*
X101223924Y-77598645D01*
X101652183Y-77208358D01*
X101898486Y-76683892D01*
X101777819Y-76454000D01*
X100584000Y-76454000D01*
X100330000Y-76454000D01*
X100310000Y-76454000D01*
X100310000Y-76200000D01*
X100330000Y-76200000D01*
X100330000Y-75006845D01*
X100584000Y-75006845D01*
X100584000Y-76200000D01*
X101777819Y-76200000D01*
X101898486Y-75970108D01*
X101652183Y-75445642D01*
X101223924Y-75055355D01*
X100813890Y-74885524D01*
X100584000Y-75006845D01*
X100330000Y-75006845D01*
X100100110Y-74885524D01*
X99690076Y-75055355D01*
X99385739Y-75332708D01*
X99365157Y-75229235D01*
X99224809Y-75019191D01*
X99014765Y-74878843D01*
X98767000Y-74829560D01*
X97240362Y-74829560D01*
X92301440Y-69890638D01*
X92301440Y-69273167D01*
X96219838Y-69273167D01*
X96361883Y-69616943D01*
X96624673Y-69880192D01*
X96968201Y-70022838D01*
X97015077Y-70022879D01*
X100046599Y-73054401D01*
X100293160Y-73219148D01*
X100584000Y-73277000D01*
X114237713Y-73277000D01*
X114121591Y-73354591D01*
X113981243Y-73564635D01*
X113931960Y-73812400D01*
X113931960Y-76047600D01*
X113981243Y-76295365D01*
X114121591Y-76505409D01*
X114331635Y-76645757D01*
X114579400Y-76695040D01*
X116814600Y-76695040D01*
X117062365Y-76645757D01*
X117272409Y-76505409D01*
X117412757Y-76295365D01*
X117462040Y-76047600D01*
X117462040Y-73812400D01*
X117412757Y-73564635D01*
X117272409Y-73354591D01*
X117156287Y-73277000D01*
X123256198Y-73277000D01*
X124159878Y-74180680D01*
X124159838Y-74226167D01*
X124301883Y-74569943D01*
X124564673Y-74833192D01*
X124908201Y-74975838D01*
X125280167Y-74976162D01*
X125623943Y-74834117D01*
X125887192Y-74571327D01*
X126029838Y-74227799D01*
X126030162Y-73855833D01*
X125888117Y-73512057D01*
X125625327Y-73248808D01*
X125281799Y-73106162D01*
X125234923Y-73106121D01*
X124108401Y-71979599D01*
X123861839Y-71814852D01*
X123571000Y-71757000D01*
X100898802Y-71757000D01*
X98090122Y-68948320D01*
X98090162Y-68902833D01*
X97948117Y-68559057D01*
X97685327Y-68295808D01*
X97341799Y-68153162D01*
X96969833Y-68152838D01*
X96626057Y-68294883D01*
X96362808Y-68557673D01*
X96220162Y-68901201D01*
X96219838Y-69273167D01*
X92301440Y-69273167D01*
X92301440Y-65718000D01*
X92252157Y-65470235D01*
X92111809Y-65260191D01*
X91901765Y-65119843D01*
X91654000Y-65070560D01*
X86654000Y-65070560D01*
X86406235Y-65119843D01*
X86196191Y-65260191D01*
X86055843Y-65470235D01*
X86006560Y-65718000D01*
X82710000Y-65718000D01*
X82710000Y-55721920D01*
X82841491Y-55918709D01*
X83051535Y-56059057D01*
X83299300Y-56108340D01*
X85026500Y-56108340D01*
X85274265Y-56059057D01*
X85484309Y-55918709D01*
X85624657Y-55708665D01*
X85631884Y-55672334D01*
X85643230Y-55689315D01*
X86129411Y-56014171D01*
X86702900Y-56128245D01*
X87276389Y-56014171D01*
X87762570Y-55689315D01*
X87969361Y-55379831D01*
X88340864Y-55795632D01*
X88868109Y-56049609D01*
X88883874Y-56052258D01*
X89115900Y-55931117D01*
X89115900Y-54571900D01*
X89369900Y-54571900D01*
X89369900Y-55931117D01*
X89601926Y-56052258D01*
X89617691Y-56049609D01*
X90144936Y-55795632D01*
X90534854Y-55359220D01*
X90728084Y-54806813D01*
X90583824Y-54571900D01*
X89369900Y-54571900D01*
X89115900Y-54571900D01*
X89095900Y-54571900D01*
X89095900Y-54317900D01*
X89115900Y-54317900D01*
X89115900Y-54297900D01*
X89369900Y-54297900D01*
X89369900Y-54317900D01*
X90583824Y-54317900D01*
X90728084Y-54082987D01*
X90600763Y-53719000D01*
X98679260Y-53719000D01*
X98679260Y-55448200D01*
X98728543Y-55695965D01*
X98868891Y-55906009D01*
X99078935Y-56046357D01*
X99326700Y-56095640D01*
X101053900Y-56095640D01*
X101301665Y-56046357D01*
X101511709Y-55906009D01*
X101652057Y-55695965D01*
X101659284Y-55659634D01*
X101670630Y-55676615D01*
X102156811Y-56001471D01*
X102730300Y-56115545D01*
X103303789Y-56001471D01*
X103789970Y-55676615D01*
X103996761Y-55367131D01*
X104368264Y-55782932D01*
X104895509Y-56036909D01*
X104911274Y-56039558D01*
X105143300Y-55918417D01*
X105143300Y-54559200D01*
X105397300Y-54559200D01*
X105397300Y-55918417D01*
X105629326Y-56039558D01*
X105645091Y-56036909D01*
X106172336Y-55782932D01*
X106562254Y-55346520D01*
X106755484Y-54794113D01*
X106611224Y-54559200D01*
X105397300Y-54559200D01*
X105143300Y-54559200D01*
X105123300Y-54559200D01*
X105123300Y-54305200D01*
X105143300Y-54305200D01*
X105143300Y-54285200D01*
X105397300Y-54285200D01*
X105397300Y-54305200D01*
X106611224Y-54305200D01*
X106740646Y-54094448D01*
X110365000Y-57718802D01*
X110365000Y-62347480D01*
X110054568Y-62554904D01*
X110046757Y-62515635D01*
X109906409Y-62305591D01*
X109696365Y-62165243D01*
X109448600Y-62115960D01*
X107721400Y-62115960D01*
X107473635Y-62165243D01*
X107263591Y-62305591D01*
X107123243Y-62515635D01*
X107085780Y-62703978D01*
X105947401Y-61565599D01*
X105700839Y-61400852D01*
X105410000Y-61343000D01*
X104448463Y-61343000D01*
X104416327Y-61310808D01*
X104072799Y-61168162D01*
X103700833Y-61167838D01*
X103357057Y-61309883D01*
X103093808Y-61572673D01*
X102951162Y-61916201D01*
X102950838Y-62288167D01*
X103092883Y-62631943D01*
X103355673Y-62895192D01*
X103699201Y-63037838D01*
X104071167Y-63038162D01*
X104414943Y-62896117D01*
X104448118Y-62863000D01*
X105095198Y-62863000D01*
X106174000Y-63941802D01*
X106174000Y-64625897D01*
X106104799Y-64597162D01*
X105732833Y-64596838D01*
X105389057Y-64738883D01*
X105125808Y-65001673D01*
X104983162Y-65345201D01*
X104982838Y-65717167D01*
X105124883Y-66060943D01*
X105387673Y-66324192D01*
X105731201Y-66466838D01*
X105778077Y-66466879D01*
X107258198Y-67947000D01*
X106232802Y-67947000D01*
X104550401Y-66264599D01*
X104303839Y-66099852D01*
X104013000Y-66042000D01*
X97844463Y-66042000D01*
X97812327Y-66009808D01*
X97468799Y-65867162D01*
X97096833Y-65866838D01*
X96753057Y-66008883D01*
X96489808Y-66271673D01*
X96347162Y-66615201D01*
X96346838Y-66987167D01*
X96488883Y-67330943D01*
X96751673Y-67594192D01*
X97095201Y-67736838D01*
X97467167Y-67737162D01*
X97810943Y-67595117D01*
X97844118Y-67562000D01*
X103698198Y-67562000D01*
X105380599Y-69244401D01*
X105627161Y-69409148D01*
X105918000Y-69467000D01*
X107295738Y-69467000D01*
X107495971Y-69766670D01*
X107982152Y-70091526D01*
X108555641Y-70205600D01*
X108614359Y-70205600D01*
X109187848Y-70091526D01*
X109674029Y-69766670D01*
X109854992Y-69495839D01*
X110236510Y-69913821D01*
X110765973Y-70161968D01*
X110998000Y-70041469D01*
X110998000Y-68834000D01*
X111252000Y-68834000D01*
X111252000Y-70041469D01*
X111484027Y-70161968D01*
X112013490Y-69913821D01*
X112407688Y-69481947D01*
X112579958Y-69066026D01*
X112458817Y-68834000D01*
X111252000Y-68834000D01*
X110998000Y-68834000D01*
X110978000Y-68834000D01*
X110978000Y-68580000D01*
X110998000Y-68580000D01*
X110998000Y-68560000D01*
X111252000Y-68560000D01*
X111252000Y-68580000D01*
X112458817Y-68580000D01*
X112579958Y-68347974D01*
X112478804Y-68103750D01*
X115319000Y-68103750D01*
X115319000Y-70044310D01*
X115415673Y-70277699D01*
X115594302Y-70456327D01*
X115827691Y-70553000D01*
X118168250Y-70553000D01*
X118327000Y-70394250D01*
X118327000Y-67945000D01*
X118581000Y-67945000D01*
X118581000Y-70394250D01*
X118739750Y-70553000D01*
X121080309Y-70553000D01*
X121313698Y-70456327D01*
X121492327Y-70277699D01*
X121589000Y-70044310D01*
X121589000Y-68103750D01*
X121430250Y-67945000D01*
X118581000Y-67945000D01*
X118327000Y-67945000D01*
X115477750Y-67945000D01*
X115319000Y-68103750D01*
X112478804Y-68103750D01*
X112452578Y-68040432D01*
X112551401Y-67974401D01*
X113694401Y-66831401D01*
X113859148Y-66584839D01*
X113901903Y-66369899D01*
X114680112Y-65591690D01*
X115319000Y-65591690D01*
X115319000Y-67532250D01*
X115477750Y-67691000D01*
X118327000Y-67691000D01*
X118327000Y-65241750D01*
X118581000Y-65241750D01*
X118581000Y-67691000D01*
X121430250Y-67691000D01*
X121589000Y-67532250D01*
X121589000Y-65591690D01*
X121492327Y-65358301D01*
X121313698Y-65179673D01*
X121080309Y-65083000D01*
X118739750Y-65083000D01*
X118581000Y-65241750D01*
X118327000Y-65241750D01*
X118168250Y-65083000D01*
X115827691Y-65083000D01*
X115594302Y-65179673D01*
X115415673Y-65358301D01*
X115319000Y-65591690D01*
X114680112Y-65591690D01*
X115709680Y-64562122D01*
X115755167Y-64562162D01*
X116098943Y-64420117D01*
X116362192Y-64157327D01*
X116504838Y-63813799D01*
X116505162Y-63441833D01*
X116363117Y-63098057D01*
X116100327Y-62834808D01*
X115756799Y-62692162D01*
X115547822Y-62691980D01*
X120075802Y-58164000D01*
X127072537Y-58164000D01*
X127104673Y-58196192D01*
X127448201Y-58338838D01*
X127820167Y-58339162D01*
X128163943Y-58197117D01*
X128427192Y-57934327D01*
X128569838Y-57590799D01*
X128570162Y-57218833D01*
X128428117Y-56875057D01*
X128165327Y-56611808D01*
X127821799Y-56469162D01*
X127449833Y-56468838D01*
X127106057Y-56610883D01*
X127072882Y-56644000D01*
X119761000Y-56644000D01*
X119470160Y-56701852D01*
X119223599Y-56866599D01*
X112621476Y-63468722D01*
X112538885Y-63053511D01*
X112214029Y-62567330D01*
X111885000Y-62347480D01*
X111885000Y-57404000D01*
X111827148Y-57113161D01*
X111827148Y-57113160D01*
X111662401Y-56866599D01*
X108005802Y-53210000D01*
X130290000Y-53210000D01*
X130290000Y-78290000D01*
M02*
