M48
;DRILL file {KiCad no-vcs-found-7500~57~ubuntu16.04.1} date Wed Jan 25 22:27:10 2017
;FORMAT={-:-/ absolute / metric / decimal}
FMAT,2
METRIC,TZ
T1C0.300
T2C0.400
T3C1.000
T4C1.016
%
G90
G05
M71
T1
X108.585Y-63.627
X108.585Y-66.167
X108.585Y-68.707
X111.125Y-63.627
X111.125Y-66.167
X111.125Y-68.707
T2
X97.155Y-69.088
X97.282Y-66.802
X103.886Y-62.103
X105.918Y-65.532
X115.57Y-63.627
X125.095Y-74.041
X127.635Y-57.404
T3
X97.917Y-76.327
X100.457Y-76.327
T4
X84.163Y-54.445
X86.703Y-54.445
X89.243Y-54.445
X100.19Y-54.432
X102.73Y-54.432
X105.27Y-54.432
X115.697Y-74.93
T0
M30
