G04 #@! TF.FileFunction,Soldermask,Bot*
%FSLAX46Y46*%
G04 Gerber Fmt 4.6, Leading zero omitted, Abs format (unit mm)*
G04 Created by KiCad (PCBNEW 4.0.5-e0-6337~49~ubuntu16.04.1) date Tue Jan 17 09:06:28 2017*
%MOMM*%
%LPD*%
G01*
G04 APERTURE LIST*
%ADD10C,0.100000*%
%ADD11R,2.940000X2.940000*%
%ADD12C,2.940000*%
%ADD13O,2.700000X2.000000*%
%ADD14O,2.432000X2.940000*%
%ADD15C,1.700000*%
%ADD16R,1.700000X1.700000*%
%ADD17C,3.400000*%
%ADD18R,2.400000X2.400000*%
%ADD19C,2.400000*%
%ADD20R,2.100000X2.100000*%
%ADD21C,2.099260*%
%ADD22O,2.100000X2.100000*%
G04 APERTURE END LIST*
D10*
D11*
X138430000Y-47625000D03*
D12*
X138430000Y-42545000D03*
D11*
X138430000Y-57785000D03*
D12*
X138430000Y-52705000D03*
D11*
X138430000Y-68580000D03*
D12*
X138430000Y-63500000D03*
D11*
X138430000Y-80010000D03*
D12*
X138430000Y-74930000D03*
D11*
X138430000Y-91440000D03*
D12*
X138430000Y-86360000D03*
D11*
X138430000Y-102870000D03*
D12*
X138430000Y-97790000D03*
D11*
X138430000Y-114300000D03*
D12*
X138430000Y-109220000D03*
D11*
X138430000Y-125730000D03*
D12*
X138430000Y-120650000D03*
D11*
X138430000Y-137160000D03*
D12*
X138430000Y-132080000D03*
D13*
X91440000Y-45085000D03*
X91440000Y-42545000D03*
X83820000Y-42545000D03*
X83820000Y-45085000D03*
X83820000Y-52070000D03*
X83820000Y-54610000D03*
X83820000Y-57150000D03*
X91440000Y-57150000D03*
X91440000Y-54610000D03*
X91440000Y-52070000D03*
X83820000Y-63500000D03*
X83820000Y-66040000D03*
X83820000Y-68580000D03*
X91440000Y-68580000D03*
X91440000Y-66040000D03*
X91440000Y-63500000D03*
X83820000Y-74930000D03*
X83820000Y-77470000D03*
X83820000Y-80010000D03*
X91440000Y-80010000D03*
X91440000Y-77470000D03*
X91440000Y-74930000D03*
X83820000Y-86360000D03*
X83820000Y-88900000D03*
X83820000Y-91440000D03*
X91440000Y-91440000D03*
X91440000Y-88900000D03*
X91440000Y-86360000D03*
X83820000Y-97790000D03*
X83820000Y-100330000D03*
X83820000Y-102870000D03*
X91440000Y-102870000D03*
X91440000Y-100330000D03*
X91440000Y-97790000D03*
X83820000Y-109220000D03*
X83820000Y-111760000D03*
X83820000Y-114300000D03*
X91440000Y-114300000D03*
X91440000Y-111760000D03*
X91440000Y-109220000D03*
X83820000Y-120650000D03*
X83820000Y-123190000D03*
X83820000Y-125730000D03*
X91440000Y-125730000D03*
X91440000Y-123190000D03*
X91440000Y-120650000D03*
X83820000Y-132080000D03*
X83820000Y-134620000D03*
X83820000Y-137160000D03*
X91440000Y-137160000D03*
X91440000Y-134620000D03*
X91440000Y-132080000D03*
D14*
X99695000Y-57150000D03*
X97155000Y-57150000D03*
X102235000Y-57150000D03*
X99695000Y-68580000D03*
X97155000Y-68580000D03*
X102235000Y-68580000D03*
X99695000Y-80010000D03*
X97155000Y-80010000D03*
X102235000Y-80010000D03*
X99695000Y-91440000D03*
X97155000Y-91440000D03*
X102235000Y-91440000D03*
X99695000Y-102870000D03*
X97155000Y-102870000D03*
X102235000Y-102870000D03*
X99695000Y-114300000D03*
X97155000Y-114300000D03*
X102235000Y-114300000D03*
X99695000Y-125730000D03*
X97155000Y-125730000D03*
X102235000Y-125730000D03*
X99695000Y-137160000D03*
X97155000Y-137160000D03*
X102235000Y-137160000D03*
D15*
X56515000Y-42585000D03*
D16*
X56515000Y-45085000D03*
D15*
X64135000Y-42585000D03*
D16*
X64135000Y-45085000D03*
D11*
X48895000Y-42545000D03*
D12*
X48895000Y-47625000D03*
D17*
X109220000Y-52070000D03*
X131720000Y-52070000D03*
X109220000Y-63500000D03*
X131720000Y-63500000D03*
X109220000Y-74930000D03*
X131720000Y-74930000D03*
X109220000Y-86360000D03*
X131720000Y-86360000D03*
X109220000Y-97790000D03*
X131720000Y-97790000D03*
X109220000Y-109220000D03*
X131720000Y-109220000D03*
X109220000Y-120650000D03*
X131720000Y-120650000D03*
X109220000Y-132080000D03*
X131720000Y-132080000D03*
D18*
X80010000Y-52070000D03*
D19*
X77470000Y-52070000D03*
D18*
X80010000Y-63500000D03*
D19*
X77470000Y-63500000D03*
D18*
X80010000Y-74930000D03*
D19*
X77470000Y-74930000D03*
D18*
X80010000Y-86360000D03*
D19*
X77470000Y-86360000D03*
D18*
X80010000Y-97790000D03*
D19*
X77470000Y-97790000D03*
D18*
X80010000Y-109220000D03*
D19*
X77470000Y-109220000D03*
D18*
X80010000Y-120650000D03*
D19*
X77470000Y-120650000D03*
D18*
X80010000Y-132080000D03*
D19*
X77470000Y-132080000D03*
D20*
X68580000Y-126365000D03*
D21*
X95249480Y-45087540D03*
X105409480Y-45087540D03*
X105410520Y-52067460D03*
X95250520Y-52067460D03*
X106045520Y-63497460D03*
X95885520Y-63497460D03*
X105410520Y-74927460D03*
X95250520Y-74927460D03*
X106045520Y-86357460D03*
X95885520Y-86357460D03*
X106045520Y-97787460D03*
X95885520Y-97787460D03*
X106045520Y-109217460D03*
X95885520Y-109217460D03*
X106045520Y-120647460D03*
X95885520Y-120647460D03*
X105410520Y-132077460D03*
X95250520Y-132077460D03*
X100329480Y-42547540D03*
X110489480Y-42547540D03*
D20*
X55880000Y-104140000D03*
D22*
X55880000Y-101600000D03*
X58420000Y-104140000D03*
X58420000Y-101600000D03*
X60960000Y-104140000D03*
X60960000Y-101600000D03*
M02*
