M48
;DRILL file {KiCad 4.0.5-e0-6337~49~ubuntu16.04.1} date Wed Jan 18 08:16:49 2017
;FORMAT={-:-/ absolute / metric / decimal}
FMAT,2
METRIC,TZ
T1C0.400
T2C0.762
T3C0.800
T4C1.000
T5C1.001
T6C1.270
T7C1.524
%
G90
G05
M71
T1
X139.319Y-126.365
X140.97Y-122.936
X142.621Y-120.142
X145.542Y-120.142
X147.193Y-115.824
X149.987Y-118.745
X164.973Y-121.539
X169.85Y-119.875
X176.022Y-123.063
T2
X151.13Y-86.995
X151.13Y-92.075
X180.594Y-81.915
X180.594Y-97.155
T3
X139.7Y-104.775
X139.7Y-112.395
X142.24Y-104.775
X142.24Y-112.395
X144.78Y-104.775
X144.78Y-112.395
X151.13Y-104.775
X151.13Y-112.395
X153.67Y-104.775
X153.67Y-112.395
X156.21Y-104.775
X156.21Y-112.395
X178.975Y-102.743
X180.975Y-102.743
T4
X153.797Y-119.888
X153.797Y-122.428
X153.797Y-124.968
X156.337Y-119.888
X156.337Y-122.428
X156.337Y-124.968
X178.308Y-107.442
T5
X137.16Y-101.597
X161.29Y-101.603
T6
X147.32Y-101.597
X151.13Y-101.603
T7
X141.605Y-83.82
X141.605Y-88.9
X141.605Y-93.98
T0
M30
