G04 #@! TF.FileFunction,Copper,L1,Top,Signal*
%FSLAX46Y46*%
G04 Gerber Fmt 4.6, Leading zero omitted, Abs format (unit mm)*
G04 Created by KiCad (PCBNEW 4.0.5-e0-6337~49~ubuntu16.04.1) date Wed Jan 18 08:16:45 2017*
%MOMM*%
%LPD*%
G01*
G04 APERTURE LIST*
%ADD10C,0.100000*%
%ADD11R,3.000000X1.200000*%
%ADD12R,1.300000X1.300000*%
%ADD13C,1.300000*%
%ADD14C,1.998980*%
%ADD15R,1.998980X1.998980*%
%ADD16R,2.540000X2.540000*%
%ADD17C,2.540000*%
%ADD18C,2.000000*%
%ADD19O,1.600000X2.300000*%
%ADD20R,0.550000X1.600000*%
%ADD21R,1.600000X0.550000*%
%ADD22R,1.700000X1.700000*%
%ADD23O,1.700000X1.700000*%
%ADD24R,3.800000X2.000000*%
%ADD25R,1.500000X2.000000*%
%ADD26R,2.000000X1.700000*%
%ADD27C,0.600000*%
%ADD28C,0.250000*%
%ADD29C,0.254000*%
G04 APERTURE END LIST*
D10*
D11*
X180470000Y-125095000D03*
X180470000Y-123095000D03*
X180470000Y-121095000D03*
X180470000Y-119095000D03*
X180470000Y-117095000D03*
X180470000Y-115095000D03*
X180470000Y-113095000D03*
X180470000Y-111095000D03*
X160770000Y-111095000D03*
X160770000Y-113095000D03*
X160770000Y-115095000D03*
X160770000Y-117095000D03*
X160770000Y-119095000D03*
X160770000Y-121095000D03*
X160770000Y-123095000D03*
X160770000Y-125095000D03*
D12*
X180975000Y-102743000D03*
D13*
X178975000Y-102743000D03*
D14*
X147320000Y-101597460D03*
D15*
X137160000Y-101597460D03*
D16*
X141605000Y-83820000D03*
D17*
X141605000Y-88900000D03*
X141605000Y-93980000D03*
D14*
X151130000Y-101602540D03*
D15*
X161290000Y-101602540D03*
D18*
X151130000Y-86995000D03*
X151130000Y-92075000D03*
X180594000Y-81915000D03*
X180594000Y-97155000D03*
D19*
X139700000Y-112395000D03*
X142240000Y-112395000D03*
X144780000Y-112395000D03*
X144780000Y-104775000D03*
X142240000Y-104775000D03*
X139700000Y-104775000D03*
X151130000Y-112395000D03*
X153670000Y-112395000D03*
X156210000Y-112395000D03*
X156210000Y-104775000D03*
X153670000Y-104775000D03*
X151130000Y-104775000D03*
D20*
X140710000Y-126805000D03*
X141510000Y-126805000D03*
X142310000Y-126805000D03*
X143110000Y-126805000D03*
X143910000Y-126805000D03*
X144710000Y-126805000D03*
X145510000Y-126805000D03*
X146310000Y-126805000D03*
D21*
X147760000Y-125355000D03*
X147760000Y-124555000D03*
X147760000Y-123755000D03*
X147760000Y-122955000D03*
X147760000Y-122155000D03*
X147760000Y-121355000D03*
X147760000Y-120555000D03*
X147760000Y-119755000D03*
D20*
X146310000Y-118305000D03*
X145510000Y-118305000D03*
X144710000Y-118305000D03*
X143910000Y-118305000D03*
X143110000Y-118305000D03*
X142310000Y-118305000D03*
X141510000Y-118305000D03*
X140710000Y-118305000D03*
D21*
X139260000Y-119755000D03*
X139260000Y-120555000D03*
X139260000Y-121355000D03*
X139260000Y-122155000D03*
X139260000Y-122955000D03*
X139260000Y-123755000D03*
X139260000Y-124555000D03*
X139260000Y-125355000D03*
D22*
X153797000Y-119888000D03*
D23*
X156337000Y-119888000D03*
X153797000Y-122428000D03*
X156337000Y-122428000D03*
X153797000Y-124968000D03*
X156337000Y-124968000D03*
D24*
X172974000Y-107544000D03*
D25*
X172974000Y-101244000D03*
X170674000Y-101244000D03*
X175274000Y-101244000D03*
D22*
X178308000Y-107442000D03*
D26*
X139605000Y-115570000D03*
X143605000Y-115570000D03*
X153130000Y-115570000D03*
X149130000Y-115570000D03*
D27*
X145542000Y-120142000D03*
X169850000Y-119875000D03*
X142621000Y-120142000D03*
X147193000Y-115824000D03*
X164973000Y-121539000D03*
X149987000Y-118745000D03*
X140970000Y-122936000D03*
X176022000Y-123063000D03*
X139319000Y-126365000D03*
D28*
X143910000Y-127997000D02*
X153308000Y-127997000D01*
X153308000Y-127997000D02*
X156337000Y-124968000D01*
X143110000Y-118305000D02*
X143110000Y-119361000D01*
X142310000Y-125279000D02*
X142310000Y-126805000D01*
X143383000Y-124206000D02*
X142310000Y-125279000D01*
X143383000Y-119634000D02*
X143383000Y-124206000D01*
X143110000Y-119361000D02*
X143383000Y-119634000D01*
X142310000Y-126805000D02*
X142310000Y-127959000D01*
X143910000Y-127997000D02*
X143910000Y-126805000D01*
X143891000Y-128016000D02*
X143910000Y-127997000D01*
X142367000Y-128016000D02*
X143891000Y-128016000D01*
X142310000Y-127959000D02*
X142367000Y-128016000D01*
X144710000Y-123698000D02*
X144710000Y-120974000D01*
X144710000Y-120974000D02*
X145542000Y-120142000D01*
X143110000Y-126805000D02*
X143110000Y-125495000D01*
X143637000Y-124968000D02*
X144710000Y-124968000D01*
X143110000Y-125495000D02*
X143637000Y-124968000D01*
X144710000Y-123698000D02*
X144710000Y-124968000D01*
X144710000Y-124968000D02*
X144710000Y-126805000D01*
X180470000Y-111095000D02*
X178630000Y-111095000D01*
X178630000Y-111095000D02*
X169850000Y-119875000D01*
X179350000Y-104368000D02*
X179843000Y-104368000D01*
X180470000Y-104995000D02*
X180470000Y-111095000D01*
X179843000Y-104368000D02*
X180470000Y-104995000D01*
X172974000Y-101244000D02*
X172974000Y-103499000D01*
X179343000Y-104375000D02*
X179350000Y-104368000D01*
X179350000Y-104368000D02*
X180975000Y-102743000D01*
X173850000Y-104375000D02*
X179343000Y-104375000D01*
X172974000Y-103499000D02*
X173850000Y-104375000D01*
X140589000Y-116967000D02*
X140208000Y-116967000D01*
X137795000Y-127000000D02*
X138938000Y-128143000D01*
X137795000Y-119380000D02*
X137795000Y-127000000D01*
X140208000Y-116967000D02*
X137795000Y-119380000D01*
X141510000Y-126805000D02*
X141510000Y-127730000D01*
X141097000Y-128143000D02*
X138938000Y-128143000D01*
X141510000Y-127730000D02*
X141097000Y-128143000D01*
X142208000Y-116967000D02*
X143605000Y-115570000D01*
X140589000Y-116967000D02*
X142208000Y-116967000D01*
X140710000Y-126805000D02*
X140710000Y-125482000D01*
X142621000Y-123571000D02*
X142621000Y-120142000D01*
X140710000Y-125482000D02*
X142621000Y-123571000D01*
X147447000Y-115570000D02*
X149130000Y-115570000D01*
X147193000Y-115824000D02*
X147447000Y-115570000D01*
X151130000Y-104775000D02*
X150495000Y-104775000D01*
X150495000Y-104775000D02*
X149225000Y-103505000D01*
X149225000Y-103505000D02*
X149225000Y-99822000D01*
X149225000Y-99822000D02*
X145796000Y-96393000D01*
X139700000Y-104775000D02*
X139700000Y-102489000D01*
X147193000Y-90932000D02*
X151130000Y-86995000D01*
X147193000Y-94996000D02*
X147193000Y-90932000D01*
X139700000Y-102489000D02*
X145796000Y-96393000D01*
X145796000Y-96393000D02*
X147193000Y-94996000D01*
X139700000Y-112395000D02*
X139700000Y-115475000D01*
X139700000Y-115475000D02*
X139605000Y-115570000D01*
X153130000Y-115570000D02*
X152545000Y-115570000D01*
X152545000Y-115570000D02*
X151130000Y-114155000D01*
X151130000Y-114155000D02*
X151130000Y-112395000D01*
X170674000Y-101244000D02*
X170674000Y-99963000D01*
X170674000Y-99963000D02*
X171323000Y-99314000D01*
X178435000Y-99314000D02*
X180594000Y-97155000D01*
X171323000Y-99314000D02*
X178435000Y-99314000D01*
X155829000Y-123698000D02*
X151130000Y-123698000D01*
X151130000Y-123698000D02*
X150114000Y-122682000D01*
X160770000Y-123095000D02*
X158337000Y-123095000D01*
X157734000Y-123698000D02*
X155829000Y-123698000D01*
X158337000Y-123095000D02*
X157734000Y-123698000D01*
X147760000Y-121355000D02*
X148787000Y-121355000D01*
X148787000Y-121355000D02*
X150114000Y-122682000D01*
X156337000Y-122428000D02*
X156083000Y-122428000D01*
X156083000Y-122428000D02*
X154813000Y-121158000D01*
X150495000Y-121158000D02*
X150368000Y-121031000D01*
X154813000Y-121158000D02*
X150495000Y-121158000D01*
X156337000Y-122428000D02*
X156972000Y-122428000D01*
X156972000Y-122428000D02*
X158305000Y-121095000D01*
X158305000Y-121095000D02*
X160770000Y-121095000D01*
X147760000Y-120555000D02*
X149892000Y-120555000D01*
X149892000Y-120555000D02*
X150368000Y-121031000D01*
X156337000Y-122428000D02*
X156337000Y-122301000D01*
X160770000Y-119095000D02*
X162529000Y-119095000D01*
X162529000Y-119095000D02*
X164973000Y-121539000D01*
X147760000Y-119755000D02*
X153664000Y-119755000D01*
X153664000Y-119755000D02*
X153797000Y-119888000D01*
X147893000Y-119888000D02*
X147760000Y-119755000D01*
X153797000Y-119888000D02*
X153797000Y-119761000D01*
X149860000Y-118618000D02*
X149860000Y-118305000D01*
X149987000Y-118745000D02*
X149860000Y-118618000D01*
X155003500Y-118427500D02*
X155892500Y-118427500D01*
X157225000Y-117095000D02*
X160770000Y-117095000D01*
X155892500Y-118427500D02*
X157225000Y-117095000D01*
X153797000Y-122428000D02*
X154051000Y-122428000D01*
X154881000Y-118305000D02*
X149860000Y-118305000D01*
X149860000Y-118305000D02*
X146310000Y-118305000D01*
X155003500Y-118427500D02*
X154881000Y-118305000D01*
X139260000Y-122955000D02*
X140951000Y-122955000D01*
X140951000Y-122955000D02*
X140970000Y-122936000D01*
X139260000Y-125355000D02*
X139260000Y-126306000D01*
X176054000Y-123095000D02*
X180470000Y-123095000D01*
X176022000Y-123063000D02*
X176054000Y-123095000D01*
X139260000Y-126306000D02*
X139319000Y-126365000D01*
X160770000Y-113095000D02*
X172655000Y-113095000D01*
X172655000Y-113095000D02*
X178308000Y-107442000D01*
D29*
G36*
X182640000Y-127665000D02*
X147220290Y-127665000D01*
X147232440Y-127605000D01*
X147232440Y-126277440D01*
X148560000Y-126277440D01*
X148795317Y-126233162D01*
X149011441Y-126094090D01*
X149156431Y-125881890D01*
X149207440Y-125630000D01*
X149207440Y-125080000D01*
X149183056Y-124950411D01*
X149207440Y-124830000D01*
X149207440Y-124280000D01*
X149183056Y-124150411D01*
X149207440Y-124030000D01*
X149207440Y-123480000D01*
X149183056Y-123350411D01*
X149207440Y-123230000D01*
X149207440Y-122850242D01*
X150592599Y-124235401D01*
X150839161Y-124400148D01*
X151130000Y-124458000D01*
X152384352Y-124458000D01*
X152282907Y-124968000D01*
X152395946Y-125536285D01*
X152717853Y-126018054D01*
X153199622Y-126339961D01*
X153767907Y-126453000D01*
X153826093Y-126453000D01*
X154394378Y-126339961D01*
X154876147Y-126018054D01*
X155065345Y-125734899D01*
X155065355Y-125734924D01*
X155455642Y-126163183D01*
X155980108Y-126409486D01*
X156210000Y-126288819D01*
X156210000Y-125095000D01*
X156464000Y-125095000D01*
X156464000Y-126288819D01*
X156693892Y-126409486D01*
X157218358Y-126163183D01*
X157608645Y-125734924D01*
X157778476Y-125324890D01*
X157657155Y-125095000D01*
X156464000Y-125095000D01*
X156210000Y-125095000D01*
X156190000Y-125095000D01*
X156190000Y-124841000D01*
X156210000Y-124841000D01*
X156210000Y-124821000D01*
X156464000Y-124821000D01*
X156464000Y-124841000D01*
X157657155Y-124841000D01*
X157778476Y-124611110D01*
X157715060Y-124458000D01*
X157734000Y-124458000D01*
X158024839Y-124400148D01*
X158271401Y-124235401D01*
X158651802Y-123855000D01*
X158652666Y-123855000D01*
X158666838Y-123930317D01*
X158773759Y-124096477D01*
X158673569Y-124243110D01*
X158622560Y-124495000D01*
X158622560Y-125695000D01*
X158666838Y-125930317D01*
X158805910Y-126146441D01*
X159018110Y-126291431D01*
X159270000Y-126342440D01*
X162270000Y-126342440D01*
X162505317Y-126298162D01*
X162721441Y-126159090D01*
X162866431Y-125946890D01*
X162917440Y-125695000D01*
X162917440Y-124495000D01*
X162873162Y-124259683D01*
X162766241Y-124093523D01*
X162866431Y-123946890D01*
X162917440Y-123695000D01*
X162917440Y-122495000D01*
X162873162Y-122259683D01*
X162766241Y-122093523D01*
X162866431Y-121946890D01*
X162917440Y-121695000D01*
X162917440Y-120558242D01*
X164037878Y-121678680D01*
X164037838Y-121724167D01*
X164179883Y-122067943D01*
X164442673Y-122331192D01*
X164786201Y-122473838D01*
X165158167Y-122474162D01*
X165501943Y-122332117D01*
X165765192Y-122069327D01*
X165907838Y-121725799D01*
X165908162Y-121353833D01*
X165766117Y-121010057D01*
X165503327Y-120746808D01*
X165159799Y-120604162D01*
X165112923Y-120604121D01*
X163066401Y-118557599D01*
X162909491Y-118452755D01*
X162873162Y-118259683D01*
X162766241Y-118093523D01*
X162866431Y-117946890D01*
X162917440Y-117695000D01*
X162917440Y-116495000D01*
X162873162Y-116259683D01*
X162767518Y-116095508D01*
X162808327Y-116054699D01*
X162905000Y-115821310D01*
X162905000Y-115380750D01*
X162746250Y-115222000D01*
X160897000Y-115222000D01*
X160897000Y-115242000D01*
X160643000Y-115242000D01*
X160643000Y-115222000D01*
X158793750Y-115222000D01*
X158635000Y-115380750D01*
X158635000Y-115821310D01*
X158731673Y-116054699D01*
X158773634Y-116096660D01*
X158673569Y-116243110D01*
X158654961Y-116335000D01*
X157225000Y-116335000D01*
X156934161Y-116392852D01*
X156687599Y-116557599D01*
X155577698Y-117667500D01*
X155268592Y-117667500D01*
X155171839Y-117602852D01*
X154881000Y-117545000D01*
X147232440Y-117545000D01*
X147232440Y-117505000D01*
X147188162Y-117269683D01*
X147049090Y-117053559D01*
X146836890Y-116908569D01*
X146585000Y-116857560D01*
X146035000Y-116857560D01*
X145905411Y-116881944D01*
X145785000Y-116857560D01*
X145235000Y-116857560D01*
X145105411Y-116881944D01*
X145063681Y-116873493D01*
X145201431Y-116671890D01*
X145252440Y-116420000D01*
X145252440Y-114720000D01*
X145208162Y-114484683D01*
X145069090Y-114268559D01*
X144943161Y-114182515D01*
X145329151Y-114105737D01*
X145794698Y-113794668D01*
X146105767Y-113329121D01*
X146215000Y-112779970D01*
X146215000Y-112010030D01*
X146213403Y-112002000D01*
X149696597Y-112002000D01*
X149695000Y-112010030D01*
X149695000Y-112779970D01*
X149804233Y-113329121D01*
X150115302Y-113794668D01*
X150370000Y-113964852D01*
X150370000Y-114121161D01*
X150130000Y-114072560D01*
X148130000Y-114072560D01*
X147894683Y-114116838D01*
X147678559Y-114255910D01*
X147533569Y-114468110D01*
X147482560Y-114720000D01*
X147482560Y-114810000D01*
X147447000Y-114810000D01*
X147156160Y-114867852D01*
X147124600Y-114888940D01*
X147007833Y-114888838D01*
X146664057Y-115030883D01*
X146400808Y-115293673D01*
X146258162Y-115637201D01*
X146257838Y-116009167D01*
X146399883Y-116352943D01*
X146662673Y-116616192D01*
X147006201Y-116758838D01*
X147378167Y-116759162D01*
X147548399Y-116688824D01*
X147665910Y-116871441D01*
X147878110Y-117016431D01*
X148130000Y-117067440D01*
X150130000Y-117067440D01*
X150365317Y-117023162D01*
X150581441Y-116884090D01*
X150726431Y-116671890D01*
X150777440Y-116420000D01*
X150777440Y-114877242D01*
X151482560Y-115582362D01*
X151482560Y-116420000D01*
X151526838Y-116655317D01*
X151665910Y-116871441D01*
X151878110Y-117016431D01*
X152130000Y-117067440D01*
X154130000Y-117067440D01*
X154365317Y-117023162D01*
X154581441Y-116884090D01*
X154726431Y-116671890D01*
X154777440Y-116420000D01*
X154777440Y-114720000D01*
X154733162Y-114484683D01*
X154594090Y-114268559D01*
X154381890Y-114123569D01*
X154171854Y-114081036D01*
X154594896Y-113849500D01*
X154942851Y-113416849D01*
X155195302Y-113794668D01*
X155660849Y-114105737D01*
X156210000Y-114214970D01*
X156759151Y-114105737D01*
X157224698Y-113794668D01*
X157535767Y-113329121D01*
X157645000Y-112779970D01*
X157645000Y-112010030D01*
X157535767Y-111460879D01*
X157298629Y-111105977D01*
X158035916Y-110368690D01*
X158635000Y-110368690D01*
X158635000Y-110809250D01*
X158793750Y-110968000D01*
X160643000Y-110968000D01*
X160643000Y-110018750D01*
X160897000Y-110018750D01*
X160897000Y-110968000D01*
X162746250Y-110968000D01*
X162905000Y-110809250D01*
X162905000Y-110368690D01*
X162808327Y-110135301D01*
X162629698Y-109956673D01*
X162396309Y-109860000D01*
X161055750Y-109860000D01*
X160897000Y-110018750D01*
X160643000Y-110018750D01*
X160484250Y-109860000D01*
X159143691Y-109860000D01*
X158910302Y-109956673D01*
X158731673Y-110135301D01*
X158635000Y-110368690D01*
X158035916Y-110368690D01*
X159402606Y-109002000D01*
X167350000Y-109002000D01*
X167399410Y-108991994D01*
X167441035Y-108963553D01*
X167468315Y-108921159D01*
X167477000Y-108875000D01*
X167477000Y-106544000D01*
X170426560Y-106544000D01*
X170426560Y-108544000D01*
X170470838Y-108779317D01*
X170609910Y-108995441D01*
X170822110Y-109140431D01*
X171074000Y-109191440D01*
X174874000Y-109191440D01*
X175109317Y-109147162D01*
X175325441Y-109008090D01*
X175470431Y-108795890D01*
X175521440Y-108544000D01*
X175521440Y-106544000D01*
X175477162Y-106308683D01*
X175338090Y-106092559D01*
X175125890Y-105947569D01*
X174874000Y-105896560D01*
X171074000Y-105896560D01*
X170838683Y-105940838D01*
X170622559Y-106079910D01*
X170477569Y-106292110D01*
X170426560Y-106544000D01*
X167477000Y-106544000D01*
X167477000Y-100927606D01*
X169402606Y-99002000D01*
X170560198Y-99002000D01*
X170136599Y-99425599D01*
X170022367Y-99596560D01*
X169924000Y-99596560D01*
X169688683Y-99640838D01*
X169472559Y-99779910D01*
X169327569Y-99992110D01*
X169276560Y-100244000D01*
X169276560Y-102244000D01*
X169320838Y-102479317D01*
X169459910Y-102695441D01*
X169672110Y-102840431D01*
X169924000Y-102891440D01*
X171424000Y-102891440D01*
X171659317Y-102847162D01*
X171825477Y-102740241D01*
X171972110Y-102840431D01*
X172214000Y-102889415D01*
X172214000Y-103499000D01*
X172271852Y-103789839D01*
X172436599Y-104036401D01*
X173312599Y-104912401D01*
X173559161Y-105077148D01*
X173850000Y-105135000D01*
X179343000Y-105135000D01*
X179378191Y-105128000D01*
X179528198Y-105128000D01*
X179710000Y-105309802D01*
X179710000Y-106277175D01*
X179622090Y-106140559D01*
X179409890Y-105995569D01*
X179158000Y-105944560D01*
X177458000Y-105944560D01*
X177222683Y-105988838D01*
X177006559Y-106127910D01*
X176861569Y-106340110D01*
X176810560Y-106592000D01*
X176810560Y-107864638D01*
X172340198Y-112335000D01*
X162887334Y-112335000D01*
X162873162Y-112259683D01*
X162767518Y-112095508D01*
X162808327Y-112054699D01*
X162905000Y-111821310D01*
X162905000Y-111380750D01*
X162746250Y-111222000D01*
X160897000Y-111222000D01*
X160897000Y-111242000D01*
X160643000Y-111242000D01*
X160643000Y-111222000D01*
X158793750Y-111222000D01*
X158635000Y-111380750D01*
X158635000Y-111821310D01*
X158731673Y-112054699D01*
X158773634Y-112096660D01*
X158673569Y-112243110D01*
X158622560Y-112495000D01*
X158622560Y-113695000D01*
X158666838Y-113930317D01*
X158772482Y-114094492D01*
X158731673Y-114135301D01*
X158635000Y-114368690D01*
X158635000Y-114809250D01*
X158793750Y-114968000D01*
X160643000Y-114968000D01*
X160643000Y-114948000D01*
X160897000Y-114948000D01*
X160897000Y-114968000D01*
X162746250Y-114968000D01*
X162905000Y-114809250D01*
X162905000Y-114368690D01*
X162808327Y-114135301D01*
X162766366Y-114093340D01*
X162866431Y-113946890D01*
X162885039Y-113855000D01*
X172655000Y-113855000D01*
X172945839Y-113797148D01*
X173192401Y-113632401D01*
X177885362Y-108939440D01*
X179158000Y-108939440D01*
X179393317Y-108895162D01*
X179609441Y-108756090D01*
X179710000Y-108608917D01*
X179710000Y-109847560D01*
X178970000Y-109847560D01*
X178734683Y-109891838D01*
X178518559Y-110030910D01*
X178373569Y-110243110D01*
X178343417Y-110392005D01*
X178339161Y-110392852D01*
X178092599Y-110557599D01*
X169710320Y-118939878D01*
X169664833Y-118939838D01*
X169321057Y-119081883D01*
X169057808Y-119344673D01*
X168915162Y-119688201D01*
X168914838Y-120060167D01*
X169056883Y-120403943D01*
X169319673Y-120667192D01*
X169663201Y-120809838D01*
X170035167Y-120810162D01*
X170378943Y-120668117D01*
X170642192Y-120405327D01*
X170784838Y-120061799D01*
X170784879Y-120014923D01*
X178327069Y-112472733D01*
X178322560Y-112495000D01*
X178322560Y-113695000D01*
X178366838Y-113930317D01*
X178473759Y-114096477D01*
X178373569Y-114243110D01*
X178322560Y-114495000D01*
X178322560Y-115695000D01*
X178366838Y-115930317D01*
X178473759Y-116096477D01*
X178373569Y-116243110D01*
X178322560Y-116495000D01*
X178322560Y-117695000D01*
X178366838Y-117930317D01*
X178473759Y-118096477D01*
X178373569Y-118243110D01*
X178322560Y-118495000D01*
X178322560Y-119695000D01*
X178366838Y-119930317D01*
X178473759Y-120096477D01*
X178373569Y-120243110D01*
X178322560Y-120495000D01*
X178322560Y-121695000D01*
X178366838Y-121930317D01*
X178473759Y-122096477D01*
X178373569Y-122243110D01*
X178354961Y-122335000D01*
X176616407Y-122335000D01*
X176552327Y-122270808D01*
X176208799Y-122128162D01*
X175836833Y-122127838D01*
X175493057Y-122269883D01*
X175229808Y-122532673D01*
X175087162Y-122876201D01*
X175086838Y-123248167D01*
X175228883Y-123591943D01*
X175491673Y-123855192D01*
X175835201Y-123997838D01*
X176207167Y-123998162D01*
X176550943Y-123856117D01*
X176552062Y-123855000D01*
X178352666Y-123855000D01*
X178366838Y-123930317D01*
X178473759Y-124096477D01*
X178373569Y-124243110D01*
X178322560Y-124495000D01*
X178322560Y-125695000D01*
X178366838Y-125930317D01*
X178505910Y-126146441D01*
X178718110Y-126291431D01*
X178970000Y-126342440D01*
X181970000Y-126342440D01*
X182205317Y-126298162D01*
X182421441Y-126159090D01*
X182566431Y-125946890D01*
X182617440Y-125695000D01*
X182617440Y-124495000D01*
X182573162Y-124259683D01*
X182466241Y-124093523D01*
X182566431Y-123946890D01*
X182617440Y-123695000D01*
X182617440Y-122495000D01*
X182573162Y-122259683D01*
X182466241Y-122093523D01*
X182566431Y-121946890D01*
X182617440Y-121695000D01*
X182617440Y-120495000D01*
X182573162Y-120259683D01*
X182466241Y-120093523D01*
X182566431Y-119946890D01*
X182617440Y-119695000D01*
X182617440Y-118495000D01*
X182573162Y-118259683D01*
X182466241Y-118093523D01*
X182566431Y-117946890D01*
X182617440Y-117695000D01*
X182617440Y-116495000D01*
X182573162Y-116259683D01*
X182466241Y-116093523D01*
X182566431Y-115946890D01*
X182617440Y-115695000D01*
X182617440Y-114495000D01*
X182573162Y-114259683D01*
X182466241Y-114093523D01*
X182566431Y-113946890D01*
X182617440Y-113695000D01*
X182617440Y-112495000D01*
X182573162Y-112259683D01*
X182466241Y-112093523D01*
X182566431Y-111946890D01*
X182617440Y-111695000D01*
X182617440Y-110495000D01*
X182573162Y-110259683D01*
X182434090Y-110043559D01*
X182221890Y-109898569D01*
X181970000Y-109847560D01*
X181230000Y-109847560D01*
X181230000Y-104995000D01*
X181172148Y-104704161D01*
X181007401Y-104457599D01*
X180671302Y-104121500D01*
X180752362Y-104040440D01*
X181625000Y-104040440D01*
X181860317Y-103996162D01*
X182076441Y-103857090D01*
X182221431Y-103644890D01*
X182272440Y-103393000D01*
X182272440Y-102093000D01*
X182228162Y-101857683D01*
X182089090Y-101641559D01*
X181876890Y-101496569D01*
X181625000Y-101445560D01*
X180325000Y-101445560D01*
X180089683Y-101489838D01*
X179873559Y-101628910D01*
X179796063Y-101742329D01*
X179694410Y-101843982D01*
X179638729Y-101613389D01*
X179155922Y-101445378D01*
X178645572Y-101474917D01*
X178311271Y-101613389D01*
X178255590Y-101843984D01*
X178975000Y-102563395D01*
X178989142Y-102549252D01*
X179168748Y-102728858D01*
X179154605Y-102743000D01*
X179168748Y-102757142D01*
X178989142Y-102936748D01*
X178975000Y-102922605D01*
X178960858Y-102936748D01*
X178781252Y-102757142D01*
X178795395Y-102743000D01*
X178075984Y-102023590D01*
X177845389Y-102079271D01*
X177677378Y-102562078D01*
X177706917Y-103072428D01*
X177845389Y-103406729D01*
X178075982Y-103462410D01*
X177960522Y-103577870D01*
X177997652Y-103615000D01*
X174164802Y-103615000D01*
X173734000Y-103184198D01*
X173734000Y-102889558D01*
X173959317Y-102847162D01*
X174123492Y-102741518D01*
X174164301Y-102782327D01*
X174397690Y-102879000D01*
X174988250Y-102879000D01*
X175147000Y-102720250D01*
X175147000Y-101371000D01*
X175401000Y-101371000D01*
X175401000Y-102720250D01*
X175559750Y-102879000D01*
X176150310Y-102879000D01*
X176383699Y-102782327D01*
X176562327Y-102603698D01*
X176659000Y-102370309D01*
X176659000Y-101529750D01*
X176500250Y-101371000D01*
X175401000Y-101371000D01*
X175147000Y-101371000D01*
X175127000Y-101371000D01*
X175127000Y-101117000D01*
X175147000Y-101117000D01*
X175147000Y-101097000D01*
X175401000Y-101097000D01*
X175401000Y-101117000D01*
X176500250Y-101117000D01*
X176659000Y-100958250D01*
X176659000Y-100117691D01*
X176640903Y-100074000D01*
X178435000Y-100074000D01*
X178725839Y-100016148D01*
X178972401Y-99851401D01*
X180102527Y-98721275D01*
X180267352Y-98789716D01*
X180917795Y-98790284D01*
X181518943Y-98541894D01*
X181979278Y-98082363D01*
X182228716Y-97481648D01*
X182229284Y-96831205D01*
X181980894Y-96230057D01*
X181521363Y-95769722D01*
X180920648Y-95520284D01*
X180270205Y-95519716D01*
X179669057Y-95768106D01*
X179208722Y-96227637D01*
X178959284Y-96828352D01*
X178958716Y-97478795D01*
X179027919Y-97646279D01*
X178120198Y-98554000D01*
X175850606Y-98554000D01*
X178439803Y-95964803D01*
X178467666Y-95922789D01*
X178477000Y-95875000D01*
X178477000Y-83067532D01*
X179621073Y-83067532D01*
X179719736Y-83334387D01*
X180329461Y-83560908D01*
X180979460Y-83536856D01*
X181468264Y-83334387D01*
X181566927Y-83067532D01*
X180594000Y-82094605D01*
X179621073Y-83067532D01*
X178477000Y-83067532D01*
X178477000Y-81650461D01*
X178948092Y-81650461D01*
X178972144Y-82300460D01*
X179174613Y-82789264D01*
X179441468Y-82887927D01*
X180414395Y-81915000D01*
X180773605Y-81915000D01*
X181746532Y-82887927D01*
X182013387Y-82789264D01*
X182239908Y-82179539D01*
X182215856Y-81529540D01*
X182013387Y-81040736D01*
X181746532Y-80942073D01*
X180773605Y-81915000D01*
X180414395Y-81915000D01*
X179441468Y-80942073D01*
X179174613Y-81040736D01*
X178948092Y-81650461D01*
X178477000Y-81650461D01*
X178477000Y-80762468D01*
X179621073Y-80762468D01*
X180594000Y-81735395D01*
X181566927Y-80762468D01*
X181468264Y-80495613D01*
X180858539Y-80269092D01*
X180208540Y-80293144D01*
X179719736Y-80495613D01*
X179621073Y-80762468D01*
X178477000Y-80762468D01*
X178477000Y-80085000D01*
X182640000Y-80085000D01*
X182640000Y-127665000D01*
X182640000Y-127665000D01*
G37*
X182640000Y-127665000D02*
X147220290Y-127665000D01*
X147232440Y-127605000D01*
X147232440Y-126277440D01*
X148560000Y-126277440D01*
X148795317Y-126233162D01*
X149011441Y-126094090D01*
X149156431Y-125881890D01*
X149207440Y-125630000D01*
X149207440Y-125080000D01*
X149183056Y-124950411D01*
X149207440Y-124830000D01*
X149207440Y-124280000D01*
X149183056Y-124150411D01*
X149207440Y-124030000D01*
X149207440Y-123480000D01*
X149183056Y-123350411D01*
X149207440Y-123230000D01*
X149207440Y-122850242D01*
X150592599Y-124235401D01*
X150839161Y-124400148D01*
X151130000Y-124458000D01*
X152384352Y-124458000D01*
X152282907Y-124968000D01*
X152395946Y-125536285D01*
X152717853Y-126018054D01*
X153199622Y-126339961D01*
X153767907Y-126453000D01*
X153826093Y-126453000D01*
X154394378Y-126339961D01*
X154876147Y-126018054D01*
X155065345Y-125734899D01*
X155065355Y-125734924D01*
X155455642Y-126163183D01*
X155980108Y-126409486D01*
X156210000Y-126288819D01*
X156210000Y-125095000D01*
X156464000Y-125095000D01*
X156464000Y-126288819D01*
X156693892Y-126409486D01*
X157218358Y-126163183D01*
X157608645Y-125734924D01*
X157778476Y-125324890D01*
X157657155Y-125095000D01*
X156464000Y-125095000D01*
X156210000Y-125095000D01*
X156190000Y-125095000D01*
X156190000Y-124841000D01*
X156210000Y-124841000D01*
X156210000Y-124821000D01*
X156464000Y-124821000D01*
X156464000Y-124841000D01*
X157657155Y-124841000D01*
X157778476Y-124611110D01*
X157715060Y-124458000D01*
X157734000Y-124458000D01*
X158024839Y-124400148D01*
X158271401Y-124235401D01*
X158651802Y-123855000D01*
X158652666Y-123855000D01*
X158666838Y-123930317D01*
X158773759Y-124096477D01*
X158673569Y-124243110D01*
X158622560Y-124495000D01*
X158622560Y-125695000D01*
X158666838Y-125930317D01*
X158805910Y-126146441D01*
X159018110Y-126291431D01*
X159270000Y-126342440D01*
X162270000Y-126342440D01*
X162505317Y-126298162D01*
X162721441Y-126159090D01*
X162866431Y-125946890D01*
X162917440Y-125695000D01*
X162917440Y-124495000D01*
X162873162Y-124259683D01*
X162766241Y-124093523D01*
X162866431Y-123946890D01*
X162917440Y-123695000D01*
X162917440Y-122495000D01*
X162873162Y-122259683D01*
X162766241Y-122093523D01*
X162866431Y-121946890D01*
X162917440Y-121695000D01*
X162917440Y-120558242D01*
X164037878Y-121678680D01*
X164037838Y-121724167D01*
X164179883Y-122067943D01*
X164442673Y-122331192D01*
X164786201Y-122473838D01*
X165158167Y-122474162D01*
X165501943Y-122332117D01*
X165765192Y-122069327D01*
X165907838Y-121725799D01*
X165908162Y-121353833D01*
X165766117Y-121010057D01*
X165503327Y-120746808D01*
X165159799Y-120604162D01*
X165112923Y-120604121D01*
X163066401Y-118557599D01*
X162909491Y-118452755D01*
X162873162Y-118259683D01*
X162766241Y-118093523D01*
X162866431Y-117946890D01*
X162917440Y-117695000D01*
X162917440Y-116495000D01*
X162873162Y-116259683D01*
X162767518Y-116095508D01*
X162808327Y-116054699D01*
X162905000Y-115821310D01*
X162905000Y-115380750D01*
X162746250Y-115222000D01*
X160897000Y-115222000D01*
X160897000Y-115242000D01*
X160643000Y-115242000D01*
X160643000Y-115222000D01*
X158793750Y-115222000D01*
X158635000Y-115380750D01*
X158635000Y-115821310D01*
X158731673Y-116054699D01*
X158773634Y-116096660D01*
X158673569Y-116243110D01*
X158654961Y-116335000D01*
X157225000Y-116335000D01*
X156934161Y-116392852D01*
X156687599Y-116557599D01*
X155577698Y-117667500D01*
X155268592Y-117667500D01*
X155171839Y-117602852D01*
X154881000Y-117545000D01*
X147232440Y-117545000D01*
X147232440Y-117505000D01*
X147188162Y-117269683D01*
X147049090Y-117053559D01*
X146836890Y-116908569D01*
X146585000Y-116857560D01*
X146035000Y-116857560D01*
X145905411Y-116881944D01*
X145785000Y-116857560D01*
X145235000Y-116857560D01*
X145105411Y-116881944D01*
X145063681Y-116873493D01*
X145201431Y-116671890D01*
X145252440Y-116420000D01*
X145252440Y-114720000D01*
X145208162Y-114484683D01*
X145069090Y-114268559D01*
X144943161Y-114182515D01*
X145329151Y-114105737D01*
X145794698Y-113794668D01*
X146105767Y-113329121D01*
X146215000Y-112779970D01*
X146215000Y-112010030D01*
X146213403Y-112002000D01*
X149696597Y-112002000D01*
X149695000Y-112010030D01*
X149695000Y-112779970D01*
X149804233Y-113329121D01*
X150115302Y-113794668D01*
X150370000Y-113964852D01*
X150370000Y-114121161D01*
X150130000Y-114072560D01*
X148130000Y-114072560D01*
X147894683Y-114116838D01*
X147678559Y-114255910D01*
X147533569Y-114468110D01*
X147482560Y-114720000D01*
X147482560Y-114810000D01*
X147447000Y-114810000D01*
X147156160Y-114867852D01*
X147124600Y-114888940D01*
X147007833Y-114888838D01*
X146664057Y-115030883D01*
X146400808Y-115293673D01*
X146258162Y-115637201D01*
X146257838Y-116009167D01*
X146399883Y-116352943D01*
X146662673Y-116616192D01*
X147006201Y-116758838D01*
X147378167Y-116759162D01*
X147548399Y-116688824D01*
X147665910Y-116871441D01*
X147878110Y-117016431D01*
X148130000Y-117067440D01*
X150130000Y-117067440D01*
X150365317Y-117023162D01*
X150581441Y-116884090D01*
X150726431Y-116671890D01*
X150777440Y-116420000D01*
X150777440Y-114877242D01*
X151482560Y-115582362D01*
X151482560Y-116420000D01*
X151526838Y-116655317D01*
X151665910Y-116871441D01*
X151878110Y-117016431D01*
X152130000Y-117067440D01*
X154130000Y-117067440D01*
X154365317Y-117023162D01*
X154581441Y-116884090D01*
X154726431Y-116671890D01*
X154777440Y-116420000D01*
X154777440Y-114720000D01*
X154733162Y-114484683D01*
X154594090Y-114268559D01*
X154381890Y-114123569D01*
X154171854Y-114081036D01*
X154594896Y-113849500D01*
X154942851Y-113416849D01*
X155195302Y-113794668D01*
X155660849Y-114105737D01*
X156210000Y-114214970D01*
X156759151Y-114105737D01*
X157224698Y-113794668D01*
X157535767Y-113329121D01*
X157645000Y-112779970D01*
X157645000Y-112010030D01*
X157535767Y-111460879D01*
X157298629Y-111105977D01*
X158035916Y-110368690D01*
X158635000Y-110368690D01*
X158635000Y-110809250D01*
X158793750Y-110968000D01*
X160643000Y-110968000D01*
X160643000Y-110018750D01*
X160897000Y-110018750D01*
X160897000Y-110968000D01*
X162746250Y-110968000D01*
X162905000Y-110809250D01*
X162905000Y-110368690D01*
X162808327Y-110135301D01*
X162629698Y-109956673D01*
X162396309Y-109860000D01*
X161055750Y-109860000D01*
X160897000Y-110018750D01*
X160643000Y-110018750D01*
X160484250Y-109860000D01*
X159143691Y-109860000D01*
X158910302Y-109956673D01*
X158731673Y-110135301D01*
X158635000Y-110368690D01*
X158035916Y-110368690D01*
X159402606Y-109002000D01*
X167350000Y-109002000D01*
X167399410Y-108991994D01*
X167441035Y-108963553D01*
X167468315Y-108921159D01*
X167477000Y-108875000D01*
X167477000Y-106544000D01*
X170426560Y-106544000D01*
X170426560Y-108544000D01*
X170470838Y-108779317D01*
X170609910Y-108995441D01*
X170822110Y-109140431D01*
X171074000Y-109191440D01*
X174874000Y-109191440D01*
X175109317Y-109147162D01*
X175325441Y-109008090D01*
X175470431Y-108795890D01*
X175521440Y-108544000D01*
X175521440Y-106544000D01*
X175477162Y-106308683D01*
X175338090Y-106092559D01*
X175125890Y-105947569D01*
X174874000Y-105896560D01*
X171074000Y-105896560D01*
X170838683Y-105940838D01*
X170622559Y-106079910D01*
X170477569Y-106292110D01*
X170426560Y-106544000D01*
X167477000Y-106544000D01*
X167477000Y-100927606D01*
X169402606Y-99002000D01*
X170560198Y-99002000D01*
X170136599Y-99425599D01*
X170022367Y-99596560D01*
X169924000Y-99596560D01*
X169688683Y-99640838D01*
X169472559Y-99779910D01*
X169327569Y-99992110D01*
X169276560Y-100244000D01*
X169276560Y-102244000D01*
X169320838Y-102479317D01*
X169459910Y-102695441D01*
X169672110Y-102840431D01*
X169924000Y-102891440D01*
X171424000Y-102891440D01*
X171659317Y-102847162D01*
X171825477Y-102740241D01*
X171972110Y-102840431D01*
X172214000Y-102889415D01*
X172214000Y-103499000D01*
X172271852Y-103789839D01*
X172436599Y-104036401D01*
X173312599Y-104912401D01*
X173559161Y-105077148D01*
X173850000Y-105135000D01*
X179343000Y-105135000D01*
X179378191Y-105128000D01*
X179528198Y-105128000D01*
X179710000Y-105309802D01*
X179710000Y-106277175D01*
X179622090Y-106140559D01*
X179409890Y-105995569D01*
X179158000Y-105944560D01*
X177458000Y-105944560D01*
X177222683Y-105988838D01*
X177006559Y-106127910D01*
X176861569Y-106340110D01*
X176810560Y-106592000D01*
X176810560Y-107864638D01*
X172340198Y-112335000D01*
X162887334Y-112335000D01*
X162873162Y-112259683D01*
X162767518Y-112095508D01*
X162808327Y-112054699D01*
X162905000Y-111821310D01*
X162905000Y-111380750D01*
X162746250Y-111222000D01*
X160897000Y-111222000D01*
X160897000Y-111242000D01*
X160643000Y-111242000D01*
X160643000Y-111222000D01*
X158793750Y-111222000D01*
X158635000Y-111380750D01*
X158635000Y-111821310D01*
X158731673Y-112054699D01*
X158773634Y-112096660D01*
X158673569Y-112243110D01*
X158622560Y-112495000D01*
X158622560Y-113695000D01*
X158666838Y-113930317D01*
X158772482Y-114094492D01*
X158731673Y-114135301D01*
X158635000Y-114368690D01*
X158635000Y-114809250D01*
X158793750Y-114968000D01*
X160643000Y-114968000D01*
X160643000Y-114948000D01*
X160897000Y-114948000D01*
X160897000Y-114968000D01*
X162746250Y-114968000D01*
X162905000Y-114809250D01*
X162905000Y-114368690D01*
X162808327Y-114135301D01*
X162766366Y-114093340D01*
X162866431Y-113946890D01*
X162885039Y-113855000D01*
X172655000Y-113855000D01*
X172945839Y-113797148D01*
X173192401Y-113632401D01*
X177885362Y-108939440D01*
X179158000Y-108939440D01*
X179393317Y-108895162D01*
X179609441Y-108756090D01*
X179710000Y-108608917D01*
X179710000Y-109847560D01*
X178970000Y-109847560D01*
X178734683Y-109891838D01*
X178518559Y-110030910D01*
X178373569Y-110243110D01*
X178343417Y-110392005D01*
X178339161Y-110392852D01*
X178092599Y-110557599D01*
X169710320Y-118939878D01*
X169664833Y-118939838D01*
X169321057Y-119081883D01*
X169057808Y-119344673D01*
X168915162Y-119688201D01*
X168914838Y-120060167D01*
X169056883Y-120403943D01*
X169319673Y-120667192D01*
X169663201Y-120809838D01*
X170035167Y-120810162D01*
X170378943Y-120668117D01*
X170642192Y-120405327D01*
X170784838Y-120061799D01*
X170784879Y-120014923D01*
X178327069Y-112472733D01*
X178322560Y-112495000D01*
X178322560Y-113695000D01*
X178366838Y-113930317D01*
X178473759Y-114096477D01*
X178373569Y-114243110D01*
X178322560Y-114495000D01*
X178322560Y-115695000D01*
X178366838Y-115930317D01*
X178473759Y-116096477D01*
X178373569Y-116243110D01*
X178322560Y-116495000D01*
X178322560Y-117695000D01*
X178366838Y-117930317D01*
X178473759Y-118096477D01*
X178373569Y-118243110D01*
X178322560Y-118495000D01*
X178322560Y-119695000D01*
X178366838Y-119930317D01*
X178473759Y-120096477D01*
X178373569Y-120243110D01*
X178322560Y-120495000D01*
X178322560Y-121695000D01*
X178366838Y-121930317D01*
X178473759Y-122096477D01*
X178373569Y-122243110D01*
X178354961Y-122335000D01*
X176616407Y-122335000D01*
X176552327Y-122270808D01*
X176208799Y-122128162D01*
X175836833Y-122127838D01*
X175493057Y-122269883D01*
X175229808Y-122532673D01*
X175087162Y-122876201D01*
X175086838Y-123248167D01*
X175228883Y-123591943D01*
X175491673Y-123855192D01*
X175835201Y-123997838D01*
X176207167Y-123998162D01*
X176550943Y-123856117D01*
X176552062Y-123855000D01*
X178352666Y-123855000D01*
X178366838Y-123930317D01*
X178473759Y-124096477D01*
X178373569Y-124243110D01*
X178322560Y-124495000D01*
X178322560Y-125695000D01*
X178366838Y-125930317D01*
X178505910Y-126146441D01*
X178718110Y-126291431D01*
X178970000Y-126342440D01*
X181970000Y-126342440D01*
X182205317Y-126298162D01*
X182421441Y-126159090D01*
X182566431Y-125946890D01*
X182617440Y-125695000D01*
X182617440Y-124495000D01*
X182573162Y-124259683D01*
X182466241Y-124093523D01*
X182566431Y-123946890D01*
X182617440Y-123695000D01*
X182617440Y-122495000D01*
X182573162Y-122259683D01*
X182466241Y-122093523D01*
X182566431Y-121946890D01*
X182617440Y-121695000D01*
X182617440Y-120495000D01*
X182573162Y-120259683D01*
X182466241Y-120093523D01*
X182566431Y-119946890D01*
X182617440Y-119695000D01*
X182617440Y-118495000D01*
X182573162Y-118259683D01*
X182466241Y-118093523D01*
X182566431Y-117946890D01*
X182617440Y-117695000D01*
X182617440Y-116495000D01*
X182573162Y-116259683D01*
X182466241Y-116093523D01*
X182566431Y-115946890D01*
X182617440Y-115695000D01*
X182617440Y-114495000D01*
X182573162Y-114259683D01*
X182466241Y-114093523D01*
X182566431Y-113946890D01*
X182617440Y-113695000D01*
X182617440Y-112495000D01*
X182573162Y-112259683D01*
X182466241Y-112093523D01*
X182566431Y-111946890D01*
X182617440Y-111695000D01*
X182617440Y-110495000D01*
X182573162Y-110259683D01*
X182434090Y-110043559D01*
X182221890Y-109898569D01*
X181970000Y-109847560D01*
X181230000Y-109847560D01*
X181230000Y-104995000D01*
X181172148Y-104704161D01*
X181007401Y-104457599D01*
X180671302Y-104121500D01*
X180752362Y-104040440D01*
X181625000Y-104040440D01*
X181860317Y-103996162D01*
X182076441Y-103857090D01*
X182221431Y-103644890D01*
X182272440Y-103393000D01*
X182272440Y-102093000D01*
X182228162Y-101857683D01*
X182089090Y-101641559D01*
X181876890Y-101496569D01*
X181625000Y-101445560D01*
X180325000Y-101445560D01*
X180089683Y-101489838D01*
X179873559Y-101628910D01*
X179796063Y-101742329D01*
X179694410Y-101843982D01*
X179638729Y-101613389D01*
X179155922Y-101445378D01*
X178645572Y-101474917D01*
X178311271Y-101613389D01*
X178255590Y-101843984D01*
X178975000Y-102563395D01*
X178989142Y-102549252D01*
X179168748Y-102728858D01*
X179154605Y-102743000D01*
X179168748Y-102757142D01*
X178989142Y-102936748D01*
X178975000Y-102922605D01*
X178960858Y-102936748D01*
X178781252Y-102757142D01*
X178795395Y-102743000D01*
X178075984Y-102023590D01*
X177845389Y-102079271D01*
X177677378Y-102562078D01*
X177706917Y-103072428D01*
X177845389Y-103406729D01*
X178075982Y-103462410D01*
X177960522Y-103577870D01*
X177997652Y-103615000D01*
X174164802Y-103615000D01*
X173734000Y-103184198D01*
X173734000Y-102889558D01*
X173959317Y-102847162D01*
X174123492Y-102741518D01*
X174164301Y-102782327D01*
X174397690Y-102879000D01*
X174988250Y-102879000D01*
X175147000Y-102720250D01*
X175147000Y-101371000D01*
X175401000Y-101371000D01*
X175401000Y-102720250D01*
X175559750Y-102879000D01*
X176150310Y-102879000D01*
X176383699Y-102782327D01*
X176562327Y-102603698D01*
X176659000Y-102370309D01*
X176659000Y-101529750D01*
X176500250Y-101371000D01*
X175401000Y-101371000D01*
X175147000Y-101371000D01*
X175127000Y-101371000D01*
X175127000Y-101117000D01*
X175147000Y-101117000D01*
X175147000Y-101097000D01*
X175401000Y-101097000D01*
X175401000Y-101117000D01*
X176500250Y-101117000D01*
X176659000Y-100958250D01*
X176659000Y-100117691D01*
X176640903Y-100074000D01*
X178435000Y-100074000D01*
X178725839Y-100016148D01*
X178972401Y-99851401D01*
X180102527Y-98721275D01*
X180267352Y-98789716D01*
X180917795Y-98790284D01*
X181518943Y-98541894D01*
X181979278Y-98082363D01*
X182228716Y-97481648D01*
X182229284Y-96831205D01*
X181980894Y-96230057D01*
X181521363Y-95769722D01*
X180920648Y-95520284D01*
X180270205Y-95519716D01*
X179669057Y-95768106D01*
X179208722Y-96227637D01*
X178959284Y-96828352D01*
X178958716Y-97478795D01*
X179027919Y-97646279D01*
X178120198Y-98554000D01*
X175850606Y-98554000D01*
X178439803Y-95964803D01*
X178467666Y-95922789D01*
X178477000Y-95875000D01*
X178477000Y-83067532D01*
X179621073Y-83067532D01*
X179719736Y-83334387D01*
X180329461Y-83560908D01*
X180979460Y-83536856D01*
X181468264Y-83334387D01*
X181566927Y-83067532D01*
X180594000Y-82094605D01*
X179621073Y-83067532D01*
X178477000Y-83067532D01*
X178477000Y-81650461D01*
X178948092Y-81650461D01*
X178972144Y-82300460D01*
X179174613Y-82789264D01*
X179441468Y-82887927D01*
X180414395Y-81915000D01*
X180773605Y-81915000D01*
X181746532Y-82887927D01*
X182013387Y-82789264D01*
X182239908Y-82179539D01*
X182215856Y-81529540D01*
X182013387Y-81040736D01*
X181746532Y-80942073D01*
X180773605Y-81915000D01*
X180414395Y-81915000D01*
X179441468Y-80942073D01*
X179174613Y-81040736D01*
X178948092Y-81650461D01*
X178477000Y-81650461D01*
X178477000Y-80762468D01*
X179621073Y-80762468D01*
X180594000Y-81735395D01*
X181566927Y-80762468D01*
X181468264Y-80495613D01*
X180858539Y-80269092D01*
X180208540Y-80293144D01*
X179719736Y-80495613D01*
X179621073Y-80762468D01*
X178477000Y-80762468D01*
X178477000Y-80085000D01*
X182640000Y-80085000D01*
X182640000Y-127665000D01*
G36*
X144435000Y-119752440D02*
X144691356Y-119752440D01*
X144607162Y-119955201D01*
X144607121Y-120002077D01*
X144172599Y-120436599D01*
X144007852Y-120683161D01*
X143950000Y-120974000D01*
X143950000Y-124208000D01*
X143637000Y-124208000D01*
X143346161Y-124265852D01*
X143099599Y-124430599D01*
X142572599Y-124957599D01*
X142407852Y-125204161D01*
X142350000Y-125495000D01*
X142350000Y-125590025D01*
X142310116Y-125648397D01*
X142249090Y-125553559D01*
X142118755Y-125464505D01*
X142024250Y-125370000D01*
X141908690Y-125370000D01*
X141888396Y-125378406D01*
X143158401Y-124108401D01*
X143323148Y-123861839D01*
X143381000Y-123571000D01*
X143381000Y-120704463D01*
X143413192Y-120672327D01*
X143555838Y-120328799D01*
X143556162Y-119956833D01*
X143466569Y-119740000D01*
X143511310Y-119740000D01*
X143531753Y-119731532D01*
X143635000Y-119752440D01*
X144185000Y-119752440D01*
X144314589Y-119728056D01*
X144435000Y-119752440D01*
X144435000Y-119752440D01*
G37*
X144435000Y-119752440D02*
X144691356Y-119752440D01*
X144607162Y-119955201D01*
X144607121Y-120002077D01*
X144172599Y-120436599D01*
X144007852Y-120683161D01*
X143950000Y-120974000D01*
X143950000Y-124208000D01*
X143637000Y-124208000D01*
X143346161Y-124265852D01*
X143099599Y-124430599D01*
X142572599Y-124957599D01*
X142407852Y-125204161D01*
X142350000Y-125495000D01*
X142350000Y-125590025D01*
X142310116Y-125648397D01*
X142249090Y-125553559D01*
X142118755Y-125464505D01*
X142024250Y-125370000D01*
X141908690Y-125370000D01*
X141888396Y-125378406D01*
X143158401Y-124108401D01*
X143323148Y-123861839D01*
X143381000Y-123571000D01*
X143381000Y-120704463D01*
X143413192Y-120672327D01*
X143555838Y-120328799D01*
X143556162Y-119956833D01*
X143466569Y-119740000D01*
X143511310Y-119740000D01*
X143531753Y-119731532D01*
X143635000Y-119752440D01*
X144185000Y-119752440D01*
X144314589Y-119728056D01*
X144435000Y-119752440D01*
G36*
X142367000Y-112268000D02*
X142387000Y-112268000D01*
X142387000Y-112522000D01*
X142367000Y-112522000D01*
X142367000Y-114014915D01*
X142505873Y-114091212D01*
X142369683Y-114116838D01*
X142153559Y-114255910D01*
X142008569Y-114468110D01*
X141957560Y-114720000D01*
X141957560Y-116142638D01*
X141893198Y-116207000D01*
X141252440Y-116207000D01*
X141252440Y-114720000D01*
X141208162Y-114484683D01*
X141069090Y-114268559D01*
X140856890Y-114123569D01*
X140605000Y-114072560D01*
X140460000Y-114072560D01*
X140460000Y-113964852D01*
X140714698Y-113794668D01*
X140967149Y-113416849D01*
X141315104Y-113849500D01*
X141808181Y-114119367D01*
X141890961Y-114136904D01*
X142113000Y-114014915D01*
X142113000Y-112522000D01*
X142093000Y-112522000D01*
X142093000Y-112268000D01*
X142113000Y-112268000D01*
X142113000Y-112248000D01*
X142367000Y-112248000D01*
X142367000Y-112268000D01*
X142367000Y-112268000D01*
G37*
X142367000Y-112268000D02*
X142387000Y-112268000D01*
X142387000Y-112522000D01*
X142367000Y-112522000D01*
X142367000Y-114014915D01*
X142505873Y-114091212D01*
X142369683Y-114116838D01*
X142153559Y-114255910D01*
X142008569Y-114468110D01*
X141957560Y-114720000D01*
X141957560Y-116142638D01*
X141893198Y-116207000D01*
X141252440Y-116207000D01*
X141252440Y-114720000D01*
X141208162Y-114484683D01*
X141069090Y-114268559D01*
X140856890Y-114123569D01*
X140605000Y-114072560D01*
X140460000Y-114072560D01*
X140460000Y-113964852D01*
X140714698Y-113794668D01*
X140967149Y-113416849D01*
X141315104Y-113849500D01*
X141808181Y-114119367D01*
X141890961Y-114136904D01*
X142113000Y-114014915D01*
X142113000Y-112522000D01*
X142093000Y-112522000D01*
X142093000Y-112268000D01*
X142113000Y-112268000D01*
X142113000Y-112248000D01*
X142367000Y-112248000D01*
X142367000Y-112268000D01*
G36*
X153797000Y-112268000D02*
X153817000Y-112268000D01*
X153817000Y-112522000D01*
X153797000Y-112522000D01*
X153797000Y-112542000D01*
X153543000Y-112542000D01*
X153543000Y-112522000D01*
X153523000Y-112522000D01*
X153523000Y-112268000D01*
X153543000Y-112268000D01*
X153543000Y-112248000D01*
X153797000Y-112248000D01*
X153797000Y-112268000D01*
X153797000Y-112268000D01*
G37*
X153797000Y-112268000D02*
X153817000Y-112268000D01*
X153817000Y-112522000D01*
X153797000Y-112522000D01*
X153797000Y-112542000D01*
X153543000Y-112542000D01*
X153543000Y-112522000D01*
X153523000Y-112522000D01*
X153523000Y-112268000D01*
X153543000Y-112268000D01*
X153543000Y-112248000D01*
X153797000Y-112248000D01*
X153797000Y-112268000D01*
M02*
