G04 #@! TF.FileFunction,Legend,Bot*
%FSLAX46Y46*%
G04 Gerber Fmt 4.6, Leading zero omitted, Abs format (unit mm)*
G04 Created by KiCad (PCBNEW 4.0.4+e1-6308~48~ubuntu15.10.1-stable) date Mon Sep 26 14:10:36 2016*
%MOMM*%
%LPD*%
G01*
G04 APERTURE LIST*
%ADD10C,0.100000*%
%ADD11C,0.300000*%
%ADD12C,0.150000*%
G04 APERTURE END LIST*
D10*
D11*
X159000715Y-88303571D02*
X159000715Y-86803571D01*
X159500715Y-87875000D01*
X160000715Y-86803571D01*
X160000715Y-88303571D01*
X160572144Y-87303571D02*
X160929287Y-88303571D01*
X161286429Y-87303571D02*
X160929287Y-88303571D01*
X160786429Y-88660714D01*
X160715001Y-88732143D01*
X160572144Y-88803571D01*
X161786429Y-88232143D02*
X162000715Y-88303571D01*
X162357858Y-88303571D01*
X162500715Y-88232143D01*
X162572144Y-88160714D01*
X162643572Y-88017857D01*
X162643572Y-87875000D01*
X162572144Y-87732143D01*
X162500715Y-87660714D01*
X162357858Y-87589286D01*
X162072144Y-87517857D01*
X161929286Y-87446429D01*
X161857858Y-87375000D01*
X161786429Y-87232143D01*
X161786429Y-87089286D01*
X161857858Y-86946429D01*
X161929286Y-86875000D01*
X162072144Y-86803571D01*
X162429286Y-86803571D01*
X162643572Y-86875000D01*
X163857857Y-88232143D02*
X163715000Y-88303571D01*
X163429286Y-88303571D01*
X163286429Y-88232143D01*
X163215000Y-88089286D01*
X163215000Y-87517857D01*
X163286429Y-87375000D01*
X163429286Y-87303571D01*
X163715000Y-87303571D01*
X163857857Y-87375000D01*
X163929286Y-87517857D01*
X163929286Y-87660714D01*
X163215000Y-87803571D01*
X164572143Y-87303571D02*
X164572143Y-88303571D01*
X164572143Y-87446429D02*
X164643571Y-87375000D01*
X164786429Y-87303571D01*
X165000714Y-87303571D01*
X165143571Y-87375000D01*
X165215000Y-87517857D01*
X165215000Y-88303571D01*
X165857857Y-88232143D02*
X166000714Y-88303571D01*
X166286429Y-88303571D01*
X166429286Y-88232143D01*
X166500714Y-88089286D01*
X166500714Y-88017857D01*
X166429286Y-87875000D01*
X166286429Y-87803571D01*
X166072143Y-87803571D01*
X165929286Y-87732143D01*
X165857857Y-87589286D01*
X165857857Y-87517857D01*
X165929286Y-87375000D01*
X166072143Y-87303571D01*
X166286429Y-87303571D01*
X166429286Y-87375000D01*
X167357858Y-88303571D02*
X167215000Y-88232143D01*
X167143572Y-88160714D01*
X167072143Y-88017857D01*
X167072143Y-87589286D01*
X167143572Y-87446429D01*
X167215000Y-87375000D01*
X167357858Y-87303571D01*
X167572143Y-87303571D01*
X167715000Y-87375000D01*
X167786429Y-87446429D01*
X167857858Y-87589286D01*
X167857858Y-88017857D01*
X167786429Y-88160714D01*
X167715000Y-88232143D01*
X167572143Y-88303571D01*
X167357858Y-88303571D01*
X168500715Y-88303571D02*
X168500715Y-87303571D01*
X168500715Y-87589286D02*
X168572143Y-87446429D01*
X168643572Y-87375000D01*
X168786429Y-87303571D01*
X168929286Y-87303571D01*
X169357857Y-88232143D02*
X169500714Y-88303571D01*
X169786429Y-88303571D01*
X169929286Y-88232143D01*
X170000714Y-88089286D01*
X170000714Y-88017857D01*
X169929286Y-87875000D01*
X169786429Y-87803571D01*
X169572143Y-87803571D01*
X169429286Y-87732143D01*
X169357857Y-87589286D01*
X169357857Y-87517857D01*
X169429286Y-87375000D01*
X169572143Y-87303571D01*
X169786429Y-87303571D01*
X169929286Y-87375000D01*
X160107858Y-90067857D02*
X159607858Y-90067857D01*
X159607858Y-90853571D02*
X159607858Y-89353571D01*
X160322144Y-89353571D01*
X160893572Y-90853571D02*
X160893572Y-89853571D01*
X160893572Y-89353571D02*
X160822143Y-89425000D01*
X160893572Y-89496429D01*
X160965000Y-89425000D01*
X160893572Y-89353571D01*
X160893572Y-89496429D01*
X161822144Y-90853571D02*
X161679286Y-90782143D01*
X161607858Y-90639286D01*
X161607858Y-89353571D01*
X163536429Y-90853571D02*
X163536429Y-89353571D01*
X164107857Y-89353571D01*
X164250715Y-89425000D01*
X164322143Y-89496429D01*
X164393572Y-89639286D01*
X164393572Y-89853571D01*
X164322143Y-89996429D01*
X164250715Y-90067857D01*
X164107857Y-90139286D01*
X163536429Y-90139286D01*
X165036429Y-90853571D02*
X165036429Y-89853571D01*
X165036429Y-89353571D02*
X164965000Y-89425000D01*
X165036429Y-89496429D01*
X165107857Y-89425000D01*
X165036429Y-89353571D01*
X165036429Y-89496429D01*
X165965001Y-90853571D02*
X165822143Y-90782143D01*
X165750715Y-90639286D01*
X165750715Y-89353571D01*
X166750715Y-90853571D02*
X166607857Y-90782143D01*
X166536429Y-90710714D01*
X166465000Y-90567857D01*
X166465000Y-90139286D01*
X166536429Y-89996429D01*
X166607857Y-89925000D01*
X166750715Y-89853571D01*
X166965000Y-89853571D01*
X167107857Y-89925000D01*
X167179286Y-89996429D01*
X167250715Y-90139286D01*
X167250715Y-90567857D01*
X167179286Y-90710714D01*
X167107857Y-90782143D01*
X166965000Y-90853571D01*
X166750715Y-90853571D01*
X167679286Y-89853571D02*
X168250715Y-89853571D01*
X167893572Y-89353571D02*
X167893572Y-90639286D01*
X167965000Y-90782143D01*
X168107858Y-90853571D01*
X168250715Y-90853571D01*
X169322143Y-90782143D02*
X169179286Y-90853571D01*
X168893572Y-90853571D01*
X168750715Y-90782143D01*
X168679286Y-90639286D01*
X168679286Y-90067857D01*
X168750715Y-89925000D01*
X168893572Y-89853571D01*
X169179286Y-89853571D01*
X169322143Y-89925000D01*
X169393572Y-90067857D01*
X169393572Y-90210714D01*
X168679286Y-90353571D01*
D12*
X175260000Y-98425000D02*
X142260000Y-98425000D01*
X142260000Y-98425000D02*
X142260000Y-113925000D01*
X142260000Y-113925000D02*
X175260000Y-113925000D01*
X175260000Y-113925000D02*
X175260000Y-98425000D01*
X173481905Y-99147381D02*
X173481905Y-99956905D01*
X173434286Y-100052143D01*
X173386667Y-100099762D01*
X173291429Y-100147381D01*
X173100952Y-100147381D01*
X173005714Y-100099762D01*
X172958095Y-100052143D01*
X172910476Y-99956905D01*
X172910476Y-99147381D01*
X172005714Y-99480714D02*
X172005714Y-100147381D01*
X172243810Y-99099762D02*
X172481905Y-99814048D01*
X171862857Y-99814048D01*
M02*
