M48
;DRILL file {KiCad 4.0.4+e1-6308~48~ubuntu15.10.1-stable} date Mon Sep 26 14:00:36 2016
;FORMAT={-:-/ absolute / metric / decimal}
FMAT,2
METRIC,TZ
T1C0.701
T2C0.762
T3C0.800
T4C0.800
T5C1.001
T6C1.270
T7C1.524
%
G90
G05
M71
T1
X139.066Y-127.632
X141.606Y-125.727
X149.226Y-127.632
X151.766Y-125.727
T2
X151.13Y-86.995
X151.13Y-92.075
X171.45Y-101.6
X171.45Y-104.14
X171.45Y-106.68
X171.45Y-109.22
X173.99Y-101.6
X173.99Y-104.14
X173.99Y-106.68
X173.99Y-109.22
X180.594Y-81.915
X180.594Y-97.155
T3
X140.97Y-104.267
X140.97Y-111.887
X141.605Y-114.935
X141.605Y-122.555
X143.51Y-104.267
X143.51Y-111.887
X144.145Y-114.935
X144.145Y-122.555
X146.05Y-104.267
X146.05Y-111.887
X146.685Y-114.935
X146.685Y-122.555
X149.225Y-114.935
X149.225Y-122.555
X151.765Y-114.935
X151.765Y-122.555
X154.305Y-114.935
X154.305Y-122.555
X154.432Y-104.267
X154.432Y-111.887
X154.94Y-125.73
X156.845Y-114.935
X156.845Y-122.555
X156.972Y-104.267
X156.972Y-111.887
X159.385Y-114.935
X159.385Y-122.555
X159.512Y-104.267
X159.512Y-111.887
X161.925Y-114.935
X161.925Y-122.555
X164.465Y-114.935
X164.465Y-122.555
X167.005Y-114.935
X167.005Y-122.555
X169.545Y-114.935
X169.545Y-122.555
X170.815Y-125.73
X172.085Y-114.935
X172.085Y-122.555
X174.625Y-114.935
X174.625Y-122.555
X178.975Y-119.38
X180.975Y-119.38
T4
X154.94Y-128.23
X160.754Y-127.
X165.636Y-127.
X170.815Y-128.23
T5
X135.89Y-101.216
X159.512Y-101.222
X180.34Y-105.413
X180.34Y-107.953
X180.34Y-110.493
T6
X146.05Y-101.216
X149.352Y-101.222
T7
X141.605Y-83.82
X141.605Y-88.9
X141.605Y-93.98
T0
M30
