G04 #@! TF.FileFunction,Soldermask,Top*
%FSLAX46Y46*%
G04 Gerber Fmt 4.6, Leading zero omitted, Abs format (unit mm)*
G04 Created by KiCad (PCBNEW 4.0.5-e0-6337~49~ubuntu16.04.1) date Tue Feb  7 13:51:03 2017*
%MOMM*%
%LPD*%
G01*
G04 APERTURE LIST*
%ADD10C,0.100000*%
%ADD11R,1.700000X1.700000*%
%ADD12C,1.700000*%
%ADD13R,2.400000X2.000000*%
%ADD14R,2.000000X0.950000*%
%ADD15R,0.950000X2.000000*%
%ADD16R,2.940000X2.940000*%
%ADD17C,2.940000*%
%ADD18R,2.100000X2.100000*%
%ADD19O,2.100000X2.100000*%
%ADD20R,2.400000X2.100000*%
%ADD21R,2.180000X2.400000*%
%ADD22R,4.200000X2.400000*%
%ADD23R,1.900000X2.400000*%
%ADD24R,3.400000X1.600000*%
%ADD25R,1.400000X2.400000*%
G04 APERTURE END LIST*
D10*
D11*
X164850000Y-77375000D03*
D12*
X169850000Y-77375000D03*
D13*
X174850000Y-76875000D03*
X178850000Y-76875000D03*
D14*
X168600000Y-91075000D03*
X168600000Y-91875000D03*
X168600000Y-92675000D03*
X168600000Y-93475000D03*
X168600000Y-94275000D03*
X168600000Y-95075000D03*
X168600000Y-95875000D03*
X168600000Y-96675000D03*
D15*
X170050000Y-98125000D03*
X170850000Y-98125000D03*
X171650000Y-98125000D03*
X172450000Y-98125000D03*
X173250000Y-98125000D03*
X174050000Y-98125000D03*
X174850000Y-98125000D03*
X175650000Y-98125000D03*
D14*
X177100000Y-96675000D03*
X177100000Y-95875000D03*
X177100000Y-95075000D03*
X177100000Y-94275000D03*
X177100000Y-93475000D03*
X177100000Y-92675000D03*
X177100000Y-91875000D03*
X177100000Y-91075000D03*
D15*
X175650000Y-89625000D03*
X174850000Y-89625000D03*
X174050000Y-89625000D03*
X173250000Y-89625000D03*
X172450000Y-89625000D03*
X171650000Y-89625000D03*
X170850000Y-89625000D03*
X170050000Y-89625000D03*
D16*
X174390000Y-56875000D03*
D17*
X169310000Y-56875000D03*
D18*
X177350000Y-102875000D03*
D19*
X177350000Y-105415000D03*
X174810000Y-102875000D03*
X174810000Y-105415000D03*
X172270000Y-102875000D03*
X172270000Y-105415000D03*
D20*
X176850000Y-62375000D03*
X172850000Y-62375000D03*
X165850000Y-85875000D03*
X169850000Y-85875000D03*
D21*
X176620000Y-65565000D03*
X174080000Y-73185000D03*
X174080000Y-65565000D03*
X176620000Y-73185000D03*
D22*
X176350000Y-86025000D03*
D23*
X176350000Y-79725000D03*
X174050000Y-79725000D03*
X178650000Y-79725000D03*
D24*
X163450000Y-108875000D03*
X163450000Y-110875000D03*
X163450000Y-112875000D03*
X163450000Y-114875000D03*
X163450000Y-116875000D03*
X163450000Y-118875000D03*
X163450000Y-120875000D03*
X163450000Y-122875000D03*
X183150000Y-122875000D03*
X183150000Y-120875000D03*
X183150000Y-118875000D03*
X183150000Y-116875000D03*
X183150000Y-114875000D03*
X183150000Y-112875000D03*
X183150000Y-110875000D03*
X183150000Y-108875000D03*
D25*
X169306240Y-62544960D03*
X166636700Y-62544960D03*
X169306240Y-69146420D03*
X166636700Y-69146420D03*
D18*
X176784000Y-125857000D03*
D19*
X179324000Y-125857000D03*
M02*
