G04 #@! TF.FileFunction,Copper,L2,Bot,Signal*
%FSLAX46Y46*%
G04 Gerber Fmt 4.6, Leading zero omitted, Abs format (unit mm)*
G04 Created by KiCad (PCBNEW 4.0.5-e0-6337~49~ubuntu16.04.1) date Tue Feb  7 13:51:03 2017*
%MOMM*%
%LPD*%
G01*
G04 APERTURE LIST*
%ADD10C,0.100000*%
%ADD11R,1.300000X1.300000*%
%ADD12C,1.300000*%
%ADD13R,2.540000X2.540000*%
%ADD14C,2.540000*%
%ADD15R,1.700000X1.700000*%
%ADD16O,1.700000X1.700000*%
%ADD17C,0.600000*%
%ADD18C,0.250000*%
G04 APERTURE END LIST*
D10*
D11*
X164850000Y-77375000D03*
D12*
X169850000Y-77375000D03*
D13*
X174390000Y-56875000D03*
D14*
X169310000Y-56875000D03*
D15*
X177350000Y-102875000D03*
D16*
X177350000Y-105415000D03*
X174810000Y-102875000D03*
X174810000Y-105415000D03*
X172270000Y-102875000D03*
X172270000Y-105415000D03*
D15*
X176784000Y-125857000D03*
D16*
X179324000Y-125857000D03*
D17*
X168021000Y-118618000D03*
X171323000Y-94488000D03*
X173990000Y-96393000D03*
X180340000Y-109347000D03*
X177292000Y-98044000D03*
X172466000Y-91567000D03*
D18*
X168021000Y-118618000D02*
X168021000Y-115316000D01*
X177350000Y-105415000D02*
X177350000Y-106114000D01*
X177350000Y-106114000D02*
X175006000Y-108458000D01*
X175006000Y-108458000D02*
X168021000Y-108458000D01*
X168021000Y-115316000D02*
X168021000Y-108458000D01*
X168021000Y-108458000D02*
X168021000Y-97790000D01*
X168021000Y-97790000D02*
X171323000Y-94488000D01*
X180340000Y-109347000D02*
X180340000Y-98933000D01*
X177800000Y-96393000D02*
X173990000Y-96393000D01*
X180340000Y-98933000D02*
X177800000Y-96393000D01*
X174810000Y-102875000D02*
X174810000Y-102304000D01*
X174810000Y-102304000D02*
X177292000Y-99822000D01*
X177292000Y-99822000D02*
X177292000Y-98044000D01*
X172270000Y-102875000D02*
X172270000Y-91763000D01*
X172270000Y-91763000D02*
X172466000Y-91567000D01*
M02*
