G04 #@! TF.FileFunction,Copper,L1,Top,Signal*
%FSLAX46Y46*%
G04 Gerber Fmt 4.6, Leading zero omitted, Abs format (unit mm)*
G04 Created by KiCad (PCBNEW 4.0.5-e0-6337~49~ubuntu16.04.1) date Tue Feb  7 13:51:03 2017*
%MOMM*%
%LPD*%
G01*
G04 APERTURE LIST*
%ADD10C,0.100000*%
%ADD11R,1.300000X1.300000*%
%ADD12C,1.300000*%
%ADD13R,2.000000X1.600000*%
%ADD14R,1.600000X0.550000*%
%ADD15R,0.550000X1.600000*%
%ADD16R,2.540000X2.540000*%
%ADD17C,2.540000*%
%ADD18R,1.700000X1.700000*%
%ADD19O,1.700000X1.700000*%
%ADD20R,2.000000X1.700000*%
%ADD21R,1.780000X2.000000*%
%ADD22R,3.800000X2.000000*%
%ADD23R,1.500000X2.000000*%
%ADD24R,3.000000X1.200000*%
%ADD25R,1.000000X2.000000*%
%ADD26C,0.600000*%
%ADD27C,0.250000*%
%ADD28C,0.254000*%
G04 APERTURE END LIST*
D10*
D11*
X164850000Y-77375000D03*
D12*
X169850000Y-77375000D03*
D13*
X174850000Y-76875000D03*
X178850000Y-76875000D03*
D14*
X168600000Y-91075000D03*
X168600000Y-91875000D03*
X168600000Y-92675000D03*
X168600000Y-93475000D03*
X168600000Y-94275000D03*
X168600000Y-95075000D03*
X168600000Y-95875000D03*
X168600000Y-96675000D03*
D15*
X170050000Y-98125000D03*
X170850000Y-98125000D03*
X171650000Y-98125000D03*
X172450000Y-98125000D03*
X173250000Y-98125000D03*
X174050000Y-98125000D03*
X174850000Y-98125000D03*
X175650000Y-98125000D03*
D14*
X177100000Y-96675000D03*
X177100000Y-95875000D03*
X177100000Y-95075000D03*
X177100000Y-94275000D03*
X177100000Y-93475000D03*
X177100000Y-92675000D03*
X177100000Y-91875000D03*
X177100000Y-91075000D03*
D15*
X175650000Y-89625000D03*
X174850000Y-89625000D03*
X174050000Y-89625000D03*
X173250000Y-89625000D03*
X172450000Y-89625000D03*
X171650000Y-89625000D03*
X170850000Y-89625000D03*
X170050000Y-89625000D03*
D16*
X174390000Y-56875000D03*
D17*
X169310000Y-56875000D03*
D18*
X177350000Y-102875000D03*
D19*
X177350000Y-105415000D03*
X174810000Y-102875000D03*
X174810000Y-105415000D03*
X172270000Y-102875000D03*
X172270000Y-105415000D03*
D20*
X176850000Y-62375000D03*
X172850000Y-62375000D03*
X165850000Y-85875000D03*
X169850000Y-85875000D03*
D21*
X176620000Y-65565000D03*
X174080000Y-73185000D03*
X174080000Y-65565000D03*
X176620000Y-73185000D03*
D22*
X176350000Y-86025000D03*
D23*
X176350000Y-79725000D03*
X174050000Y-79725000D03*
X178650000Y-79725000D03*
D24*
X163450000Y-108875000D03*
X163450000Y-110875000D03*
X163450000Y-112875000D03*
X163450000Y-114875000D03*
X163450000Y-116875000D03*
X163450000Y-118875000D03*
X163450000Y-120875000D03*
X163450000Y-122875000D03*
X183150000Y-122875000D03*
X183150000Y-120875000D03*
X183150000Y-118875000D03*
X183150000Y-116875000D03*
X183150000Y-114875000D03*
X183150000Y-112875000D03*
X183150000Y-110875000D03*
X183150000Y-108875000D03*
D25*
X169306240Y-62544960D03*
X166636700Y-62544960D03*
X169306240Y-69146420D03*
X166636700Y-69146420D03*
D18*
X176784000Y-125857000D03*
D19*
X179324000Y-125857000D03*
D26*
X168021000Y-118618000D03*
X171323000Y-94488000D03*
X173990000Y-96393000D03*
X180340000Y-109347000D03*
X177292000Y-98044000D03*
X172466000Y-91567000D03*
D27*
X168600000Y-94275000D02*
X167345000Y-94275000D01*
X167294000Y-92675000D02*
X168600000Y-92675000D01*
X167259000Y-92710000D02*
X167294000Y-92675000D01*
X167259000Y-94189000D02*
X167259000Y-92710000D01*
X167345000Y-94275000D02*
X167259000Y-94189000D01*
X177100000Y-93475000D02*
X172723000Y-93475000D01*
X171923000Y-92675000D02*
X168600000Y-92675000D01*
X172723000Y-93475000D02*
X171923000Y-92675000D01*
X178850000Y-76875000D02*
X178850000Y-79525000D01*
X178850000Y-79525000D02*
X178650000Y-79725000D01*
X177100000Y-93475000D02*
X179250000Y-93475000D01*
X174080000Y-71645000D02*
X174080000Y-73185000D01*
X174850000Y-70875000D02*
X174080000Y-71645000D01*
X180350000Y-70875000D02*
X174850000Y-70875000D01*
X183350000Y-73875000D02*
X180350000Y-70875000D01*
X183350000Y-89375000D02*
X183350000Y-73875000D01*
X179250000Y-93475000D02*
X183350000Y-89375000D01*
X163450000Y-122875000D02*
X165034000Y-122875000D01*
X168021000Y-119888000D02*
X168021000Y-118618000D01*
X165034000Y-122875000D02*
X168021000Y-119888000D01*
X165850000Y-85875000D02*
X165850000Y-87896000D01*
X164338000Y-89408000D02*
X164338000Y-104394000D01*
X165850000Y-87896000D02*
X164338000Y-89408000D01*
X176350000Y-79725000D02*
X176350000Y-78375000D01*
X176350000Y-78375000D02*
X174850000Y-76875000D01*
X165850000Y-85875000D02*
X165850000Y-85864000D01*
X165850000Y-85864000D02*
X168910000Y-82804000D01*
X176350000Y-81333000D02*
X176350000Y-79725000D01*
X174879000Y-82804000D02*
X176350000Y-81333000D01*
X168910000Y-82804000D02*
X174879000Y-82804000D01*
X161610000Y-122875000D02*
X163450000Y-122875000D01*
X161036000Y-122301000D02*
X161610000Y-122875000D01*
X161036000Y-107696000D02*
X161036000Y-122301000D01*
X164338000Y-104394000D02*
X161036000Y-107696000D01*
X171196000Y-94615000D02*
X170180000Y-94615000D01*
X171323000Y-94488000D02*
X171196000Y-94615000D01*
X168600000Y-93475000D02*
X170183000Y-93475000D01*
X170183000Y-93475000D02*
X170180000Y-93478000D01*
X170180000Y-93478000D02*
X170180000Y-94615000D01*
X170101000Y-95075000D02*
X168600000Y-95075000D01*
X170180000Y-94615000D02*
X170180000Y-94996000D01*
X170180000Y-94996000D02*
X170101000Y-95075000D01*
X176850000Y-62375000D02*
X176850000Y-65335000D01*
X176850000Y-65335000D02*
X176620000Y-65565000D01*
X174050000Y-96453000D02*
X174050000Y-98125000D01*
X173990000Y-96393000D02*
X174050000Y-96453000D01*
X183150000Y-110875000D02*
X181868000Y-110875000D01*
X181868000Y-110875000D02*
X180340000Y-109347000D01*
X174117000Y-98192000D02*
X174050000Y-98125000D01*
X183150000Y-112875000D02*
X181201000Y-112875000D01*
X181201000Y-112875000D02*
X174810000Y-106484000D01*
X174850000Y-98125000D02*
X174850000Y-100301000D01*
X176022000Y-104203000D02*
X174810000Y-105415000D01*
X176022000Y-101473000D02*
X176022000Y-104203000D01*
X174850000Y-100301000D02*
X176022000Y-101473000D01*
X174810000Y-106484000D02*
X174810000Y-105415000D01*
X177350000Y-102875000D02*
X177350000Y-101785000D01*
X175650000Y-100085000D02*
X175650000Y-98125000D01*
X177350000Y-101785000D02*
X175650000Y-100085000D01*
X185547000Y-108839000D02*
X185547000Y-108331000D01*
X178689000Y-102870000D02*
X178689000Y-102875000D01*
X180086000Y-102870000D02*
X178689000Y-102870000D01*
X185547000Y-108331000D02*
X180086000Y-102870000D01*
X175650000Y-98125000D02*
X175650000Y-98815000D01*
X183150000Y-114875000D02*
X185099000Y-114875000D01*
X178689000Y-102875000D02*
X177350000Y-102875000D01*
X185547000Y-114427000D02*
X185547000Y-108839000D01*
X185099000Y-114875000D02*
X185547000Y-114427000D01*
X177482500Y-113347500D02*
X180721000Y-116586000D01*
X180721000Y-116586000D02*
X182861000Y-116586000D01*
X182861000Y-116586000D02*
X183150000Y-116875000D01*
X183150000Y-116875000D02*
X181772000Y-116875000D01*
X177482500Y-113347500D02*
X173609000Y-109474000D01*
X177100000Y-97852000D02*
X177100000Y-96675000D01*
X177292000Y-98044000D02*
X177100000Y-97852000D01*
X173609000Y-104076000D02*
X174810000Y-102875000D01*
X173609000Y-109474000D02*
X173609000Y-104076000D01*
X172450000Y-91551000D02*
X172450000Y-89625000D01*
X172466000Y-91567000D02*
X172450000Y-91551000D01*
X165735000Y-108712000D02*
X165735000Y-107823000D01*
X167423000Y-89625000D02*
X170050000Y-89625000D01*
X164846000Y-92202000D02*
X167423000Y-89625000D01*
X164846000Y-106934000D02*
X164846000Y-92202000D01*
X165735000Y-107823000D02*
X164846000Y-106934000D01*
X163450000Y-110875000D02*
X165096000Y-110875000D01*
X165735000Y-110236000D02*
X165735000Y-109855000D01*
X165096000Y-110875000D02*
X165735000Y-110236000D01*
X165735000Y-108712000D02*
X165735000Y-109855000D01*
X164850000Y-77375000D02*
X164850000Y-70933120D01*
X164850000Y-70933120D02*
X166636700Y-69146420D01*
X174050000Y-79725000D02*
X165958000Y-79725000D01*
X164850000Y-78617000D02*
X164850000Y-77375000D01*
X165958000Y-79725000D02*
X164850000Y-78617000D01*
X169306240Y-62544960D02*
X169306240Y-56878760D01*
X169306240Y-56878760D02*
X169310000Y-56875000D01*
X172850000Y-62375000D02*
X169476200Y-62375000D01*
X169476200Y-62375000D02*
X169306240Y-62544960D01*
X166636700Y-62544960D02*
X166636700Y-63893700D01*
X168308000Y-65565000D02*
X174080000Y-65565000D01*
X166636700Y-63893700D02*
X168308000Y-65565000D01*
X174080000Y-65565000D02*
X174080000Y-64807000D01*
X174080000Y-64807000D02*
X174752000Y-64135000D01*
X174752000Y-64135000D02*
X174752000Y-57237000D01*
X174752000Y-57237000D02*
X174390000Y-56875000D01*
X169850000Y-85875000D02*
X169850000Y-86030000D01*
X169850000Y-86030000D02*
X171650000Y-87830000D01*
X171650000Y-87830000D02*
X171650000Y-89625000D01*
X176620000Y-73185000D02*
X179103000Y-73185000D01*
X171905000Y-83820000D02*
X169850000Y-85875000D01*
X178435000Y-83820000D02*
X171905000Y-83820000D01*
X180721000Y-81534000D02*
X178435000Y-83820000D01*
X180721000Y-74803000D02*
X180721000Y-81534000D01*
X179103000Y-73185000D02*
X180721000Y-74803000D01*
X179350000Y-125875000D02*
X179350000Y-122375000D01*
X179350000Y-122375000D02*
X180850000Y-120875000D01*
X180850000Y-120875000D02*
X183150000Y-120875000D01*
D28*
G36*
X186140000Y-107876809D02*
X186084401Y-107793599D01*
X180623401Y-102332599D01*
X180376839Y-102167852D01*
X180086000Y-102110000D01*
X178847440Y-102110000D01*
X178847440Y-102025000D01*
X178803162Y-101789683D01*
X178664090Y-101573559D01*
X178451890Y-101428569D01*
X178200000Y-101377560D01*
X177974238Y-101377560D01*
X177887401Y-101247599D01*
X176410000Y-99770198D01*
X176410000Y-99339975D01*
X176521431Y-99176890D01*
X176572440Y-98925000D01*
X176572440Y-98646628D01*
X176761673Y-98836192D01*
X177105201Y-98978838D01*
X177477167Y-98979162D01*
X177820943Y-98837117D01*
X178084192Y-98574327D01*
X178226838Y-98230799D01*
X178227162Y-97858833D01*
X178103347Y-97559178D01*
X178135317Y-97553162D01*
X178351441Y-97414090D01*
X178496431Y-97201890D01*
X178547440Y-96950000D01*
X178547440Y-96400000D01*
X178523056Y-96270411D01*
X178547440Y-96150000D01*
X178547440Y-95600000D01*
X178523056Y-95470411D01*
X178547440Y-95350000D01*
X178547440Y-94800000D01*
X178523056Y-94670411D01*
X178547440Y-94550000D01*
X178547440Y-94000000D01*
X178527550Y-93894295D01*
X178535000Y-93876310D01*
X178535000Y-93760750D01*
X178438599Y-93664349D01*
X178364090Y-93548559D01*
X178256603Y-93475116D01*
X178351441Y-93414090D01*
X178440495Y-93283755D01*
X178535000Y-93189250D01*
X178535000Y-93073690D01*
X178526532Y-93053247D01*
X178547440Y-92950000D01*
X178547440Y-92400000D01*
X178523056Y-92270411D01*
X178547440Y-92150000D01*
X178547440Y-91600000D01*
X178523056Y-91470411D01*
X178547440Y-91350000D01*
X178547440Y-90800000D01*
X178503162Y-90564683D01*
X178364090Y-90348559D01*
X178151890Y-90203569D01*
X177900000Y-90152560D01*
X176572440Y-90152560D01*
X176572440Y-88825000D01*
X176528162Y-88589683D01*
X176389090Y-88373559D01*
X176176890Y-88228569D01*
X175925000Y-88177560D01*
X175375000Y-88177560D01*
X175245411Y-88201944D01*
X175125000Y-88177560D01*
X174575000Y-88177560D01*
X174445411Y-88201944D01*
X174325000Y-88177560D01*
X173775000Y-88177560D01*
X173645411Y-88201944D01*
X173525000Y-88177560D01*
X172975000Y-88177560D01*
X172845411Y-88201944D01*
X172725000Y-88177560D01*
X172410000Y-88177560D01*
X172410000Y-87830000D01*
X172352148Y-87539161D01*
X172352148Y-87539160D01*
X172187401Y-87292599D01*
X171497440Y-86602638D01*
X171497440Y-85302362D01*
X172219802Y-84580000D01*
X173985515Y-84580000D01*
X173853569Y-84773110D01*
X173802560Y-85025000D01*
X173802560Y-87025000D01*
X173846838Y-87260317D01*
X173985910Y-87476441D01*
X174198110Y-87621431D01*
X174450000Y-87672440D01*
X178250000Y-87672440D01*
X178485317Y-87628162D01*
X178701441Y-87489090D01*
X178846431Y-87276890D01*
X178897440Y-87025000D01*
X178897440Y-85025000D01*
X178853162Y-84789683D01*
X178714090Y-84573559D01*
X178658462Y-84535550D01*
X178725839Y-84522148D01*
X178972401Y-84357401D01*
X181258401Y-82071401D01*
X181423148Y-81824840D01*
X181481000Y-81534000D01*
X181481000Y-74803000D01*
X181423148Y-74512161D01*
X181258401Y-74265599D01*
X179640401Y-72647599D01*
X179393839Y-72482852D01*
X179103000Y-72425000D01*
X178157440Y-72425000D01*
X178157440Y-72185000D01*
X178113162Y-71949683D01*
X177974090Y-71733559D01*
X177761890Y-71588569D01*
X177510000Y-71537560D01*
X175730000Y-71537560D01*
X175494683Y-71581838D01*
X175354846Y-71671820D01*
X175329699Y-71646673D01*
X175096310Y-71550000D01*
X174365750Y-71550000D01*
X174207000Y-71708750D01*
X174207000Y-73058000D01*
X174227000Y-73058000D01*
X174227000Y-73312000D01*
X174207000Y-73312000D01*
X174207000Y-74661250D01*
X174365750Y-74820000D01*
X175096310Y-74820000D01*
X175329699Y-74723327D01*
X175355423Y-74697603D01*
X175478110Y-74781431D01*
X175730000Y-74832440D01*
X177510000Y-74832440D01*
X177745317Y-74788162D01*
X177961441Y-74649090D01*
X178106431Y-74436890D01*
X178157440Y-74185000D01*
X178157440Y-73945000D01*
X178788198Y-73945000D01*
X179961000Y-75117802D01*
X179961000Y-75440000D01*
X179135750Y-75440000D01*
X178977000Y-75598750D01*
X178977000Y-76748000D01*
X178997000Y-76748000D01*
X178997000Y-77002000D01*
X178977000Y-77002000D01*
X178977000Y-77022000D01*
X178723000Y-77022000D01*
X178723000Y-77002000D01*
X177373750Y-77002000D01*
X177215000Y-77160750D01*
X177215000Y-77801310D01*
X177311673Y-78034699D01*
X177490302Y-78213327D01*
X177506810Y-78220165D01*
X177498340Y-78228634D01*
X177351890Y-78128569D01*
X177100000Y-78077560D01*
X177047738Y-78077560D01*
X176887401Y-77837599D01*
X176497440Y-77447638D01*
X176497440Y-76075000D01*
X176473674Y-75948690D01*
X177215000Y-75948690D01*
X177215000Y-76589250D01*
X177373750Y-76748000D01*
X178723000Y-76748000D01*
X178723000Y-75598750D01*
X178564250Y-75440000D01*
X177723691Y-75440000D01*
X177490302Y-75536673D01*
X177311673Y-75715301D01*
X177215000Y-75948690D01*
X176473674Y-75948690D01*
X176453162Y-75839683D01*
X176314090Y-75623559D01*
X176101890Y-75478569D01*
X175850000Y-75427560D01*
X173850000Y-75427560D01*
X173614683Y-75471838D01*
X173398559Y-75610910D01*
X173253569Y-75823110D01*
X173202560Y-76075000D01*
X173202560Y-77675000D01*
X173246838Y-77910317D01*
X173354456Y-78077560D01*
X173300000Y-78077560D01*
X173064683Y-78121838D01*
X172848559Y-78260910D01*
X172703569Y-78473110D01*
X172652560Y-78725000D01*
X172652560Y-78965000D01*
X166272802Y-78965000D01*
X165857403Y-78549601D01*
X165951441Y-78489090D01*
X166096431Y-78276890D01*
X166097012Y-78274016D01*
X169130590Y-78274016D01*
X169186271Y-78504611D01*
X169669078Y-78672622D01*
X170179428Y-78643083D01*
X170513729Y-78504611D01*
X170569410Y-78274016D01*
X169850000Y-77554605D01*
X169130590Y-78274016D01*
X166097012Y-78274016D01*
X166147440Y-78025000D01*
X166147440Y-77194078D01*
X168552378Y-77194078D01*
X168581917Y-77704428D01*
X168720389Y-78038729D01*
X168950984Y-78094410D01*
X169670395Y-77375000D01*
X170029605Y-77375000D01*
X170749016Y-78094410D01*
X170979611Y-78038729D01*
X171147622Y-77555922D01*
X171118083Y-77045572D01*
X170979611Y-76711271D01*
X170749016Y-76655590D01*
X170029605Y-77375000D01*
X169670395Y-77375000D01*
X168950984Y-76655590D01*
X168720389Y-76711271D01*
X168552378Y-77194078D01*
X166147440Y-77194078D01*
X166147440Y-76725000D01*
X166103162Y-76489683D01*
X166094347Y-76475984D01*
X169130590Y-76475984D01*
X169850000Y-77195395D01*
X170569410Y-76475984D01*
X170513729Y-76245389D01*
X170030922Y-76077378D01*
X169520572Y-76106917D01*
X169186271Y-76245389D01*
X169130590Y-76475984D01*
X166094347Y-76475984D01*
X165964090Y-76273559D01*
X165751890Y-76128569D01*
X165610000Y-76099836D01*
X165610000Y-73470750D01*
X172555000Y-73470750D01*
X172555000Y-74311309D01*
X172651673Y-74544698D01*
X172830301Y-74723327D01*
X173063690Y-74820000D01*
X173794250Y-74820000D01*
X173953000Y-74661250D01*
X173953000Y-73312000D01*
X172713750Y-73312000D01*
X172555000Y-73470750D01*
X165610000Y-73470750D01*
X165610000Y-72058691D01*
X172555000Y-72058691D01*
X172555000Y-72899250D01*
X172713750Y-73058000D01*
X173953000Y-73058000D01*
X173953000Y-71708750D01*
X173794250Y-71550000D01*
X173063690Y-71550000D01*
X172830301Y-71646673D01*
X172651673Y-71825302D01*
X172555000Y-72058691D01*
X165610000Y-72058691D01*
X165610000Y-71247922D01*
X166076294Y-70781628D01*
X166136700Y-70793860D01*
X167136700Y-70793860D01*
X167372017Y-70749582D01*
X167588141Y-70610510D01*
X167733131Y-70398310D01*
X167784140Y-70146420D01*
X167784140Y-69432170D01*
X168171240Y-69432170D01*
X168171240Y-70272730D01*
X168267913Y-70506119D01*
X168446542Y-70684747D01*
X168679931Y-70781420D01*
X169020490Y-70781420D01*
X169179240Y-70622670D01*
X169179240Y-69273420D01*
X169433240Y-69273420D01*
X169433240Y-70622670D01*
X169591990Y-70781420D01*
X169932549Y-70781420D01*
X170165938Y-70684747D01*
X170344567Y-70506119D01*
X170441240Y-70272730D01*
X170441240Y-69432170D01*
X170282490Y-69273420D01*
X169433240Y-69273420D01*
X169179240Y-69273420D01*
X168329990Y-69273420D01*
X168171240Y-69432170D01*
X167784140Y-69432170D01*
X167784140Y-68146420D01*
X167760374Y-68020110D01*
X168171240Y-68020110D01*
X168171240Y-68860670D01*
X168329990Y-69019420D01*
X169179240Y-69019420D01*
X169179240Y-67670170D01*
X169433240Y-67670170D01*
X169433240Y-69019420D01*
X170282490Y-69019420D01*
X170441240Y-68860670D01*
X170441240Y-68020110D01*
X170344567Y-67786721D01*
X170165938Y-67608093D01*
X169932549Y-67511420D01*
X169591990Y-67511420D01*
X169433240Y-67670170D01*
X169179240Y-67670170D01*
X169020490Y-67511420D01*
X168679931Y-67511420D01*
X168446542Y-67608093D01*
X168267913Y-67786721D01*
X168171240Y-68020110D01*
X167760374Y-68020110D01*
X167739862Y-67911103D01*
X167600790Y-67694979D01*
X167388590Y-67549989D01*
X167136700Y-67498980D01*
X166136700Y-67498980D01*
X165901383Y-67543258D01*
X165685259Y-67682330D01*
X165540269Y-67894530D01*
X165489260Y-68146420D01*
X165489260Y-69219058D01*
X164312599Y-70395719D01*
X164147852Y-70642281D01*
X164090000Y-70933120D01*
X164090000Y-76098258D01*
X163964683Y-76121838D01*
X163748559Y-76260910D01*
X163603569Y-76473110D01*
X163552560Y-76725000D01*
X163552560Y-78025000D01*
X163596838Y-78260317D01*
X163735910Y-78476441D01*
X163948110Y-78621431D01*
X164096874Y-78651556D01*
X164147852Y-78907839D01*
X164312599Y-79154401D01*
X165420599Y-80262401D01*
X165667161Y-80427148D01*
X165958000Y-80485000D01*
X172652560Y-80485000D01*
X172652560Y-80725000D01*
X172696838Y-80960317D01*
X172835910Y-81176441D01*
X173048110Y-81321431D01*
X173300000Y-81372440D01*
X174800000Y-81372440D01*
X175035317Y-81328162D01*
X175201477Y-81221241D01*
X175311667Y-81296531D01*
X174564198Y-82044000D01*
X168910000Y-82044000D01*
X168619161Y-82101852D01*
X168372599Y-82266598D01*
X166261638Y-84377560D01*
X164850000Y-84377560D01*
X164614683Y-84421838D01*
X164398559Y-84560910D01*
X164253569Y-84773110D01*
X164202560Y-85025000D01*
X164202560Y-86725000D01*
X164246838Y-86960317D01*
X164385910Y-87176441D01*
X164598110Y-87321431D01*
X164850000Y-87372440D01*
X165090000Y-87372440D01*
X165090000Y-87581198D01*
X163800599Y-88870599D01*
X163635852Y-89117161D01*
X163578000Y-89408000D01*
X163578000Y-104079198D01*
X160498599Y-107158599D01*
X160333852Y-107405161D01*
X160276000Y-107696000D01*
X160276000Y-122301000D01*
X160333852Y-122591839D01*
X160498599Y-122838401D01*
X161072599Y-123412401D01*
X161319161Y-123577148D01*
X161321882Y-123577689D01*
X161346838Y-123710317D01*
X161485910Y-123926441D01*
X161698110Y-124071431D01*
X161950000Y-124122440D01*
X164950000Y-124122440D01*
X165185317Y-124078162D01*
X165401441Y-123939090D01*
X165546431Y-123726890D01*
X165597440Y-123475000D01*
X165597440Y-123386362D01*
X168558401Y-120425401D01*
X168723148Y-120178839D01*
X168781000Y-119888000D01*
X168781000Y-119180463D01*
X168813192Y-119148327D01*
X168955838Y-118804799D01*
X168956162Y-118432833D01*
X168814117Y-118089057D01*
X168551327Y-117825808D01*
X168207799Y-117683162D01*
X167835833Y-117682838D01*
X167492057Y-117824883D01*
X167228808Y-118087673D01*
X167086162Y-118431201D01*
X167085838Y-118803167D01*
X167227883Y-119146943D01*
X167261000Y-119180118D01*
X167261000Y-119573198D01*
X165597440Y-121236758D01*
X165597440Y-120275000D01*
X165553162Y-120039683D01*
X165446241Y-119873523D01*
X165546431Y-119726890D01*
X165597440Y-119475000D01*
X165597440Y-118275000D01*
X165553162Y-118039683D01*
X165446241Y-117873523D01*
X165546431Y-117726890D01*
X165597440Y-117475000D01*
X165597440Y-116275000D01*
X165553162Y-116039683D01*
X165446241Y-115873523D01*
X165546431Y-115726890D01*
X165597440Y-115475000D01*
X165597440Y-114275000D01*
X165553162Y-114039683D01*
X165446241Y-113873523D01*
X165546431Y-113726890D01*
X165597440Y-113475000D01*
X165597440Y-112275000D01*
X165553162Y-112039683D01*
X165446241Y-111873523D01*
X165546431Y-111726890D01*
X165597440Y-111475000D01*
X165597440Y-111436429D01*
X165633401Y-111412401D01*
X166272401Y-110773401D01*
X166437148Y-110526840D01*
X166446746Y-110478586D01*
X166495000Y-110236000D01*
X166495000Y-107823000D01*
X166437148Y-107532161D01*
X166272401Y-107285599D01*
X165606000Y-106619198D01*
X165606000Y-105771892D01*
X170828514Y-105771892D01*
X171074817Y-106296358D01*
X171503076Y-106686645D01*
X171913110Y-106856476D01*
X172143000Y-106735155D01*
X172143000Y-105542000D01*
X170949181Y-105542000D01*
X170828514Y-105771892D01*
X165606000Y-105771892D01*
X165606000Y-92516802D01*
X167152560Y-90970242D01*
X167152560Y-91350000D01*
X167176944Y-91479589D01*
X167152560Y-91600000D01*
X167152560Y-92150000D01*
X167172450Y-92255705D01*
X167165000Y-92273690D01*
X167165000Y-92389250D01*
X167261401Y-92485651D01*
X167335910Y-92601441D01*
X167443397Y-92674884D01*
X167348559Y-92735910D01*
X167259505Y-92866245D01*
X167165000Y-92960750D01*
X167165000Y-93076310D01*
X167173468Y-93096753D01*
X167152560Y-93200000D01*
X167152560Y-93750000D01*
X167172450Y-93855705D01*
X167165000Y-93873690D01*
X167165000Y-93989250D01*
X167261401Y-94085651D01*
X167335910Y-94201441D01*
X167443397Y-94274884D01*
X167348559Y-94335910D01*
X167259505Y-94466245D01*
X167165000Y-94560750D01*
X167165000Y-94676310D01*
X167173468Y-94696753D01*
X167152560Y-94800000D01*
X167152560Y-95350000D01*
X167176944Y-95479589D01*
X167152560Y-95600000D01*
X167152560Y-96150000D01*
X167176944Y-96279589D01*
X167152560Y-96400000D01*
X167152560Y-96950000D01*
X167196838Y-97185317D01*
X167335910Y-97401441D01*
X167548110Y-97546431D01*
X167800000Y-97597440D01*
X169127560Y-97597440D01*
X169127560Y-98925000D01*
X169171838Y-99160317D01*
X169310910Y-99376441D01*
X169523110Y-99521431D01*
X169775000Y-99572440D01*
X170325000Y-99572440D01*
X170454589Y-99548056D01*
X170575000Y-99572440D01*
X171125000Y-99572440D01*
X171254589Y-99548056D01*
X171375000Y-99572440D01*
X171925000Y-99572440D01*
X172054589Y-99548056D01*
X172175000Y-99572440D01*
X172725000Y-99572440D01*
X172854589Y-99548056D01*
X172975000Y-99572440D01*
X173525000Y-99572440D01*
X173654589Y-99548056D01*
X173775000Y-99572440D01*
X174090000Y-99572440D01*
X174090000Y-100301000D01*
X174147852Y-100591839D01*
X174312599Y-100838401D01*
X174841339Y-101367141D01*
X174810000Y-101360907D01*
X174241715Y-101473946D01*
X173759946Y-101795853D01*
X173540000Y-102125026D01*
X173320054Y-101795853D01*
X172838285Y-101473946D01*
X172270000Y-101360907D01*
X171701715Y-101473946D01*
X171219946Y-101795853D01*
X170898039Y-102277622D01*
X170785000Y-102845907D01*
X170785000Y-102904093D01*
X170898039Y-103472378D01*
X171219946Y-103954147D01*
X171503101Y-104143345D01*
X171503076Y-104143355D01*
X171074817Y-104533642D01*
X170828514Y-105058108D01*
X170949181Y-105288000D01*
X172143000Y-105288000D01*
X172143000Y-105268000D01*
X172397000Y-105268000D01*
X172397000Y-105288000D01*
X172417000Y-105288000D01*
X172417000Y-105542000D01*
X172397000Y-105542000D01*
X172397000Y-106735155D01*
X172626890Y-106856476D01*
X172849000Y-106764481D01*
X172849000Y-109474000D01*
X172906852Y-109764839D01*
X173071599Y-110011401D01*
X180183599Y-117123401D01*
X180430161Y-117288148D01*
X180721000Y-117346000D01*
X181002560Y-117346000D01*
X181002560Y-117475000D01*
X181046838Y-117710317D01*
X181152482Y-117874492D01*
X181111673Y-117915301D01*
X181015000Y-118148690D01*
X181015000Y-118589250D01*
X181173750Y-118748000D01*
X183023000Y-118748000D01*
X183023000Y-118728000D01*
X183277000Y-118728000D01*
X183277000Y-118748000D01*
X185126250Y-118748000D01*
X185285000Y-118589250D01*
X185285000Y-118148690D01*
X185188327Y-117915301D01*
X185146366Y-117873340D01*
X185246431Y-117726890D01*
X185297440Y-117475000D01*
X185297440Y-116275000D01*
X185253162Y-116039683D01*
X185146241Y-115873523D01*
X185246431Y-115726890D01*
X185272008Y-115600586D01*
X185389839Y-115577148D01*
X185636401Y-115412401D01*
X186084401Y-114964401D01*
X186140000Y-114881191D01*
X186140000Y-126665000D01*
X180555228Y-126665000D01*
X180695961Y-126454378D01*
X180809000Y-125886093D01*
X180809000Y-125827907D01*
X180695961Y-125259622D01*
X180374054Y-124777853D01*
X180110000Y-124601418D01*
X180110000Y-123160750D01*
X181015000Y-123160750D01*
X181015000Y-123601310D01*
X181111673Y-123834699D01*
X181290302Y-124013327D01*
X181523691Y-124110000D01*
X182864250Y-124110000D01*
X183023000Y-123951250D01*
X183023000Y-123002000D01*
X183277000Y-123002000D01*
X183277000Y-123951250D01*
X183435750Y-124110000D01*
X184776309Y-124110000D01*
X185009698Y-124013327D01*
X185188327Y-123834699D01*
X185285000Y-123601310D01*
X185285000Y-123160750D01*
X185126250Y-123002000D01*
X183277000Y-123002000D01*
X183023000Y-123002000D01*
X181173750Y-123002000D01*
X181015000Y-123160750D01*
X180110000Y-123160750D01*
X180110000Y-122689802D01*
X181063536Y-121736266D01*
X181152482Y-121874492D01*
X181111673Y-121915301D01*
X181015000Y-122148690D01*
X181015000Y-122589250D01*
X181173750Y-122748000D01*
X183023000Y-122748000D01*
X183023000Y-122728000D01*
X183277000Y-122728000D01*
X183277000Y-122748000D01*
X185126250Y-122748000D01*
X185285000Y-122589250D01*
X185285000Y-122148690D01*
X185188327Y-121915301D01*
X185146366Y-121873340D01*
X185246431Y-121726890D01*
X185297440Y-121475000D01*
X185297440Y-120275000D01*
X185253162Y-120039683D01*
X185147518Y-119875508D01*
X185188327Y-119834699D01*
X185285000Y-119601310D01*
X185285000Y-119160750D01*
X185126250Y-119002000D01*
X183277000Y-119002000D01*
X183277000Y-119022000D01*
X183023000Y-119022000D01*
X183023000Y-119002000D01*
X181173750Y-119002000D01*
X181015000Y-119160750D01*
X181015000Y-119601310D01*
X181111673Y-119834699D01*
X181153634Y-119876660D01*
X181053569Y-120023110D01*
X181034961Y-120115000D01*
X180850000Y-120115000D01*
X180559160Y-120172852D01*
X180312599Y-120337599D01*
X178812599Y-121837599D01*
X178647852Y-122084161D01*
X178590000Y-122375000D01*
X178590000Y-124566673D01*
X178273946Y-124777853D01*
X178244597Y-124821777D01*
X178172327Y-124647302D01*
X177993699Y-124468673D01*
X177760310Y-124372000D01*
X177069750Y-124372000D01*
X176911000Y-124530750D01*
X176911000Y-125730000D01*
X176931000Y-125730000D01*
X176931000Y-125984000D01*
X176911000Y-125984000D01*
X176911000Y-126004000D01*
X176657000Y-126004000D01*
X176657000Y-125984000D01*
X175457750Y-125984000D01*
X175299000Y-126142750D01*
X175299000Y-126665000D01*
X160060000Y-126665000D01*
X160060000Y-124880691D01*
X175299000Y-124880691D01*
X175299000Y-125571250D01*
X175457750Y-125730000D01*
X176657000Y-125730000D01*
X176657000Y-124530750D01*
X176498250Y-124372000D01*
X175807690Y-124372000D01*
X175574301Y-124468673D01*
X175395673Y-124647302D01*
X175299000Y-124880691D01*
X160060000Y-124880691D01*
X160060000Y-61544960D01*
X165489260Y-61544960D01*
X165489260Y-63544960D01*
X165533538Y-63780277D01*
X165672610Y-63996401D01*
X165884810Y-64141391D01*
X165927697Y-64150076D01*
X165934552Y-64184539D01*
X166099299Y-64431101D01*
X167770599Y-66102401D01*
X168017161Y-66267148D01*
X168308000Y-66325000D01*
X172542560Y-66325000D01*
X172542560Y-66565000D01*
X172586838Y-66800317D01*
X172725910Y-67016441D01*
X172938110Y-67161431D01*
X173190000Y-67212440D01*
X174970000Y-67212440D01*
X175205317Y-67168162D01*
X175350877Y-67074497D01*
X175478110Y-67161431D01*
X175730000Y-67212440D01*
X177510000Y-67212440D01*
X177745317Y-67168162D01*
X177961441Y-67029090D01*
X178106431Y-66816890D01*
X178157440Y-66565000D01*
X178157440Y-64565000D01*
X178113162Y-64329683D01*
X177974090Y-64113559D01*
X177761890Y-63968569D01*
X177610000Y-63937811D01*
X177610000Y-63872440D01*
X177850000Y-63872440D01*
X178085317Y-63828162D01*
X178301441Y-63689090D01*
X178446431Y-63476890D01*
X178497440Y-63225000D01*
X178497440Y-61525000D01*
X178453162Y-61289683D01*
X178314090Y-61073559D01*
X178101890Y-60928569D01*
X177850000Y-60877560D01*
X175850000Y-60877560D01*
X175614683Y-60921838D01*
X175512000Y-60987913D01*
X175512000Y-58792440D01*
X175660000Y-58792440D01*
X175895317Y-58748162D01*
X176111441Y-58609090D01*
X176256431Y-58396890D01*
X176307440Y-58145000D01*
X176307440Y-55605000D01*
X176263162Y-55369683D01*
X176124090Y-55153559D01*
X175911890Y-55008569D01*
X175660000Y-54957560D01*
X173120000Y-54957560D01*
X172884683Y-55001838D01*
X172668559Y-55140910D01*
X172523569Y-55353110D01*
X172472560Y-55605000D01*
X172472560Y-58145000D01*
X172516838Y-58380317D01*
X172655910Y-58596441D01*
X172868110Y-58741431D01*
X173120000Y-58792440D01*
X173992000Y-58792440D01*
X173992000Y-60906316D01*
X173850000Y-60877560D01*
X171850000Y-60877560D01*
X171614683Y-60921838D01*
X171398559Y-61060910D01*
X171253569Y-61273110D01*
X171202560Y-61525000D01*
X171202560Y-61615000D01*
X170453680Y-61615000D01*
X170453680Y-61544960D01*
X170409402Y-61309643D01*
X170270330Y-61093519D01*
X170066240Y-60954070D01*
X170066240Y-58623741D01*
X170387686Y-58490922D01*
X170924039Y-57955505D01*
X171214668Y-57255590D01*
X171215330Y-56497735D01*
X170925922Y-55797314D01*
X170390505Y-55260961D01*
X169690590Y-54970332D01*
X168932735Y-54969670D01*
X168232314Y-55259078D01*
X167695961Y-55794495D01*
X167405332Y-56494410D01*
X167404670Y-57252265D01*
X167694078Y-57952686D01*
X168229495Y-58489039D01*
X168546240Y-58620563D01*
X168546240Y-60957681D01*
X168354799Y-61080870D01*
X168209809Y-61293070D01*
X168158800Y-61544960D01*
X168158800Y-63544960D01*
X168203078Y-63780277D01*
X168342150Y-63996401D01*
X168554350Y-64141391D01*
X168806240Y-64192400D01*
X169806240Y-64192400D01*
X170041557Y-64148122D01*
X170257681Y-64009050D01*
X170402671Y-63796850D01*
X170453680Y-63544960D01*
X170453680Y-63135000D01*
X171202560Y-63135000D01*
X171202560Y-63225000D01*
X171246838Y-63460317D01*
X171385910Y-63676441D01*
X171598110Y-63821431D01*
X171850000Y-63872440D01*
X173850000Y-63872440D01*
X173960562Y-63851636D01*
X173894638Y-63917560D01*
X173190000Y-63917560D01*
X172954683Y-63961838D01*
X172738559Y-64100910D01*
X172593569Y-64313110D01*
X172542560Y-64565000D01*
X172542560Y-64805000D01*
X168622802Y-64805000D01*
X167685038Y-63867236D01*
X167733131Y-63796850D01*
X167784140Y-63544960D01*
X167784140Y-61544960D01*
X167739862Y-61309643D01*
X167600790Y-61093519D01*
X167388590Y-60948529D01*
X167136700Y-60897520D01*
X166136700Y-60897520D01*
X165901383Y-60941798D01*
X165685259Y-61080870D01*
X165540269Y-61293070D01*
X165489260Y-61544960D01*
X160060000Y-61544960D01*
X160060000Y-53585000D01*
X186140000Y-53585000D01*
X186140000Y-107876809D01*
X186140000Y-107876809D01*
G37*
X186140000Y-107876809D02*
X186084401Y-107793599D01*
X180623401Y-102332599D01*
X180376839Y-102167852D01*
X180086000Y-102110000D01*
X178847440Y-102110000D01*
X178847440Y-102025000D01*
X178803162Y-101789683D01*
X178664090Y-101573559D01*
X178451890Y-101428569D01*
X178200000Y-101377560D01*
X177974238Y-101377560D01*
X177887401Y-101247599D01*
X176410000Y-99770198D01*
X176410000Y-99339975D01*
X176521431Y-99176890D01*
X176572440Y-98925000D01*
X176572440Y-98646628D01*
X176761673Y-98836192D01*
X177105201Y-98978838D01*
X177477167Y-98979162D01*
X177820943Y-98837117D01*
X178084192Y-98574327D01*
X178226838Y-98230799D01*
X178227162Y-97858833D01*
X178103347Y-97559178D01*
X178135317Y-97553162D01*
X178351441Y-97414090D01*
X178496431Y-97201890D01*
X178547440Y-96950000D01*
X178547440Y-96400000D01*
X178523056Y-96270411D01*
X178547440Y-96150000D01*
X178547440Y-95600000D01*
X178523056Y-95470411D01*
X178547440Y-95350000D01*
X178547440Y-94800000D01*
X178523056Y-94670411D01*
X178547440Y-94550000D01*
X178547440Y-94000000D01*
X178527550Y-93894295D01*
X178535000Y-93876310D01*
X178535000Y-93760750D01*
X178438599Y-93664349D01*
X178364090Y-93548559D01*
X178256603Y-93475116D01*
X178351441Y-93414090D01*
X178440495Y-93283755D01*
X178535000Y-93189250D01*
X178535000Y-93073690D01*
X178526532Y-93053247D01*
X178547440Y-92950000D01*
X178547440Y-92400000D01*
X178523056Y-92270411D01*
X178547440Y-92150000D01*
X178547440Y-91600000D01*
X178523056Y-91470411D01*
X178547440Y-91350000D01*
X178547440Y-90800000D01*
X178503162Y-90564683D01*
X178364090Y-90348559D01*
X178151890Y-90203569D01*
X177900000Y-90152560D01*
X176572440Y-90152560D01*
X176572440Y-88825000D01*
X176528162Y-88589683D01*
X176389090Y-88373559D01*
X176176890Y-88228569D01*
X175925000Y-88177560D01*
X175375000Y-88177560D01*
X175245411Y-88201944D01*
X175125000Y-88177560D01*
X174575000Y-88177560D01*
X174445411Y-88201944D01*
X174325000Y-88177560D01*
X173775000Y-88177560D01*
X173645411Y-88201944D01*
X173525000Y-88177560D01*
X172975000Y-88177560D01*
X172845411Y-88201944D01*
X172725000Y-88177560D01*
X172410000Y-88177560D01*
X172410000Y-87830000D01*
X172352148Y-87539161D01*
X172352148Y-87539160D01*
X172187401Y-87292599D01*
X171497440Y-86602638D01*
X171497440Y-85302362D01*
X172219802Y-84580000D01*
X173985515Y-84580000D01*
X173853569Y-84773110D01*
X173802560Y-85025000D01*
X173802560Y-87025000D01*
X173846838Y-87260317D01*
X173985910Y-87476441D01*
X174198110Y-87621431D01*
X174450000Y-87672440D01*
X178250000Y-87672440D01*
X178485317Y-87628162D01*
X178701441Y-87489090D01*
X178846431Y-87276890D01*
X178897440Y-87025000D01*
X178897440Y-85025000D01*
X178853162Y-84789683D01*
X178714090Y-84573559D01*
X178658462Y-84535550D01*
X178725839Y-84522148D01*
X178972401Y-84357401D01*
X181258401Y-82071401D01*
X181423148Y-81824840D01*
X181481000Y-81534000D01*
X181481000Y-74803000D01*
X181423148Y-74512161D01*
X181258401Y-74265599D01*
X179640401Y-72647599D01*
X179393839Y-72482852D01*
X179103000Y-72425000D01*
X178157440Y-72425000D01*
X178157440Y-72185000D01*
X178113162Y-71949683D01*
X177974090Y-71733559D01*
X177761890Y-71588569D01*
X177510000Y-71537560D01*
X175730000Y-71537560D01*
X175494683Y-71581838D01*
X175354846Y-71671820D01*
X175329699Y-71646673D01*
X175096310Y-71550000D01*
X174365750Y-71550000D01*
X174207000Y-71708750D01*
X174207000Y-73058000D01*
X174227000Y-73058000D01*
X174227000Y-73312000D01*
X174207000Y-73312000D01*
X174207000Y-74661250D01*
X174365750Y-74820000D01*
X175096310Y-74820000D01*
X175329699Y-74723327D01*
X175355423Y-74697603D01*
X175478110Y-74781431D01*
X175730000Y-74832440D01*
X177510000Y-74832440D01*
X177745317Y-74788162D01*
X177961441Y-74649090D01*
X178106431Y-74436890D01*
X178157440Y-74185000D01*
X178157440Y-73945000D01*
X178788198Y-73945000D01*
X179961000Y-75117802D01*
X179961000Y-75440000D01*
X179135750Y-75440000D01*
X178977000Y-75598750D01*
X178977000Y-76748000D01*
X178997000Y-76748000D01*
X178997000Y-77002000D01*
X178977000Y-77002000D01*
X178977000Y-77022000D01*
X178723000Y-77022000D01*
X178723000Y-77002000D01*
X177373750Y-77002000D01*
X177215000Y-77160750D01*
X177215000Y-77801310D01*
X177311673Y-78034699D01*
X177490302Y-78213327D01*
X177506810Y-78220165D01*
X177498340Y-78228634D01*
X177351890Y-78128569D01*
X177100000Y-78077560D01*
X177047738Y-78077560D01*
X176887401Y-77837599D01*
X176497440Y-77447638D01*
X176497440Y-76075000D01*
X176473674Y-75948690D01*
X177215000Y-75948690D01*
X177215000Y-76589250D01*
X177373750Y-76748000D01*
X178723000Y-76748000D01*
X178723000Y-75598750D01*
X178564250Y-75440000D01*
X177723691Y-75440000D01*
X177490302Y-75536673D01*
X177311673Y-75715301D01*
X177215000Y-75948690D01*
X176473674Y-75948690D01*
X176453162Y-75839683D01*
X176314090Y-75623559D01*
X176101890Y-75478569D01*
X175850000Y-75427560D01*
X173850000Y-75427560D01*
X173614683Y-75471838D01*
X173398559Y-75610910D01*
X173253569Y-75823110D01*
X173202560Y-76075000D01*
X173202560Y-77675000D01*
X173246838Y-77910317D01*
X173354456Y-78077560D01*
X173300000Y-78077560D01*
X173064683Y-78121838D01*
X172848559Y-78260910D01*
X172703569Y-78473110D01*
X172652560Y-78725000D01*
X172652560Y-78965000D01*
X166272802Y-78965000D01*
X165857403Y-78549601D01*
X165951441Y-78489090D01*
X166096431Y-78276890D01*
X166097012Y-78274016D01*
X169130590Y-78274016D01*
X169186271Y-78504611D01*
X169669078Y-78672622D01*
X170179428Y-78643083D01*
X170513729Y-78504611D01*
X170569410Y-78274016D01*
X169850000Y-77554605D01*
X169130590Y-78274016D01*
X166097012Y-78274016D01*
X166147440Y-78025000D01*
X166147440Y-77194078D01*
X168552378Y-77194078D01*
X168581917Y-77704428D01*
X168720389Y-78038729D01*
X168950984Y-78094410D01*
X169670395Y-77375000D01*
X170029605Y-77375000D01*
X170749016Y-78094410D01*
X170979611Y-78038729D01*
X171147622Y-77555922D01*
X171118083Y-77045572D01*
X170979611Y-76711271D01*
X170749016Y-76655590D01*
X170029605Y-77375000D01*
X169670395Y-77375000D01*
X168950984Y-76655590D01*
X168720389Y-76711271D01*
X168552378Y-77194078D01*
X166147440Y-77194078D01*
X166147440Y-76725000D01*
X166103162Y-76489683D01*
X166094347Y-76475984D01*
X169130590Y-76475984D01*
X169850000Y-77195395D01*
X170569410Y-76475984D01*
X170513729Y-76245389D01*
X170030922Y-76077378D01*
X169520572Y-76106917D01*
X169186271Y-76245389D01*
X169130590Y-76475984D01*
X166094347Y-76475984D01*
X165964090Y-76273559D01*
X165751890Y-76128569D01*
X165610000Y-76099836D01*
X165610000Y-73470750D01*
X172555000Y-73470750D01*
X172555000Y-74311309D01*
X172651673Y-74544698D01*
X172830301Y-74723327D01*
X173063690Y-74820000D01*
X173794250Y-74820000D01*
X173953000Y-74661250D01*
X173953000Y-73312000D01*
X172713750Y-73312000D01*
X172555000Y-73470750D01*
X165610000Y-73470750D01*
X165610000Y-72058691D01*
X172555000Y-72058691D01*
X172555000Y-72899250D01*
X172713750Y-73058000D01*
X173953000Y-73058000D01*
X173953000Y-71708750D01*
X173794250Y-71550000D01*
X173063690Y-71550000D01*
X172830301Y-71646673D01*
X172651673Y-71825302D01*
X172555000Y-72058691D01*
X165610000Y-72058691D01*
X165610000Y-71247922D01*
X166076294Y-70781628D01*
X166136700Y-70793860D01*
X167136700Y-70793860D01*
X167372017Y-70749582D01*
X167588141Y-70610510D01*
X167733131Y-70398310D01*
X167784140Y-70146420D01*
X167784140Y-69432170D01*
X168171240Y-69432170D01*
X168171240Y-70272730D01*
X168267913Y-70506119D01*
X168446542Y-70684747D01*
X168679931Y-70781420D01*
X169020490Y-70781420D01*
X169179240Y-70622670D01*
X169179240Y-69273420D01*
X169433240Y-69273420D01*
X169433240Y-70622670D01*
X169591990Y-70781420D01*
X169932549Y-70781420D01*
X170165938Y-70684747D01*
X170344567Y-70506119D01*
X170441240Y-70272730D01*
X170441240Y-69432170D01*
X170282490Y-69273420D01*
X169433240Y-69273420D01*
X169179240Y-69273420D01*
X168329990Y-69273420D01*
X168171240Y-69432170D01*
X167784140Y-69432170D01*
X167784140Y-68146420D01*
X167760374Y-68020110D01*
X168171240Y-68020110D01*
X168171240Y-68860670D01*
X168329990Y-69019420D01*
X169179240Y-69019420D01*
X169179240Y-67670170D01*
X169433240Y-67670170D01*
X169433240Y-69019420D01*
X170282490Y-69019420D01*
X170441240Y-68860670D01*
X170441240Y-68020110D01*
X170344567Y-67786721D01*
X170165938Y-67608093D01*
X169932549Y-67511420D01*
X169591990Y-67511420D01*
X169433240Y-67670170D01*
X169179240Y-67670170D01*
X169020490Y-67511420D01*
X168679931Y-67511420D01*
X168446542Y-67608093D01*
X168267913Y-67786721D01*
X168171240Y-68020110D01*
X167760374Y-68020110D01*
X167739862Y-67911103D01*
X167600790Y-67694979D01*
X167388590Y-67549989D01*
X167136700Y-67498980D01*
X166136700Y-67498980D01*
X165901383Y-67543258D01*
X165685259Y-67682330D01*
X165540269Y-67894530D01*
X165489260Y-68146420D01*
X165489260Y-69219058D01*
X164312599Y-70395719D01*
X164147852Y-70642281D01*
X164090000Y-70933120D01*
X164090000Y-76098258D01*
X163964683Y-76121838D01*
X163748559Y-76260910D01*
X163603569Y-76473110D01*
X163552560Y-76725000D01*
X163552560Y-78025000D01*
X163596838Y-78260317D01*
X163735910Y-78476441D01*
X163948110Y-78621431D01*
X164096874Y-78651556D01*
X164147852Y-78907839D01*
X164312599Y-79154401D01*
X165420599Y-80262401D01*
X165667161Y-80427148D01*
X165958000Y-80485000D01*
X172652560Y-80485000D01*
X172652560Y-80725000D01*
X172696838Y-80960317D01*
X172835910Y-81176441D01*
X173048110Y-81321431D01*
X173300000Y-81372440D01*
X174800000Y-81372440D01*
X175035317Y-81328162D01*
X175201477Y-81221241D01*
X175311667Y-81296531D01*
X174564198Y-82044000D01*
X168910000Y-82044000D01*
X168619161Y-82101852D01*
X168372599Y-82266598D01*
X166261638Y-84377560D01*
X164850000Y-84377560D01*
X164614683Y-84421838D01*
X164398559Y-84560910D01*
X164253569Y-84773110D01*
X164202560Y-85025000D01*
X164202560Y-86725000D01*
X164246838Y-86960317D01*
X164385910Y-87176441D01*
X164598110Y-87321431D01*
X164850000Y-87372440D01*
X165090000Y-87372440D01*
X165090000Y-87581198D01*
X163800599Y-88870599D01*
X163635852Y-89117161D01*
X163578000Y-89408000D01*
X163578000Y-104079198D01*
X160498599Y-107158599D01*
X160333852Y-107405161D01*
X160276000Y-107696000D01*
X160276000Y-122301000D01*
X160333852Y-122591839D01*
X160498599Y-122838401D01*
X161072599Y-123412401D01*
X161319161Y-123577148D01*
X161321882Y-123577689D01*
X161346838Y-123710317D01*
X161485910Y-123926441D01*
X161698110Y-124071431D01*
X161950000Y-124122440D01*
X164950000Y-124122440D01*
X165185317Y-124078162D01*
X165401441Y-123939090D01*
X165546431Y-123726890D01*
X165597440Y-123475000D01*
X165597440Y-123386362D01*
X168558401Y-120425401D01*
X168723148Y-120178839D01*
X168781000Y-119888000D01*
X168781000Y-119180463D01*
X168813192Y-119148327D01*
X168955838Y-118804799D01*
X168956162Y-118432833D01*
X168814117Y-118089057D01*
X168551327Y-117825808D01*
X168207799Y-117683162D01*
X167835833Y-117682838D01*
X167492057Y-117824883D01*
X167228808Y-118087673D01*
X167086162Y-118431201D01*
X167085838Y-118803167D01*
X167227883Y-119146943D01*
X167261000Y-119180118D01*
X167261000Y-119573198D01*
X165597440Y-121236758D01*
X165597440Y-120275000D01*
X165553162Y-120039683D01*
X165446241Y-119873523D01*
X165546431Y-119726890D01*
X165597440Y-119475000D01*
X165597440Y-118275000D01*
X165553162Y-118039683D01*
X165446241Y-117873523D01*
X165546431Y-117726890D01*
X165597440Y-117475000D01*
X165597440Y-116275000D01*
X165553162Y-116039683D01*
X165446241Y-115873523D01*
X165546431Y-115726890D01*
X165597440Y-115475000D01*
X165597440Y-114275000D01*
X165553162Y-114039683D01*
X165446241Y-113873523D01*
X165546431Y-113726890D01*
X165597440Y-113475000D01*
X165597440Y-112275000D01*
X165553162Y-112039683D01*
X165446241Y-111873523D01*
X165546431Y-111726890D01*
X165597440Y-111475000D01*
X165597440Y-111436429D01*
X165633401Y-111412401D01*
X166272401Y-110773401D01*
X166437148Y-110526840D01*
X166446746Y-110478586D01*
X166495000Y-110236000D01*
X166495000Y-107823000D01*
X166437148Y-107532161D01*
X166272401Y-107285599D01*
X165606000Y-106619198D01*
X165606000Y-105771892D01*
X170828514Y-105771892D01*
X171074817Y-106296358D01*
X171503076Y-106686645D01*
X171913110Y-106856476D01*
X172143000Y-106735155D01*
X172143000Y-105542000D01*
X170949181Y-105542000D01*
X170828514Y-105771892D01*
X165606000Y-105771892D01*
X165606000Y-92516802D01*
X167152560Y-90970242D01*
X167152560Y-91350000D01*
X167176944Y-91479589D01*
X167152560Y-91600000D01*
X167152560Y-92150000D01*
X167172450Y-92255705D01*
X167165000Y-92273690D01*
X167165000Y-92389250D01*
X167261401Y-92485651D01*
X167335910Y-92601441D01*
X167443397Y-92674884D01*
X167348559Y-92735910D01*
X167259505Y-92866245D01*
X167165000Y-92960750D01*
X167165000Y-93076310D01*
X167173468Y-93096753D01*
X167152560Y-93200000D01*
X167152560Y-93750000D01*
X167172450Y-93855705D01*
X167165000Y-93873690D01*
X167165000Y-93989250D01*
X167261401Y-94085651D01*
X167335910Y-94201441D01*
X167443397Y-94274884D01*
X167348559Y-94335910D01*
X167259505Y-94466245D01*
X167165000Y-94560750D01*
X167165000Y-94676310D01*
X167173468Y-94696753D01*
X167152560Y-94800000D01*
X167152560Y-95350000D01*
X167176944Y-95479589D01*
X167152560Y-95600000D01*
X167152560Y-96150000D01*
X167176944Y-96279589D01*
X167152560Y-96400000D01*
X167152560Y-96950000D01*
X167196838Y-97185317D01*
X167335910Y-97401441D01*
X167548110Y-97546431D01*
X167800000Y-97597440D01*
X169127560Y-97597440D01*
X169127560Y-98925000D01*
X169171838Y-99160317D01*
X169310910Y-99376441D01*
X169523110Y-99521431D01*
X169775000Y-99572440D01*
X170325000Y-99572440D01*
X170454589Y-99548056D01*
X170575000Y-99572440D01*
X171125000Y-99572440D01*
X171254589Y-99548056D01*
X171375000Y-99572440D01*
X171925000Y-99572440D01*
X172054589Y-99548056D01*
X172175000Y-99572440D01*
X172725000Y-99572440D01*
X172854589Y-99548056D01*
X172975000Y-99572440D01*
X173525000Y-99572440D01*
X173654589Y-99548056D01*
X173775000Y-99572440D01*
X174090000Y-99572440D01*
X174090000Y-100301000D01*
X174147852Y-100591839D01*
X174312599Y-100838401D01*
X174841339Y-101367141D01*
X174810000Y-101360907D01*
X174241715Y-101473946D01*
X173759946Y-101795853D01*
X173540000Y-102125026D01*
X173320054Y-101795853D01*
X172838285Y-101473946D01*
X172270000Y-101360907D01*
X171701715Y-101473946D01*
X171219946Y-101795853D01*
X170898039Y-102277622D01*
X170785000Y-102845907D01*
X170785000Y-102904093D01*
X170898039Y-103472378D01*
X171219946Y-103954147D01*
X171503101Y-104143345D01*
X171503076Y-104143355D01*
X171074817Y-104533642D01*
X170828514Y-105058108D01*
X170949181Y-105288000D01*
X172143000Y-105288000D01*
X172143000Y-105268000D01*
X172397000Y-105268000D01*
X172397000Y-105288000D01*
X172417000Y-105288000D01*
X172417000Y-105542000D01*
X172397000Y-105542000D01*
X172397000Y-106735155D01*
X172626890Y-106856476D01*
X172849000Y-106764481D01*
X172849000Y-109474000D01*
X172906852Y-109764839D01*
X173071599Y-110011401D01*
X180183599Y-117123401D01*
X180430161Y-117288148D01*
X180721000Y-117346000D01*
X181002560Y-117346000D01*
X181002560Y-117475000D01*
X181046838Y-117710317D01*
X181152482Y-117874492D01*
X181111673Y-117915301D01*
X181015000Y-118148690D01*
X181015000Y-118589250D01*
X181173750Y-118748000D01*
X183023000Y-118748000D01*
X183023000Y-118728000D01*
X183277000Y-118728000D01*
X183277000Y-118748000D01*
X185126250Y-118748000D01*
X185285000Y-118589250D01*
X185285000Y-118148690D01*
X185188327Y-117915301D01*
X185146366Y-117873340D01*
X185246431Y-117726890D01*
X185297440Y-117475000D01*
X185297440Y-116275000D01*
X185253162Y-116039683D01*
X185146241Y-115873523D01*
X185246431Y-115726890D01*
X185272008Y-115600586D01*
X185389839Y-115577148D01*
X185636401Y-115412401D01*
X186084401Y-114964401D01*
X186140000Y-114881191D01*
X186140000Y-126665000D01*
X180555228Y-126665000D01*
X180695961Y-126454378D01*
X180809000Y-125886093D01*
X180809000Y-125827907D01*
X180695961Y-125259622D01*
X180374054Y-124777853D01*
X180110000Y-124601418D01*
X180110000Y-123160750D01*
X181015000Y-123160750D01*
X181015000Y-123601310D01*
X181111673Y-123834699D01*
X181290302Y-124013327D01*
X181523691Y-124110000D01*
X182864250Y-124110000D01*
X183023000Y-123951250D01*
X183023000Y-123002000D01*
X183277000Y-123002000D01*
X183277000Y-123951250D01*
X183435750Y-124110000D01*
X184776309Y-124110000D01*
X185009698Y-124013327D01*
X185188327Y-123834699D01*
X185285000Y-123601310D01*
X185285000Y-123160750D01*
X185126250Y-123002000D01*
X183277000Y-123002000D01*
X183023000Y-123002000D01*
X181173750Y-123002000D01*
X181015000Y-123160750D01*
X180110000Y-123160750D01*
X180110000Y-122689802D01*
X181063536Y-121736266D01*
X181152482Y-121874492D01*
X181111673Y-121915301D01*
X181015000Y-122148690D01*
X181015000Y-122589250D01*
X181173750Y-122748000D01*
X183023000Y-122748000D01*
X183023000Y-122728000D01*
X183277000Y-122728000D01*
X183277000Y-122748000D01*
X185126250Y-122748000D01*
X185285000Y-122589250D01*
X185285000Y-122148690D01*
X185188327Y-121915301D01*
X185146366Y-121873340D01*
X185246431Y-121726890D01*
X185297440Y-121475000D01*
X185297440Y-120275000D01*
X185253162Y-120039683D01*
X185147518Y-119875508D01*
X185188327Y-119834699D01*
X185285000Y-119601310D01*
X185285000Y-119160750D01*
X185126250Y-119002000D01*
X183277000Y-119002000D01*
X183277000Y-119022000D01*
X183023000Y-119022000D01*
X183023000Y-119002000D01*
X181173750Y-119002000D01*
X181015000Y-119160750D01*
X181015000Y-119601310D01*
X181111673Y-119834699D01*
X181153634Y-119876660D01*
X181053569Y-120023110D01*
X181034961Y-120115000D01*
X180850000Y-120115000D01*
X180559160Y-120172852D01*
X180312599Y-120337599D01*
X178812599Y-121837599D01*
X178647852Y-122084161D01*
X178590000Y-122375000D01*
X178590000Y-124566673D01*
X178273946Y-124777853D01*
X178244597Y-124821777D01*
X178172327Y-124647302D01*
X177993699Y-124468673D01*
X177760310Y-124372000D01*
X177069750Y-124372000D01*
X176911000Y-124530750D01*
X176911000Y-125730000D01*
X176931000Y-125730000D01*
X176931000Y-125984000D01*
X176911000Y-125984000D01*
X176911000Y-126004000D01*
X176657000Y-126004000D01*
X176657000Y-125984000D01*
X175457750Y-125984000D01*
X175299000Y-126142750D01*
X175299000Y-126665000D01*
X160060000Y-126665000D01*
X160060000Y-124880691D01*
X175299000Y-124880691D01*
X175299000Y-125571250D01*
X175457750Y-125730000D01*
X176657000Y-125730000D01*
X176657000Y-124530750D01*
X176498250Y-124372000D01*
X175807690Y-124372000D01*
X175574301Y-124468673D01*
X175395673Y-124647302D01*
X175299000Y-124880691D01*
X160060000Y-124880691D01*
X160060000Y-61544960D01*
X165489260Y-61544960D01*
X165489260Y-63544960D01*
X165533538Y-63780277D01*
X165672610Y-63996401D01*
X165884810Y-64141391D01*
X165927697Y-64150076D01*
X165934552Y-64184539D01*
X166099299Y-64431101D01*
X167770599Y-66102401D01*
X168017161Y-66267148D01*
X168308000Y-66325000D01*
X172542560Y-66325000D01*
X172542560Y-66565000D01*
X172586838Y-66800317D01*
X172725910Y-67016441D01*
X172938110Y-67161431D01*
X173190000Y-67212440D01*
X174970000Y-67212440D01*
X175205317Y-67168162D01*
X175350877Y-67074497D01*
X175478110Y-67161431D01*
X175730000Y-67212440D01*
X177510000Y-67212440D01*
X177745317Y-67168162D01*
X177961441Y-67029090D01*
X178106431Y-66816890D01*
X178157440Y-66565000D01*
X178157440Y-64565000D01*
X178113162Y-64329683D01*
X177974090Y-64113559D01*
X177761890Y-63968569D01*
X177610000Y-63937811D01*
X177610000Y-63872440D01*
X177850000Y-63872440D01*
X178085317Y-63828162D01*
X178301441Y-63689090D01*
X178446431Y-63476890D01*
X178497440Y-63225000D01*
X178497440Y-61525000D01*
X178453162Y-61289683D01*
X178314090Y-61073559D01*
X178101890Y-60928569D01*
X177850000Y-60877560D01*
X175850000Y-60877560D01*
X175614683Y-60921838D01*
X175512000Y-60987913D01*
X175512000Y-58792440D01*
X175660000Y-58792440D01*
X175895317Y-58748162D01*
X176111441Y-58609090D01*
X176256431Y-58396890D01*
X176307440Y-58145000D01*
X176307440Y-55605000D01*
X176263162Y-55369683D01*
X176124090Y-55153559D01*
X175911890Y-55008569D01*
X175660000Y-54957560D01*
X173120000Y-54957560D01*
X172884683Y-55001838D01*
X172668559Y-55140910D01*
X172523569Y-55353110D01*
X172472560Y-55605000D01*
X172472560Y-58145000D01*
X172516838Y-58380317D01*
X172655910Y-58596441D01*
X172868110Y-58741431D01*
X173120000Y-58792440D01*
X173992000Y-58792440D01*
X173992000Y-60906316D01*
X173850000Y-60877560D01*
X171850000Y-60877560D01*
X171614683Y-60921838D01*
X171398559Y-61060910D01*
X171253569Y-61273110D01*
X171202560Y-61525000D01*
X171202560Y-61615000D01*
X170453680Y-61615000D01*
X170453680Y-61544960D01*
X170409402Y-61309643D01*
X170270330Y-61093519D01*
X170066240Y-60954070D01*
X170066240Y-58623741D01*
X170387686Y-58490922D01*
X170924039Y-57955505D01*
X171214668Y-57255590D01*
X171215330Y-56497735D01*
X170925922Y-55797314D01*
X170390505Y-55260961D01*
X169690590Y-54970332D01*
X168932735Y-54969670D01*
X168232314Y-55259078D01*
X167695961Y-55794495D01*
X167405332Y-56494410D01*
X167404670Y-57252265D01*
X167694078Y-57952686D01*
X168229495Y-58489039D01*
X168546240Y-58620563D01*
X168546240Y-60957681D01*
X168354799Y-61080870D01*
X168209809Y-61293070D01*
X168158800Y-61544960D01*
X168158800Y-63544960D01*
X168203078Y-63780277D01*
X168342150Y-63996401D01*
X168554350Y-64141391D01*
X168806240Y-64192400D01*
X169806240Y-64192400D01*
X170041557Y-64148122D01*
X170257681Y-64009050D01*
X170402671Y-63796850D01*
X170453680Y-63544960D01*
X170453680Y-63135000D01*
X171202560Y-63135000D01*
X171202560Y-63225000D01*
X171246838Y-63460317D01*
X171385910Y-63676441D01*
X171598110Y-63821431D01*
X171850000Y-63872440D01*
X173850000Y-63872440D01*
X173960562Y-63851636D01*
X173894638Y-63917560D01*
X173190000Y-63917560D01*
X172954683Y-63961838D01*
X172738559Y-64100910D01*
X172593569Y-64313110D01*
X172542560Y-64565000D01*
X172542560Y-64805000D01*
X168622802Y-64805000D01*
X167685038Y-63867236D01*
X167733131Y-63796850D01*
X167784140Y-63544960D01*
X167784140Y-61544960D01*
X167739862Y-61309643D01*
X167600790Y-61093519D01*
X167388590Y-60948529D01*
X167136700Y-60897520D01*
X166136700Y-60897520D01*
X165901383Y-60941798D01*
X165685259Y-61080870D01*
X165540269Y-61293070D01*
X165489260Y-61544960D01*
X160060000Y-61544960D01*
X160060000Y-53585000D01*
X186140000Y-53585000D01*
X186140000Y-107876809D01*
G36*
X175375000Y-91072440D02*
X175652560Y-91072440D01*
X175652560Y-91350000D01*
X175676944Y-91479589D01*
X175652560Y-91600000D01*
X175652560Y-92150000D01*
X175676944Y-92279589D01*
X175652560Y-92400000D01*
X175652560Y-92950000D01*
X175672450Y-93055705D01*
X175665000Y-93073690D01*
X175665000Y-93189250D01*
X175761401Y-93285651D01*
X175835910Y-93401441D01*
X175943397Y-93474884D01*
X175848559Y-93535910D01*
X175759505Y-93666245D01*
X175665000Y-93760750D01*
X175665000Y-93876310D01*
X175673468Y-93896753D01*
X175652560Y-94000000D01*
X175652560Y-94550000D01*
X175676944Y-94679589D01*
X175652560Y-94800000D01*
X175652560Y-95350000D01*
X175676944Y-95479589D01*
X175652560Y-95600000D01*
X175652560Y-96150000D01*
X175676944Y-96279589D01*
X175652560Y-96400000D01*
X175652560Y-96677560D01*
X175375000Y-96677560D01*
X175245411Y-96701944D01*
X175125000Y-96677560D01*
X174884244Y-96677560D01*
X174924838Y-96579799D01*
X174925162Y-96207833D01*
X174783117Y-95864057D01*
X174520327Y-95600808D01*
X174176799Y-95458162D01*
X173804833Y-95457838D01*
X173461057Y-95599883D01*
X173197808Y-95862673D01*
X173055162Y-96206201D01*
X173054838Y-96578167D01*
X173095906Y-96677560D01*
X172975000Y-96677560D01*
X172845411Y-96701944D01*
X172725000Y-96677560D01*
X172175000Y-96677560D01*
X172045411Y-96701944D01*
X171925000Y-96677560D01*
X171375000Y-96677560D01*
X171245411Y-96701944D01*
X171125000Y-96677560D01*
X170575000Y-96677560D01*
X170445411Y-96701944D01*
X170325000Y-96677560D01*
X170047440Y-96677560D01*
X170047440Y-96400000D01*
X170023056Y-96270411D01*
X170047440Y-96150000D01*
X170047440Y-95835000D01*
X170101000Y-95835000D01*
X170391839Y-95777148D01*
X170638401Y-95612401D01*
X170717401Y-95533401D01*
X170823241Y-95375000D01*
X171020995Y-95375000D01*
X171136201Y-95422838D01*
X171508167Y-95423162D01*
X171851943Y-95281117D01*
X172115192Y-95018327D01*
X172257838Y-94674799D01*
X172258162Y-94302833D01*
X172116117Y-93959057D01*
X171853327Y-93695808D01*
X171509799Y-93553162D01*
X171137833Y-93552838D01*
X170940000Y-93634581D01*
X170940000Y-93490082D01*
X170943000Y-93475000D01*
X170885148Y-93184160D01*
X170720401Y-92937599D01*
X170473840Y-92772852D01*
X170183000Y-92715000D01*
X169814975Y-92715000D01*
X169756603Y-92675116D01*
X169851441Y-92614090D01*
X169940495Y-92483755D01*
X170035000Y-92389250D01*
X170035000Y-92273690D01*
X170026532Y-92253247D01*
X170047440Y-92150000D01*
X170047440Y-91600000D01*
X170023056Y-91470411D01*
X170047440Y-91350000D01*
X170047440Y-91072440D01*
X170325000Y-91072440D01*
X170454589Y-91048056D01*
X170575000Y-91072440D01*
X171125000Y-91072440D01*
X171254589Y-91048056D01*
X171375000Y-91072440D01*
X171658956Y-91072440D01*
X171531162Y-91380201D01*
X171530838Y-91752167D01*
X171672883Y-92095943D01*
X171935673Y-92359192D01*
X172279201Y-92501838D01*
X172651167Y-92502162D01*
X172994943Y-92360117D01*
X173258192Y-92097327D01*
X173400838Y-91753799D01*
X173401162Y-91381833D01*
X173273324Y-91072440D01*
X173525000Y-91072440D01*
X173654589Y-91048056D01*
X173775000Y-91072440D01*
X174325000Y-91072440D01*
X174454589Y-91048056D01*
X174575000Y-91072440D01*
X175125000Y-91072440D01*
X175254589Y-91048056D01*
X175375000Y-91072440D01*
X175375000Y-91072440D01*
G37*
X175375000Y-91072440D02*
X175652560Y-91072440D01*
X175652560Y-91350000D01*
X175676944Y-91479589D01*
X175652560Y-91600000D01*
X175652560Y-92150000D01*
X175676944Y-92279589D01*
X175652560Y-92400000D01*
X175652560Y-92950000D01*
X175672450Y-93055705D01*
X175665000Y-93073690D01*
X175665000Y-93189250D01*
X175761401Y-93285651D01*
X175835910Y-93401441D01*
X175943397Y-93474884D01*
X175848559Y-93535910D01*
X175759505Y-93666245D01*
X175665000Y-93760750D01*
X175665000Y-93876310D01*
X175673468Y-93896753D01*
X175652560Y-94000000D01*
X175652560Y-94550000D01*
X175676944Y-94679589D01*
X175652560Y-94800000D01*
X175652560Y-95350000D01*
X175676944Y-95479589D01*
X175652560Y-95600000D01*
X175652560Y-96150000D01*
X175676944Y-96279589D01*
X175652560Y-96400000D01*
X175652560Y-96677560D01*
X175375000Y-96677560D01*
X175245411Y-96701944D01*
X175125000Y-96677560D01*
X174884244Y-96677560D01*
X174924838Y-96579799D01*
X174925162Y-96207833D01*
X174783117Y-95864057D01*
X174520327Y-95600808D01*
X174176799Y-95458162D01*
X173804833Y-95457838D01*
X173461057Y-95599883D01*
X173197808Y-95862673D01*
X173055162Y-96206201D01*
X173054838Y-96578167D01*
X173095906Y-96677560D01*
X172975000Y-96677560D01*
X172845411Y-96701944D01*
X172725000Y-96677560D01*
X172175000Y-96677560D01*
X172045411Y-96701944D01*
X171925000Y-96677560D01*
X171375000Y-96677560D01*
X171245411Y-96701944D01*
X171125000Y-96677560D01*
X170575000Y-96677560D01*
X170445411Y-96701944D01*
X170325000Y-96677560D01*
X170047440Y-96677560D01*
X170047440Y-96400000D01*
X170023056Y-96270411D01*
X170047440Y-96150000D01*
X170047440Y-95835000D01*
X170101000Y-95835000D01*
X170391839Y-95777148D01*
X170638401Y-95612401D01*
X170717401Y-95533401D01*
X170823241Y-95375000D01*
X171020995Y-95375000D01*
X171136201Y-95422838D01*
X171508167Y-95423162D01*
X171851943Y-95281117D01*
X172115192Y-95018327D01*
X172257838Y-94674799D01*
X172258162Y-94302833D01*
X172116117Y-93959057D01*
X171853327Y-93695808D01*
X171509799Y-93553162D01*
X171137833Y-93552838D01*
X170940000Y-93634581D01*
X170940000Y-93490082D01*
X170943000Y-93475000D01*
X170885148Y-93184160D01*
X170720401Y-92937599D01*
X170473840Y-92772852D01*
X170183000Y-92715000D01*
X169814975Y-92715000D01*
X169756603Y-92675116D01*
X169851441Y-92614090D01*
X169940495Y-92483755D01*
X170035000Y-92389250D01*
X170035000Y-92273690D01*
X170026532Y-92253247D01*
X170047440Y-92150000D01*
X170047440Y-91600000D01*
X170023056Y-91470411D01*
X170047440Y-91350000D01*
X170047440Y-91072440D01*
X170325000Y-91072440D01*
X170454589Y-91048056D01*
X170575000Y-91072440D01*
X171125000Y-91072440D01*
X171254589Y-91048056D01*
X171375000Y-91072440D01*
X171658956Y-91072440D01*
X171531162Y-91380201D01*
X171530838Y-91752167D01*
X171672883Y-92095943D01*
X171935673Y-92359192D01*
X172279201Y-92501838D01*
X172651167Y-92502162D01*
X172994943Y-92360117D01*
X173258192Y-92097327D01*
X173400838Y-91753799D01*
X173401162Y-91381833D01*
X173273324Y-91072440D01*
X173525000Y-91072440D01*
X173654589Y-91048056D01*
X173775000Y-91072440D01*
X174325000Y-91072440D01*
X174454589Y-91048056D01*
X174575000Y-91072440D01*
X175125000Y-91072440D01*
X175254589Y-91048056D01*
X175375000Y-91072440D01*
G36*
X178777000Y-79598000D02*
X178797000Y-79598000D01*
X178797000Y-79852000D01*
X178777000Y-79852000D01*
X178777000Y-81201250D01*
X178935750Y-81360000D01*
X179526310Y-81360000D01*
X179759699Y-81263327D01*
X179938327Y-81084698D01*
X179961000Y-81029961D01*
X179961000Y-81219198D01*
X178120198Y-83060000D01*
X175697802Y-83060000D01*
X176887401Y-81870401D01*
X177052148Y-81623839D01*
X177102239Y-81372019D01*
X177335317Y-81328162D01*
X177499492Y-81222518D01*
X177540301Y-81263327D01*
X177773690Y-81360000D01*
X178364250Y-81360000D01*
X178523000Y-81201250D01*
X178523000Y-79852000D01*
X178503000Y-79852000D01*
X178503000Y-79598000D01*
X178523000Y-79598000D01*
X178523000Y-79578000D01*
X178777000Y-79578000D01*
X178777000Y-79598000D01*
X178777000Y-79598000D01*
G37*
X178777000Y-79598000D02*
X178797000Y-79598000D01*
X178797000Y-79852000D01*
X178777000Y-79852000D01*
X178777000Y-81201250D01*
X178935750Y-81360000D01*
X179526310Y-81360000D01*
X179759699Y-81263327D01*
X179938327Y-81084698D01*
X179961000Y-81029961D01*
X179961000Y-81219198D01*
X178120198Y-83060000D01*
X175697802Y-83060000D01*
X176887401Y-81870401D01*
X177052148Y-81623839D01*
X177102239Y-81372019D01*
X177335317Y-81328162D01*
X177499492Y-81222518D01*
X177540301Y-81263327D01*
X177773690Y-81360000D01*
X178364250Y-81360000D01*
X178523000Y-81201250D01*
X178523000Y-79852000D01*
X178503000Y-79852000D01*
X178503000Y-79598000D01*
X178523000Y-79598000D01*
X178523000Y-79578000D01*
X178777000Y-79578000D01*
X178777000Y-79598000D01*
M02*
