G04 #@! TF.FileFunction,Copper,L2,Bot,Signal*
%FSLAX46Y46*%
G04 Gerber Fmt 4.6, Leading zero omitted, Abs format (unit mm)*
G04 Created by KiCad (PCBNEW 4.0.5-e0-6337~49~ubuntu16.04.1) date Tue Jan 17 08:46:27 2017*
%MOMM*%
%LPD*%
G01*
G04 APERTURE LIST*
%ADD10C,0.100000*%
%ADD11R,2.540000X2.540000*%
%ADD12C,2.540000*%
%ADD13R,1.700000X1.700000*%
%ADD14O,1.700000X1.700000*%
%ADD15C,1.524000*%
%ADD16R,1.300000X1.300000*%
%ADD17C,1.300000*%
%ADD18C,0.600000*%
%ADD19C,0.250000*%
%ADD20C,0.500000*%
%ADD21C,0.254000*%
G04 APERTURE END LIST*
D10*
D11*
X143510000Y-111760000D03*
D12*
X143510000Y-116840000D03*
D13*
X191135000Y-110490000D03*
X182880000Y-121285000D03*
D14*
X180340000Y-121285000D03*
X182880000Y-118745000D03*
X180340000Y-118745000D03*
X182880000Y-116205000D03*
X180340000Y-116205000D03*
D11*
X146050000Y-69850000D03*
D12*
X140970000Y-69850000D03*
D11*
X156210000Y-69850000D03*
D12*
X151130000Y-69850000D03*
D11*
X166370000Y-69850000D03*
D12*
X161290000Y-69850000D03*
D11*
X176530000Y-69850000D03*
D12*
X171450000Y-69850000D03*
D11*
X186690000Y-69850000D03*
D12*
X181610000Y-69850000D03*
D11*
X196850000Y-69850000D03*
D12*
X191770000Y-69850000D03*
D11*
X207010000Y-69850000D03*
D12*
X201930000Y-69850000D03*
D11*
X217170000Y-69850000D03*
D12*
X212090000Y-69850000D03*
D15*
X142240000Y-92710000D03*
X142240000Y-87630000D03*
X142240000Y-82550000D03*
X142240000Y-77470000D03*
X152400000Y-92710000D03*
X152400000Y-87630000D03*
X152400000Y-82550000D03*
X152400000Y-77470000D03*
X162560000Y-92710000D03*
X162560000Y-87630000D03*
X162560000Y-82550000D03*
X162560000Y-77470000D03*
X172720000Y-92710000D03*
X172720000Y-87630000D03*
X172720000Y-82550000D03*
X172720000Y-77470000D03*
X182880000Y-92710000D03*
X182880000Y-87630000D03*
X182880000Y-82550000D03*
X182880000Y-77470000D03*
X193040000Y-92710000D03*
X193040000Y-87630000D03*
X193040000Y-82550000D03*
X193040000Y-77470000D03*
X203200000Y-92710000D03*
X203200000Y-87630000D03*
X203200000Y-82550000D03*
X203200000Y-77470000D03*
X213360000Y-92710000D03*
X213360000Y-87630000D03*
X213360000Y-82550000D03*
X213360000Y-77470000D03*
D16*
X152400000Y-120650000D03*
D17*
X149900000Y-120650000D03*
D16*
X151765000Y-106680000D03*
D17*
X149265000Y-106680000D03*
D18*
X175895000Y-110871000D03*
X168783000Y-119761000D03*
X191516000Y-120650000D03*
X192278000Y-118618000D03*
X175133000Y-121666000D03*
X167259000Y-115062000D03*
X165862000Y-106299000D03*
X208661000Y-120015000D03*
X168021000Y-107569000D03*
D19*
X175895000Y-110871000D02*
X171577000Y-106553000D01*
X171577000Y-106553000D02*
X167259000Y-106553000D01*
X167259000Y-106553000D02*
X165100000Y-108712000D01*
X165100000Y-108712000D02*
X151297000Y-108712000D01*
X151297000Y-108712000D02*
X149265000Y-106680000D01*
X173609000Y-124587000D02*
X178181000Y-124587000D01*
X168783000Y-119761000D02*
X173609000Y-124587000D01*
X187579000Y-124587000D02*
X191516000Y-120650000D01*
X178181000Y-124587000D02*
X187579000Y-124587000D01*
X191135000Y-117475000D02*
X187960000Y-117475000D01*
X192278000Y-118618000D02*
X191135000Y-117475000D01*
X180340000Y-118745000D02*
X180467000Y-118745000D01*
X180467000Y-118745000D02*
X181737000Y-117475000D01*
X181737000Y-117475000D02*
X187960000Y-117475000D01*
X176911000Y-123444000D02*
X182118000Y-123444000D01*
X182880000Y-122682000D02*
X182880000Y-121285000D01*
X182118000Y-123444000D02*
X182880000Y-122682000D01*
X175133000Y-121666000D02*
X176911000Y-123444000D01*
X182880000Y-116205000D02*
X182880000Y-114935000D01*
X182880000Y-114935000D02*
X181737000Y-113792000D01*
X170053000Y-115062000D02*
X167259000Y-115062000D01*
X171323000Y-113792000D02*
X170053000Y-115062000D01*
X181737000Y-113792000D02*
X171323000Y-113792000D01*
X194437000Y-105791000D02*
X196723000Y-108077000D01*
X166370000Y-105791000D02*
X194437000Y-105791000D01*
X165862000Y-106299000D02*
X166370000Y-105791000D01*
X208661000Y-120015000D02*
X196723000Y-108077000D01*
D20*
X154940000Y-120650000D02*
X152400000Y-120650000D01*
X168021000Y-107569000D02*
X154940000Y-120650000D01*
X146050000Y-83820000D02*
X146050000Y-69850000D01*
X142240000Y-87630000D02*
X146050000Y-83820000D01*
X140714000Y-70105900D02*
X140970000Y-69850000D01*
X140714000Y-81024100D02*
X140714000Y-70105900D01*
X142240000Y-82550000D02*
X140714000Y-81024100D01*
X156210000Y-83820000D02*
X156210000Y-69850000D01*
X152400000Y-87630000D02*
X156210000Y-83820000D01*
X150843000Y-70136800D02*
X151130000Y-69850000D01*
X150843000Y-80993200D02*
X150843000Y-70136800D01*
X152400000Y-82550000D02*
X150843000Y-80993200D01*
X166370000Y-83820000D02*
X166370000Y-69850000D01*
X162560000Y-87630000D02*
X166370000Y-83820000D01*
X161003000Y-70136800D02*
X161290000Y-69850000D01*
X161003000Y-80993200D02*
X161003000Y-70136800D01*
X162560000Y-82550000D02*
X161003000Y-80993200D01*
X176530000Y-83820000D02*
X176530000Y-69850000D01*
X172720000Y-87630000D02*
X176530000Y-83820000D01*
X171163000Y-70136800D02*
X171450000Y-69850000D01*
X171163000Y-80993200D02*
X171163000Y-70136800D01*
X172720000Y-82550000D02*
X171163000Y-80993200D01*
X186690000Y-83820000D02*
X186690000Y-69850000D01*
X182880000Y-87630000D02*
X186690000Y-83820000D01*
X181323000Y-70136800D02*
X181610000Y-69850000D01*
X181323000Y-80993200D02*
X181323000Y-70136800D01*
X182880000Y-82550000D02*
X181323000Y-80993200D01*
X196850000Y-83820000D02*
X196850000Y-69850000D01*
X193040000Y-87630000D02*
X196850000Y-83820000D01*
X191483000Y-70136800D02*
X191770000Y-69850000D01*
X191483000Y-80993200D02*
X191483000Y-70136800D01*
X193040000Y-82550000D02*
X191483000Y-80993200D01*
X207010000Y-83820000D02*
X207010000Y-69850000D01*
X203200000Y-87630000D02*
X207010000Y-83820000D01*
X201643000Y-70136800D02*
X201930000Y-69850000D01*
X201643000Y-80993200D02*
X201643000Y-70136800D01*
X203200000Y-82550000D02*
X201643000Y-80993200D01*
X217170000Y-83820000D02*
X217170000Y-69850000D01*
X213360000Y-87630000D02*
X217170000Y-83820000D01*
X211803000Y-70136800D02*
X212090000Y-69850000D01*
X211803000Y-80993200D02*
X211803000Y-70136800D01*
X213360000Y-82550000D02*
X211803000Y-80993200D01*
D21*
G36*
X219000000Y-68277607D02*
X218904090Y-68128559D01*
X218691890Y-67983569D01*
X218440000Y-67932560D01*
X215900000Y-67932560D01*
X215664683Y-67976838D01*
X215448559Y-68115910D01*
X215303569Y-68328110D01*
X215252560Y-68580000D01*
X215252560Y-71120000D01*
X215296838Y-71355317D01*
X215435910Y-71571441D01*
X215648110Y-71716431D01*
X215900000Y-71767440D01*
X216285000Y-71767440D01*
X216285000Y-83453421D01*
X213505294Y-86233126D01*
X213083339Y-86232758D01*
X212569697Y-86444990D01*
X212176371Y-86837630D01*
X211963243Y-87350900D01*
X211962758Y-87906661D01*
X212174990Y-88420303D01*
X212567630Y-88813629D01*
X213080900Y-89026757D01*
X213636661Y-89027242D01*
X214150303Y-88815010D01*
X214543629Y-88422370D01*
X214756757Y-87909100D01*
X214757128Y-87484452D01*
X217795787Y-84445792D01*
X217795790Y-84445790D01*
X217987633Y-84158675D01*
X218029690Y-83947242D01*
X218055001Y-83820000D01*
X218055000Y-83819995D01*
X218055000Y-71767440D01*
X218440000Y-71767440D01*
X218675317Y-71723162D01*
X218891441Y-71584090D01*
X219000000Y-71425209D01*
X219000000Y-125020000D01*
X188220802Y-125020000D01*
X191655680Y-121585122D01*
X191701167Y-121585162D01*
X192044943Y-121443117D01*
X192308192Y-121180327D01*
X192450838Y-120836799D01*
X192451162Y-120464833D01*
X192309117Y-120121057D01*
X192046327Y-119857808D01*
X191702799Y-119715162D01*
X191330833Y-119714838D01*
X190987057Y-119856883D01*
X190723808Y-120119673D01*
X190581162Y-120463201D01*
X190581121Y-120510077D01*
X187264198Y-123827000D01*
X182809802Y-123827000D01*
X183417401Y-123219401D01*
X183582148Y-122972839D01*
X183620021Y-122782440D01*
X183730000Y-122782440D01*
X183965317Y-122738162D01*
X184181441Y-122599090D01*
X184326431Y-122386890D01*
X184377440Y-122135000D01*
X184377440Y-120435000D01*
X184333162Y-120199683D01*
X184194090Y-119983559D01*
X183981890Y-119838569D01*
X183914459Y-119824914D01*
X183959147Y-119795054D01*
X184281054Y-119313285D01*
X184394093Y-118745000D01*
X184292648Y-118235000D01*
X190820198Y-118235000D01*
X191342878Y-118757680D01*
X191342838Y-118803167D01*
X191484883Y-119146943D01*
X191747673Y-119410192D01*
X192091201Y-119552838D01*
X192463167Y-119553162D01*
X192806943Y-119411117D01*
X193070192Y-119148327D01*
X193212838Y-118804799D01*
X193213162Y-118432833D01*
X193071117Y-118089057D01*
X192808327Y-117825808D01*
X192464799Y-117683162D01*
X192417923Y-117683121D01*
X191672401Y-116937599D01*
X191425839Y-116772852D01*
X191135000Y-116715000D01*
X184292648Y-116715000D01*
X184394093Y-116205000D01*
X184281054Y-115636715D01*
X183959147Y-115154946D01*
X183640000Y-114941699D01*
X183640000Y-114935000D01*
X183582148Y-114644161D01*
X183417401Y-114397599D01*
X182274401Y-113254599D01*
X182027839Y-113089852D01*
X181737000Y-113032000D01*
X171323000Y-113032000D01*
X171032160Y-113089852D01*
X170785599Y-113254599D01*
X169738198Y-114302000D01*
X167821463Y-114302000D01*
X167789327Y-114269808D01*
X167445799Y-114127162D01*
X167073833Y-114126838D01*
X166730057Y-114268883D01*
X166466808Y-114531673D01*
X166324162Y-114875201D01*
X166323838Y-115247167D01*
X166465883Y-115590943D01*
X166728673Y-115854192D01*
X167072201Y-115996838D01*
X167444167Y-115997162D01*
X167787943Y-115855117D01*
X167794962Y-115848110D01*
X178898524Y-115848110D01*
X179019845Y-116078000D01*
X180213000Y-116078000D01*
X180213000Y-114884181D01*
X179983108Y-114763514D01*
X179458642Y-115009817D01*
X179068355Y-115438076D01*
X178898524Y-115848110D01*
X167794962Y-115848110D01*
X167821118Y-115822000D01*
X170053000Y-115822000D01*
X170343839Y-115764148D01*
X170590401Y-115599401D01*
X171637802Y-114552000D01*
X181422198Y-114552000D01*
X181935306Y-115065108D01*
X181800853Y-115154946D01*
X181611655Y-115438101D01*
X181611645Y-115438076D01*
X181221358Y-115009817D01*
X180696892Y-114763514D01*
X180467000Y-114884181D01*
X180467000Y-116078000D01*
X180487000Y-116078000D01*
X180487000Y-116332000D01*
X180467000Y-116332000D01*
X180467000Y-116352000D01*
X180213000Y-116352000D01*
X180213000Y-116332000D01*
X179019845Y-116332000D01*
X178898524Y-116561890D01*
X179068355Y-116971924D01*
X179458642Y-117400183D01*
X179601553Y-117467298D01*
X179260853Y-117694946D01*
X178938946Y-118176715D01*
X178825907Y-118745000D01*
X178938946Y-119313285D01*
X179260853Y-119795054D01*
X179590026Y-120015000D01*
X179260853Y-120234946D01*
X178938946Y-120716715D01*
X178825907Y-121285000D01*
X178938946Y-121853285D01*
X179260853Y-122335054D01*
X179742622Y-122656961D01*
X179878556Y-122684000D01*
X177225802Y-122684000D01*
X176068122Y-121526320D01*
X176068162Y-121480833D01*
X175926117Y-121137057D01*
X175663327Y-120873808D01*
X175319799Y-120731162D01*
X174947833Y-120730838D01*
X174604057Y-120872883D01*
X174340808Y-121135673D01*
X174198162Y-121479201D01*
X174197838Y-121851167D01*
X174339883Y-122194943D01*
X174602673Y-122458192D01*
X174946201Y-122600838D01*
X174993077Y-122600879D01*
X176219198Y-123827000D01*
X173923802Y-123827000D01*
X169718122Y-119621320D01*
X169718162Y-119575833D01*
X169576117Y-119232057D01*
X169313327Y-118968808D01*
X168969799Y-118826162D01*
X168597833Y-118825838D01*
X168254057Y-118967883D01*
X167990808Y-119230673D01*
X167848162Y-119574201D01*
X167847838Y-119946167D01*
X167989883Y-120289943D01*
X168252673Y-120553192D01*
X168596201Y-120695838D01*
X168643077Y-120695879D01*
X172967198Y-125020000D01*
X139140000Y-125020000D01*
X139140000Y-121549016D01*
X149180590Y-121549016D01*
X149236271Y-121779611D01*
X149719078Y-121947622D01*
X150229428Y-121918083D01*
X150563729Y-121779611D01*
X150619410Y-121549016D01*
X149900000Y-120829605D01*
X149180590Y-121549016D01*
X139140000Y-121549016D01*
X139140000Y-120469078D01*
X148602378Y-120469078D01*
X148631917Y-120979428D01*
X148770389Y-121313729D01*
X149000984Y-121369410D01*
X149720395Y-120650000D01*
X150079605Y-120650000D01*
X150799016Y-121369410D01*
X151029611Y-121313729D01*
X151102560Y-121104098D01*
X151102560Y-121300000D01*
X151146838Y-121535317D01*
X151285910Y-121751441D01*
X151498110Y-121896431D01*
X151750000Y-121947440D01*
X153050000Y-121947440D01*
X153285317Y-121903162D01*
X153501441Y-121764090D01*
X153646431Y-121551890D01*
X153649851Y-121535000D01*
X154939995Y-121535000D01*
X154940000Y-121535001D01*
X155222484Y-121478810D01*
X155278675Y-121467633D01*
X155565790Y-121275790D01*
X167201579Y-109640000D01*
X189637560Y-109640000D01*
X189637560Y-111340000D01*
X189681838Y-111575317D01*
X189820910Y-111791441D01*
X190033110Y-111936431D01*
X190285000Y-111987440D01*
X191985000Y-111987440D01*
X192220317Y-111943162D01*
X192436441Y-111804090D01*
X192581431Y-111591890D01*
X192632440Y-111340000D01*
X192632440Y-109640000D01*
X192588162Y-109404683D01*
X192449090Y-109188559D01*
X192236890Y-109043569D01*
X191985000Y-108992560D01*
X190285000Y-108992560D01*
X190049683Y-109036838D01*
X189833559Y-109175910D01*
X189688569Y-109388110D01*
X189637560Y-109640000D01*
X167201579Y-109640000D01*
X168429834Y-108411745D01*
X168549943Y-108362117D01*
X168813192Y-108099327D01*
X168955838Y-107755799D01*
X168956162Y-107383833D01*
X168814117Y-107040057D01*
X168551327Y-106776808D01*
X168207799Y-106634162D01*
X167835833Y-106633838D01*
X167492057Y-106775883D01*
X167228808Y-107038673D01*
X167178434Y-107159987D01*
X154573420Y-119765000D01*
X153653222Y-119765000D01*
X153653162Y-119764683D01*
X153514090Y-119548559D01*
X153301890Y-119403569D01*
X153050000Y-119352560D01*
X151750000Y-119352560D01*
X151514683Y-119396838D01*
X151298559Y-119535910D01*
X151153569Y-119748110D01*
X151102560Y-120000000D01*
X151102560Y-120162385D01*
X151029611Y-119986271D01*
X150799016Y-119930590D01*
X150079605Y-120650000D01*
X149720395Y-120650000D01*
X149000984Y-119930590D01*
X148770389Y-119986271D01*
X148602378Y-120469078D01*
X139140000Y-120469078D01*
X139140000Y-119750984D01*
X149180590Y-119750984D01*
X149900000Y-120470395D01*
X150619410Y-119750984D01*
X150563729Y-119520389D01*
X150080922Y-119352378D01*
X149570572Y-119381917D01*
X149236271Y-119520389D01*
X149180590Y-119750984D01*
X139140000Y-119750984D01*
X139140000Y-117217265D01*
X141604670Y-117217265D01*
X141894078Y-117917686D01*
X142429495Y-118454039D01*
X143129410Y-118744668D01*
X143887265Y-118745330D01*
X144587686Y-118455922D01*
X145124039Y-117920505D01*
X145414668Y-117220590D01*
X145415330Y-116462735D01*
X145125922Y-115762314D01*
X144590505Y-115225961D01*
X143890590Y-114935332D01*
X143132735Y-114934670D01*
X142432314Y-115224078D01*
X141895961Y-115759495D01*
X141605332Y-116459410D01*
X141604670Y-117217265D01*
X139140000Y-117217265D01*
X139140000Y-112045750D01*
X141605000Y-112045750D01*
X141605000Y-113156309D01*
X141701673Y-113389698D01*
X141880301Y-113568327D01*
X142113690Y-113665000D01*
X143224250Y-113665000D01*
X143383000Y-113506250D01*
X143383000Y-111887000D01*
X143637000Y-111887000D01*
X143637000Y-113506250D01*
X143795750Y-113665000D01*
X144906310Y-113665000D01*
X145139699Y-113568327D01*
X145318327Y-113389698D01*
X145415000Y-113156309D01*
X145415000Y-112045750D01*
X145256250Y-111887000D01*
X143637000Y-111887000D01*
X143383000Y-111887000D01*
X141763750Y-111887000D01*
X141605000Y-112045750D01*
X139140000Y-112045750D01*
X139140000Y-110363691D01*
X141605000Y-110363691D01*
X141605000Y-111474250D01*
X141763750Y-111633000D01*
X143383000Y-111633000D01*
X143383000Y-110013750D01*
X143637000Y-110013750D01*
X143637000Y-111633000D01*
X145256250Y-111633000D01*
X145415000Y-111474250D01*
X145415000Y-110363691D01*
X145318327Y-110130302D01*
X145139699Y-109951673D01*
X144906310Y-109855000D01*
X143795750Y-109855000D01*
X143637000Y-110013750D01*
X143383000Y-110013750D01*
X143224250Y-109855000D01*
X142113690Y-109855000D01*
X141880301Y-109951673D01*
X141701673Y-110130302D01*
X141605000Y-110363691D01*
X139140000Y-110363691D01*
X139140000Y-107579016D01*
X148545590Y-107579016D01*
X148601271Y-107809611D01*
X149084078Y-107977622D01*
X149594428Y-107948083D01*
X149928729Y-107809611D01*
X149984410Y-107579016D01*
X149265000Y-106859605D01*
X148545590Y-107579016D01*
X139140000Y-107579016D01*
X139140000Y-106499078D01*
X147967378Y-106499078D01*
X147996917Y-107009428D01*
X148135389Y-107343729D01*
X148365984Y-107399410D01*
X149085395Y-106680000D01*
X149444605Y-106680000D01*
X150164016Y-107399410D01*
X150394611Y-107343729D01*
X150467560Y-107134098D01*
X150467560Y-107330000D01*
X150511838Y-107565317D01*
X150650910Y-107781441D01*
X150863110Y-107926431D01*
X151115000Y-107977440D01*
X152415000Y-107977440D01*
X152650317Y-107933162D01*
X152866441Y-107794090D01*
X153011431Y-107581890D01*
X153062440Y-107330000D01*
X153062440Y-106484167D01*
X164926838Y-106484167D01*
X165068883Y-106827943D01*
X165331673Y-107091192D01*
X165675201Y-107233838D01*
X166047167Y-107234162D01*
X166390943Y-107092117D01*
X166654192Y-106829327D01*
X166769764Y-106551000D01*
X194122198Y-106551000D01*
X196185599Y-108614401D01*
X207725878Y-120154681D01*
X207725838Y-120200167D01*
X207867883Y-120543943D01*
X208130673Y-120807192D01*
X208474201Y-120949838D01*
X208846167Y-120950162D01*
X209189943Y-120808117D01*
X209453192Y-120545327D01*
X209595838Y-120201799D01*
X209596162Y-119829833D01*
X209454117Y-119486057D01*
X209191327Y-119222808D01*
X208847799Y-119080162D01*
X208800924Y-119080121D01*
X197260401Y-107539599D01*
X194974401Y-105253599D01*
X194727839Y-105088852D01*
X194437000Y-105031000D01*
X166370000Y-105031000D01*
X166079161Y-105088852D01*
X166079159Y-105088853D01*
X166079160Y-105088853D01*
X165832599Y-105253599D01*
X165722320Y-105363878D01*
X165676833Y-105363838D01*
X165333057Y-105505883D01*
X165069808Y-105768673D01*
X164927162Y-106112201D01*
X164926838Y-106484167D01*
X153062440Y-106484167D01*
X153062440Y-106030000D01*
X153018162Y-105794683D01*
X152879090Y-105578559D01*
X152666890Y-105433569D01*
X152415000Y-105382560D01*
X151115000Y-105382560D01*
X150879683Y-105426838D01*
X150663559Y-105565910D01*
X150518569Y-105778110D01*
X150467560Y-106030000D01*
X150467560Y-106192385D01*
X150394611Y-106016271D01*
X150164016Y-105960590D01*
X149444605Y-106680000D01*
X149085395Y-106680000D01*
X148365984Y-105960590D01*
X148135389Y-106016271D01*
X147967378Y-106499078D01*
X139140000Y-106499078D01*
X139140000Y-105780984D01*
X148545590Y-105780984D01*
X149265000Y-106500395D01*
X149984410Y-105780984D01*
X149928729Y-105550389D01*
X149445922Y-105382378D01*
X148935572Y-105411917D01*
X148601271Y-105550389D01*
X148545590Y-105780984D01*
X139140000Y-105780984D01*
X139140000Y-92986661D01*
X140842758Y-92986661D01*
X141054990Y-93500303D01*
X141447630Y-93893629D01*
X141960900Y-94106757D01*
X142516661Y-94107242D01*
X143030303Y-93895010D01*
X143423629Y-93502370D01*
X143636757Y-92989100D01*
X143636759Y-92986661D01*
X151002758Y-92986661D01*
X151214990Y-93500303D01*
X151607630Y-93893629D01*
X152120900Y-94106757D01*
X152676661Y-94107242D01*
X153190303Y-93895010D01*
X153583629Y-93502370D01*
X153796757Y-92989100D01*
X153796759Y-92986661D01*
X161162758Y-92986661D01*
X161374990Y-93500303D01*
X161767630Y-93893629D01*
X162280900Y-94106757D01*
X162836661Y-94107242D01*
X163350303Y-93895010D01*
X163743629Y-93502370D01*
X163956757Y-92989100D01*
X163956759Y-92986661D01*
X171322758Y-92986661D01*
X171534990Y-93500303D01*
X171927630Y-93893629D01*
X172440900Y-94106757D01*
X172996661Y-94107242D01*
X173510303Y-93895010D01*
X173903629Y-93502370D01*
X174116757Y-92989100D01*
X174116759Y-92986661D01*
X181482758Y-92986661D01*
X181694990Y-93500303D01*
X182087630Y-93893629D01*
X182600900Y-94106757D01*
X183156661Y-94107242D01*
X183670303Y-93895010D01*
X184063629Y-93502370D01*
X184276757Y-92989100D01*
X184276759Y-92986661D01*
X191642758Y-92986661D01*
X191854990Y-93500303D01*
X192247630Y-93893629D01*
X192760900Y-94106757D01*
X193316661Y-94107242D01*
X193830303Y-93895010D01*
X194223629Y-93502370D01*
X194436757Y-92989100D01*
X194436759Y-92986661D01*
X201802758Y-92986661D01*
X202014990Y-93500303D01*
X202407630Y-93893629D01*
X202920900Y-94106757D01*
X203476661Y-94107242D01*
X203990303Y-93895010D01*
X204383629Y-93502370D01*
X204596757Y-92989100D01*
X204596759Y-92986661D01*
X211962758Y-92986661D01*
X212174990Y-93500303D01*
X212567630Y-93893629D01*
X213080900Y-94106757D01*
X213636661Y-94107242D01*
X214150303Y-93895010D01*
X214543629Y-93502370D01*
X214756757Y-92989100D01*
X214757242Y-92433339D01*
X214545010Y-91919697D01*
X214152370Y-91526371D01*
X213639100Y-91313243D01*
X213083339Y-91312758D01*
X212569697Y-91524990D01*
X212176371Y-91917630D01*
X211963243Y-92430900D01*
X211962758Y-92986661D01*
X204596759Y-92986661D01*
X204597242Y-92433339D01*
X204385010Y-91919697D01*
X203992370Y-91526371D01*
X203479100Y-91313243D01*
X202923339Y-91312758D01*
X202409697Y-91524990D01*
X202016371Y-91917630D01*
X201803243Y-92430900D01*
X201802758Y-92986661D01*
X194436759Y-92986661D01*
X194437242Y-92433339D01*
X194225010Y-91919697D01*
X193832370Y-91526371D01*
X193319100Y-91313243D01*
X192763339Y-91312758D01*
X192249697Y-91524990D01*
X191856371Y-91917630D01*
X191643243Y-92430900D01*
X191642758Y-92986661D01*
X184276759Y-92986661D01*
X184277242Y-92433339D01*
X184065010Y-91919697D01*
X183672370Y-91526371D01*
X183159100Y-91313243D01*
X182603339Y-91312758D01*
X182089697Y-91524990D01*
X181696371Y-91917630D01*
X181483243Y-92430900D01*
X181482758Y-92986661D01*
X174116759Y-92986661D01*
X174117242Y-92433339D01*
X173905010Y-91919697D01*
X173512370Y-91526371D01*
X172999100Y-91313243D01*
X172443339Y-91312758D01*
X171929697Y-91524990D01*
X171536371Y-91917630D01*
X171323243Y-92430900D01*
X171322758Y-92986661D01*
X163956759Y-92986661D01*
X163957242Y-92433339D01*
X163745010Y-91919697D01*
X163352370Y-91526371D01*
X162839100Y-91313243D01*
X162283339Y-91312758D01*
X161769697Y-91524990D01*
X161376371Y-91917630D01*
X161163243Y-92430900D01*
X161162758Y-92986661D01*
X153796759Y-92986661D01*
X153797242Y-92433339D01*
X153585010Y-91919697D01*
X153192370Y-91526371D01*
X152679100Y-91313243D01*
X152123339Y-91312758D01*
X151609697Y-91524990D01*
X151216371Y-91917630D01*
X151003243Y-92430900D01*
X151002758Y-92986661D01*
X143636759Y-92986661D01*
X143637242Y-92433339D01*
X143425010Y-91919697D01*
X143032370Y-91526371D01*
X142519100Y-91313243D01*
X141963339Y-91312758D01*
X141449697Y-91524990D01*
X141056371Y-91917630D01*
X140843243Y-92430900D01*
X140842758Y-92986661D01*
X139140000Y-92986661D01*
X139140000Y-87906661D01*
X140842758Y-87906661D01*
X141054990Y-88420303D01*
X141447630Y-88813629D01*
X141960900Y-89026757D01*
X142516661Y-89027242D01*
X143030303Y-88815010D01*
X143423629Y-88422370D01*
X143636757Y-87909100D01*
X143636759Y-87906661D01*
X151002758Y-87906661D01*
X151214990Y-88420303D01*
X151607630Y-88813629D01*
X152120900Y-89026757D01*
X152676661Y-89027242D01*
X153190303Y-88815010D01*
X153583629Y-88422370D01*
X153796757Y-87909100D01*
X153796759Y-87906661D01*
X161162758Y-87906661D01*
X161374990Y-88420303D01*
X161767630Y-88813629D01*
X162280900Y-89026757D01*
X162836661Y-89027242D01*
X163350303Y-88815010D01*
X163743629Y-88422370D01*
X163956757Y-87909100D01*
X163956759Y-87906661D01*
X171322758Y-87906661D01*
X171534990Y-88420303D01*
X171927630Y-88813629D01*
X172440900Y-89026757D01*
X172996661Y-89027242D01*
X173510303Y-88815010D01*
X173903629Y-88422370D01*
X174116757Y-87909100D01*
X174116759Y-87906661D01*
X181482758Y-87906661D01*
X181694990Y-88420303D01*
X182087630Y-88813629D01*
X182600900Y-89026757D01*
X183156661Y-89027242D01*
X183670303Y-88815010D01*
X184063629Y-88422370D01*
X184276757Y-87909100D01*
X184276759Y-87906661D01*
X191642758Y-87906661D01*
X191854990Y-88420303D01*
X192247630Y-88813629D01*
X192760900Y-89026757D01*
X193316661Y-89027242D01*
X193830303Y-88815010D01*
X194223629Y-88422370D01*
X194436757Y-87909100D01*
X194436759Y-87906661D01*
X201802758Y-87906661D01*
X202014990Y-88420303D01*
X202407630Y-88813629D01*
X202920900Y-89026757D01*
X203476661Y-89027242D01*
X203990303Y-88815010D01*
X204383629Y-88422370D01*
X204596757Y-87909100D01*
X204597128Y-87484452D01*
X207635787Y-84445792D01*
X207635790Y-84445790D01*
X207827633Y-84158675D01*
X207869690Y-83947242D01*
X207895001Y-83820000D01*
X207895000Y-83819995D01*
X207895000Y-71767440D01*
X208280000Y-71767440D01*
X208515317Y-71723162D01*
X208731441Y-71584090D01*
X208876431Y-71371890D01*
X208927440Y-71120000D01*
X208927440Y-70227265D01*
X210184670Y-70227265D01*
X210474078Y-70927686D01*
X210918000Y-71372384D01*
X210918000Y-80993200D01*
X210918005Y-80993226D01*
X210917999Y-80993257D01*
X210952651Y-81167402D01*
X210985367Y-81331875D01*
X210985384Y-81331900D01*
X210985389Y-81331927D01*
X211075895Y-81467360D01*
X211177210Y-81618990D01*
X211177236Y-81619007D01*
X211177251Y-81619030D01*
X211963126Y-82404804D01*
X211962758Y-82826661D01*
X212174990Y-83340303D01*
X212567630Y-83733629D01*
X213080900Y-83946757D01*
X213636661Y-83947242D01*
X214150303Y-83735010D01*
X214543629Y-83342370D01*
X214756757Y-82829100D01*
X214757242Y-82273339D01*
X214545010Y-81759697D01*
X214152370Y-81366371D01*
X213639100Y-81153243D01*
X213214352Y-81152872D01*
X212688000Y-80626588D01*
X212688000Y-78713497D01*
X213152302Y-78879144D01*
X213707368Y-78851362D01*
X214091143Y-78692397D01*
X214160608Y-78450213D01*
X213360000Y-77649605D01*
X213345858Y-77663748D01*
X213166253Y-77484143D01*
X213180395Y-77470000D01*
X213539605Y-77470000D01*
X214340213Y-78270608D01*
X214582397Y-78201143D01*
X214769144Y-77677698D01*
X214741362Y-77122632D01*
X214582397Y-76738857D01*
X214340213Y-76669392D01*
X213539605Y-77470000D01*
X213180395Y-77470000D01*
X213166253Y-77455858D01*
X213345858Y-77276253D01*
X213360000Y-77290395D01*
X214160608Y-76489787D01*
X214091143Y-76247603D01*
X213567698Y-76060856D01*
X213012632Y-76088638D01*
X212688000Y-76223105D01*
X212688000Y-71664124D01*
X213167686Y-71465922D01*
X213704039Y-70930505D01*
X213994668Y-70230590D01*
X213995330Y-69472735D01*
X213705922Y-68772314D01*
X213170505Y-68235961D01*
X212470590Y-67945332D01*
X211712735Y-67944670D01*
X211012314Y-68234078D01*
X210475961Y-68769495D01*
X210185332Y-69469410D01*
X210184670Y-70227265D01*
X208927440Y-70227265D01*
X208927440Y-68580000D01*
X208883162Y-68344683D01*
X208744090Y-68128559D01*
X208531890Y-67983569D01*
X208280000Y-67932560D01*
X205740000Y-67932560D01*
X205504683Y-67976838D01*
X205288559Y-68115910D01*
X205143569Y-68328110D01*
X205092560Y-68580000D01*
X205092560Y-71120000D01*
X205136838Y-71355317D01*
X205275910Y-71571441D01*
X205488110Y-71716431D01*
X205740000Y-71767440D01*
X206125000Y-71767440D01*
X206125000Y-83453421D01*
X203345294Y-86233126D01*
X202923339Y-86232758D01*
X202409697Y-86444990D01*
X202016371Y-86837630D01*
X201803243Y-87350900D01*
X201802758Y-87906661D01*
X194436759Y-87906661D01*
X194437128Y-87484452D01*
X197475787Y-84445792D01*
X197475790Y-84445790D01*
X197667633Y-84158675D01*
X197709690Y-83947242D01*
X197735001Y-83820000D01*
X197735000Y-83819995D01*
X197735000Y-71767440D01*
X198120000Y-71767440D01*
X198355317Y-71723162D01*
X198571441Y-71584090D01*
X198716431Y-71371890D01*
X198767440Y-71120000D01*
X198767440Y-70227265D01*
X200024670Y-70227265D01*
X200314078Y-70927686D01*
X200758000Y-71372384D01*
X200758000Y-80993200D01*
X200758005Y-80993226D01*
X200757999Y-80993257D01*
X200792651Y-81167402D01*
X200825367Y-81331875D01*
X200825384Y-81331900D01*
X200825389Y-81331927D01*
X200915895Y-81467360D01*
X201017210Y-81618990D01*
X201017236Y-81619007D01*
X201017251Y-81619030D01*
X201803126Y-82404804D01*
X201802758Y-82826661D01*
X202014990Y-83340303D01*
X202407630Y-83733629D01*
X202920900Y-83946757D01*
X203476661Y-83947242D01*
X203990303Y-83735010D01*
X204383629Y-83342370D01*
X204596757Y-82829100D01*
X204597242Y-82273339D01*
X204385010Y-81759697D01*
X203992370Y-81366371D01*
X203479100Y-81153243D01*
X203054352Y-81152872D01*
X202528000Y-80626588D01*
X202528000Y-78713497D01*
X202992302Y-78879144D01*
X203547368Y-78851362D01*
X203931143Y-78692397D01*
X204000608Y-78450213D01*
X203200000Y-77649605D01*
X203185858Y-77663748D01*
X203006253Y-77484143D01*
X203020395Y-77470000D01*
X203379605Y-77470000D01*
X204180213Y-78270608D01*
X204422397Y-78201143D01*
X204609144Y-77677698D01*
X204581362Y-77122632D01*
X204422397Y-76738857D01*
X204180213Y-76669392D01*
X203379605Y-77470000D01*
X203020395Y-77470000D01*
X203006253Y-77455858D01*
X203185858Y-77276253D01*
X203200000Y-77290395D01*
X204000608Y-76489787D01*
X203931143Y-76247603D01*
X203407698Y-76060856D01*
X202852632Y-76088638D01*
X202528000Y-76223105D01*
X202528000Y-71664124D01*
X203007686Y-71465922D01*
X203544039Y-70930505D01*
X203834668Y-70230590D01*
X203835330Y-69472735D01*
X203545922Y-68772314D01*
X203010505Y-68235961D01*
X202310590Y-67945332D01*
X201552735Y-67944670D01*
X200852314Y-68234078D01*
X200315961Y-68769495D01*
X200025332Y-69469410D01*
X200024670Y-70227265D01*
X198767440Y-70227265D01*
X198767440Y-68580000D01*
X198723162Y-68344683D01*
X198584090Y-68128559D01*
X198371890Y-67983569D01*
X198120000Y-67932560D01*
X195580000Y-67932560D01*
X195344683Y-67976838D01*
X195128559Y-68115910D01*
X194983569Y-68328110D01*
X194932560Y-68580000D01*
X194932560Y-71120000D01*
X194976838Y-71355317D01*
X195115910Y-71571441D01*
X195328110Y-71716431D01*
X195580000Y-71767440D01*
X195965000Y-71767440D01*
X195965000Y-83453421D01*
X193185294Y-86233126D01*
X192763339Y-86232758D01*
X192249697Y-86444990D01*
X191856371Y-86837630D01*
X191643243Y-87350900D01*
X191642758Y-87906661D01*
X184276759Y-87906661D01*
X184277128Y-87484452D01*
X187315787Y-84445792D01*
X187315790Y-84445790D01*
X187507633Y-84158675D01*
X187549690Y-83947242D01*
X187575001Y-83820000D01*
X187575000Y-83819995D01*
X187575000Y-71767440D01*
X187960000Y-71767440D01*
X188195317Y-71723162D01*
X188411441Y-71584090D01*
X188556431Y-71371890D01*
X188607440Y-71120000D01*
X188607440Y-70227265D01*
X189864670Y-70227265D01*
X190154078Y-70927686D01*
X190598000Y-71372384D01*
X190598000Y-80993200D01*
X190598005Y-80993226D01*
X190597999Y-80993257D01*
X190632651Y-81167402D01*
X190665367Y-81331875D01*
X190665384Y-81331900D01*
X190665389Y-81331927D01*
X190755895Y-81467360D01*
X190857210Y-81618990D01*
X190857236Y-81619007D01*
X190857251Y-81619030D01*
X191643126Y-82404804D01*
X191642758Y-82826661D01*
X191854990Y-83340303D01*
X192247630Y-83733629D01*
X192760900Y-83946757D01*
X193316661Y-83947242D01*
X193830303Y-83735010D01*
X194223629Y-83342370D01*
X194436757Y-82829100D01*
X194437242Y-82273339D01*
X194225010Y-81759697D01*
X193832370Y-81366371D01*
X193319100Y-81153243D01*
X192894352Y-81152872D01*
X192368000Y-80626588D01*
X192368000Y-78713497D01*
X192832302Y-78879144D01*
X193387368Y-78851362D01*
X193771143Y-78692397D01*
X193840608Y-78450213D01*
X193040000Y-77649605D01*
X193025858Y-77663748D01*
X192846253Y-77484143D01*
X192860395Y-77470000D01*
X193219605Y-77470000D01*
X194020213Y-78270608D01*
X194262397Y-78201143D01*
X194449144Y-77677698D01*
X194421362Y-77122632D01*
X194262397Y-76738857D01*
X194020213Y-76669392D01*
X193219605Y-77470000D01*
X192860395Y-77470000D01*
X192846253Y-77455858D01*
X193025858Y-77276253D01*
X193040000Y-77290395D01*
X193840608Y-76489787D01*
X193771143Y-76247603D01*
X193247698Y-76060856D01*
X192692632Y-76088638D01*
X192368000Y-76223105D01*
X192368000Y-71664124D01*
X192847686Y-71465922D01*
X193384039Y-70930505D01*
X193674668Y-70230590D01*
X193675330Y-69472735D01*
X193385922Y-68772314D01*
X192850505Y-68235961D01*
X192150590Y-67945332D01*
X191392735Y-67944670D01*
X190692314Y-68234078D01*
X190155961Y-68769495D01*
X189865332Y-69469410D01*
X189864670Y-70227265D01*
X188607440Y-70227265D01*
X188607440Y-68580000D01*
X188563162Y-68344683D01*
X188424090Y-68128559D01*
X188211890Y-67983569D01*
X187960000Y-67932560D01*
X185420000Y-67932560D01*
X185184683Y-67976838D01*
X184968559Y-68115910D01*
X184823569Y-68328110D01*
X184772560Y-68580000D01*
X184772560Y-71120000D01*
X184816838Y-71355317D01*
X184955910Y-71571441D01*
X185168110Y-71716431D01*
X185420000Y-71767440D01*
X185805000Y-71767440D01*
X185805000Y-83453421D01*
X183025294Y-86233126D01*
X182603339Y-86232758D01*
X182089697Y-86444990D01*
X181696371Y-86837630D01*
X181483243Y-87350900D01*
X181482758Y-87906661D01*
X174116759Y-87906661D01*
X174117128Y-87484452D01*
X177155787Y-84445792D01*
X177155790Y-84445790D01*
X177347633Y-84158675D01*
X177389690Y-83947242D01*
X177415001Y-83820000D01*
X177415000Y-83819995D01*
X177415000Y-71767440D01*
X177800000Y-71767440D01*
X178035317Y-71723162D01*
X178251441Y-71584090D01*
X178396431Y-71371890D01*
X178447440Y-71120000D01*
X178447440Y-70227265D01*
X179704670Y-70227265D01*
X179994078Y-70927686D01*
X180438000Y-71372384D01*
X180438000Y-80993200D01*
X180438005Y-80993226D01*
X180437999Y-80993257D01*
X180472651Y-81167402D01*
X180505367Y-81331875D01*
X180505384Y-81331900D01*
X180505389Y-81331927D01*
X180595895Y-81467360D01*
X180697210Y-81618990D01*
X180697236Y-81619007D01*
X180697251Y-81619030D01*
X181483126Y-82404804D01*
X181482758Y-82826661D01*
X181694990Y-83340303D01*
X182087630Y-83733629D01*
X182600900Y-83946757D01*
X183156661Y-83947242D01*
X183670303Y-83735010D01*
X184063629Y-83342370D01*
X184276757Y-82829100D01*
X184277242Y-82273339D01*
X184065010Y-81759697D01*
X183672370Y-81366371D01*
X183159100Y-81153243D01*
X182734352Y-81152872D01*
X182208000Y-80626588D01*
X182208000Y-78713497D01*
X182672302Y-78879144D01*
X183227368Y-78851362D01*
X183611143Y-78692397D01*
X183680608Y-78450213D01*
X182880000Y-77649605D01*
X182865858Y-77663748D01*
X182686253Y-77484143D01*
X182700395Y-77470000D01*
X183059605Y-77470000D01*
X183860213Y-78270608D01*
X184102397Y-78201143D01*
X184289144Y-77677698D01*
X184261362Y-77122632D01*
X184102397Y-76738857D01*
X183860213Y-76669392D01*
X183059605Y-77470000D01*
X182700395Y-77470000D01*
X182686253Y-77455858D01*
X182865858Y-77276253D01*
X182880000Y-77290395D01*
X183680608Y-76489787D01*
X183611143Y-76247603D01*
X183087698Y-76060856D01*
X182532632Y-76088638D01*
X182208000Y-76223105D01*
X182208000Y-71664124D01*
X182687686Y-71465922D01*
X183224039Y-70930505D01*
X183514668Y-70230590D01*
X183515330Y-69472735D01*
X183225922Y-68772314D01*
X182690505Y-68235961D01*
X181990590Y-67945332D01*
X181232735Y-67944670D01*
X180532314Y-68234078D01*
X179995961Y-68769495D01*
X179705332Y-69469410D01*
X179704670Y-70227265D01*
X178447440Y-70227265D01*
X178447440Y-68580000D01*
X178403162Y-68344683D01*
X178264090Y-68128559D01*
X178051890Y-67983569D01*
X177800000Y-67932560D01*
X175260000Y-67932560D01*
X175024683Y-67976838D01*
X174808559Y-68115910D01*
X174663569Y-68328110D01*
X174612560Y-68580000D01*
X174612560Y-71120000D01*
X174656838Y-71355317D01*
X174795910Y-71571441D01*
X175008110Y-71716431D01*
X175260000Y-71767440D01*
X175645000Y-71767440D01*
X175645000Y-83453421D01*
X172865294Y-86233126D01*
X172443339Y-86232758D01*
X171929697Y-86444990D01*
X171536371Y-86837630D01*
X171323243Y-87350900D01*
X171322758Y-87906661D01*
X163956759Y-87906661D01*
X163957128Y-87484452D01*
X166995787Y-84445792D01*
X166995790Y-84445790D01*
X167187633Y-84158675D01*
X167229690Y-83947242D01*
X167255001Y-83820000D01*
X167255000Y-83819995D01*
X167255000Y-71767440D01*
X167640000Y-71767440D01*
X167875317Y-71723162D01*
X168091441Y-71584090D01*
X168236431Y-71371890D01*
X168287440Y-71120000D01*
X168287440Y-70227265D01*
X169544670Y-70227265D01*
X169834078Y-70927686D01*
X170278000Y-71372384D01*
X170278000Y-80993200D01*
X170278005Y-80993226D01*
X170277999Y-80993257D01*
X170312651Y-81167402D01*
X170345367Y-81331875D01*
X170345384Y-81331900D01*
X170345389Y-81331927D01*
X170435895Y-81467360D01*
X170537210Y-81618990D01*
X170537236Y-81619007D01*
X170537251Y-81619030D01*
X171323126Y-82404804D01*
X171322758Y-82826661D01*
X171534990Y-83340303D01*
X171927630Y-83733629D01*
X172440900Y-83946757D01*
X172996661Y-83947242D01*
X173510303Y-83735010D01*
X173903629Y-83342370D01*
X174116757Y-82829100D01*
X174117242Y-82273339D01*
X173905010Y-81759697D01*
X173512370Y-81366371D01*
X172999100Y-81153243D01*
X172574352Y-81152872D01*
X172048000Y-80626588D01*
X172048000Y-78713497D01*
X172512302Y-78879144D01*
X173067368Y-78851362D01*
X173451143Y-78692397D01*
X173520608Y-78450213D01*
X172720000Y-77649605D01*
X172705858Y-77663748D01*
X172526253Y-77484143D01*
X172540395Y-77470000D01*
X172899605Y-77470000D01*
X173700213Y-78270608D01*
X173942397Y-78201143D01*
X174129144Y-77677698D01*
X174101362Y-77122632D01*
X173942397Y-76738857D01*
X173700213Y-76669392D01*
X172899605Y-77470000D01*
X172540395Y-77470000D01*
X172526253Y-77455858D01*
X172705858Y-77276253D01*
X172720000Y-77290395D01*
X173520608Y-76489787D01*
X173451143Y-76247603D01*
X172927698Y-76060856D01*
X172372632Y-76088638D01*
X172048000Y-76223105D01*
X172048000Y-71664124D01*
X172527686Y-71465922D01*
X173064039Y-70930505D01*
X173354668Y-70230590D01*
X173355330Y-69472735D01*
X173065922Y-68772314D01*
X172530505Y-68235961D01*
X171830590Y-67945332D01*
X171072735Y-67944670D01*
X170372314Y-68234078D01*
X169835961Y-68769495D01*
X169545332Y-69469410D01*
X169544670Y-70227265D01*
X168287440Y-70227265D01*
X168287440Y-68580000D01*
X168243162Y-68344683D01*
X168104090Y-68128559D01*
X167891890Y-67983569D01*
X167640000Y-67932560D01*
X165100000Y-67932560D01*
X164864683Y-67976838D01*
X164648559Y-68115910D01*
X164503569Y-68328110D01*
X164452560Y-68580000D01*
X164452560Y-71120000D01*
X164496838Y-71355317D01*
X164635910Y-71571441D01*
X164848110Y-71716431D01*
X165100000Y-71767440D01*
X165485000Y-71767440D01*
X165485000Y-83453421D01*
X162705294Y-86233126D01*
X162283339Y-86232758D01*
X161769697Y-86444990D01*
X161376371Y-86837630D01*
X161163243Y-87350900D01*
X161162758Y-87906661D01*
X153796759Y-87906661D01*
X153797128Y-87484452D01*
X156835787Y-84445792D01*
X156835790Y-84445790D01*
X157027633Y-84158675D01*
X157069690Y-83947242D01*
X157095001Y-83820000D01*
X157095000Y-83819995D01*
X157095000Y-71767440D01*
X157480000Y-71767440D01*
X157715317Y-71723162D01*
X157931441Y-71584090D01*
X158076431Y-71371890D01*
X158127440Y-71120000D01*
X158127440Y-70227265D01*
X159384670Y-70227265D01*
X159674078Y-70927686D01*
X160118000Y-71372384D01*
X160118000Y-80993200D01*
X160118005Y-80993226D01*
X160117999Y-80993257D01*
X160152651Y-81167402D01*
X160185367Y-81331875D01*
X160185384Y-81331900D01*
X160185389Y-81331927D01*
X160275895Y-81467360D01*
X160377210Y-81618990D01*
X160377236Y-81619007D01*
X160377251Y-81619030D01*
X161163126Y-82404804D01*
X161162758Y-82826661D01*
X161374990Y-83340303D01*
X161767630Y-83733629D01*
X162280900Y-83946757D01*
X162836661Y-83947242D01*
X163350303Y-83735010D01*
X163743629Y-83342370D01*
X163956757Y-82829100D01*
X163957242Y-82273339D01*
X163745010Y-81759697D01*
X163352370Y-81366371D01*
X162839100Y-81153243D01*
X162414352Y-81152872D01*
X161888000Y-80626588D01*
X161888000Y-78713497D01*
X162352302Y-78879144D01*
X162907368Y-78851362D01*
X163291143Y-78692397D01*
X163360608Y-78450213D01*
X162560000Y-77649605D01*
X162545858Y-77663748D01*
X162366253Y-77484143D01*
X162380395Y-77470000D01*
X162739605Y-77470000D01*
X163540213Y-78270608D01*
X163782397Y-78201143D01*
X163969144Y-77677698D01*
X163941362Y-77122632D01*
X163782397Y-76738857D01*
X163540213Y-76669392D01*
X162739605Y-77470000D01*
X162380395Y-77470000D01*
X162366253Y-77455858D01*
X162545858Y-77276253D01*
X162560000Y-77290395D01*
X163360608Y-76489787D01*
X163291143Y-76247603D01*
X162767698Y-76060856D01*
X162212632Y-76088638D01*
X161888000Y-76223105D01*
X161888000Y-71664124D01*
X162367686Y-71465922D01*
X162904039Y-70930505D01*
X163194668Y-70230590D01*
X163195330Y-69472735D01*
X162905922Y-68772314D01*
X162370505Y-68235961D01*
X161670590Y-67945332D01*
X160912735Y-67944670D01*
X160212314Y-68234078D01*
X159675961Y-68769495D01*
X159385332Y-69469410D01*
X159384670Y-70227265D01*
X158127440Y-70227265D01*
X158127440Y-68580000D01*
X158083162Y-68344683D01*
X157944090Y-68128559D01*
X157731890Y-67983569D01*
X157480000Y-67932560D01*
X154940000Y-67932560D01*
X154704683Y-67976838D01*
X154488559Y-68115910D01*
X154343569Y-68328110D01*
X154292560Y-68580000D01*
X154292560Y-71120000D01*
X154336838Y-71355317D01*
X154475910Y-71571441D01*
X154688110Y-71716431D01*
X154940000Y-71767440D01*
X155325000Y-71767440D01*
X155325000Y-83453421D01*
X152545294Y-86233126D01*
X152123339Y-86232758D01*
X151609697Y-86444990D01*
X151216371Y-86837630D01*
X151003243Y-87350900D01*
X151002758Y-87906661D01*
X143636759Y-87906661D01*
X143637128Y-87484452D01*
X146675787Y-84445792D01*
X146675790Y-84445790D01*
X146867633Y-84158675D01*
X146909690Y-83947242D01*
X146935001Y-83820000D01*
X146935000Y-83819995D01*
X146935000Y-71767440D01*
X147320000Y-71767440D01*
X147555317Y-71723162D01*
X147771441Y-71584090D01*
X147916431Y-71371890D01*
X147967440Y-71120000D01*
X147967440Y-70227265D01*
X149224670Y-70227265D01*
X149514078Y-70927686D01*
X149958000Y-71372384D01*
X149958000Y-80993200D01*
X149958005Y-80993226D01*
X149957999Y-80993257D01*
X149992651Y-81167402D01*
X150025367Y-81331875D01*
X150025384Y-81331900D01*
X150025389Y-81331927D01*
X150115895Y-81467360D01*
X150217210Y-81618990D01*
X150217236Y-81619007D01*
X150217251Y-81619030D01*
X151003126Y-82404804D01*
X151002758Y-82826661D01*
X151214990Y-83340303D01*
X151607630Y-83733629D01*
X152120900Y-83946757D01*
X152676661Y-83947242D01*
X153190303Y-83735010D01*
X153583629Y-83342370D01*
X153796757Y-82829100D01*
X153797242Y-82273339D01*
X153585010Y-81759697D01*
X153192370Y-81366371D01*
X152679100Y-81153243D01*
X152254352Y-81152872D01*
X151728000Y-80626588D01*
X151728000Y-78713497D01*
X152192302Y-78879144D01*
X152747368Y-78851362D01*
X153131143Y-78692397D01*
X153200608Y-78450213D01*
X152400000Y-77649605D01*
X152385858Y-77663748D01*
X152206253Y-77484143D01*
X152220395Y-77470000D01*
X152579605Y-77470000D01*
X153380213Y-78270608D01*
X153622397Y-78201143D01*
X153809144Y-77677698D01*
X153781362Y-77122632D01*
X153622397Y-76738857D01*
X153380213Y-76669392D01*
X152579605Y-77470000D01*
X152220395Y-77470000D01*
X152206253Y-77455858D01*
X152385858Y-77276253D01*
X152400000Y-77290395D01*
X153200608Y-76489787D01*
X153131143Y-76247603D01*
X152607698Y-76060856D01*
X152052632Y-76088638D01*
X151728000Y-76223105D01*
X151728000Y-71664124D01*
X152207686Y-71465922D01*
X152744039Y-70930505D01*
X153034668Y-70230590D01*
X153035330Y-69472735D01*
X152745922Y-68772314D01*
X152210505Y-68235961D01*
X151510590Y-67945332D01*
X150752735Y-67944670D01*
X150052314Y-68234078D01*
X149515961Y-68769495D01*
X149225332Y-69469410D01*
X149224670Y-70227265D01*
X147967440Y-70227265D01*
X147967440Y-68580000D01*
X147923162Y-68344683D01*
X147784090Y-68128559D01*
X147571890Y-67983569D01*
X147320000Y-67932560D01*
X144780000Y-67932560D01*
X144544683Y-67976838D01*
X144328559Y-68115910D01*
X144183569Y-68328110D01*
X144132560Y-68580000D01*
X144132560Y-71120000D01*
X144176838Y-71355317D01*
X144315910Y-71571441D01*
X144528110Y-71716431D01*
X144780000Y-71767440D01*
X145165000Y-71767440D01*
X145165000Y-83453421D01*
X142385294Y-86233126D01*
X141963339Y-86232758D01*
X141449697Y-86444990D01*
X141056371Y-86837630D01*
X140843243Y-87350900D01*
X140842758Y-87906661D01*
X139140000Y-87906661D01*
X139140000Y-70409578D01*
X139354078Y-70927686D01*
X139829000Y-71403438D01*
X139829000Y-81024100D01*
X139829002Y-81024112D01*
X139828999Y-81024129D01*
X139865203Y-81206104D01*
X139896367Y-81362775D01*
X139896375Y-81362787D01*
X139896378Y-81362801D01*
X139983650Y-81493403D01*
X140088210Y-81649890D01*
X140088224Y-81649899D01*
X140088231Y-81649910D01*
X140843126Y-82404756D01*
X140842758Y-82826661D01*
X141054990Y-83340303D01*
X141447630Y-83733629D01*
X141960900Y-83946757D01*
X142516661Y-83947242D01*
X143030303Y-83735010D01*
X143423629Y-83342370D01*
X143636757Y-82829100D01*
X143637242Y-82273339D01*
X143425010Y-81759697D01*
X143032370Y-81366371D01*
X142519100Y-81153243D01*
X142094401Y-81152872D01*
X141599000Y-80657504D01*
X141599000Y-78724557D01*
X142032302Y-78879144D01*
X142587368Y-78851362D01*
X142971143Y-78692397D01*
X143040608Y-78450213D01*
X142240000Y-77649605D01*
X142225858Y-77663748D01*
X142046253Y-77484143D01*
X142060395Y-77470000D01*
X142419605Y-77470000D01*
X143220213Y-78270608D01*
X143462397Y-78201143D01*
X143649144Y-77677698D01*
X143621362Y-77122632D01*
X143462397Y-76738857D01*
X143220213Y-76669392D01*
X142419605Y-77470000D01*
X142060395Y-77470000D01*
X142046253Y-77455858D01*
X142225858Y-77276253D01*
X142240000Y-77290395D01*
X143040608Y-76489787D01*
X142971143Y-76247603D01*
X142447698Y-76060856D01*
X141892632Y-76088638D01*
X141599000Y-76210265D01*
X141599000Y-71651315D01*
X142047686Y-71465922D01*
X142584039Y-70930505D01*
X142874668Y-70230590D01*
X142875330Y-69472735D01*
X142585922Y-68772314D01*
X142050505Y-68235961D01*
X141350590Y-67945332D01*
X140592735Y-67944670D01*
X139892314Y-68234078D01*
X139355961Y-68769495D01*
X139140000Y-69289589D01*
X139140000Y-66750000D01*
X219000000Y-66750000D01*
X219000000Y-68277607D01*
X219000000Y-68277607D01*
G37*
X219000000Y-68277607D02*
X218904090Y-68128559D01*
X218691890Y-67983569D01*
X218440000Y-67932560D01*
X215900000Y-67932560D01*
X215664683Y-67976838D01*
X215448559Y-68115910D01*
X215303569Y-68328110D01*
X215252560Y-68580000D01*
X215252560Y-71120000D01*
X215296838Y-71355317D01*
X215435910Y-71571441D01*
X215648110Y-71716431D01*
X215900000Y-71767440D01*
X216285000Y-71767440D01*
X216285000Y-83453421D01*
X213505294Y-86233126D01*
X213083339Y-86232758D01*
X212569697Y-86444990D01*
X212176371Y-86837630D01*
X211963243Y-87350900D01*
X211962758Y-87906661D01*
X212174990Y-88420303D01*
X212567630Y-88813629D01*
X213080900Y-89026757D01*
X213636661Y-89027242D01*
X214150303Y-88815010D01*
X214543629Y-88422370D01*
X214756757Y-87909100D01*
X214757128Y-87484452D01*
X217795787Y-84445792D01*
X217795790Y-84445790D01*
X217987633Y-84158675D01*
X218029690Y-83947242D01*
X218055001Y-83820000D01*
X218055000Y-83819995D01*
X218055000Y-71767440D01*
X218440000Y-71767440D01*
X218675317Y-71723162D01*
X218891441Y-71584090D01*
X219000000Y-71425209D01*
X219000000Y-125020000D01*
X188220802Y-125020000D01*
X191655680Y-121585122D01*
X191701167Y-121585162D01*
X192044943Y-121443117D01*
X192308192Y-121180327D01*
X192450838Y-120836799D01*
X192451162Y-120464833D01*
X192309117Y-120121057D01*
X192046327Y-119857808D01*
X191702799Y-119715162D01*
X191330833Y-119714838D01*
X190987057Y-119856883D01*
X190723808Y-120119673D01*
X190581162Y-120463201D01*
X190581121Y-120510077D01*
X187264198Y-123827000D01*
X182809802Y-123827000D01*
X183417401Y-123219401D01*
X183582148Y-122972839D01*
X183620021Y-122782440D01*
X183730000Y-122782440D01*
X183965317Y-122738162D01*
X184181441Y-122599090D01*
X184326431Y-122386890D01*
X184377440Y-122135000D01*
X184377440Y-120435000D01*
X184333162Y-120199683D01*
X184194090Y-119983559D01*
X183981890Y-119838569D01*
X183914459Y-119824914D01*
X183959147Y-119795054D01*
X184281054Y-119313285D01*
X184394093Y-118745000D01*
X184292648Y-118235000D01*
X190820198Y-118235000D01*
X191342878Y-118757680D01*
X191342838Y-118803167D01*
X191484883Y-119146943D01*
X191747673Y-119410192D01*
X192091201Y-119552838D01*
X192463167Y-119553162D01*
X192806943Y-119411117D01*
X193070192Y-119148327D01*
X193212838Y-118804799D01*
X193213162Y-118432833D01*
X193071117Y-118089057D01*
X192808327Y-117825808D01*
X192464799Y-117683162D01*
X192417923Y-117683121D01*
X191672401Y-116937599D01*
X191425839Y-116772852D01*
X191135000Y-116715000D01*
X184292648Y-116715000D01*
X184394093Y-116205000D01*
X184281054Y-115636715D01*
X183959147Y-115154946D01*
X183640000Y-114941699D01*
X183640000Y-114935000D01*
X183582148Y-114644161D01*
X183417401Y-114397599D01*
X182274401Y-113254599D01*
X182027839Y-113089852D01*
X181737000Y-113032000D01*
X171323000Y-113032000D01*
X171032160Y-113089852D01*
X170785599Y-113254599D01*
X169738198Y-114302000D01*
X167821463Y-114302000D01*
X167789327Y-114269808D01*
X167445799Y-114127162D01*
X167073833Y-114126838D01*
X166730057Y-114268883D01*
X166466808Y-114531673D01*
X166324162Y-114875201D01*
X166323838Y-115247167D01*
X166465883Y-115590943D01*
X166728673Y-115854192D01*
X167072201Y-115996838D01*
X167444167Y-115997162D01*
X167787943Y-115855117D01*
X167794962Y-115848110D01*
X178898524Y-115848110D01*
X179019845Y-116078000D01*
X180213000Y-116078000D01*
X180213000Y-114884181D01*
X179983108Y-114763514D01*
X179458642Y-115009817D01*
X179068355Y-115438076D01*
X178898524Y-115848110D01*
X167794962Y-115848110D01*
X167821118Y-115822000D01*
X170053000Y-115822000D01*
X170343839Y-115764148D01*
X170590401Y-115599401D01*
X171637802Y-114552000D01*
X181422198Y-114552000D01*
X181935306Y-115065108D01*
X181800853Y-115154946D01*
X181611655Y-115438101D01*
X181611645Y-115438076D01*
X181221358Y-115009817D01*
X180696892Y-114763514D01*
X180467000Y-114884181D01*
X180467000Y-116078000D01*
X180487000Y-116078000D01*
X180487000Y-116332000D01*
X180467000Y-116332000D01*
X180467000Y-116352000D01*
X180213000Y-116352000D01*
X180213000Y-116332000D01*
X179019845Y-116332000D01*
X178898524Y-116561890D01*
X179068355Y-116971924D01*
X179458642Y-117400183D01*
X179601553Y-117467298D01*
X179260853Y-117694946D01*
X178938946Y-118176715D01*
X178825907Y-118745000D01*
X178938946Y-119313285D01*
X179260853Y-119795054D01*
X179590026Y-120015000D01*
X179260853Y-120234946D01*
X178938946Y-120716715D01*
X178825907Y-121285000D01*
X178938946Y-121853285D01*
X179260853Y-122335054D01*
X179742622Y-122656961D01*
X179878556Y-122684000D01*
X177225802Y-122684000D01*
X176068122Y-121526320D01*
X176068162Y-121480833D01*
X175926117Y-121137057D01*
X175663327Y-120873808D01*
X175319799Y-120731162D01*
X174947833Y-120730838D01*
X174604057Y-120872883D01*
X174340808Y-121135673D01*
X174198162Y-121479201D01*
X174197838Y-121851167D01*
X174339883Y-122194943D01*
X174602673Y-122458192D01*
X174946201Y-122600838D01*
X174993077Y-122600879D01*
X176219198Y-123827000D01*
X173923802Y-123827000D01*
X169718122Y-119621320D01*
X169718162Y-119575833D01*
X169576117Y-119232057D01*
X169313327Y-118968808D01*
X168969799Y-118826162D01*
X168597833Y-118825838D01*
X168254057Y-118967883D01*
X167990808Y-119230673D01*
X167848162Y-119574201D01*
X167847838Y-119946167D01*
X167989883Y-120289943D01*
X168252673Y-120553192D01*
X168596201Y-120695838D01*
X168643077Y-120695879D01*
X172967198Y-125020000D01*
X139140000Y-125020000D01*
X139140000Y-121549016D01*
X149180590Y-121549016D01*
X149236271Y-121779611D01*
X149719078Y-121947622D01*
X150229428Y-121918083D01*
X150563729Y-121779611D01*
X150619410Y-121549016D01*
X149900000Y-120829605D01*
X149180590Y-121549016D01*
X139140000Y-121549016D01*
X139140000Y-120469078D01*
X148602378Y-120469078D01*
X148631917Y-120979428D01*
X148770389Y-121313729D01*
X149000984Y-121369410D01*
X149720395Y-120650000D01*
X150079605Y-120650000D01*
X150799016Y-121369410D01*
X151029611Y-121313729D01*
X151102560Y-121104098D01*
X151102560Y-121300000D01*
X151146838Y-121535317D01*
X151285910Y-121751441D01*
X151498110Y-121896431D01*
X151750000Y-121947440D01*
X153050000Y-121947440D01*
X153285317Y-121903162D01*
X153501441Y-121764090D01*
X153646431Y-121551890D01*
X153649851Y-121535000D01*
X154939995Y-121535000D01*
X154940000Y-121535001D01*
X155222484Y-121478810D01*
X155278675Y-121467633D01*
X155565790Y-121275790D01*
X167201579Y-109640000D01*
X189637560Y-109640000D01*
X189637560Y-111340000D01*
X189681838Y-111575317D01*
X189820910Y-111791441D01*
X190033110Y-111936431D01*
X190285000Y-111987440D01*
X191985000Y-111987440D01*
X192220317Y-111943162D01*
X192436441Y-111804090D01*
X192581431Y-111591890D01*
X192632440Y-111340000D01*
X192632440Y-109640000D01*
X192588162Y-109404683D01*
X192449090Y-109188559D01*
X192236890Y-109043569D01*
X191985000Y-108992560D01*
X190285000Y-108992560D01*
X190049683Y-109036838D01*
X189833559Y-109175910D01*
X189688569Y-109388110D01*
X189637560Y-109640000D01*
X167201579Y-109640000D01*
X168429834Y-108411745D01*
X168549943Y-108362117D01*
X168813192Y-108099327D01*
X168955838Y-107755799D01*
X168956162Y-107383833D01*
X168814117Y-107040057D01*
X168551327Y-106776808D01*
X168207799Y-106634162D01*
X167835833Y-106633838D01*
X167492057Y-106775883D01*
X167228808Y-107038673D01*
X167178434Y-107159987D01*
X154573420Y-119765000D01*
X153653222Y-119765000D01*
X153653162Y-119764683D01*
X153514090Y-119548559D01*
X153301890Y-119403569D01*
X153050000Y-119352560D01*
X151750000Y-119352560D01*
X151514683Y-119396838D01*
X151298559Y-119535910D01*
X151153569Y-119748110D01*
X151102560Y-120000000D01*
X151102560Y-120162385D01*
X151029611Y-119986271D01*
X150799016Y-119930590D01*
X150079605Y-120650000D01*
X149720395Y-120650000D01*
X149000984Y-119930590D01*
X148770389Y-119986271D01*
X148602378Y-120469078D01*
X139140000Y-120469078D01*
X139140000Y-119750984D01*
X149180590Y-119750984D01*
X149900000Y-120470395D01*
X150619410Y-119750984D01*
X150563729Y-119520389D01*
X150080922Y-119352378D01*
X149570572Y-119381917D01*
X149236271Y-119520389D01*
X149180590Y-119750984D01*
X139140000Y-119750984D01*
X139140000Y-117217265D01*
X141604670Y-117217265D01*
X141894078Y-117917686D01*
X142429495Y-118454039D01*
X143129410Y-118744668D01*
X143887265Y-118745330D01*
X144587686Y-118455922D01*
X145124039Y-117920505D01*
X145414668Y-117220590D01*
X145415330Y-116462735D01*
X145125922Y-115762314D01*
X144590505Y-115225961D01*
X143890590Y-114935332D01*
X143132735Y-114934670D01*
X142432314Y-115224078D01*
X141895961Y-115759495D01*
X141605332Y-116459410D01*
X141604670Y-117217265D01*
X139140000Y-117217265D01*
X139140000Y-112045750D01*
X141605000Y-112045750D01*
X141605000Y-113156309D01*
X141701673Y-113389698D01*
X141880301Y-113568327D01*
X142113690Y-113665000D01*
X143224250Y-113665000D01*
X143383000Y-113506250D01*
X143383000Y-111887000D01*
X143637000Y-111887000D01*
X143637000Y-113506250D01*
X143795750Y-113665000D01*
X144906310Y-113665000D01*
X145139699Y-113568327D01*
X145318327Y-113389698D01*
X145415000Y-113156309D01*
X145415000Y-112045750D01*
X145256250Y-111887000D01*
X143637000Y-111887000D01*
X143383000Y-111887000D01*
X141763750Y-111887000D01*
X141605000Y-112045750D01*
X139140000Y-112045750D01*
X139140000Y-110363691D01*
X141605000Y-110363691D01*
X141605000Y-111474250D01*
X141763750Y-111633000D01*
X143383000Y-111633000D01*
X143383000Y-110013750D01*
X143637000Y-110013750D01*
X143637000Y-111633000D01*
X145256250Y-111633000D01*
X145415000Y-111474250D01*
X145415000Y-110363691D01*
X145318327Y-110130302D01*
X145139699Y-109951673D01*
X144906310Y-109855000D01*
X143795750Y-109855000D01*
X143637000Y-110013750D01*
X143383000Y-110013750D01*
X143224250Y-109855000D01*
X142113690Y-109855000D01*
X141880301Y-109951673D01*
X141701673Y-110130302D01*
X141605000Y-110363691D01*
X139140000Y-110363691D01*
X139140000Y-107579016D01*
X148545590Y-107579016D01*
X148601271Y-107809611D01*
X149084078Y-107977622D01*
X149594428Y-107948083D01*
X149928729Y-107809611D01*
X149984410Y-107579016D01*
X149265000Y-106859605D01*
X148545590Y-107579016D01*
X139140000Y-107579016D01*
X139140000Y-106499078D01*
X147967378Y-106499078D01*
X147996917Y-107009428D01*
X148135389Y-107343729D01*
X148365984Y-107399410D01*
X149085395Y-106680000D01*
X149444605Y-106680000D01*
X150164016Y-107399410D01*
X150394611Y-107343729D01*
X150467560Y-107134098D01*
X150467560Y-107330000D01*
X150511838Y-107565317D01*
X150650910Y-107781441D01*
X150863110Y-107926431D01*
X151115000Y-107977440D01*
X152415000Y-107977440D01*
X152650317Y-107933162D01*
X152866441Y-107794090D01*
X153011431Y-107581890D01*
X153062440Y-107330000D01*
X153062440Y-106484167D01*
X164926838Y-106484167D01*
X165068883Y-106827943D01*
X165331673Y-107091192D01*
X165675201Y-107233838D01*
X166047167Y-107234162D01*
X166390943Y-107092117D01*
X166654192Y-106829327D01*
X166769764Y-106551000D01*
X194122198Y-106551000D01*
X196185599Y-108614401D01*
X207725878Y-120154681D01*
X207725838Y-120200167D01*
X207867883Y-120543943D01*
X208130673Y-120807192D01*
X208474201Y-120949838D01*
X208846167Y-120950162D01*
X209189943Y-120808117D01*
X209453192Y-120545327D01*
X209595838Y-120201799D01*
X209596162Y-119829833D01*
X209454117Y-119486057D01*
X209191327Y-119222808D01*
X208847799Y-119080162D01*
X208800924Y-119080121D01*
X197260401Y-107539599D01*
X194974401Y-105253599D01*
X194727839Y-105088852D01*
X194437000Y-105031000D01*
X166370000Y-105031000D01*
X166079161Y-105088852D01*
X166079159Y-105088853D01*
X166079160Y-105088853D01*
X165832599Y-105253599D01*
X165722320Y-105363878D01*
X165676833Y-105363838D01*
X165333057Y-105505883D01*
X165069808Y-105768673D01*
X164927162Y-106112201D01*
X164926838Y-106484167D01*
X153062440Y-106484167D01*
X153062440Y-106030000D01*
X153018162Y-105794683D01*
X152879090Y-105578559D01*
X152666890Y-105433569D01*
X152415000Y-105382560D01*
X151115000Y-105382560D01*
X150879683Y-105426838D01*
X150663559Y-105565910D01*
X150518569Y-105778110D01*
X150467560Y-106030000D01*
X150467560Y-106192385D01*
X150394611Y-106016271D01*
X150164016Y-105960590D01*
X149444605Y-106680000D01*
X149085395Y-106680000D01*
X148365984Y-105960590D01*
X148135389Y-106016271D01*
X147967378Y-106499078D01*
X139140000Y-106499078D01*
X139140000Y-105780984D01*
X148545590Y-105780984D01*
X149265000Y-106500395D01*
X149984410Y-105780984D01*
X149928729Y-105550389D01*
X149445922Y-105382378D01*
X148935572Y-105411917D01*
X148601271Y-105550389D01*
X148545590Y-105780984D01*
X139140000Y-105780984D01*
X139140000Y-92986661D01*
X140842758Y-92986661D01*
X141054990Y-93500303D01*
X141447630Y-93893629D01*
X141960900Y-94106757D01*
X142516661Y-94107242D01*
X143030303Y-93895010D01*
X143423629Y-93502370D01*
X143636757Y-92989100D01*
X143636759Y-92986661D01*
X151002758Y-92986661D01*
X151214990Y-93500303D01*
X151607630Y-93893629D01*
X152120900Y-94106757D01*
X152676661Y-94107242D01*
X153190303Y-93895010D01*
X153583629Y-93502370D01*
X153796757Y-92989100D01*
X153796759Y-92986661D01*
X161162758Y-92986661D01*
X161374990Y-93500303D01*
X161767630Y-93893629D01*
X162280900Y-94106757D01*
X162836661Y-94107242D01*
X163350303Y-93895010D01*
X163743629Y-93502370D01*
X163956757Y-92989100D01*
X163956759Y-92986661D01*
X171322758Y-92986661D01*
X171534990Y-93500303D01*
X171927630Y-93893629D01*
X172440900Y-94106757D01*
X172996661Y-94107242D01*
X173510303Y-93895010D01*
X173903629Y-93502370D01*
X174116757Y-92989100D01*
X174116759Y-92986661D01*
X181482758Y-92986661D01*
X181694990Y-93500303D01*
X182087630Y-93893629D01*
X182600900Y-94106757D01*
X183156661Y-94107242D01*
X183670303Y-93895010D01*
X184063629Y-93502370D01*
X184276757Y-92989100D01*
X184276759Y-92986661D01*
X191642758Y-92986661D01*
X191854990Y-93500303D01*
X192247630Y-93893629D01*
X192760900Y-94106757D01*
X193316661Y-94107242D01*
X193830303Y-93895010D01*
X194223629Y-93502370D01*
X194436757Y-92989100D01*
X194436759Y-92986661D01*
X201802758Y-92986661D01*
X202014990Y-93500303D01*
X202407630Y-93893629D01*
X202920900Y-94106757D01*
X203476661Y-94107242D01*
X203990303Y-93895010D01*
X204383629Y-93502370D01*
X204596757Y-92989100D01*
X204596759Y-92986661D01*
X211962758Y-92986661D01*
X212174990Y-93500303D01*
X212567630Y-93893629D01*
X213080900Y-94106757D01*
X213636661Y-94107242D01*
X214150303Y-93895010D01*
X214543629Y-93502370D01*
X214756757Y-92989100D01*
X214757242Y-92433339D01*
X214545010Y-91919697D01*
X214152370Y-91526371D01*
X213639100Y-91313243D01*
X213083339Y-91312758D01*
X212569697Y-91524990D01*
X212176371Y-91917630D01*
X211963243Y-92430900D01*
X211962758Y-92986661D01*
X204596759Y-92986661D01*
X204597242Y-92433339D01*
X204385010Y-91919697D01*
X203992370Y-91526371D01*
X203479100Y-91313243D01*
X202923339Y-91312758D01*
X202409697Y-91524990D01*
X202016371Y-91917630D01*
X201803243Y-92430900D01*
X201802758Y-92986661D01*
X194436759Y-92986661D01*
X194437242Y-92433339D01*
X194225010Y-91919697D01*
X193832370Y-91526371D01*
X193319100Y-91313243D01*
X192763339Y-91312758D01*
X192249697Y-91524990D01*
X191856371Y-91917630D01*
X191643243Y-92430900D01*
X191642758Y-92986661D01*
X184276759Y-92986661D01*
X184277242Y-92433339D01*
X184065010Y-91919697D01*
X183672370Y-91526371D01*
X183159100Y-91313243D01*
X182603339Y-91312758D01*
X182089697Y-91524990D01*
X181696371Y-91917630D01*
X181483243Y-92430900D01*
X181482758Y-92986661D01*
X174116759Y-92986661D01*
X174117242Y-92433339D01*
X173905010Y-91919697D01*
X173512370Y-91526371D01*
X172999100Y-91313243D01*
X172443339Y-91312758D01*
X171929697Y-91524990D01*
X171536371Y-91917630D01*
X171323243Y-92430900D01*
X171322758Y-92986661D01*
X163956759Y-92986661D01*
X163957242Y-92433339D01*
X163745010Y-91919697D01*
X163352370Y-91526371D01*
X162839100Y-91313243D01*
X162283339Y-91312758D01*
X161769697Y-91524990D01*
X161376371Y-91917630D01*
X161163243Y-92430900D01*
X161162758Y-92986661D01*
X153796759Y-92986661D01*
X153797242Y-92433339D01*
X153585010Y-91919697D01*
X153192370Y-91526371D01*
X152679100Y-91313243D01*
X152123339Y-91312758D01*
X151609697Y-91524990D01*
X151216371Y-91917630D01*
X151003243Y-92430900D01*
X151002758Y-92986661D01*
X143636759Y-92986661D01*
X143637242Y-92433339D01*
X143425010Y-91919697D01*
X143032370Y-91526371D01*
X142519100Y-91313243D01*
X141963339Y-91312758D01*
X141449697Y-91524990D01*
X141056371Y-91917630D01*
X140843243Y-92430900D01*
X140842758Y-92986661D01*
X139140000Y-92986661D01*
X139140000Y-87906661D01*
X140842758Y-87906661D01*
X141054990Y-88420303D01*
X141447630Y-88813629D01*
X141960900Y-89026757D01*
X142516661Y-89027242D01*
X143030303Y-88815010D01*
X143423629Y-88422370D01*
X143636757Y-87909100D01*
X143636759Y-87906661D01*
X151002758Y-87906661D01*
X151214990Y-88420303D01*
X151607630Y-88813629D01*
X152120900Y-89026757D01*
X152676661Y-89027242D01*
X153190303Y-88815010D01*
X153583629Y-88422370D01*
X153796757Y-87909100D01*
X153796759Y-87906661D01*
X161162758Y-87906661D01*
X161374990Y-88420303D01*
X161767630Y-88813629D01*
X162280900Y-89026757D01*
X162836661Y-89027242D01*
X163350303Y-88815010D01*
X163743629Y-88422370D01*
X163956757Y-87909100D01*
X163956759Y-87906661D01*
X171322758Y-87906661D01*
X171534990Y-88420303D01*
X171927630Y-88813629D01*
X172440900Y-89026757D01*
X172996661Y-89027242D01*
X173510303Y-88815010D01*
X173903629Y-88422370D01*
X174116757Y-87909100D01*
X174116759Y-87906661D01*
X181482758Y-87906661D01*
X181694990Y-88420303D01*
X182087630Y-88813629D01*
X182600900Y-89026757D01*
X183156661Y-89027242D01*
X183670303Y-88815010D01*
X184063629Y-88422370D01*
X184276757Y-87909100D01*
X184276759Y-87906661D01*
X191642758Y-87906661D01*
X191854990Y-88420303D01*
X192247630Y-88813629D01*
X192760900Y-89026757D01*
X193316661Y-89027242D01*
X193830303Y-88815010D01*
X194223629Y-88422370D01*
X194436757Y-87909100D01*
X194436759Y-87906661D01*
X201802758Y-87906661D01*
X202014990Y-88420303D01*
X202407630Y-88813629D01*
X202920900Y-89026757D01*
X203476661Y-89027242D01*
X203990303Y-88815010D01*
X204383629Y-88422370D01*
X204596757Y-87909100D01*
X204597128Y-87484452D01*
X207635787Y-84445792D01*
X207635790Y-84445790D01*
X207827633Y-84158675D01*
X207869690Y-83947242D01*
X207895001Y-83820000D01*
X207895000Y-83819995D01*
X207895000Y-71767440D01*
X208280000Y-71767440D01*
X208515317Y-71723162D01*
X208731441Y-71584090D01*
X208876431Y-71371890D01*
X208927440Y-71120000D01*
X208927440Y-70227265D01*
X210184670Y-70227265D01*
X210474078Y-70927686D01*
X210918000Y-71372384D01*
X210918000Y-80993200D01*
X210918005Y-80993226D01*
X210917999Y-80993257D01*
X210952651Y-81167402D01*
X210985367Y-81331875D01*
X210985384Y-81331900D01*
X210985389Y-81331927D01*
X211075895Y-81467360D01*
X211177210Y-81618990D01*
X211177236Y-81619007D01*
X211177251Y-81619030D01*
X211963126Y-82404804D01*
X211962758Y-82826661D01*
X212174990Y-83340303D01*
X212567630Y-83733629D01*
X213080900Y-83946757D01*
X213636661Y-83947242D01*
X214150303Y-83735010D01*
X214543629Y-83342370D01*
X214756757Y-82829100D01*
X214757242Y-82273339D01*
X214545010Y-81759697D01*
X214152370Y-81366371D01*
X213639100Y-81153243D01*
X213214352Y-81152872D01*
X212688000Y-80626588D01*
X212688000Y-78713497D01*
X213152302Y-78879144D01*
X213707368Y-78851362D01*
X214091143Y-78692397D01*
X214160608Y-78450213D01*
X213360000Y-77649605D01*
X213345858Y-77663748D01*
X213166253Y-77484143D01*
X213180395Y-77470000D01*
X213539605Y-77470000D01*
X214340213Y-78270608D01*
X214582397Y-78201143D01*
X214769144Y-77677698D01*
X214741362Y-77122632D01*
X214582397Y-76738857D01*
X214340213Y-76669392D01*
X213539605Y-77470000D01*
X213180395Y-77470000D01*
X213166253Y-77455858D01*
X213345858Y-77276253D01*
X213360000Y-77290395D01*
X214160608Y-76489787D01*
X214091143Y-76247603D01*
X213567698Y-76060856D01*
X213012632Y-76088638D01*
X212688000Y-76223105D01*
X212688000Y-71664124D01*
X213167686Y-71465922D01*
X213704039Y-70930505D01*
X213994668Y-70230590D01*
X213995330Y-69472735D01*
X213705922Y-68772314D01*
X213170505Y-68235961D01*
X212470590Y-67945332D01*
X211712735Y-67944670D01*
X211012314Y-68234078D01*
X210475961Y-68769495D01*
X210185332Y-69469410D01*
X210184670Y-70227265D01*
X208927440Y-70227265D01*
X208927440Y-68580000D01*
X208883162Y-68344683D01*
X208744090Y-68128559D01*
X208531890Y-67983569D01*
X208280000Y-67932560D01*
X205740000Y-67932560D01*
X205504683Y-67976838D01*
X205288559Y-68115910D01*
X205143569Y-68328110D01*
X205092560Y-68580000D01*
X205092560Y-71120000D01*
X205136838Y-71355317D01*
X205275910Y-71571441D01*
X205488110Y-71716431D01*
X205740000Y-71767440D01*
X206125000Y-71767440D01*
X206125000Y-83453421D01*
X203345294Y-86233126D01*
X202923339Y-86232758D01*
X202409697Y-86444990D01*
X202016371Y-86837630D01*
X201803243Y-87350900D01*
X201802758Y-87906661D01*
X194436759Y-87906661D01*
X194437128Y-87484452D01*
X197475787Y-84445792D01*
X197475790Y-84445790D01*
X197667633Y-84158675D01*
X197709690Y-83947242D01*
X197735001Y-83820000D01*
X197735000Y-83819995D01*
X197735000Y-71767440D01*
X198120000Y-71767440D01*
X198355317Y-71723162D01*
X198571441Y-71584090D01*
X198716431Y-71371890D01*
X198767440Y-71120000D01*
X198767440Y-70227265D01*
X200024670Y-70227265D01*
X200314078Y-70927686D01*
X200758000Y-71372384D01*
X200758000Y-80993200D01*
X200758005Y-80993226D01*
X200757999Y-80993257D01*
X200792651Y-81167402D01*
X200825367Y-81331875D01*
X200825384Y-81331900D01*
X200825389Y-81331927D01*
X200915895Y-81467360D01*
X201017210Y-81618990D01*
X201017236Y-81619007D01*
X201017251Y-81619030D01*
X201803126Y-82404804D01*
X201802758Y-82826661D01*
X202014990Y-83340303D01*
X202407630Y-83733629D01*
X202920900Y-83946757D01*
X203476661Y-83947242D01*
X203990303Y-83735010D01*
X204383629Y-83342370D01*
X204596757Y-82829100D01*
X204597242Y-82273339D01*
X204385010Y-81759697D01*
X203992370Y-81366371D01*
X203479100Y-81153243D01*
X203054352Y-81152872D01*
X202528000Y-80626588D01*
X202528000Y-78713497D01*
X202992302Y-78879144D01*
X203547368Y-78851362D01*
X203931143Y-78692397D01*
X204000608Y-78450213D01*
X203200000Y-77649605D01*
X203185858Y-77663748D01*
X203006253Y-77484143D01*
X203020395Y-77470000D01*
X203379605Y-77470000D01*
X204180213Y-78270608D01*
X204422397Y-78201143D01*
X204609144Y-77677698D01*
X204581362Y-77122632D01*
X204422397Y-76738857D01*
X204180213Y-76669392D01*
X203379605Y-77470000D01*
X203020395Y-77470000D01*
X203006253Y-77455858D01*
X203185858Y-77276253D01*
X203200000Y-77290395D01*
X204000608Y-76489787D01*
X203931143Y-76247603D01*
X203407698Y-76060856D01*
X202852632Y-76088638D01*
X202528000Y-76223105D01*
X202528000Y-71664124D01*
X203007686Y-71465922D01*
X203544039Y-70930505D01*
X203834668Y-70230590D01*
X203835330Y-69472735D01*
X203545922Y-68772314D01*
X203010505Y-68235961D01*
X202310590Y-67945332D01*
X201552735Y-67944670D01*
X200852314Y-68234078D01*
X200315961Y-68769495D01*
X200025332Y-69469410D01*
X200024670Y-70227265D01*
X198767440Y-70227265D01*
X198767440Y-68580000D01*
X198723162Y-68344683D01*
X198584090Y-68128559D01*
X198371890Y-67983569D01*
X198120000Y-67932560D01*
X195580000Y-67932560D01*
X195344683Y-67976838D01*
X195128559Y-68115910D01*
X194983569Y-68328110D01*
X194932560Y-68580000D01*
X194932560Y-71120000D01*
X194976838Y-71355317D01*
X195115910Y-71571441D01*
X195328110Y-71716431D01*
X195580000Y-71767440D01*
X195965000Y-71767440D01*
X195965000Y-83453421D01*
X193185294Y-86233126D01*
X192763339Y-86232758D01*
X192249697Y-86444990D01*
X191856371Y-86837630D01*
X191643243Y-87350900D01*
X191642758Y-87906661D01*
X184276759Y-87906661D01*
X184277128Y-87484452D01*
X187315787Y-84445792D01*
X187315790Y-84445790D01*
X187507633Y-84158675D01*
X187549690Y-83947242D01*
X187575001Y-83820000D01*
X187575000Y-83819995D01*
X187575000Y-71767440D01*
X187960000Y-71767440D01*
X188195317Y-71723162D01*
X188411441Y-71584090D01*
X188556431Y-71371890D01*
X188607440Y-71120000D01*
X188607440Y-70227265D01*
X189864670Y-70227265D01*
X190154078Y-70927686D01*
X190598000Y-71372384D01*
X190598000Y-80993200D01*
X190598005Y-80993226D01*
X190597999Y-80993257D01*
X190632651Y-81167402D01*
X190665367Y-81331875D01*
X190665384Y-81331900D01*
X190665389Y-81331927D01*
X190755895Y-81467360D01*
X190857210Y-81618990D01*
X190857236Y-81619007D01*
X190857251Y-81619030D01*
X191643126Y-82404804D01*
X191642758Y-82826661D01*
X191854990Y-83340303D01*
X192247630Y-83733629D01*
X192760900Y-83946757D01*
X193316661Y-83947242D01*
X193830303Y-83735010D01*
X194223629Y-83342370D01*
X194436757Y-82829100D01*
X194437242Y-82273339D01*
X194225010Y-81759697D01*
X193832370Y-81366371D01*
X193319100Y-81153243D01*
X192894352Y-81152872D01*
X192368000Y-80626588D01*
X192368000Y-78713497D01*
X192832302Y-78879144D01*
X193387368Y-78851362D01*
X193771143Y-78692397D01*
X193840608Y-78450213D01*
X193040000Y-77649605D01*
X193025858Y-77663748D01*
X192846253Y-77484143D01*
X192860395Y-77470000D01*
X193219605Y-77470000D01*
X194020213Y-78270608D01*
X194262397Y-78201143D01*
X194449144Y-77677698D01*
X194421362Y-77122632D01*
X194262397Y-76738857D01*
X194020213Y-76669392D01*
X193219605Y-77470000D01*
X192860395Y-77470000D01*
X192846253Y-77455858D01*
X193025858Y-77276253D01*
X193040000Y-77290395D01*
X193840608Y-76489787D01*
X193771143Y-76247603D01*
X193247698Y-76060856D01*
X192692632Y-76088638D01*
X192368000Y-76223105D01*
X192368000Y-71664124D01*
X192847686Y-71465922D01*
X193384039Y-70930505D01*
X193674668Y-70230590D01*
X193675330Y-69472735D01*
X193385922Y-68772314D01*
X192850505Y-68235961D01*
X192150590Y-67945332D01*
X191392735Y-67944670D01*
X190692314Y-68234078D01*
X190155961Y-68769495D01*
X189865332Y-69469410D01*
X189864670Y-70227265D01*
X188607440Y-70227265D01*
X188607440Y-68580000D01*
X188563162Y-68344683D01*
X188424090Y-68128559D01*
X188211890Y-67983569D01*
X187960000Y-67932560D01*
X185420000Y-67932560D01*
X185184683Y-67976838D01*
X184968559Y-68115910D01*
X184823569Y-68328110D01*
X184772560Y-68580000D01*
X184772560Y-71120000D01*
X184816838Y-71355317D01*
X184955910Y-71571441D01*
X185168110Y-71716431D01*
X185420000Y-71767440D01*
X185805000Y-71767440D01*
X185805000Y-83453421D01*
X183025294Y-86233126D01*
X182603339Y-86232758D01*
X182089697Y-86444990D01*
X181696371Y-86837630D01*
X181483243Y-87350900D01*
X181482758Y-87906661D01*
X174116759Y-87906661D01*
X174117128Y-87484452D01*
X177155787Y-84445792D01*
X177155790Y-84445790D01*
X177347633Y-84158675D01*
X177389690Y-83947242D01*
X177415001Y-83820000D01*
X177415000Y-83819995D01*
X177415000Y-71767440D01*
X177800000Y-71767440D01*
X178035317Y-71723162D01*
X178251441Y-71584090D01*
X178396431Y-71371890D01*
X178447440Y-71120000D01*
X178447440Y-70227265D01*
X179704670Y-70227265D01*
X179994078Y-70927686D01*
X180438000Y-71372384D01*
X180438000Y-80993200D01*
X180438005Y-80993226D01*
X180437999Y-80993257D01*
X180472651Y-81167402D01*
X180505367Y-81331875D01*
X180505384Y-81331900D01*
X180505389Y-81331927D01*
X180595895Y-81467360D01*
X180697210Y-81618990D01*
X180697236Y-81619007D01*
X180697251Y-81619030D01*
X181483126Y-82404804D01*
X181482758Y-82826661D01*
X181694990Y-83340303D01*
X182087630Y-83733629D01*
X182600900Y-83946757D01*
X183156661Y-83947242D01*
X183670303Y-83735010D01*
X184063629Y-83342370D01*
X184276757Y-82829100D01*
X184277242Y-82273339D01*
X184065010Y-81759697D01*
X183672370Y-81366371D01*
X183159100Y-81153243D01*
X182734352Y-81152872D01*
X182208000Y-80626588D01*
X182208000Y-78713497D01*
X182672302Y-78879144D01*
X183227368Y-78851362D01*
X183611143Y-78692397D01*
X183680608Y-78450213D01*
X182880000Y-77649605D01*
X182865858Y-77663748D01*
X182686253Y-77484143D01*
X182700395Y-77470000D01*
X183059605Y-77470000D01*
X183860213Y-78270608D01*
X184102397Y-78201143D01*
X184289144Y-77677698D01*
X184261362Y-77122632D01*
X184102397Y-76738857D01*
X183860213Y-76669392D01*
X183059605Y-77470000D01*
X182700395Y-77470000D01*
X182686253Y-77455858D01*
X182865858Y-77276253D01*
X182880000Y-77290395D01*
X183680608Y-76489787D01*
X183611143Y-76247603D01*
X183087698Y-76060856D01*
X182532632Y-76088638D01*
X182208000Y-76223105D01*
X182208000Y-71664124D01*
X182687686Y-71465922D01*
X183224039Y-70930505D01*
X183514668Y-70230590D01*
X183515330Y-69472735D01*
X183225922Y-68772314D01*
X182690505Y-68235961D01*
X181990590Y-67945332D01*
X181232735Y-67944670D01*
X180532314Y-68234078D01*
X179995961Y-68769495D01*
X179705332Y-69469410D01*
X179704670Y-70227265D01*
X178447440Y-70227265D01*
X178447440Y-68580000D01*
X178403162Y-68344683D01*
X178264090Y-68128559D01*
X178051890Y-67983569D01*
X177800000Y-67932560D01*
X175260000Y-67932560D01*
X175024683Y-67976838D01*
X174808559Y-68115910D01*
X174663569Y-68328110D01*
X174612560Y-68580000D01*
X174612560Y-71120000D01*
X174656838Y-71355317D01*
X174795910Y-71571441D01*
X175008110Y-71716431D01*
X175260000Y-71767440D01*
X175645000Y-71767440D01*
X175645000Y-83453421D01*
X172865294Y-86233126D01*
X172443339Y-86232758D01*
X171929697Y-86444990D01*
X171536371Y-86837630D01*
X171323243Y-87350900D01*
X171322758Y-87906661D01*
X163956759Y-87906661D01*
X163957128Y-87484452D01*
X166995787Y-84445792D01*
X166995790Y-84445790D01*
X167187633Y-84158675D01*
X167229690Y-83947242D01*
X167255001Y-83820000D01*
X167255000Y-83819995D01*
X167255000Y-71767440D01*
X167640000Y-71767440D01*
X167875317Y-71723162D01*
X168091441Y-71584090D01*
X168236431Y-71371890D01*
X168287440Y-71120000D01*
X168287440Y-70227265D01*
X169544670Y-70227265D01*
X169834078Y-70927686D01*
X170278000Y-71372384D01*
X170278000Y-80993200D01*
X170278005Y-80993226D01*
X170277999Y-80993257D01*
X170312651Y-81167402D01*
X170345367Y-81331875D01*
X170345384Y-81331900D01*
X170345389Y-81331927D01*
X170435895Y-81467360D01*
X170537210Y-81618990D01*
X170537236Y-81619007D01*
X170537251Y-81619030D01*
X171323126Y-82404804D01*
X171322758Y-82826661D01*
X171534990Y-83340303D01*
X171927630Y-83733629D01*
X172440900Y-83946757D01*
X172996661Y-83947242D01*
X173510303Y-83735010D01*
X173903629Y-83342370D01*
X174116757Y-82829100D01*
X174117242Y-82273339D01*
X173905010Y-81759697D01*
X173512370Y-81366371D01*
X172999100Y-81153243D01*
X172574352Y-81152872D01*
X172048000Y-80626588D01*
X172048000Y-78713497D01*
X172512302Y-78879144D01*
X173067368Y-78851362D01*
X173451143Y-78692397D01*
X173520608Y-78450213D01*
X172720000Y-77649605D01*
X172705858Y-77663748D01*
X172526253Y-77484143D01*
X172540395Y-77470000D01*
X172899605Y-77470000D01*
X173700213Y-78270608D01*
X173942397Y-78201143D01*
X174129144Y-77677698D01*
X174101362Y-77122632D01*
X173942397Y-76738857D01*
X173700213Y-76669392D01*
X172899605Y-77470000D01*
X172540395Y-77470000D01*
X172526253Y-77455858D01*
X172705858Y-77276253D01*
X172720000Y-77290395D01*
X173520608Y-76489787D01*
X173451143Y-76247603D01*
X172927698Y-76060856D01*
X172372632Y-76088638D01*
X172048000Y-76223105D01*
X172048000Y-71664124D01*
X172527686Y-71465922D01*
X173064039Y-70930505D01*
X173354668Y-70230590D01*
X173355330Y-69472735D01*
X173065922Y-68772314D01*
X172530505Y-68235961D01*
X171830590Y-67945332D01*
X171072735Y-67944670D01*
X170372314Y-68234078D01*
X169835961Y-68769495D01*
X169545332Y-69469410D01*
X169544670Y-70227265D01*
X168287440Y-70227265D01*
X168287440Y-68580000D01*
X168243162Y-68344683D01*
X168104090Y-68128559D01*
X167891890Y-67983569D01*
X167640000Y-67932560D01*
X165100000Y-67932560D01*
X164864683Y-67976838D01*
X164648559Y-68115910D01*
X164503569Y-68328110D01*
X164452560Y-68580000D01*
X164452560Y-71120000D01*
X164496838Y-71355317D01*
X164635910Y-71571441D01*
X164848110Y-71716431D01*
X165100000Y-71767440D01*
X165485000Y-71767440D01*
X165485000Y-83453421D01*
X162705294Y-86233126D01*
X162283339Y-86232758D01*
X161769697Y-86444990D01*
X161376371Y-86837630D01*
X161163243Y-87350900D01*
X161162758Y-87906661D01*
X153796759Y-87906661D01*
X153797128Y-87484452D01*
X156835787Y-84445792D01*
X156835790Y-84445790D01*
X157027633Y-84158675D01*
X157069690Y-83947242D01*
X157095001Y-83820000D01*
X157095000Y-83819995D01*
X157095000Y-71767440D01*
X157480000Y-71767440D01*
X157715317Y-71723162D01*
X157931441Y-71584090D01*
X158076431Y-71371890D01*
X158127440Y-71120000D01*
X158127440Y-70227265D01*
X159384670Y-70227265D01*
X159674078Y-70927686D01*
X160118000Y-71372384D01*
X160118000Y-80993200D01*
X160118005Y-80993226D01*
X160117999Y-80993257D01*
X160152651Y-81167402D01*
X160185367Y-81331875D01*
X160185384Y-81331900D01*
X160185389Y-81331927D01*
X160275895Y-81467360D01*
X160377210Y-81618990D01*
X160377236Y-81619007D01*
X160377251Y-81619030D01*
X161163126Y-82404804D01*
X161162758Y-82826661D01*
X161374990Y-83340303D01*
X161767630Y-83733629D01*
X162280900Y-83946757D01*
X162836661Y-83947242D01*
X163350303Y-83735010D01*
X163743629Y-83342370D01*
X163956757Y-82829100D01*
X163957242Y-82273339D01*
X163745010Y-81759697D01*
X163352370Y-81366371D01*
X162839100Y-81153243D01*
X162414352Y-81152872D01*
X161888000Y-80626588D01*
X161888000Y-78713497D01*
X162352302Y-78879144D01*
X162907368Y-78851362D01*
X163291143Y-78692397D01*
X163360608Y-78450213D01*
X162560000Y-77649605D01*
X162545858Y-77663748D01*
X162366253Y-77484143D01*
X162380395Y-77470000D01*
X162739605Y-77470000D01*
X163540213Y-78270608D01*
X163782397Y-78201143D01*
X163969144Y-77677698D01*
X163941362Y-77122632D01*
X163782397Y-76738857D01*
X163540213Y-76669392D01*
X162739605Y-77470000D01*
X162380395Y-77470000D01*
X162366253Y-77455858D01*
X162545858Y-77276253D01*
X162560000Y-77290395D01*
X163360608Y-76489787D01*
X163291143Y-76247603D01*
X162767698Y-76060856D01*
X162212632Y-76088638D01*
X161888000Y-76223105D01*
X161888000Y-71664124D01*
X162367686Y-71465922D01*
X162904039Y-70930505D01*
X163194668Y-70230590D01*
X163195330Y-69472735D01*
X162905922Y-68772314D01*
X162370505Y-68235961D01*
X161670590Y-67945332D01*
X160912735Y-67944670D01*
X160212314Y-68234078D01*
X159675961Y-68769495D01*
X159385332Y-69469410D01*
X159384670Y-70227265D01*
X158127440Y-70227265D01*
X158127440Y-68580000D01*
X158083162Y-68344683D01*
X157944090Y-68128559D01*
X157731890Y-67983569D01*
X157480000Y-67932560D01*
X154940000Y-67932560D01*
X154704683Y-67976838D01*
X154488559Y-68115910D01*
X154343569Y-68328110D01*
X154292560Y-68580000D01*
X154292560Y-71120000D01*
X154336838Y-71355317D01*
X154475910Y-71571441D01*
X154688110Y-71716431D01*
X154940000Y-71767440D01*
X155325000Y-71767440D01*
X155325000Y-83453421D01*
X152545294Y-86233126D01*
X152123339Y-86232758D01*
X151609697Y-86444990D01*
X151216371Y-86837630D01*
X151003243Y-87350900D01*
X151002758Y-87906661D01*
X143636759Y-87906661D01*
X143637128Y-87484452D01*
X146675787Y-84445792D01*
X146675790Y-84445790D01*
X146867633Y-84158675D01*
X146909690Y-83947242D01*
X146935001Y-83820000D01*
X146935000Y-83819995D01*
X146935000Y-71767440D01*
X147320000Y-71767440D01*
X147555317Y-71723162D01*
X147771441Y-71584090D01*
X147916431Y-71371890D01*
X147967440Y-71120000D01*
X147967440Y-70227265D01*
X149224670Y-70227265D01*
X149514078Y-70927686D01*
X149958000Y-71372384D01*
X149958000Y-80993200D01*
X149958005Y-80993226D01*
X149957999Y-80993257D01*
X149992651Y-81167402D01*
X150025367Y-81331875D01*
X150025384Y-81331900D01*
X150025389Y-81331927D01*
X150115895Y-81467360D01*
X150217210Y-81618990D01*
X150217236Y-81619007D01*
X150217251Y-81619030D01*
X151003126Y-82404804D01*
X151002758Y-82826661D01*
X151214990Y-83340303D01*
X151607630Y-83733629D01*
X152120900Y-83946757D01*
X152676661Y-83947242D01*
X153190303Y-83735010D01*
X153583629Y-83342370D01*
X153796757Y-82829100D01*
X153797242Y-82273339D01*
X153585010Y-81759697D01*
X153192370Y-81366371D01*
X152679100Y-81153243D01*
X152254352Y-81152872D01*
X151728000Y-80626588D01*
X151728000Y-78713497D01*
X152192302Y-78879144D01*
X152747368Y-78851362D01*
X153131143Y-78692397D01*
X153200608Y-78450213D01*
X152400000Y-77649605D01*
X152385858Y-77663748D01*
X152206253Y-77484143D01*
X152220395Y-77470000D01*
X152579605Y-77470000D01*
X153380213Y-78270608D01*
X153622397Y-78201143D01*
X153809144Y-77677698D01*
X153781362Y-77122632D01*
X153622397Y-76738857D01*
X153380213Y-76669392D01*
X152579605Y-77470000D01*
X152220395Y-77470000D01*
X152206253Y-77455858D01*
X152385858Y-77276253D01*
X152400000Y-77290395D01*
X153200608Y-76489787D01*
X153131143Y-76247603D01*
X152607698Y-76060856D01*
X152052632Y-76088638D01*
X151728000Y-76223105D01*
X151728000Y-71664124D01*
X152207686Y-71465922D01*
X152744039Y-70930505D01*
X153034668Y-70230590D01*
X153035330Y-69472735D01*
X152745922Y-68772314D01*
X152210505Y-68235961D01*
X151510590Y-67945332D01*
X150752735Y-67944670D01*
X150052314Y-68234078D01*
X149515961Y-68769495D01*
X149225332Y-69469410D01*
X149224670Y-70227265D01*
X147967440Y-70227265D01*
X147967440Y-68580000D01*
X147923162Y-68344683D01*
X147784090Y-68128559D01*
X147571890Y-67983569D01*
X147320000Y-67932560D01*
X144780000Y-67932560D01*
X144544683Y-67976838D01*
X144328559Y-68115910D01*
X144183569Y-68328110D01*
X144132560Y-68580000D01*
X144132560Y-71120000D01*
X144176838Y-71355317D01*
X144315910Y-71571441D01*
X144528110Y-71716431D01*
X144780000Y-71767440D01*
X145165000Y-71767440D01*
X145165000Y-83453421D01*
X142385294Y-86233126D01*
X141963339Y-86232758D01*
X141449697Y-86444990D01*
X141056371Y-86837630D01*
X140843243Y-87350900D01*
X140842758Y-87906661D01*
X139140000Y-87906661D01*
X139140000Y-70409578D01*
X139354078Y-70927686D01*
X139829000Y-71403438D01*
X139829000Y-81024100D01*
X139829002Y-81024112D01*
X139828999Y-81024129D01*
X139865203Y-81206104D01*
X139896367Y-81362775D01*
X139896375Y-81362787D01*
X139896378Y-81362801D01*
X139983650Y-81493403D01*
X140088210Y-81649890D01*
X140088224Y-81649899D01*
X140088231Y-81649910D01*
X140843126Y-82404756D01*
X140842758Y-82826661D01*
X141054990Y-83340303D01*
X141447630Y-83733629D01*
X141960900Y-83946757D01*
X142516661Y-83947242D01*
X143030303Y-83735010D01*
X143423629Y-83342370D01*
X143636757Y-82829100D01*
X143637242Y-82273339D01*
X143425010Y-81759697D01*
X143032370Y-81366371D01*
X142519100Y-81153243D01*
X142094401Y-81152872D01*
X141599000Y-80657504D01*
X141599000Y-78724557D01*
X142032302Y-78879144D01*
X142587368Y-78851362D01*
X142971143Y-78692397D01*
X143040608Y-78450213D01*
X142240000Y-77649605D01*
X142225858Y-77663748D01*
X142046253Y-77484143D01*
X142060395Y-77470000D01*
X142419605Y-77470000D01*
X143220213Y-78270608D01*
X143462397Y-78201143D01*
X143649144Y-77677698D01*
X143621362Y-77122632D01*
X143462397Y-76738857D01*
X143220213Y-76669392D01*
X142419605Y-77470000D01*
X142060395Y-77470000D01*
X142046253Y-77455858D01*
X142225858Y-77276253D01*
X142240000Y-77290395D01*
X143040608Y-76489787D01*
X142971143Y-76247603D01*
X142447698Y-76060856D01*
X141892632Y-76088638D01*
X141599000Y-76210265D01*
X141599000Y-71651315D01*
X142047686Y-71465922D01*
X142584039Y-70930505D01*
X142874668Y-70230590D01*
X142875330Y-69472735D01*
X142585922Y-68772314D01*
X142050505Y-68235961D01*
X141350590Y-67945332D01*
X140592735Y-67944670D01*
X139892314Y-68234078D01*
X139355961Y-68769495D01*
X139140000Y-69289589D01*
X139140000Y-66750000D01*
X219000000Y-66750000D01*
X219000000Y-68277607D01*
M02*
