M48
;DRILL file {KiCad 4.0.5-e0-6337~49~ubuntu16.04.1} date Tue Jan 17 08:46:32 2017
;FORMAT={-:-/ absolute / metric / decimal}
FMAT,2
METRIC,TZ
T1C0.400
T2C0.762
T3C0.800
T4C1.000
T5C1.524
%
G90
G05
M71
T1
X165.862Y-106.299
X167.259Y-115.062
X168.021Y-107.569
X168.783Y-119.761
X175.133Y-121.666
X175.895Y-110.871
X191.516Y-120.65
X192.278Y-118.618
X208.661Y-120.015
T2
X142.24Y-77.47
X142.24Y-82.55
X142.24Y-87.63
X142.24Y-92.71
X152.4Y-77.47
X152.4Y-82.55
X152.4Y-87.63
X152.4Y-92.71
X162.56Y-77.47
X162.56Y-82.55
X162.56Y-87.63
X162.56Y-92.71
X172.72Y-77.47
X172.72Y-82.55
X172.72Y-87.63
X172.72Y-92.71
X182.88Y-77.47
X182.88Y-82.55
X182.88Y-87.63
X182.88Y-92.71
X193.04Y-77.47
X193.04Y-82.55
X193.04Y-87.63
X193.04Y-92.71
X203.2Y-77.47
X203.2Y-82.55
X203.2Y-87.63
X203.2Y-92.71
X213.36Y-77.47
X213.36Y-82.55
X213.36Y-87.63
X213.36Y-92.71
T3
X149.265Y-106.68
X149.9Y-120.65
X151.765Y-106.68
X152.4Y-120.65
T4
X180.34Y-116.205
X180.34Y-118.745
X180.34Y-121.285
X182.88Y-116.205
X182.88Y-118.745
X182.88Y-121.285
X191.135Y-110.49
T5
X140.97Y-69.85
X143.51Y-111.76
X143.51Y-116.84
X146.05Y-69.85
X151.13Y-69.85
X156.21Y-69.85
X161.29Y-69.85
X166.37Y-69.85
X171.45Y-69.85
X176.53Y-69.85
X181.61Y-69.85
X186.69Y-69.85
X191.77Y-69.85
X196.85Y-69.85
X201.93Y-69.85
X207.01Y-69.85
X212.09Y-69.85
X217.17Y-69.85
T0
M30
