G04 #@! TF.FileFunction,Copper,L1,Top,Signal*
%FSLAX46Y46*%
G04 Gerber Fmt 4.6, Leading zero omitted, Abs format (unit mm)*
G04 Created by KiCad (PCBNEW 4.0.5-e0-6337~49~ubuntu16.04.1) date Tue Jan 17 08:46:27 2017*
%MOMM*%
%LPD*%
G01*
G04 APERTURE LIST*
%ADD10C,0.100000*%
%ADD11R,1.600000X0.550000*%
%ADD12R,0.550000X1.600000*%
%ADD13R,2.540000X2.540000*%
%ADD14C,2.540000*%
%ADD15R,1.700000X1.700000*%
%ADD16O,1.700000X1.700000*%
%ADD17C,1.524000*%
%ADD18R,2.000000X3.800000*%
%ADD19R,2.000000X1.500000*%
%ADD20R,3.000000X1.200000*%
%ADD21R,0.508000X1.143000*%
%ADD22R,1.300000X1.300000*%
%ADD23C,1.300000*%
%ADD24R,0.900000X1.200000*%
%ADD25C,0.600000*%
%ADD26C,0.250000*%
%ADD27C,0.500000*%
%ADD28C,0.254000*%
G04 APERTURE END LIST*
D10*
D11*
X163390000Y-114675000D03*
X163390000Y-115475000D03*
X163390000Y-116275000D03*
X163390000Y-117075000D03*
X163390000Y-117875000D03*
X163390000Y-118675000D03*
X163390000Y-119475000D03*
X163390000Y-120275000D03*
D12*
X164840000Y-121725000D03*
X165640000Y-121725000D03*
X166440000Y-121725000D03*
X167240000Y-121725000D03*
X168040000Y-121725000D03*
X168840000Y-121725000D03*
X169640000Y-121725000D03*
X170440000Y-121725000D03*
D11*
X171890000Y-120275000D03*
X171890000Y-119475000D03*
X171890000Y-118675000D03*
X171890000Y-117875000D03*
X171890000Y-117075000D03*
X171890000Y-116275000D03*
X171890000Y-115475000D03*
X171890000Y-114675000D03*
D12*
X170440000Y-113225000D03*
X169640000Y-113225000D03*
X168840000Y-113225000D03*
X168040000Y-113225000D03*
X167240000Y-113225000D03*
X166440000Y-113225000D03*
X165640000Y-113225000D03*
X164840000Y-113225000D03*
D13*
X143510000Y-111760000D03*
D14*
X143510000Y-116840000D03*
D15*
X191135000Y-110490000D03*
X182880000Y-121285000D03*
D16*
X180340000Y-121285000D03*
X182880000Y-118745000D03*
X180340000Y-118745000D03*
X182880000Y-116205000D03*
X180340000Y-116205000D03*
D13*
X146050000Y-69850000D03*
D14*
X140970000Y-69850000D03*
D13*
X156210000Y-69850000D03*
D14*
X151130000Y-69850000D03*
D13*
X166370000Y-69850000D03*
D14*
X161290000Y-69850000D03*
D13*
X176530000Y-69850000D03*
D14*
X171450000Y-69850000D03*
D13*
X186690000Y-69850000D03*
D14*
X181610000Y-69850000D03*
D13*
X196850000Y-69850000D03*
D14*
X191770000Y-69850000D03*
D13*
X207010000Y-69850000D03*
D14*
X201930000Y-69850000D03*
D13*
X217170000Y-69850000D03*
D14*
X212090000Y-69850000D03*
D17*
X142240000Y-92710000D03*
X142240000Y-87630000D03*
X142240000Y-82550000D03*
X142240000Y-77470000D03*
X152400000Y-92710000D03*
X152400000Y-87630000D03*
X152400000Y-82550000D03*
X152400000Y-77470000D03*
X162560000Y-92710000D03*
X162560000Y-87630000D03*
X162560000Y-82550000D03*
X162560000Y-77470000D03*
X172720000Y-92710000D03*
X172720000Y-87630000D03*
X172720000Y-82550000D03*
X172720000Y-77470000D03*
X182880000Y-92710000D03*
X182880000Y-87630000D03*
X182880000Y-82550000D03*
X182880000Y-77470000D03*
X193040000Y-92710000D03*
X193040000Y-87630000D03*
X193040000Y-82550000D03*
X193040000Y-77470000D03*
X203200000Y-92710000D03*
X203200000Y-87630000D03*
X203200000Y-82550000D03*
X203200000Y-77470000D03*
X213360000Y-92710000D03*
X213360000Y-87630000D03*
X213360000Y-82550000D03*
X213360000Y-77470000D03*
D18*
X158090000Y-114300000D03*
D19*
X151790000Y-114300000D03*
X151790000Y-116600000D03*
X151790000Y-112000000D03*
D20*
X215395000Y-122555000D03*
X215395000Y-120555000D03*
X215395000Y-118555000D03*
X215395000Y-116555000D03*
X215395000Y-114555000D03*
X215395000Y-112555000D03*
X215395000Y-110555000D03*
X215395000Y-108555000D03*
X195695000Y-108555000D03*
X195695000Y-110555000D03*
X195695000Y-112555000D03*
X195695000Y-114555000D03*
X195695000Y-116555000D03*
X195695000Y-118555000D03*
X195695000Y-120555000D03*
X195695000Y-122555000D03*
D21*
X179705000Y-109220000D03*
X177165000Y-109220000D03*
X175895000Y-109220000D03*
X174625000Y-109220000D03*
X173355000Y-109220000D03*
X172085000Y-109220000D03*
X170815000Y-109220000D03*
X170815000Y-102870000D03*
X172085000Y-102870000D03*
X173355000Y-102870000D03*
X174625000Y-102870000D03*
X175895000Y-102870000D03*
X177165000Y-102870000D03*
X178435000Y-102870000D03*
X179705000Y-102870000D03*
X178435000Y-109220000D03*
D22*
X152400000Y-120650000D03*
D23*
X149900000Y-120650000D03*
D22*
X151765000Y-106680000D03*
D23*
X149265000Y-106680000D03*
D24*
X142495000Y-97155000D03*
X145795000Y-97155000D03*
X152655000Y-97155000D03*
X155955000Y-97155000D03*
X162815000Y-97155000D03*
X166115000Y-97155000D03*
X172975000Y-97155000D03*
X176275000Y-97155000D03*
X183135000Y-97155000D03*
X186435000Y-97155000D03*
X193295000Y-97155000D03*
X196595000Y-97155000D03*
X203455000Y-97155000D03*
X206755000Y-97155000D03*
X213615000Y-97155000D03*
X216915000Y-97155000D03*
D25*
X175895000Y-110871000D03*
X168783000Y-119761000D03*
X191516000Y-120650000D03*
X192278000Y-118618000D03*
X175133000Y-121666000D03*
X167259000Y-115062000D03*
X165862000Y-106299000D03*
X208661000Y-120015000D03*
X168021000Y-107569000D03*
D26*
X175895000Y-109220000D02*
X175895000Y-110871000D01*
X171890000Y-117075000D02*
X174390000Y-117075000D01*
X175260000Y-116205000D02*
X180340000Y-116205000D01*
X174390000Y-117075000D02*
X175260000Y-116205000D01*
X163390000Y-117875000D02*
X166605000Y-117875000D01*
X166605000Y-117875000D02*
X167405000Y-117075000D01*
X171890000Y-117075000D02*
X167405000Y-117075000D01*
X167405000Y-117075000D02*
X167240000Y-117075000D01*
X166440000Y-116275000D02*
X163390000Y-116275000D01*
X167240000Y-117075000D02*
X166440000Y-116275000D01*
X181483000Y-123835100D02*
X162697100Y-123835100D01*
X162697100Y-123835100D02*
X161671000Y-122809000D01*
X163390000Y-118675000D02*
X162236000Y-118675000D01*
X162236000Y-118675000D02*
X160655000Y-117094000D01*
X151790000Y-114300000D02*
X153162000Y-114300000D01*
X153162000Y-114300000D02*
X155956000Y-117094000D01*
X155956000Y-117094000D02*
X160655000Y-117094000D01*
X160655000Y-117094000D02*
X163371000Y-117094000D01*
X163371000Y-117094000D02*
X163390000Y-117075000D01*
X153162000Y-114300000D02*
X161671000Y-122809000D01*
X180340000Y-121285000D02*
X180340000Y-123835100D01*
X180594000Y-123825000D02*
X180594000Y-123835100D01*
X180340000Y-123835100D02*
X180350100Y-123825000D01*
X180350100Y-123825000D02*
X180594000Y-123825000D01*
X180594000Y-123835100D02*
X181483000Y-123835100D01*
X181483000Y-123835100D02*
X199887900Y-123835100D01*
X215395000Y-108555000D02*
X213569700Y-108555000D01*
X213569700Y-108555000D02*
X211201000Y-110923700D01*
X199887900Y-123835100D02*
X211201000Y-112522000D01*
X211201000Y-112522000D02*
X211201000Y-110923700D01*
X151765000Y-106680000D02*
X151765000Y-107655300D01*
X151790000Y-114300000D02*
X153002700Y-114300000D01*
X153002700Y-114300000D02*
X153115300Y-114300000D01*
X153115300Y-109005600D02*
X151765000Y-107655300D01*
X153115300Y-114300000D02*
X153115300Y-109005600D01*
X168840000Y-121725000D02*
X168840000Y-119818000D01*
X168840000Y-119818000D02*
X168783000Y-119761000D01*
X191611000Y-120555000D02*
X195695000Y-120555000D01*
X191516000Y-120650000D02*
X191611000Y-120555000D01*
X169640000Y-121725000D02*
X169640000Y-122777000D01*
X174719700Y-123190000D02*
X175059400Y-122850300D01*
X170053000Y-123190000D02*
X174719700Y-123190000D01*
X169640000Y-122777000D02*
X170053000Y-123190000D01*
X195695000Y-118555000D02*
X192341000Y-118555000D01*
X192341000Y-118555000D02*
X192278000Y-118618000D01*
X179164700Y-118745000D02*
X175059400Y-122850300D01*
X180340000Y-118745000D02*
X179164700Y-118745000D01*
X182880000Y-121285000D02*
X185293000Y-121285000D01*
X190023000Y-116555000D02*
X195695000Y-116555000D01*
X185293000Y-121285000D02*
X190023000Y-116555000D01*
X170440000Y-121725000D02*
X175074000Y-121725000D01*
X175074000Y-121725000D02*
X175133000Y-121666000D01*
X188245300Y-114555000D02*
X184055300Y-118745000D01*
X195695000Y-114555000D02*
X188245300Y-114555000D01*
X182880000Y-118745000D02*
X183467700Y-118745000D01*
X183467700Y-118745000D02*
X184055300Y-118745000D01*
X175735900Y-117554400D02*
X173015300Y-120275000D01*
X182277100Y-117554400D02*
X175735900Y-117554400D01*
X183467700Y-118745000D02*
X182277100Y-117554400D01*
X171890000Y-120275000D02*
X173015300Y-120275000D01*
X171450000Y-113225000D02*
X171509000Y-113225000D01*
X171509000Y-113225000D02*
X173355000Y-111379000D01*
X170440000Y-113225000D02*
X171450000Y-113225000D01*
X173355000Y-111379000D02*
X173355000Y-109220000D01*
X171890000Y-114675000D02*
X173488000Y-114675000D01*
X174625000Y-113538000D02*
X174625000Y-109220000D01*
X173488000Y-114675000D02*
X174625000Y-113538000D01*
X171890000Y-115475000D02*
X174085000Y-115475000D01*
X177165000Y-112395000D02*
X177165000Y-109220000D01*
X174085000Y-115475000D02*
X177165000Y-112395000D01*
X167240000Y-115043000D02*
X167240000Y-113225000D01*
X167259000Y-115062000D02*
X167240000Y-115043000D01*
X167259000Y-113206000D02*
X167240000Y-113225000D01*
X164840000Y-110109000D02*
X164840000Y-107321000D01*
X164840000Y-107321000D02*
X165862000Y-106299000D01*
X215395000Y-120555000D02*
X209201000Y-120555000D01*
X209201000Y-120555000D02*
X208661000Y-120015000D01*
X164840000Y-110109000D02*
X164840000Y-113225000D01*
D27*
X172085000Y-107315000D02*
X168275000Y-107315000D01*
X168275000Y-107315000D02*
X168021000Y-107569000D01*
X179705000Y-109220000D02*
X179705000Y-107569000D01*
X172085000Y-107315000D02*
X172085000Y-109220000D01*
X179451000Y-107315000D02*
X172085000Y-107315000D01*
X179705000Y-107569000D02*
X179451000Y-107315000D01*
X151790000Y-116600000D02*
X151790000Y-117350100D01*
X152400000Y-120650000D02*
X152400000Y-119249700D01*
X152400000Y-119249700D02*
X151790000Y-118639700D01*
X151790000Y-118639700D02*
X151790000Y-117350100D01*
X144655100Y-117350100D02*
X144145000Y-116840000D01*
X151790000Y-117350100D02*
X144655100Y-117350100D01*
X192800300Y-110555000D02*
X192735300Y-110490000D01*
X195695000Y-110555000D02*
X192800300Y-110555000D01*
X191135000Y-110490000D02*
X192735300Y-110490000D01*
D26*
X142495000Y-97155000D02*
X142495000Y-97664000D01*
X142495000Y-97664000D02*
X145542000Y-100711000D01*
X172085000Y-101473000D02*
X172085000Y-102870000D01*
X171323000Y-100711000D02*
X172085000Y-101473000D01*
X145542000Y-100711000D02*
X171323000Y-100711000D01*
X142495000Y-92965000D02*
X142240000Y-92710000D01*
X142495000Y-97155000D02*
X142495000Y-92965000D01*
X142495000Y-97155000D02*
X142882500Y-97155000D01*
X142882500Y-97155000D02*
X143270000Y-97155000D01*
X157226000Y-99822000D02*
X155322000Y-99822000D01*
X155322000Y-99822000D02*
X152655000Y-97155000D01*
X173355000Y-102870000D02*
X173355000Y-101092000D01*
X172085000Y-99822000D02*
X157226000Y-99822000D01*
X173355000Y-101092000D02*
X172085000Y-99822000D01*
X152655000Y-97155000D02*
X152655000Y-95371900D01*
X152655000Y-92965000D02*
X152400000Y-92710000D01*
X152655000Y-95371900D02*
X152655000Y-92965000D01*
X164973000Y-98806000D02*
X164466000Y-98806000D01*
X164466000Y-98806000D02*
X162815000Y-97155000D01*
X174625000Y-102870000D02*
X174625000Y-100457000D01*
X172974000Y-98806000D02*
X164973000Y-98806000D01*
X174625000Y-100457000D02*
X172974000Y-98806000D01*
X162815000Y-97155000D02*
X162815000Y-96804900D01*
X162815000Y-92965000D02*
X162560000Y-92710000D01*
X162815000Y-96804900D02*
X162815000Y-92965000D01*
X172975000Y-97155000D02*
X172975000Y-97156000D01*
X172975000Y-97156000D02*
X175895000Y-100076000D01*
X172975000Y-92965000D02*
X172720000Y-92710000D01*
X172975000Y-97155000D02*
X172975000Y-92965000D01*
X175895000Y-100076000D02*
X175895000Y-102870000D01*
X177165000Y-102870000D02*
X177165000Y-101981000D01*
X181991000Y-97155000D02*
X183135000Y-97155000D01*
X177165000Y-101981000D02*
X181991000Y-97155000D01*
X182747000Y-97155000D02*
X183135000Y-97155000D01*
X182747000Y-95411800D02*
X182747000Y-97155000D01*
X182747000Y-92842600D02*
X182747000Y-95411800D01*
X182880000Y-92710000D02*
X182747000Y-92842600D01*
X192907000Y-92842600D02*
X193040000Y-92710000D01*
X192907000Y-97155000D02*
X192907000Y-92842600D01*
X193076000Y-97155000D02*
X192907000Y-97155000D01*
X193295000Y-97155000D02*
X193076000Y-97155000D01*
X179464800Y-100943400D02*
X178435000Y-101973200D01*
X189287600Y-100943400D02*
X179464800Y-100943400D01*
X193076000Y-97155000D02*
X189287600Y-100943400D01*
X178435000Y-102870000D02*
X178435000Y-101973200D01*
X203455000Y-97155000D02*
X203261000Y-97155000D01*
X203067000Y-92842600D02*
X203200000Y-92710000D01*
X203067000Y-97155000D02*
X203067000Y-92842600D01*
X203261000Y-97155000D02*
X203067000Y-97155000D01*
X198442800Y-101973200D02*
X179705000Y-101973200D01*
X203261000Y-97155000D02*
X198442800Y-101973200D01*
X179705000Y-102870000D02*
X179705000Y-101973200D01*
X178435000Y-110363000D02*
X178816000Y-110744000D01*
X178435000Y-109220000D02*
X178435000Y-110363000D01*
X185547000Y-105791000D02*
X204760000Y-105791000D01*
X180594000Y-110744000D02*
X185547000Y-105791000D01*
X178816000Y-110744000D02*
X180594000Y-110744000D01*
X213227000Y-92842600D02*
X213360000Y-92710000D01*
X213227000Y-97155000D02*
X213227000Y-92842600D01*
X213396000Y-97155000D02*
X213227000Y-97155000D01*
X213615000Y-97155000D02*
X213396000Y-97155000D01*
X213396000Y-97155000D02*
X204760000Y-105791000D01*
D28*
G36*
X219000000Y-68277607D02*
X218904090Y-68128559D01*
X218691890Y-67983569D01*
X218440000Y-67932560D01*
X215900000Y-67932560D01*
X215664683Y-67976838D01*
X215448559Y-68115910D01*
X215303569Y-68328110D01*
X215252560Y-68580000D01*
X215252560Y-71120000D01*
X215296838Y-71355317D01*
X215435910Y-71571441D01*
X215648110Y-71716431D01*
X215900000Y-71767440D01*
X218440000Y-71767440D01*
X218675317Y-71723162D01*
X218891441Y-71584090D01*
X219000000Y-71425209D01*
X219000000Y-125020000D01*
X139140000Y-125020000D01*
X139140000Y-121549016D01*
X149180590Y-121549016D01*
X149236271Y-121779611D01*
X149719078Y-121947622D01*
X150229428Y-121918083D01*
X150563729Y-121779611D01*
X150619410Y-121549016D01*
X149900000Y-120829605D01*
X149180590Y-121549016D01*
X139140000Y-121549016D01*
X139140000Y-120469078D01*
X148602378Y-120469078D01*
X148631917Y-120979428D01*
X148770389Y-121313729D01*
X149000984Y-121369410D01*
X149720395Y-120650000D01*
X149000984Y-119930590D01*
X148770389Y-119986271D01*
X148602378Y-120469078D01*
X139140000Y-120469078D01*
X139140000Y-119750984D01*
X149180590Y-119750984D01*
X149900000Y-120470395D01*
X150619410Y-119750984D01*
X150563729Y-119520389D01*
X150080922Y-119352378D01*
X149570572Y-119381917D01*
X149236271Y-119520389D01*
X149180590Y-119750984D01*
X139140000Y-119750984D01*
X139140000Y-117217265D01*
X141604670Y-117217265D01*
X141894078Y-117917686D01*
X142429495Y-118454039D01*
X143129410Y-118744668D01*
X143887265Y-118745330D01*
X144587686Y-118455922D01*
X144808894Y-118235100D01*
X150905000Y-118235100D01*
X150905000Y-118639695D01*
X150904999Y-118639700D01*
X150946004Y-118845839D01*
X150972367Y-118978375D01*
X151140946Y-119230673D01*
X151164210Y-119265490D01*
X151381354Y-119482633D01*
X151298559Y-119535910D01*
X151153569Y-119748110D01*
X151102560Y-120000000D01*
X151102560Y-120162385D01*
X151029611Y-119986271D01*
X150799016Y-119930590D01*
X150079605Y-120650000D01*
X150799016Y-121369410D01*
X151029611Y-121313729D01*
X151102560Y-121104098D01*
X151102560Y-121300000D01*
X151146838Y-121535317D01*
X151285910Y-121751441D01*
X151498110Y-121896431D01*
X151750000Y-121947440D01*
X153050000Y-121947440D01*
X153285317Y-121903162D01*
X153501441Y-121764090D01*
X153646431Y-121551890D01*
X153697440Y-121300000D01*
X153697440Y-120000000D01*
X153653162Y-119764683D01*
X153514090Y-119548559D01*
X153301890Y-119403569D01*
X153285000Y-119400149D01*
X153285000Y-119249705D01*
X153285001Y-119249700D01*
X153217633Y-118911025D01*
X153174077Y-118845839D01*
X153025790Y-118623910D01*
X153025787Y-118623908D01*
X152675000Y-118273120D01*
X152675000Y-117997440D01*
X152790000Y-117997440D01*
X153025317Y-117953162D01*
X153241441Y-117814090D01*
X153386431Y-117601890D01*
X153437440Y-117350000D01*
X153437440Y-115850000D01*
X153393162Y-115614683D01*
X153377425Y-115590227D01*
X162159699Y-124372501D01*
X162406261Y-124537248D01*
X162697100Y-124595100D01*
X199887900Y-124595100D01*
X200178739Y-124537248D01*
X200425301Y-124372501D01*
X211738401Y-113059401D01*
X211903148Y-112812840D01*
X211928410Y-112685839D01*
X211961000Y-112522000D01*
X211961000Y-111238502D01*
X213248337Y-109951165D01*
X213247560Y-109955000D01*
X213247560Y-111155000D01*
X213291838Y-111390317D01*
X213398759Y-111556477D01*
X213298569Y-111703110D01*
X213247560Y-111955000D01*
X213247560Y-113155000D01*
X213291838Y-113390317D01*
X213398759Y-113556477D01*
X213298569Y-113703110D01*
X213247560Y-113955000D01*
X213247560Y-115155000D01*
X213291838Y-115390317D01*
X213398759Y-115556477D01*
X213298569Y-115703110D01*
X213247560Y-115955000D01*
X213247560Y-117155000D01*
X213291838Y-117390317D01*
X213398759Y-117556477D01*
X213298569Y-117703110D01*
X213247560Y-117955000D01*
X213247560Y-119155000D01*
X213291838Y-119390317D01*
X213398759Y-119556477D01*
X213298569Y-119703110D01*
X213279961Y-119795000D01*
X209581769Y-119795000D01*
X209454117Y-119486057D01*
X209191327Y-119222808D01*
X208847799Y-119080162D01*
X208475833Y-119079838D01*
X208132057Y-119221883D01*
X207868808Y-119484673D01*
X207726162Y-119828201D01*
X207725838Y-120200167D01*
X207867883Y-120543943D01*
X208130673Y-120807192D01*
X208474201Y-120949838D01*
X208521077Y-120949879D01*
X208663599Y-121092401D01*
X208910160Y-121257148D01*
X209201000Y-121315000D01*
X213277666Y-121315000D01*
X213291838Y-121390317D01*
X213398759Y-121556477D01*
X213298569Y-121703110D01*
X213247560Y-121955000D01*
X213247560Y-123155000D01*
X213291838Y-123390317D01*
X213430910Y-123606441D01*
X213643110Y-123751431D01*
X213895000Y-123802440D01*
X216895000Y-123802440D01*
X217130317Y-123758162D01*
X217346441Y-123619090D01*
X217491431Y-123406890D01*
X217542440Y-123155000D01*
X217542440Y-121955000D01*
X217498162Y-121719683D01*
X217391241Y-121553523D01*
X217491431Y-121406890D01*
X217542440Y-121155000D01*
X217542440Y-119955000D01*
X217498162Y-119719683D01*
X217391241Y-119553523D01*
X217491431Y-119406890D01*
X217542440Y-119155000D01*
X217542440Y-117955000D01*
X217498162Y-117719683D01*
X217391241Y-117553523D01*
X217491431Y-117406890D01*
X217542440Y-117155000D01*
X217542440Y-115955000D01*
X217498162Y-115719683D01*
X217391241Y-115553523D01*
X217491431Y-115406890D01*
X217542440Y-115155000D01*
X217542440Y-113955000D01*
X217498162Y-113719683D01*
X217391241Y-113553523D01*
X217491431Y-113406890D01*
X217542440Y-113155000D01*
X217542440Y-111955000D01*
X217498162Y-111719683D01*
X217391241Y-111553523D01*
X217491431Y-111406890D01*
X217542440Y-111155000D01*
X217542440Y-109955000D01*
X217498162Y-109719683D01*
X217391241Y-109553523D01*
X217491431Y-109406890D01*
X217542440Y-109155000D01*
X217542440Y-107955000D01*
X217498162Y-107719683D01*
X217359090Y-107503559D01*
X217146890Y-107358569D01*
X216895000Y-107307560D01*
X213895000Y-107307560D01*
X213659683Y-107351838D01*
X213443559Y-107490910D01*
X213298569Y-107703110D01*
X213266584Y-107861055D01*
X213032299Y-108017599D01*
X210663599Y-110386299D01*
X210498852Y-110632861D01*
X210441000Y-110923700D01*
X210441000Y-112207198D01*
X199573098Y-123075100D01*
X197842440Y-123075100D01*
X197842440Y-121955000D01*
X197798162Y-121719683D01*
X197691241Y-121553523D01*
X197791431Y-121406890D01*
X197842440Y-121155000D01*
X197842440Y-119955000D01*
X197798162Y-119719683D01*
X197691241Y-119553523D01*
X197791431Y-119406890D01*
X197842440Y-119155000D01*
X197842440Y-117955000D01*
X197798162Y-117719683D01*
X197691241Y-117553523D01*
X197791431Y-117406890D01*
X197842440Y-117155000D01*
X197842440Y-115955000D01*
X197798162Y-115719683D01*
X197691241Y-115553523D01*
X197791431Y-115406890D01*
X197842440Y-115155000D01*
X197842440Y-113955000D01*
X197798162Y-113719683D01*
X197692518Y-113555508D01*
X197733327Y-113514699D01*
X197830000Y-113281310D01*
X197830000Y-112840750D01*
X197671250Y-112682000D01*
X195822000Y-112682000D01*
X195822000Y-112702000D01*
X195568000Y-112702000D01*
X195568000Y-112682000D01*
X193718750Y-112682000D01*
X193560000Y-112840750D01*
X193560000Y-113281310D01*
X193656673Y-113514699D01*
X193698634Y-113556660D01*
X193598569Y-113703110D01*
X193579961Y-113795000D01*
X188245300Y-113795000D01*
X187954461Y-113852852D01*
X187707899Y-114017599D01*
X183987748Y-117737750D01*
X183959147Y-117694946D01*
X183629974Y-117475000D01*
X183959147Y-117255054D01*
X184281054Y-116773285D01*
X184394093Y-116205000D01*
X184281054Y-115636715D01*
X183959147Y-115154946D01*
X183477378Y-114833039D01*
X182909093Y-114720000D01*
X182850907Y-114720000D01*
X182282622Y-114833039D01*
X181800853Y-115154946D01*
X181611655Y-115438101D01*
X181611645Y-115438076D01*
X181221358Y-115009817D01*
X180696892Y-114763514D01*
X180467000Y-114884181D01*
X180467000Y-116078000D01*
X180487000Y-116078000D01*
X180487000Y-116332000D01*
X180467000Y-116332000D01*
X180467000Y-116352000D01*
X180213000Y-116352000D01*
X180213000Y-116332000D01*
X179019845Y-116332000D01*
X178898524Y-116561890D01*
X178994827Y-116794400D01*
X175735900Y-116794400D01*
X175493314Y-116842654D01*
X175445060Y-116852252D01*
X175198499Y-117016999D01*
X173337440Y-118878058D01*
X173337440Y-118400000D01*
X173313056Y-118270411D01*
X173337440Y-118150000D01*
X173337440Y-117600000D01*
X173317550Y-117494295D01*
X173325000Y-117476310D01*
X173325000Y-117360750D01*
X173228599Y-117264349D01*
X173154090Y-117148559D01*
X173046603Y-117075116D01*
X173141441Y-117014090D01*
X173230495Y-116883755D01*
X173325000Y-116789250D01*
X173325000Y-116673690D01*
X173316532Y-116653247D01*
X173337440Y-116550000D01*
X173337440Y-116235000D01*
X174085000Y-116235000D01*
X174375839Y-116177148D01*
X174622401Y-116012401D01*
X174786692Y-115848110D01*
X178898524Y-115848110D01*
X179019845Y-116078000D01*
X180213000Y-116078000D01*
X180213000Y-114884181D01*
X179983108Y-114763514D01*
X179458642Y-115009817D01*
X179068355Y-115438076D01*
X178898524Y-115848110D01*
X174786692Y-115848110D01*
X177702401Y-112932401D01*
X177867148Y-112685839D01*
X177925000Y-112395000D01*
X177925000Y-110927802D01*
X178278599Y-111281401D01*
X178525160Y-111446148D01*
X178816000Y-111504000D01*
X180594000Y-111504000D01*
X180884839Y-111446148D01*
X181131401Y-111281401D01*
X182772802Y-109640000D01*
X189637560Y-109640000D01*
X189637560Y-111340000D01*
X189681838Y-111575317D01*
X189820910Y-111791441D01*
X190033110Y-111936431D01*
X190285000Y-111987440D01*
X191985000Y-111987440D01*
X192220317Y-111943162D01*
X192436441Y-111804090D01*
X192581431Y-111591890D01*
X192619473Y-111404032D01*
X192800300Y-111440001D01*
X192800305Y-111440000D01*
X193623808Y-111440000D01*
X193697482Y-111554492D01*
X193656673Y-111595301D01*
X193560000Y-111828690D01*
X193560000Y-112269250D01*
X193718750Y-112428000D01*
X195568000Y-112428000D01*
X195568000Y-112408000D01*
X195822000Y-112408000D01*
X195822000Y-112428000D01*
X197671250Y-112428000D01*
X197830000Y-112269250D01*
X197830000Y-111828690D01*
X197733327Y-111595301D01*
X197691366Y-111553340D01*
X197791431Y-111406890D01*
X197842440Y-111155000D01*
X197842440Y-109955000D01*
X197798162Y-109719683D01*
X197692518Y-109555508D01*
X197733327Y-109514699D01*
X197830000Y-109281310D01*
X197830000Y-108840750D01*
X197671250Y-108682000D01*
X195822000Y-108682000D01*
X195822000Y-108702000D01*
X195568000Y-108702000D01*
X195568000Y-108682000D01*
X193718750Y-108682000D01*
X193560000Y-108840750D01*
X193560000Y-109281310D01*
X193656673Y-109514699D01*
X193698634Y-109556660D01*
X193621192Y-109670000D01*
X193062075Y-109670000D01*
X193017784Y-109661190D01*
X192735300Y-109604999D01*
X192735295Y-109605000D01*
X192625854Y-109605000D01*
X192588162Y-109404683D01*
X192449090Y-109188559D01*
X192236890Y-109043569D01*
X191985000Y-108992560D01*
X190285000Y-108992560D01*
X190049683Y-109036838D01*
X189833559Y-109175910D01*
X189688569Y-109388110D01*
X189637560Y-109640000D01*
X182772802Y-109640000D01*
X184584112Y-107828690D01*
X193560000Y-107828690D01*
X193560000Y-108269250D01*
X193718750Y-108428000D01*
X195568000Y-108428000D01*
X195568000Y-107478750D01*
X195822000Y-107478750D01*
X195822000Y-108428000D01*
X197671250Y-108428000D01*
X197830000Y-108269250D01*
X197830000Y-107828690D01*
X197733327Y-107595301D01*
X197554698Y-107416673D01*
X197321309Y-107320000D01*
X195980750Y-107320000D01*
X195822000Y-107478750D01*
X195568000Y-107478750D01*
X195409250Y-107320000D01*
X194068691Y-107320000D01*
X193835302Y-107416673D01*
X193656673Y-107595301D01*
X193560000Y-107828690D01*
X184584112Y-107828690D01*
X185861802Y-106551000D01*
X204760000Y-106551000D01*
X205050839Y-106493148D01*
X205297401Y-106328401D01*
X213223362Y-98402440D01*
X214065000Y-98402440D01*
X214300317Y-98358162D01*
X214516441Y-98219090D01*
X214661431Y-98006890D01*
X214712440Y-97755000D01*
X214712440Y-97440750D01*
X215830000Y-97440750D01*
X215830000Y-97881310D01*
X215926673Y-98114699D01*
X216105302Y-98293327D01*
X216338691Y-98390000D01*
X216629250Y-98390000D01*
X216788000Y-98231250D01*
X216788000Y-97282000D01*
X217042000Y-97282000D01*
X217042000Y-98231250D01*
X217200750Y-98390000D01*
X217491309Y-98390000D01*
X217724698Y-98293327D01*
X217903327Y-98114699D01*
X218000000Y-97881310D01*
X218000000Y-97440750D01*
X217841250Y-97282000D01*
X217042000Y-97282000D01*
X216788000Y-97282000D01*
X215988750Y-97282000D01*
X215830000Y-97440750D01*
X214712440Y-97440750D01*
X214712440Y-96555000D01*
X214688674Y-96428690D01*
X215830000Y-96428690D01*
X215830000Y-96869250D01*
X215988750Y-97028000D01*
X216788000Y-97028000D01*
X216788000Y-96078750D01*
X217042000Y-96078750D01*
X217042000Y-97028000D01*
X217841250Y-97028000D01*
X218000000Y-96869250D01*
X218000000Y-96428690D01*
X217903327Y-96195301D01*
X217724698Y-96016673D01*
X217491309Y-95920000D01*
X217200750Y-95920000D01*
X217042000Y-96078750D01*
X216788000Y-96078750D01*
X216629250Y-95920000D01*
X216338691Y-95920000D01*
X216105302Y-96016673D01*
X215926673Y-96195301D01*
X215830000Y-96428690D01*
X214688674Y-96428690D01*
X214668162Y-96319683D01*
X214529090Y-96103559D01*
X214316890Y-95958569D01*
X214065000Y-95907560D01*
X213987000Y-95907560D01*
X213987000Y-93962485D01*
X214150303Y-93895010D01*
X214543629Y-93502370D01*
X214756757Y-92989100D01*
X214757242Y-92433339D01*
X214545010Y-91919697D01*
X214152370Y-91526371D01*
X213639100Y-91313243D01*
X213083339Y-91312758D01*
X212569697Y-91524990D01*
X212176371Y-91917630D01*
X211963243Y-92430900D01*
X211962758Y-92986661D01*
X212174990Y-93500303D01*
X212467000Y-93792823D01*
X212467000Y-97009198D01*
X204445198Y-105031000D01*
X185547000Y-105031000D01*
X185256161Y-105088852D01*
X185009599Y-105253599D01*
X180606440Y-109656758D01*
X180606440Y-108648500D01*
X180590000Y-108561129D01*
X180590000Y-107569005D01*
X180590001Y-107569000D01*
X180522633Y-107230325D01*
X180330790Y-106943210D01*
X180330787Y-106943208D01*
X180076790Y-106689210D01*
X179928071Y-106589840D01*
X179789675Y-106497367D01*
X179731519Y-106485799D01*
X179451000Y-106429999D01*
X179450995Y-106430000D01*
X168275005Y-106430000D01*
X168275000Y-106429999D01*
X167957535Y-106493148D01*
X167936325Y-106497367D01*
X167649210Y-106689210D01*
X167649208Y-106689213D01*
X167612166Y-106726255D01*
X167492057Y-106775883D01*
X167228808Y-107038673D01*
X167086162Y-107382201D01*
X167085838Y-107754167D01*
X167227883Y-108097943D01*
X167490673Y-108361192D01*
X167834201Y-108503838D01*
X168206167Y-108504162D01*
X168549943Y-108362117D01*
X168712343Y-108200000D01*
X170098907Y-108200000D01*
X169964569Y-108396610D01*
X169913560Y-108648500D01*
X169913560Y-109791500D01*
X169957838Y-110026817D01*
X170096910Y-110242941D01*
X170309110Y-110387931D01*
X170561000Y-110438940D01*
X171069000Y-110438940D01*
X171304317Y-110394662D01*
X171450907Y-110300334D01*
X171579110Y-110387931D01*
X171831000Y-110438940D01*
X172339000Y-110438940D01*
X172574317Y-110394662D01*
X172595000Y-110381353D01*
X172595000Y-111064198D01*
X171342131Y-112317067D01*
X171318162Y-112189683D01*
X171179090Y-111973559D01*
X170966890Y-111828569D01*
X170715000Y-111777560D01*
X170165000Y-111777560D01*
X170035411Y-111801944D01*
X169915000Y-111777560D01*
X169365000Y-111777560D01*
X169235411Y-111801944D01*
X169115000Y-111777560D01*
X168565000Y-111777560D01*
X168435411Y-111801944D01*
X168315000Y-111777560D01*
X167765000Y-111777560D01*
X167635411Y-111801944D01*
X167515000Y-111777560D01*
X166965000Y-111777560D01*
X166835411Y-111801944D01*
X166715000Y-111777560D01*
X166165000Y-111777560D01*
X166035411Y-111801944D01*
X165915000Y-111777560D01*
X165600000Y-111777560D01*
X165600000Y-107635802D01*
X166001680Y-107234122D01*
X166047167Y-107234162D01*
X166390943Y-107092117D01*
X166654192Y-106829327D01*
X166796838Y-106485799D01*
X166797162Y-106113833D01*
X166655117Y-105770057D01*
X166392327Y-105506808D01*
X166048799Y-105364162D01*
X165676833Y-105363838D01*
X165333057Y-105505883D01*
X165069808Y-105768673D01*
X164927162Y-106112201D01*
X164927121Y-106159077D01*
X164302599Y-106783599D01*
X164137852Y-107030161D01*
X164080000Y-107321000D01*
X164080000Y-112010025D01*
X163968569Y-112173110D01*
X163917560Y-112425000D01*
X163917560Y-113752560D01*
X162590000Y-113752560D01*
X162354683Y-113796838D01*
X162138559Y-113935910D01*
X161993569Y-114148110D01*
X161942560Y-114400000D01*
X161942560Y-114950000D01*
X161966944Y-115079589D01*
X161942560Y-115200000D01*
X161942560Y-115750000D01*
X161962450Y-115855705D01*
X161955000Y-115873690D01*
X161955000Y-115989250D01*
X162051401Y-116085651D01*
X162125910Y-116201441D01*
X162233397Y-116274884D01*
X162141527Y-116334000D01*
X159710304Y-116334000D01*
X159737440Y-116200000D01*
X159737440Y-112400000D01*
X159693162Y-112164683D01*
X159554090Y-111948559D01*
X159341890Y-111803569D01*
X159090000Y-111752560D01*
X157090000Y-111752560D01*
X156854683Y-111796838D01*
X156638559Y-111935910D01*
X156493569Y-112148110D01*
X156442560Y-112400000D01*
X156442560Y-116200000D01*
X156467774Y-116334000D01*
X156270802Y-116334000D01*
X153875300Y-113938498D01*
X153875300Y-109005600D01*
X153817448Y-108714761D01*
X153652701Y-108468199D01*
X152911965Y-107727463D01*
X153011431Y-107581890D01*
X153062440Y-107330000D01*
X153062440Y-106030000D01*
X153018162Y-105794683D01*
X152879090Y-105578559D01*
X152666890Y-105433569D01*
X152415000Y-105382560D01*
X151115000Y-105382560D01*
X150879683Y-105426838D01*
X150663559Y-105565910D01*
X150518569Y-105778110D01*
X150467560Y-106030000D01*
X150467560Y-106192385D01*
X150394611Y-106016271D01*
X150164016Y-105960590D01*
X149444605Y-106680000D01*
X150164016Y-107399410D01*
X150394611Y-107343729D01*
X150467560Y-107134098D01*
X150467560Y-107330000D01*
X150511838Y-107565317D01*
X150650910Y-107781441D01*
X150863110Y-107926431D01*
X151078879Y-107970125D01*
X151227599Y-108192701D01*
X152355300Y-109320402D01*
X152355300Y-110615000D01*
X152075750Y-110615000D01*
X151917000Y-110773750D01*
X151917000Y-111873000D01*
X151937000Y-111873000D01*
X151937000Y-112127000D01*
X151917000Y-112127000D01*
X151917000Y-112147000D01*
X151663000Y-112147000D01*
X151663000Y-112127000D01*
X150313750Y-112127000D01*
X150155000Y-112285750D01*
X150155000Y-112876310D01*
X150251673Y-113109699D01*
X150293634Y-113151660D01*
X150193569Y-113298110D01*
X150142560Y-113550000D01*
X150142560Y-115050000D01*
X150186838Y-115285317D01*
X150293759Y-115451477D01*
X150193569Y-115598110D01*
X150142560Y-115850000D01*
X150142560Y-116465100D01*
X145415328Y-116465100D01*
X145415330Y-116462735D01*
X145125922Y-115762314D01*
X144590505Y-115225961D01*
X143890590Y-114935332D01*
X143132735Y-114934670D01*
X142432314Y-115224078D01*
X141895961Y-115759495D01*
X141605332Y-116459410D01*
X141604670Y-117217265D01*
X139140000Y-117217265D01*
X139140000Y-112045750D01*
X141605000Y-112045750D01*
X141605000Y-113156309D01*
X141701673Y-113389698D01*
X141880301Y-113568327D01*
X142113690Y-113665000D01*
X143224250Y-113665000D01*
X143383000Y-113506250D01*
X143383000Y-111887000D01*
X143637000Y-111887000D01*
X143637000Y-113506250D01*
X143795750Y-113665000D01*
X144906310Y-113665000D01*
X145139699Y-113568327D01*
X145318327Y-113389698D01*
X145415000Y-113156309D01*
X145415000Y-112045750D01*
X145256250Y-111887000D01*
X143637000Y-111887000D01*
X143383000Y-111887000D01*
X141763750Y-111887000D01*
X141605000Y-112045750D01*
X139140000Y-112045750D01*
X139140000Y-110363691D01*
X141605000Y-110363691D01*
X141605000Y-111474250D01*
X141763750Y-111633000D01*
X143383000Y-111633000D01*
X143383000Y-110013750D01*
X143637000Y-110013750D01*
X143637000Y-111633000D01*
X145256250Y-111633000D01*
X145415000Y-111474250D01*
X145415000Y-111123690D01*
X150155000Y-111123690D01*
X150155000Y-111714250D01*
X150313750Y-111873000D01*
X151663000Y-111873000D01*
X151663000Y-110773750D01*
X151504250Y-110615000D01*
X150663691Y-110615000D01*
X150430302Y-110711673D01*
X150251673Y-110890301D01*
X150155000Y-111123690D01*
X145415000Y-111123690D01*
X145415000Y-110363691D01*
X145318327Y-110130302D01*
X145139699Y-109951673D01*
X144906310Y-109855000D01*
X143795750Y-109855000D01*
X143637000Y-110013750D01*
X143383000Y-110013750D01*
X143224250Y-109855000D01*
X142113690Y-109855000D01*
X141880301Y-109951673D01*
X141701673Y-110130302D01*
X141605000Y-110363691D01*
X139140000Y-110363691D01*
X139140000Y-107579016D01*
X148545590Y-107579016D01*
X148601271Y-107809611D01*
X149084078Y-107977622D01*
X149594428Y-107948083D01*
X149928729Y-107809611D01*
X149984410Y-107579016D01*
X149265000Y-106859605D01*
X148545590Y-107579016D01*
X139140000Y-107579016D01*
X139140000Y-106499078D01*
X147967378Y-106499078D01*
X147996917Y-107009428D01*
X148135389Y-107343729D01*
X148365984Y-107399410D01*
X149085395Y-106680000D01*
X148365984Y-105960590D01*
X148135389Y-106016271D01*
X147967378Y-106499078D01*
X139140000Y-106499078D01*
X139140000Y-105780984D01*
X148545590Y-105780984D01*
X149265000Y-106500395D01*
X149984410Y-105780984D01*
X149928729Y-105550389D01*
X149445922Y-105382378D01*
X148935572Y-105411917D01*
X148601271Y-105550389D01*
X148545590Y-105780984D01*
X139140000Y-105780984D01*
X139140000Y-103155750D01*
X169926000Y-103155750D01*
X169926000Y-103567810D01*
X170022673Y-103801199D01*
X170201302Y-103979827D01*
X170434691Y-104076500D01*
X170529250Y-104076500D01*
X170688000Y-103917750D01*
X170688000Y-102997000D01*
X170084750Y-102997000D01*
X169926000Y-103155750D01*
X139140000Y-103155750D01*
X139140000Y-102172190D01*
X169926000Y-102172190D01*
X169926000Y-102584250D01*
X170084750Y-102743000D01*
X170688000Y-102743000D01*
X170688000Y-101822250D01*
X170529250Y-101663500D01*
X170434691Y-101663500D01*
X170201302Y-101760173D01*
X170022673Y-101938801D01*
X169926000Y-102172190D01*
X139140000Y-102172190D01*
X139140000Y-92986661D01*
X140842758Y-92986661D01*
X141054990Y-93500303D01*
X141447630Y-93893629D01*
X141735000Y-94012955D01*
X141735000Y-95999895D01*
X141593559Y-96090910D01*
X141448569Y-96303110D01*
X141397560Y-96555000D01*
X141397560Y-97755000D01*
X141441838Y-97990317D01*
X141580910Y-98206441D01*
X141793110Y-98351431D01*
X142045000Y-98402440D01*
X142158638Y-98402440D01*
X145004599Y-101248401D01*
X145251161Y-101413148D01*
X145542000Y-101471000D01*
X171008198Y-101471000D01*
X171204509Y-101667311D01*
X171195309Y-101663500D01*
X171100750Y-101663500D01*
X170942000Y-101822250D01*
X170942000Y-102743000D01*
X170962000Y-102743000D01*
X170962000Y-102997000D01*
X170942000Y-102997000D01*
X170942000Y-103917750D01*
X171100750Y-104076500D01*
X171195309Y-104076500D01*
X171428698Y-103979827D01*
X171455235Y-103953291D01*
X171579110Y-104037931D01*
X171831000Y-104088940D01*
X172339000Y-104088940D01*
X172574317Y-104044662D01*
X172720907Y-103950334D01*
X172849110Y-104037931D01*
X173101000Y-104088940D01*
X173609000Y-104088940D01*
X173844317Y-104044662D01*
X173990907Y-103950334D01*
X174119110Y-104037931D01*
X174371000Y-104088940D01*
X174879000Y-104088940D01*
X175114317Y-104044662D01*
X175260907Y-103950334D01*
X175389110Y-104037931D01*
X175641000Y-104088940D01*
X176149000Y-104088940D01*
X176384317Y-104044662D01*
X176530907Y-103950334D01*
X176659110Y-104037931D01*
X176911000Y-104088940D01*
X177419000Y-104088940D01*
X177654317Y-104044662D01*
X177800907Y-103950334D01*
X177929110Y-104037931D01*
X178181000Y-104088940D01*
X178689000Y-104088940D01*
X178924317Y-104044662D01*
X179070907Y-103950334D01*
X179199110Y-104037931D01*
X179451000Y-104088940D01*
X179959000Y-104088940D01*
X180194317Y-104044662D01*
X180410441Y-103905590D01*
X180555431Y-103693390D01*
X180606440Y-103441500D01*
X180606440Y-102733200D01*
X198442800Y-102733200D01*
X198733639Y-102675348D01*
X198980201Y-102510601D01*
X203088362Y-98402440D01*
X203905000Y-98402440D01*
X204140317Y-98358162D01*
X204356441Y-98219090D01*
X204501431Y-98006890D01*
X204552440Y-97755000D01*
X204552440Y-97440750D01*
X205670000Y-97440750D01*
X205670000Y-97881310D01*
X205766673Y-98114699D01*
X205945302Y-98293327D01*
X206178691Y-98390000D01*
X206469250Y-98390000D01*
X206628000Y-98231250D01*
X206628000Y-97282000D01*
X206882000Y-97282000D01*
X206882000Y-98231250D01*
X207040750Y-98390000D01*
X207331309Y-98390000D01*
X207564698Y-98293327D01*
X207743327Y-98114699D01*
X207840000Y-97881310D01*
X207840000Y-97440750D01*
X207681250Y-97282000D01*
X206882000Y-97282000D01*
X206628000Y-97282000D01*
X205828750Y-97282000D01*
X205670000Y-97440750D01*
X204552440Y-97440750D01*
X204552440Y-96555000D01*
X204528674Y-96428690D01*
X205670000Y-96428690D01*
X205670000Y-96869250D01*
X205828750Y-97028000D01*
X206628000Y-97028000D01*
X206628000Y-96078750D01*
X206882000Y-96078750D01*
X206882000Y-97028000D01*
X207681250Y-97028000D01*
X207840000Y-96869250D01*
X207840000Y-96428690D01*
X207743327Y-96195301D01*
X207564698Y-96016673D01*
X207331309Y-95920000D01*
X207040750Y-95920000D01*
X206882000Y-96078750D01*
X206628000Y-96078750D01*
X206469250Y-95920000D01*
X206178691Y-95920000D01*
X205945302Y-96016673D01*
X205766673Y-96195301D01*
X205670000Y-96428690D01*
X204528674Y-96428690D01*
X204508162Y-96319683D01*
X204369090Y-96103559D01*
X204156890Y-95958569D01*
X203905000Y-95907560D01*
X203827000Y-95907560D01*
X203827000Y-93962485D01*
X203990303Y-93895010D01*
X204383629Y-93502370D01*
X204596757Y-92989100D01*
X204597242Y-92433339D01*
X204385010Y-91919697D01*
X203992370Y-91526371D01*
X203479100Y-91313243D01*
X202923339Y-91312758D01*
X202409697Y-91524990D01*
X202016371Y-91917630D01*
X201803243Y-92430900D01*
X201802758Y-92986661D01*
X202014990Y-93500303D01*
X202307000Y-93792823D01*
X202307000Y-97034198D01*
X198127998Y-101213200D01*
X190092602Y-101213200D01*
X192903362Y-98402440D01*
X193745000Y-98402440D01*
X193980317Y-98358162D01*
X194196441Y-98219090D01*
X194341431Y-98006890D01*
X194392440Y-97755000D01*
X194392440Y-97440750D01*
X195510000Y-97440750D01*
X195510000Y-97881310D01*
X195606673Y-98114699D01*
X195785302Y-98293327D01*
X196018691Y-98390000D01*
X196309250Y-98390000D01*
X196468000Y-98231250D01*
X196468000Y-97282000D01*
X196722000Y-97282000D01*
X196722000Y-98231250D01*
X196880750Y-98390000D01*
X197171309Y-98390000D01*
X197404698Y-98293327D01*
X197583327Y-98114699D01*
X197680000Y-97881310D01*
X197680000Y-97440750D01*
X197521250Y-97282000D01*
X196722000Y-97282000D01*
X196468000Y-97282000D01*
X195668750Y-97282000D01*
X195510000Y-97440750D01*
X194392440Y-97440750D01*
X194392440Y-96555000D01*
X194368674Y-96428690D01*
X195510000Y-96428690D01*
X195510000Y-96869250D01*
X195668750Y-97028000D01*
X196468000Y-97028000D01*
X196468000Y-96078750D01*
X196722000Y-96078750D01*
X196722000Y-97028000D01*
X197521250Y-97028000D01*
X197680000Y-96869250D01*
X197680000Y-96428690D01*
X197583327Y-96195301D01*
X197404698Y-96016673D01*
X197171309Y-95920000D01*
X196880750Y-95920000D01*
X196722000Y-96078750D01*
X196468000Y-96078750D01*
X196309250Y-95920000D01*
X196018691Y-95920000D01*
X195785302Y-96016673D01*
X195606673Y-96195301D01*
X195510000Y-96428690D01*
X194368674Y-96428690D01*
X194348162Y-96319683D01*
X194209090Y-96103559D01*
X193996890Y-95958569D01*
X193745000Y-95907560D01*
X193667000Y-95907560D01*
X193667000Y-93962485D01*
X193830303Y-93895010D01*
X194223629Y-93502370D01*
X194436757Y-92989100D01*
X194437242Y-92433339D01*
X194225010Y-91919697D01*
X193832370Y-91526371D01*
X193319100Y-91313243D01*
X192763339Y-91312758D01*
X192249697Y-91524990D01*
X191856371Y-91917630D01*
X191643243Y-92430900D01*
X191642758Y-92986661D01*
X191854990Y-93500303D01*
X192147000Y-93792823D01*
X192147000Y-97009198D01*
X188972798Y-100183400D01*
X180037402Y-100183400D01*
X182140039Y-98080763D01*
X182220910Y-98206441D01*
X182433110Y-98351431D01*
X182685000Y-98402440D01*
X183585000Y-98402440D01*
X183820317Y-98358162D01*
X184036441Y-98219090D01*
X184181431Y-98006890D01*
X184232440Y-97755000D01*
X184232440Y-97440750D01*
X185350000Y-97440750D01*
X185350000Y-97881310D01*
X185446673Y-98114699D01*
X185625302Y-98293327D01*
X185858691Y-98390000D01*
X186149250Y-98390000D01*
X186308000Y-98231250D01*
X186308000Y-97282000D01*
X186562000Y-97282000D01*
X186562000Y-98231250D01*
X186720750Y-98390000D01*
X187011309Y-98390000D01*
X187244698Y-98293327D01*
X187423327Y-98114699D01*
X187520000Y-97881310D01*
X187520000Y-97440750D01*
X187361250Y-97282000D01*
X186562000Y-97282000D01*
X186308000Y-97282000D01*
X185508750Y-97282000D01*
X185350000Y-97440750D01*
X184232440Y-97440750D01*
X184232440Y-96555000D01*
X184208674Y-96428690D01*
X185350000Y-96428690D01*
X185350000Y-96869250D01*
X185508750Y-97028000D01*
X186308000Y-97028000D01*
X186308000Y-96078750D01*
X186562000Y-96078750D01*
X186562000Y-97028000D01*
X187361250Y-97028000D01*
X187520000Y-96869250D01*
X187520000Y-96428690D01*
X187423327Y-96195301D01*
X187244698Y-96016673D01*
X187011309Y-95920000D01*
X186720750Y-95920000D01*
X186562000Y-96078750D01*
X186308000Y-96078750D01*
X186149250Y-95920000D01*
X185858691Y-95920000D01*
X185625302Y-96016673D01*
X185446673Y-96195301D01*
X185350000Y-96428690D01*
X184208674Y-96428690D01*
X184188162Y-96319683D01*
X184049090Y-96103559D01*
X183836890Y-95958569D01*
X183585000Y-95907560D01*
X183507000Y-95907560D01*
X183507000Y-93962485D01*
X183670303Y-93895010D01*
X184063629Y-93502370D01*
X184276757Y-92989100D01*
X184277242Y-92433339D01*
X184065010Y-91919697D01*
X183672370Y-91526371D01*
X183159100Y-91313243D01*
X182603339Y-91312758D01*
X182089697Y-91524990D01*
X181696371Y-91917630D01*
X181483243Y-92430900D01*
X181482758Y-92986661D01*
X181694990Y-93500303D01*
X181987000Y-93792823D01*
X181987000Y-96395796D01*
X181700161Y-96452852D01*
X181453599Y-96617599D01*
X176655000Y-101416198D01*
X176655000Y-100076000D01*
X176597148Y-99785161D01*
X176432401Y-99538599D01*
X174334552Y-97440750D01*
X175190000Y-97440750D01*
X175190000Y-97881310D01*
X175286673Y-98114699D01*
X175465302Y-98293327D01*
X175698691Y-98390000D01*
X175989250Y-98390000D01*
X176148000Y-98231250D01*
X176148000Y-97282000D01*
X176402000Y-97282000D01*
X176402000Y-98231250D01*
X176560750Y-98390000D01*
X176851309Y-98390000D01*
X177084698Y-98293327D01*
X177263327Y-98114699D01*
X177360000Y-97881310D01*
X177360000Y-97440750D01*
X177201250Y-97282000D01*
X176402000Y-97282000D01*
X176148000Y-97282000D01*
X175348750Y-97282000D01*
X175190000Y-97440750D01*
X174334552Y-97440750D01*
X174072440Y-97178638D01*
X174072440Y-96555000D01*
X174048674Y-96428690D01*
X175190000Y-96428690D01*
X175190000Y-96869250D01*
X175348750Y-97028000D01*
X176148000Y-97028000D01*
X176148000Y-96078750D01*
X176402000Y-96078750D01*
X176402000Y-97028000D01*
X177201250Y-97028000D01*
X177360000Y-96869250D01*
X177360000Y-96428690D01*
X177263327Y-96195301D01*
X177084698Y-96016673D01*
X176851309Y-95920000D01*
X176560750Y-95920000D01*
X176402000Y-96078750D01*
X176148000Y-96078750D01*
X175989250Y-95920000D01*
X175698691Y-95920000D01*
X175465302Y-96016673D01*
X175286673Y-96195301D01*
X175190000Y-96428690D01*
X174048674Y-96428690D01*
X174028162Y-96319683D01*
X173889090Y-96103559D01*
X173735000Y-95998274D01*
X173735000Y-93670705D01*
X173903629Y-93502370D01*
X174116757Y-92989100D01*
X174117242Y-92433339D01*
X173905010Y-91919697D01*
X173512370Y-91526371D01*
X172999100Y-91313243D01*
X172443339Y-91312758D01*
X171929697Y-91524990D01*
X171536371Y-91917630D01*
X171323243Y-92430900D01*
X171322758Y-92986661D01*
X171534990Y-93500303D01*
X171927630Y-93893629D01*
X172215000Y-94012955D01*
X172215000Y-95999895D01*
X172073559Y-96090910D01*
X171928569Y-96303110D01*
X171877560Y-96555000D01*
X171877560Y-97755000D01*
X171921838Y-97990317D01*
X171957669Y-98046000D01*
X167131783Y-98046000D01*
X167200000Y-97881310D01*
X167200000Y-97440750D01*
X167041250Y-97282000D01*
X166242000Y-97282000D01*
X166242000Y-97302000D01*
X165988000Y-97302000D01*
X165988000Y-97282000D01*
X165188750Y-97282000D01*
X165030000Y-97440750D01*
X165030000Y-97881310D01*
X165098217Y-98046000D01*
X164780802Y-98046000D01*
X163912440Y-97177638D01*
X163912440Y-96555000D01*
X163888674Y-96428690D01*
X165030000Y-96428690D01*
X165030000Y-96869250D01*
X165188750Y-97028000D01*
X165988000Y-97028000D01*
X165988000Y-96078750D01*
X166242000Y-96078750D01*
X166242000Y-97028000D01*
X167041250Y-97028000D01*
X167200000Y-96869250D01*
X167200000Y-96428690D01*
X167103327Y-96195301D01*
X166924698Y-96016673D01*
X166691309Y-95920000D01*
X166400750Y-95920000D01*
X166242000Y-96078750D01*
X165988000Y-96078750D01*
X165829250Y-95920000D01*
X165538691Y-95920000D01*
X165305302Y-96016673D01*
X165126673Y-96195301D01*
X165030000Y-96428690D01*
X163888674Y-96428690D01*
X163868162Y-96319683D01*
X163729090Y-96103559D01*
X163575000Y-95998274D01*
X163575000Y-93670705D01*
X163743629Y-93502370D01*
X163956757Y-92989100D01*
X163957242Y-92433339D01*
X163745010Y-91919697D01*
X163352370Y-91526371D01*
X162839100Y-91313243D01*
X162283339Y-91312758D01*
X161769697Y-91524990D01*
X161376371Y-91917630D01*
X161163243Y-92430900D01*
X161162758Y-92986661D01*
X161374990Y-93500303D01*
X161767630Y-93893629D01*
X162055000Y-94012955D01*
X162055000Y-95999895D01*
X161913559Y-96090910D01*
X161768569Y-96303110D01*
X161717560Y-96555000D01*
X161717560Y-97755000D01*
X161761838Y-97990317D01*
X161900910Y-98206441D01*
X162113110Y-98351431D01*
X162365000Y-98402440D01*
X162987638Y-98402440D01*
X163647198Y-99062000D01*
X155636802Y-99062000D01*
X154015552Y-97440750D01*
X154870000Y-97440750D01*
X154870000Y-97881310D01*
X154966673Y-98114699D01*
X155145302Y-98293327D01*
X155378691Y-98390000D01*
X155669250Y-98390000D01*
X155828000Y-98231250D01*
X155828000Y-97282000D01*
X156082000Y-97282000D01*
X156082000Y-98231250D01*
X156240750Y-98390000D01*
X156531309Y-98390000D01*
X156764698Y-98293327D01*
X156943327Y-98114699D01*
X157040000Y-97881310D01*
X157040000Y-97440750D01*
X156881250Y-97282000D01*
X156082000Y-97282000D01*
X155828000Y-97282000D01*
X155028750Y-97282000D01*
X154870000Y-97440750D01*
X154015552Y-97440750D01*
X153752440Y-97177638D01*
X153752440Y-96555000D01*
X153728674Y-96428690D01*
X154870000Y-96428690D01*
X154870000Y-96869250D01*
X155028750Y-97028000D01*
X155828000Y-97028000D01*
X155828000Y-96078750D01*
X156082000Y-96078750D01*
X156082000Y-97028000D01*
X156881250Y-97028000D01*
X157040000Y-96869250D01*
X157040000Y-96428690D01*
X156943327Y-96195301D01*
X156764698Y-96016673D01*
X156531309Y-95920000D01*
X156240750Y-95920000D01*
X156082000Y-96078750D01*
X155828000Y-96078750D01*
X155669250Y-95920000D01*
X155378691Y-95920000D01*
X155145302Y-96016673D01*
X154966673Y-96195301D01*
X154870000Y-96428690D01*
X153728674Y-96428690D01*
X153708162Y-96319683D01*
X153569090Y-96103559D01*
X153415000Y-95998274D01*
X153415000Y-93670705D01*
X153583629Y-93502370D01*
X153796757Y-92989100D01*
X153797242Y-92433339D01*
X153585010Y-91919697D01*
X153192370Y-91526371D01*
X152679100Y-91313243D01*
X152123339Y-91312758D01*
X151609697Y-91524990D01*
X151216371Y-91917630D01*
X151003243Y-92430900D01*
X151002758Y-92986661D01*
X151214990Y-93500303D01*
X151607630Y-93893629D01*
X151895000Y-94012955D01*
X151895000Y-95999895D01*
X151753559Y-96090910D01*
X151608569Y-96303110D01*
X151557560Y-96555000D01*
X151557560Y-97755000D01*
X151601838Y-97990317D01*
X151740910Y-98206441D01*
X151953110Y-98351431D01*
X152205000Y-98402440D01*
X152827638Y-98402440D01*
X154376198Y-99951000D01*
X145856802Y-99951000D01*
X143681996Y-97776194D01*
X143807401Y-97692401D01*
X143972148Y-97445839D01*
X143973160Y-97440750D01*
X144710000Y-97440750D01*
X144710000Y-97881310D01*
X144806673Y-98114699D01*
X144985302Y-98293327D01*
X145218691Y-98390000D01*
X145509250Y-98390000D01*
X145668000Y-98231250D01*
X145668000Y-97282000D01*
X145922000Y-97282000D01*
X145922000Y-98231250D01*
X146080750Y-98390000D01*
X146371309Y-98390000D01*
X146604698Y-98293327D01*
X146783327Y-98114699D01*
X146880000Y-97881310D01*
X146880000Y-97440750D01*
X146721250Y-97282000D01*
X145922000Y-97282000D01*
X145668000Y-97282000D01*
X144868750Y-97282000D01*
X144710000Y-97440750D01*
X143973160Y-97440750D01*
X144030000Y-97155000D01*
X143972148Y-96864161D01*
X143807401Y-96617599D01*
X143575000Y-96462314D01*
X143568674Y-96428690D01*
X144710000Y-96428690D01*
X144710000Y-96869250D01*
X144868750Y-97028000D01*
X145668000Y-97028000D01*
X145668000Y-96078750D01*
X145922000Y-96078750D01*
X145922000Y-97028000D01*
X146721250Y-97028000D01*
X146880000Y-96869250D01*
X146880000Y-96428690D01*
X146783327Y-96195301D01*
X146604698Y-96016673D01*
X146371309Y-95920000D01*
X146080750Y-95920000D01*
X145922000Y-96078750D01*
X145668000Y-96078750D01*
X145509250Y-95920000D01*
X145218691Y-95920000D01*
X144985302Y-96016673D01*
X144806673Y-96195301D01*
X144710000Y-96428690D01*
X143568674Y-96428690D01*
X143548162Y-96319683D01*
X143409090Y-96103559D01*
X143255000Y-95998274D01*
X143255000Y-93670705D01*
X143423629Y-93502370D01*
X143636757Y-92989100D01*
X143637242Y-92433339D01*
X143425010Y-91919697D01*
X143032370Y-91526371D01*
X142519100Y-91313243D01*
X141963339Y-91312758D01*
X141449697Y-91524990D01*
X141056371Y-91917630D01*
X140843243Y-92430900D01*
X140842758Y-92986661D01*
X139140000Y-92986661D01*
X139140000Y-87906661D01*
X140842758Y-87906661D01*
X141054990Y-88420303D01*
X141447630Y-88813629D01*
X141960900Y-89026757D01*
X142516661Y-89027242D01*
X143030303Y-88815010D01*
X143423629Y-88422370D01*
X143636757Y-87909100D01*
X143636759Y-87906661D01*
X151002758Y-87906661D01*
X151214990Y-88420303D01*
X151607630Y-88813629D01*
X152120900Y-89026757D01*
X152676661Y-89027242D01*
X153190303Y-88815010D01*
X153583629Y-88422370D01*
X153796757Y-87909100D01*
X153796759Y-87906661D01*
X161162758Y-87906661D01*
X161374990Y-88420303D01*
X161767630Y-88813629D01*
X162280900Y-89026757D01*
X162836661Y-89027242D01*
X163350303Y-88815010D01*
X163743629Y-88422370D01*
X163956757Y-87909100D01*
X163956759Y-87906661D01*
X171322758Y-87906661D01*
X171534990Y-88420303D01*
X171927630Y-88813629D01*
X172440900Y-89026757D01*
X172996661Y-89027242D01*
X173510303Y-88815010D01*
X173903629Y-88422370D01*
X174116757Y-87909100D01*
X174116759Y-87906661D01*
X181482758Y-87906661D01*
X181694990Y-88420303D01*
X182087630Y-88813629D01*
X182600900Y-89026757D01*
X183156661Y-89027242D01*
X183670303Y-88815010D01*
X184063629Y-88422370D01*
X184276757Y-87909100D01*
X184276759Y-87906661D01*
X191642758Y-87906661D01*
X191854990Y-88420303D01*
X192247630Y-88813629D01*
X192760900Y-89026757D01*
X193316661Y-89027242D01*
X193830303Y-88815010D01*
X194223629Y-88422370D01*
X194436757Y-87909100D01*
X194436759Y-87906661D01*
X201802758Y-87906661D01*
X202014990Y-88420303D01*
X202407630Y-88813629D01*
X202920900Y-89026757D01*
X203476661Y-89027242D01*
X203990303Y-88815010D01*
X204383629Y-88422370D01*
X204596757Y-87909100D01*
X204596759Y-87906661D01*
X211962758Y-87906661D01*
X212174990Y-88420303D01*
X212567630Y-88813629D01*
X213080900Y-89026757D01*
X213636661Y-89027242D01*
X214150303Y-88815010D01*
X214543629Y-88422370D01*
X214756757Y-87909100D01*
X214757242Y-87353339D01*
X214545010Y-86839697D01*
X214152370Y-86446371D01*
X213639100Y-86233243D01*
X213083339Y-86232758D01*
X212569697Y-86444990D01*
X212176371Y-86837630D01*
X211963243Y-87350900D01*
X211962758Y-87906661D01*
X204596759Y-87906661D01*
X204597242Y-87353339D01*
X204385010Y-86839697D01*
X203992370Y-86446371D01*
X203479100Y-86233243D01*
X202923339Y-86232758D01*
X202409697Y-86444990D01*
X202016371Y-86837630D01*
X201803243Y-87350900D01*
X201802758Y-87906661D01*
X194436759Y-87906661D01*
X194437242Y-87353339D01*
X194225010Y-86839697D01*
X193832370Y-86446371D01*
X193319100Y-86233243D01*
X192763339Y-86232758D01*
X192249697Y-86444990D01*
X191856371Y-86837630D01*
X191643243Y-87350900D01*
X191642758Y-87906661D01*
X184276759Y-87906661D01*
X184277242Y-87353339D01*
X184065010Y-86839697D01*
X183672370Y-86446371D01*
X183159100Y-86233243D01*
X182603339Y-86232758D01*
X182089697Y-86444990D01*
X181696371Y-86837630D01*
X181483243Y-87350900D01*
X181482758Y-87906661D01*
X174116759Y-87906661D01*
X174117242Y-87353339D01*
X173905010Y-86839697D01*
X173512370Y-86446371D01*
X172999100Y-86233243D01*
X172443339Y-86232758D01*
X171929697Y-86444990D01*
X171536371Y-86837630D01*
X171323243Y-87350900D01*
X171322758Y-87906661D01*
X163956759Y-87906661D01*
X163957242Y-87353339D01*
X163745010Y-86839697D01*
X163352370Y-86446371D01*
X162839100Y-86233243D01*
X162283339Y-86232758D01*
X161769697Y-86444990D01*
X161376371Y-86837630D01*
X161163243Y-87350900D01*
X161162758Y-87906661D01*
X153796759Y-87906661D01*
X153797242Y-87353339D01*
X153585010Y-86839697D01*
X153192370Y-86446371D01*
X152679100Y-86233243D01*
X152123339Y-86232758D01*
X151609697Y-86444990D01*
X151216371Y-86837630D01*
X151003243Y-87350900D01*
X151002758Y-87906661D01*
X143636759Y-87906661D01*
X143637242Y-87353339D01*
X143425010Y-86839697D01*
X143032370Y-86446371D01*
X142519100Y-86233243D01*
X141963339Y-86232758D01*
X141449697Y-86444990D01*
X141056371Y-86837630D01*
X140843243Y-87350900D01*
X140842758Y-87906661D01*
X139140000Y-87906661D01*
X139140000Y-82826661D01*
X140842758Y-82826661D01*
X141054990Y-83340303D01*
X141447630Y-83733629D01*
X141960900Y-83946757D01*
X142516661Y-83947242D01*
X143030303Y-83735010D01*
X143423629Y-83342370D01*
X143636757Y-82829100D01*
X143636759Y-82826661D01*
X151002758Y-82826661D01*
X151214990Y-83340303D01*
X151607630Y-83733629D01*
X152120900Y-83946757D01*
X152676661Y-83947242D01*
X153190303Y-83735010D01*
X153583629Y-83342370D01*
X153796757Y-82829100D01*
X153796759Y-82826661D01*
X161162758Y-82826661D01*
X161374990Y-83340303D01*
X161767630Y-83733629D01*
X162280900Y-83946757D01*
X162836661Y-83947242D01*
X163350303Y-83735010D01*
X163743629Y-83342370D01*
X163956757Y-82829100D01*
X163956759Y-82826661D01*
X171322758Y-82826661D01*
X171534990Y-83340303D01*
X171927630Y-83733629D01*
X172440900Y-83946757D01*
X172996661Y-83947242D01*
X173510303Y-83735010D01*
X173903629Y-83342370D01*
X174116757Y-82829100D01*
X174116759Y-82826661D01*
X181482758Y-82826661D01*
X181694990Y-83340303D01*
X182087630Y-83733629D01*
X182600900Y-83946757D01*
X183156661Y-83947242D01*
X183670303Y-83735010D01*
X184063629Y-83342370D01*
X184276757Y-82829100D01*
X184276759Y-82826661D01*
X191642758Y-82826661D01*
X191854990Y-83340303D01*
X192247630Y-83733629D01*
X192760900Y-83946757D01*
X193316661Y-83947242D01*
X193830303Y-83735010D01*
X194223629Y-83342370D01*
X194436757Y-82829100D01*
X194436759Y-82826661D01*
X201802758Y-82826661D01*
X202014990Y-83340303D01*
X202407630Y-83733629D01*
X202920900Y-83946757D01*
X203476661Y-83947242D01*
X203990303Y-83735010D01*
X204383629Y-83342370D01*
X204596757Y-82829100D01*
X204596759Y-82826661D01*
X211962758Y-82826661D01*
X212174990Y-83340303D01*
X212567630Y-83733629D01*
X213080900Y-83946757D01*
X213636661Y-83947242D01*
X214150303Y-83735010D01*
X214543629Y-83342370D01*
X214756757Y-82829100D01*
X214757242Y-82273339D01*
X214545010Y-81759697D01*
X214152370Y-81366371D01*
X213639100Y-81153243D01*
X213083339Y-81152758D01*
X212569697Y-81364990D01*
X212176371Y-81757630D01*
X211963243Y-82270900D01*
X211962758Y-82826661D01*
X204596759Y-82826661D01*
X204597242Y-82273339D01*
X204385010Y-81759697D01*
X203992370Y-81366371D01*
X203479100Y-81153243D01*
X202923339Y-81152758D01*
X202409697Y-81364990D01*
X202016371Y-81757630D01*
X201803243Y-82270900D01*
X201802758Y-82826661D01*
X194436759Y-82826661D01*
X194437242Y-82273339D01*
X194225010Y-81759697D01*
X193832370Y-81366371D01*
X193319100Y-81153243D01*
X192763339Y-81152758D01*
X192249697Y-81364990D01*
X191856371Y-81757630D01*
X191643243Y-82270900D01*
X191642758Y-82826661D01*
X184276759Y-82826661D01*
X184277242Y-82273339D01*
X184065010Y-81759697D01*
X183672370Y-81366371D01*
X183159100Y-81153243D01*
X182603339Y-81152758D01*
X182089697Y-81364990D01*
X181696371Y-81757630D01*
X181483243Y-82270900D01*
X181482758Y-82826661D01*
X174116759Y-82826661D01*
X174117242Y-82273339D01*
X173905010Y-81759697D01*
X173512370Y-81366371D01*
X172999100Y-81153243D01*
X172443339Y-81152758D01*
X171929697Y-81364990D01*
X171536371Y-81757630D01*
X171323243Y-82270900D01*
X171322758Y-82826661D01*
X163956759Y-82826661D01*
X163957242Y-82273339D01*
X163745010Y-81759697D01*
X163352370Y-81366371D01*
X162839100Y-81153243D01*
X162283339Y-81152758D01*
X161769697Y-81364990D01*
X161376371Y-81757630D01*
X161163243Y-82270900D01*
X161162758Y-82826661D01*
X153796759Y-82826661D01*
X153797242Y-82273339D01*
X153585010Y-81759697D01*
X153192370Y-81366371D01*
X152679100Y-81153243D01*
X152123339Y-81152758D01*
X151609697Y-81364990D01*
X151216371Y-81757630D01*
X151003243Y-82270900D01*
X151002758Y-82826661D01*
X143636759Y-82826661D01*
X143637242Y-82273339D01*
X143425010Y-81759697D01*
X143032370Y-81366371D01*
X142519100Y-81153243D01*
X141963339Y-81152758D01*
X141449697Y-81364990D01*
X141056371Y-81757630D01*
X140843243Y-82270900D01*
X140842758Y-82826661D01*
X139140000Y-82826661D01*
X139140000Y-78450213D01*
X141439392Y-78450213D01*
X141508857Y-78692397D01*
X142032302Y-78879144D01*
X142587368Y-78851362D01*
X142971143Y-78692397D01*
X143040608Y-78450213D01*
X151599392Y-78450213D01*
X151668857Y-78692397D01*
X152192302Y-78879144D01*
X152747368Y-78851362D01*
X153131143Y-78692397D01*
X153200608Y-78450213D01*
X161759392Y-78450213D01*
X161828857Y-78692397D01*
X162352302Y-78879144D01*
X162907368Y-78851362D01*
X163291143Y-78692397D01*
X163360608Y-78450213D01*
X171919392Y-78450213D01*
X171988857Y-78692397D01*
X172512302Y-78879144D01*
X173067368Y-78851362D01*
X173451143Y-78692397D01*
X173520608Y-78450213D01*
X182079392Y-78450213D01*
X182148857Y-78692397D01*
X182672302Y-78879144D01*
X183227368Y-78851362D01*
X183611143Y-78692397D01*
X183680608Y-78450213D01*
X192239392Y-78450213D01*
X192308857Y-78692397D01*
X192832302Y-78879144D01*
X193387368Y-78851362D01*
X193771143Y-78692397D01*
X193840608Y-78450213D01*
X202399392Y-78450213D01*
X202468857Y-78692397D01*
X202992302Y-78879144D01*
X203547368Y-78851362D01*
X203931143Y-78692397D01*
X204000608Y-78450213D01*
X212559392Y-78450213D01*
X212628857Y-78692397D01*
X213152302Y-78879144D01*
X213707368Y-78851362D01*
X214091143Y-78692397D01*
X214160608Y-78450213D01*
X213360000Y-77649605D01*
X212559392Y-78450213D01*
X204000608Y-78450213D01*
X203200000Y-77649605D01*
X202399392Y-78450213D01*
X193840608Y-78450213D01*
X193040000Y-77649605D01*
X192239392Y-78450213D01*
X183680608Y-78450213D01*
X182880000Y-77649605D01*
X182079392Y-78450213D01*
X173520608Y-78450213D01*
X172720000Y-77649605D01*
X171919392Y-78450213D01*
X163360608Y-78450213D01*
X162560000Y-77649605D01*
X161759392Y-78450213D01*
X153200608Y-78450213D01*
X152400000Y-77649605D01*
X151599392Y-78450213D01*
X143040608Y-78450213D01*
X142240000Y-77649605D01*
X141439392Y-78450213D01*
X139140000Y-78450213D01*
X139140000Y-77262302D01*
X140830856Y-77262302D01*
X140858638Y-77817368D01*
X141017603Y-78201143D01*
X141259787Y-78270608D01*
X142060395Y-77470000D01*
X142419605Y-77470000D01*
X143220213Y-78270608D01*
X143462397Y-78201143D01*
X143649144Y-77677698D01*
X143628353Y-77262302D01*
X150990856Y-77262302D01*
X151018638Y-77817368D01*
X151177603Y-78201143D01*
X151419787Y-78270608D01*
X152220395Y-77470000D01*
X152579605Y-77470000D01*
X153380213Y-78270608D01*
X153622397Y-78201143D01*
X153809144Y-77677698D01*
X153788353Y-77262302D01*
X161150856Y-77262302D01*
X161178638Y-77817368D01*
X161337603Y-78201143D01*
X161579787Y-78270608D01*
X162380395Y-77470000D01*
X162739605Y-77470000D01*
X163540213Y-78270608D01*
X163782397Y-78201143D01*
X163969144Y-77677698D01*
X163948353Y-77262302D01*
X171310856Y-77262302D01*
X171338638Y-77817368D01*
X171497603Y-78201143D01*
X171739787Y-78270608D01*
X172540395Y-77470000D01*
X172899605Y-77470000D01*
X173700213Y-78270608D01*
X173942397Y-78201143D01*
X174129144Y-77677698D01*
X174108353Y-77262302D01*
X181470856Y-77262302D01*
X181498638Y-77817368D01*
X181657603Y-78201143D01*
X181899787Y-78270608D01*
X182700395Y-77470000D01*
X183059605Y-77470000D01*
X183860213Y-78270608D01*
X184102397Y-78201143D01*
X184289144Y-77677698D01*
X184268353Y-77262302D01*
X191630856Y-77262302D01*
X191658638Y-77817368D01*
X191817603Y-78201143D01*
X192059787Y-78270608D01*
X192860395Y-77470000D01*
X193219605Y-77470000D01*
X194020213Y-78270608D01*
X194262397Y-78201143D01*
X194449144Y-77677698D01*
X194428353Y-77262302D01*
X201790856Y-77262302D01*
X201818638Y-77817368D01*
X201977603Y-78201143D01*
X202219787Y-78270608D01*
X203020395Y-77470000D01*
X203379605Y-77470000D01*
X204180213Y-78270608D01*
X204422397Y-78201143D01*
X204609144Y-77677698D01*
X204588353Y-77262302D01*
X211950856Y-77262302D01*
X211978638Y-77817368D01*
X212137603Y-78201143D01*
X212379787Y-78270608D01*
X213180395Y-77470000D01*
X213539605Y-77470000D01*
X214340213Y-78270608D01*
X214582397Y-78201143D01*
X214769144Y-77677698D01*
X214741362Y-77122632D01*
X214582397Y-76738857D01*
X214340213Y-76669392D01*
X213539605Y-77470000D01*
X213180395Y-77470000D01*
X212379787Y-76669392D01*
X212137603Y-76738857D01*
X211950856Y-77262302D01*
X204588353Y-77262302D01*
X204581362Y-77122632D01*
X204422397Y-76738857D01*
X204180213Y-76669392D01*
X203379605Y-77470000D01*
X203020395Y-77470000D01*
X202219787Y-76669392D01*
X201977603Y-76738857D01*
X201790856Y-77262302D01*
X194428353Y-77262302D01*
X194421362Y-77122632D01*
X194262397Y-76738857D01*
X194020213Y-76669392D01*
X193219605Y-77470000D01*
X192860395Y-77470000D01*
X192059787Y-76669392D01*
X191817603Y-76738857D01*
X191630856Y-77262302D01*
X184268353Y-77262302D01*
X184261362Y-77122632D01*
X184102397Y-76738857D01*
X183860213Y-76669392D01*
X183059605Y-77470000D01*
X182700395Y-77470000D01*
X181899787Y-76669392D01*
X181657603Y-76738857D01*
X181470856Y-77262302D01*
X174108353Y-77262302D01*
X174101362Y-77122632D01*
X173942397Y-76738857D01*
X173700213Y-76669392D01*
X172899605Y-77470000D01*
X172540395Y-77470000D01*
X171739787Y-76669392D01*
X171497603Y-76738857D01*
X171310856Y-77262302D01*
X163948353Y-77262302D01*
X163941362Y-77122632D01*
X163782397Y-76738857D01*
X163540213Y-76669392D01*
X162739605Y-77470000D01*
X162380395Y-77470000D01*
X161579787Y-76669392D01*
X161337603Y-76738857D01*
X161150856Y-77262302D01*
X153788353Y-77262302D01*
X153781362Y-77122632D01*
X153622397Y-76738857D01*
X153380213Y-76669392D01*
X152579605Y-77470000D01*
X152220395Y-77470000D01*
X151419787Y-76669392D01*
X151177603Y-76738857D01*
X150990856Y-77262302D01*
X143628353Y-77262302D01*
X143621362Y-77122632D01*
X143462397Y-76738857D01*
X143220213Y-76669392D01*
X142419605Y-77470000D01*
X142060395Y-77470000D01*
X141259787Y-76669392D01*
X141017603Y-76738857D01*
X140830856Y-77262302D01*
X139140000Y-77262302D01*
X139140000Y-76489787D01*
X141439392Y-76489787D01*
X142240000Y-77290395D01*
X143040608Y-76489787D01*
X151599392Y-76489787D01*
X152400000Y-77290395D01*
X153200608Y-76489787D01*
X161759392Y-76489787D01*
X162560000Y-77290395D01*
X163360608Y-76489787D01*
X171919392Y-76489787D01*
X172720000Y-77290395D01*
X173520608Y-76489787D01*
X182079392Y-76489787D01*
X182880000Y-77290395D01*
X183680608Y-76489787D01*
X192239392Y-76489787D01*
X193040000Y-77290395D01*
X193840608Y-76489787D01*
X202399392Y-76489787D01*
X203200000Y-77290395D01*
X204000608Y-76489787D01*
X212559392Y-76489787D01*
X213360000Y-77290395D01*
X214160608Y-76489787D01*
X214091143Y-76247603D01*
X213567698Y-76060856D01*
X213012632Y-76088638D01*
X212628857Y-76247603D01*
X212559392Y-76489787D01*
X204000608Y-76489787D01*
X203931143Y-76247603D01*
X203407698Y-76060856D01*
X202852632Y-76088638D01*
X202468857Y-76247603D01*
X202399392Y-76489787D01*
X193840608Y-76489787D01*
X193771143Y-76247603D01*
X193247698Y-76060856D01*
X192692632Y-76088638D01*
X192308857Y-76247603D01*
X192239392Y-76489787D01*
X183680608Y-76489787D01*
X183611143Y-76247603D01*
X183087698Y-76060856D01*
X182532632Y-76088638D01*
X182148857Y-76247603D01*
X182079392Y-76489787D01*
X173520608Y-76489787D01*
X173451143Y-76247603D01*
X172927698Y-76060856D01*
X172372632Y-76088638D01*
X171988857Y-76247603D01*
X171919392Y-76489787D01*
X163360608Y-76489787D01*
X163291143Y-76247603D01*
X162767698Y-76060856D01*
X162212632Y-76088638D01*
X161828857Y-76247603D01*
X161759392Y-76489787D01*
X153200608Y-76489787D01*
X153131143Y-76247603D01*
X152607698Y-76060856D01*
X152052632Y-76088638D01*
X151668857Y-76247603D01*
X151599392Y-76489787D01*
X143040608Y-76489787D01*
X142971143Y-76247603D01*
X142447698Y-76060856D01*
X141892632Y-76088638D01*
X141508857Y-76247603D01*
X141439392Y-76489787D01*
X139140000Y-76489787D01*
X139140000Y-70409578D01*
X139354078Y-70927686D01*
X139889495Y-71464039D01*
X140589410Y-71754668D01*
X141347265Y-71755330D01*
X142047686Y-71465922D01*
X142584039Y-70930505D01*
X142874668Y-70230590D01*
X142875330Y-69472735D01*
X142585922Y-68772314D01*
X142393944Y-68580000D01*
X144132560Y-68580000D01*
X144132560Y-71120000D01*
X144176838Y-71355317D01*
X144315910Y-71571441D01*
X144528110Y-71716431D01*
X144780000Y-71767440D01*
X147320000Y-71767440D01*
X147555317Y-71723162D01*
X147771441Y-71584090D01*
X147916431Y-71371890D01*
X147967440Y-71120000D01*
X147967440Y-70227265D01*
X149224670Y-70227265D01*
X149514078Y-70927686D01*
X150049495Y-71464039D01*
X150749410Y-71754668D01*
X151507265Y-71755330D01*
X152207686Y-71465922D01*
X152744039Y-70930505D01*
X153034668Y-70230590D01*
X153035330Y-69472735D01*
X152745922Y-68772314D01*
X152553944Y-68580000D01*
X154292560Y-68580000D01*
X154292560Y-71120000D01*
X154336838Y-71355317D01*
X154475910Y-71571441D01*
X154688110Y-71716431D01*
X154940000Y-71767440D01*
X157480000Y-71767440D01*
X157715317Y-71723162D01*
X157931441Y-71584090D01*
X158076431Y-71371890D01*
X158127440Y-71120000D01*
X158127440Y-70227265D01*
X159384670Y-70227265D01*
X159674078Y-70927686D01*
X160209495Y-71464039D01*
X160909410Y-71754668D01*
X161667265Y-71755330D01*
X162367686Y-71465922D01*
X162904039Y-70930505D01*
X163194668Y-70230590D01*
X163195330Y-69472735D01*
X162905922Y-68772314D01*
X162713944Y-68580000D01*
X164452560Y-68580000D01*
X164452560Y-71120000D01*
X164496838Y-71355317D01*
X164635910Y-71571441D01*
X164848110Y-71716431D01*
X165100000Y-71767440D01*
X167640000Y-71767440D01*
X167875317Y-71723162D01*
X168091441Y-71584090D01*
X168236431Y-71371890D01*
X168287440Y-71120000D01*
X168287440Y-70227265D01*
X169544670Y-70227265D01*
X169834078Y-70927686D01*
X170369495Y-71464039D01*
X171069410Y-71754668D01*
X171827265Y-71755330D01*
X172527686Y-71465922D01*
X173064039Y-70930505D01*
X173354668Y-70230590D01*
X173355330Y-69472735D01*
X173065922Y-68772314D01*
X172873944Y-68580000D01*
X174612560Y-68580000D01*
X174612560Y-71120000D01*
X174656838Y-71355317D01*
X174795910Y-71571441D01*
X175008110Y-71716431D01*
X175260000Y-71767440D01*
X177800000Y-71767440D01*
X178035317Y-71723162D01*
X178251441Y-71584090D01*
X178396431Y-71371890D01*
X178447440Y-71120000D01*
X178447440Y-70227265D01*
X179704670Y-70227265D01*
X179994078Y-70927686D01*
X180529495Y-71464039D01*
X181229410Y-71754668D01*
X181987265Y-71755330D01*
X182687686Y-71465922D01*
X183224039Y-70930505D01*
X183514668Y-70230590D01*
X183515330Y-69472735D01*
X183225922Y-68772314D01*
X183033944Y-68580000D01*
X184772560Y-68580000D01*
X184772560Y-71120000D01*
X184816838Y-71355317D01*
X184955910Y-71571441D01*
X185168110Y-71716431D01*
X185420000Y-71767440D01*
X187960000Y-71767440D01*
X188195317Y-71723162D01*
X188411441Y-71584090D01*
X188556431Y-71371890D01*
X188607440Y-71120000D01*
X188607440Y-70227265D01*
X189864670Y-70227265D01*
X190154078Y-70927686D01*
X190689495Y-71464039D01*
X191389410Y-71754668D01*
X192147265Y-71755330D01*
X192847686Y-71465922D01*
X193384039Y-70930505D01*
X193674668Y-70230590D01*
X193675330Y-69472735D01*
X193385922Y-68772314D01*
X193193944Y-68580000D01*
X194932560Y-68580000D01*
X194932560Y-71120000D01*
X194976838Y-71355317D01*
X195115910Y-71571441D01*
X195328110Y-71716431D01*
X195580000Y-71767440D01*
X198120000Y-71767440D01*
X198355317Y-71723162D01*
X198571441Y-71584090D01*
X198716431Y-71371890D01*
X198767440Y-71120000D01*
X198767440Y-70227265D01*
X200024670Y-70227265D01*
X200314078Y-70927686D01*
X200849495Y-71464039D01*
X201549410Y-71754668D01*
X202307265Y-71755330D01*
X203007686Y-71465922D01*
X203544039Y-70930505D01*
X203834668Y-70230590D01*
X203835330Y-69472735D01*
X203545922Y-68772314D01*
X203353944Y-68580000D01*
X205092560Y-68580000D01*
X205092560Y-71120000D01*
X205136838Y-71355317D01*
X205275910Y-71571441D01*
X205488110Y-71716431D01*
X205740000Y-71767440D01*
X208280000Y-71767440D01*
X208515317Y-71723162D01*
X208731441Y-71584090D01*
X208876431Y-71371890D01*
X208927440Y-71120000D01*
X208927440Y-70227265D01*
X210184670Y-70227265D01*
X210474078Y-70927686D01*
X211009495Y-71464039D01*
X211709410Y-71754668D01*
X212467265Y-71755330D01*
X213167686Y-71465922D01*
X213704039Y-70930505D01*
X213994668Y-70230590D01*
X213995330Y-69472735D01*
X213705922Y-68772314D01*
X213170505Y-68235961D01*
X212470590Y-67945332D01*
X211712735Y-67944670D01*
X211012314Y-68234078D01*
X210475961Y-68769495D01*
X210185332Y-69469410D01*
X210184670Y-70227265D01*
X208927440Y-70227265D01*
X208927440Y-68580000D01*
X208883162Y-68344683D01*
X208744090Y-68128559D01*
X208531890Y-67983569D01*
X208280000Y-67932560D01*
X205740000Y-67932560D01*
X205504683Y-67976838D01*
X205288559Y-68115910D01*
X205143569Y-68328110D01*
X205092560Y-68580000D01*
X203353944Y-68580000D01*
X203010505Y-68235961D01*
X202310590Y-67945332D01*
X201552735Y-67944670D01*
X200852314Y-68234078D01*
X200315961Y-68769495D01*
X200025332Y-69469410D01*
X200024670Y-70227265D01*
X198767440Y-70227265D01*
X198767440Y-68580000D01*
X198723162Y-68344683D01*
X198584090Y-68128559D01*
X198371890Y-67983569D01*
X198120000Y-67932560D01*
X195580000Y-67932560D01*
X195344683Y-67976838D01*
X195128559Y-68115910D01*
X194983569Y-68328110D01*
X194932560Y-68580000D01*
X193193944Y-68580000D01*
X192850505Y-68235961D01*
X192150590Y-67945332D01*
X191392735Y-67944670D01*
X190692314Y-68234078D01*
X190155961Y-68769495D01*
X189865332Y-69469410D01*
X189864670Y-70227265D01*
X188607440Y-70227265D01*
X188607440Y-68580000D01*
X188563162Y-68344683D01*
X188424090Y-68128559D01*
X188211890Y-67983569D01*
X187960000Y-67932560D01*
X185420000Y-67932560D01*
X185184683Y-67976838D01*
X184968559Y-68115910D01*
X184823569Y-68328110D01*
X184772560Y-68580000D01*
X183033944Y-68580000D01*
X182690505Y-68235961D01*
X181990590Y-67945332D01*
X181232735Y-67944670D01*
X180532314Y-68234078D01*
X179995961Y-68769495D01*
X179705332Y-69469410D01*
X179704670Y-70227265D01*
X178447440Y-70227265D01*
X178447440Y-68580000D01*
X178403162Y-68344683D01*
X178264090Y-68128559D01*
X178051890Y-67983569D01*
X177800000Y-67932560D01*
X175260000Y-67932560D01*
X175024683Y-67976838D01*
X174808559Y-68115910D01*
X174663569Y-68328110D01*
X174612560Y-68580000D01*
X172873944Y-68580000D01*
X172530505Y-68235961D01*
X171830590Y-67945332D01*
X171072735Y-67944670D01*
X170372314Y-68234078D01*
X169835961Y-68769495D01*
X169545332Y-69469410D01*
X169544670Y-70227265D01*
X168287440Y-70227265D01*
X168287440Y-68580000D01*
X168243162Y-68344683D01*
X168104090Y-68128559D01*
X167891890Y-67983569D01*
X167640000Y-67932560D01*
X165100000Y-67932560D01*
X164864683Y-67976838D01*
X164648559Y-68115910D01*
X164503569Y-68328110D01*
X164452560Y-68580000D01*
X162713944Y-68580000D01*
X162370505Y-68235961D01*
X161670590Y-67945332D01*
X160912735Y-67944670D01*
X160212314Y-68234078D01*
X159675961Y-68769495D01*
X159385332Y-69469410D01*
X159384670Y-70227265D01*
X158127440Y-70227265D01*
X158127440Y-68580000D01*
X158083162Y-68344683D01*
X157944090Y-68128559D01*
X157731890Y-67983569D01*
X157480000Y-67932560D01*
X154940000Y-67932560D01*
X154704683Y-67976838D01*
X154488559Y-68115910D01*
X154343569Y-68328110D01*
X154292560Y-68580000D01*
X152553944Y-68580000D01*
X152210505Y-68235961D01*
X151510590Y-67945332D01*
X150752735Y-67944670D01*
X150052314Y-68234078D01*
X149515961Y-68769495D01*
X149225332Y-69469410D01*
X149224670Y-70227265D01*
X147967440Y-70227265D01*
X147967440Y-68580000D01*
X147923162Y-68344683D01*
X147784090Y-68128559D01*
X147571890Y-67983569D01*
X147320000Y-67932560D01*
X144780000Y-67932560D01*
X144544683Y-67976838D01*
X144328559Y-68115910D01*
X144183569Y-68328110D01*
X144132560Y-68580000D01*
X142393944Y-68580000D01*
X142050505Y-68235961D01*
X141350590Y-67945332D01*
X140592735Y-67944670D01*
X139892314Y-68234078D01*
X139355961Y-68769495D01*
X139140000Y-69289589D01*
X139140000Y-66750000D01*
X219000000Y-66750000D01*
X219000000Y-68277607D01*
X219000000Y-68277607D01*
G37*
X219000000Y-68277607D02*
X218904090Y-68128559D01*
X218691890Y-67983569D01*
X218440000Y-67932560D01*
X215900000Y-67932560D01*
X215664683Y-67976838D01*
X215448559Y-68115910D01*
X215303569Y-68328110D01*
X215252560Y-68580000D01*
X215252560Y-71120000D01*
X215296838Y-71355317D01*
X215435910Y-71571441D01*
X215648110Y-71716431D01*
X215900000Y-71767440D01*
X218440000Y-71767440D01*
X218675317Y-71723162D01*
X218891441Y-71584090D01*
X219000000Y-71425209D01*
X219000000Y-125020000D01*
X139140000Y-125020000D01*
X139140000Y-121549016D01*
X149180590Y-121549016D01*
X149236271Y-121779611D01*
X149719078Y-121947622D01*
X150229428Y-121918083D01*
X150563729Y-121779611D01*
X150619410Y-121549016D01*
X149900000Y-120829605D01*
X149180590Y-121549016D01*
X139140000Y-121549016D01*
X139140000Y-120469078D01*
X148602378Y-120469078D01*
X148631917Y-120979428D01*
X148770389Y-121313729D01*
X149000984Y-121369410D01*
X149720395Y-120650000D01*
X149000984Y-119930590D01*
X148770389Y-119986271D01*
X148602378Y-120469078D01*
X139140000Y-120469078D01*
X139140000Y-119750984D01*
X149180590Y-119750984D01*
X149900000Y-120470395D01*
X150619410Y-119750984D01*
X150563729Y-119520389D01*
X150080922Y-119352378D01*
X149570572Y-119381917D01*
X149236271Y-119520389D01*
X149180590Y-119750984D01*
X139140000Y-119750984D01*
X139140000Y-117217265D01*
X141604670Y-117217265D01*
X141894078Y-117917686D01*
X142429495Y-118454039D01*
X143129410Y-118744668D01*
X143887265Y-118745330D01*
X144587686Y-118455922D01*
X144808894Y-118235100D01*
X150905000Y-118235100D01*
X150905000Y-118639695D01*
X150904999Y-118639700D01*
X150946004Y-118845839D01*
X150972367Y-118978375D01*
X151140946Y-119230673D01*
X151164210Y-119265490D01*
X151381354Y-119482633D01*
X151298559Y-119535910D01*
X151153569Y-119748110D01*
X151102560Y-120000000D01*
X151102560Y-120162385D01*
X151029611Y-119986271D01*
X150799016Y-119930590D01*
X150079605Y-120650000D01*
X150799016Y-121369410D01*
X151029611Y-121313729D01*
X151102560Y-121104098D01*
X151102560Y-121300000D01*
X151146838Y-121535317D01*
X151285910Y-121751441D01*
X151498110Y-121896431D01*
X151750000Y-121947440D01*
X153050000Y-121947440D01*
X153285317Y-121903162D01*
X153501441Y-121764090D01*
X153646431Y-121551890D01*
X153697440Y-121300000D01*
X153697440Y-120000000D01*
X153653162Y-119764683D01*
X153514090Y-119548559D01*
X153301890Y-119403569D01*
X153285000Y-119400149D01*
X153285000Y-119249705D01*
X153285001Y-119249700D01*
X153217633Y-118911025D01*
X153174077Y-118845839D01*
X153025790Y-118623910D01*
X153025787Y-118623908D01*
X152675000Y-118273120D01*
X152675000Y-117997440D01*
X152790000Y-117997440D01*
X153025317Y-117953162D01*
X153241441Y-117814090D01*
X153386431Y-117601890D01*
X153437440Y-117350000D01*
X153437440Y-115850000D01*
X153393162Y-115614683D01*
X153377425Y-115590227D01*
X162159699Y-124372501D01*
X162406261Y-124537248D01*
X162697100Y-124595100D01*
X199887900Y-124595100D01*
X200178739Y-124537248D01*
X200425301Y-124372501D01*
X211738401Y-113059401D01*
X211903148Y-112812840D01*
X211928410Y-112685839D01*
X211961000Y-112522000D01*
X211961000Y-111238502D01*
X213248337Y-109951165D01*
X213247560Y-109955000D01*
X213247560Y-111155000D01*
X213291838Y-111390317D01*
X213398759Y-111556477D01*
X213298569Y-111703110D01*
X213247560Y-111955000D01*
X213247560Y-113155000D01*
X213291838Y-113390317D01*
X213398759Y-113556477D01*
X213298569Y-113703110D01*
X213247560Y-113955000D01*
X213247560Y-115155000D01*
X213291838Y-115390317D01*
X213398759Y-115556477D01*
X213298569Y-115703110D01*
X213247560Y-115955000D01*
X213247560Y-117155000D01*
X213291838Y-117390317D01*
X213398759Y-117556477D01*
X213298569Y-117703110D01*
X213247560Y-117955000D01*
X213247560Y-119155000D01*
X213291838Y-119390317D01*
X213398759Y-119556477D01*
X213298569Y-119703110D01*
X213279961Y-119795000D01*
X209581769Y-119795000D01*
X209454117Y-119486057D01*
X209191327Y-119222808D01*
X208847799Y-119080162D01*
X208475833Y-119079838D01*
X208132057Y-119221883D01*
X207868808Y-119484673D01*
X207726162Y-119828201D01*
X207725838Y-120200167D01*
X207867883Y-120543943D01*
X208130673Y-120807192D01*
X208474201Y-120949838D01*
X208521077Y-120949879D01*
X208663599Y-121092401D01*
X208910160Y-121257148D01*
X209201000Y-121315000D01*
X213277666Y-121315000D01*
X213291838Y-121390317D01*
X213398759Y-121556477D01*
X213298569Y-121703110D01*
X213247560Y-121955000D01*
X213247560Y-123155000D01*
X213291838Y-123390317D01*
X213430910Y-123606441D01*
X213643110Y-123751431D01*
X213895000Y-123802440D01*
X216895000Y-123802440D01*
X217130317Y-123758162D01*
X217346441Y-123619090D01*
X217491431Y-123406890D01*
X217542440Y-123155000D01*
X217542440Y-121955000D01*
X217498162Y-121719683D01*
X217391241Y-121553523D01*
X217491431Y-121406890D01*
X217542440Y-121155000D01*
X217542440Y-119955000D01*
X217498162Y-119719683D01*
X217391241Y-119553523D01*
X217491431Y-119406890D01*
X217542440Y-119155000D01*
X217542440Y-117955000D01*
X217498162Y-117719683D01*
X217391241Y-117553523D01*
X217491431Y-117406890D01*
X217542440Y-117155000D01*
X217542440Y-115955000D01*
X217498162Y-115719683D01*
X217391241Y-115553523D01*
X217491431Y-115406890D01*
X217542440Y-115155000D01*
X217542440Y-113955000D01*
X217498162Y-113719683D01*
X217391241Y-113553523D01*
X217491431Y-113406890D01*
X217542440Y-113155000D01*
X217542440Y-111955000D01*
X217498162Y-111719683D01*
X217391241Y-111553523D01*
X217491431Y-111406890D01*
X217542440Y-111155000D01*
X217542440Y-109955000D01*
X217498162Y-109719683D01*
X217391241Y-109553523D01*
X217491431Y-109406890D01*
X217542440Y-109155000D01*
X217542440Y-107955000D01*
X217498162Y-107719683D01*
X217359090Y-107503559D01*
X217146890Y-107358569D01*
X216895000Y-107307560D01*
X213895000Y-107307560D01*
X213659683Y-107351838D01*
X213443559Y-107490910D01*
X213298569Y-107703110D01*
X213266584Y-107861055D01*
X213032299Y-108017599D01*
X210663599Y-110386299D01*
X210498852Y-110632861D01*
X210441000Y-110923700D01*
X210441000Y-112207198D01*
X199573098Y-123075100D01*
X197842440Y-123075100D01*
X197842440Y-121955000D01*
X197798162Y-121719683D01*
X197691241Y-121553523D01*
X197791431Y-121406890D01*
X197842440Y-121155000D01*
X197842440Y-119955000D01*
X197798162Y-119719683D01*
X197691241Y-119553523D01*
X197791431Y-119406890D01*
X197842440Y-119155000D01*
X197842440Y-117955000D01*
X197798162Y-117719683D01*
X197691241Y-117553523D01*
X197791431Y-117406890D01*
X197842440Y-117155000D01*
X197842440Y-115955000D01*
X197798162Y-115719683D01*
X197691241Y-115553523D01*
X197791431Y-115406890D01*
X197842440Y-115155000D01*
X197842440Y-113955000D01*
X197798162Y-113719683D01*
X197692518Y-113555508D01*
X197733327Y-113514699D01*
X197830000Y-113281310D01*
X197830000Y-112840750D01*
X197671250Y-112682000D01*
X195822000Y-112682000D01*
X195822000Y-112702000D01*
X195568000Y-112702000D01*
X195568000Y-112682000D01*
X193718750Y-112682000D01*
X193560000Y-112840750D01*
X193560000Y-113281310D01*
X193656673Y-113514699D01*
X193698634Y-113556660D01*
X193598569Y-113703110D01*
X193579961Y-113795000D01*
X188245300Y-113795000D01*
X187954461Y-113852852D01*
X187707899Y-114017599D01*
X183987748Y-117737750D01*
X183959147Y-117694946D01*
X183629974Y-117475000D01*
X183959147Y-117255054D01*
X184281054Y-116773285D01*
X184394093Y-116205000D01*
X184281054Y-115636715D01*
X183959147Y-115154946D01*
X183477378Y-114833039D01*
X182909093Y-114720000D01*
X182850907Y-114720000D01*
X182282622Y-114833039D01*
X181800853Y-115154946D01*
X181611655Y-115438101D01*
X181611645Y-115438076D01*
X181221358Y-115009817D01*
X180696892Y-114763514D01*
X180467000Y-114884181D01*
X180467000Y-116078000D01*
X180487000Y-116078000D01*
X180487000Y-116332000D01*
X180467000Y-116332000D01*
X180467000Y-116352000D01*
X180213000Y-116352000D01*
X180213000Y-116332000D01*
X179019845Y-116332000D01*
X178898524Y-116561890D01*
X178994827Y-116794400D01*
X175735900Y-116794400D01*
X175493314Y-116842654D01*
X175445060Y-116852252D01*
X175198499Y-117016999D01*
X173337440Y-118878058D01*
X173337440Y-118400000D01*
X173313056Y-118270411D01*
X173337440Y-118150000D01*
X173337440Y-117600000D01*
X173317550Y-117494295D01*
X173325000Y-117476310D01*
X173325000Y-117360750D01*
X173228599Y-117264349D01*
X173154090Y-117148559D01*
X173046603Y-117075116D01*
X173141441Y-117014090D01*
X173230495Y-116883755D01*
X173325000Y-116789250D01*
X173325000Y-116673690D01*
X173316532Y-116653247D01*
X173337440Y-116550000D01*
X173337440Y-116235000D01*
X174085000Y-116235000D01*
X174375839Y-116177148D01*
X174622401Y-116012401D01*
X174786692Y-115848110D01*
X178898524Y-115848110D01*
X179019845Y-116078000D01*
X180213000Y-116078000D01*
X180213000Y-114884181D01*
X179983108Y-114763514D01*
X179458642Y-115009817D01*
X179068355Y-115438076D01*
X178898524Y-115848110D01*
X174786692Y-115848110D01*
X177702401Y-112932401D01*
X177867148Y-112685839D01*
X177925000Y-112395000D01*
X177925000Y-110927802D01*
X178278599Y-111281401D01*
X178525160Y-111446148D01*
X178816000Y-111504000D01*
X180594000Y-111504000D01*
X180884839Y-111446148D01*
X181131401Y-111281401D01*
X182772802Y-109640000D01*
X189637560Y-109640000D01*
X189637560Y-111340000D01*
X189681838Y-111575317D01*
X189820910Y-111791441D01*
X190033110Y-111936431D01*
X190285000Y-111987440D01*
X191985000Y-111987440D01*
X192220317Y-111943162D01*
X192436441Y-111804090D01*
X192581431Y-111591890D01*
X192619473Y-111404032D01*
X192800300Y-111440001D01*
X192800305Y-111440000D01*
X193623808Y-111440000D01*
X193697482Y-111554492D01*
X193656673Y-111595301D01*
X193560000Y-111828690D01*
X193560000Y-112269250D01*
X193718750Y-112428000D01*
X195568000Y-112428000D01*
X195568000Y-112408000D01*
X195822000Y-112408000D01*
X195822000Y-112428000D01*
X197671250Y-112428000D01*
X197830000Y-112269250D01*
X197830000Y-111828690D01*
X197733327Y-111595301D01*
X197691366Y-111553340D01*
X197791431Y-111406890D01*
X197842440Y-111155000D01*
X197842440Y-109955000D01*
X197798162Y-109719683D01*
X197692518Y-109555508D01*
X197733327Y-109514699D01*
X197830000Y-109281310D01*
X197830000Y-108840750D01*
X197671250Y-108682000D01*
X195822000Y-108682000D01*
X195822000Y-108702000D01*
X195568000Y-108702000D01*
X195568000Y-108682000D01*
X193718750Y-108682000D01*
X193560000Y-108840750D01*
X193560000Y-109281310D01*
X193656673Y-109514699D01*
X193698634Y-109556660D01*
X193621192Y-109670000D01*
X193062075Y-109670000D01*
X193017784Y-109661190D01*
X192735300Y-109604999D01*
X192735295Y-109605000D01*
X192625854Y-109605000D01*
X192588162Y-109404683D01*
X192449090Y-109188559D01*
X192236890Y-109043569D01*
X191985000Y-108992560D01*
X190285000Y-108992560D01*
X190049683Y-109036838D01*
X189833559Y-109175910D01*
X189688569Y-109388110D01*
X189637560Y-109640000D01*
X182772802Y-109640000D01*
X184584112Y-107828690D01*
X193560000Y-107828690D01*
X193560000Y-108269250D01*
X193718750Y-108428000D01*
X195568000Y-108428000D01*
X195568000Y-107478750D01*
X195822000Y-107478750D01*
X195822000Y-108428000D01*
X197671250Y-108428000D01*
X197830000Y-108269250D01*
X197830000Y-107828690D01*
X197733327Y-107595301D01*
X197554698Y-107416673D01*
X197321309Y-107320000D01*
X195980750Y-107320000D01*
X195822000Y-107478750D01*
X195568000Y-107478750D01*
X195409250Y-107320000D01*
X194068691Y-107320000D01*
X193835302Y-107416673D01*
X193656673Y-107595301D01*
X193560000Y-107828690D01*
X184584112Y-107828690D01*
X185861802Y-106551000D01*
X204760000Y-106551000D01*
X205050839Y-106493148D01*
X205297401Y-106328401D01*
X213223362Y-98402440D01*
X214065000Y-98402440D01*
X214300317Y-98358162D01*
X214516441Y-98219090D01*
X214661431Y-98006890D01*
X214712440Y-97755000D01*
X214712440Y-97440750D01*
X215830000Y-97440750D01*
X215830000Y-97881310D01*
X215926673Y-98114699D01*
X216105302Y-98293327D01*
X216338691Y-98390000D01*
X216629250Y-98390000D01*
X216788000Y-98231250D01*
X216788000Y-97282000D01*
X217042000Y-97282000D01*
X217042000Y-98231250D01*
X217200750Y-98390000D01*
X217491309Y-98390000D01*
X217724698Y-98293327D01*
X217903327Y-98114699D01*
X218000000Y-97881310D01*
X218000000Y-97440750D01*
X217841250Y-97282000D01*
X217042000Y-97282000D01*
X216788000Y-97282000D01*
X215988750Y-97282000D01*
X215830000Y-97440750D01*
X214712440Y-97440750D01*
X214712440Y-96555000D01*
X214688674Y-96428690D01*
X215830000Y-96428690D01*
X215830000Y-96869250D01*
X215988750Y-97028000D01*
X216788000Y-97028000D01*
X216788000Y-96078750D01*
X217042000Y-96078750D01*
X217042000Y-97028000D01*
X217841250Y-97028000D01*
X218000000Y-96869250D01*
X218000000Y-96428690D01*
X217903327Y-96195301D01*
X217724698Y-96016673D01*
X217491309Y-95920000D01*
X217200750Y-95920000D01*
X217042000Y-96078750D01*
X216788000Y-96078750D01*
X216629250Y-95920000D01*
X216338691Y-95920000D01*
X216105302Y-96016673D01*
X215926673Y-96195301D01*
X215830000Y-96428690D01*
X214688674Y-96428690D01*
X214668162Y-96319683D01*
X214529090Y-96103559D01*
X214316890Y-95958569D01*
X214065000Y-95907560D01*
X213987000Y-95907560D01*
X213987000Y-93962485D01*
X214150303Y-93895010D01*
X214543629Y-93502370D01*
X214756757Y-92989100D01*
X214757242Y-92433339D01*
X214545010Y-91919697D01*
X214152370Y-91526371D01*
X213639100Y-91313243D01*
X213083339Y-91312758D01*
X212569697Y-91524990D01*
X212176371Y-91917630D01*
X211963243Y-92430900D01*
X211962758Y-92986661D01*
X212174990Y-93500303D01*
X212467000Y-93792823D01*
X212467000Y-97009198D01*
X204445198Y-105031000D01*
X185547000Y-105031000D01*
X185256161Y-105088852D01*
X185009599Y-105253599D01*
X180606440Y-109656758D01*
X180606440Y-108648500D01*
X180590000Y-108561129D01*
X180590000Y-107569005D01*
X180590001Y-107569000D01*
X180522633Y-107230325D01*
X180330790Y-106943210D01*
X180330787Y-106943208D01*
X180076790Y-106689210D01*
X179928071Y-106589840D01*
X179789675Y-106497367D01*
X179731519Y-106485799D01*
X179451000Y-106429999D01*
X179450995Y-106430000D01*
X168275005Y-106430000D01*
X168275000Y-106429999D01*
X167957535Y-106493148D01*
X167936325Y-106497367D01*
X167649210Y-106689210D01*
X167649208Y-106689213D01*
X167612166Y-106726255D01*
X167492057Y-106775883D01*
X167228808Y-107038673D01*
X167086162Y-107382201D01*
X167085838Y-107754167D01*
X167227883Y-108097943D01*
X167490673Y-108361192D01*
X167834201Y-108503838D01*
X168206167Y-108504162D01*
X168549943Y-108362117D01*
X168712343Y-108200000D01*
X170098907Y-108200000D01*
X169964569Y-108396610D01*
X169913560Y-108648500D01*
X169913560Y-109791500D01*
X169957838Y-110026817D01*
X170096910Y-110242941D01*
X170309110Y-110387931D01*
X170561000Y-110438940D01*
X171069000Y-110438940D01*
X171304317Y-110394662D01*
X171450907Y-110300334D01*
X171579110Y-110387931D01*
X171831000Y-110438940D01*
X172339000Y-110438940D01*
X172574317Y-110394662D01*
X172595000Y-110381353D01*
X172595000Y-111064198D01*
X171342131Y-112317067D01*
X171318162Y-112189683D01*
X171179090Y-111973559D01*
X170966890Y-111828569D01*
X170715000Y-111777560D01*
X170165000Y-111777560D01*
X170035411Y-111801944D01*
X169915000Y-111777560D01*
X169365000Y-111777560D01*
X169235411Y-111801944D01*
X169115000Y-111777560D01*
X168565000Y-111777560D01*
X168435411Y-111801944D01*
X168315000Y-111777560D01*
X167765000Y-111777560D01*
X167635411Y-111801944D01*
X167515000Y-111777560D01*
X166965000Y-111777560D01*
X166835411Y-111801944D01*
X166715000Y-111777560D01*
X166165000Y-111777560D01*
X166035411Y-111801944D01*
X165915000Y-111777560D01*
X165600000Y-111777560D01*
X165600000Y-107635802D01*
X166001680Y-107234122D01*
X166047167Y-107234162D01*
X166390943Y-107092117D01*
X166654192Y-106829327D01*
X166796838Y-106485799D01*
X166797162Y-106113833D01*
X166655117Y-105770057D01*
X166392327Y-105506808D01*
X166048799Y-105364162D01*
X165676833Y-105363838D01*
X165333057Y-105505883D01*
X165069808Y-105768673D01*
X164927162Y-106112201D01*
X164927121Y-106159077D01*
X164302599Y-106783599D01*
X164137852Y-107030161D01*
X164080000Y-107321000D01*
X164080000Y-112010025D01*
X163968569Y-112173110D01*
X163917560Y-112425000D01*
X163917560Y-113752560D01*
X162590000Y-113752560D01*
X162354683Y-113796838D01*
X162138559Y-113935910D01*
X161993569Y-114148110D01*
X161942560Y-114400000D01*
X161942560Y-114950000D01*
X161966944Y-115079589D01*
X161942560Y-115200000D01*
X161942560Y-115750000D01*
X161962450Y-115855705D01*
X161955000Y-115873690D01*
X161955000Y-115989250D01*
X162051401Y-116085651D01*
X162125910Y-116201441D01*
X162233397Y-116274884D01*
X162141527Y-116334000D01*
X159710304Y-116334000D01*
X159737440Y-116200000D01*
X159737440Y-112400000D01*
X159693162Y-112164683D01*
X159554090Y-111948559D01*
X159341890Y-111803569D01*
X159090000Y-111752560D01*
X157090000Y-111752560D01*
X156854683Y-111796838D01*
X156638559Y-111935910D01*
X156493569Y-112148110D01*
X156442560Y-112400000D01*
X156442560Y-116200000D01*
X156467774Y-116334000D01*
X156270802Y-116334000D01*
X153875300Y-113938498D01*
X153875300Y-109005600D01*
X153817448Y-108714761D01*
X153652701Y-108468199D01*
X152911965Y-107727463D01*
X153011431Y-107581890D01*
X153062440Y-107330000D01*
X153062440Y-106030000D01*
X153018162Y-105794683D01*
X152879090Y-105578559D01*
X152666890Y-105433569D01*
X152415000Y-105382560D01*
X151115000Y-105382560D01*
X150879683Y-105426838D01*
X150663559Y-105565910D01*
X150518569Y-105778110D01*
X150467560Y-106030000D01*
X150467560Y-106192385D01*
X150394611Y-106016271D01*
X150164016Y-105960590D01*
X149444605Y-106680000D01*
X150164016Y-107399410D01*
X150394611Y-107343729D01*
X150467560Y-107134098D01*
X150467560Y-107330000D01*
X150511838Y-107565317D01*
X150650910Y-107781441D01*
X150863110Y-107926431D01*
X151078879Y-107970125D01*
X151227599Y-108192701D01*
X152355300Y-109320402D01*
X152355300Y-110615000D01*
X152075750Y-110615000D01*
X151917000Y-110773750D01*
X151917000Y-111873000D01*
X151937000Y-111873000D01*
X151937000Y-112127000D01*
X151917000Y-112127000D01*
X151917000Y-112147000D01*
X151663000Y-112147000D01*
X151663000Y-112127000D01*
X150313750Y-112127000D01*
X150155000Y-112285750D01*
X150155000Y-112876310D01*
X150251673Y-113109699D01*
X150293634Y-113151660D01*
X150193569Y-113298110D01*
X150142560Y-113550000D01*
X150142560Y-115050000D01*
X150186838Y-115285317D01*
X150293759Y-115451477D01*
X150193569Y-115598110D01*
X150142560Y-115850000D01*
X150142560Y-116465100D01*
X145415328Y-116465100D01*
X145415330Y-116462735D01*
X145125922Y-115762314D01*
X144590505Y-115225961D01*
X143890590Y-114935332D01*
X143132735Y-114934670D01*
X142432314Y-115224078D01*
X141895961Y-115759495D01*
X141605332Y-116459410D01*
X141604670Y-117217265D01*
X139140000Y-117217265D01*
X139140000Y-112045750D01*
X141605000Y-112045750D01*
X141605000Y-113156309D01*
X141701673Y-113389698D01*
X141880301Y-113568327D01*
X142113690Y-113665000D01*
X143224250Y-113665000D01*
X143383000Y-113506250D01*
X143383000Y-111887000D01*
X143637000Y-111887000D01*
X143637000Y-113506250D01*
X143795750Y-113665000D01*
X144906310Y-113665000D01*
X145139699Y-113568327D01*
X145318327Y-113389698D01*
X145415000Y-113156309D01*
X145415000Y-112045750D01*
X145256250Y-111887000D01*
X143637000Y-111887000D01*
X143383000Y-111887000D01*
X141763750Y-111887000D01*
X141605000Y-112045750D01*
X139140000Y-112045750D01*
X139140000Y-110363691D01*
X141605000Y-110363691D01*
X141605000Y-111474250D01*
X141763750Y-111633000D01*
X143383000Y-111633000D01*
X143383000Y-110013750D01*
X143637000Y-110013750D01*
X143637000Y-111633000D01*
X145256250Y-111633000D01*
X145415000Y-111474250D01*
X145415000Y-111123690D01*
X150155000Y-111123690D01*
X150155000Y-111714250D01*
X150313750Y-111873000D01*
X151663000Y-111873000D01*
X151663000Y-110773750D01*
X151504250Y-110615000D01*
X150663691Y-110615000D01*
X150430302Y-110711673D01*
X150251673Y-110890301D01*
X150155000Y-111123690D01*
X145415000Y-111123690D01*
X145415000Y-110363691D01*
X145318327Y-110130302D01*
X145139699Y-109951673D01*
X144906310Y-109855000D01*
X143795750Y-109855000D01*
X143637000Y-110013750D01*
X143383000Y-110013750D01*
X143224250Y-109855000D01*
X142113690Y-109855000D01*
X141880301Y-109951673D01*
X141701673Y-110130302D01*
X141605000Y-110363691D01*
X139140000Y-110363691D01*
X139140000Y-107579016D01*
X148545590Y-107579016D01*
X148601271Y-107809611D01*
X149084078Y-107977622D01*
X149594428Y-107948083D01*
X149928729Y-107809611D01*
X149984410Y-107579016D01*
X149265000Y-106859605D01*
X148545590Y-107579016D01*
X139140000Y-107579016D01*
X139140000Y-106499078D01*
X147967378Y-106499078D01*
X147996917Y-107009428D01*
X148135389Y-107343729D01*
X148365984Y-107399410D01*
X149085395Y-106680000D01*
X148365984Y-105960590D01*
X148135389Y-106016271D01*
X147967378Y-106499078D01*
X139140000Y-106499078D01*
X139140000Y-105780984D01*
X148545590Y-105780984D01*
X149265000Y-106500395D01*
X149984410Y-105780984D01*
X149928729Y-105550389D01*
X149445922Y-105382378D01*
X148935572Y-105411917D01*
X148601271Y-105550389D01*
X148545590Y-105780984D01*
X139140000Y-105780984D01*
X139140000Y-103155750D01*
X169926000Y-103155750D01*
X169926000Y-103567810D01*
X170022673Y-103801199D01*
X170201302Y-103979827D01*
X170434691Y-104076500D01*
X170529250Y-104076500D01*
X170688000Y-103917750D01*
X170688000Y-102997000D01*
X170084750Y-102997000D01*
X169926000Y-103155750D01*
X139140000Y-103155750D01*
X139140000Y-102172190D01*
X169926000Y-102172190D01*
X169926000Y-102584250D01*
X170084750Y-102743000D01*
X170688000Y-102743000D01*
X170688000Y-101822250D01*
X170529250Y-101663500D01*
X170434691Y-101663500D01*
X170201302Y-101760173D01*
X170022673Y-101938801D01*
X169926000Y-102172190D01*
X139140000Y-102172190D01*
X139140000Y-92986661D01*
X140842758Y-92986661D01*
X141054990Y-93500303D01*
X141447630Y-93893629D01*
X141735000Y-94012955D01*
X141735000Y-95999895D01*
X141593559Y-96090910D01*
X141448569Y-96303110D01*
X141397560Y-96555000D01*
X141397560Y-97755000D01*
X141441838Y-97990317D01*
X141580910Y-98206441D01*
X141793110Y-98351431D01*
X142045000Y-98402440D01*
X142158638Y-98402440D01*
X145004599Y-101248401D01*
X145251161Y-101413148D01*
X145542000Y-101471000D01*
X171008198Y-101471000D01*
X171204509Y-101667311D01*
X171195309Y-101663500D01*
X171100750Y-101663500D01*
X170942000Y-101822250D01*
X170942000Y-102743000D01*
X170962000Y-102743000D01*
X170962000Y-102997000D01*
X170942000Y-102997000D01*
X170942000Y-103917750D01*
X171100750Y-104076500D01*
X171195309Y-104076500D01*
X171428698Y-103979827D01*
X171455235Y-103953291D01*
X171579110Y-104037931D01*
X171831000Y-104088940D01*
X172339000Y-104088940D01*
X172574317Y-104044662D01*
X172720907Y-103950334D01*
X172849110Y-104037931D01*
X173101000Y-104088940D01*
X173609000Y-104088940D01*
X173844317Y-104044662D01*
X173990907Y-103950334D01*
X174119110Y-104037931D01*
X174371000Y-104088940D01*
X174879000Y-104088940D01*
X175114317Y-104044662D01*
X175260907Y-103950334D01*
X175389110Y-104037931D01*
X175641000Y-104088940D01*
X176149000Y-104088940D01*
X176384317Y-104044662D01*
X176530907Y-103950334D01*
X176659110Y-104037931D01*
X176911000Y-104088940D01*
X177419000Y-104088940D01*
X177654317Y-104044662D01*
X177800907Y-103950334D01*
X177929110Y-104037931D01*
X178181000Y-104088940D01*
X178689000Y-104088940D01*
X178924317Y-104044662D01*
X179070907Y-103950334D01*
X179199110Y-104037931D01*
X179451000Y-104088940D01*
X179959000Y-104088940D01*
X180194317Y-104044662D01*
X180410441Y-103905590D01*
X180555431Y-103693390D01*
X180606440Y-103441500D01*
X180606440Y-102733200D01*
X198442800Y-102733200D01*
X198733639Y-102675348D01*
X198980201Y-102510601D01*
X203088362Y-98402440D01*
X203905000Y-98402440D01*
X204140317Y-98358162D01*
X204356441Y-98219090D01*
X204501431Y-98006890D01*
X204552440Y-97755000D01*
X204552440Y-97440750D01*
X205670000Y-97440750D01*
X205670000Y-97881310D01*
X205766673Y-98114699D01*
X205945302Y-98293327D01*
X206178691Y-98390000D01*
X206469250Y-98390000D01*
X206628000Y-98231250D01*
X206628000Y-97282000D01*
X206882000Y-97282000D01*
X206882000Y-98231250D01*
X207040750Y-98390000D01*
X207331309Y-98390000D01*
X207564698Y-98293327D01*
X207743327Y-98114699D01*
X207840000Y-97881310D01*
X207840000Y-97440750D01*
X207681250Y-97282000D01*
X206882000Y-97282000D01*
X206628000Y-97282000D01*
X205828750Y-97282000D01*
X205670000Y-97440750D01*
X204552440Y-97440750D01*
X204552440Y-96555000D01*
X204528674Y-96428690D01*
X205670000Y-96428690D01*
X205670000Y-96869250D01*
X205828750Y-97028000D01*
X206628000Y-97028000D01*
X206628000Y-96078750D01*
X206882000Y-96078750D01*
X206882000Y-97028000D01*
X207681250Y-97028000D01*
X207840000Y-96869250D01*
X207840000Y-96428690D01*
X207743327Y-96195301D01*
X207564698Y-96016673D01*
X207331309Y-95920000D01*
X207040750Y-95920000D01*
X206882000Y-96078750D01*
X206628000Y-96078750D01*
X206469250Y-95920000D01*
X206178691Y-95920000D01*
X205945302Y-96016673D01*
X205766673Y-96195301D01*
X205670000Y-96428690D01*
X204528674Y-96428690D01*
X204508162Y-96319683D01*
X204369090Y-96103559D01*
X204156890Y-95958569D01*
X203905000Y-95907560D01*
X203827000Y-95907560D01*
X203827000Y-93962485D01*
X203990303Y-93895010D01*
X204383629Y-93502370D01*
X204596757Y-92989100D01*
X204597242Y-92433339D01*
X204385010Y-91919697D01*
X203992370Y-91526371D01*
X203479100Y-91313243D01*
X202923339Y-91312758D01*
X202409697Y-91524990D01*
X202016371Y-91917630D01*
X201803243Y-92430900D01*
X201802758Y-92986661D01*
X202014990Y-93500303D01*
X202307000Y-93792823D01*
X202307000Y-97034198D01*
X198127998Y-101213200D01*
X190092602Y-101213200D01*
X192903362Y-98402440D01*
X193745000Y-98402440D01*
X193980317Y-98358162D01*
X194196441Y-98219090D01*
X194341431Y-98006890D01*
X194392440Y-97755000D01*
X194392440Y-97440750D01*
X195510000Y-97440750D01*
X195510000Y-97881310D01*
X195606673Y-98114699D01*
X195785302Y-98293327D01*
X196018691Y-98390000D01*
X196309250Y-98390000D01*
X196468000Y-98231250D01*
X196468000Y-97282000D01*
X196722000Y-97282000D01*
X196722000Y-98231250D01*
X196880750Y-98390000D01*
X197171309Y-98390000D01*
X197404698Y-98293327D01*
X197583327Y-98114699D01*
X197680000Y-97881310D01*
X197680000Y-97440750D01*
X197521250Y-97282000D01*
X196722000Y-97282000D01*
X196468000Y-97282000D01*
X195668750Y-97282000D01*
X195510000Y-97440750D01*
X194392440Y-97440750D01*
X194392440Y-96555000D01*
X194368674Y-96428690D01*
X195510000Y-96428690D01*
X195510000Y-96869250D01*
X195668750Y-97028000D01*
X196468000Y-97028000D01*
X196468000Y-96078750D01*
X196722000Y-96078750D01*
X196722000Y-97028000D01*
X197521250Y-97028000D01*
X197680000Y-96869250D01*
X197680000Y-96428690D01*
X197583327Y-96195301D01*
X197404698Y-96016673D01*
X197171309Y-95920000D01*
X196880750Y-95920000D01*
X196722000Y-96078750D01*
X196468000Y-96078750D01*
X196309250Y-95920000D01*
X196018691Y-95920000D01*
X195785302Y-96016673D01*
X195606673Y-96195301D01*
X195510000Y-96428690D01*
X194368674Y-96428690D01*
X194348162Y-96319683D01*
X194209090Y-96103559D01*
X193996890Y-95958569D01*
X193745000Y-95907560D01*
X193667000Y-95907560D01*
X193667000Y-93962485D01*
X193830303Y-93895010D01*
X194223629Y-93502370D01*
X194436757Y-92989100D01*
X194437242Y-92433339D01*
X194225010Y-91919697D01*
X193832370Y-91526371D01*
X193319100Y-91313243D01*
X192763339Y-91312758D01*
X192249697Y-91524990D01*
X191856371Y-91917630D01*
X191643243Y-92430900D01*
X191642758Y-92986661D01*
X191854990Y-93500303D01*
X192147000Y-93792823D01*
X192147000Y-97009198D01*
X188972798Y-100183400D01*
X180037402Y-100183400D01*
X182140039Y-98080763D01*
X182220910Y-98206441D01*
X182433110Y-98351431D01*
X182685000Y-98402440D01*
X183585000Y-98402440D01*
X183820317Y-98358162D01*
X184036441Y-98219090D01*
X184181431Y-98006890D01*
X184232440Y-97755000D01*
X184232440Y-97440750D01*
X185350000Y-97440750D01*
X185350000Y-97881310D01*
X185446673Y-98114699D01*
X185625302Y-98293327D01*
X185858691Y-98390000D01*
X186149250Y-98390000D01*
X186308000Y-98231250D01*
X186308000Y-97282000D01*
X186562000Y-97282000D01*
X186562000Y-98231250D01*
X186720750Y-98390000D01*
X187011309Y-98390000D01*
X187244698Y-98293327D01*
X187423327Y-98114699D01*
X187520000Y-97881310D01*
X187520000Y-97440750D01*
X187361250Y-97282000D01*
X186562000Y-97282000D01*
X186308000Y-97282000D01*
X185508750Y-97282000D01*
X185350000Y-97440750D01*
X184232440Y-97440750D01*
X184232440Y-96555000D01*
X184208674Y-96428690D01*
X185350000Y-96428690D01*
X185350000Y-96869250D01*
X185508750Y-97028000D01*
X186308000Y-97028000D01*
X186308000Y-96078750D01*
X186562000Y-96078750D01*
X186562000Y-97028000D01*
X187361250Y-97028000D01*
X187520000Y-96869250D01*
X187520000Y-96428690D01*
X187423327Y-96195301D01*
X187244698Y-96016673D01*
X187011309Y-95920000D01*
X186720750Y-95920000D01*
X186562000Y-96078750D01*
X186308000Y-96078750D01*
X186149250Y-95920000D01*
X185858691Y-95920000D01*
X185625302Y-96016673D01*
X185446673Y-96195301D01*
X185350000Y-96428690D01*
X184208674Y-96428690D01*
X184188162Y-96319683D01*
X184049090Y-96103559D01*
X183836890Y-95958569D01*
X183585000Y-95907560D01*
X183507000Y-95907560D01*
X183507000Y-93962485D01*
X183670303Y-93895010D01*
X184063629Y-93502370D01*
X184276757Y-92989100D01*
X184277242Y-92433339D01*
X184065010Y-91919697D01*
X183672370Y-91526371D01*
X183159100Y-91313243D01*
X182603339Y-91312758D01*
X182089697Y-91524990D01*
X181696371Y-91917630D01*
X181483243Y-92430900D01*
X181482758Y-92986661D01*
X181694990Y-93500303D01*
X181987000Y-93792823D01*
X181987000Y-96395796D01*
X181700161Y-96452852D01*
X181453599Y-96617599D01*
X176655000Y-101416198D01*
X176655000Y-100076000D01*
X176597148Y-99785161D01*
X176432401Y-99538599D01*
X174334552Y-97440750D01*
X175190000Y-97440750D01*
X175190000Y-97881310D01*
X175286673Y-98114699D01*
X175465302Y-98293327D01*
X175698691Y-98390000D01*
X175989250Y-98390000D01*
X176148000Y-98231250D01*
X176148000Y-97282000D01*
X176402000Y-97282000D01*
X176402000Y-98231250D01*
X176560750Y-98390000D01*
X176851309Y-98390000D01*
X177084698Y-98293327D01*
X177263327Y-98114699D01*
X177360000Y-97881310D01*
X177360000Y-97440750D01*
X177201250Y-97282000D01*
X176402000Y-97282000D01*
X176148000Y-97282000D01*
X175348750Y-97282000D01*
X175190000Y-97440750D01*
X174334552Y-97440750D01*
X174072440Y-97178638D01*
X174072440Y-96555000D01*
X174048674Y-96428690D01*
X175190000Y-96428690D01*
X175190000Y-96869250D01*
X175348750Y-97028000D01*
X176148000Y-97028000D01*
X176148000Y-96078750D01*
X176402000Y-96078750D01*
X176402000Y-97028000D01*
X177201250Y-97028000D01*
X177360000Y-96869250D01*
X177360000Y-96428690D01*
X177263327Y-96195301D01*
X177084698Y-96016673D01*
X176851309Y-95920000D01*
X176560750Y-95920000D01*
X176402000Y-96078750D01*
X176148000Y-96078750D01*
X175989250Y-95920000D01*
X175698691Y-95920000D01*
X175465302Y-96016673D01*
X175286673Y-96195301D01*
X175190000Y-96428690D01*
X174048674Y-96428690D01*
X174028162Y-96319683D01*
X173889090Y-96103559D01*
X173735000Y-95998274D01*
X173735000Y-93670705D01*
X173903629Y-93502370D01*
X174116757Y-92989100D01*
X174117242Y-92433339D01*
X173905010Y-91919697D01*
X173512370Y-91526371D01*
X172999100Y-91313243D01*
X172443339Y-91312758D01*
X171929697Y-91524990D01*
X171536371Y-91917630D01*
X171323243Y-92430900D01*
X171322758Y-92986661D01*
X171534990Y-93500303D01*
X171927630Y-93893629D01*
X172215000Y-94012955D01*
X172215000Y-95999895D01*
X172073559Y-96090910D01*
X171928569Y-96303110D01*
X171877560Y-96555000D01*
X171877560Y-97755000D01*
X171921838Y-97990317D01*
X171957669Y-98046000D01*
X167131783Y-98046000D01*
X167200000Y-97881310D01*
X167200000Y-97440750D01*
X167041250Y-97282000D01*
X166242000Y-97282000D01*
X166242000Y-97302000D01*
X165988000Y-97302000D01*
X165988000Y-97282000D01*
X165188750Y-97282000D01*
X165030000Y-97440750D01*
X165030000Y-97881310D01*
X165098217Y-98046000D01*
X164780802Y-98046000D01*
X163912440Y-97177638D01*
X163912440Y-96555000D01*
X163888674Y-96428690D01*
X165030000Y-96428690D01*
X165030000Y-96869250D01*
X165188750Y-97028000D01*
X165988000Y-97028000D01*
X165988000Y-96078750D01*
X166242000Y-96078750D01*
X166242000Y-97028000D01*
X167041250Y-97028000D01*
X167200000Y-96869250D01*
X167200000Y-96428690D01*
X167103327Y-96195301D01*
X166924698Y-96016673D01*
X166691309Y-95920000D01*
X166400750Y-95920000D01*
X166242000Y-96078750D01*
X165988000Y-96078750D01*
X165829250Y-95920000D01*
X165538691Y-95920000D01*
X165305302Y-96016673D01*
X165126673Y-96195301D01*
X165030000Y-96428690D01*
X163888674Y-96428690D01*
X163868162Y-96319683D01*
X163729090Y-96103559D01*
X163575000Y-95998274D01*
X163575000Y-93670705D01*
X163743629Y-93502370D01*
X163956757Y-92989100D01*
X163957242Y-92433339D01*
X163745010Y-91919697D01*
X163352370Y-91526371D01*
X162839100Y-91313243D01*
X162283339Y-91312758D01*
X161769697Y-91524990D01*
X161376371Y-91917630D01*
X161163243Y-92430900D01*
X161162758Y-92986661D01*
X161374990Y-93500303D01*
X161767630Y-93893629D01*
X162055000Y-94012955D01*
X162055000Y-95999895D01*
X161913559Y-96090910D01*
X161768569Y-96303110D01*
X161717560Y-96555000D01*
X161717560Y-97755000D01*
X161761838Y-97990317D01*
X161900910Y-98206441D01*
X162113110Y-98351431D01*
X162365000Y-98402440D01*
X162987638Y-98402440D01*
X163647198Y-99062000D01*
X155636802Y-99062000D01*
X154015552Y-97440750D01*
X154870000Y-97440750D01*
X154870000Y-97881310D01*
X154966673Y-98114699D01*
X155145302Y-98293327D01*
X155378691Y-98390000D01*
X155669250Y-98390000D01*
X155828000Y-98231250D01*
X155828000Y-97282000D01*
X156082000Y-97282000D01*
X156082000Y-98231250D01*
X156240750Y-98390000D01*
X156531309Y-98390000D01*
X156764698Y-98293327D01*
X156943327Y-98114699D01*
X157040000Y-97881310D01*
X157040000Y-97440750D01*
X156881250Y-97282000D01*
X156082000Y-97282000D01*
X155828000Y-97282000D01*
X155028750Y-97282000D01*
X154870000Y-97440750D01*
X154015552Y-97440750D01*
X153752440Y-97177638D01*
X153752440Y-96555000D01*
X153728674Y-96428690D01*
X154870000Y-96428690D01*
X154870000Y-96869250D01*
X155028750Y-97028000D01*
X155828000Y-97028000D01*
X155828000Y-96078750D01*
X156082000Y-96078750D01*
X156082000Y-97028000D01*
X156881250Y-97028000D01*
X157040000Y-96869250D01*
X157040000Y-96428690D01*
X156943327Y-96195301D01*
X156764698Y-96016673D01*
X156531309Y-95920000D01*
X156240750Y-95920000D01*
X156082000Y-96078750D01*
X155828000Y-96078750D01*
X155669250Y-95920000D01*
X155378691Y-95920000D01*
X155145302Y-96016673D01*
X154966673Y-96195301D01*
X154870000Y-96428690D01*
X153728674Y-96428690D01*
X153708162Y-96319683D01*
X153569090Y-96103559D01*
X153415000Y-95998274D01*
X153415000Y-93670705D01*
X153583629Y-93502370D01*
X153796757Y-92989100D01*
X153797242Y-92433339D01*
X153585010Y-91919697D01*
X153192370Y-91526371D01*
X152679100Y-91313243D01*
X152123339Y-91312758D01*
X151609697Y-91524990D01*
X151216371Y-91917630D01*
X151003243Y-92430900D01*
X151002758Y-92986661D01*
X151214990Y-93500303D01*
X151607630Y-93893629D01*
X151895000Y-94012955D01*
X151895000Y-95999895D01*
X151753559Y-96090910D01*
X151608569Y-96303110D01*
X151557560Y-96555000D01*
X151557560Y-97755000D01*
X151601838Y-97990317D01*
X151740910Y-98206441D01*
X151953110Y-98351431D01*
X152205000Y-98402440D01*
X152827638Y-98402440D01*
X154376198Y-99951000D01*
X145856802Y-99951000D01*
X143681996Y-97776194D01*
X143807401Y-97692401D01*
X143972148Y-97445839D01*
X143973160Y-97440750D01*
X144710000Y-97440750D01*
X144710000Y-97881310D01*
X144806673Y-98114699D01*
X144985302Y-98293327D01*
X145218691Y-98390000D01*
X145509250Y-98390000D01*
X145668000Y-98231250D01*
X145668000Y-97282000D01*
X145922000Y-97282000D01*
X145922000Y-98231250D01*
X146080750Y-98390000D01*
X146371309Y-98390000D01*
X146604698Y-98293327D01*
X146783327Y-98114699D01*
X146880000Y-97881310D01*
X146880000Y-97440750D01*
X146721250Y-97282000D01*
X145922000Y-97282000D01*
X145668000Y-97282000D01*
X144868750Y-97282000D01*
X144710000Y-97440750D01*
X143973160Y-97440750D01*
X144030000Y-97155000D01*
X143972148Y-96864161D01*
X143807401Y-96617599D01*
X143575000Y-96462314D01*
X143568674Y-96428690D01*
X144710000Y-96428690D01*
X144710000Y-96869250D01*
X144868750Y-97028000D01*
X145668000Y-97028000D01*
X145668000Y-96078750D01*
X145922000Y-96078750D01*
X145922000Y-97028000D01*
X146721250Y-97028000D01*
X146880000Y-96869250D01*
X146880000Y-96428690D01*
X146783327Y-96195301D01*
X146604698Y-96016673D01*
X146371309Y-95920000D01*
X146080750Y-95920000D01*
X145922000Y-96078750D01*
X145668000Y-96078750D01*
X145509250Y-95920000D01*
X145218691Y-95920000D01*
X144985302Y-96016673D01*
X144806673Y-96195301D01*
X144710000Y-96428690D01*
X143568674Y-96428690D01*
X143548162Y-96319683D01*
X143409090Y-96103559D01*
X143255000Y-95998274D01*
X143255000Y-93670705D01*
X143423629Y-93502370D01*
X143636757Y-92989100D01*
X143637242Y-92433339D01*
X143425010Y-91919697D01*
X143032370Y-91526371D01*
X142519100Y-91313243D01*
X141963339Y-91312758D01*
X141449697Y-91524990D01*
X141056371Y-91917630D01*
X140843243Y-92430900D01*
X140842758Y-92986661D01*
X139140000Y-92986661D01*
X139140000Y-87906661D01*
X140842758Y-87906661D01*
X141054990Y-88420303D01*
X141447630Y-88813629D01*
X141960900Y-89026757D01*
X142516661Y-89027242D01*
X143030303Y-88815010D01*
X143423629Y-88422370D01*
X143636757Y-87909100D01*
X143636759Y-87906661D01*
X151002758Y-87906661D01*
X151214990Y-88420303D01*
X151607630Y-88813629D01*
X152120900Y-89026757D01*
X152676661Y-89027242D01*
X153190303Y-88815010D01*
X153583629Y-88422370D01*
X153796757Y-87909100D01*
X153796759Y-87906661D01*
X161162758Y-87906661D01*
X161374990Y-88420303D01*
X161767630Y-88813629D01*
X162280900Y-89026757D01*
X162836661Y-89027242D01*
X163350303Y-88815010D01*
X163743629Y-88422370D01*
X163956757Y-87909100D01*
X163956759Y-87906661D01*
X171322758Y-87906661D01*
X171534990Y-88420303D01*
X171927630Y-88813629D01*
X172440900Y-89026757D01*
X172996661Y-89027242D01*
X173510303Y-88815010D01*
X173903629Y-88422370D01*
X174116757Y-87909100D01*
X174116759Y-87906661D01*
X181482758Y-87906661D01*
X181694990Y-88420303D01*
X182087630Y-88813629D01*
X182600900Y-89026757D01*
X183156661Y-89027242D01*
X183670303Y-88815010D01*
X184063629Y-88422370D01*
X184276757Y-87909100D01*
X184276759Y-87906661D01*
X191642758Y-87906661D01*
X191854990Y-88420303D01*
X192247630Y-88813629D01*
X192760900Y-89026757D01*
X193316661Y-89027242D01*
X193830303Y-88815010D01*
X194223629Y-88422370D01*
X194436757Y-87909100D01*
X194436759Y-87906661D01*
X201802758Y-87906661D01*
X202014990Y-88420303D01*
X202407630Y-88813629D01*
X202920900Y-89026757D01*
X203476661Y-89027242D01*
X203990303Y-88815010D01*
X204383629Y-88422370D01*
X204596757Y-87909100D01*
X204596759Y-87906661D01*
X211962758Y-87906661D01*
X212174990Y-88420303D01*
X212567630Y-88813629D01*
X213080900Y-89026757D01*
X213636661Y-89027242D01*
X214150303Y-88815010D01*
X214543629Y-88422370D01*
X214756757Y-87909100D01*
X214757242Y-87353339D01*
X214545010Y-86839697D01*
X214152370Y-86446371D01*
X213639100Y-86233243D01*
X213083339Y-86232758D01*
X212569697Y-86444990D01*
X212176371Y-86837630D01*
X211963243Y-87350900D01*
X211962758Y-87906661D01*
X204596759Y-87906661D01*
X204597242Y-87353339D01*
X204385010Y-86839697D01*
X203992370Y-86446371D01*
X203479100Y-86233243D01*
X202923339Y-86232758D01*
X202409697Y-86444990D01*
X202016371Y-86837630D01*
X201803243Y-87350900D01*
X201802758Y-87906661D01*
X194436759Y-87906661D01*
X194437242Y-87353339D01*
X194225010Y-86839697D01*
X193832370Y-86446371D01*
X193319100Y-86233243D01*
X192763339Y-86232758D01*
X192249697Y-86444990D01*
X191856371Y-86837630D01*
X191643243Y-87350900D01*
X191642758Y-87906661D01*
X184276759Y-87906661D01*
X184277242Y-87353339D01*
X184065010Y-86839697D01*
X183672370Y-86446371D01*
X183159100Y-86233243D01*
X182603339Y-86232758D01*
X182089697Y-86444990D01*
X181696371Y-86837630D01*
X181483243Y-87350900D01*
X181482758Y-87906661D01*
X174116759Y-87906661D01*
X174117242Y-87353339D01*
X173905010Y-86839697D01*
X173512370Y-86446371D01*
X172999100Y-86233243D01*
X172443339Y-86232758D01*
X171929697Y-86444990D01*
X171536371Y-86837630D01*
X171323243Y-87350900D01*
X171322758Y-87906661D01*
X163956759Y-87906661D01*
X163957242Y-87353339D01*
X163745010Y-86839697D01*
X163352370Y-86446371D01*
X162839100Y-86233243D01*
X162283339Y-86232758D01*
X161769697Y-86444990D01*
X161376371Y-86837630D01*
X161163243Y-87350900D01*
X161162758Y-87906661D01*
X153796759Y-87906661D01*
X153797242Y-87353339D01*
X153585010Y-86839697D01*
X153192370Y-86446371D01*
X152679100Y-86233243D01*
X152123339Y-86232758D01*
X151609697Y-86444990D01*
X151216371Y-86837630D01*
X151003243Y-87350900D01*
X151002758Y-87906661D01*
X143636759Y-87906661D01*
X143637242Y-87353339D01*
X143425010Y-86839697D01*
X143032370Y-86446371D01*
X142519100Y-86233243D01*
X141963339Y-86232758D01*
X141449697Y-86444990D01*
X141056371Y-86837630D01*
X140843243Y-87350900D01*
X140842758Y-87906661D01*
X139140000Y-87906661D01*
X139140000Y-82826661D01*
X140842758Y-82826661D01*
X141054990Y-83340303D01*
X141447630Y-83733629D01*
X141960900Y-83946757D01*
X142516661Y-83947242D01*
X143030303Y-83735010D01*
X143423629Y-83342370D01*
X143636757Y-82829100D01*
X143636759Y-82826661D01*
X151002758Y-82826661D01*
X151214990Y-83340303D01*
X151607630Y-83733629D01*
X152120900Y-83946757D01*
X152676661Y-83947242D01*
X153190303Y-83735010D01*
X153583629Y-83342370D01*
X153796757Y-82829100D01*
X153796759Y-82826661D01*
X161162758Y-82826661D01*
X161374990Y-83340303D01*
X161767630Y-83733629D01*
X162280900Y-83946757D01*
X162836661Y-83947242D01*
X163350303Y-83735010D01*
X163743629Y-83342370D01*
X163956757Y-82829100D01*
X163956759Y-82826661D01*
X171322758Y-82826661D01*
X171534990Y-83340303D01*
X171927630Y-83733629D01*
X172440900Y-83946757D01*
X172996661Y-83947242D01*
X173510303Y-83735010D01*
X173903629Y-83342370D01*
X174116757Y-82829100D01*
X174116759Y-82826661D01*
X181482758Y-82826661D01*
X181694990Y-83340303D01*
X182087630Y-83733629D01*
X182600900Y-83946757D01*
X183156661Y-83947242D01*
X183670303Y-83735010D01*
X184063629Y-83342370D01*
X184276757Y-82829100D01*
X184276759Y-82826661D01*
X191642758Y-82826661D01*
X191854990Y-83340303D01*
X192247630Y-83733629D01*
X192760900Y-83946757D01*
X193316661Y-83947242D01*
X193830303Y-83735010D01*
X194223629Y-83342370D01*
X194436757Y-82829100D01*
X194436759Y-82826661D01*
X201802758Y-82826661D01*
X202014990Y-83340303D01*
X202407630Y-83733629D01*
X202920900Y-83946757D01*
X203476661Y-83947242D01*
X203990303Y-83735010D01*
X204383629Y-83342370D01*
X204596757Y-82829100D01*
X204596759Y-82826661D01*
X211962758Y-82826661D01*
X212174990Y-83340303D01*
X212567630Y-83733629D01*
X213080900Y-83946757D01*
X213636661Y-83947242D01*
X214150303Y-83735010D01*
X214543629Y-83342370D01*
X214756757Y-82829100D01*
X214757242Y-82273339D01*
X214545010Y-81759697D01*
X214152370Y-81366371D01*
X213639100Y-81153243D01*
X213083339Y-81152758D01*
X212569697Y-81364990D01*
X212176371Y-81757630D01*
X211963243Y-82270900D01*
X211962758Y-82826661D01*
X204596759Y-82826661D01*
X204597242Y-82273339D01*
X204385010Y-81759697D01*
X203992370Y-81366371D01*
X203479100Y-81153243D01*
X202923339Y-81152758D01*
X202409697Y-81364990D01*
X202016371Y-81757630D01*
X201803243Y-82270900D01*
X201802758Y-82826661D01*
X194436759Y-82826661D01*
X194437242Y-82273339D01*
X194225010Y-81759697D01*
X193832370Y-81366371D01*
X193319100Y-81153243D01*
X192763339Y-81152758D01*
X192249697Y-81364990D01*
X191856371Y-81757630D01*
X191643243Y-82270900D01*
X191642758Y-82826661D01*
X184276759Y-82826661D01*
X184277242Y-82273339D01*
X184065010Y-81759697D01*
X183672370Y-81366371D01*
X183159100Y-81153243D01*
X182603339Y-81152758D01*
X182089697Y-81364990D01*
X181696371Y-81757630D01*
X181483243Y-82270900D01*
X181482758Y-82826661D01*
X174116759Y-82826661D01*
X174117242Y-82273339D01*
X173905010Y-81759697D01*
X173512370Y-81366371D01*
X172999100Y-81153243D01*
X172443339Y-81152758D01*
X171929697Y-81364990D01*
X171536371Y-81757630D01*
X171323243Y-82270900D01*
X171322758Y-82826661D01*
X163956759Y-82826661D01*
X163957242Y-82273339D01*
X163745010Y-81759697D01*
X163352370Y-81366371D01*
X162839100Y-81153243D01*
X162283339Y-81152758D01*
X161769697Y-81364990D01*
X161376371Y-81757630D01*
X161163243Y-82270900D01*
X161162758Y-82826661D01*
X153796759Y-82826661D01*
X153797242Y-82273339D01*
X153585010Y-81759697D01*
X153192370Y-81366371D01*
X152679100Y-81153243D01*
X152123339Y-81152758D01*
X151609697Y-81364990D01*
X151216371Y-81757630D01*
X151003243Y-82270900D01*
X151002758Y-82826661D01*
X143636759Y-82826661D01*
X143637242Y-82273339D01*
X143425010Y-81759697D01*
X143032370Y-81366371D01*
X142519100Y-81153243D01*
X141963339Y-81152758D01*
X141449697Y-81364990D01*
X141056371Y-81757630D01*
X140843243Y-82270900D01*
X140842758Y-82826661D01*
X139140000Y-82826661D01*
X139140000Y-78450213D01*
X141439392Y-78450213D01*
X141508857Y-78692397D01*
X142032302Y-78879144D01*
X142587368Y-78851362D01*
X142971143Y-78692397D01*
X143040608Y-78450213D01*
X151599392Y-78450213D01*
X151668857Y-78692397D01*
X152192302Y-78879144D01*
X152747368Y-78851362D01*
X153131143Y-78692397D01*
X153200608Y-78450213D01*
X161759392Y-78450213D01*
X161828857Y-78692397D01*
X162352302Y-78879144D01*
X162907368Y-78851362D01*
X163291143Y-78692397D01*
X163360608Y-78450213D01*
X171919392Y-78450213D01*
X171988857Y-78692397D01*
X172512302Y-78879144D01*
X173067368Y-78851362D01*
X173451143Y-78692397D01*
X173520608Y-78450213D01*
X182079392Y-78450213D01*
X182148857Y-78692397D01*
X182672302Y-78879144D01*
X183227368Y-78851362D01*
X183611143Y-78692397D01*
X183680608Y-78450213D01*
X192239392Y-78450213D01*
X192308857Y-78692397D01*
X192832302Y-78879144D01*
X193387368Y-78851362D01*
X193771143Y-78692397D01*
X193840608Y-78450213D01*
X202399392Y-78450213D01*
X202468857Y-78692397D01*
X202992302Y-78879144D01*
X203547368Y-78851362D01*
X203931143Y-78692397D01*
X204000608Y-78450213D01*
X212559392Y-78450213D01*
X212628857Y-78692397D01*
X213152302Y-78879144D01*
X213707368Y-78851362D01*
X214091143Y-78692397D01*
X214160608Y-78450213D01*
X213360000Y-77649605D01*
X212559392Y-78450213D01*
X204000608Y-78450213D01*
X203200000Y-77649605D01*
X202399392Y-78450213D01*
X193840608Y-78450213D01*
X193040000Y-77649605D01*
X192239392Y-78450213D01*
X183680608Y-78450213D01*
X182880000Y-77649605D01*
X182079392Y-78450213D01*
X173520608Y-78450213D01*
X172720000Y-77649605D01*
X171919392Y-78450213D01*
X163360608Y-78450213D01*
X162560000Y-77649605D01*
X161759392Y-78450213D01*
X153200608Y-78450213D01*
X152400000Y-77649605D01*
X151599392Y-78450213D01*
X143040608Y-78450213D01*
X142240000Y-77649605D01*
X141439392Y-78450213D01*
X139140000Y-78450213D01*
X139140000Y-77262302D01*
X140830856Y-77262302D01*
X140858638Y-77817368D01*
X141017603Y-78201143D01*
X141259787Y-78270608D01*
X142060395Y-77470000D01*
X142419605Y-77470000D01*
X143220213Y-78270608D01*
X143462397Y-78201143D01*
X143649144Y-77677698D01*
X143628353Y-77262302D01*
X150990856Y-77262302D01*
X151018638Y-77817368D01*
X151177603Y-78201143D01*
X151419787Y-78270608D01*
X152220395Y-77470000D01*
X152579605Y-77470000D01*
X153380213Y-78270608D01*
X153622397Y-78201143D01*
X153809144Y-77677698D01*
X153788353Y-77262302D01*
X161150856Y-77262302D01*
X161178638Y-77817368D01*
X161337603Y-78201143D01*
X161579787Y-78270608D01*
X162380395Y-77470000D01*
X162739605Y-77470000D01*
X163540213Y-78270608D01*
X163782397Y-78201143D01*
X163969144Y-77677698D01*
X163948353Y-77262302D01*
X171310856Y-77262302D01*
X171338638Y-77817368D01*
X171497603Y-78201143D01*
X171739787Y-78270608D01*
X172540395Y-77470000D01*
X172899605Y-77470000D01*
X173700213Y-78270608D01*
X173942397Y-78201143D01*
X174129144Y-77677698D01*
X174108353Y-77262302D01*
X181470856Y-77262302D01*
X181498638Y-77817368D01*
X181657603Y-78201143D01*
X181899787Y-78270608D01*
X182700395Y-77470000D01*
X183059605Y-77470000D01*
X183860213Y-78270608D01*
X184102397Y-78201143D01*
X184289144Y-77677698D01*
X184268353Y-77262302D01*
X191630856Y-77262302D01*
X191658638Y-77817368D01*
X191817603Y-78201143D01*
X192059787Y-78270608D01*
X192860395Y-77470000D01*
X193219605Y-77470000D01*
X194020213Y-78270608D01*
X194262397Y-78201143D01*
X194449144Y-77677698D01*
X194428353Y-77262302D01*
X201790856Y-77262302D01*
X201818638Y-77817368D01*
X201977603Y-78201143D01*
X202219787Y-78270608D01*
X203020395Y-77470000D01*
X203379605Y-77470000D01*
X204180213Y-78270608D01*
X204422397Y-78201143D01*
X204609144Y-77677698D01*
X204588353Y-77262302D01*
X211950856Y-77262302D01*
X211978638Y-77817368D01*
X212137603Y-78201143D01*
X212379787Y-78270608D01*
X213180395Y-77470000D01*
X213539605Y-77470000D01*
X214340213Y-78270608D01*
X214582397Y-78201143D01*
X214769144Y-77677698D01*
X214741362Y-77122632D01*
X214582397Y-76738857D01*
X214340213Y-76669392D01*
X213539605Y-77470000D01*
X213180395Y-77470000D01*
X212379787Y-76669392D01*
X212137603Y-76738857D01*
X211950856Y-77262302D01*
X204588353Y-77262302D01*
X204581362Y-77122632D01*
X204422397Y-76738857D01*
X204180213Y-76669392D01*
X203379605Y-77470000D01*
X203020395Y-77470000D01*
X202219787Y-76669392D01*
X201977603Y-76738857D01*
X201790856Y-77262302D01*
X194428353Y-77262302D01*
X194421362Y-77122632D01*
X194262397Y-76738857D01*
X194020213Y-76669392D01*
X193219605Y-77470000D01*
X192860395Y-77470000D01*
X192059787Y-76669392D01*
X191817603Y-76738857D01*
X191630856Y-77262302D01*
X184268353Y-77262302D01*
X184261362Y-77122632D01*
X184102397Y-76738857D01*
X183860213Y-76669392D01*
X183059605Y-77470000D01*
X182700395Y-77470000D01*
X181899787Y-76669392D01*
X181657603Y-76738857D01*
X181470856Y-77262302D01*
X174108353Y-77262302D01*
X174101362Y-77122632D01*
X173942397Y-76738857D01*
X173700213Y-76669392D01*
X172899605Y-77470000D01*
X172540395Y-77470000D01*
X171739787Y-76669392D01*
X171497603Y-76738857D01*
X171310856Y-77262302D01*
X163948353Y-77262302D01*
X163941362Y-77122632D01*
X163782397Y-76738857D01*
X163540213Y-76669392D01*
X162739605Y-77470000D01*
X162380395Y-77470000D01*
X161579787Y-76669392D01*
X161337603Y-76738857D01*
X161150856Y-77262302D01*
X153788353Y-77262302D01*
X153781362Y-77122632D01*
X153622397Y-76738857D01*
X153380213Y-76669392D01*
X152579605Y-77470000D01*
X152220395Y-77470000D01*
X151419787Y-76669392D01*
X151177603Y-76738857D01*
X150990856Y-77262302D01*
X143628353Y-77262302D01*
X143621362Y-77122632D01*
X143462397Y-76738857D01*
X143220213Y-76669392D01*
X142419605Y-77470000D01*
X142060395Y-77470000D01*
X141259787Y-76669392D01*
X141017603Y-76738857D01*
X140830856Y-77262302D01*
X139140000Y-77262302D01*
X139140000Y-76489787D01*
X141439392Y-76489787D01*
X142240000Y-77290395D01*
X143040608Y-76489787D01*
X151599392Y-76489787D01*
X152400000Y-77290395D01*
X153200608Y-76489787D01*
X161759392Y-76489787D01*
X162560000Y-77290395D01*
X163360608Y-76489787D01*
X171919392Y-76489787D01*
X172720000Y-77290395D01*
X173520608Y-76489787D01*
X182079392Y-76489787D01*
X182880000Y-77290395D01*
X183680608Y-76489787D01*
X192239392Y-76489787D01*
X193040000Y-77290395D01*
X193840608Y-76489787D01*
X202399392Y-76489787D01*
X203200000Y-77290395D01*
X204000608Y-76489787D01*
X212559392Y-76489787D01*
X213360000Y-77290395D01*
X214160608Y-76489787D01*
X214091143Y-76247603D01*
X213567698Y-76060856D01*
X213012632Y-76088638D01*
X212628857Y-76247603D01*
X212559392Y-76489787D01*
X204000608Y-76489787D01*
X203931143Y-76247603D01*
X203407698Y-76060856D01*
X202852632Y-76088638D01*
X202468857Y-76247603D01*
X202399392Y-76489787D01*
X193840608Y-76489787D01*
X193771143Y-76247603D01*
X193247698Y-76060856D01*
X192692632Y-76088638D01*
X192308857Y-76247603D01*
X192239392Y-76489787D01*
X183680608Y-76489787D01*
X183611143Y-76247603D01*
X183087698Y-76060856D01*
X182532632Y-76088638D01*
X182148857Y-76247603D01*
X182079392Y-76489787D01*
X173520608Y-76489787D01*
X173451143Y-76247603D01*
X172927698Y-76060856D01*
X172372632Y-76088638D01*
X171988857Y-76247603D01*
X171919392Y-76489787D01*
X163360608Y-76489787D01*
X163291143Y-76247603D01*
X162767698Y-76060856D01*
X162212632Y-76088638D01*
X161828857Y-76247603D01*
X161759392Y-76489787D01*
X153200608Y-76489787D01*
X153131143Y-76247603D01*
X152607698Y-76060856D01*
X152052632Y-76088638D01*
X151668857Y-76247603D01*
X151599392Y-76489787D01*
X143040608Y-76489787D01*
X142971143Y-76247603D01*
X142447698Y-76060856D01*
X141892632Y-76088638D01*
X141508857Y-76247603D01*
X141439392Y-76489787D01*
X139140000Y-76489787D01*
X139140000Y-70409578D01*
X139354078Y-70927686D01*
X139889495Y-71464039D01*
X140589410Y-71754668D01*
X141347265Y-71755330D01*
X142047686Y-71465922D01*
X142584039Y-70930505D01*
X142874668Y-70230590D01*
X142875330Y-69472735D01*
X142585922Y-68772314D01*
X142393944Y-68580000D01*
X144132560Y-68580000D01*
X144132560Y-71120000D01*
X144176838Y-71355317D01*
X144315910Y-71571441D01*
X144528110Y-71716431D01*
X144780000Y-71767440D01*
X147320000Y-71767440D01*
X147555317Y-71723162D01*
X147771441Y-71584090D01*
X147916431Y-71371890D01*
X147967440Y-71120000D01*
X147967440Y-70227265D01*
X149224670Y-70227265D01*
X149514078Y-70927686D01*
X150049495Y-71464039D01*
X150749410Y-71754668D01*
X151507265Y-71755330D01*
X152207686Y-71465922D01*
X152744039Y-70930505D01*
X153034668Y-70230590D01*
X153035330Y-69472735D01*
X152745922Y-68772314D01*
X152553944Y-68580000D01*
X154292560Y-68580000D01*
X154292560Y-71120000D01*
X154336838Y-71355317D01*
X154475910Y-71571441D01*
X154688110Y-71716431D01*
X154940000Y-71767440D01*
X157480000Y-71767440D01*
X157715317Y-71723162D01*
X157931441Y-71584090D01*
X158076431Y-71371890D01*
X158127440Y-71120000D01*
X158127440Y-70227265D01*
X159384670Y-70227265D01*
X159674078Y-70927686D01*
X160209495Y-71464039D01*
X160909410Y-71754668D01*
X161667265Y-71755330D01*
X162367686Y-71465922D01*
X162904039Y-70930505D01*
X163194668Y-70230590D01*
X163195330Y-69472735D01*
X162905922Y-68772314D01*
X162713944Y-68580000D01*
X164452560Y-68580000D01*
X164452560Y-71120000D01*
X164496838Y-71355317D01*
X164635910Y-71571441D01*
X164848110Y-71716431D01*
X165100000Y-71767440D01*
X167640000Y-71767440D01*
X167875317Y-71723162D01*
X168091441Y-71584090D01*
X168236431Y-71371890D01*
X168287440Y-71120000D01*
X168287440Y-70227265D01*
X169544670Y-70227265D01*
X169834078Y-70927686D01*
X170369495Y-71464039D01*
X171069410Y-71754668D01*
X171827265Y-71755330D01*
X172527686Y-71465922D01*
X173064039Y-70930505D01*
X173354668Y-70230590D01*
X173355330Y-69472735D01*
X173065922Y-68772314D01*
X172873944Y-68580000D01*
X174612560Y-68580000D01*
X174612560Y-71120000D01*
X174656838Y-71355317D01*
X174795910Y-71571441D01*
X175008110Y-71716431D01*
X175260000Y-71767440D01*
X177800000Y-71767440D01*
X178035317Y-71723162D01*
X178251441Y-71584090D01*
X178396431Y-71371890D01*
X178447440Y-71120000D01*
X178447440Y-70227265D01*
X179704670Y-70227265D01*
X179994078Y-70927686D01*
X180529495Y-71464039D01*
X181229410Y-71754668D01*
X181987265Y-71755330D01*
X182687686Y-71465922D01*
X183224039Y-70930505D01*
X183514668Y-70230590D01*
X183515330Y-69472735D01*
X183225922Y-68772314D01*
X183033944Y-68580000D01*
X184772560Y-68580000D01*
X184772560Y-71120000D01*
X184816838Y-71355317D01*
X184955910Y-71571441D01*
X185168110Y-71716431D01*
X185420000Y-71767440D01*
X187960000Y-71767440D01*
X188195317Y-71723162D01*
X188411441Y-71584090D01*
X188556431Y-71371890D01*
X188607440Y-71120000D01*
X188607440Y-70227265D01*
X189864670Y-70227265D01*
X190154078Y-70927686D01*
X190689495Y-71464039D01*
X191389410Y-71754668D01*
X192147265Y-71755330D01*
X192847686Y-71465922D01*
X193384039Y-70930505D01*
X193674668Y-70230590D01*
X193675330Y-69472735D01*
X193385922Y-68772314D01*
X193193944Y-68580000D01*
X194932560Y-68580000D01*
X194932560Y-71120000D01*
X194976838Y-71355317D01*
X195115910Y-71571441D01*
X195328110Y-71716431D01*
X195580000Y-71767440D01*
X198120000Y-71767440D01*
X198355317Y-71723162D01*
X198571441Y-71584090D01*
X198716431Y-71371890D01*
X198767440Y-71120000D01*
X198767440Y-70227265D01*
X200024670Y-70227265D01*
X200314078Y-70927686D01*
X200849495Y-71464039D01*
X201549410Y-71754668D01*
X202307265Y-71755330D01*
X203007686Y-71465922D01*
X203544039Y-70930505D01*
X203834668Y-70230590D01*
X203835330Y-69472735D01*
X203545922Y-68772314D01*
X203353944Y-68580000D01*
X205092560Y-68580000D01*
X205092560Y-71120000D01*
X205136838Y-71355317D01*
X205275910Y-71571441D01*
X205488110Y-71716431D01*
X205740000Y-71767440D01*
X208280000Y-71767440D01*
X208515317Y-71723162D01*
X208731441Y-71584090D01*
X208876431Y-71371890D01*
X208927440Y-71120000D01*
X208927440Y-70227265D01*
X210184670Y-70227265D01*
X210474078Y-70927686D01*
X211009495Y-71464039D01*
X211709410Y-71754668D01*
X212467265Y-71755330D01*
X213167686Y-71465922D01*
X213704039Y-70930505D01*
X213994668Y-70230590D01*
X213995330Y-69472735D01*
X213705922Y-68772314D01*
X213170505Y-68235961D01*
X212470590Y-67945332D01*
X211712735Y-67944670D01*
X211012314Y-68234078D01*
X210475961Y-68769495D01*
X210185332Y-69469410D01*
X210184670Y-70227265D01*
X208927440Y-70227265D01*
X208927440Y-68580000D01*
X208883162Y-68344683D01*
X208744090Y-68128559D01*
X208531890Y-67983569D01*
X208280000Y-67932560D01*
X205740000Y-67932560D01*
X205504683Y-67976838D01*
X205288559Y-68115910D01*
X205143569Y-68328110D01*
X205092560Y-68580000D01*
X203353944Y-68580000D01*
X203010505Y-68235961D01*
X202310590Y-67945332D01*
X201552735Y-67944670D01*
X200852314Y-68234078D01*
X200315961Y-68769495D01*
X200025332Y-69469410D01*
X200024670Y-70227265D01*
X198767440Y-70227265D01*
X198767440Y-68580000D01*
X198723162Y-68344683D01*
X198584090Y-68128559D01*
X198371890Y-67983569D01*
X198120000Y-67932560D01*
X195580000Y-67932560D01*
X195344683Y-67976838D01*
X195128559Y-68115910D01*
X194983569Y-68328110D01*
X194932560Y-68580000D01*
X193193944Y-68580000D01*
X192850505Y-68235961D01*
X192150590Y-67945332D01*
X191392735Y-67944670D01*
X190692314Y-68234078D01*
X190155961Y-68769495D01*
X189865332Y-69469410D01*
X189864670Y-70227265D01*
X188607440Y-70227265D01*
X188607440Y-68580000D01*
X188563162Y-68344683D01*
X188424090Y-68128559D01*
X188211890Y-67983569D01*
X187960000Y-67932560D01*
X185420000Y-67932560D01*
X185184683Y-67976838D01*
X184968559Y-68115910D01*
X184823569Y-68328110D01*
X184772560Y-68580000D01*
X183033944Y-68580000D01*
X182690505Y-68235961D01*
X181990590Y-67945332D01*
X181232735Y-67944670D01*
X180532314Y-68234078D01*
X179995961Y-68769495D01*
X179705332Y-69469410D01*
X179704670Y-70227265D01*
X178447440Y-70227265D01*
X178447440Y-68580000D01*
X178403162Y-68344683D01*
X178264090Y-68128559D01*
X178051890Y-67983569D01*
X177800000Y-67932560D01*
X175260000Y-67932560D01*
X175024683Y-67976838D01*
X174808559Y-68115910D01*
X174663569Y-68328110D01*
X174612560Y-68580000D01*
X172873944Y-68580000D01*
X172530505Y-68235961D01*
X171830590Y-67945332D01*
X171072735Y-67944670D01*
X170372314Y-68234078D01*
X169835961Y-68769495D01*
X169545332Y-69469410D01*
X169544670Y-70227265D01*
X168287440Y-70227265D01*
X168287440Y-68580000D01*
X168243162Y-68344683D01*
X168104090Y-68128559D01*
X167891890Y-67983569D01*
X167640000Y-67932560D01*
X165100000Y-67932560D01*
X164864683Y-67976838D01*
X164648559Y-68115910D01*
X164503569Y-68328110D01*
X164452560Y-68580000D01*
X162713944Y-68580000D01*
X162370505Y-68235961D01*
X161670590Y-67945332D01*
X160912735Y-67944670D01*
X160212314Y-68234078D01*
X159675961Y-68769495D01*
X159385332Y-69469410D01*
X159384670Y-70227265D01*
X158127440Y-70227265D01*
X158127440Y-68580000D01*
X158083162Y-68344683D01*
X157944090Y-68128559D01*
X157731890Y-67983569D01*
X157480000Y-67932560D01*
X154940000Y-67932560D01*
X154704683Y-67976838D01*
X154488559Y-68115910D01*
X154343569Y-68328110D01*
X154292560Y-68580000D01*
X152553944Y-68580000D01*
X152210505Y-68235961D01*
X151510590Y-67945332D01*
X150752735Y-67944670D01*
X150052314Y-68234078D01*
X149515961Y-68769495D01*
X149225332Y-69469410D01*
X149224670Y-70227265D01*
X147967440Y-70227265D01*
X147967440Y-68580000D01*
X147923162Y-68344683D01*
X147784090Y-68128559D01*
X147571890Y-67983569D01*
X147320000Y-67932560D01*
X144780000Y-67932560D01*
X144544683Y-67976838D01*
X144328559Y-68115910D01*
X144183569Y-68328110D01*
X144132560Y-68580000D01*
X142393944Y-68580000D01*
X142050505Y-68235961D01*
X141350590Y-67945332D01*
X140592735Y-67944670D01*
X139892314Y-68234078D01*
X139355961Y-68769495D01*
X139140000Y-69289589D01*
X139140000Y-66750000D01*
X219000000Y-66750000D01*
X219000000Y-68277607D01*
G36*
X170165000Y-114672440D02*
X170442560Y-114672440D01*
X170442560Y-114950000D01*
X170466944Y-115079589D01*
X170442560Y-115200000D01*
X170442560Y-115750000D01*
X170466944Y-115879589D01*
X170442560Y-116000000D01*
X170442560Y-116550000D01*
X170462450Y-116655705D01*
X170455000Y-116673690D01*
X170455000Y-116789250D01*
X170551401Y-116885651D01*
X170625910Y-117001441D01*
X170733397Y-117074884D01*
X170638559Y-117135910D01*
X170549505Y-117266245D01*
X170455000Y-117360750D01*
X170455000Y-117476310D01*
X170463468Y-117496753D01*
X170442560Y-117600000D01*
X170442560Y-118150000D01*
X170466944Y-118279589D01*
X170442560Y-118400000D01*
X170442560Y-118950000D01*
X170466944Y-119079589D01*
X170442560Y-119200000D01*
X170442560Y-119750000D01*
X170466944Y-119879589D01*
X170442560Y-120000000D01*
X170442560Y-120277560D01*
X170165000Y-120277560D01*
X170035411Y-120301944D01*
X169915000Y-120277560D01*
X169600000Y-120277560D01*
X169600000Y-120231583D01*
X169717838Y-119947799D01*
X169718162Y-119575833D01*
X169576117Y-119232057D01*
X169313327Y-118968808D01*
X168969799Y-118826162D01*
X168597833Y-118825838D01*
X168254057Y-118967883D01*
X167990808Y-119230673D01*
X167848162Y-119574201D01*
X167847838Y-119946167D01*
X167984766Y-120277560D01*
X167765000Y-120277560D01*
X167635411Y-120301944D01*
X167515000Y-120277560D01*
X166965000Y-120277560D01*
X166835411Y-120301944D01*
X166715000Y-120277560D01*
X166165000Y-120277560D01*
X166035411Y-120301944D01*
X165915000Y-120277560D01*
X165365000Y-120277560D01*
X165235411Y-120301944D01*
X165115000Y-120277560D01*
X164837440Y-120277560D01*
X164837440Y-120000000D01*
X164813056Y-119870411D01*
X164837440Y-119750000D01*
X164837440Y-119200000D01*
X164813056Y-119070411D01*
X164837440Y-118950000D01*
X164837440Y-118400000D01*
X164817550Y-118294295D01*
X164825000Y-118276310D01*
X164825000Y-118160750D01*
X164728599Y-118064349D01*
X164654090Y-117948559D01*
X164546603Y-117875116D01*
X164641441Y-117814090D01*
X164730495Y-117683755D01*
X164825000Y-117589250D01*
X164825000Y-117473690D01*
X164816532Y-117453247D01*
X164837440Y-117350000D01*
X164837440Y-116800000D01*
X164817550Y-116694295D01*
X164825000Y-116676310D01*
X164825000Y-116560750D01*
X164728599Y-116464349D01*
X164654090Y-116348559D01*
X164546603Y-116275116D01*
X164641441Y-116214090D01*
X164730495Y-116083755D01*
X164825000Y-115989250D01*
X164825000Y-115873690D01*
X164816532Y-115853247D01*
X164837440Y-115750000D01*
X164837440Y-115200000D01*
X164813056Y-115070411D01*
X164837440Y-114950000D01*
X164837440Y-114672440D01*
X165115000Y-114672440D01*
X165244589Y-114648056D01*
X165365000Y-114672440D01*
X165915000Y-114672440D01*
X166044589Y-114648056D01*
X166165000Y-114672440D01*
X166408356Y-114672440D01*
X166324162Y-114875201D01*
X166323838Y-115247167D01*
X166465883Y-115590943D01*
X166728673Y-115854192D01*
X167072201Y-115996838D01*
X167444167Y-115997162D01*
X167787943Y-115855117D01*
X168051192Y-115592327D01*
X168193838Y-115248799D01*
X168194162Y-114876833D01*
X168109709Y-114672440D01*
X168315000Y-114672440D01*
X168444589Y-114648056D01*
X168565000Y-114672440D01*
X169115000Y-114672440D01*
X169244589Y-114648056D01*
X169365000Y-114672440D01*
X169915000Y-114672440D01*
X170044589Y-114648056D01*
X170165000Y-114672440D01*
X170165000Y-114672440D01*
G37*
X170165000Y-114672440D02*
X170442560Y-114672440D01*
X170442560Y-114950000D01*
X170466944Y-115079589D01*
X170442560Y-115200000D01*
X170442560Y-115750000D01*
X170466944Y-115879589D01*
X170442560Y-116000000D01*
X170442560Y-116550000D01*
X170462450Y-116655705D01*
X170455000Y-116673690D01*
X170455000Y-116789250D01*
X170551401Y-116885651D01*
X170625910Y-117001441D01*
X170733397Y-117074884D01*
X170638559Y-117135910D01*
X170549505Y-117266245D01*
X170455000Y-117360750D01*
X170455000Y-117476310D01*
X170463468Y-117496753D01*
X170442560Y-117600000D01*
X170442560Y-118150000D01*
X170466944Y-118279589D01*
X170442560Y-118400000D01*
X170442560Y-118950000D01*
X170466944Y-119079589D01*
X170442560Y-119200000D01*
X170442560Y-119750000D01*
X170466944Y-119879589D01*
X170442560Y-120000000D01*
X170442560Y-120277560D01*
X170165000Y-120277560D01*
X170035411Y-120301944D01*
X169915000Y-120277560D01*
X169600000Y-120277560D01*
X169600000Y-120231583D01*
X169717838Y-119947799D01*
X169718162Y-119575833D01*
X169576117Y-119232057D01*
X169313327Y-118968808D01*
X168969799Y-118826162D01*
X168597833Y-118825838D01*
X168254057Y-118967883D01*
X167990808Y-119230673D01*
X167848162Y-119574201D01*
X167847838Y-119946167D01*
X167984766Y-120277560D01*
X167765000Y-120277560D01*
X167635411Y-120301944D01*
X167515000Y-120277560D01*
X166965000Y-120277560D01*
X166835411Y-120301944D01*
X166715000Y-120277560D01*
X166165000Y-120277560D01*
X166035411Y-120301944D01*
X165915000Y-120277560D01*
X165365000Y-120277560D01*
X165235411Y-120301944D01*
X165115000Y-120277560D01*
X164837440Y-120277560D01*
X164837440Y-120000000D01*
X164813056Y-119870411D01*
X164837440Y-119750000D01*
X164837440Y-119200000D01*
X164813056Y-119070411D01*
X164837440Y-118950000D01*
X164837440Y-118400000D01*
X164817550Y-118294295D01*
X164825000Y-118276310D01*
X164825000Y-118160750D01*
X164728599Y-118064349D01*
X164654090Y-117948559D01*
X164546603Y-117875116D01*
X164641441Y-117814090D01*
X164730495Y-117683755D01*
X164825000Y-117589250D01*
X164825000Y-117473690D01*
X164816532Y-117453247D01*
X164837440Y-117350000D01*
X164837440Y-116800000D01*
X164817550Y-116694295D01*
X164825000Y-116676310D01*
X164825000Y-116560750D01*
X164728599Y-116464349D01*
X164654090Y-116348559D01*
X164546603Y-116275116D01*
X164641441Y-116214090D01*
X164730495Y-116083755D01*
X164825000Y-115989250D01*
X164825000Y-115873690D01*
X164816532Y-115853247D01*
X164837440Y-115750000D01*
X164837440Y-115200000D01*
X164813056Y-115070411D01*
X164837440Y-114950000D01*
X164837440Y-114672440D01*
X165115000Y-114672440D01*
X165244589Y-114648056D01*
X165365000Y-114672440D01*
X165915000Y-114672440D01*
X166044589Y-114648056D01*
X166165000Y-114672440D01*
X166408356Y-114672440D01*
X166324162Y-114875201D01*
X166323838Y-115247167D01*
X166465883Y-115590943D01*
X166728673Y-115854192D01*
X167072201Y-115996838D01*
X167444167Y-115997162D01*
X167787943Y-115855117D01*
X168051192Y-115592327D01*
X168193838Y-115248799D01*
X168194162Y-114876833D01*
X168109709Y-114672440D01*
X168315000Y-114672440D01*
X168444589Y-114648056D01*
X168565000Y-114672440D01*
X169115000Y-114672440D01*
X169244589Y-114648056D01*
X169365000Y-114672440D01*
X169915000Y-114672440D01*
X170044589Y-114648056D01*
X170165000Y-114672440D01*
G36*
X176022000Y-109093000D02*
X176042000Y-109093000D01*
X176042000Y-109347000D01*
X176022000Y-109347000D01*
X176022000Y-110267750D01*
X176180750Y-110426500D01*
X176275309Y-110426500D01*
X176405000Y-110372780D01*
X176405000Y-112080198D01*
X175385000Y-113100198D01*
X175385000Y-110372780D01*
X175514691Y-110426500D01*
X175609250Y-110426500D01*
X175768000Y-110267750D01*
X175768000Y-109347000D01*
X175748000Y-109347000D01*
X175748000Y-109093000D01*
X175768000Y-109093000D01*
X175768000Y-109073000D01*
X176022000Y-109073000D01*
X176022000Y-109093000D01*
X176022000Y-109093000D01*
G37*
X176022000Y-109093000D02*
X176042000Y-109093000D01*
X176042000Y-109347000D01*
X176022000Y-109347000D01*
X176022000Y-110267750D01*
X176180750Y-110426500D01*
X176275309Y-110426500D01*
X176405000Y-110372780D01*
X176405000Y-112080198D01*
X175385000Y-113100198D01*
X175385000Y-110372780D01*
X175514691Y-110426500D01*
X175609250Y-110426500D01*
X175768000Y-110267750D01*
X175768000Y-109347000D01*
X175748000Y-109347000D01*
X175748000Y-109093000D01*
X175768000Y-109093000D01*
X175768000Y-109073000D01*
X176022000Y-109073000D01*
X176022000Y-109093000D01*
M02*
