M48
;DRILL file {KiCad 4.0.5-e0-6337~49~ubuntu16.04.1} date Tue Jan 17 09:06:33 2017
;FORMAT={-:-/ absolute / metric / decimal}
FMAT,2
METRIC,TZ
T1C0.400
T2C0.701
T3C0.800
T4C1.000
T5C1.001
T6C1.143
T7C1.300
T8C1.524
%
G90
G05
M71
T1
X47.371Y-87.376
X53.467Y-127.889
X54.864Y-90.297
X61.087Y-84.455
X65.024Y-87.249
T2
X95.249Y-45.088
X95.251Y-52.067
X95.251Y-74.927
X95.251Y-132.077
X95.886Y-63.497
X95.886Y-86.357
X95.886Y-97.787
X95.886Y-109.217
X95.886Y-120.647
X100.329Y-42.548
X105.409Y-45.088
X105.411Y-52.067
X105.411Y-74.927
X105.411Y-132.077
X106.046Y-63.497
X106.046Y-86.357
X106.046Y-97.787
X106.046Y-109.217
X106.046Y-120.647
X110.489Y-42.548
T3
X56.515Y-42.585
X56.515Y-45.085
X64.135Y-42.585
X64.135Y-45.085
X83.82Y-42.545
X83.82Y-45.085
X83.82Y-52.07
X83.82Y-54.61
X83.82Y-57.15
X83.82Y-63.5
X83.82Y-66.04
X83.82Y-68.58
X83.82Y-74.93
X83.82Y-77.47
X83.82Y-80.01
X83.82Y-86.36
X83.82Y-88.9
X83.82Y-91.44
X83.82Y-97.79
X83.82Y-100.33
X83.82Y-102.87
X83.82Y-109.22
X83.82Y-111.76
X83.82Y-114.3
X83.82Y-120.65
X83.82Y-123.19
X83.82Y-125.73
X83.82Y-132.08
X83.82Y-134.62
X83.82Y-137.16
X91.44Y-42.545
X91.44Y-45.085
X91.44Y-52.07
X91.44Y-54.61
X91.44Y-57.15
X91.44Y-63.5
X91.44Y-66.04
X91.44Y-68.58
X91.44Y-74.93
X91.44Y-77.47
X91.44Y-80.01
X91.44Y-86.36
X91.44Y-88.9
X91.44Y-91.44
X91.44Y-97.79
X91.44Y-100.33
X91.44Y-102.87
X91.44Y-109.22
X91.44Y-111.76
X91.44Y-114.3
X91.44Y-120.65
X91.44Y-123.19
X91.44Y-125.73
X91.44Y-132.08
X91.44Y-134.62
X91.44Y-137.16
T4
X55.88Y-101.6
X55.88Y-104.14
X58.42Y-101.6
X58.42Y-104.14
X60.96Y-101.6
X60.96Y-104.14
X68.58Y-126.365
T5
X77.47Y-52.07
X77.47Y-63.5
X77.47Y-74.93
X77.47Y-86.36
X77.47Y-97.79
X77.47Y-109.22
X77.47Y-120.65
X77.47Y-132.08
X80.01Y-52.07
X80.01Y-63.5
X80.01Y-74.93
X80.01Y-86.36
X80.01Y-97.79
X80.01Y-109.22
X80.01Y-120.65
X80.01Y-132.08
T6
X97.155Y-57.15
X97.155Y-68.58
X97.155Y-80.01
X97.155Y-91.44
X97.155Y-102.87
X97.155Y-114.3
X97.155Y-125.73
X97.155Y-137.16
X99.695Y-57.15
X99.695Y-68.58
X99.695Y-80.01
X99.695Y-91.44
X99.695Y-102.87
X99.695Y-114.3
X99.695Y-125.73
X99.695Y-137.16
X102.235Y-57.15
X102.235Y-68.58
X102.235Y-80.01
X102.235Y-91.44
X102.235Y-102.87
X102.235Y-114.3
X102.235Y-125.73
X102.235Y-137.16
T7
X109.22Y-52.07
X109.22Y-63.5
X109.22Y-74.93
X109.22Y-86.36
X109.22Y-97.79
X109.22Y-109.22
X109.22Y-120.65
X109.22Y-132.08
X131.72Y-52.07
X131.72Y-63.5
X131.72Y-74.93
X131.72Y-86.36
X131.72Y-97.79
X131.72Y-109.22
X131.72Y-120.65
X131.72Y-132.08
T8
X48.895Y-42.545
X48.895Y-47.625
X138.43Y-42.545
X138.43Y-47.625
X138.43Y-52.705
X138.43Y-57.785
X138.43Y-63.5
X138.43Y-68.58
X138.43Y-74.93
X138.43Y-80.01
X138.43Y-86.36
X138.43Y-91.44
X138.43Y-97.79
X138.43Y-102.87
X138.43Y-109.22
X138.43Y-114.3
X138.43Y-120.65
X138.43Y-125.73
X138.43Y-132.08
X138.43Y-137.16
T0
M30
