M48
;DRILL file {KiCad 4.0.5-e0-6337~49~ubuntu16.04.1} date Mon Jan 23 08:46:00 2017
;FORMAT={-:-/ absolute / metric / decimal}
FMAT,2
METRIC,TZ
T1C0.400
T2C0.762
T3C0.800
T4C1.000
T5C1.520
T6C1.524
T7C3.200
%
G90
G05
M71
T1
X131.191Y-115.062
X144.907Y-95.123
X147.193Y-93.98
X147.32Y-98.806
X148.971Y-98.806
X149.733Y-93.218
X150.114Y-99.822
X150.622Y-93.853
X151.892Y-99.441
X156.337Y-99.187
X156.845Y-105.029
X157.48Y-98.425
X161.163Y-97.536
X174.117Y-102.362
X190.373Y-103.759
X193.421Y-96.266
T2
X131.414Y-68.195
X131.414Y-80.395
X131.414Y-127.25
X131.414Y-139.45
X137.414Y-82.395
X137.414Y-125.25
X143.414Y-68.195
X143.414Y-80.395
X143.414Y-127.25
X143.414Y-139.45
X148.178Y-127.25
X148.178Y-139.45
X148.686Y-68.195
X148.686Y-80.395
X154.178Y-125.25
X154.686Y-82.395
X160.178Y-127.25
X160.178Y-139.45
X160.686Y-68.195
X160.686Y-80.395
X164.942Y-127.25
X164.942Y-139.45
X165.958Y-68.195
X165.958Y-80.395
X170.942Y-125.25
X171.958Y-82.395
X176.942Y-127.25
X176.942Y-139.45
X177.958Y-68.195
X177.958Y-80.395
X181.706Y-127.25
X181.706Y-139.45
X183.23Y-68.195
X183.23Y-80.395
X187.706Y-125.25
X189.23Y-82.395
X193.706Y-127.25
X193.706Y-139.45
X195.23Y-68.195
X195.23Y-80.395
T3
X181.102Y-114.046
X181.102Y-116.546
X184.15Y-110.998
X186.65Y-110.998
T4
X162.052Y-99.949
X162.052Y-102.489
X162.052Y-105.029
X164.592Y-99.949
X164.592Y-102.489
X164.592Y-105.029
X172.847Y-94.234
T5
X132.334Y-60.071
X132.334Y-147.066
X137.414Y-60.071
X137.414Y-147.066
X142.494Y-60.071
X142.494Y-147.066
X149.098Y-147.066
X149.606Y-60.071
X154.178Y-147.066
X154.686Y-60.071
X159.258Y-147.066
X159.766Y-60.071
X165.862Y-147.066
X166.878Y-60.071
X170.942Y-147.066
X171.958Y-60.071
X176.022Y-147.066
X177.038Y-60.071
X182.626Y-147.066
X184.15Y-60.071
X187.706Y-147.066
X189.23Y-60.071
X192.786Y-147.066
X194.31Y-60.071
T6
X195.326Y-112.014
X195.326Y-117.094
T7
X124.83Y-77.927
X124.83Y-126.974
X201.83Y-77.927
X201.83Y-126.974
T0
M30
