G04 #@! TF.FileFunction,Legend,Top*
%FSLAX45Y45*%
G04 Gerber Fmt 4.5, Leading zero omitted, Abs format (unit mm)*
G04 Created by KiCad (PCBNEW 4.0.5-e0-6337~49~ubuntu16.04.1) date Tue Jan 24 14:39:18 2017*
%MOMM*%
%LPD*%
G01*
G04 APERTURE LIST*
%ADD10C,0.100000*%
%ADD11C,0.150000*%
%ADD12C,0.120000*%
%ADD13C,0.160000*%
G04 APERTURE END LIST*
D10*
D11*
X14572700Y-9759400D02*
X14572700Y-9781900D01*
X15297700Y-9759400D02*
X15297700Y-9791900D01*
X15297700Y-10484400D02*
X15297700Y-10451900D01*
X14572700Y-10484400D02*
X14572700Y-10451900D01*
X14572700Y-9759400D02*
X14605200Y-9759400D01*
X14572700Y-10484400D02*
X14605200Y-10484400D01*
X15297700Y-10484400D02*
X15265200Y-10484400D01*
X15297700Y-9759400D02*
X15265200Y-9759400D01*
X14572700Y-9781900D02*
X14430200Y-9781900D01*
X19786600Y-10947400D02*
X19786600Y-11963400D01*
X19913600Y-10947400D02*
X19151600Y-10947400D01*
X19151600Y-10947400D02*
X19151600Y-11963400D01*
X19151600Y-11963400D02*
X19913600Y-11963400D01*
X19913600Y-11963400D02*
X19913600Y-10947400D01*
D12*
X17145700Y-9550400D02*
X17145700Y-9562400D01*
X17145700Y-9562400D02*
X17423700Y-9562400D01*
X17423700Y-9562400D02*
X17423700Y-9550400D01*
X17423700Y-9550400D02*
X17145700Y-9550400D01*
X17145700Y-9423400D02*
X17145700Y-9284400D01*
X17145700Y-9284400D02*
X17284700Y-9284400D01*
X16598200Y-10375900D02*
X16598200Y-9855900D01*
X16598200Y-9855900D02*
X16066200Y-9855900D01*
X16066200Y-9855900D02*
X16066200Y-10641900D01*
X16066200Y-10641900D02*
X16332200Y-10641900D01*
X16332200Y-10641900D02*
X16332200Y-10375900D01*
X16332200Y-10375900D02*
X16598200Y-10375900D01*
X16598200Y-10502900D02*
X16598200Y-10641900D01*
X16598200Y-10641900D02*
X16459200Y-10641900D01*
X17106400Y-11063600D02*
X17106400Y-11189600D01*
X17106400Y-11745600D02*
X17106400Y-11619600D01*
X17482400Y-11063600D02*
X17106400Y-11063600D01*
X17707400Y-11745600D02*
X17106400Y-11745600D01*
D11*
X19910700Y-9129900D02*
X19910700Y-10729900D01*
X17540700Y-9129900D02*
X19910700Y-9129900D01*
X17540700Y-10729900D02*
X17540700Y-9129900D01*
X19910700Y-10729900D02*
X17540700Y-10729900D01*
X18547500Y-10849900D02*
X18547500Y-11349700D01*
X18561500Y-10850700D02*
X18561500Y-11348900D01*
X18575500Y-10852300D02*
X18575500Y-11090300D01*
X18575500Y-11109300D02*
X18575500Y-11347300D01*
X18589500Y-10854700D02*
X18589500Y-11050800D01*
X18589500Y-11148800D02*
X18589500Y-11344900D01*
X18603500Y-10858000D02*
X18603500Y-11034100D01*
X18603500Y-11165500D02*
X18603500Y-11341600D01*
X18617500Y-10862100D02*
X18617500Y-11023400D01*
X18617500Y-11176200D02*
X18617500Y-11337500D01*
X18631500Y-10867100D02*
X18631500Y-11016300D01*
X18631500Y-11183300D02*
X18631500Y-11332500D01*
X18645500Y-10873200D02*
X18645500Y-11011900D01*
X18645500Y-11187700D02*
X18645500Y-11326400D01*
X18659500Y-10880200D02*
X18659500Y-11010000D01*
X18659500Y-11189600D02*
X18659500Y-11319400D01*
X18673500Y-10888400D02*
X18673500Y-11010200D01*
X18673500Y-11189400D02*
X18673500Y-11311200D01*
X18687500Y-10897900D02*
X18687500Y-11012700D01*
X18687500Y-11186900D02*
X18687500Y-11301700D01*
X18701500Y-10909000D02*
X18701500Y-11017500D01*
X18701500Y-11182100D02*
X18701500Y-11290600D01*
X18715500Y-10921800D02*
X18715500Y-11025300D01*
X18715500Y-11174300D02*
X18715500Y-11277800D01*
X18729500Y-10936700D02*
X18729500Y-11037000D01*
X18729500Y-11162600D02*
X18729500Y-11262900D01*
X18743500Y-10954600D02*
X18743500Y-11055800D01*
X18743500Y-11143800D02*
X18743500Y-11245000D01*
X18757500Y-10976500D02*
X18757500Y-11223100D01*
X18771500Y-11005400D02*
X18771500Y-11194200D01*
X18785500Y-11052600D02*
X18785500Y-11147000D01*
X18755000Y-11099800D02*
G75*
G03X18755000Y-11099800I-90000J0D01*
G01*
X18793750Y-11099800D02*
G75*
G03X18793750Y-11099800I-253750J0D01*
G01*
X18360100Y-11537100D02*
X17860300Y-11537100D01*
X18359300Y-11551100D02*
X17861100Y-11551100D01*
X18357700Y-11565100D02*
X18119700Y-11565100D01*
X18100700Y-11565100D02*
X17862700Y-11565100D01*
X18355300Y-11579100D02*
X18159200Y-11579100D01*
X18061200Y-11579100D02*
X17865100Y-11579100D01*
X18352000Y-11593100D02*
X18175900Y-11593100D01*
X18044500Y-11593100D02*
X17868400Y-11593100D01*
X18347900Y-11607100D02*
X18186600Y-11607100D01*
X18033800Y-11607100D02*
X17872500Y-11607100D01*
X18342900Y-11621100D02*
X18193700Y-11621100D01*
X18026700Y-11621100D02*
X17877500Y-11621100D01*
X18336800Y-11635100D02*
X18198100Y-11635100D01*
X18022300Y-11635100D02*
X17883600Y-11635100D01*
X18329800Y-11649100D02*
X18200000Y-11649100D01*
X18020400Y-11649100D02*
X17890600Y-11649100D01*
X18321600Y-11663100D02*
X18199800Y-11663100D01*
X18020600Y-11663100D02*
X17898800Y-11663100D01*
X18312100Y-11677100D02*
X18197300Y-11677100D01*
X18023100Y-11677100D02*
X17908300Y-11677100D01*
X18301000Y-11691100D02*
X18192500Y-11691100D01*
X18027900Y-11691100D02*
X17919400Y-11691100D01*
X18288200Y-11705100D02*
X18184700Y-11705100D01*
X18035700Y-11705100D02*
X17932200Y-11705100D01*
X18273300Y-11719100D02*
X18173000Y-11719100D01*
X18047400Y-11719100D02*
X17947100Y-11719100D01*
X18255400Y-11733100D02*
X18154200Y-11733100D01*
X18066200Y-11733100D02*
X17965000Y-11733100D01*
X18233500Y-11747100D02*
X17986900Y-11747100D01*
X18204600Y-11761100D02*
X18015800Y-11761100D01*
X18157400Y-11775100D02*
X18063000Y-11775100D01*
X18200200Y-11654600D02*
G75*
G03X18200200Y-11654600I-90000J0D01*
G01*
X18363950Y-11529600D02*
G75*
G03X18363950Y-11529600I-253750J0D01*
G01*
D12*
X14503400Y-5626100D02*
X14503400Y-6388100D01*
X12979400Y-5626100D02*
X12979400Y-6388100D01*
X14503400Y-5753100D02*
X12979400Y-5753100D01*
X14503400Y-6388100D02*
X12979400Y-6388100D01*
X14503400Y-5626100D02*
X12979400Y-5626100D01*
X16230600Y-5626100D02*
X14706600Y-5626100D01*
X16230600Y-6388100D02*
X14706600Y-6388100D01*
X16230600Y-5753100D02*
X14706600Y-5753100D01*
X14706600Y-5626100D02*
X14706600Y-6388100D01*
X16230600Y-5626100D02*
X16230600Y-6388100D01*
X17957800Y-5626100D02*
X17957800Y-6388100D01*
X16433800Y-5626100D02*
X16433800Y-6388100D01*
X17957800Y-5753100D02*
X16433800Y-5753100D01*
X17957800Y-6388100D02*
X16433800Y-6388100D01*
X17957800Y-5626100D02*
X16433800Y-5626100D01*
X19685000Y-5626100D02*
X18161000Y-5626100D01*
X19685000Y-6388100D02*
X18161000Y-6388100D01*
X19685000Y-5753100D02*
X18161000Y-5753100D01*
X18161000Y-5626100D02*
X18161000Y-6388100D01*
X19685000Y-5626100D02*
X19685000Y-6388100D01*
X18008600Y-15087600D02*
X19532600Y-15087600D01*
X18008600Y-14325600D02*
X19532600Y-14325600D01*
X18008600Y-14960600D02*
X19532600Y-14960600D01*
X19532600Y-15087600D02*
X19532600Y-14325600D01*
X18008600Y-15087600D02*
X18008600Y-14325600D01*
X16332200Y-15087600D02*
X16332200Y-14325600D01*
X17856200Y-15087600D02*
X17856200Y-14325600D01*
X16332200Y-14960600D02*
X17856200Y-14960600D01*
X16332200Y-14325600D02*
X17856200Y-14325600D01*
X16332200Y-15087600D02*
X17856200Y-15087600D01*
X14655800Y-15087600D02*
X16179800Y-15087600D01*
X14655800Y-14325600D02*
X16179800Y-14325600D01*
X14655800Y-14960600D02*
X16179800Y-14960600D01*
X16179800Y-15087600D02*
X16179800Y-14325600D01*
X14655800Y-15087600D02*
X14655800Y-14325600D01*
X12979400Y-15087600D02*
X12979400Y-14325600D01*
X14503400Y-15087600D02*
X14503400Y-14325600D01*
X12979400Y-14960600D02*
X14503400Y-14960600D01*
X12979400Y-14325600D02*
X14503400Y-14325600D01*
X12979400Y-15087600D02*
X14503400Y-15087600D01*
D11*
X14516400Y-8379500D02*
X12966400Y-8379500D01*
X14516400Y-6479500D02*
X14516400Y-8379500D01*
X12966400Y-6479500D02*
X14516400Y-6479500D01*
X12966400Y-8379500D02*
X12966400Y-6479500D01*
X14693600Y-8379500D02*
X14693600Y-6479500D01*
X14693600Y-6479500D02*
X16243600Y-6479500D01*
X16243600Y-6479500D02*
X16243600Y-8379500D01*
X16243600Y-8379500D02*
X14693600Y-8379500D01*
X17970800Y-8379500D02*
X16420800Y-8379500D01*
X17970800Y-6479500D02*
X17970800Y-8379500D01*
X16420800Y-6479500D02*
X17970800Y-6479500D01*
X16420800Y-8379500D02*
X16420800Y-6479500D01*
X18148000Y-8379500D02*
X18148000Y-6479500D01*
X18148000Y-6479500D02*
X19698000Y-6479500D01*
X19698000Y-6479500D02*
X19698000Y-8379500D01*
X19698000Y-8379500D02*
X18148000Y-8379500D01*
X17995600Y-12385000D02*
X19545600Y-12385000D01*
X17995600Y-14285000D02*
X17995600Y-12385000D01*
X19545600Y-14285000D02*
X17995600Y-14285000D01*
X19545600Y-12385000D02*
X19545600Y-14285000D01*
X17869200Y-12385000D02*
X17869200Y-14285000D01*
X17869200Y-14285000D02*
X16319200Y-14285000D01*
X16319200Y-14285000D02*
X16319200Y-12385000D01*
X16319200Y-12385000D02*
X17869200Y-12385000D01*
X14642800Y-12385000D02*
X16192800Y-12385000D01*
X14642800Y-14285000D02*
X14642800Y-12385000D01*
X16192800Y-14285000D02*
X14642800Y-14285000D01*
X16192800Y-12385000D02*
X16192800Y-14285000D01*
X14516400Y-12385000D02*
X14516400Y-14285000D01*
X14516400Y-14285000D02*
X12966400Y-14285000D01*
X12966400Y-14285000D02*
X12966400Y-12385000D01*
X12966400Y-12385000D02*
X14516400Y-12385000D01*
X14837581Y-9562138D02*
X14837581Y-9462138D01*
X14942343Y-9552614D02*
X14937581Y-9557376D01*
X14923295Y-9562138D01*
X14913771Y-9562138D01*
X14899486Y-9557376D01*
X14889962Y-9547852D01*
X14885200Y-9538329D01*
X14880438Y-9519281D01*
X14880438Y-9504995D01*
X14885200Y-9485948D01*
X14889962Y-9476424D01*
X14899486Y-9466900D01*
X14913771Y-9462138D01*
X14923295Y-9462138D01*
X14937581Y-9466900D01*
X14942343Y-9471662D01*
X15037581Y-9562138D02*
X14980438Y-9562138D01*
X15009009Y-9562138D02*
X15009009Y-9462138D01*
X14999486Y-9476424D01*
X14989962Y-9485948D01*
X14980438Y-9490710D01*
X19069838Y-11529209D02*
X18969838Y-11529209D01*
X18969838Y-11491114D01*
X18974600Y-11481590D01*
X18979362Y-11476828D01*
X18988886Y-11472067D01*
X19003171Y-11472067D01*
X19012695Y-11476828D01*
X19017457Y-11481590D01*
X19022219Y-11491114D01*
X19022219Y-11529209D01*
X19069838Y-11376828D02*
X19069838Y-11433971D01*
X19069838Y-11405400D02*
X18969838Y-11405400D01*
X18984124Y-11414924D01*
X18993648Y-11424448D01*
X18998410Y-11433971D01*
X17210891Y-9229638D02*
X17210891Y-9129638D01*
X17248986Y-9129638D01*
X17258510Y-9134400D01*
X17263272Y-9139162D01*
X17268033Y-9148686D01*
X17268033Y-9162971D01*
X17263272Y-9172495D01*
X17258510Y-9177257D01*
X17248986Y-9182019D01*
X17210891Y-9182019D01*
X17306129Y-9139162D02*
X17310891Y-9134400D01*
X17320414Y-9129638D01*
X17344224Y-9129638D01*
X17353748Y-9134400D01*
X17358510Y-9139162D01*
X17363272Y-9148686D01*
X17363272Y-9158210D01*
X17358510Y-9172495D01*
X17301367Y-9229638D01*
X17363272Y-9229638D01*
X16258390Y-10787138D02*
X16258390Y-10687138D01*
X16296486Y-10687138D01*
X16306010Y-10691900D01*
X16310771Y-10696662D01*
X16315533Y-10706186D01*
X16315533Y-10720471D01*
X16310771Y-10729995D01*
X16306010Y-10734757D01*
X16296486Y-10739519D01*
X16258390Y-10739519D01*
X16348867Y-10687138D02*
X16410771Y-10687138D01*
X16377438Y-10725233D01*
X16391724Y-10725233D01*
X16401248Y-10729995D01*
X16406010Y-10734757D01*
X16410771Y-10744281D01*
X16410771Y-10768091D01*
X16406010Y-10777614D01*
X16401248Y-10782376D01*
X16391724Y-10787138D01*
X16363152Y-10787138D01*
X16353629Y-10782376D01*
X16348867Y-10777614D01*
X17221210Y-11799838D02*
X17221210Y-11880790D01*
X17225971Y-11890314D01*
X17230733Y-11895076D01*
X17240257Y-11899838D01*
X17259305Y-11899838D01*
X17268829Y-11895076D01*
X17273591Y-11890314D01*
X17278352Y-11880790D01*
X17278352Y-11799838D01*
X17378352Y-11899838D02*
X17321210Y-11899838D01*
X17349781Y-11899838D02*
X17349781Y-11799838D01*
X17340257Y-11814124D01*
X17330733Y-11823648D01*
X17321210Y-11828409D01*
D13*
X19484348Y-10763891D02*
X19484348Y-10828652D01*
X19488157Y-10836271D01*
X19491967Y-10840081D01*
X19499586Y-10843891D01*
X19514824Y-10843891D01*
X19522443Y-10840081D01*
X19526252Y-10836271D01*
X19530062Y-10828652D01*
X19530062Y-10763891D01*
X19564348Y-10771510D02*
X19568157Y-10767700D01*
X19575776Y-10763891D01*
X19594824Y-10763891D01*
X19602443Y-10767700D01*
X19606252Y-10771510D01*
X19610062Y-10779129D01*
X19610062Y-10786748D01*
X19606252Y-10798176D01*
X19560538Y-10843891D01*
X19610062Y-10843891D01*
D11*
X18523333Y-10755514D02*
X18518572Y-10760276D01*
X18504286Y-10765038D01*
X18494762Y-10765038D01*
X18480476Y-10760276D01*
X18470952Y-10750752D01*
X18466191Y-10741229D01*
X18461429Y-10722181D01*
X18461429Y-10707895D01*
X18466191Y-10688848D01*
X18470952Y-10679324D01*
X18480476Y-10669800D01*
X18494762Y-10665038D01*
X18504286Y-10665038D01*
X18518572Y-10669800D01*
X18523333Y-10674562D01*
X18618572Y-10765038D02*
X18561429Y-10765038D01*
X18590000Y-10765038D02*
X18590000Y-10665038D01*
X18580476Y-10679324D01*
X18570952Y-10688848D01*
X18561429Y-10693610D01*
X17891914Y-11230767D02*
X17896676Y-11235528D01*
X17901438Y-11249814D01*
X17901438Y-11259338D01*
X17896676Y-11273624D01*
X17887152Y-11283148D01*
X17877629Y-11287909D01*
X17858581Y-11292671D01*
X17844295Y-11292671D01*
X17825248Y-11287909D01*
X17815724Y-11283148D01*
X17806200Y-11273624D01*
X17801438Y-11259338D01*
X17801438Y-11249814D01*
X17806200Y-11235528D01*
X17810962Y-11230767D01*
X17810962Y-11192671D02*
X17806200Y-11187909D01*
X17801438Y-11178386D01*
X17801438Y-11154576D01*
X17806200Y-11145052D01*
X17810962Y-11140290D01*
X17820486Y-11135529D01*
X17830010Y-11135529D01*
X17844295Y-11140290D01*
X17901438Y-11197433D01*
X17901438Y-11135529D01*
X13670590Y-6517338D02*
X13670590Y-6417338D01*
X13708686Y-6417338D01*
X13718210Y-6422100D01*
X13722971Y-6426862D01*
X13727733Y-6436386D01*
X13727733Y-6450671D01*
X13722971Y-6460195D01*
X13718210Y-6464957D01*
X13708686Y-6469719D01*
X13670590Y-6469719D01*
X13813448Y-6450671D02*
X13813448Y-6517338D01*
X13789638Y-6412576D02*
X13765829Y-6484005D01*
X13827733Y-6484005D01*
X15397790Y-6517338D02*
X15397790Y-6417338D01*
X15435886Y-6417338D01*
X15445410Y-6422100D01*
X15450171Y-6426862D01*
X15454933Y-6436386D01*
X15454933Y-6450671D01*
X15450171Y-6460195D01*
X15445410Y-6464957D01*
X15435886Y-6469719D01*
X15397790Y-6469719D01*
X15545410Y-6417338D02*
X15497790Y-6417338D01*
X15493029Y-6464957D01*
X15497790Y-6460195D01*
X15507314Y-6455433D01*
X15531124Y-6455433D01*
X15540648Y-6460195D01*
X15545410Y-6464957D01*
X15550171Y-6474481D01*
X15550171Y-6498290D01*
X15545410Y-6507814D01*
X15540648Y-6512576D01*
X15531124Y-6517338D01*
X15507314Y-6517338D01*
X15497790Y-6512576D01*
X15493029Y-6507814D01*
X17124991Y-6517338D02*
X17124991Y-6417338D01*
X17163086Y-6417338D01*
X17172610Y-6422100D01*
X17177372Y-6426862D01*
X17182133Y-6436386D01*
X17182133Y-6450671D01*
X17177372Y-6460195D01*
X17172610Y-6464957D01*
X17163086Y-6469719D01*
X17124991Y-6469719D01*
X17267848Y-6417338D02*
X17248800Y-6417338D01*
X17239276Y-6422100D01*
X17234514Y-6426862D01*
X17224991Y-6441148D01*
X17220229Y-6460195D01*
X17220229Y-6498290D01*
X17224991Y-6507814D01*
X17229752Y-6512576D01*
X17239276Y-6517338D01*
X17258324Y-6517338D01*
X17267848Y-6512576D01*
X17272610Y-6507814D01*
X17277372Y-6498290D01*
X17277372Y-6474481D01*
X17272610Y-6464957D01*
X17267848Y-6460195D01*
X17258324Y-6455433D01*
X17239276Y-6455433D01*
X17229752Y-6460195D01*
X17224991Y-6464957D01*
X17220229Y-6474481D01*
X18852191Y-6517338D02*
X18852191Y-6417338D01*
X18890286Y-6417338D01*
X18899810Y-6422100D01*
X18904572Y-6426862D01*
X18909333Y-6436386D01*
X18909333Y-6450671D01*
X18904572Y-6460195D01*
X18899810Y-6464957D01*
X18890286Y-6469719D01*
X18852191Y-6469719D01*
X18942667Y-6417338D02*
X19009333Y-6417338D01*
X18966476Y-6517338D01*
X18693791Y-14286838D02*
X18693791Y-14186838D01*
X18731886Y-14186838D01*
X18741410Y-14191600D01*
X18746172Y-14196362D01*
X18750933Y-14205886D01*
X18750933Y-14220171D01*
X18746172Y-14229695D01*
X18741410Y-14234457D01*
X18731886Y-14239219D01*
X18693791Y-14239219D01*
X18808076Y-14229695D02*
X18798552Y-14224933D01*
X18793791Y-14220171D01*
X18789029Y-14210648D01*
X18789029Y-14205886D01*
X18793791Y-14196362D01*
X18798552Y-14191600D01*
X18808076Y-14186838D01*
X18827124Y-14186838D01*
X18836648Y-14191600D01*
X18841410Y-14196362D01*
X18846172Y-14205886D01*
X18846172Y-14210648D01*
X18841410Y-14220171D01*
X18836648Y-14224933D01*
X18827124Y-14229695D01*
X18808076Y-14229695D01*
X18798552Y-14234457D01*
X18793791Y-14239219D01*
X18789029Y-14248743D01*
X18789029Y-14267790D01*
X18793791Y-14277314D01*
X18798552Y-14282076D01*
X18808076Y-14286838D01*
X18827124Y-14286838D01*
X18836648Y-14282076D01*
X18841410Y-14277314D01*
X18846172Y-14267790D01*
X18846172Y-14248743D01*
X18841410Y-14239219D01*
X18836648Y-14234457D01*
X18827124Y-14229695D01*
X17017391Y-14286838D02*
X17017391Y-14186838D01*
X17055486Y-14186838D01*
X17065010Y-14191600D01*
X17069772Y-14196362D01*
X17074533Y-14205886D01*
X17074533Y-14220171D01*
X17069772Y-14229695D01*
X17065010Y-14234457D01*
X17055486Y-14239219D01*
X17017391Y-14239219D01*
X17122152Y-14286838D02*
X17141200Y-14286838D01*
X17150724Y-14282076D01*
X17155486Y-14277314D01*
X17165010Y-14263029D01*
X17169772Y-14243981D01*
X17169772Y-14205886D01*
X17165010Y-14196362D01*
X17160248Y-14191600D01*
X17150724Y-14186838D01*
X17131676Y-14186838D01*
X17122152Y-14191600D01*
X17117391Y-14196362D01*
X17112629Y-14205886D01*
X17112629Y-14229695D01*
X17117391Y-14239219D01*
X17122152Y-14243981D01*
X17131676Y-14248743D01*
X17150724Y-14248743D01*
X17160248Y-14243981D01*
X17165010Y-14239219D01*
X17169772Y-14229695D01*
X15293371Y-14286838D02*
X15293371Y-14186838D01*
X15331467Y-14186838D01*
X15340990Y-14191600D01*
X15345752Y-14196362D01*
X15350514Y-14205886D01*
X15350514Y-14220171D01*
X15345752Y-14229695D01*
X15340990Y-14234457D01*
X15331467Y-14239219D01*
X15293371Y-14239219D01*
X15445752Y-14286838D02*
X15388609Y-14286838D01*
X15417181Y-14286838D02*
X15417181Y-14186838D01*
X15407657Y-14201124D01*
X15398133Y-14210648D01*
X15388609Y-14215409D01*
X15507657Y-14186838D02*
X15517181Y-14186838D01*
X15526705Y-14191600D01*
X15531467Y-14196362D01*
X15536229Y-14205886D01*
X15540990Y-14224933D01*
X15540990Y-14248743D01*
X15536229Y-14267790D01*
X15531467Y-14277314D01*
X15526705Y-14282076D01*
X15517181Y-14286838D01*
X15507657Y-14286838D01*
X15498133Y-14282076D01*
X15493371Y-14277314D01*
X15488609Y-14267790D01*
X15483848Y-14248743D01*
X15483848Y-14224933D01*
X15488609Y-14205886D01*
X15493371Y-14196362D01*
X15498133Y-14191600D01*
X15507657Y-14186838D01*
X13616971Y-14286838D02*
X13616971Y-14186838D01*
X13655067Y-14186838D01*
X13664590Y-14191600D01*
X13669352Y-14196362D01*
X13674114Y-14205886D01*
X13674114Y-14220171D01*
X13669352Y-14229695D01*
X13664590Y-14234457D01*
X13655067Y-14239219D01*
X13616971Y-14239219D01*
X13769352Y-14286838D02*
X13712209Y-14286838D01*
X13740781Y-14286838D02*
X13740781Y-14186838D01*
X13731257Y-14201124D01*
X13721733Y-14210648D01*
X13712209Y-14215409D01*
X13864590Y-14286838D02*
X13807448Y-14286838D01*
X13836019Y-14286838D02*
X13836019Y-14186838D01*
X13826495Y-14201124D01*
X13816971Y-14210648D01*
X13807448Y-14215409D01*
X14686638Y-7529500D02*
X14639019Y-7562833D01*
X14686638Y-7586643D02*
X14586638Y-7586643D01*
X14586638Y-7548548D01*
X14591400Y-7539024D01*
X14596162Y-7534262D01*
X14605686Y-7529500D01*
X14619971Y-7529500D01*
X14629495Y-7534262D01*
X14634257Y-7539024D01*
X14639019Y-7548548D01*
X14639019Y-7586643D01*
X14686638Y-7439024D02*
X14686638Y-7486643D01*
X14586638Y-7486643D01*
X14639019Y-7386643D02*
X14686638Y-7386643D01*
X14586638Y-7419976D02*
X14639019Y-7386643D01*
X14586638Y-7353309D01*
X14686638Y-7267595D02*
X14686638Y-7324738D01*
X14686638Y-7296167D02*
X14586638Y-7296167D01*
X14600924Y-7305690D01*
X14610448Y-7315214D01*
X14615209Y-7324738D01*
X16413838Y-7529500D02*
X16366219Y-7562833D01*
X16413838Y-7586643D02*
X16313838Y-7586643D01*
X16313838Y-7548548D01*
X16318600Y-7539024D01*
X16323362Y-7534262D01*
X16332886Y-7529500D01*
X16347171Y-7529500D01*
X16356695Y-7534262D01*
X16361457Y-7539024D01*
X16366219Y-7548548D01*
X16366219Y-7586643D01*
X16413838Y-7439024D02*
X16413838Y-7486643D01*
X16313838Y-7486643D01*
X16366219Y-7386643D02*
X16413838Y-7386643D01*
X16313838Y-7419976D02*
X16366219Y-7386643D01*
X16313838Y-7353309D01*
X16323362Y-7324738D02*
X16318600Y-7319976D01*
X16313838Y-7310452D01*
X16313838Y-7286643D01*
X16318600Y-7277119D01*
X16323362Y-7272357D01*
X16332886Y-7267595D01*
X16342409Y-7267595D01*
X16356695Y-7272357D01*
X16413838Y-7329500D01*
X16413838Y-7267595D01*
X18141038Y-7529500D02*
X18093419Y-7562833D01*
X18141038Y-7586643D02*
X18041038Y-7586643D01*
X18041038Y-7548548D01*
X18045800Y-7539024D01*
X18050562Y-7534262D01*
X18060086Y-7529500D01*
X18074371Y-7529500D01*
X18083895Y-7534262D01*
X18088657Y-7539024D01*
X18093419Y-7548548D01*
X18093419Y-7586643D01*
X18141038Y-7439024D02*
X18141038Y-7486643D01*
X18041038Y-7486643D01*
X18093419Y-7386643D02*
X18141038Y-7386643D01*
X18041038Y-7419976D02*
X18093419Y-7386643D01*
X18041038Y-7353309D01*
X18041038Y-7329500D02*
X18041038Y-7267595D01*
X18079133Y-7300929D01*
X18079133Y-7286643D01*
X18083895Y-7277119D01*
X18088657Y-7272357D01*
X18098181Y-7267595D01*
X18121991Y-7267595D01*
X18131514Y-7272357D01*
X18136276Y-7277119D01*
X18141038Y-7286643D01*
X18141038Y-7315214D01*
X18136276Y-7324738D01*
X18131514Y-7329500D01*
X19868238Y-7529500D02*
X19820619Y-7562833D01*
X19868238Y-7586643D02*
X19768238Y-7586643D01*
X19768238Y-7548548D01*
X19773000Y-7539024D01*
X19777762Y-7534262D01*
X19787286Y-7529500D01*
X19801571Y-7529500D01*
X19811095Y-7534262D01*
X19815857Y-7539024D01*
X19820619Y-7548548D01*
X19820619Y-7586643D01*
X19868238Y-7439024D02*
X19868238Y-7486643D01*
X19768238Y-7486643D01*
X19820619Y-7386643D02*
X19868238Y-7386643D01*
X19768238Y-7419976D02*
X19820619Y-7386643D01*
X19768238Y-7353309D01*
X19801571Y-7277119D02*
X19868238Y-7277119D01*
X19763476Y-7300929D02*
X19834905Y-7324738D01*
X19834905Y-7262833D01*
X17915838Y-13435000D02*
X17868219Y-13468333D01*
X17915838Y-13492143D02*
X17815838Y-13492143D01*
X17815838Y-13454048D01*
X17820600Y-13444524D01*
X17825362Y-13439762D01*
X17834886Y-13435000D01*
X17849171Y-13435000D01*
X17858695Y-13439762D01*
X17863457Y-13444524D01*
X17868219Y-13454048D01*
X17868219Y-13492143D01*
X17915838Y-13344524D02*
X17915838Y-13392143D01*
X17815838Y-13392143D01*
X17868219Y-13292143D02*
X17915838Y-13292143D01*
X17815838Y-13325476D02*
X17868219Y-13292143D01*
X17815838Y-13258809D01*
X17815838Y-13177857D02*
X17815838Y-13225476D01*
X17863457Y-13230238D01*
X17858695Y-13225476D01*
X17853933Y-13215952D01*
X17853933Y-13192143D01*
X17858695Y-13182619D01*
X17863457Y-13177857D01*
X17872981Y-13173095D01*
X17896791Y-13173095D01*
X17906314Y-13177857D01*
X17911076Y-13182619D01*
X17915838Y-13192143D01*
X17915838Y-13215952D01*
X17911076Y-13225476D01*
X17906314Y-13230238D01*
X16239438Y-13435000D02*
X16191819Y-13468333D01*
X16239438Y-13492143D02*
X16139438Y-13492143D01*
X16139438Y-13454048D01*
X16144200Y-13444524D01*
X16148962Y-13439762D01*
X16158486Y-13435000D01*
X16172771Y-13435000D01*
X16182295Y-13439762D01*
X16187057Y-13444524D01*
X16191819Y-13454048D01*
X16191819Y-13492143D01*
X16239438Y-13344524D02*
X16239438Y-13392143D01*
X16139438Y-13392143D01*
X16191819Y-13292143D02*
X16239438Y-13292143D01*
X16139438Y-13325476D02*
X16191819Y-13292143D01*
X16139438Y-13258809D01*
X16139438Y-13182619D02*
X16139438Y-13201667D01*
X16144200Y-13211190D01*
X16148962Y-13215952D01*
X16163248Y-13225476D01*
X16182295Y-13230238D01*
X16220390Y-13230238D01*
X16229914Y-13225476D01*
X16234676Y-13220714D01*
X16239438Y-13211190D01*
X16239438Y-13192143D01*
X16234676Y-13182619D01*
X16229914Y-13177857D01*
X16220390Y-13173095D01*
X16196581Y-13173095D01*
X16187057Y-13177857D01*
X16182295Y-13182619D01*
X16177533Y-13192143D01*
X16177533Y-13211190D01*
X16182295Y-13220714D01*
X16187057Y-13225476D01*
X16196581Y-13230238D01*
X14563038Y-13435000D02*
X14515419Y-13468333D01*
X14563038Y-13492143D02*
X14463038Y-13492143D01*
X14463038Y-13454048D01*
X14467800Y-13444524D01*
X14472562Y-13439762D01*
X14482086Y-13435000D01*
X14496371Y-13435000D01*
X14505895Y-13439762D01*
X14510657Y-13444524D01*
X14515419Y-13454048D01*
X14515419Y-13492143D01*
X14563038Y-13344524D02*
X14563038Y-13392143D01*
X14463038Y-13392143D01*
X14515419Y-13292143D02*
X14563038Y-13292143D01*
X14463038Y-13325476D02*
X14515419Y-13292143D01*
X14463038Y-13258809D01*
X14463038Y-13235000D02*
X14463038Y-13168333D01*
X14563038Y-13211190D01*
X12886638Y-13435000D02*
X12839019Y-13468333D01*
X12886638Y-13492143D02*
X12786638Y-13492143D01*
X12786638Y-13454048D01*
X12791400Y-13444524D01*
X12796162Y-13439762D01*
X12805686Y-13435000D01*
X12819971Y-13435000D01*
X12829495Y-13439762D01*
X12834257Y-13444524D01*
X12839019Y-13454048D01*
X12839019Y-13492143D01*
X12886638Y-13344524D02*
X12886638Y-13392143D01*
X12786638Y-13392143D01*
X12839019Y-13292143D02*
X12886638Y-13292143D01*
X12786638Y-13325476D02*
X12839019Y-13292143D01*
X12786638Y-13258809D01*
X12829495Y-13211190D02*
X12824733Y-13220714D01*
X12819971Y-13225476D01*
X12810448Y-13230238D01*
X12805686Y-13230238D01*
X12796162Y-13225476D01*
X12791400Y-13220714D01*
X12786638Y-13211190D01*
X12786638Y-13192143D01*
X12791400Y-13182619D01*
X12796162Y-13177857D01*
X12805686Y-13173095D01*
X12810448Y-13173095D01*
X12819971Y-13177857D01*
X12824733Y-13182619D01*
X12829495Y-13192143D01*
X12829495Y-13211190D01*
X12834257Y-13220714D01*
X12839019Y-13225476D01*
X12848543Y-13230238D01*
X12867590Y-13230238D01*
X12877114Y-13225476D01*
X12881876Y-13220714D01*
X12886638Y-13211190D01*
X12886638Y-13192143D01*
X12881876Y-13182619D01*
X12877114Y-13177857D01*
X12867590Y-13173095D01*
X12848543Y-13173095D01*
X12839019Y-13177857D01*
X12834257Y-13182619D01*
X12829495Y-13192143D01*
M02*
