G04 #@! TF.FileFunction,Soldermask,Top*
%FSLAX45Y45*%
G04 Gerber Fmt 4.5, Leading zero omitted, Abs format (unit mm)*
G04 Created by KiCad (PCBNEW 4.0.5-e0-6337~49~ubuntu16.04.1) date Tue Jan 24 14:39:18 2017*
%MOMM*%
%LPD*%
G01*
G04 APERTURE LIST*
%ADD10C,0.100000*%
%ADD11R,2.000000X0.950000*%
%ADD12R,0.950000X2.000000*%
%ADD13R,2.940000X2.940000*%
%ADD14C,2.940000*%
%ADD15R,2.100000X2.100000*%
%ADD16O,2.100000X2.100000*%
%ADD17R,2.400000X4.200000*%
%ADD18R,2.400000X1.900000*%
%ADD19R,3.400000X1.600000*%
%ADD20R,1.700000X1.700000*%
%ADD21C,1.700000*%
%ADD22R,3.400000X3.400000*%
%ADD23C,3.400000*%
%ADD24C,1.924000*%
%ADD25C,6.800000*%
G04 APERTURE END LIST*
D10*
D11*
X14510200Y-9841900D03*
X14510200Y-9921900D03*
X14510200Y-10001900D03*
X14510200Y-10081900D03*
X14510200Y-10161900D03*
X14510200Y-10241900D03*
X14510200Y-10321900D03*
X14510200Y-10401900D03*
D12*
X14655200Y-10546900D03*
X14735200Y-10546900D03*
X14815200Y-10546900D03*
X14895200Y-10546900D03*
X14975200Y-10546900D03*
X15055200Y-10546900D03*
X15135200Y-10546900D03*
X15215200Y-10546900D03*
D11*
X15360200Y-10401900D03*
X15360200Y-10321900D03*
X15360200Y-10241900D03*
X15360200Y-10161900D03*
X15360200Y-10081900D03*
X15360200Y-10001900D03*
X15360200Y-9921900D03*
X15360200Y-9841900D03*
D12*
X15215200Y-9696900D03*
X15135200Y-9696900D03*
X15055200Y-9696900D03*
X14975200Y-9696900D03*
X14895200Y-9696900D03*
X14815200Y-9696900D03*
X14735200Y-9696900D03*
X14655200Y-9696900D03*
D13*
X19532600Y-11709400D03*
D14*
X19532600Y-11201400D03*
D15*
X17284700Y-9423400D03*
X16459200Y-10502900D03*
D16*
X16205200Y-10502900D03*
X16459200Y-10248900D03*
X16205200Y-10248900D03*
X16459200Y-9994900D03*
X16205200Y-9994900D03*
D17*
X16982400Y-11404600D03*
D18*
X17612400Y-11404600D03*
X17612400Y-11174600D03*
X17612400Y-11634600D03*
D19*
X19710700Y-10629900D03*
X19710700Y-10429900D03*
X19710700Y-10229900D03*
X19710700Y-10029900D03*
X19710700Y-9829900D03*
X19710700Y-9629900D03*
X19710700Y-9429900D03*
X19710700Y-9229900D03*
X17740700Y-9229900D03*
X17740700Y-9429900D03*
X17740700Y-9629900D03*
X17740700Y-9829900D03*
X17740700Y-10029900D03*
X17740700Y-10229900D03*
X17740700Y-10429900D03*
X17740700Y-10629900D03*
D20*
X18415000Y-11099800D03*
D21*
X18665000Y-11099800D03*
D20*
X18110200Y-11404600D03*
D21*
X18110200Y-11654600D03*
D22*
X14249400Y-6007100D03*
D23*
X13741400Y-6007100D03*
X13233400Y-6007100D03*
X14960600Y-6007100D03*
X15468600Y-6007100D03*
D22*
X15976600Y-6007100D03*
X17703800Y-6007100D03*
D23*
X17195800Y-6007100D03*
X16687800Y-6007100D03*
X18415000Y-6007100D03*
X18923000Y-6007100D03*
D22*
X19431000Y-6007100D03*
D23*
X19278600Y-14706600D03*
X18770600Y-14706600D03*
D22*
X18262600Y-14706600D03*
X16586200Y-14706600D03*
D23*
X17094200Y-14706600D03*
X17602200Y-14706600D03*
X15925800Y-14706600D03*
X15417800Y-14706600D03*
D22*
X14909800Y-14706600D03*
X13233400Y-14706600D03*
D23*
X13741400Y-14706600D03*
X14249400Y-14706600D03*
D24*
X13741400Y-8239500D03*
X13141400Y-6819500D03*
X14341400Y-6819500D03*
X14341400Y-8039500D03*
X13141400Y-8039500D03*
X14868600Y-8039500D03*
X16068600Y-8039500D03*
X16068600Y-6819500D03*
X14868600Y-6819500D03*
X15468600Y-8239500D03*
X17195800Y-8239500D03*
X16595800Y-6819500D03*
X17795800Y-6819500D03*
X17795800Y-8039500D03*
X16595800Y-8039500D03*
X18323000Y-8039500D03*
X19523000Y-8039500D03*
X19523000Y-6819500D03*
X18323000Y-6819500D03*
X18923000Y-8239500D03*
X18770600Y-12525000D03*
X19370600Y-13945000D03*
X18170600Y-13945000D03*
X18170600Y-12725000D03*
X19370600Y-12725000D03*
X17694200Y-12725000D03*
X16494200Y-12725000D03*
X16494200Y-13945000D03*
X17694200Y-13945000D03*
X17094200Y-12525000D03*
X15417800Y-12525000D03*
X16017800Y-13945000D03*
X14817800Y-13945000D03*
X14817800Y-12725000D03*
X16017800Y-12725000D03*
X14341400Y-12725000D03*
X13141400Y-12725000D03*
X13141400Y-13945000D03*
X14341400Y-13945000D03*
X13741400Y-12525000D03*
D25*
X20183000Y-7792700D03*
X12483000Y-7792700D03*
X12483000Y-12697400D03*
X20183000Y-12697400D03*
M02*
