G04 #@! TF.FileFunction,Copper,L1,Top,Signal*
%FSLAX45Y45*%
G04 Gerber Fmt 4.5, Leading zero omitted, Abs format (unit mm)*
G04 Created by KiCad (PCBNEW 4.0.5-e0-6337~49~ubuntu16.04.1) date Tue Jan 24 14:39:18 2017*
%MOMM*%
%LPD*%
G01*
G04 APERTURE LIST*
%ADD10C,0.100000*%
%ADD11R,1.600000X0.550000*%
%ADD12R,0.550000X1.600000*%
%ADD13R,2.540000X2.540000*%
%ADD14C,2.540000*%
%ADD15R,1.700000X1.700000*%
%ADD16O,1.700000X1.700000*%
%ADD17R,2.000000X3.800000*%
%ADD18R,2.000000X1.500000*%
%ADD19R,3.000000X1.200000*%
%ADD20R,1.300000X1.300000*%
%ADD21C,1.300000*%
%ADD22R,3.000000X3.000000*%
%ADD23C,3.000000*%
%ADD24C,1.524000*%
%ADD25C,6.400000*%
%ADD26C,0.600000*%
%ADD27C,0.250000*%
%ADD28C,0.500000*%
%ADD29C,0.254000*%
G04 APERTURE END LIST*
D10*
D11*
X14510200Y-9841900D03*
X14510200Y-9921900D03*
X14510200Y-10001900D03*
X14510200Y-10081900D03*
X14510200Y-10161900D03*
X14510200Y-10241900D03*
X14510200Y-10321900D03*
X14510200Y-10401900D03*
D12*
X14655200Y-10546900D03*
X14735200Y-10546900D03*
X14815200Y-10546900D03*
X14895200Y-10546900D03*
X14975200Y-10546900D03*
X15055200Y-10546900D03*
X15135200Y-10546900D03*
X15215200Y-10546900D03*
D11*
X15360200Y-10401900D03*
X15360200Y-10321900D03*
X15360200Y-10241900D03*
X15360200Y-10161900D03*
X15360200Y-10081900D03*
X15360200Y-10001900D03*
X15360200Y-9921900D03*
X15360200Y-9841900D03*
D12*
X15215200Y-9696900D03*
X15135200Y-9696900D03*
X15055200Y-9696900D03*
X14975200Y-9696900D03*
X14895200Y-9696900D03*
X14815200Y-9696900D03*
X14735200Y-9696900D03*
X14655200Y-9696900D03*
D13*
X19532600Y-11709400D03*
D14*
X19532600Y-11201400D03*
D15*
X17284700Y-9423400D03*
X16459200Y-10502900D03*
D16*
X16205200Y-10502900D03*
X16459200Y-10248900D03*
X16205200Y-10248900D03*
X16459200Y-9994900D03*
X16205200Y-9994900D03*
D17*
X16982400Y-11404600D03*
D18*
X17612400Y-11404600D03*
X17612400Y-11174600D03*
X17612400Y-11634600D03*
D19*
X19710700Y-10629900D03*
X19710700Y-10429900D03*
X19710700Y-10229900D03*
X19710700Y-10029900D03*
X19710700Y-9829900D03*
X19710700Y-9629900D03*
X19710700Y-9429900D03*
X19710700Y-9229900D03*
X17740700Y-9229900D03*
X17740700Y-9429900D03*
X17740700Y-9629900D03*
X17740700Y-9829900D03*
X17740700Y-10029900D03*
X17740700Y-10229900D03*
X17740700Y-10429900D03*
X17740700Y-10629900D03*
D20*
X18415000Y-11099800D03*
D21*
X18665000Y-11099800D03*
D20*
X18110200Y-11404600D03*
D21*
X18110200Y-11654600D03*
D22*
X14249400Y-6007100D03*
D23*
X13741400Y-6007100D03*
X13233400Y-6007100D03*
X14960600Y-6007100D03*
X15468600Y-6007100D03*
D22*
X15976600Y-6007100D03*
X17703800Y-6007100D03*
D23*
X17195800Y-6007100D03*
X16687800Y-6007100D03*
X18415000Y-6007100D03*
X18923000Y-6007100D03*
D22*
X19431000Y-6007100D03*
D23*
X19278600Y-14706600D03*
X18770600Y-14706600D03*
D22*
X18262600Y-14706600D03*
X16586200Y-14706600D03*
D23*
X17094200Y-14706600D03*
X17602200Y-14706600D03*
X15925800Y-14706600D03*
X15417800Y-14706600D03*
D22*
X14909800Y-14706600D03*
X13233400Y-14706600D03*
D23*
X13741400Y-14706600D03*
X14249400Y-14706600D03*
D24*
X13741400Y-8239500D03*
X13141400Y-6819500D03*
X14341400Y-6819500D03*
X14341400Y-8039500D03*
X13141400Y-8039500D03*
X14868600Y-8039500D03*
X16068600Y-8039500D03*
X16068600Y-6819500D03*
X14868600Y-6819500D03*
X15468600Y-8239500D03*
X17195800Y-8239500D03*
X16595800Y-6819500D03*
X17795800Y-6819500D03*
X17795800Y-8039500D03*
X16595800Y-8039500D03*
X18323000Y-8039500D03*
X19523000Y-8039500D03*
X19523000Y-6819500D03*
X18323000Y-6819500D03*
X18923000Y-8239500D03*
X18770600Y-12525000D03*
X19370600Y-13945000D03*
X18170600Y-13945000D03*
X18170600Y-12725000D03*
X19370600Y-12725000D03*
X17694200Y-12725000D03*
X16494200Y-12725000D03*
X16494200Y-13945000D03*
X17694200Y-13945000D03*
X17094200Y-12525000D03*
X15417800Y-12525000D03*
X16017800Y-13945000D03*
X14817800Y-13945000D03*
X14817800Y-12725000D03*
X16017800Y-12725000D03*
X14341400Y-12725000D03*
X13141400Y-12725000D03*
X13141400Y-13945000D03*
X14341400Y-13945000D03*
X13741400Y-12525000D03*
D25*
X20183000Y-7792700D03*
X12483000Y-7792700D03*
X12483000Y-12697400D03*
X20183000Y-12697400D03*
D26*
X19342100Y-9626600D03*
X17411700Y-10236200D03*
X15684500Y-10502900D03*
X14897100Y-9880600D03*
X16116300Y-9753600D03*
X14732000Y-9880600D03*
X19037300Y-10375900D03*
X13119100Y-11506200D03*
X15633700Y-9918700D03*
X15748000Y-9842500D03*
X15189200Y-9944100D03*
X15011400Y-9982200D03*
X15062200Y-9385300D03*
X14973300Y-9321800D03*
X14719300Y-9398000D03*
X14490700Y-9512300D03*
D27*
X19710700Y-9229900D02*
X19434000Y-9229900D01*
X19434000Y-9229900D02*
X19342100Y-9321800D01*
X19342100Y-9321800D02*
X19342100Y-9626600D01*
X14351000Y-10241900D02*
X14351000Y-10477500D01*
X14846300Y-10972800D02*
X16560800Y-10972800D01*
X14351000Y-10477500D02*
X14846300Y-10972800D01*
X14510200Y-10241900D02*
X14351000Y-10241900D01*
X14351000Y-10241900D02*
X14351000Y-10236200D01*
X14510200Y-10081900D02*
X14365600Y-10081900D01*
X14351000Y-10096500D02*
X14351000Y-10236200D01*
X14365600Y-10081900D02*
X14351000Y-10096500D01*
X16560800Y-10972800D02*
X16700500Y-11112500D01*
X17094200Y-11112500D02*
X17386300Y-11404600D01*
X16700500Y-11112500D02*
X17094200Y-11112500D01*
X17386300Y-11404600D02*
X17612400Y-11404600D01*
X17612400Y-11404600D02*
X18110200Y-11404600D01*
X14508300Y-10083800D02*
X14510200Y-10081900D01*
X17740700Y-10429900D02*
X17218000Y-10429900D01*
X15055200Y-10699100D02*
X15055200Y-10546900D01*
X15125700Y-10769600D02*
X15055200Y-10699100D01*
X16878300Y-10769600D02*
X15125700Y-10769600D01*
X17218000Y-10429900D02*
X16878300Y-10769600D01*
X17418000Y-10229900D02*
X17740700Y-10229900D01*
X17411700Y-10236200D02*
X17418000Y-10229900D01*
X16205200Y-10248900D02*
X16205200Y-10287000D01*
X15135200Y-10546900D02*
X15135200Y-10652100D01*
X15643170Y-10693400D02*
X15677140Y-10659430D01*
X15176500Y-10693400D02*
X15643170Y-10693400D01*
X15135200Y-10652100D02*
X15176500Y-10693400D01*
X16087670Y-10248900D02*
X15677140Y-10659430D01*
X16205200Y-10248900D02*
X16087670Y-10248900D01*
X15215200Y-10546900D02*
X15640500Y-10546900D01*
X15640500Y-10546900D02*
X15684500Y-10502900D01*
X16459200Y-10502900D02*
X16700500Y-10502900D01*
X17173500Y-10029900D02*
X17740700Y-10029900D01*
X16700500Y-10502900D02*
X17173500Y-10029900D01*
X16995730Y-9829900D02*
X16576730Y-10248900D01*
X17740700Y-9829900D02*
X16995730Y-9829900D01*
X16459200Y-10248900D02*
X16517970Y-10248900D01*
X16517970Y-10248900D02*
X16576730Y-10248900D01*
X15744790Y-10129840D02*
X15472730Y-10401900D01*
X16398910Y-10129840D02*
X15744790Y-10129840D01*
X16517970Y-10248900D02*
X16398910Y-10129840D01*
X15360200Y-10401900D02*
X15472730Y-10401900D01*
X14895200Y-9696900D02*
X14895200Y-9878700D01*
X14895200Y-9878700D02*
X14897100Y-9880600D01*
X16459200Y-9994900D02*
X16459200Y-9867900D01*
X16344900Y-9753600D02*
X16116300Y-9753600D01*
X16459200Y-9867900D02*
X16344900Y-9753600D01*
X14897100Y-9695000D02*
X14895200Y-9696900D01*
X14655200Y-9696900D02*
X14655200Y-9803800D01*
X14655200Y-9803800D02*
X14732000Y-9880600D01*
X19710700Y-10429900D02*
X19091300Y-10429900D01*
X19091300Y-10429900D02*
X19037300Y-10375900D01*
D28*
X17451230Y-9429900D02*
X17444730Y-9423400D01*
X17740700Y-9429900D02*
X17451230Y-9429900D01*
X17284700Y-9423400D02*
X17444730Y-9423400D01*
D27*
X14341400Y-12725000D02*
X14341400Y-12039600D01*
X14341400Y-12039600D02*
X14338300Y-12039600D01*
X13119100Y-11506200D02*
X13652500Y-12039600D01*
X13652500Y-12039600D02*
X14338300Y-12039600D01*
X14338300Y-12039600D02*
X14973300Y-12039600D01*
X18323000Y-8039500D02*
X18323000Y-8474000D01*
X18323000Y-8474000D02*
X17932400Y-8864600D01*
X13141400Y-8039500D02*
X13141400Y-8378900D01*
X13627100Y-8864600D02*
X13843000Y-8864600D01*
X13141400Y-8378900D02*
X13627100Y-8864600D01*
X14868600Y-8039500D02*
X14868600Y-8864600D01*
X14868600Y-8864600D02*
X14859000Y-8864600D01*
X16595800Y-8039500D02*
X16595800Y-8864600D01*
X16595800Y-8864600D02*
X16598900Y-8864600D01*
X19370600Y-12725000D02*
X19370600Y-12474600D01*
X19370600Y-12474600D02*
X18935600Y-12039600D01*
X17694200Y-12725000D02*
X17694200Y-12039600D01*
X17694200Y-12039600D02*
X17691100Y-12039600D01*
X16017800Y-12725000D02*
X16017800Y-12039600D01*
X16017800Y-12039600D02*
X16027400Y-12039600D01*
X18415000Y-11099800D02*
X17687200Y-11099800D01*
X17687200Y-11099800D02*
X17612400Y-11174600D01*
X14859000Y-8049100D02*
X14868600Y-8039500D01*
X14859000Y-8864600D02*
X13843000Y-8864600D01*
X17932400Y-8864600D02*
X17043400Y-8864600D01*
X17043400Y-8864600D02*
X16598900Y-8864600D01*
X16598900Y-8864600D02*
X15303500Y-8864600D01*
X15303500Y-8864600D02*
X14859000Y-8864600D01*
X18935600Y-12039600D02*
X17691100Y-12039600D01*
X17691100Y-12039600D02*
X17259300Y-12039600D01*
X17259300Y-12039600D02*
X16027400Y-12039600D01*
X16027400Y-12039600D02*
X15582900Y-12039600D01*
X15582900Y-12039600D02*
X14973300Y-12039600D01*
X19532600Y-11201400D02*
X19532600Y-11214100D01*
X19532600Y-11214100D02*
X18935600Y-11811100D01*
X18935600Y-11811100D02*
X18935600Y-12039600D01*
X19532600Y-11201400D02*
X19532600Y-11176000D01*
X19532600Y-11176000D02*
X19227800Y-10871200D01*
X19227800Y-10871200D02*
X18757900Y-10871200D01*
X18757900Y-10871200D02*
X18542000Y-10871200D01*
X18542000Y-10871200D02*
X18415000Y-10998200D01*
X18415000Y-10998200D02*
X18415000Y-11099800D01*
X15360200Y-10081900D02*
X15610200Y-10081900D01*
X15697200Y-9994900D02*
X16205200Y-9994900D01*
X15610200Y-10081900D02*
X15697200Y-9994900D01*
X14510200Y-10161900D02*
X14831700Y-10161900D01*
X14831700Y-10161900D02*
X14911700Y-10081900D01*
X15360200Y-10081900D02*
X14911700Y-10081900D01*
X14911700Y-10081900D02*
X14895200Y-10081900D01*
X14815200Y-10001900D02*
X14510200Y-10001900D01*
X14895200Y-10081900D02*
X14815200Y-10001900D01*
X15630500Y-9921900D02*
X15360200Y-9921900D01*
X15633700Y-9918700D02*
X15630500Y-9921900D01*
X15360200Y-9841900D02*
X15747400Y-9841900D01*
X15747400Y-9841900D02*
X15748000Y-9842500D01*
X15215200Y-9918100D02*
X15215200Y-9696900D01*
X15189200Y-9944100D02*
X15215200Y-9918100D01*
X15135200Y-9696900D02*
X15135200Y-9858400D01*
X15135200Y-9858400D02*
X15011400Y-9982200D01*
X15055200Y-9392300D02*
X15055200Y-9696900D01*
X15062200Y-9385300D02*
X15055200Y-9392300D01*
X14975200Y-9696900D02*
X14975200Y-9323700D01*
X14975200Y-9323700D02*
X14973300Y-9321800D01*
X14973300Y-9695000D02*
X14975200Y-9696900D01*
X14815200Y-9696900D02*
X14815200Y-9493900D01*
X14815200Y-9493900D02*
X14719300Y-9398000D01*
X14732000Y-9537700D02*
X14732000Y-9693700D01*
X14706600Y-9512300D02*
X14732000Y-9537700D01*
X14490700Y-9512300D02*
X14706600Y-9512300D01*
X14732000Y-9693700D02*
X14735200Y-9696900D01*
D29*
G36*
X13573360Y-8918340D02*
X13598016Y-8934815D01*
X13627100Y-8940600D01*
X17932400Y-8940600D01*
X17961484Y-8934815D01*
X17986140Y-8918340D01*
X18194380Y-8710100D01*
X20512000Y-8710100D01*
X20512000Y-12084700D01*
X19088180Y-12084700D01*
X19011600Y-12008120D01*
X19011600Y-11842580D01*
X19116205Y-11737975D01*
X19342100Y-11737975D01*
X19342100Y-11849031D01*
X19351767Y-11872370D01*
X19369630Y-11890233D01*
X19392969Y-11899900D01*
X19504025Y-11899900D01*
X19519900Y-11884025D01*
X19519900Y-11722100D01*
X19545300Y-11722100D01*
X19545300Y-11884025D01*
X19561175Y-11899900D01*
X19672231Y-11899900D01*
X19695570Y-11890233D01*
X19713433Y-11872370D01*
X19723100Y-11849031D01*
X19723100Y-11737975D01*
X19707225Y-11722100D01*
X19545300Y-11722100D01*
X19519900Y-11722100D01*
X19357975Y-11722100D01*
X19342100Y-11737975D01*
X19116205Y-11737975D01*
X19284411Y-11569769D01*
X19342100Y-11569769D01*
X19342100Y-11680825D01*
X19357975Y-11696700D01*
X19519900Y-11696700D01*
X19519900Y-11534775D01*
X19545300Y-11534775D01*
X19545300Y-11696700D01*
X19707225Y-11696700D01*
X19723100Y-11680825D01*
X19723100Y-11569769D01*
X19713433Y-11546430D01*
X19695570Y-11528567D01*
X19672231Y-11518900D01*
X19561175Y-11518900D01*
X19545300Y-11534775D01*
X19519900Y-11534775D01*
X19504025Y-11518900D01*
X19392969Y-11518900D01*
X19369630Y-11528567D01*
X19351767Y-11546430D01*
X19342100Y-11569769D01*
X19284411Y-11569769D01*
X19471769Y-11382411D01*
X19494541Y-11391867D01*
X19570327Y-11391933D01*
X19640369Y-11362992D01*
X19694004Y-11309450D01*
X19723067Y-11239459D01*
X19723133Y-11163674D01*
X19694192Y-11093631D01*
X19640651Y-11039996D01*
X19570659Y-11010933D01*
X19494874Y-11010867D01*
X19480773Y-11016693D01*
X19281540Y-10817460D01*
X19256884Y-10800985D01*
X19227800Y-10795200D01*
X18542000Y-10795200D01*
X18512916Y-10800985D01*
X18488260Y-10817460D01*
X18361260Y-10944460D01*
X18344785Y-10969116D01*
X18344388Y-10971112D01*
X18326468Y-10974484D01*
X18304856Y-10988391D01*
X18290357Y-11009611D01*
X18287484Y-11023800D01*
X17687200Y-11023800D01*
X17658116Y-11029585D01*
X17650228Y-11034856D01*
X17512400Y-11034856D01*
X17488868Y-11039284D01*
X17467256Y-11053191D01*
X17452757Y-11074411D01*
X17447656Y-11099600D01*
X17447656Y-11249600D01*
X17452084Y-11273132D01*
X17462776Y-11289748D01*
X17452757Y-11304411D01*
X17447859Y-11328600D01*
X17417780Y-11328600D01*
X17147940Y-11058760D01*
X17123284Y-11042285D01*
X17094200Y-11036500D01*
X16731980Y-11036500D01*
X16614540Y-10919060D01*
X16589884Y-10902585D01*
X16560800Y-10896800D01*
X14877780Y-10896800D01*
X14672624Y-10691644D01*
X14682700Y-10691644D01*
X14695659Y-10689206D01*
X14707700Y-10691644D01*
X14762700Y-10691644D01*
X14775659Y-10689206D01*
X14787700Y-10691644D01*
X14842700Y-10691644D01*
X14855659Y-10689206D01*
X14867700Y-10691644D01*
X14922700Y-10691644D01*
X14935659Y-10689206D01*
X14947700Y-10691644D01*
X14979200Y-10691644D01*
X14979200Y-10699100D01*
X14984985Y-10728184D01*
X15001460Y-10752840D01*
X15071960Y-10823340D01*
X15096616Y-10839815D01*
X15125700Y-10845600D01*
X16878300Y-10845600D01*
X16907384Y-10839815D01*
X16932040Y-10823340D01*
X17249480Y-10505900D01*
X17528967Y-10505900D01*
X17530384Y-10513432D01*
X17541076Y-10530048D01*
X17531057Y-10544711D01*
X17525956Y-10569900D01*
X17525956Y-10689900D01*
X17530384Y-10713432D01*
X17544291Y-10735044D01*
X17565511Y-10749543D01*
X17590700Y-10754644D01*
X17890700Y-10754644D01*
X17914232Y-10750216D01*
X17935844Y-10736309D01*
X17950343Y-10715089D01*
X17955444Y-10689900D01*
X17955444Y-10569900D01*
X17951016Y-10546368D01*
X17940324Y-10529752D01*
X17950343Y-10515089D01*
X17955444Y-10489900D01*
X17955444Y-10394417D01*
X18943784Y-10394417D01*
X18957988Y-10428794D01*
X18984267Y-10455119D01*
X19018620Y-10469384D01*
X19023308Y-10469388D01*
X19037560Y-10483640D01*
X19062216Y-10500115D01*
X19091300Y-10505900D01*
X19498967Y-10505900D01*
X19500384Y-10513432D01*
X19511076Y-10530048D01*
X19501057Y-10544711D01*
X19495956Y-10569900D01*
X19495956Y-10689900D01*
X19500384Y-10713432D01*
X19514291Y-10735044D01*
X19535511Y-10749543D01*
X19560700Y-10754644D01*
X19860700Y-10754644D01*
X19884232Y-10750216D01*
X19905844Y-10736309D01*
X19920343Y-10715089D01*
X19925444Y-10689900D01*
X19925444Y-10569900D01*
X19921016Y-10546368D01*
X19910324Y-10529752D01*
X19920343Y-10515089D01*
X19925444Y-10489900D01*
X19925444Y-10369900D01*
X19921016Y-10346368D01*
X19910324Y-10329752D01*
X19920343Y-10315089D01*
X19925444Y-10289900D01*
X19925444Y-10169900D01*
X19921016Y-10146368D01*
X19910324Y-10129752D01*
X19920343Y-10115089D01*
X19925444Y-10089900D01*
X19925444Y-9969900D01*
X19921016Y-9946368D01*
X19910324Y-9929752D01*
X19920343Y-9915089D01*
X19925444Y-9889900D01*
X19925444Y-9769900D01*
X19921016Y-9746368D01*
X19910324Y-9729752D01*
X19920343Y-9715089D01*
X19925444Y-9689900D01*
X19925444Y-9569900D01*
X19921016Y-9546368D01*
X19910324Y-9529752D01*
X19920343Y-9515089D01*
X19925444Y-9489900D01*
X19925444Y-9369900D01*
X19921016Y-9346368D01*
X19910324Y-9329752D01*
X19920343Y-9315089D01*
X19925444Y-9289900D01*
X19925444Y-9169900D01*
X19921016Y-9146368D01*
X19907109Y-9124756D01*
X19885889Y-9110257D01*
X19860700Y-9105156D01*
X19560700Y-9105156D01*
X19537168Y-9109584D01*
X19515556Y-9123491D01*
X19501057Y-9144711D01*
X19499196Y-9153900D01*
X19434000Y-9153900D01*
X19404916Y-9159685D01*
X19380260Y-9176160D01*
X19288360Y-9268060D01*
X19271885Y-9292716D01*
X19266100Y-9321800D01*
X19266100Y-9570354D01*
X19262881Y-9573567D01*
X19248616Y-9607920D01*
X19248584Y-9645117D01*
X19262788Y-9679494D01*
X19289067Y-9705819D01*
X19323420Y-9720084D01*
X19360617Y-9720116D01*
X19394994Y-9705912D01*
X19421319Y-9679633D01*
X19435584Y-9645280D01*
X19435616Y-9608083D01*
X19421412Y-9573706D01*
X19418100Y-9570388D01*
X19418100Y-9353280D01*
X19465480Y-9305900D01*
X19498967Y-9305900D01*
X19500384Y-9313432D01*
X19511076Y-9330048D01*
X19501057Y-9344711D01*
X19495956Y-9369900D01*
X19495956Y-9489900D01*
X19500384Y-9513432D01*
X19511076Y-9530048D01*
X19501057Y-9544711D01*
X19495956Y-9569900D01*
X19495956Y-9689900D01*
X19500384Y-9713432D01*
X19511076Y-9730048D01*
X19501057Y-9744711D01*
X19495956Y-9769900D01*
X19495956Y-9889900D01*
X19500384Y-9913432D01*
X19511076Y-9930048D01*
X19501057Y-9944711D01*
X19495956Y-9969900D01*
X19495956Y-10089900D01*
X19500384Y-10113432D01*
X19511076Y-10130048D01*
X19501057Y-10144711D01*
X19495956Y-10169900D01*
X19495956Y-10289900D01*
X19500384Y-10313432D01*
X19511076Y-10330048D01*
X19501057Y-10344711D01*
X19499196Y-10353900D01*
X19129377Y-10353900D01*
X19116612Y-10323006D01*
X19090333Y-10296681D01*
X19055980Y-10282416D01*
X19018783Y-10282384D01*
X18984406Y-10296588D01*
X18958081Y-10322867D01*
X18943816Y-10357220D01*
X18943784Y-10394417D01*
X17955444Y-10394417D01*
X17955444Y-10369900D01*
X17951016Y-10346368D01*
X17940324Y-10329752D01*
X17950343Y-10315089D01*
X17955444Y-10289900D01*
X17955444Y-10169900D01*
X17951016Y-10146368D01*
X17940324Y-10129752D01*
X17950343Y-10115089D01*
X17955444Y-10089900D01*
X17955444Y-9969900D01*
X17951016Y-9946368D01*
X17940324Y-9929752D01*
X17950343Y-9915089D01*
X17955444Y-9889900D01*
X17955444Y-9769900D01*
X17951016Y-9746368D01*
X17940452Y-9729951D01*
X17944533Y-9725870D01*
X17954200Y-9702531D01*
X17954200Y-9658475D01*
X17938325Y-9642600D01*
X17753400Y-9642600D01*
X17753400Y-9644600D01*
X17728000Y-9644600D01*
X17728000Y-9642600D01*
X17543075Y-9642600D01*
X17527200Y-9658475D01*
X17527200Y-9702531D01*
X17536867Y-9725870D01*
X17541063Y-9730066D01*
X17531057Y-9744711D01*
X17529196Y-9753900D01*
X16995730Y-9753900D01*
X16966646Y-9759685D01*
X16941990Y-9776160D01*
X16569975Y-10148175D01*
X16567115Y-10143895D01*
X16534197Y-10121900D01*
X16567115Y-10099905D01*
X16599305Y-10051729D01*
X16610609Y-9994900D01*
X16599305Y-9938072D01*
X16567115Y-9889895D01*
X16535200Y-9868570D01*
X16535200Y-9867900D01*
X16529415Y-9838816D01*
X16512940Y-9814160D01*
X16398640Y-9699860D01*
X16373984Y-9683385D01*
X16344900Y-9677600D01*
X16172546Y-9677600D01*
X16169333Y-9674381D01*
X16134980Y-9660116D01*
X16097783Y-9660084D01*
X16063406Y-9674288D01*
X16037081Y-9700567D01*
X16022816Y-9734920D01*
X16022784Y-9772117D01*
X16036988Y-9806494D01*
X16063267Y-9832819D01*
X16097620Y-9847084D01*
X16134817Y-9847116D01*
X16169194Y-9832912D01*
X16172512Y-9829600D01*
X16313420Y-9829600D01*
X16364731Y-9880911D01*
X16351285Y-9889895D01*
X16332365Y-9918210D01*
X16332364Y-9918208D01*
X16293336Y-9875382D01*
X16240889Y-9850751D01*
X16217900Y-9862818D01*
X16217900Y-9982200D01*
X16219900Y-9982200D01*
X16219900Y-10007600D01*
X16217900Y-10007600D01*
X16217900Y-10009600D01*
X16192500Y-10009600D01*
X16192500Y-10007600D01*
X16073184Y-10007600D01*
X16061052Y-10030589D01*
X16070683Y-10053840D01*
X15744790Y-10053840D01*
X15722871Y-10058200D01*
X15715706Y-10059625D01*
X15691050Y-10076100D01*
X15504944Y-10262206D01*
X15504944Y-10214400D01*
X15502506Y-10201441D01*
X15504944Y-10189400D01*
X15504944Y-10134400D01*
X15502955Y-10123830D01*
X15503700Y-10122031D01*
X15503700Y-10110475D01*
X15494060Y-10100835D01*
X15486609Y-10089256D01*
X15475860Y-10081912D01*
X15485344Y-10075809D01*
X15494249Y-10062776D01*
X15503700Y-10053325D01*
X15503700Y-10041769D01*
X15502853Y-10039725D01*
X15504944Y-10029400D01*
X15504944Y-9997900D01*
X15580648Y-9997900D01*
X15580667Y-9997919D01*
X15615020Y-10012184D01*
X15652217Y-10012216D01*
X15686594Y-9998012D01*
X15712919Y-9971733D01*
X15718119Y-9959211D01*
X16061052Y-9959211D01*
X16073184Y-9982200D01*
X16192500Y-9982200D01*
X16192500Y-9862818D01*
X16169511Y-9850751D01*
X16117064Y-9875382D01*
X16078035Y-9918208D01*
X16061052Y-9959211D01*
X15718119Y-9959211D01*
X15727184Y-9937380D01*
X15727186Y-9935098D01*
X15729320Y-9935984D01*
X15766517Y-9936016D01*
X15800894Y-9921812D01*
X15827219Y-9895533D01*
X15841484Y-9861180D01*
X15841516Y-9823983D01*
X15827312Y-9789606D01*
X15801033Y-9763281D01*
X15766680Y-9749016D01*
X15729483Y-9748984D01*
X15695106Y-9763188D01*
X15692389Y-9765900D01*
X15481697Y-9765900D01*
X15465389Y-9754757D01*
X15440200Y-9749656D01*
X15307444Y-9749656D01*
X15307444Y-9616900D01*
X15303016Y-9593368D01*
X15289109Y-9571756D01*
X15267889Y-9557257D01*
X15242700Y-9552156D01*
X15187700Y-9552156D01*
X15174741Y-9554594D01*
X15162700Y-9552156D01*
X15131200Y-9552156D01*
X15131200Y-9448534D01*
X15141419Y-9438333D01*
X15155684Y-9403980D01*
X15155716Y-9366783D01*
X15143988Y-9338400D01*
X17134956Y-9338400D01*
X17134956Y-9508400D01*
X17139384Y-9531932D01*
X17153291Y-9553544D01*
X17174511Y-9568043D01*
X17199700Y-9573144D01*
X17369700Y-9573144D01*
X17393232Y-9568716D01*
X17414844Y-9554809D01*
X17429343Y-9533589D01*
X17433147Y-9514803D01*
X17451230Y-9518400D01*
X17451231Y-9518400D01*
X17533581Y-9518400D01*
X17540948Y-9529849D01*
X17536867Y-9533930D01*
X17527200Y-9557269D01*
X17527200Y-9601325D01*
X17543075Y-9617200D01*
X17728000Y-9617200D01*
X17728000Y-9615200D01*
X17753400Y-9615200D01*
X17753400Y-9617200D01*
X17938325Y-9617200D01*
X17954200Y-9601325D01*
X17954200Y-9557269D01*
X17944533Y-9533930D01*
X17940337Y-9529734D01*
X17950343Y-9515089D01*
X17955444Y-9489900D01*
X17955444Y-9369900D01*
X17951016Y-9346368D01*
X17940452Y-9329951D01*
X17944533Y-9325870D01*
X17954200Y-9302531D01*
X17954200Y-9258475D01*
X17938325Y-9242600D01*
X17753400Y-9242600D01*
X17753400Y-9244600D01*
X17728000Y-9244600D01*
X17728000Y-9242600D01*
X17543075Y-9242600D01*
X17527200Y-9258475D01*
X17527200Y-9302531D01*
X17536867Y-9325870D01*
X17541063Y-9330066D01*
X17533319Y-9341400D01*
X17477408Y-9341400D01*
X17472782Y-9340480D01*
X17444730Y-9334900D01*
X17444730Y-9334900D01*
X17433785Y-9334900D01*
X17430016Y-9314868D01*
X17416109Y-9293256D01*
X17394889Y-9278757D01*
X17369700Y-9273656D01*
X17199700Y-9273656D01*
X17176168Y-9278084D01*
X17154556Y-9291991D01*
X17140057Y-9313211D01*
X17134956Y-9338400D01*
X15143988Y-9338400D01*
X15141512Y-9332406D01*
X15115233Y-9306081D01*
X15080880Y-9291816D01*
X15062071Y-9291800D01*
X15052612Y-9268906D01*
X15026333Y-9242581D01*
X14991980Y-9228316D01*
X14954783Y-9228284D01*
X14920406Y-9242488D01*
X14894081Y-9268767D01*
X14879816Y-9303120D01*
X14879784Y-9340317D01*
X14893988Y-9374694D01*
X14899200Y-9379915D01*
X14899200Y-9552156D01*
X14891200Y-9552156D01*
X14891200Y-9493900D01*
X14885415Y-9464816D01*
X14868940Y-9440160D01*
X14812812Y-9384032D01*
X14812816Y-9379483D01*
X14798612Y-9345106D01*
X14772333Y-9318781D01*
X14737980Y-9304516D01*
X14700783Y-9304484D01*
X14666406Y-9318688D01*
X14640081Y-9344967D01*
X14625816Y-9379320D01*
X14625784Y-9416517D01*
X14633958Y-9436300D01*
X14546946Y-9436300D01*
X14543733Y-9433081D01*
X14509380Y-9418816D01*
X14472183Y-9418784D01*
X14437806Y-9432988D01*
X14411481Y-9459267D01*
X14397216Y-9493620D01*
X14397184Y-9530817D01*
X14411388Y-9565194D01*
X14437667Y-9591519D01*
X14472020Y-9605784D01*
X14509217Y-9605816D01*
X14543594Y-9591612D01*
X14546912Y-9588300D01*
X14570387Y-9588300D01*
X14568057Y-9591711D01*
X14562956Y-9616900D01*
X14562956Y-9749656D01*
X14430200Y-9749656D01*
X14406668Y-9754084D01*
X14385056Y-9767991D01*
X14370557Y-9789211D01*
X14365456Y-9814400D01*
X14365456Y-9869400D01*
X14367894Y-9882359D01*
X14365456Y-9894400D01*
X14365456Y-9949400D01*
X14367445Y-9959971D01*
X14366700Y-9961769D01*
X14366700Y-9973325D01*
X14376340Y-9982965D01*
X14383791Y-9994544D01*
X14394540Y-10001888D01*
X14388305Y-10005900D01*
X14365600Y-10005900D01*
X14336516Y-10011685D01*
X14311860Y-10028160D01*
X14297260Y-10042760D01*
X14280785Y-10067416D01*
X14275000Y-10096500D01*
X14275000Y-10477500D01*
X14280785Y-10506584D01*
X14297260Y-10531240D01*
X14792560Y-11026540D01*
X14817216Y-11043015D01*
X14846300Y-11048800D01*
X16529320Y-11048800D01*
X16646760Y-11166240D01*
X16671416Y-11182715D01*
X16700500Y-11188500D01*
X16823379Y-11188500D01*
X16822757Y-11189411D01*
X16817656Y-11214600D01*
X16817656Y-11594600D01*
X16822084Y-11618132D01*
X16835991Y-11639744D01*
X16857211Y-11654243D01*
X16882400Y-11659344D01*
X17082400Y-11659344D01*
X17105932Y-11654916D01*
X17127544Y-11641009D01*
X17130620Y-11636508D01*
X17980438Y-11636508D01*
X17983392Y-11687543D01*
X17997239Y-11720973D01*
X18020298Y-11726541D01*
X18092240Y-11654600D01*
X18128161Y-11654600D01*
X18200102Y-11726541D01*
X18223161Y-11720973D01*
X18239962Y-11672692D01*
X18237008Y-11621657D01*
X18223161Y-11588227D01*
X18200102Y-11582659D01*
X18128161Y-11654600D01*
X18092240Y-11654600D01*
X18020298Y-11582659D01*
X17997239Y-11588227D01*
X17980438Y-11636508D01*
X17130620Y-11636508D01*
X17142043Y-11619789D01*
X17147144Y-11594600D01*
X17147144Y-11272924D01*
X17332560Y-11458340D01*
X17357216Y-11474815D01*
X17386300Y-11480600D01*
X17447844Y-11480600D01*
X17452084Y-11503132D01*
X17462648Y-11519549D01*
X17458567Y-11523630D01*
X17448900Y-11546969D01*
X17448900Y-11606025D01*
X17464775Y-11621900D01*
X17599700Y-11621900D01*
X17599700Y-11619900D01*
X17625100Y-11619900D01*
X17625100Y-11621900D01*
X17760025Y-11621900D01*
X17775900Y-11606025D01*
X17775900Y-11546969D01*
X17766233Y-11523630D01*
X17762037Y-11519434D01*
X17772043Y-11504789D01*
X17776942Y-11480600D01*
X17982526Y-11480600D01*
X17984884Y-11493132D01*
X17998791Y-11514744D01*
X18020011Y-11529243D01*
X18045200Y-11534344D01*
X18061439Y-11534344D01*
X18043827Y-11541639D01*
X18038259Y-11564698D01*
X18110200Y-11636639D01*
X18182141Y-11564698D01*
X18176573Y-11541639D01*
X18155610Y-11534344D01*
X18175200Y-11534344D01*
X18198732Y-11529916D01*
X18220344Y-11516009D01*
X18234843Y-11494789D01*
X18239944Y-11469600D01*
X18239944Y-11339600D01*
X18235516Y-11316068D01*
X18221609Y-11294456D01*
X18200389Y-11279957D01*
X18175200Y-11274856D01*
X18045200Y-11274856D01*
X18021668Y-11279284D01*
X18000056Y-11293191D01*
X17985557Y-11314411D01*
X17982684Y-11328600D01*
X17776956Y-11328600D01*
X17772716Y-11306068D01*
X17762024Y-11289452D01*
X17772043Y-11274789D01*
X17777144Y-11249600D01*
X17777144Y-11175800D01*
X18287326Y-11175800D01*
X18289684Y-11188332D01*
X18303591Y-11209944D01*
X18324811Y-11224443D01*
X18350000Y-11229544D01*
X18480000Y-11229544D01*
X18503532Y-11225116D01*
X18525144Y-11211209D01*
X18539643Y-11189989D01*
X18539701Y-11189702D01*
X18593059Y-11189702D01*
X18598627Y-11212761D01*
X18646908Y-11229562D01*
X18697943Y-11226608D01*
X18731373Y-11212761D01*
X18736941Y-11189702D01*
X18665000Y-11117761D01*
X18593059Y-11189702D01*
X18539701Y-11189702D01*
X18544744Y-11164800D01*
X18544744Y-11148562D01*
X18552039Y-11166173D01*
X18575098Y-11171741D01*
X18647040Y-11099800D01*
X18682961Y-11099800D01*
X18754902Y-11171741D01*
X18777961Y-11166173D01*
X18794762Y-11117892D01*
X18791808Y-11066857D01*
X18777961Y-11033427D01*
X18754902Y-11027859D01*
X18682961Y-11099800D01*
X18647040Y-11099800D01*
X18575098Y-11027859D01*
X18552039Y-11033427D01*
X18544744Y-11054390D01*
X18544744Y-11034800D01*
X18540316Y-11011268D01*
X18539435Y-11009898D01*
X18593059Y-11009898D01*
X18665000Y-11081840D01*
X18736941Y-11009898D01*
X18731373Y-10986839D01*
X18683092Y-10970038D01*
X18632057Y-10972992D01*
X18598627Y-10986839D01*
X18593059Y-11009898D01*
X18539435Y-11009898D01*
X18528216Y-10992464D01*
X18573480Y-10947200D01*
X19196320Y-10947200D01*
X19362768Y-11113648D01*
X19342133Y-11163341D01*
X19342067Y-11239126D01*
X19359033Y-11280187D01*
X18881860Y-11757360D01*
X18865385Y-11782016D01*
X18859600Y-11811100D01*
X18859600Y-11963600D01*
X13683980Y-11963600D01*
X13383555Y-11663175D01*
X17448900Y-11663175D01*
X17448900Y-11722231D01*
X17458567Y-11745570D01*
X17476430Y-11763433D01*
X17499769Y-11773100D01*
X17583825Y-11773100D01*
X17599700Y-11757225D01*
X17599700Y-11647300D01*
X17625100Y-11647300D01*
X17625100Y-11757225D01*
X17640975Y-11773100D01*
X17725031Y-11773100D01*
X17748370Y-11763433D01*
X17766233Y-11745570D01*
X17766675Y-11744502D01*
X18038259Y-11744502D01*
X18043827Y-11767561D01*
X18092108Y-11784362D01*
X18143143Y-11781408D01*
X18176573Y-11767561D01*
X18182141Y-11744502D01*
X18110200Y-11672560D01*
X18038259Y-11744502D01*
X17766675Y-11744502D01*
X17775900Y-11722231D01*
X17775900Y-11663175D01*
X17760025Y-11647300D01*
X17625100Y-11647300D01*
X17599700Y-11647300D01*
X17464775Y-11647300D01*
X17448900Y-11663175D01*
X13383555Y-11663175D01*
X13212612Y-11492232D01*
X13212616Y-11487683D01*
X13198412Y-11453306D01*
X13172133Y-11426981D01*
X13137780Y-11412716D01*
X13100583Y-11412684D01*
X13066206Y-11426888D01*
X13039881Y-11453167D01*
X13025616Y-11487520D01*
X13025584Y-11524717D01*
X13039788Y-11559094D01*
X13066067Y-11585419D01*
X13100420Y-11599684D01*
X13105108Y-11599688D01*
X13590120Y-12084700D01*
X12154000Y-12084700D01*
X12154000Y-9157269D01*
X17527200Y-9157269D01*
X17527200Y-9201325D01*
X17543075Y-9217200D01*
X17728000Y-9217200D01*
X17728000Y-9122275D01*
X17753400Y-9122275D01*
X17753400Y-9217200D01*
X17938325Y-9217200D01*
X17954200Y-9201325D01*
X17954200Y-9157269D01*
X17944533Y-9133930D01*
X17926670Y-9116067D01*
X17903331Y-9106400D01*
X17769275Y-9106400D01*
X17753400Y-9122275D01*
X17728000Y-9122275D01*
X17712125Y-9106400D01*
X17578069Y-9106400D01*
X17554730Y-9116067D01*
X17536867Y-9133930D01*
X17527200Y-9157269D01*
X12154000Y-9157269D01*
X12154000Y-8710100D01*
X13365120Y-8710100D01*
X13573360Y-8918340D01*
X13573360Y-8918340D01*
G37*
X13573360Y-8918340D02*
X13598016Y-8934815D01*
X13627100Y-8940600D01*
X17932400Y-8940600D01*
X17961484Y-8934815D01*
X17986140Y-8918340D01*
X18194380Y-8710100D01*
X20512000Y-8710100D01*
X20512000Y-12084700D01*
X19088180Y-12084700D01*
X19011600Y-12008120D01*
X19011600Y-11842580D01*
X19116205Y-11737975D01*
X19342100Y-11737975D01*
X19342100Y-11849031D01*
X19351767Y-11872370D01*
X19369630Y-11890233D01*
X19392969Y-11899900D01*
X19504025Y-11899900D01*
X19519900Y-11884025D01*
X19519900Y-11722100D01*
X19545300Y-11722100D01*
X19545300Y-11884025D01*
X19561175Y-11899900D01*
X19672231Y-11899900D01*
X19695570Y-11890233D01*
X19713433Y-11872370D01*
X19723100Y-11849031D01*
X19723100Y-11737975D01*
X19707225Y-11722100D01*
X19545300Y-11722100D01*
X19519900Y-11722100D01*
X19357975Y-11722100D01*
X19342100Y-11737975D01*
X19116205Y-11737975D01*
X19284411Y-11569769D01*
X19342100Y-11569769D01*
X19342100Y-11680825D01*
X19357975Y-11696700D01*
X19519900Y-11696700D01*
X19519900Y-11534775D01*
X19545300Y-11534775D01*
X19545300Y-11696700D01*
X19707225Y-11696700D01*
X19723100Y-11680825D01*
X19723100Y-11569769D01*
X19713433Y-11546430D01*
X19695570Y-11528567D01*
X19672231Y-11518900D01*
X19561175Y-11518900D01*
X19545300Y-11534775D01*
X19519900Y-11534775D01*
X19504025Y-11518900D01*
X19392969Y-11518900D01*
X19369630Y-11528567D01*
X19351767Y-11546430D01*
X19342100Y-11569769D01*
X19284411Y-11569769D01*
X19471769Y-11382411D01*
X19494541Y-11391867D01*
X19570327Y-11391933D01*
X19640369Y-11362992D01*
X19694004Y-11309450D01*
X19723067Y-11239459D01*
X19723133Y-11163674D01*
X19694192Y-11093631D01*
X19640651Y-11039996D01*
X19570659Y-11010933D01*
X19494874Y-11010867D01*
X19480773Y-11016693D01*
X19281540Y-10817460D01*
X19256884Y-10800985D01*
X19227800Y-10795200D01*
X18542000Y-10795200D01*
X18512916Y-10800985D01*
X18488260Y-10817460D01*
X18361260Y-10944460D01*
X18344785Y-10969116D01*
X18344388Y-10971112D01*
X18326468Y-10974484D01*
X18304856Y-10988391D01*
X18290357Y-11009611D01*
X18287484Y-11023800D01*
X17687200Y-11023800D01*
X17658116Y-11029585D01*
X17650228Y-11034856D01*
X17512400Y-11034856D01*
X17488868Y-11039284D01*
X17467256Y-11053191D01*
X17452757Y-11074411D01*
X17447656Y-11099600D01*
X17447656Y-11249600D01*
X17452084Y-11273132D01*
X17462776Y-11289748D01*
X17452757Y-11304411D01*
X17447859Y-11328600D01*
X17417780Y-11328600D01*
X17147940Y-11058760D01*
X17123284Y-11042285D01*
X17094200Y-11036500D01*
X16731980Y-11036500D01*
X16614540Y-10919060D01*
X16589884Y-10902585D01*
X16560800Y-10896800D01*
X14877780Y-10896800D01*
X14672624Y-10691644D01*
X14682700Y-10691644D01*
X14695659Y-10689206D01*
X14707700Y-10691644D01*
X14762700Y-10691644D01*
X14775659Y-10689206D01*
X14787700Y-10691644D01*
X14842700Y-10691644D01*
X14855659Y-10689206D01*
X14867700Y-10691644D01*
X14922700Y-10691644D01*
X14935659Y-10689206D01*
X14947700Y-10691644D01*
X14979200Y-10691644D01*
X14979200Y-10699100D01*
X14984985Y-10728184D01*
X15001460Y-10752840D01*
X15071960Y-10823340D01*
X15096616Y-10839815D01*
X15125700Y-10845600D01*
X16878300Y-10845600D01*
X16907384Y-10839815D01*
X16932040Y-10823340D01*
X17249480Y-10505900D01*
X17528967Y-10505900D01*
X17530384Y-10513432D01*
X17541076Y-10530048D01*
X17531057Y-10544711D01*
X17525956Y-10569900D01*
X17525956Y-10689900D01*
X17530384Y-10713432D01*
X17544291Y-10735044D01*
X17565511Y-10749543D01*
X17590700Y-10754644D01*
X17890700Y-10754644D01*
X17914232Y-10750216D01*
X17935844Y-10736309D01*
X17950343Y-10715089D01*
X17955444Y-10689900D01*
X17955444Y-10569900D01*
X17951016Y-10546368D01*
X17940324Y-10529752D01*
X17950343Y-10515089D01*
X17955444Y-10489900D01*
X17955444Y-10394417D01*
X18943784Y-10394417D01*
X18957988Y-10428794D01*
X18984267Y-10455119D01*
X19018620Y-10469384D01*
X19023308Y-10469388D01*
X19037560Y-10483640D01*
X19062216Y-10500115D01*
X19091300Y-10505900D01*
X19498967Y-10505900D01*
X19500384Y-10513432D01*
X19511076Y-10530048D01*
X19501057Y-10544711D01*
X19495956Y-10569900D01*
X19495956Y-10689900D01*
X19500384Y-10713432D01*
X19514291Y-10735044D01*
X19535511Y-10749543D01*
X19560700Y-10754644D01*
X19860700Y-10754644D01*
X19884232Y-10750216D01*
X19905844Y-10736309D01*
X19920343Y-10715089D01*
X19925444Y-10689900D01*
X19925444Y-10569900D01*
X19921016Y-10546368D01*
X19910324Y-10529752D01*
X19920343Y-10515089D01*
X19925444Y-10489900D01*
X19925444Y-10369900D01*
X19921016Y-10346368D01*
X19910324Y-10329752D01*
X19920343Y-10315089D01*
X19925444Y-10289900D01*
X19925444Y-10169900D01*
X19921016Y-10146368D01*
X19910324Y-10129752D01*
X19920343Y-10115089D01*
X19925444Y-10089900D01*
X19925444Y-9969900D01*
X19921016Y-9946368D01*
X19910324Y-9929752D01*
X19920343Y-9915089D01*
X19925444Y-9889900D01*
X19925444Y-9769900D01*
X19921016Y-9746368D01*
X19910324Y-9729752D01*
X19920343Y-9715089D01*
X19925444Y-9689900D01*
X19925444Y-9569900D01*
X19921016Y-9546368D01*
X19910324Y-9529752D01*
X19920343Y-9515089D01*
X19925444Y-9489900D01*
X19925444Y-9369900D01*
X19921016Y-9346368D01*
X19910324Y-9329752D01*
X19920343Y-9315089D01*
X19925444Y-9289900D01*
X19925444Y-9169900D01*
X19921016Y-9146368D01*
X19907109Y-9124756D01*
X19885889Y-9110257D01*
X19860700Y-9105156D01*
X19560700Y-9105156D01*
X19537168Y-9109584D01*
X19515556Y-9123491D01*
X19501057Y-9144711D01*
X19499196Y-9153900D01*
X19434000Y-9153900D01*
X19404916Y-9159685D01*
X19380260Y-9176160D01*
X19288360Y-9268060D01*
X19271885Y-9292716D01*
X19266100Y-9321800D01*
X19266100Y-9570354D01*
X19262881Y-9573567D01*
X19248616Y-9607920D01*
X19248584Y-9645117D01*
X19262788Y-9679494D01*
X19289067Y-9705819D01*
X19323420Y-9720084D01*
X19360617Y-9720116D01*
X19394994Y-9705912D01*
X19421319Y-9679633D01*
X19435584Y-9645280D01*
X19435616Y-9608083D01*
X19421412Y-9573706D01*
X19418100Y-9570388D01*
X19418100Y-9353280D01*
X19465480Y-9305900D01*
X19498967Y-9305900D01*
X19500384Y-9313432D01*
X19511076Y-9330048D01*
X19501057Y-9344711D01*
X19495956Y-9369900D01*
X19495956Y-9489900D01*
X19500384Y-9513432D01*
X19511076Y-9530048D01*
X19501057Y-9544711D01*
X19495956Y-9569900D01*
X19495956Y-9689900D01*
X19500384Y-9713432D01*
X19511076Y-9730048D01*
X19501057Y-9744711D01*
X19495956Y-9769900D01*
X19495956Y-9889900D01*
X19500384Y-9913432D01*
X19511076Y-9930048D01*
X19501057Y-9944711D01*
X19495956Y-9969900D01*
X19495956Y-10089900D01*
X19500384Y-10113432D01*
X19511076Y-10130048D01*
X19501057Y-10144711D01*
X19495956Y-10169900D01*
X19495956Y-10289900D01*
X19500384Y-10313432D01*
X19511076Y-10330048D01*
X19501057Y-10344711D01*
X19499196Y-10353900D01*
X19129377Y-10353900D01*
X19116612Y-10323006D01*
X19090333Y-10296681D01*
X19055980Y-10282416D01*
X19018783Y-10282384D01*
X18984406Y-10296588D01*
X18958081Y-10322867D01*
X18943816Y-10357220D01*
X18943784Y-10394417D01*
X17955444Y-10394417D01*
X17955444Y-10369900D01*
X17951016Y-10346368D01*
X17940324Y-10329752D01*
X17950343Y-10315089D01*
X17955444Y-10289900D01*
X17955444Y-10169900D01*
X17951016Y-10146368D01*
X17940324Y-10129752D01*
X17950343Y-10115089D01*
X17955444Y-10089900D01*
X17955444Y-9969900D01*
X17951016Y-9946368D01*
X17940324Y-9929752D01*
X17950343Y-9915089D01*
X17955444Y-9889900D01*
X17955444Y-9769900D01*
X17951016Y-9746368D01*
X17940452Y-9729951D01*
X17944533Y-9725870D01*
X17954200Y-9702531D01*
X17954200Y-9658475D01*
X17938325Y-9642600D01*
X17753400Y-9642600D01*
X17753400Y-9644600D01*
X17728000Y-9644600D01*
X17728000Y-9642600D01*
X17543075Y-9642600D01*
X17527200Y-9658475D01*
X17527200Y-9702531D01*
X17536867Y-9725870D01*
X17541063Y-9730066D01*
X17531057Y-9744711D01*
X17529196Y-9753900D01*
X16995730Y-9753900D01*
X16966646Y-9759685D01*
X16941990Y-9776160D01*
X16569975Y-10148175D01*
X16567115Y-10143895D01*
X16534197Y-10121900D01*
X16567115Y-10099905D01*
X16599305Y-10051729D01*
X16610609Y-9994900D01*
X16599305Y-9938072D01*
X16567115Y-9889895D01*
X16535200Y-9868570D01*
X16535200Y-9867900D01*
X16529415Y-9838816D01*
X16512940Y-9814160D01*
X16398640Y-9699860D01*
X16373984Y-9683385D01*
X16344900Y-9677600D01*
X16172546Y-9677600D01*
X16169333Y-9674381D01*
X16134980Y-9660116D01*
X16097783Y-9660084D01*
X16063406Y-9674288D01*
X16037081Y-9700567D01*
X16022816Y-9734920D01*
X16022784Y-9772117D01*
X16036988Y-9806494D01*
X16063267Y-9832819D01*
X16097620Y-9847084D01*
X16134817Y-9847116D01*
X16169194Y-9832912D01*
X16172512Y-9829600D01*
X16313420Y-9829600D01*
X16364731Y-9880911D01*
X16351285Y-9889895D01*
X16332365Y-9918210D01*
X16332364Y-9918208D01*
X16293336Y-9875382D01*
X16240889Y-9850751D01*
X16217900Y-9862818D01*
X16217900Y-9982200D01*
X16219900Y-9982200D01*
X16219900Y-10007600D01*
X16217900Y-10007600D01*
X16217900Y-10009600D01*
X16192500Y-10009600D01*
X16192500Y-10007600D01*
X16073184Y-10007600D01*
X16061052Y-10030589D01*
X16070683Y-10053840D01*
X15744790Y-10053840D01*
X15722871Y-10058200D01*
X15715706Y-10059625D01*
X15691050Y-10076100D01*
X15504944Y-10262206D01*
X15504944Y-10214400D01*
X15502506Y-10201441D01*
X15504944Y-10189400D01*
X15504944Y-10134400D01*
X15502955Y-10123830D01*
X15503700Y-10122031D01*
X15503700Y-10110475D01*
X15494060Y-10100835D01*
X15486609Y-10089256D01*
X15475860Y-10081912D01*
X15485344Y-10075809D01*
X15494249Y-10062776D01*
X15503700Y-10053325D01*
X15503700Y-10041769D01*
X15502853Y-10039725D01*
X15504944Y-10029400D01*
X15504944Y-9997900D01*
X15580648Y-9997900D01*
X15580667Y-9997919D01*
X15615020Y-10012184D01*
X15652217Y-10012216D01*
X15686594Y-9998012D01*
X15712919Y-9971733D01*
X15718119Y-9959211D01*
X16061052Y-9959211D01*
X16073184Y-9982200D01*
X16192500Y-9982200D01*
X16192500Y-9862818D01*
X16169511Y-9850751D01*
X16117064Y-9875382D01*
X16078035Y-9918208D01*
X16061052Y-9959211D01*
X15718119Y-9959211D01*
X15727184Y-9937380D01*
X15727186Y-9935098D01*
X15729320Y-9935984D01*
X15766517Y-9936016D01*
X15800894Y-9921812D01*
X15827219Y-9895533D01*
X15841484Y-9861180D01*
X15841516Y-9823983D01*
X15827312Y-9789606D01*
X15801033Y-9763281D01*
X15766680Y-9749016D01*
X15729483Y-9748984D01*
X15695106Y-9763188D01*
X15692389Y-9765900D01*
X15481697Y-9765900D01*
X15465389Y-9754757D01*
X15440200Y-9749656D01*
X15307444Y-9749656D01*
X15307444Y-9616900D01*
X15303016Y-9593368D01*
X15289109Y-9571756D01*
X15267889Y-9557257D01*
X15242700Y-9552156D01*
X15187700Y-9552156D01*
X15174741Y-9554594D01*
X15162700Y-9552156D01*
X15131200Y-9552156D01*
X15131200Y-9448534D01*
X15141419Y-9438333D01*
X15155684Y-9403980D01*
X15155716Y-9366783D01*
X15143988Y-9338400D01*
X17134956Y-9338400D01*
X17134956Y-9508400D01*
X17139384Y-9531932D01*
X17153291Y-9553544D01*
X17174511Y-9568043D01*
X17199700Y-9573144D01*
X17369700Y-9573144D01*
X17393232Y-9568716D01*
X17414844Y-9554809D01*
X17429343Y-9533589D01*
X17433147Y-9514803D01*
X17451230Y-9518400D01*
X17451231Y-9518400D01*
X17533581Y-9518400D01*
X17540948Y-9529849D01*
X17536867Y-9533930D01*
X17527200Y-9557269D01*
X17527200Y-9601325D01*
X17543075Y-9617200D01*
X17728000Y-9617200D01*
X17728000Y-9615200D01*
X17753400Y-9615200D01*
X17753400Y-9617200D01*
X17938325Y-9617200D01*
X17954200Y-9601325D01*
X17954200Y-9557269D01*
X17944533Y-9533930D01*
X17940337Y-9529734D01*
X17950343Y-9515089D01*
X17955444Y-9489900D01*
X17955444Y-9369900D01*
X17951016Y-9346368D01*
X17940452Y-9329951D01*
X17944533Y-9325870D01*
X17954200Y-9302531D01*
X17954200Y-9258475D01*
X17938325Y-9242600D01*
X17753400Y-9242600D01*
X17753400Y-9244600D01*
X17728000Y-9244600D01*
X17728000Y-9242600D01*
X17543075Y-9242600D01*
X17527200Y-9258475D01*
X17527200Y-9302531D01*
X17536867Y-9325870D01*
X17541063Y-9330066D01*
X17533319Y-9341400D01*
X17477408Y-9341400D01*
X17472782Y-9340480D01*
X17444730Y-9334900D01*
X17444730Y-9334900D01*
X17433785Y-9334900D01*
X17430016Y-9314868D01*
X17416109Y-9293256D01*
X17394889Y-9278757D01*
X17369700Y-9273656D01*
X17199700Y-9273656D01*
X17176168Y-9278084D01*
X17154556Y-9291991D01*
X17140057Y-9313211D01*
X17134956Y-9338400D01*
X15143988Y-9338400D01*
X15141512Y-9332406D01*
X15115233Y-9306081D01*
X15080880Y-9291816D01*
X15062071Y-9291800D01*
X15052612Y-9268906D01*
X15026333Y-9242581D01*
X14991980Y-9228316D01*
X14954783Y-9228284D01*
X14920406Y-9242488D01*
X14894081Y-9268767D01*
X14879816Y-9303120D01*
X14879784Y-9340317D01*
X14893988Y-9374694D01*
X14899200Y-9379915D01*
X14899200Y-9552156D01*
X14891200Y-9552156D01*
X14891200Y-9493900D01*
X14885415Y-9464816D01*
X14868940Y-9440160D01*
X14812812Y-9384032D01*
X14812816Y-9379483D01*
X14798612Y-9345106D01*
X14772333Y-9318781D01*
X14737980Y-9304516D01*
X14700783Y-9304484D01*
X14666406Y-9318688D01*
X14640081Y-9344967D01*
X14625816Y-9379320D01*
X14625784Y-9416517D01*
X14633958Y-9436300D01*
X14546946Y-9436300D01*
X14543733Y-9433081D01*
X14509380Y-9418816D01*
X14472183Y-9418784D01*
X14437806Y-9432988D01*
X14411481Y-9459267D01*
X14397216Y-9493620D01*
X14397184Y-9530817D01*
X14411388Y-9565194D01*
X14437667Y-9591519D01*
X14472020Y-9605784D01*
X14509217Y-9605816D01*
X14543594Y-9591612D01*
X14546912Y-9588300D01*
X14570387Y-9588300D01*
X14568057Y-9591711D01*
X14562956Y-9616900D01*
X14562956Y-9749656D01*
X14430200Y-9749656D01*
X14406668Y-9754084D01*
X14385056Y-9767991D01*
X14370557Y-9789211D01*
X14365456Y-9814400D01*
X14365456Y-9869400D01*
X14367894Y-9882359D01*
X14365456Y-9894400D01*
X14365456Y-9949400D01*
X14367445Y-9959971D01*
X14366700Y-9961769D01*
X14366700Y-9973325D01*
X14376340Y-9982965D01*
X14383791Y-9994544D01*
X14394540Y-10001888D01*
X14388305Y-10005900D01*
X14365600Y-10005900D01*
X14336516Y-10011685D01*
X14311860Y-10028160D01*
X14297260Y-10042760D01*
X14280785Y-10067416D01*
X14275000Y-10096500D01*
X14275000Y-10477500D01*
X14280785Y-10506584D01*
X14297260Y-10531240D01*
X14792560Y-11026540D01*
X14817216Y-11043015D01*
X14846300Y-11048800D01*
X16529320Y-11048800D01*
X16646760Y-11166240D01*
X16671416Y-11182715D01*
X16700500Y-11188500D01*
X16823379Y-11188500D01*
X16822757Y-11189411D01*
X16817656Y-11214600D01*
X16817656Y-11594600D01*
X16822084Y-11618132D01*
X16835991Y-11639744D01*
X16857211Y-11654243D01*
X16882400Y-11659344D01*
X17082400Y-11659344D01*
X17105932Y-11654916D01*
X17127544Y-11641009D01*
X17130620Y-11636508D01*
X17980438Y-11636508D01*
X17983392Y-11687543D01*
X17997239Y-11720973D01*
X18020298Y-11726541D01*
X18092240Y-11654600D01*
X18128161Y-11654600D01*
X18200102Y-11726541D01*
X18223161Y-11720973D01*
X18239962Y-11672692D01*
X18237008Y-11621657D01*
X18223161Y-11588227D01*
X18200102Y-11582659D01*
X18128161Y-11654600D01*
X18092240Y-11654600D01*
X18020298Y-11582659D01*
X17997239Y-11588227D01*
X17980438Y-11636508D01*
X17130620Y-11636508D01*
X17142043Y-11619789D01*
X17147144Y-11594600D01*
X17147144Y-11272924D01*
X17332560Y-11458340D01*
X17357216Y-11474815D01*
X17386300Y-11480600D01*
X17447844Y-11480600D01*
X17452084Y-11503132D01*
X17462648Y-11519549D01*
X17458567Y-11523630D01*
X17448900Y-11546969D01*
X17448900Y-11606025D01*
X17464775Y-11621900D01*
X17599700Y-11621900D01*
X17599700Y-11619900D01*
X17625100Y-11619900D01*
X17625100Y-11621900D01*
X17760025Y-11621900D01*
X17775900Y-11606025D01*
X17775900Y-11546969D01*
X17766233Y-11523630D01*
X17762037Y-11519434D01*
X17772043Y-11504789D01*
X17776942Y-11480600D01*
X17982526Y-11480600D01*
X17984884Y-11493132D01*
X17998791Y-11514744D01*
X18020011Y-11529243D01*
X18045200Y-11534344D01*
X18061439Y-11534344D01*
X18043827Y-11541639D01*
X18038259Y-11564698D01*
X18110200Y-11636639D01*
X18182141Y-11564698D01*
X18176573Y-11541639D01*
X18155610Y-11534344D01*
X18175200Y-11534344D01*
X18198732Y-11529916D01*
X18220344Y-11516009D01*
X18234843Y-11494789D01*
X18239944Y-11469600D01*
X18239944Y-11339600D01*
X18235516Y-11316068D01*
X18221609Y-11294456D01*
X18200389Y-11279957D01*
X18175200Y-11274856D01*
X18045200Y-11274856D01*
X18021668Y-11279284D01*
X18000056Y-11293191D01*
X17985557Y-11314411D01*
X17982684Y-11328600D01*
X17776956Y-11328600D01*
X17772716Y-11306068D01*
X17762024Y-11289452D01*
X17772043Y-11274789D01*
X17777144Y-11249600D01*
X17777144Y-11175800D01*
X18287326Y-11175800D01*
X18289684Y-11188332D01*
X18303591Y-11209944D01*
X18324811Y-11224443D01*
X18350000Y-11229544D01*
X18480000Y-11229544D01*
X18503532Y-11225116D01*
X18525144Y-11211209D01*
X18539643Y-11189989D01*
X18539701Y-11189702D01*
X18593059Y-11189702D01*
X18598627Y-11212761D01*
X18646908Y-11229562D01*
X18697943Y-11226608D01*
X18731373Y-11212761D01*
X18736941Y-11189702D01*
X18665000Y-11117761D01*
X18593059Y-11189702D01*
X18539701Y-11189702D01*
X18544744Y-11164800D01*
X18544744Y-11148562D01*
X18552039Y-11166173D01*
X18575098Y-11171741D01*
X18647040Y-11099800D01*
X18682961Y-11099800D01*
X18754902Y-11171741D01*
X18777961Y-11166173D01*
X18794762Y-11117892D01*
X18791808Y-11066857D01*
X18777961Y-11033427D01*
X18754902Y-11027859D01*
X18682961Y-11099800D01*
X18647040Y-11099800D01*
X18575098Y-11027859D01*
X18552039Y-11033427D01*
X18544744Y-11054390D01*
X18544744Y-11034800D01*
X18540316Y-11011268D01*
X18539435Y-11009898D01*
X18593059Y-11009898D01*
X18665000Y-11081840D01*
X18736941Y-11009898D01*
X18731373Y-10986839D01*
X18683092Y-10970038D01*
X18632057Y-10972992D01*
X18598627Y-10986839D01*
X18593059Y-11009898D01*
X18539435Y-11009898D01*
X18528216Y-10992464D01*
X18573480Y-10947200D01*
X19196320Y-10947200D01*
X19362768Y-11113648D01*
X19342133Y-11163341D01*
X19342067Y-11239126D01*
X19359033Y-11280187D01*
X18881860Y-11757360D01*
X18865385Y-11782016D01*
X18859600Y-11811100D01*
X18859600Y-11963600D01*
X13683980Y-11963600D01*
X13383555Y-11663175D01*
X17448900Y-11663175D01*
X17448900Y-11722231D01*
X17458567Y-11745570D01*
X17476430Y-11763433D01*
X17499769Y-11773100D01*
X17583825Y-11773100D01*
X17599700Y-11757225D01*
X17599700Y-11647300D01*
X17625100Y-11647300D01*
X17625100Y-11757225D01*
X17640975Y-11773100D01*
X17725031Y-11773100D01*
X17748370Y-11763433D01*
X17766233Y-11745570D01*
X17766675Y-11744502D01*
X18038259Y-11744502D01*
X18043827Y-11767561D01*
X18092108Y-11784362D01*
X18143143Y-11781408D01*
X18176573Y-11767561D01*
X18182141Y-11744502D01*
X18110200Y-11672560D01*
X18038259Y-11744502D01*
X17766675Y-11744502D01*
X17775900Y-11722231D01*
X17775900Y-11663175D01*
X17760025Y-11647300D01*
X17625100Y-11647300D01*
X17599700Y-11647300D01*
X17464775Y-11647300D01*
X17448900Y-11663175D01*
X13383555Y-11663175D01*
X13212612Y-11492232D01*
X13212616Y-11487683D01*
X13198412Y-11453306D01*
X13172133Y-11426981D01*
X13137780Y-11412716D01*
X13100583Y-11412684D01*
X13066206Y-11426888D01*
X13039881Y-11453167D01*
X13025616Y-11487520D01*
X13025584Y-11524717D01*
X13039788Y-11559094D01*
X13066067Y-11585419D01*
X13100420Y-11599684D01*
X13105108Y-11599688D01*
X13590120Y-12084700D01*
X12154000Y-12084700D01*
X12154000Y-9157269D01*
X17527200Y-9157269D01*
X17527200Y-9201325D01*
X17543075Y-9217200D01*
X17728000Y-9217200D01*
X17728000Y-9122275D01*
X17753400Y-9122275D01*
X17753400Y-9217200D01*
X17938325Y-9217200D01*
X17954200Y-9201325D01*
X17954200Y-9157269D01*
X17944533Y-9133930D01*
X17926670Y-9116067D01*
X17903331Y-9106400D01*
X17769275Y-9106400D01*
X17753400Y-9122275D01*
X17728000Y-9122275D01*
X17712125Y-9106400D01*
X17578069Y-9106400D01*
X17554730Y-9116067D01*
X17536867Y-9133930D01*
X17527200Y-9157269D01*
X12154000Y-9157269D01*
X12154000Y-8710100D01*
X13365120Y-8710100D01*
X13573360Y-8918340D01*
G36*
X14817788Y-9933494D02*
X14844067Y-9959819D01*
X14878420Y-9974084D01*
X14915617Y-9974116D01*
X14917908Y-9973170D01*
X14917884Y-10000717D01*
X14932088Y-10035094D01*
X14958367Y-10061419D01*
X14992720Y-10075684D01*
X15029917Y-10075716D01*
X15064294Y-10061512D01*
X15090619Y-10035233D01*
X15104884Y-10000880D01*
X15104888Y-9996192D01*
X15108192Y-9992888D01*
X15109888Y-9996994D01*
X15136167Y-10023319D01*
X15170520Y-10037584D01*
X15207717Y-10037616D01*
X15216332Y-10034056D01*
X15217445Y-10039971D01*
X15216700Y-10041769D01*
X15216700Y-10053325D01*
X15226340Y-10062965D01*
X15233791Y-10074544D01*
X15244540Y-10081888D01*
X15235056Y-10087991D01*
X15226150Y-10101025D01*
X15216700Y-10110475D01*
X15216700Y-10122031D01*
X15217547Y-10124075D01*
X15215456Y-10134400D01*
X15215456Y-10189400D01*
X15217894Y-10202359D01*
X15215456Y-10214400D01*
X15215456Y-10269400D01*
X15217894Y-10282359D01*
X15215456Y-10294400D01*
X15215456Y-10349400D01*
X15217894Y-10362359D01*
X15215456Y-10374400D01*
X15215456Y-10402156D01*
X15187700Y-10402156D01*
X15174741Y-10404594D01*
X15162700Y-10402156D01*
X15107700Y-10402156D01*
X15094741Y-10404594D01*
X15082700Y-10402156D01*
X15027700Y-10402156D01*
X15014741Y-10404594D01*
X15002700Y-10402156D01*
X14947700Y-10402156D01*
X14934741Y-10404594D01*
X14922700Y-10402156D01*
X14867700Y-10402156D01*
X14854741Y-10404594D01*
X14842700Y-10402156D01*
X14787700Y-10402156D01*
X14774741Y-10404594D01*
X14762700Y-10402156D01*
X14707700Y-10402156D01*
X14694741Y-10404594D01*
X14682700Y-10402156D01*
X14654944Y-10402156D01*
X14654944Y-10374400D01*
X14652506Y-10361441D01*
X14654944Y-10349400D01*
X14654944Y-10294400D01*
X14652506Y-10281441D01*
X14654944Y-10269400D01*
X14654944Y-10214400D01*
X14652955Y-10203830D01*
X14653700Y-10202031D01*
X14653700Y-10190475D01*
X14644060Y-10180835D01*
X14636609Y-10169256D01*
X14625860Y-10161912D01*
X14635344Y-10155809D01*
X14644249Y-10142776D01*
X14653700Y-10133325D01*
X14653700Y-10121769D01*
X14652853Y-10119725D01*
X14654944Y-10109400D01*
X14654944Y-10054400D01*
X14652955Y-10043830D01*
X14653700Y-10042031D01*
X14653700Y-10030475D01*
X14644060Y-10020835D01*
X14636609Y-10009256D01*
X14625860Y-10001912D01*
X14635344Y-9995809D01*
X14644249Y-9982776D01*
X14653700Y-9973325D01*
X14653700Y-9961769D01*
X14652853Y-9959725D01*
X14654944Y-9949400D01*
X14654944Y-9935754D01*
X14678967Y-9959819D01*
X14713320Y-9974084D01*
X14750517Y-9974116D01*
X14784894Y-9959912D01*
X14811219Y-9933633D01*
X14814540Y-9925634D01*
X14817788Y-9933494D01*
X14817788Y-9933494D01*
G37*
X14817788Y-9933494D02*
X14844067Y-9959819D01*
X14878420Y-9974084D01*
X14915617Y-9974116D01*
X14917908Y-9973170D01*
X14917884Y-10000717D01*
X14932088Y-10035094D01*
X14958367Y-10061419D01*
X14992720Y-10075684D01*
X15029917Y-10075716D01*
X15064294Y-10061512D01*
X15090619Y-10035233D01*
X15104884Y-10000880D01*
X15104888Y-9996192D01*
X15108192Y-9992888D01*
X15109888Y-9996994D01*
X15136167Y-10023319D01*
X15170520Y-10037584D01*
X15207717Y-10037616D01*
X15216332Y-10034056D01*
X15217445Y-10039971D01*
X15216700Y-10041769D01*
X15216700Y-10053325D01*
X15226340Y-10062965D01*
X15233791Y-10074544D01*
X15244540Y-10081888D01*
X15235056Y-10087991D01*
X15226150Y-10101025D01*
X15216700Y-10110475D01*
X15216700Y-10122031D01*
X15217547Y-10124075D01*
X15215456Y-10134400D01*
X15215456Y-10189400D01*
X15217894Y-10202359D01*
X15215456Y-10214400D01*
X15215456Y-10269400D01*
X15217894Y-10282359D01*
X15215456Y-10294400D01*
X15215456Y-10349400D01*
X15217894Y-10362359D01*
X15215456Y-10374400D01*
X15215456Y-10402156D01*
X15187700Y-10402156D01*
X15174741Y-10404594D01*
X15162700Y-10402156D01*
X15107700Y-10402156D01*
X15094741Y-10404594D01*
X15082700Y-10402156D01*
X15027700Y-10402156D01*
X15014741Y-10404594D01*
X15002700Y-10402156D01*
X14947700Y-10402156D01*
X14934741Y-10404594D01*
X14922700Y-10402156D01*
X14867700Y-10402156D01*
X14854741Y-10404594D01*
X14842700Y-10402156D01*
X14787700Y-10402156D01*
X14774741Y-10404594D01*
X14762700Y-10402156D01*
X14707700Y-10402156D01*
X14694741Y-10404594D01*
X14682700Y-10402156D01*
X14654944Y-10402156D01*
X14654944Y-10374400D01*
X14652506Y-10361441D01*
X14654944Y-10349400D01*
X14654944Y-10294400D01*
X14652506Y-10281441D01*
X14654944Y-10269400D01*
X14654944Y-10214400D01*
X14652955Y-10203830D01*
X14653700Y-10202031D01*
X14653700Y-10190475D01*
X14644060Y-10180835D01*
X14636609Y-10169256D01*
X14625860Y-10161912D01*
X14635344Y-10155809D01*
X14644249Y-10142776D01*
X14653700Y-10133325D01*
X14653700Y-10121769D01*
X14652853Y-10119725D01*
X14654944Y-10109400D01*
X14654944Y-10054400D01*
X14652955Y-10043830D01*
X14653700Y-10042031D01*
X14653700Y-10030475D01*
X14644060Y-10020835D01*
X14636609Y-10009256D01*
X14625860Y-10001912D01*
X14635344Y-9995809D01*
X14644249Y-9982776D01*
X14653700Y-9973325D01*
X14653700Y-9961769D01*
X14652853Y-9959725D01*
X14654944Y-9949400D01*
X14654944Y-9935754D01*
X14678967Y-9959819D01*
X14713320Y-9974084D01*
X14750517Y-9974116D01*
X14784894Y-9959912D01*
X14811219Y-9933633D01*
X14814540Y-9925634D01*
X14817788Y-9933494D01*
M02*
