G04 #@! TF.FileFunction,Legend,Bot*
%FSLAX45Y45*%
G04 Gerber Fmt 4.5, Leading zero omitted, Abs format (unit mm)*
G04 Created by KiCad (PCBNEW 4.0.5-e0-6337~49~ubuntu16.04.1) date Tue Jan 24 14:39:18 2017*
%MOMM*%
%LPD*%
G01*
G04 APERTURE LIST*
%ADD10C,0.100000*%
%ADD11C,0.150000*%
G04 APERTURE END LIST*
D10*
D11*
X13976500Y-9666200D02*
X14159000Y-9666200D01*
X13976500Y-10831200D02*
X13201500Y-10831200D01*
X13976500Y-9641200D02*
X13201500Y-9641200D01*
X13976500Y-10831200D02*
X13976500Y-10796700D01*
X13201500Y-10831200D02*
X13201500Y-10796700D01*
X13201500Y-9641200D02*
X13201500Y-9675700D01*
X13976500Y-9641200D02*
X13976500Y-9666200D01*
X13686619Y-9593938D02*
X13686619Y-9493938D01*
X13581857Y-9584414D02*
X13586619Y-9589176D01*
X13600905Y-9593938D01*
X13610428Y-9593938D01*
X13624714Y-9589176D01*
X13634238Y-9579652D01*
X13639000Y-9570129D01*
X13643762Y-9551081D01*
X13643762Y-9536795D01*
X13639000Y-9517748D01*
X13634238Y-9508224D01*
X13624714Y-9498700D01*
X13610428Y-9493938D01*
X13600905Y-9493938D01*
X13586619Y-9498700D01*
X13581857Y-9503462D01*
X13543762Y-9503462D02*
X13539000Y-9498700D01*
X13529476Y-9493938D01*
X13505667Y-9493938D01*
X13496143Y-9498700D01*
X13491381Y-9503462D01*
X13486619Y-9512986D01*
X13486619Y-9522510D01*
X13491381Y-9536795D01*
X13548524Y-9593938D01*
X13486619Y-9593938D01*
M02*
