G04 #@! TF.FileFunction,Soldermask,Bot*
%FSLAX45Y45*%
G04 Gerber Fmt 4.5, Leading zero omitted, Abs format (unit mm)*
G04 Created by KiCad (PCBNEW 4.0.5-e0-6337~49~ubuntu16.04.1) date Tue Jan 24 14:39:18 2017*
%MOMM*%
%LPD*%
G01*
G04 APERTURE LIST*
%ADD10C,0.100000*%
%ADD11R,2.940000X2.940000*%
%ADD12C,2.940000*%
%ADD13R,2.100000X2.100000*%
%ADD14O,2.100000X2.100000*%
%ADD15R,1.700000X1.700000*%
%ADD16C,1.700000*%
%ADD17R,2.400000X1.000000*%
%ADD18R,3.400000X3.400000*%
%ADD19C,3.400000*%
%ADD20C,1.924000*%
%ADD21C,6.800000*%
G04 APERTURE END LIST*
D10*
D11*
X19532600Y-11709400D03*
D12*
X19532600Y-11201400D03*
D13*
X17284700Y-9423400D03*
X16459200Y-10502900D03*
D14*
X16205200Y-10502900D03*
X16459200Y-10248900D03*
X16205200Y-10248900D03*
X16459200Y-9994900D03*
X16205200Y-9994900D03*
D15*
X18415000Y-11099800D03*
D16*
X18665000Y-11099800D03*
D15*
X18110200Y-11404600D03*
D16*
X18110200Y-11654600D03*
D17*
X13119000Y-9728200D03*
X13119000Y-9855200D03*
X13119000Y-9982200D03*
X13119000Y-10109200D03*
X13119000Y-10236200D03*
X13119000Y-10363200D03*
X13119000Y-10490200D03*
X13119000Y-10617200D03*
X13119000Y-10744200D03*
X14059000Y-10744200D03*
X14059000Y-10617200D03*
X14059000Y-10490200D03*
X14059000Y-10363200D03*
X14059000Y-10236200D03*
X14059000Y-10109200D03*
X14059000Y-9982200D03*
X14059000Y-9855200D03*
X14059000Y-9728200D03*
D18*
X14249400Y-6007100D03*
D19*
X13741400Y-6007100D03*
X13233400Y-6007100D03*
X14960600Y-6007100D03*
X15468600Y-6007100D03*
D18*
X15976600Y-6007100D03*
X17703800Y-6007100D03*
D19*
X17195800Y-6007100D03*
X16687800Y-6007100D03*
X18415000Y-6007100D03*
X18923000Y-6007100D03*
D18*
X19431000Y-6007100D03*
D19*
X19278600Y-14706600D03*
X18770600Y-14706600D03*
D18*
X18262600Y-14706600D03*
X16586200Y-14706600D03*
D19*
X17094200Y-14706600D03*
X17602200Y-14706600D03*
X15925800Y-14706600D03*
X15417800Y-14706600D03*
D18*
X14909800Y-14706600D03*
X13233400Y-14706600D03*
D19*
X13741400Y-14706600D03*
X14249400Y-14706600D03*
D20*
X13741400Y-8239500D03*
X13141400Y-6819500D03*
X14341400Y-6819500D03*
X14341400Y-8039500D03*
X13141400Y-8039500D03*
X14868600Y-8039500D03*
X16068600Y-8039500D03*
X16068600Y-6819500D03*
X14868600Y-6819500D03*
X15468600Y-8239500D03*
X17195800Y-8239500D03*
X16595800Y-6819500D03*
X17795800Y-6819500D03*
X17795800Y-8039500D03*
X16595800Y-8039500D03*
X18323000Y-8039500D03*
X19523000Y-8039500D03*
X19523000Y-6819500D03*
X18323000Y-6819500D03*
X18923000Y-8239500D03*
X18770600Y-12525000D03*
X19370600Y-13945000D03*
X18170600Y-13945000D03*
X18170600Y-12725000D03*
X19370600Y-12725000D03*
X17694200Y-12725000D03*
X16494200Y-12725000D03*
X16494200Y-13945000D03*
X17694200Y-13945000D03*
X17094200Y-12525000D03*
X15417800Y-12525000D03*
X16017800Y-13945000D03*
X14817800Y-13945000D03*
X14817800Y-12725000D03*
X16017800Y-12725000D03*
X14341400Y-12725000D03*
X13141400Y-12725000D03*
X13141400Y-13945000D03*
X14341400Y-13945000D03*
X13741400Y-12525000D03*
D21*
X20183000Y-7792700D03*
X12483000Y-7792700D03*
X12483000Y-12697400D03*
X20183000Y-12697400D03*
M02*
